<svg width="187" height="332" viewBox="0 0 187 332" fill="none" xmlns="http://www.w3.org/2000/svg">
<rect y="0.982666" width="186.094" height="330.736" fill="#B0B1A9" fill-opacity="0.7"/>
<path d="M33.0498 190.217H28.1699L27.2422 193H24.2827L29.311 179.492H31.8901L36.9463 193H33.9868L33.0498 190.217ZM28.9214 187.962H32.2983L30.6006 182.906L28.9214 187.962ZM42.4385 187.582L40.9912 189.141V193H38.208V179.492H40.9912V185.615L42.2158 183.936L45.6577 179.492H49.0811L44.2847 185.495L49.2202 193H45.9082L42.4385 187.582ZM60.4365 181.747H56.2988V193H53.5156V181.747H49.4336V179.492H60.4365V181.747ZM72.2559 179.492V188.389C72.2559 189.867 71.792 191.036 70.8643 191.896C69.9427 192.756 68.681 193.186 67.0791 193.186C65.502 193.186 64.2495 192.768 63.3218 191.933C62.394 191.098 61.9209 189.951 61.9023 188.491V179.492H64.6855V188.408C64.6855 189.292 64.8958 189.938 65.3164 190.347C65.7432 190.749 66.3307 190.95 67.0791 190.95C68.6439 190.95 69.4386 190.127 69.4634 188.482V179.492H72.2559ZM81.96 190.217H77.0801L76.1523 193H73.1929L78.2212 179.492H80.8003L85.8564 193H82.897L81.96 190.217ZM77.8315 187.962H81.2085L79.5107 182.906L77.8315 187.962ZM89.9014 190.764H95.811V193H87.1182V179.492H89.9014V190.764ZM100.375 193H97.5923V179.492H100.375V193ZM112.854 181.747H108.716V193H105.933V181.747H101.851V179.492H112.854V181.747ZM120.962 190.217H116.082L115.154 193H112.195L117.223 179.492H119.802L124.858 193H121.899L120.962 190.217ZM116.833 187.962H120.21L118.513 182.906L116.833 187.962ZM119.088 175.874H122.01L119.44 178.75H117.26L119.088 175.874ZM133.125 189.456C133.125 188.93 132.939 188.528 132.568 188.25C132.197 187.965 131.529 187.669 130.564 187.359C129.599 187.044 128.835 186.735 128.272 186.432C126.739 185.603 125.972 184.486 125.972 183.083C125.972 182.353 126.176 181.703 126.584 181.134C126.998 180.559 127.589 180.111 128.356 179.789C129.129 179.467 129.995 179.307 130.954 179.307C131.918 179.307 132.778 179.483 133.533 179.835C134.287 180.182 134.872 180.674 135.286 181.311C135.707 181.948 135.917 182.671 135.917 183.481H133.134C133.134 182.863 132.939 182.384 132.549 182.043C132.16 181.697 131.612 181.524 130.907 181.524C130.227 181.524 129.698 181.669 129.321 181.96C128.944 182.244 128.755 182.622 128.755 183.092C128.755 183.531 128.974 183.899 129.414 184.196C129.859 184.493 130.511 184.771 131.371 185.031C132.954 185.507 134.108 186.098 134.832 186.803C135.555 187.508 135.917 188.386 135.917 189.438C135.917 190.606 135.475 191.525 134.59 192.193C133.706 192.855 132.515 193.186 131.019 193.186C129.979 193.186 129.033 192.997 128.18 192.62C127.326 192.236 126.674 191.714 126.222 191.052C125.777 190.39 125.554 189.623 125.554 188.751H128.347C128.347 190.242 129.237 190.987 131.019 190.987C131.68 190.987 132.197 190.854 132.568 190.588C132.939 190.316 133.125 189.938 133.125 189.456ZM148.905 186.552C148.905 187.882 148.67 189.048 148.2 190.05C147.73 191.052 147.056 191.825 146.178 192.369C145.306 192.913 144.304 193.186 143.172 193.186C142.052 193.186 141.054 192.917 140.175 192.378C139.297 191.84 138.617 191.073 138.134 190.078C137.652 189.076 137.408 187.925 137.401 186.626V185.958C137.401 184.629 137.639 183.46 138.116 182.452C138.598 181.437 139.275 180.661 140.147 180.123C141.026 179.579 142.028 179.307 143.153 179.307C144.279 179.307 145.278 179.579 146.15 180.123C147.028 180.661 147.705 181.437 148.182 182.452C148.664 183.46 148.905 184.626 148.905 185.949V186.552ZM146.085 185.94C146.085 184.524 145.831 183.447 145.324 182.711C144.817 181.975 144.093 181.607 143.153 181.607C142.219 181.607 141.499 181.972 140.992 182.702C140.485 183.426 140.228 184.49 140.222 185.894V186.552C140.222 187.931 140.475 189.001 140.982 189.762C141.49 190.523 142.219 190.903 143.172 190.903C144.106 190.903 144.823 190.538 145.324 189.809C145.825 189.073 146.079 188.003 146.085 186.599V185.94ZM155.158 187.582L153.711 189.141V193H150.928V179.492H153.711V185.615L154.936 183.936L158.377 179.492H161.801L157.004 185.495L161.94 193H158.628L155.158 187.582Z" fill="#1B1D19"/>
<rect y="4.85098" width="71.8251" height="71.8251" transform="matrix(0.72094 0.692997 -0.72094 0.692997 96.4465 44.9827)" stroke="#1B1D19" stroke-width="7"/>
<path d="M92.9492 69.149V113.293" stroke="#1B1D19" stroke-width="7"/>
<path d="M92.9492 120.191L92.9492 125.709" stroke="#1B1D19" stroke-width="7"/>
</svg>
