<svg width="187" height="332" viewBox="0 0 187 332" fill="none" xmlns="http://www.w3.org/2000/svg">
<rect y="0.982666" width="186.094" height="330.736" fill="#4B7793"/>
<path d="M57.5703 277.226H53.6855V288H52.1001V277.226H48.2236V275.914H57.5703V277.226ZM68.4277 282.347C68.4277 283.531 68.2285 284.566 67.8301 285.452C67.4316 286.332 66.8672 287.004 66.1367 287.469C65.4062 287.934 64.554 288.166 63.5801 288.166C62.6283 288.166 61.7843 287.934 61.0483 287.469C60.3123 286.998 59.7396 286.332 59.3301 285.468C58.9261 284.599 58.7186 283.595 58.7075 282.455V281.583C58.7075 280.421 58.9095 279.395 59.3135 278.504C59.7174 277.613 60.2874 276.932 61.0234 276.462C61.765 275.986 62.6117 275.748 63.5635 275.748C64.5319 275.748 65.3841 275.983 66.1201 276.454C66.8617 276.918 67.4316 277.596 67.8301 278.487C68.2285 279.373 68.4277 280.405 68.4277 281.583V282.347ZM66.8423 281.567C66.8423 280.134 66.5545 279.035 65.979 278.271C65.4035 277.502 64.5983 277.118 63.5635 277.118C62.5563 277.118 61.7622 277.502 61.1812 278.271C60.6056 279.035 60.3096 280.098 60.293 281.459V282.347C60.293 283.736 60.5835 284.829 61.1646 285.626C61.7511 286.417 62.5563 286.813 63.5801 286.813C64.6094 286.813 65.4062 286.439 65.9707 285.692C66.5352 284.94 66.8257 283.863 66.8423 282.463V281.567ZM74.6367 285.883L78.0898 275.914H79.833L75.3506 288H73.9395L69.4653 275.914H71.2002L74.6367 285.883ZM87.5029 284.846H82.4395L81.3022 288H79.6587L84.2739 275.914H85.6685L90.292 288H88.6567L87.5029 284.846ZM82.9209 283.534H87.0298L84.9712 277.881L82.9209 283.534ZM85.7598 272.677H87.6191L85.3945 275.117H84.1577L85.7598 272.677ZM91.9189 288V275.914H95.8701C97.1816 275.914 98.1667 276.185 98.8252 276.728C99.4893 277.27 99.8213 278.072 99.8213 279.135C99.8213 279.699 99.6608 280.2 99.3398 280.637C99.0189 281.069 98.5817 281.404 98.0283 281.642C98.6813 281.824 99.196 282.173 99.5723 282.688C99.9541 283.197 100.145 283.805 100.145 284.514C100.145 285.598 99.7936 286.451 99.0908 287.07C98.388 287.69 97.3947 288 96.1108 288H91.9189ZM93.5127 282.347V286.697H96.144C96.8856 286.697 97.4694 286.506 97.8955 286.124C98.3271 285.737 98.543 285.205 98.543 284.53C98.543 283.075 97.7516 282.347 96.1689 282.347H93.5127ZM93.5127 281.069H95.9199C96.6172 281.069 97.1733 280.895 97.5884 280.546C98.009 280.197 98.2192 279.724 98.2192 279.126C98.2192 278.462 98.0256 277.981 97.6382 277.682C97.2508 277.378 96.6615 277.226 95.8701 277.226H93.5127V281.069ZM102.511 288V275.914H106.462C107.773 275.914 108.758 276.185 109.417 276.728C110.081 277.27 110.413 278.072 110.413 279.135C110.413 279.699 110.253 280.2 109.932 280.637C109.611 281.069 109.174 281.404 108.62 281.642C109.273 281.824 109.788 282.173 110.164 282.688C110.546 283.197 110.737 283.805 110.737 284.514C110.737 285.598 110.385 286.451 109.683 287.07C108.98 287.69 107.986 288 106.703 288H102.511ZM104.104 282.347V286.697H106.736C107.477 286.697 108.061 286.506 108.487 286.124C108.919 285.737 109.135 285.205 109.135 284.53C109.135 283.075 108.343 282.347 106.761 282.347H104.104ZM104.104 281.069H106.512C107.209 281.069 107.765 280.895 108.18 280.546C108.601 280.197 108.811 279.724 108.811 279.126C108.811 278.462 108.617 277.981 108.23 277.682C107.843 277.378 107.253 277.226 106.462 277.226H104.104V281.069ZM123.993 284.846H118.93L117.792 288H116.149L120.764 275.914H122.159L126.782 288H125.147L123.993 284.846ZM119.411 283.534H123.52L121.461 277.881L119.411 283.534ZM129.604 286.697H136.519V288H127.72V286.805L134.344 277.226H127.828V275.914H136.253V277.084L129.604 286.697ZM27.2144 305.742H23.2217L22.5244 308H19.4116L23.8442 295.914H26.5835L31.0493 308H27.9199L27.2144 305.742ZM23.9189 303.493H26.5171L25.2139 299.301L23.9189 303.493ZM36.0464 303.501L34.8511 304.812V308H31.9375V295.914H34.8511V301.243L35.8638 299.708L38.4702 295.914H42.0728L37.9888 301.26L42.0728 308H38.6196L36.0464 303.501ZM52.2993 298.164H48.6719V308H45.7583V298.164H42.1973V295.914H52.2993V298.164ZM63.0156 295.914V303.825C63.0156 304.721 62.8247 305.499 62.4429 306.157C62.061 306.81 61.5132 307.308 60.7993 307.651C60.0854 307.994 59.2415 308.166 58.2676 308.166C56.7956 308.166 55.6362 307.784 54.7896 307.021C53.9429 306.257 53.5112 305.211 53.4946 303.883V295.914H56.4248V303.941C56.458 305.264 57.0723 305.925 58.2676 305.925C58.8708 305.925 59.3273 305.759 59.6372 305.427C59.9471 305.095 60.1021 304.555 60.1021 303.808V295.914H63.0156ZM71.5239 305.742H67.5312L66.834 308H63.7212L68.1538 295.914H70.8931L75.3589 308H72.2295L71.5239 305.742ZM68.2285 303.493H70.8267L69.5234 299.301L68.2285 303.493ZM79.1606 305.759H84.2324V308H76.2471V295.914H79.1606V305.759ZM88.5654 308H85.6602V295.914H88.5654V308ZM99.8296 298.164H96.2021V308H93.2886V298.164H89.7275V295.914H99.8296V298.164ZM106.935 305.742H102.942L102.245 308H99.1323L103.565 295.914H106.304L110.77 308H107.641L106.935 305.742ZM103.64 303.493H106.238L104.935 299.301L103.64 303.493ZM105.316 292.677H108.271L105.964 295.283H103.681L105.316 292.677ZM117.892 304.788C117.892 304.361 117.74 304.029 117.436 303.792C117.137 303.554 116.608 303.307 115.85 303.053C115.092 302.798 114.472 302.552 113.991 302.314C112.425 301.545 111.642 300.488 111.642 299.143C111.642 298.473 111.835 297.884 112.223 297.375C112.616 296.86 113.169 296.462 113.883 296.18C114.597 295.892 115.399 295.748 116.29 295.748C117.159 295.748 117.936 295.903 118.623 296.213C119.314 296.523 119.851 296.965 120.233 297.541C120.615 298.111 120.806 298.764 120.806 299.5H117.9C117.9 299.007 117.748 298.626 117.444 298.354C117.145 298.083 116.738 297.948 116.224 297.948C115.703 297.948 115.291 298.064 114.987 298.296C114.688 298.523 114.539 298.814 114.539 299.168C114.539 299.478 114.705 299.76 115.037 300.015C115.369 300.264 115.952 300.524 116.788 300.795C117.624 301.061 118.31 301.348 118.847 301.658C120.153 302.411 120.806 303.448 120.806 304.771C120.806 305.828 120.407 306.658 119.61 307.261C118.813 307.864 117.721 308.166 116.332 308.166C115.352 308.166 114.464 307.992 113.667 307.643C112.876 307.289 112.278 306.807 111.874 306.199C111.476 305.584 111.276 304.879 111.276 304.082H114.198C114.198 304.729 114.364 305.208 114.696 305.518C115.034 305.822 115.579 305.975 116.332 305.975C116.813 305.975 117.192 305.872 117.469 305.667C117.751 305.457 117.892 305.164 117.892 304.788ZM132.535 302.206C132.535 303.385 132.316 304.428 131.879 305.335C131.442 306.243 130.819 306.943 130.011 307.436C129.209 307.923 128.293 308.166 127.264 308.166C126.234 308.166 125.321 307.931 124.524 307.46C123.728 306.985 123.105 306.307 122.657 305.427C122.214 304.547 121.982 303.537 121.959 302.397V301.716C121.959 300.532 122.175 299.489 122.607 298.587C123.044 297.679 123.667 296.979 124.475 296.487C125.288 295.994 126.212 295.748 127.247 295.748C128.271 295.748 129.184 295.992 129.986 296.479C130.789 296.965 131.411 297.66 131.854 298.562C132.302 299.458 132.529 300.488 132.535 301.65V302.206ZM129.571 301.7C129.571 300.499 129.369 299.589 128.965 298.969C128.567 298.343 127.994 298.031 127.247 298.031C125.786 298.031 125.014 299.126 124.931 301.318L124.923 302.206C124.923 303.39 125.119 304.301 125.512 304.937C125.905 305.573 126.489 305.892 127.264 305.892C128 305.892 128.567 305.579 128.965 304.954C129.364 304.328 129.566 303.429 129.571 302.256V301.7ZM138.146 303.501L136.951 304.812V308H134.037V295.914H136.951V301.243L137.963 299.708L140.57 295.914H144.172L140.088 301.26L144.172 308H140.719L138.146 303.501ZM149.833 303.111H146.995V308H145.393V295.914H149.394C150.755 295.914 151.801 296.224 152.531 296.844C153.267 297.464 153.635 298.366 153.635 299.55C153.635 300.302 153.431 300.958 153.021 301.517C152.617 302.076 152.053 302.494 151.328 302.771L154.167 307.9V308H152.457L149.833 303.111ZM146.995 301.808H149.443C150.235 301.808 150.863 301.603 151.328 301.193C151.798 300.784 152.033 300.236 152.033 299.55C152.033 298.803 151.809 298.23 151.361 297.832C150.918 297.433 150.276 297.231 149.435 297.226H146.995V301.808ZM162.55 304.846H157.487L156.35 308H154.706L159.321 295.914H160.716L165.339 308H163.704L162.55 304.846ZM157.968 303.534H162.077L160.019 297.881L157.968 303.534Z" fill="#ECE7DD"/>
<path d="M23.8652 130.918H17.3124L15.8407 135H13.7138L19.6864 119.359H21.4911L27.4745 135H25.3583L23.8652 130.918ZM17.9355 129.221H23.2529L20.5888 121.905L17.9355 129.221ZM35.4916 127.728L33.5795 129.715V135H31.517V119.359H33.5795V127.094L40.5297 119.359H43.0219L36.8666 126.267L43.5053 135H41.0346L35.4916 127.728ZM50.4143 135C50.2997 134.771 50.2066 134.363 50.135 133.775C49.2111 134.735 48.1083 135.215 46.8264 135.215C45.6805 135.215 44.7388 134.893 44.0012 134.248C43.2707 133.596 42.9055 132.773 42.9055 131.777C42.9055 130.567 43.3638 129.629 44.2805 128.963C45.2043 128.29 46.5005 127.953 48.1691 127.953H50.1027V127.04C50.1027 126.345 49.8951 125.794 49.4797 125.386C49.0643 124.97 48.452 124.763 47.6428 124.763C46.9338 124.763 46.3394 124.942 45.8596 125.3C45.3798 125.658 45.1398 126.091 45.1398 126.6H43.1418C43.1418 126.02 43.3459 125.461 43.7541 124.924C44.1695 124.38 44.7281 123.95 45.4299 123.635C46.1389 123.32 46.9159 123.162 47.7609 123.162C49.1001 123.162 50.1493 123.499 50.9084 124.172C51.6675 124.838 52.0614 125.758 52.09 126.933V132.282C52.09 133.349 52.2261 134.198 52.4982 134.828V135H50.4143ZM47.1164 133.485C47.7395 133.485 48.3303 133.324 48.8889 133.002C49.4475 132.68 49.8521 132.261 50.1027 131.745V129.36H48.5451C46.1102 129.36 44.8928 130.073 44.8928 131.498C44.8928 132.121 45.1005 132.608 45.5158 132.959C45.9312 133.31 46.4647 133.485 47.1164 133.485ZM48.9533 118.5H51.3596L48.4807 121.658H46.8801L48.9533 118.5ZM59.0634 125.16C58.7627 125.11 58.4368 125.085 58.0859 125.085C56.7825 125.085 55.8981 125.64 55.4326 126.75V135H53.4453V123.377H55.3789L55.4111 124.72C56.0628 123.681 56.9866 123.162 58.1826 123.162C58.5693 123.162 58.8629 123.212 59.0634 123.312V125.16ZM68.9587 129.317C68.9587 131.086 68.5541 132.511 67.7448 133.593C66.9356 134.674 65.8399 135.215 64.4577 135.215C63.0469 135.215 61.9369 134.767 61.1277 133.872V139.469H59.1404V123.377H60.9558L61.0525 124.666C61.8617 123.663 62.9861 123.162 64.4255 123.162C65.822 123.162 66.9249 123.688 67.7341 124.741C68.5505 125.794 68.9587 127.258 68.9587 129.135V129.317ZM66.9714 129.092C66.9714 127.781 66.6921 126.746 66.1335 125.987C65.5749 125.228 64.8086 124.849 63.8347 124.849C62.6316 124.849 61.7292 125.382 61.1277 126.449V132.003C61.7221 133.063 62.6316 133.593 63.8562 133.593C64.8086 133.593 65.5642 133.217 66.1228 132.465C66.6885 131.706 66.9714 130.581 66.9714 129.092ZM76.9096 135C76.7951 134.771 76.702 134.363 76.6304 133.775C75.7065 134.735 74.6037 135.215 73.3218 135.215C72.1759 135.215 71.2342 134.893 70.4966 134.248C69.7661 133.596 69.4009 132.773 69.4009 131.777C69.4009 130.567 69.8592 129.629 70.7759 128.963C71.6997 128.29 72.9959 127.953 74.6645 127.953H76.5981V127.04C76.5981 126.345 76.3904 125.794 75.9751 125.386C75.5597 124.97 74.9474 124.763 74.1382 124.763C73.4292 124.763 72.8348 124.942 72.355 125.3C71.8751 125.658 71.6352 126.091 71.6352 126.6H69.6372C69.6372 126.02 69.8413 125.461 70.2495 124.924C70.6649 124.38 71.2235 123.95 71.9253 123.635C72.6343 123.32 73.4113 123.162 74.2563 123.162C75.5955 123.162 76.6447 123.499 77.4038 124.172C78.1629 124.838 78.5568 125.758 78.5854 126.933V132.282C78.5854 133.349 78.7215 134.198 78.9936 134.828V135H76.9096ZM73.6118 133.485C74.2348 133.485 74.8257 133.324 75.3843 133.002C75.9429 132.68 76.3475 132.261 76.5981 131.745V129.36H75.0405C72.6056 129.36 71.3882 130.073 71.3882 131.498C71.3882 132.121 71.5958 132.608 72.0112 132.959C72.4266 133.31 72.9601 133.485 73.6118 133.485ZM75.4487 118.5H77.855L74.9761 121.658H73.3755L75.4487 118.5ZM82.637 120.562V123.377H84.8069V124.913H82.637V132.121C82.637 132.587 82.7336 132.938 82.927 133.174C83.1204 133.403 83.4498 133.518 83.9153 133.518C84.1444 133.518 84.4595 133.475 84.8606 133.389V135C84.3378 135.143 83.8293 135.215 83.3352 135.215C82.4472 135.215 81.7776 134.946 81.3264 134.409C80.8752 133.872 80.6497 133.109 80.6497 132.121V124.913H78.5334V123.377H80.6497V120.562H82.637ZM89.5137 129.167H84.2715V127.545H89.5137V129.167ZM91.5672 123.377L91.6209 124.666C92.4731 123.663 93.6225 123.162 95.0691 123.162C96.6948 123.162 97.8012 123.785 98.3884 125.031C98.7752 124.473 99.2765 124.021 99.8923 123.678C100.515 123.334 101.249 123.162 102.094 123.162C104.644 123.162 105.94 124.512 105.983 127.212V135H103.996V127.33C103.996 126.499 103.806 125.88 103.427 125.472C103.047 125.056 102.41 124.849 101.514 124.849C100.777 124.849 100.164 125.071 99.6775 125.515C99.1905 125.951 98.9076 126.542 98.8289 127.287V135H96.8308V127.384C96.8308 125.694 96.0037 124.849 94.3494 124.849C93.046 124.849 92.1544 125.404 91.6746 126.514V135H89.6873V123.377H91.5672ZM112.054 135.215C110.479 135.215 109.197 134.699 108.209 133.668C107.22 132.63 106.726 131.244 106.726 129.511V129.146C106.726 127.993 106.945 126.965 107.381 126.062C107.825 125.153 108.441 124.444 109.229 123.936C110.024 123.42 110.883 123.162 111.807 123.162C113.318 123.162 114.493 123.66 115.331 124.655C116.168 125.651 116.587 127.076 116.587 128.931V129.758H108.713C108.742 130.904 109.075 131.831 109.712 132.54C110.357 133.242 111.173 133.593 112.162 133.593C112.863 133.593 113.458 133.45 113.945 133.163C114.432 132.877 114.858 132.497 115.223 132.024L116.437 132.97C115.463 134.466 114.002 135.215 112.054 135.215ZM111.807 124.795C111.005 124.795 110.332 125.089 109.788 125.676C109.243 126.256 108.907 127.072 108.778 128.125H114.6V127.975C114.543 126.965 114.271 126.184 113.784 125.633C113.297 125.074 112.638 124.795 111.807 124.795ZM116.654 129.092C116.654 127.309 117.076 125.876 117.921 124.795C118.766 123.706 119.873 123.162 121.241 123.162C122.601 123.162 123.679 123.628 124.474 124.559V118.5H126.461V135H124.635L124.538 133.754C123.743 134.728 122.637 135.215 121.219 135.215C119.873 135.215 118.773 134.663 117.921 133.561C117.076 132.458 116.654 131.018 116.654 129.242V129.092ZM118.641 129.317C118.641 130.635 118.913 131.666 119.457 132.411C120.002 133.156 120.754 133.528 121.713 133.528C122.974 133.528 123.894 132.963 124.474 131.831V126.492C123.88 125.396 122.966 124.849 121.735 124.849C120.761 124.849 120.002 125.225 119.457 125.977C118.913 126.729 118.641 127.842 118.641 129.317ZM132.618 135.215C131.043 135.215 129.761 134.699 128.772 133.668C127.784 132.63 127.29 131.244 127.29 129.511V129.146C127.29 127.993 127.509 126.965 127.945 126.062C128.389 125.153 129.005 124.444 129.793 123.936C130.588 123.42 131.447 123.162 132.371 123.162C133.882 123.162 135.057 123.66 135.895 124.655C136.732 125.651 137.151 127.076 137.151 128.931V129.758H129.277C129.306 130.904 129.639 131.831 130.276 132.54C130.921 133.242 131.737 133.593 132.726 133.593C133.427 133.593 134.022 133.45 134.509 133.163C134.996 132.877 135.422 132.497 135.787 132.024L137.001 132.97C136.027 134.466 134.566 135.215 132.618 135.215ZM132.371 124.795C131.569 124.795 130.896 125.089 130.352 125.676C129.807 126.256 129.471 127.072 129.342 128.125H135.164V127.975C135.107 126.965 134.835 126.184 134.348 125.633C133.861 125.074 133.202 124.795 132.371 124.795ZM139.581 123.377L139.645 124.838C140.533 123.721 141.693 123.162 143.126 123.162C145.582 123.162 146.821 124.548 146.843 127.319V135H144.855V127.309C144.848 126.471 144.655 125.851 144.275 125.45C143.903 125.049 143.319 124.849 142.524 124.849C141.88 124.849 141.314 125.021 140.827 125.364C140.34 125.708 139.96 126.159 139.688 126.718V135H137.701V123.377H139.581ZM152.742 133.593C153.451 133.593 154.07 133.378 154.6 132.948C155.13 132.519 155.424 131.981 155.481 131.337H157.361C157.325 132.003 157.096 132.637 156.673 133.238C156.251 133.84 155.685 134.32 154.976 134.678C154.274 135.036 153.53 135.215 152.742 135.215C151.159 135.215 149.899 134.688 148.961 133.636C148.03 132.576 147.564 131.129 147.564 129.296V128.963C147.564 127.831 147.772 126.825 148.187 125.944C148.602 125.063 149.197 124.38 149.97 123.893C150.751 123.406 151.671 123.162 152.731 123.162C154.034 123.162 155.116 123.552 155.975 124.333C156.842 125.114 157.304 126.127 157.361 127.373H155.481C155.424 126.621 155.137 126.005 154.622 125.525C154.113 125.038 153.483 124.795 152.731 124.795C151.721 124.795 150.937 125.16 150.378 125.891C149.827 126.614 149.551 127.663 149.551 129.038V129.414C149.551 130.753 149.827 131.785 150.378 132.508C150.93 133.231 151.718 133.593 152.742 133.593ZM162.659 135.215C161.083 135.215 159.801 134.699 158.813 133.668C157.825 132.63 157.33 131.244 157.33 129.511V129.146C157.33 127.993 157.549 126.965 157.986 126.062C158.43 125.153 159.046 124.444 159.833 123.936C160.628 123.42 161.488 123.162 162.411 123.162C163.923 123.162 165.097 123.66 165.935 124.655C166.773 125.651 167.192 127.076 167.192 128.931V129.758H159.318C159.346 130.904 159.679 131.831 160.317 132.54C160.961 133.242 161.778 133.593 162.766 133.593C163.468 133.593 164.062 133.45 164.549 133.163C165.036 132.877 165.462 132.497 165.827 132.024L167.041 132.97C166.067 134.466 164.606 135.215 162.659 135.215ZM162.411 124.795C161.609 124.795 160.936 125.089 160.392 125.676C159.848 126.256 159.511 127.072 159.382 128.125H165.204V127.975C165.147 126.965 164.875 126.184 164.388 125.633C163.901 125.074 163.242 124.795 162.411 124.795ZM169.9 135H167.913V123.377H169.9V135ZM167.752 120.294C167.752 119.972 167.849 119.7 168.042 119.478C168.243 119.256 168.536 119.145 168.923 119.145C169.31 119.145 169.603 119.256 169.804 119.478C170.004 119.7 170.105 119.972 170.105 120.294C170.105 120.616 170.004 120.885 169.804 121.1C169.603 121.314 169.31 121.422 168.923 121.422C168.536 121.422 168.243 121.314 168.042 121.1C167.849 120.885 167.752 120.616 167.752 120.294ZM15.6895 149.377L15.7432 150.666C16.5954 149.663 17.7448 149.162 19.1914 149.162C20.8171 149.162 21.9235 149.785 22.5108 151.031C22.8975 150.473 23.3988 150.021 24.0147 149.678C24.6377 149.334 25.3718 149.162 26.2168 149.162C28.7663 149.162 30.0625 150.512 30.1055 153.212V161H28.1182V153.33C28.1182 152.499 27.9284 151.88 27.5489 151.472C27.1693 151.056 26.5319 150.849 25.6368 150.849C24.8991 150.849 24.2868 151.071 23.7998 151.515C23.3129 151.951 23.03 152.542 22.9512 153.287V161H20.9532V153.384C20.9532 151.694 20.126 150.849 18.4717 150.849C17.1683 150.849 16.2767 151.404 15.7969 152.514V161H13.8096V149.377H15.6895ZM38.5291 161C38.4145 160.771 38.3214 160.363 38.2498 159.775C37.326 160.735 36.2231 161.215 34.9412 161.215C33.7954 161.215 32.8536 160.893 32.116 160.248C31.3855 159.596 31.0203 158.773 31.0203 157.777C31.0203 156.567 31.4786 155.629 32.3953 154.963C33.3191 154.29 34.6154 153.953 36.284 153.953H38.2176V153.04C38.2176 152.345 38.0099 151.794 37.5945 151.386C37.1792 150.97 36.5669 150.763 35.7576 150.763C35.0486 150.763 34.4542 150.942 33.9744 151.3C33.4946 151.658 33.2547 152.091 33.2547 152.6H31.2566C31.2566 152.02 31.4607 151.461 31.8689 150.924C32.2843 150.38 32.8429 149.95 33.5447 149.635C34.2537 149.32 35.0307 149.162 35.8758 149.162C37.215 149.162 38.2641 149.499 39.0232 150.172C39.7824 150.838 40.1762 151.758 40.2049 152.933V158.282C40.2049 159.349 40.3409 160.198 40.6131 160.828V161H38.5291ZM35.2312 159.485C35.8543 159.485 36.4451 159.324 37.0037 159.002C37.5623 158.68 37.9669 158.261 38.2176 157.745V155.36H36.66C34.2251 155.36 33.0076 156.073 33.0076 157.498C33.0076 158.121 33.2153 158.608 33.6307 158.959C34.046 159.31 34.5796 159.485 35.2312 159.485ZM41.0875 155.092C41.0875 153.28 41.5064 151.84 42.3443 150.773C43.1822 149.699 44.2922 149.162 45.6744 149.162C47.0923 149.162 48.1988 149.663 48.9937 150.666L49.0904 149.377H50.9058V160.721C50.9058 162.225 50.4582 163.41 49.563 164.276C48.675 165.143 47.4791 165.576 45.9752 165.576C45.1373 165.576 44.3173 165.397 43.5152 165.039C42.7131 164.681 42.1008 164.19 41.6783 163.567L42.7095 162.375C43.5617 163.428 44.6037 163.954 45.8355 163.954C46.8023 163.954 47.5543 163.682 48.0914 163.138C48.6356 162.593 48.9078 161.827 48.9078 160.839V159.84C48.1129 160.757 47.0279 161.215 45.6529 161.215C44.2922 161.215 43.1893 160.667 42.3443 159.571C41.5064 158.476 41.0875 156.982 41.0875 155.092ZM43.0855 155.317C43.0855 156.628 43.3541 157.659 43.8912 158.411C44.4283 159.156 45.1802 159.528 46.147 159.528C47.4003 159.528 48.3205 158.959 48.9078 157.82V152.514C48.299 151.404 47.386 150.849 46.1685 150.849C45.2017 150.849 44.4462 151.225 43.9019 151.977C43.3576 152.729 43.0855 153.842 43.0855 155.317ZM55.9564 158.089L58.6634 149.377H60.7904L56.1175 162.794C55.3942 164.728 54.2448 165.694 52.6693 165.694L52.2933 165.662L51.5521 165.522V163.911L52.0892 163.954C52.7624 163.954 53.2851 163.818 53.6575 163.546C54.0371 163.274 54.3486 162.776 54.5921 162.053L55.0325 160.871L50.8861 149.377H53.056L55.9564 158.089ZM67.8175 161C67.7029 160.771 67.6098 160.363 67.5382 159.775C66.6143 160.735 65.5115 161.215 64.2296 161.215C63.0837 161.215 62.142 160.893 61.4044 160.248C60.6739 159.596 60.3087 158.773 60.3087 157.777C60.3087 156.567 60.767 155.629 61.6837 154.963C62.6075 154.29 63.9037 153.953 65.5723 153.953H67.5059V153.04C67.5059 152.345 67.2983 151.794 66.8829 151.386C66.4675 150.97 65.8552 150.763 65.046 150.763C64.337 150.763 63.7426 150.942 63.2628 151.3C62.783 151.658 62.543 152.091 62.543 152.6H60.545C60.545 152.02 60.7491 151.461 61.1573 150.924C61.5727 150.38 62.1313 149.95 62.8331 149.635C63.5421 149.32 64.3191 149.162 65.1641 149.162C66.5033 149.162 67.5525 149.499 68.3116 150.172C69.0707 150.838 69.4646 151.758 69.4932 152.933V158.282C69.4932 159.349 69.6293 160.198 69.9014 160.828V161H67.8175ZM64.5196 159.485C65.1427 159.485 65.7335 159.324 66.2921 159.002C66.8507 158.68 67.2553 158.261 67.5059 157.745V155.36H65.9483C63.5134 155.36 62.296 156.073 62.296 157.498C62.296 158.121 62.5037 158.608 62.919 158.959C63.3344 159.31 63.8679 159.485 64.5196 159.485ZM76.4666 151.16C76.1659 151.11 75.84 151.085 75.4891 151.085C74.1857 151.085 73.3013 151.64 72.8358 152.75V161H70.8485V149.377H72.7821L72.8143 150.72C73.466 149.681 74.3898 149.162 75.5858 149.162C75.9725 149.162 76.2661 149.212 76.4666 149.312V151.16ZM83.3111 157.917C83.3111 157.38 83.107 156.965 82.6988 156.671C82.2978 156.37 81.5924 156.112 80.5826 155.897C79.58 155.683 78.7815 155.425 78.1871 155.124C77.5999 154.823 77.163 154.465 76.8766 154.05C76.5973 153.634 76.4576 153.14 76.4576 152.567C76.4576 151.615 76.8587 150.809 77.6607 150.15C78.47 149.492 79.5012 149.162 80.7545 149.162C82.0722 149.162 83.1393 149.502 83.9557 150.183C84.7792 150.863 85.191 151.733 85.191 152.793H83.193C83.193 152.249 82.9602 151.78 82.4947 151.386C82.0364 150.992 81.4563 150.795 80.7545 150.795C80.0312 150.795 79.4654 150.952 79.0572 151.268C78.649 151.583 78.4449 151.994 78.4449 152.503C78.4449 152.983 78.6347 153.344 79.0143 153.588C79.3938 153.831 80.0777 154.064 81.066 154.286C82.0615 154.508 82.8671 154.773 83.483 155.081C84.0989 155.389 84.5536 155.761 84.8473 156.198C85.148 156.628 85.2984 157.154 85.2984 157.777C85.2984 158.816 84.8831 159.65 84.0523 160.28C83.2216 160.903 82.1438 161.215 80.8189 161.215C79.8879 161.215 79.0644 161.05 78.3482 160.721C77.6321 160.391 77.0699 159.933 76.6617 159.346C76.2607 158.751 76.0602 158.11 76.0602 157.423H78.0475C78.0833 158.089 78.3482 158.619 78.8424 159.013C79.3437 159.399 80.0025 159.593 80.8189 159.593C81.5709 159.593 82.1725 159.442 82.6236 159.142C83.082 158.834 83.3111 158.425 83.3111 157.917ZM93.3031 161C93.1885 160.771 93.0954 160.363 93.0238 159.775C92.1 160.735 90.9971 161.215 89.7152 161.215C88.5694 161.215 87.6276 160.893 86.89 160.248C86.1595 159.596 85.7943 158.773 85.7943 157.777C85.7943 156.567 86.2526 155.629 87.1693 154.963C88.0931 154.29 89.3893 153.953 91.058 153.953H92.9916V153.04C92.9916 152.345 92.7839 151.794 92.3685 151.386C91.9532 150.97 91.3408 150.763 90.5316 150.763C89.8226 150.763 89.2282 150.942 88.7484 151.3C88.2686 151.658 88.0287 152.091 88.0287 152.6H86.0306C86.0306 152.02 86.2347 151.461 86.6429 150.924C87.0583 150.38 87.6169 149.95 88.3187 149.635C89.0277 149.32 89.8047 149.162 90.6498 149.162C91.989 149.162 93.0381 149.499 93.7972 150.172C94.5563 150.838 94.9502 151.758 94.9789 152.933V158.282C94.9789 159.349 95.1149 160.198 95.3871 160.828V161H93.3031ZM90.0052 159.485C90.6283 159.485 91.2191 159.324 91.7777 159.002C92.3363 158.68 92.7409 158.261 92.9916 157.745V155.36H91.4339C88.999 155.36 87.7816 156.073 87.7816 157.498C87.7816 158.121 87.9893 158.608 88.4046 158.959C88.82 159.31 89.3535 159.485 90.0052 159.485ZM91.8421 144.5H94.2484L91.3695 147.658H89.7689L91.8421 144.5ZM95.8614 155.092C95.8614 153.28 96.2804 151.84 97.1183 150.773C97.9562 149.699 99.0662 149.162 100.448 149.162C101.866 149.162 102.973 149.663 103.768 150.666L103.864 149.377H105.68V160.721C105.68 162.225 105.232 163.41 104.337 164.276C103.449 165.143 102.253 165.576 100.749 165.576C99.9112 165.576 99.0913 165.397 98.2892 165.039C97.4871 164.681 96.8748 164.19 96.4523 163.567L97.4835 162.375C98.3357 163.428 99.3777 163.954 100.609 163.954C101.576 163.954 102.328 163.682 102.865 163.138C103.41 162.593 103.682 161.827 103.682 160.839V159.84C102.887 160.757 101.802 161.215 100.427 161.215C99.0662 161.215 97.9633 160.667 97.1183 159.571C96.2804 158.476 95.8614 156.982 95.8614 155.092ZM97.8595 155.317C97.8595 156.628 98.128 157.659 98.6652 158.411C99.2023 159.156 99.9542 159.528 100.921 159.528C102.174 159.528 103.095 158.959 103.682 157.82V152.514C103.073 151.404 102.16 150.849 100.942 150.849C99.9757 150.849 99.2202 151.225 98.6759 151.977C98.1316 152.729 97.8595 153.842 97.8595 155.317ZM106.401 155.081C106.401 153.942 106.623 152.918 107.067 152.009C107.518 151.099 108.141 150.397 108.936 149.903C109.738 149.409 110.652 149.162 111.676 149.162C113.258 149.162 114.537 149.71 115.511 150.806C116.492 151.901 116.982 153.359 116.982 155.178V155.317C116.982 156.449 116.764 157.466 116.327 158.368C115.897 159.263 115.278 159.962 114.469 160.463C113.667 160.964 112.743 161.215 111.697 161.215C110.122 161.215 108.843 160.667 107.862 159.571C106.888 158.476 106.401 157.025 106.401 155.221V155.081ZM108.399 155.317C108.399 156.606 108.697 157.641 109.291 158.422C109.892 159.202 110.695 159.593 111.697 159.593C112.707 159.593 113.509 159.199 114.103 158.411C114.698 157.616 114.995 156.506 114.995 155.081C114.995 153.806 114.691 152.775 114.082 151.987C113.48 151.192 112.678 150.795 111.676 150.795C110.695 150.795 109.903 151.185 109.302 151.966C108.7 152.746 108.399 153.864 108.399 155.317ZM120.411 146.562V149.377H122.581V150.913H120.411V158.121C120.411 158.587 120.507 158.938 120.701 159.174C120.894 159.403 121.224 159.518 121.689 159.518C121.918 159.518 122.233 159.475 122.634 159.389V161C122.112 161.143 121.603 161.215 121.109 161.215C120.221 161.215 119.551 160.946 119.1 160.409C118.649 159.872 118.423 159.109 118.423 158.121V150.913H116.307V149.377H118.423V146.562H120.411ZM131.672 161.215C130.097 161.215 128.815 160.699 127.826 159.668C126.838 158.63 126.344 157.244 126.344 155.511V155.146C126.344 153.993 126.562 152.965 126.999 152.062C127.443 151.153 128.059 150.444 128.847 149.936C129.642 149.42 130.501 149.162 131.425 149.162C132.936 149.162 134.111 149.66 134.948 150.655C135.786 151.651 136.205 153.076 136.205 154.931V155.758H128.331C128.36 156.904 128.693 157.831 129.33 158.54C129.975 159.242 130.791 159.593 131.779 159.593C132.481 159.593 133.076 159.45 133.563 159.163C134.05 158.877 134.476 158.497 134.841 158.024L136.055 158.97C135.081 160.466 133.62 161.215 131.672 161.215ZM131.425 150.795C130.623 150.795 129.95 151.089 129.405 151.676C128.861 152.256 128.525 153.072 128.396 154.125H134.218V153.975C134.161 152.965 133.888 152.184 133.402 151.633C132.915 151.074 132.256 150.795 131.425 150.795ZM132.392 144.5H134.798L131.919 147.658H130.319L132.392 144.5ZM142.373 151.16C142.072 151.11 141.746 151.085 141.395 151.085C140.092 151.085 139.208 151.64 138.742 152.75V161H136.755V149.377H138.688L138.721 150.72C139.372 149.681 140.296 149.162 141.492 149.162C141.879 149.162 142.172 149.212 142.373 149.312V151.16ZM144.609 161H142.622V149.377H144.609V161ZM142.461 146.294C142.461 145.972 142.557 145.7 142.751 145.478C142.951 145.256 143.245 145.145 143.632 145.145C144.018 145.145 144.312 145.256 144.512 145.478C144.713 145.7 144.813 145.972 144.813 146.294C144.813 146.616 144.713 146.885 144.512 147.1C144.312 147.314 144.018 147.422 143.632 147.422C143.245 147.422 142.951 147.314 142.751 147.1C142.557 146.885 142.461 146.616 142.461 146.294ZM147.919 149.377L147.984 150.838C148.872 149.721 150.032 149.162 151.464 149.162C153.921 149.162 155.16 150.548 155.181 153.319V161H153.194V153.309C153.187 152.471 152.993 151.851 152.614 151.45C152.241 151.049 151.658 150.849 150.863 150.849C150.218 150.849 149.652 151.021 149.165 151.364C148.678 151.708 148.299 152.159 148.027 152.718V161H146.039V149.377H147.919ZM159.114 146.562V149.377H161.284V150.913H159.114V158.121C159.114 158.587 159.211 158.938 159.404 159.174C159.598 159.403 159.927 159.518 160.393 159.518C160.622 159.518 160.937 159.475 161.338 159.389V161C160.815 161.143 160.307 161.215 159.813 161.215C158.925 161.215 158.255 160.946 157.804 160.409C157.353 159.872 157.127 159.109 157.127 158.121V150.913H155.011V149.377H157.127V146.562H159.114ZM161.114 155.081C161.114 153.942 161.336 152.918 161.78 152.009C162.231 151.099 162.854 150.397 163.649 149.903C164.451 149.409 165.365 149.162 166.389 149.162C167.971 149.162 169.25 149.71 170.224 150.806C171.205 151.901 171.695 153.359 171.695 155.178V155.317C171.695 156.449 171.477 157.466 171.04 158.368C170.61 159.263 169.991 159.962 169.182 160.463C168.38 160.964 167.456 161.215 166.41 161.215C164.835 161.215 163.556 160.667 162.575 159.571C161.601 158.476 161.114 157.025 161.114 155.221V155.081ZM163.112 155.317C163.112 156.606 163.409 157.641 164.004 158.422C164.605 159.202 165.408 159.593 166.41 159.593C167.42 159.593 168.222 159.199 168.816 158.411C169.411 157.616 169.708 156.506 169.708 155.081C169.708 153.806 169.404 152.775 168.795 151.987C168.193 151.192 167.391 150.795 166.389 150.795C165.408 150.795 164.616 151.185 164.015 151.966C163.413 152.746 163.112 153.864 163.112 155.317ZM169.128 144.511H171.352L168.462 147.766H166.646L169.128 144.511ZM165.476 144.511H167.592L165.25 147.766H163.639L165.476 144.511ZM58.8155 187C58.7009 186.771 58.6078 186.363 58.5362 185.775C57.6124 186.735 56.5095 187.215 55.2276 187.215C54.0818 187.215 53.1401 186.893 52.4024 186.248C51.672 185.596 51.3067 184.773 51.3067 183.777C51.3067 182.567 51.7651 181.629 52.6817 180.963C53.6055 180.29 54.9018 179.953 56.5704 179.953H58.504V179.04C58.504 178.345 58.2963 177.794 57.8809 177.386C57.4656 176.97 56.8533 176.763 56.044 176.763C55.335 176.763 54.7406 176.942 54.2608 177.3C53.781 177.658 53.5411 178.091 53.5411 178.6H51.543C51.543 178.02 51.7471 177.461 52.1553 176.924C52.5707 176.38 53.1293 175.95 53.8311 175.635C54.5401 175.32 55.3171 175.162 56.1622 175.162C57.5014 175.162 58.5505 175.499 59.3096 176.172C60.0688 176.838 60.4626 177.758 60.4913 178.933V184.282C60.4913 185.349 60.6274 186.198 60.8995 186.828V187H58.8155ZM55.5177 185.485C56.1407 185.485 56.7315 185.324 57.2901 185.002C57.8487 184.68 58.2533 184.261 58.504 183.745V181.36H56.9464C54.5115 181.36 53.294 182.073 53.294 183.498C53.294 184.121 53.5017 184.608 53.9171 184.959C54.3324 185.31 54.866 185.485 55.5177 185.485ZM65.0907 181.618L63.8446 182.918V187H61.8573V170.5H63.8446V180.479L64.908 179.201L68.5282 175.377H70.9452L66.4227 180.232L71.4715 187H69.1405L65.0907 181.618ZM73.9332 172.562V175.377H76.1031V176.913H73.9332V184.121C73.9332 184.587 74.0299 184.938 74.2232 185.174C74.4166 185.403 74.746 185.518 75.2115 185.518C75.4407 185.518 75.7558 185.475 76.1568 185.389V187C75.634 187.143 75.1256 187.215 74.6314 187.215C73.7434 187.215 73.0738 186.946 72.6227 186.409C72.1715 185.872 71.9459 185.109 71.9459 184.121V176.913H69.8297V175.377H71.9459V172.562H73.9332ZM83.85 185.851C83.0765 186.76 81.9414 187.215 80.4447 187.215C79.2058 187.215 78.2604 186.857 77.6087 186.141C76.9642 185.417 76.6384 184.35 76.6312 182.939V175.377H78.6185V182.886C78.6185 184.647 79.3347 185.528 80.767 185.528C82.2852 185.528 83.2949 184.963 83.7962 183.831V175.377H85.7836V187H83.8929L83.85 185.851ZM94.2286 187C94.114 186.771 94.0209 186.363 93.9493 185.775C93.0255 186.735 91.9226 187.215 90.6407 187.215C89.4949 187.215 88.5532 186.893 87.8155 186.248C87.0851 185.596 86.7198 184.773 86.7198 183.777C86.7198 182.567 87.1782 181.629 88.0948 180.963C89.0187 180.29 90.3149 179.953 91.9835 179.953H93.9171V179.04C93.9171 178.345 93.7094 177.794 93.2941 177.386C92.8787 176.97 92.2664 176.763 91.4571 176.763C90.7482 176.763 90.1538 176.942 89.6739 177.3C89.1941 177.658 88.9542 178.091 88.9542 178.6H86.9562C86.9562 178.02 87.1603 177.461 87.5685 176.924C87.9838 176.38 88.5424 175.95 89.2443 175.635C89.9532 175.32 90.7303 175.162 91.5753 175.162C92.9145 175.162 93.9637 175.499 94.7228 176.172C95.4819 176.838 95.8758 177.758 95.9044 178.933V184.282C95.9044 185.349 96.0405 186.198 96.3126 186.828V187H94.2286ZM90.9308 185.485C91.5538 185.485 92.1446 185.324 92.7032 185.002C93.2618 184.68 93.6665 184.261 93.9171 183.745V181.36H92.3595C89.9246 181.36 88.7071 182.073 88.7071 183.498C88.7071 184.121 88.9148 184.608 89.3302 184.959C89.7456 185.31 90.2791 185.485 90.9308 185.485ZM92.7677 170.5H95.1739L92.295 173.658H90.6945L92.7677 170.5ZM99.4188 187H97.4315V170.5H99.4188V187ZM103.008 187H101.021V175.377H103.008V187ZM100.86 172.294C100.86 171.972 100.957 171.7 101.15 171.478C101.351 171.256 101.644 171.145 102.031 171.145C102.418 171.145 102.711 171.256 102.912 171.478C103.112 171.7 103.213 171.972 103.213 172.294C103.213 172.616 103.112 172.885 102.912 173.1C102.711 173.314 102.418 173.422 102.031 173.422C101.644 173.422 101.351 173.314 101.15 173.1C100.957 172.885 100.86 172.616 100.86 172.294ZM111.206 183.917C111.206 183.38 111.002 182.965 110.594 182.671C110.193 182.37 109.488 182.112 108.478 181.897C107.475 181.683 106.677 181.425 106.082 181.124C105.495 180.823 105.058 180.465 104.772 180.05C104.493 179.634 104.353 179.14 104.353 178.567C104.353 177.615 104.754 176.809 105.556 176.15C106.365 175.492 107.397 175.162 108.65 175.162C109.968 175.162 111.035 175.502 111.851 176.183C112.675 176.863 113.086 177.733 113.086 178.793H111.088C111.088 178.249 110.856 177.78 110.39 177.386C109.932 176.992 109.352 176.795 108.65 176.795C107.926 176.795 107.361 176.952 106.953 177.268C106.544 177.583 106.34 177.994 106.34 178.503C106.34 178.983 106.53 179.344 106.91 179.588C107.289 179.831 107.973 180.064 108.961 180.286C109.957 180.508 110.762 180.773 111.378 181.081C111.994 181.389 112.449 181.761 112.743 182.198C113.043 182.628 113.194 183.154 113.194 183.777C113.194 184.816 112.778 185.65 111.948 186.28C111.117 186.903 110.039 187.215 108.714 187.215C107.783 187.215 106.96 187.05 106.244 186.721C105.527 186.391 104.965 185.933 104.557 185.346C104.156 184.751 103.955 184.11 103.955 183.423H105.943C105.979 184.089 106.244 184.619 106.738 185.013C107.239 185.399 107.898 185.593 108.714 185.593C109.466 185.593 110.068 185.442 110.519 185.142C110.977 184.834 111.206 184.425 111.206 183.917ZM121.198 187C121.084 186.771 120.991 186.363 120.919 185.775C119.995 186.735 118.892 187.215 117.611 187.215C116.465 187.215 115.523 186.893 114.785 186.248C114.055 185.596 113.69 184.773 113.69 183.777C113.69 182.567 114.148 181.629 115.065 180.963C115.988 180.29 117.285 179.953 118.953 179.953H120.887V179.04C120.887 178.345 120.679 177.794 120.264 177.386C119.848 176.97 119.236 176.763 118.427 176.763C117.718 176.763 117.124 176.942 116.644 177.3C116.164 177.658 115.924 178.091 115.924 178.6H113.926C113.926 178.02 114.13 177.461 114.538 176.924C114.954 176.38 115.512 175.95 116.214 175.635C116.923 175.32 117.7 175.162 118.545 175.162C119.884 175.162 120.933 175.499 121.693 176.172C122.452 176.838 122.846 177.758 122.874 178.933V184.282C122.874 185.349 123.01 186.198 123.282 186.828V187H121.198ZM117.901 185.485C118.524 185.485 119.114 185.324 119.673 185.002C120.232 184.68 120.636 184.261 120.887 183.745V181.36H119.329C116.894 181.36 115.677 182.073 115.677 183.498C115.677 184.121 115.885 184.608 116.3 184.959C116.715 185.31 117.249 185.485 117.901 185.485ZM126.109 175.377L126.174 176.838C127.062 175.721 128.222 175.162 129.654 175.162C132.111 175.162 133.35 176.548 133.371 179.319V187H131.384V179.309C131.377 178.471 131.183 177.851 130.804 177.45C130.431 177.049 129.848 176.849 129.053 176.849C128.408 176.849 127.842 177.021 127.355 177.364C126.868 177.708 126.489 178.159 126.217 178.718V187H124.229V175.377H126.109ZM13.1329 213H11.1455V196.5H13.1329V213ZM19.3865 213.215C17.811 213.215 16.5291 212.699 15.5408 211.668C14.5525 210.63 14.0584 209.244 14.0584 207.511V207.146C14.0584 205.993 14.2768 204.965 14.7137 204.062C15.1577 203.153 15.7736 202.444 16.5613 201.936C17.3562 201.42 18.2156 201.162 19.1395 201.162C20.6505 201.162 21.825 201.66 22.6629 202.655C23.5008 203.651 23.9197 205.076 23.9197 206.931V207.758H16.0457C16.0743 208.904 16.4074 209.831 17.0447 210.54C17.6893 211.242 18.5057 211.593 19.4939 211.593C20.1958 211.593 20.7902 211.45 21.2771 211.163C21.7641 210.877 22.1902 210.497 22.5555 210.024L23.7693 210.97C22.7954 212.466 21.3344 213.215 19.3865 213.215ZM19.1395 202.795C18.3374 202.795 17.6642 203.089 17.1199 203.676C16.5756 204.256 16.2391 205.072 16.1102 206.125H21.9324V205.975C21.8751 204.965 21.603 204.184 21.116 203.633C20.629 203.074 19.9702 202.795 19.1395 202.795ZM23.9966 207.092C23.9966 205.28 24.4156 203.84 25.2535 202.773C26.0914 201.699 27.2014 201.162 28.5836 201.162C30.0015 201.162 31.108 201.663 31.9029 202.666L31.9996 201.377H33.815V212.721C33.815 214.225 33.3674 215.41 32.4722 216.276C31.5842 217.143 30.3882 217.576 28.8843 217.576C28.0464 217.576 27.2265 217.397 26.4244 217.039C25.6223 216.681 25.01 216.19 24.5875 215.567L25.6187 214.375C26.4709 215.428 27.5129 215.954 28.7447 215.954C29.7115 215.954 30.4634 215.682 31.0005 215.138C31.5448 214.593 31.817 213.827 31.817 212.839V211.84C31.022 212.757 29.9371 213.215 28.5621 213.215C27.2014 213.215 26.0985 212.667 25.2535 211.571C24.4156 210.476 23.9966 208.982 23.9966 207.092ZM25.9947 207.317C25.9947 208.628 26.2632 209.659 26.8004 210.411C27.3375 211.156 28.0894 211.528 29.0562 211.528C30.3095 211.528 31.2297 210.959 31.817 209.82V204.514C31.2082 203.404 30.2951 202.849 29.0777 202.849C28.1109 202.849 27.3554 203.225 26.8111 203.977C26.2668 204.729 25.9947 205.842 25.9947 207.317ZM36.0403 213V202.913H34.2034V201.377H36.0403V200.185C36.0403 198.938 36.3734 197.975 37.0394 197.295C37.7054 196.615 38.6471 196.274 39.8646 196.274C40.3229 196.274 40.7777 196.335 41.2288 196.457L41.1214 198.068C40.7848 198.004 40.4267 197.972 40.0472 197.972C39.4027 197.972 38.9049 198.161 38.554 198.541C38.2031 198.913 38.0277 199.451 38.0277 200.152V201.377H40.5091V202.913H38.0277V213H36.0403ZM40.4249 207.081C40.4249 205.942 40.6469 204.918 41.0909 204.009C41.5421 203.099 42.1651 202.397 42.96 201.903C43.7621 201.409 44.6752 201.162 45.6993 201.162C47.282 201.162 48.5603 201.71 49.5343 202.806C50.5154 203.901 51.0059 205.359 51.0059 207.178V207.317C51.0059 208.449 50.7875 209.466 50.3507 210.368C49.921 211.263 49.3015 211.962 48.4923 212.463C47.6902 212.964 46.7664 213.215 45.7208 213.215C44.1453 213.215 42.8669 212.667 41.8858 211.571C40.9119 210.476 40.4249 209.025 40.4249 207.221V207.081ZM42.4229 207.317C42.4229 208.606 42.7201 209.641 43.3145 210.422C43.9161 211.202 44.7182 211.593 45.7208 211.593C46.7305 211.593 47.5326 211.199 48.127 210.411C48.7214 209.616 49.0186 208.506 49.0186 207.081C49.0186 205.806 48.7143 204.775 48.1055 203.987C47.504 203.192 46.7019 202.795 45.6993 202.795C44.7182 202.795 43.9268 203.185 43.3253 203.966C42.7237 204.746 42.4229 205.864 42.4229 207.317ZM53.618 201.377L53.6825 202.838C54.5705 201.721 55.7306 201.162 57.1629 201.162C59.6193 201.162 60.8582 202.548 60.8797 205.319V213H58.8924V205.309C58.8853 204.471 58.6919 203.851 58.3123 203.45C57.9399 203.049 57.3563 202.849 56.5614 202.849C55.9168 202.849 55.3511 203.021 54.8641 203.364C54.3771 203.708 53.9976 204.159 53.7254 204.718V213H51.7381V201.377H53.618ZM64.8131 198.562V201.377H66.983V202.913H64.8131V210.121C64.8131 210.587 64.9098 210.938 65.1031 211.174C65.2965 211.403 65.6259 211.518 66.0914 211.518C66.3206 211.518 66.6357 211.475 67.0367 211.389V213C66.5139 213.143 66.0055 213.215 65.5113 213.215C64.6233 213.215 63.9537 212.946 63.5025 212.409C63.0514 211.872 62.8258 211.109 62.8258 210.121V202.913H60.7096V201.377H62.8258V198.562H64.8131ZM66.8129 207.081C66.8129 205.942 67.0349 204.918 67.4789 204.009C67.93 203.099 68.5531 202.397 69.348 201.903C70.1501 201.409 71.0632 201.162 72.0873 201.162C73.6699 201.162 74.9483 201.71 75.9222 202.806C76.9033 203.901 77.3939 205.359 77.3939 207.178V207.317C77.3939 208.449 77.1755 209.466 76.7386 210.368C76.3089 211.263 75.6895 211.962 74.8802 212.463C74.0782 212.964 73.1543 213.215 72.1087 213.215C70.5332 213.215 69.2549 212.667 68.2738 211.571C67.2998 210.476 66.8129 209.025 66.8129 207.221V207.081ZM68.8109 207.317C68.8109 208.606 69.1081 209.641 69.7025 210.422C70.3041 211.202 71.1061 211.593 72.1087 211.593C73.1185 211.593 73.9206 211.199 74.515 210.411C75.1094 209.616 75.4066 208.506 75.4066 207.081C75.4066 205.806 75.1022 204.775 74.4935 203.987C73.892 203.192 73.0899 202.795 72.0873 202.795C71.1061 202.795 70.3148 203.185 69.7132 203.966C69.1117 204.746 68.8109 205.864 68.8109 207.317ZM84.8937 209.917C84.8937 209.38 84.6896 208.965 84.2814 208.671C83.8803 208.37 83.1749 208.112 82.1652 207.897C81.1625 207.683 80.364 207.425 79.7696 207.124C79.1824 206.823 78.7456 206.465 78.4591 206.05C78.1798 205.634 78.0402 205.14 78.0402 204.567C78.0402 203.615 78.4412 202.809 79.2433 202.15C80.0525 201.492 81.0838 201.162 82.337 201.162C83.6547 201.162 84.7218 201.502 85.5382 202.183C86.3618 202.863 86.7736 203.733 86.7736 204.793H84.7755C84.7755 204.249 84.5428 203.78 84.0773 203.386C83.6189 202.992 83.0389 202.795 82.337 202.795C81.6137 202.795 81.048 202.952 80.6398 203.268C80.2316 203.583 80.0275 203.994 80.0275 204.503C80.0275 204.983 80.2172 205.344 80.5968 205.588C80.9764 205.831 81.6603 206.064 82.6486 206.286C83.644 206.508 84.4497 206.773 85.0655 207.081C85.6814 207.389 86.1362 207.761 86.4298 208.198C86.7306 208.628 86.881 209.154 86.881 209.777C86.881 210.816 86.4656 211.65 85.6349 212.28C84.8042 212.903 83.7264 213.215 82.4015 213.215C81.4705 213.215 80.6469 213.05 79.9308 212.721C79.2146 212.391 78.6525 211.933 78.2443 211.346C77.8432 210.751 77.6427 210.11 77.6427 209.423H79.63C79.6658 210.089 79.9308 210.619 80.4249 211.013C80.9262 211.399 81.5851 211.593 82.4015 211.593C83.1534 211.593 83.755 211.442 84.2062 211.142C84.6645 210.834 84.8937 210.425 84.8937 209.917ZM94.8856 213C94.771 212.771 94.6779 212.363 94.6063 211.775C93.6825 212.735 92.5796 213.215 91.2977 213.215C90.1519 213.215 89.2102 212.893 88.4725 212.248C87.7421 211.596 87.3768 210.773 87.3768 209.777C87.3768 208.567 87.8352 207.629 88.7518 206.963C89.6757 206.29 90.9719 205.953 92.6405 205.953H94.5741V205.04C94.5741 204.345 94.3664 203.794 93.9511 203.386C93.5357 202.97 92.9234 202.763 92.1141 202.763C91.4052 202.763 90.8108 202.942 90.3309 203.3C89.8511 203.658 89.6112 204.091 89.6112 204.6H87.6132C87.6132 204.02 87.8173 203.461 88.2255 202.924C88.6408 202.38 89.1994 201.95 89.9013 201.635C90.6102 201.32 91.3873 201.162 92.2323 201.162C93.5715 201.162 94.6207 201.499 95.3798 202.172C96.1389 202.838 96.5328 203.758 96.5614 204.933V210.282C96.5614 211.349 96.6975 212.198 96.9696 212.828V213H94.8856ZM91.5878 211.485C92.2108 211.485 92.8016 211.324 93.3602 211.002C93.9188 210.68 94.3235 210.261 94.5741 209.745V207.36H93.0165C90.5816 207.36 89.3641 208.073 89.3641 209.498C89.3641 210.121 89.5718 210.608 89.9872 210.959C90.4026 211.31 90.9361 211.485 91.5878 211.485ZM107.756 207.317C107.756 209.093 107.348 210.522 106.532 211.604C105.715 212.678 104.62 213.215 103.245 213.215C101.777 213.215 100.642 212.696 99.8395 211.657L99.7428 213H97.9166V196.5H99.9039V202.655C100.706 201.66 101.812 201.162 103.223 201.162C104.634 201.162 105.741 201.696 106.543 202.763C107.352 203.83 107.756 205.291 107.756 207.146V207.317ZM105.769 207.092C105.769 205.738 105.508 204.693 104.985 203.955C104.462 203.217 103.71 202.849 102.729 202.849C101.419 202.849 100.477 203.457 99.9039 204.675V209.702C100.513 210.92 101.462 211.528 102.751 211.528C103.703 211.528 104.444 211.16 104.974 210.422C105.504 209.684 105.769 208.574 105.769 207.092ZM118.35 207.317C118.35 209.093 117.942 210.522 117.125 211.604C116.309 212.678 115.213 213.215 113.838 213.215C112.37 213.215 111.235 212.696 110.433 211.657L110.336 213H108.51V196.5H110.497V202.655C111.3 201.66 112.406 201.162 113.817 201.162C115.228 201.162 116.334 201.696 117.136 202.763C117.945 203.83 118.35 205.291 118.35 207.146V207.317ZM116.363 207.092C116.363 205.738 116.101 204.693 115.579 203.955C115.056 203.217 114.304 202.849 113.323 202.849C112.012 202.849 111.07 203.457 110.497 204.675V209.702C111.106 210.92 112.055 211.528 113.344 211.528C114.297 211.528 115.038 211.16 115.568 210.422C116.098 209.684 116.363 208.574 116.363 207.092ZM125.497 198.562V201.377H127.667V202.913H125.497V210.121C125.497 210.587 125.594 210.938 125.787 211.174C125.98 211.403 126.31 211.518 126.775 211.518C127.004 211.518 127.32 211.475 127.721 211.389V213C127.198 213.143 126.689 213.215 126.195 213.215C125.307 213.215 124.638 212.946 124.186 212.409C123.735 211.872 123.51 211.109 123.51 210.121V202.913H121.393V201.377H123.51V198.562H125.497ZM133.061 213.215C131.486 213.215 130.204 212.699 129.216 211.668C128.227 210.63 127.733 209.244 127.733 207.511V207.146C127.733 205.993 127.952 204.965 128.388 204.062C128.832 203.153 129.448 202.444 130.236 201.936C131.031 201.42 131.89 201.162 132.814 201.162C134.325 201.162 135.5 201.66 136.338 202.655C137.175 203.651 137.594 205.076 137.594 206.931V207.758H129.72C129.749 208.904 130.082 209.831 130.719 210.54C131.364 211.242 132.18 211.593 133.169 211.593C133.87 211.593 134.465 211.45 134.952 211.163C135.439 210.877 135.865 210.497 136.23 210.024L137.444 210.97C136.47 212.466 135.009 213.215 133.061 213.215ZM132.814 202.795C132.012 202.795 131.339 203.089 130.795 203.676C130.25 204.256 129.914 205.072 129.785 206.125H135.607V205.975C135.55 204.965 135.278 204.184 134.791 203.633C134.304 203.074 133.645 202.795 132.814 202.795ZM133.781 196.5H136.187L133.308 199.658H131.708L133.781 196.5ZM140.013 201.377L140.067 202.666C140.919 201.663 142.068 201.162 143.515 201.162C145.141 201.162 146.247 201.785 146.834 203.031C147.221 202.473 147.722 202.021 148.338 201.678C148.961 201.334 149.695 201.162 150.54 201.162C153.09 201.162 154.386 202.512 154.429 205.212V213H152.442V205.33C152.442 204.499 152.252 203.88 151.872 203.472C151.493 203.056 150.856 202.849 149.96 202.849C149.223 202.849 148.61 203.071 148.123 203.515C147.636 203.951 147.354 204.542 147.275 205.287V213H145.277V205.384C145.277 203.694 144.45 202.849 142.795 202.849C141.492 202.849 140.6 203.404 140.121 204.514V213H138.133V201.377H140.013ZM162.853 213C162.738 212.771 162.645 212.363 162.573 211.775C161.65 212.735 160.547 213.215 159.265 213.215C158.119 213.215 157.177 212.893 156.44 212.248C155.709 211.596 155.344 210.773 155.344 209.777C155.344 208.567 155.802 207.629 156.719 206.963C157.643 206.29 158.939 205.953 160.608 205.953H162.541V205.04C162.541 204.345 162.334 203.794 161.918 203.386C161.503 202.97 160.89 202.763 160.081 202.763C159.372 202.763 158.778 202.942 158.298 203.3C157.818 203.658 157.578 204.091 157.578 204.6H155.58C155.58 204.02 155.784 203.461 156.193 202.924C156.608 202.38 157.167 201.95 157.868 201.635C158.577 201.32 159.354 201.162 160.199 201.162C161.539 201.162 162.588 201.499 163.347 202.172C164.106 202.838 164.5 203.758 164.529 204.933V210.282C164.529 211.349 164.665 212.198 164.937 212.828V213H162.853ZM159.555 211.485C160.178 211.485 160.769 211.324 161.327 211.002C161.886 210.68 162.291 210.261 162.541 209.745V207.36H160.984C158.549 207.36 157.331 208.073 157.331 209.498C157.331 210.121 157.539 210.608 157.954 210.959C158.37 211.31 158.903 211.485 159.555 211.485ZM161.392 196.5H163.798L160.919 199.658H159.319L161.392 196.5ZM169.128 207.618L167.882 208.918V213H165.895V196.5H167.882V206.479L168.945 205.201L172.565 201.377H174.982L170.46 206.232L175.509 213H173.178L169.128 207.618Z" fill="#ECE7DD"/>
</svg>
