<svg width="187" height="332" viewBox="0 0 187 332" fill="none" xmlns="http://www.w3.org/2000/svg">
<rect y="0.982666" width="186.094" height="330.736" fill="#4B7793"/>
<path d="M57.5703 247.226H53.6855V258H52.1001V247.226H48.2236V245.914H57.5703V247.226ZM68.4277 252.347C68.4277 253.531 68.2285 254.566 67.8301 255.452C67.4316 256.332 66.8672 257.004 66.1367 257.469C65.4062 257.934 64.554 258.166 63.5801 258.166C62.6283 258.166 61.7843 257.934 61.0483 257.469C60.3123 256.998 59.7396 256.332 59.3301 255.468C58.9261 254.599 58.7186 253.595 58.7075 252.455V251.583C58.7075 250.421 58.9095 249.395 59.3135 248.504C59.7174 247.613 60.2874 246.932 61.0234 246.462C61.765 245.986 62.6117 245.748 63.5635 245.748C64.5319 245.748 65.3841 245.983 66.1201 246.454C66.8617 246.918 67.4316 247.596 67.8301 248.487C68.2285 249.373 68.4277 250.405 68.4277 251.583V252.347ZM66.8423 251.567C66.8423 250.134 66.5545 249.035 65.979 248.271C65.4035 247.502 64.5983 247.118 63.5635 247.118C62.5563 247.118 61.7622 247.502 61.1812 248.271C60.6056 249.035 60.3096 250.098 60.293 251.459V252.347C60.293 253.736 60.5835 254.829 61.1646 255.626C61.7511 256.417 62.5563 256.813 63.5801 256.813C64.6094 256.813 65.4062 256.439 65.9707 255.692C66.5352 254.94 66.8257 253.863 66.8423 252.463V251.567ZM74.6367 255.883L78.0898 245.914H79.833L75.3506 258H73.9395L69.4653 245.914H71.2002L74.6367 255.883ZM87.5029 254.846H82.4395L81.3022 258H79.6587L84.2739 245.914H85.6685L90.292 258H88.6567L87.5029 254.846ZM82.9209 253.534H87.0298L84.9712 247.881L82.9209 253.534ZM85.7598 242.677H87.6191L85.3945 245.117H84.1577L85.7598 242.677ZM91.9189 258V245.914H95.8701C97.1816 245.914 98.1667 246.185 98.8252 246.728C99.4893 247.27 99.8213 248.072 99.8213 249.135C99.8213 249.699 99.6608 250.2 99.3398 250.637C99.0189 251.069 98.5817 251.404 98.0283 251.642C98.6813 251.824 99.196 252.173 99.5723 252.688C99.9541 253.197 100.145 253.805 100.145 254.514C100.145 255.598 99.7936 256.451 99.0908 257.07C98.388 257.69 97.3947 258 96.1108 258H91.9189ZM93.5127 252.347V256.697H96.144C96.8856 256.697 97.4694 256.506 97.8955 256.124C98.3271 255.737 98.543 255.205 98.543 254.53C98.543 253.075 97.7516 252.347 96.1689 252.347H93.5127ZM93.5127 251.069H95.9199C96.6172 251.069 97.1733 250.895 97.5884 250.546C98.009 250.197 98.2192 249.724 98.2192 249.126C98.2192 248.462 98.0256 247.981 97.6382 247.682C97.2508 247.378 96.6615 247.226 95.8701 247.226H93.5127V251.069ZM102.511 258V245.914H106.462C107.773 245.914 108.758 246.185 109.417 246.728C110.081 247.27 110.413 248.072 110.413 249.135C110.413 249.699 110.253 250.2 109.932 250.637C109.611 251.069 109.174 251.404 108.62 251.642C109.273 251.824 109.788 252.173 110.164 252.688C110.546 253.197 110.737 253.805 110.737 254.514C110.737 255.598 110.385 256.451 109.683 257.07C108.98 257.69 107.986 258 106.703 258H102.511ZM104.104 252.347V256.697H106.736C107.477 256.697 108.061 256.506 108.487 256.124C108.919 255.737 109.135 255.205 109.135 254.53C109.135 253.075 108.343 252.347 106.761 252.347H104.104ZM104.104 251.069H106.512C107.209 251.069 107.765 250.895 108.18 250.546C108.601 250.197 108.811 249.724 108.811 249.126C108.811 248.462 108.617 247.981 108.23 247.682C107.843 247.378 107.253 247.226 106.462 247.226H104.104V251.069ZM123.993 254.846H118.93L117.792 258H116.149L120.764 245.914H122.159L126.782 258H125.147L123.993 254.846ZM119.411 253.534H123.52L121.461 247.881L119.411 253.534ZM129.604 256.697H136.519V258H127.72V256.805L134.344 247.226H127.828V245.914H136.253V247.084L129.604 256.697ZM27.2144 275.742H23.2217L22.5244 278H19.4116L23.8442 265.914H26.5835L31.0493 278H27.9199L27.2144 275.742ZM23.9189 273.493H26.5171L25.2139 269.301L23.9189 273.493ZM36.0464 273.501L34.8511 274.812V278H31.9375V265.914H34.8511V271.243L35.8638 269.708L38.4702 265.914H42.0728L37.9888 271.26L42.0728 278H38.6196L36.0464 273.501ZM52.2993 268.164H48.6719V278H45.7583V268.164H42.1973V265.914H52.2993V268.164ZM63.0156 265.914V273.825C63.0156 274.721 62.8247 275.499 62.4429 276.157C62.061 276.81 61.5132 277.308 60.7993 277.651C60.0854 277.994 59.2415 278.166 58.2676 278.166C56.7956 278.166 55.6362 277.784 54.7896 277.021C53.9429 276.257 53.5112 275.211 53.4946 273.883V265.914H56.4248V273.941C56.458 275.264 57.0723 275.925 58.2676 275.925C58.8708 275.925 59.3273 275.759 59.6372 275.427C59.9471 275.095 60.1021 274.555 60.1021 273.808V265.914H63.0156ZM71.5239 275.742H67.5312L66.834 278H63.7212L68.1538 265.914H70.8931L75.3589 278H72.2295L71.5239 275.742ZM68.2285 273.493H70.8267L69.5234 269.301L68.2285 273.493ZM79.1606 275.759H84.2324V278H76.2471V265.914H79.1606V275.759ZM88.5654 278H85.6602V265.914H88.5654V278ZM99.8296 268.164H96.2021V278H93.2886V268.164H89.7275V265.914H99.8296V268.164ZM106.935 275.742H102.942L102.245 278H99.1323L103.565 265.914H106.304L110.77 278H107.641L106.935 275.742ZM103.64 273.493H106.238L104.935 269.301L103.64 273.493ZM105.316 262.677H108.271L105.964 265.283H103.681L105.316 262.677ZM117.892 274.788C117.892 274.361 117.74 274.029 117.436 273.792C117.137 273.554 116.608 273.307 115.85 273.053C115.092 272.798 114.472 272.552 113.991 272.314C112.425 271.545 111.642 270.488 111.642 269.143C111.642 268.473 111.835 267.884 112.223 267.375C112.616 266.86 113.169 266.462 113.883 266.18C114.597 265.892 115.399 265.748 116.29 265.748C117.159 265.748 117.936 265.903 118.623 266.213C119.314 266.523 119.851 266.965 120.233 267.541C120.615 268.111 120.806 268.764 120.806 269.5H117.9C117.9 269.007 117.748 268.626 117.444 268.354C117.145 268.083 116.738 267.948 116.224 267.948C115.703 267.948 115.291 268.064 114.987 268.296C114.688 268.523 114.539 268.814 114.539 269.168C114.539 269.478 114.705 269.76 115.037 270.015C115.369 270.264 115.952 270.524 116.788 270.795C117.624 271.061 118.31 271.348 118.847 271.658C120.153 272.411 120.806 273.448 120.806 274.771C120.806 275.828 120.407 276.658 119.61 277.261C118.813 277.864 117.721 278.166 116.332 278.166C115.352 278.166 114.464 277.992 113.667 277.643C112.876 277.289 112.278 276.807 111.874 276.199C111.476 275.584 111.276 274.879 111.276 274.082H114.198C114.198 274.729 114.364 275.208 114.696 275.518C115.034 275.822 115.579 275.975 116.332 275.975C116.813 275.975 117.192 275.872 117.469 275.667C117.751 275.457 117.892 275.164 117.892 274.788ZM132.535 272.206C132.535 273.385 132.316 274.428 131.879 275.335C131.442 276.243 130.819 276.943 130.011 277.436C129.209 277.923 128.293 278.166 127.264 278.166C126.234 278.166 125.321 277.931 124.524 277.46C123.728 276.985 123.105 276.307 122.657 275.427C122.214 274.547 121.982 273.537 121.959 272.397V271.716C121.959 270.532 122.175 269.489 122.607 268.587C123.044 267.679 123.667 266.979 124.475 266.487C125.288 265.994 126.212 265.748 127.247 265.748C128.271 265.748 129.184 265.992 129.986 266.479C130.789 266.965 131.411 267.66 131.854 268.562C132.302 269.458 132.529 270.488 132.535 271.65V272.206ZM129.571 271.7C129.571 270.499 129.369 269.589 128.965 268.969C128.567 268.343 127.994 268.031 127.247 268.031C125.786 268.031 125.014 269.126 124.931 271.318L124.923 272.206C124.923 273.39 125.119 274.301 125.512 274.937C125.905 275.573 126.489 275.892 127.264 275.892C128 275.892 128.567 275.579 128.965 274.954C129.364 274.328 129.566 273.429 129.571 272.256V271.7ZM138.146 273.501L136.951 274.812V278H134.037V265.914H136.951V271.243L137.963 269.708L140.57 265.914H144.172L140.088 271.26L144.172 278H140.719L138.146 273.501ZM149.833 273.111H146.995V278H145.393V265.914H149.394C150.755 265.914 151.801 266.224 152.531 266.844C153.267 267.464 153.635 268.366 153.635 269.55C153.635 270.302 153.431 270.958 153.021 271.517C152.617 272.076 152.053 272.494 151.328 272.771L154.167 277.9V278H152.457L149.833 273.111ZM146.995 271.808H149.443C150.235 271.808 150.863 271.603 151.328 271.193C151.798 270.784 152.033 270.236 152.033 269.55C152.033 268.803 151.809 268.23 151.361 267.832C150.918 267.433 150.276 267.231 149.435 267.226H146.995V271.808ZM162.55 274.846H157.487L156.35 278H154.706L159.321 265.914H160.716L165.339 278H163.704L162.55 274.846ZM157.968 273.534H162.077L160.019 267.881L157.968 273.534Z" fill="#ECE7DD"/>
<path d="M30.9688 91.6562H26.8594L26.0781 94H23.5859L27.8203 82.625H29.9922L34.25 94H31.7578L30.9688 91.6562ZM27.4922 89.7578H30.3359L28.9062 85.5L27.4922 89.7578ZM42.8594 89.4375L41.6406 90.75V94H39.2969V82.625H41.6406V87.7812L42.6719 86.3672L45.5703 82.625H48.4531L44.4141 87.6797L48.5703 94H45.7812L42.8594 89.4375ZM54.2031 94C54.099 93.7969 54.0234 93.5443 53.9766 93.2422C53.4297 93.8516 52.7188 94.1562 51.8438 94.1562C51.0156 94.1562 50.3281 93.9167 49.7812 93.4375C49.2396 92.9583 48.9688 92.3542 48.9688 91.625C48.9688 90.7292 49.2995 90.0417 49.9609 89.5625C50.6276 89.0833 51.5885 88.8411 52.8438 88.8359H53.8828V88.3516C53.8828 87.9609 53.7812 87.6484 53.5781 87.4141C53.3802 87.1797 53.0651 87.0625 52.6328 87.0625C52.2526 87.0625 51.9531 87.1536 51.7344 87.3359C51.5208 87.5182 51.4141 87.7682 51.4141 88.0859H49.1562C49.1562 87.5964 49.3073 87.1432 49.6094 86.7266C49.9115 86.3099 50.3385 85.9844 50.8906 85.75C51.4427 85.5104 52.0625 85.3906 52.75 85.3906C53.7917 85.3906 54.6172 85.6536 55.2266 86.1797C55.8411 86.7005 56.1484 87.4349 56.1484 88.3828V92.0469C56.1536 92.849 56.2656 93.4557 56.4844 93.8672V94H54.2031ZM52.3359 92.4297C52.6693 92.4297 52.9766 92.3568 53.2578 92.2109C53.5391 92.0599 53.7474 91.8594 53.8828 91.6094V90.1562H53.0391C51.9089 90.1562 51.3073 90.5469 51.2344 91.3281L51.2266 91.4609C51.2266 91.7422 51.3255 91.974 51.5234 92.1562C51.7214 92.3385 51.9922 92.4297 52.3359 92.4297ZM53.1953 82H55.6562L53.4922 84.4219H51.6562L53.1953 82ZM62.6328 87.6641C62.3255 87.6224 62.0547 87.6016 61.8203 87.6016C60.9661 87.6016 60.4062 87.8906 60.1406 88.4688V94H57.8828V85.5469H60.0156L60.0781 86.5547C60.5312 85.7786 61.1589 85.3906 61.9609 85.3906C62.2109 85.3906 62.4453 85.4245 62.6641 85.4922L62.6328 87.6641ZM71.3359 89.8516C71.3359 91.1536 71.0391 92.1979 70.4453 92.9844C69.8568 93.7656 69.0599 94.1562 68.0547 94.1562C67.2005 94.1562 66.5104 93.8594 65.9844 93.2656V97.25H63.7266V85.5469H65.8203L65.8984 86.375C66.4453 85.7188 67.1589 85.3906 68.0391 85.3906C69.0807 85.3906 69.8906 85.776 70.4688 86.5469C71.0469 87.3177 71.3359 88.3802 71.3359 89.7344V89.8516ZM69.0781 89.6875C69.0781 88.901 68.9375 88.2943 68.6562 87.8672C68.3802 87.4401 67.9766 87.2266 67.4453 87.2266C66.737 87.2266 66.25 87.4974 65.9844 88.0391V91.5C66.2604 92.0573 66.7526 92.3359 67.4609 92.3359C68.5391 92.3359 69.0781 91.4531 69.0781 89.6875ZM77.6406 94C77.5365 93.7969 77.4609 93.5443 77.4141 93.2422C76.8672 93.8516 76.1562 94.1562 75.2812 94.1562C74.4531 94.1562 73.7656 93.9167 73.2188 93.4375C72.6771 92.9583 72.4062 92.3542 72.4062 91.625C72.4062 90.7292 72.737 90.0417 73.3984 89.5625C74.0651 89.0833 75.026 88.8411 76.2812 88.8359H77.3203V88.3516C77.3203 87.9609 77.2188 87.6484 77.0156 87.4141C76.8177 87.1797 76.5026 87.0625 76.0703 87.0625C75.6901 87.0625 75.3906 87.1536 75.1719 87.3359C74.9583 87.5182 74.8516 87.7682 74.8516 88.0859H72.5938C72.5938 87.5964 72.7448 87.1432 73.0469 86.7266C73.349 86.3099 73.776 85.9844 74.3281 85.75C74.8802 85.5104 75.5 85.3906 76.1875 85.3906C77.2292 85.3906 78.0547 85.6536 78.6641 86.1797C79.2786 86.7005 79.5859 87.4349 79.5859 88.3828V92.0469C79.5911 92.849 79.7031 93.4557 79.9219 93.8672V94H77.6406ZM75.7734 92.4297C76.1068 92.4297 76.4141 92.3568 76.6953 92.2109C76.9766 92.0599 77.1849 91.8594 77.3203 91.6094V90.1562H76.4766C75.3464 90.1562 74.7448 90.5469 74.6719 91.3281L74.6641 91.4609C74.6641 91.7422 74.763 91.974 74.9609 92.1562C75.1589 92.3385 75.4297 92.4297 75.7734 92.4297ZM76.6328 82H79.0938L76.9297 84.4219H75.0938L76.6328 82ZM84.0234 83.4688V85.5469H85.4688V87.2031H84.0234V91.4219C84.0234 91.7344 84.0833 91.9583 84.2031 92.0938C84.3229 92.2292 84.5521 92.2969 84.8906 92.2969C85.1406 92.2969 85.362 92.2786 85.5547 92.2422V93.9531C85.112 94.0885 84.6562 94.1562 84.1875 94.1562C82.6042 94.1562 81.7969 93.3568 81.7656 91.7578V87.2031H80.5312V85.5469H81.7656V83.4688H84.0234ZM91.1172 90.0391H86.7188V88.2188H91.1172V90.0391ZM95.0469 85.5469L95.1172 86.4922C95.7161 85.7578 96.526 85.3906 97.5469 85.3906C98.6354 85.3906 99.3828 85.8203 99.7891 86.6797C100.383 85.8203 101.229 85.3906 102.328 85.3906C103.245 85.3906 103.927 85.6589 104.375 86.1953C104.823 86.7266 105.047 87.5286 105.047 88.6016V94H102.781V88.6094C102.781 88.1302 102.688 87.7812 102.5 87.5625C102.312 87.3385 101.982 87.2266 101.508 87.2266C100.831 87.2266 100.362 87.5495 100.102 88.1953L100.109 94H97.8516V88.6172C97.8516 88.1276 97.7552 87.7734 97.5625 87.5547C97.3698 87.3359 97.0417 87.2266 96.5781 87.2266C95.9375 87.2266 95.474 87.4922 95.1875 88.0234V94H92.9297V85.5469H95.0469ZM110.68 94.1562C109.44 94.1562 108.43 93.776 107.648 93.0156C106.872 92.2552 106.484 91.2422 106.484 89.9766V89.7578C106.484 88.9089 106.648 88.151 106.977 87.4844C107.305 86.8125 107.768 86.2969 108.367 85.9375C108.971 85.5729 109.659 85.3906 110.43 85.3906C111.586 85.3906 112.495 85.7552 113.156 86.4844C113.823 87.2135 114.156 88.2474 114.156 89.5859V90.5078H108.773C108.846 91.0599 109.065 91.5026 109.43 91.8359C109.799 92.1693 110.266 92.3359 110.828 92.3359C111.698 92.3359 112.378 92.0208 112.867 91.3906L113.977 92.6328C113.638 93.112 113.18 93.487 112.602 93.7578C112.023 94.0234 111.383 94.1562 110.68 94.1562ZM110.422 87.2188C109.974 87.2188 109.609 87.3698 109.328 87.6719C109.052 87.974 108.875 88.4062 108.797 88.9688H111.938V88.7891C111.927 88.2891 111.792 87.9036 111.531 87.6328C111.271 87.3568 110.901 87.2188 110.422 87.2188ZM115.094 89.7109C115.094 88.3932 115.388 87.3438 115.977 86.5625C116.57 85.7812 117.38 85.3906 118.406 85.3906C119.229 85.3906 119.909 85.6979 120.445 86.3125V82H122.711V94H120.672L120.562 93.1016C120 93.8047 119.276 94.1562 118.391 94.1562C117.396 94.1562 116.596 93.7656 115.992 92.9844C115.393 92.1979 115.094 91.1068 115.094 89.7109ZM117.352 89.875C117.352 90.6667 117.49 91.2734 117.766 91.6953C118.042 92.1172 118.443 92.3281 118.969 92.3281C119.667 92.3281 120.159 92.0339 120.445 91.4453V88.1094C120.164 87.5208 119.677 87.2266 118.984 87.2266C117.896 87.2266 117.352 88.1094 117.352 89.875ZM128.352 94.1562C127.112 94.1562 126.102 93.776 125.32 93.0156C124.544 92.2552 124.156 91.2422 124.156 89.9766V89.7578C124.156 88.9089 124.32 88.151 124.648 87.4844C124.977 86.8125 125.44 86.2969 126.039 85.9375C126.643 85.5729 127.331 85.3906 128.102 85.3906C129.258 85.3906 130.167 85.7552 130.828 86.4844C131.495 87.2135 131.828 88.2474 131.828 89.5859V90.5078H126.445C126.518 91.0599 126.737 91.5026 127.102 91.8359C127.471 92.1693 127.938 92.3359 128.5 92.3359C129.37 92.3359 130.049 92.0208 130.539 91.3906L131.648 92.6328C131.31 93.112 130.852 93.487 130.273 93.7578C129.695 94.0234 129.055 94.1562 128.352 94.1562ZM128.094 87.2188C127.646 87.2188 127.281 87.3698 127 87.6719C126.724 87.974 126.547 88.4062 126.469 88.9688H129.609V88.7891C129.599 88.2891 129.464 87.9036 129.203 87.6328C128.943 87.3568 128.573 87.2188 128.094 87.2188ZM135.195 85.5469L135.266 86.5234C135.87 85.7682 136.68 85.3906 137.695 85.3906C138.591 85.3906 139.258 85.6536 139.695 86.1797C140.133 86.7057 140.357 87.4922 140.367 88.5391V94H138.109V88.5938C138.109 88.1146 138.005 87.7682 137.797 87.5547C137.589 87.3359 137.242 87.2266 136.758 87.2266C136.122 87.2266 135.646 87.4974 135.328 88.0391V94H133.07V85.5469H135.195ZM145.602 92.3359C146.018 92.3359 146.357 92.2214 146.617 91.9922C146.878 91.763 147.013 91.4583 147.023 91.0781H149.141C149.135 91.651 148.979 92.1771 148.672 92.6562C148.365 93.1302 147.943 93.5 147.406 93.7656C146.875 94.026 146.286 94.1562 145.641 94.1562C144.432 94.1562 143.479 93.7734 142.781 93.0078C142.083 92.237 141.734 91.1745 141.734 89.8203V89.6719C141.734 88.3698 142.081 87.3307 142.773 86.5547C143.466 85.7786 144.417 85.3906 145.625 85.3906C146.682 85.3906 147.529 85.6927 148.164 86.2969C148.805 86.8958 149.13 87.6953 149.141 88.6953H147.023C147.013 88.2578 146.878 87.9036 146.617 87.6328C146.357 87.3568 146.013 87.2188 145.586 87.2188C145.06 87.2188 144.661 87.4115 144.391 87.7969C144.125 88.1771 143.992 88.7969 143.992 89.6562V89.8906C143.992 90.7604 144.125 91.3854 144.391 91.7656C144.656 92.1458 145.06 92.3359 145.602 92.3359ZM154.32 94.1562C153.081 94.1562 152.07 93.776 151.289 93.0156C150.513 92.2552 150.125 91.2422 150.125 89.9766V89.7578C150.125 88.9089 150.289 88.151 150.617 87.4844C150.945 86.8125 151.409 86.2969 152.008 85.9375C152.612 85.5729 153.299 85.3906 154.07 85.3906C155.227 85.3906 156.135 85.7552 156.797 86.4844C157.464 87.2135 157.797 88.2474 157.797 89.5859V90.5078H152.414C152.487 91.0599 152.706 91.5026 153.07 91.8359C153.44 92.1693 153.906 92.3359 154.469 92.3359C155.339 92.3359 156.018 92.0208 156.508 91.3906L157.617 92.6328C157.279 93.112 156.82 93.487 156.242 93.7578C155.664 94.0234 155.023 94.1562 154.32 94.1562ZM154.062 87.2188C153.615 87.2188 153.25 87.3698 152.969 87.6719C152.693 87.974 152.516 88.4062 152.438 88.9688H155.578V88.7891C155.568 88.2891 155.432 87.9036 155.172 87.6328C154.911 87.3568 154.542 87.2188 154.062 87.2188ZM161.469 94H159.203V85.5469H161.469V94ZM159.07 83.3594C159.07 83.0208 159.182 82.7422 159.406 82.5234C159.635 82.3047 159.945 82.1953 160.336 82.1953C160.721 82.1953 161.029 82.3047 161.258 82.5234C161.487 82.7422 161.602 83.0208 161.602 83.3594C161.602 83.7031 161.484 83.9844 161.25 84.2031C161.021 84.4219 160.716 84.5312 160.336 84.5312C159.956 84.5312 159.648 84.4219 159.414 84.2031C159.185 83.9844 159.07 83.7031 159.07 83.3594ZM25.8672 104.547L25.9375 105.492C26.5365 104.758 27.3464 104.391 28.3672 104.391C29.4557 104.391 30.2031 104.82 30.6094 105.68C31.2031 104.82 32.0495 104.391 33.1484 104.391C34.0651 104.391 34.7474 104.659 35.1953 105.195C35.6432 105.727 35.8672 106.529 35.8672 107.602V113H33.6016V107.609C33.6016 107.13 33.5078 106.781 33.3203 106.562C33.1328 106.339 32.8021 106.227 32.3281 106.227C31.651 106.227 31.1823 106.549 30.9219 107.195L30.9297 113H28.6719V107.617C28.6719 107.128 28.5755 106.773 28.3828 106.555C28.1901 106.336 27.862 106.227 27.3984 106.227C26.7578 106.227 26.2943 106.492 26.0078 107.023V113H23.75V104.547H25.8672ZM42.5078 113C42.4036 112.797 42.3281 112.544 42.2812 112.242C41.7344 112.852 41.0234 113.156 40.1484 113.156C39.3203 113.156 38.6328 112.917 38.0859 112.438C37.5443 111.958 37.2734 111.354 37.2734 110.625C37.2734 109.729 37.6042 109.042 38.2656 108.562C38.9323 108.083 39.8932 107.841 41.1484 107.836H42.1875V107.352C42.1875 106.961 42.0859 106.648 41.8828 106.414C41.6849 106.18 41.3698 106.062 40.9375 106.062C40.5573 106.062 40.2578 106.154 40.0391 106.336C39.8255 106.518 39.7188 106.768 39.7188 107.086H37.4609C37.4609 106.596 37.612 106.143 37.9141 105.727C38.2161 105.31 38.6432 104.984 39.1953 104.75C39.7474 104.51 40.3672 104.391 41.0547 104.391C42.0964 104.391 42.9219 104.654 43.5312 105.18C44.1458 105.701 44.4531 106.435 44.4531 107.383V111.047C44.4583 111.849 44.5703 112.456 44.7891 112.867V113H42.5078ZM40.6406 111.43C40.974 111.43 41.2812 111.357 41.5625 111.211C41.8438 111.06 42.0521 110.859 42.1875 110.609V109.156H41.3438C40.2135 109.156 39.612 109.547 39.5391 110.328L39.5312 110.461C39.5312 110.742 39.6302 110.974 39.8281 111.156C40.026 111.339 40.2969 111.43 40.6406 111.43ZM45.8594 108.711C45.8594 107.414 46.1667 106.37 46.7812 105.578C47.401 104.786 48.2344 104.391 49.2812 104.391C50.2083 104.391 50.9297 104.708 51.4453 105.344L51.5391 104.547H53.5859V112.719C53.5859 113.458 53.4167 114.102 53.0781 114.648C52.7448 115.195 52.2734 115.612 51.6641 115.898C51.0547 116.185 50.3411 116.328 49.5234 116.328C48.9036 116.328 48.2995 116.203 47.7109 115.953C47.1224 115.708 46.6771 115.391 46.375 115L47.375 113.625C47.9375 114.255 48.6198 114.57 49.4219 114.57C50.0208 114.57 50.487 114.409 50.8203 114.086C51.1536 113.768 51.3203 113.315 51.3203 112.727V112.273C50.7995 112.862 50.1146 113.156 49.2656 113.156C48.25 113.156 47.4271 112.76 46.7969 111.969C46.1719 111.172 45.8594 110.117 45.8594 108.805V108.711ZM48.1172 108.875C48.1172 109.641 48.2708 110.242 48.5781 110.68C48.8854 111.112 49.3073 111.328 49.8438 111.328C50.5312 111.328 51.0234 111.07 51.3203 110.555V107C51.0182 106.484 50.5312 106.227 49.8594 106.227C49.3177 106.227 48.8906 106.448 48.5781 106.891C48.2708 107.333 48.1172 107.995 48.1172 108.875ZM58.4844 109.805L60.0469 104.547H62.4688L59.0703 114.312L58.8828 114.758C58.3776 115.862 57.5443 116.414 56.3828 116.414C56.0547 116.414 55.7214 116.365 55.3828 116.266V114.555L55.7266 114.562C56.1536 114.562 56.4714 114.497 56.6797 114.367C56.8932 114.237 57.0599 114.021 57.1797 113.719L57.4453 113.023L54.4844 104.547H56.9141L58.4844 109.805ZM68.1328 113C68.0286 112.797 67.9531 112.544 67.9062 112.242C67.3594 112.852 66.6484 113.156 65.7734 113.156C64.9453 113.156 64.2578 112.917 63.7109 112.438C63.1693 111.958 62.8984 111.354 62.8984 110.625C62.8984 109.729 63.2292 109.042 63.8906 108.562C64.5573 108.083 65.5182 107.841 66.7734 107.836H67.8125V107.352C67.8125 106.961 67.7109 106.648 67.5078 106.414C67.3099 106.18 66.9948 106.062 66.5625 106.062C66.1823 106.062 65.8828 106.154 65.6641 106.336C65.4505 106.518 65.3438 106.768 65.3438 107.086H63.0859C63.0859 106.596 63.237 106.143 63.5391 105.727C63.8411 105.31 64.2682 104.984 64.8203 104.75C65.3724 104.51 65.9922 104.391 66.6797 104.391C67.7214 104.391 68.5469 104.654 69.1562 105.18C69.7708 105.701 70.0781 106.435 70.0781 107.383V111.047C70.0833 111.849 70.1953 112.456 70.4141 112.867V113H68.1328ZM66.2656 111.43C66.599 111.43 66.9062 111.357 67.1875 111.211C67.4688 111.06 67.6771 110.859 67.8125 110.609V109.156H66.9688C65.8385 109.156 65.237 109.547 65.1641 110.328L65.1562 110.461C65.1562 110.742 65.2552 110.974 65.4531 111.156C65.651 111.339 65.9219 111.43 66.2656 111.43ZM76.5625 106.664C76.2552 106.622 75.9844 106.602 75.75 106.602C74.8958 106.602 74.3359 106.891 74.0703 107.469V113H71.8125V104.547H73.9453L74.0078 105.555C74.4609 104.779 75.0885 104.391 75.8906 104.391C76.1406 104.391 76.375 104.424 76.5938 104.492L76.5625 106.664ZM82.2344 110.664C82.2344 110.388 82.0964 110.172 81.8203 110.016C81.5495 109.854 81.112 109.711 80.5078 109.586C78.4974 109.164 77.4922 108.31 77.4922 107.023C77.4922 106.273 77.8021 105.648 78.4219 105.148C79.0469 104.643 79.862 104.391 80.8672 104.391C81.9401 104.391 82.7969 104.643 83.4375 105.148C84.0833 105.654 84.4062 106.31 84.4062 107.117H82.1484C82.1484 106.794 82.0443 106.529 81.8359 106.32C81.6276 106.107 81.3021 106 80.8594 106C80.4792 106 80.1849 106.086 79.9766 106.258C79.7682 106.43 79.6641 106.648 79.6641 106.914C79.6641 107.164 79.7812 107.367 80.0156 107.523C80.2552 107.674 80.6562 107.807 81.2188 107.922C81.7812 108.031 82.2552 108.156 82.6406 108.297C83.8333 108.734 84.4297 109.492 84.4297 110.57C84.4297 111.341 84.099 111.966 83.4375 112.445C82.776 112.919 81.9219 113.156 80.875 113.156C80.1667 113.156 79.5365 113.031 78.9844 112.781C78.4375 112.526 78.0078 112.18 77.6953 111.742C77.3828 111.299 77.2266 110.823 77.2266 110.312H79.3672C79.388 110.714 79.5365 111.021 79.8125 111.234C80.0885 111.448 80.4583 111.555 80.9219 111.555C81.3542 111.555 81.6797 111.474 81.8984 111.312C82.1224 111.146 82.2344 110.93 82.2344 110.664ZM90.7891 113C90.6849 112.797 90.6094 112.544 90.5625 112.242C90.0156 112.852 89.3047 113.156 88.4297 113.156C87.6016 113.156 86.9141 112.917 86.3672 112.438C85.8255 111.958 85.5547 111.354 85.5547 110.625C85.5547 109.729 85.8854 109.042 86.5469 108.562C87.2135 108.083 88.1745 107.841 89.4297 107.836H90.4688V107.352C90.4688 106.961 90.3672 106.648 90.1641 106.414C89.9661 106.18 89.651 106.062 89.2188 106.062C88.8385 106.062 88.5391 106.154 88.3203 106.336C88.1068 106.518 88 106.768 88 107.086H85.7422C85.7422 106.596 85.8932 106.143 86.1953 105.727C86.4974 105.31 86.9245 104.984 87.4766 104.75C88.0286 104.51 88.6484 104.391 89.3359 104.391C90.3776 104.391 91.2031 104.654 91.8125 105.18C92.4271 105.701 92.7344 106.435 92.7344 107.383V111.047C92.7396 111.849 92.8516 112.456 93.0703 112.867V113H90.7891ZM88.9219 111.43C89.2552 111.43 89.5625 111.357 89.8438 111.211C90.125 111.06 90.3333 110.859 90.4688 110.609V109.156H89.625C88.4948 109.156 87.8932 109.547 87.8203 110.328L87.8125 110.461C87.8125 110.742 87.9115 110.974 88.1094 111.156C88.3073 111.339 88.5781 111.43 88.9219 111.43ZM89.7812 101H92.2422L90.0781 103.422H88.2422L89.7812 101ZM94.1406 108.711C94.1406 107.414 94.4479 106.37 95.0625 105.578C95.6823 104.786 96.5156 104.391 97.5625 104.391C98.4896 104.391 99.2109 104.708 99.7266 105.344L99.8203 104.547H101.867V112.719C101.867 113.458 101.698 114.102 101.359 114.648C101.026 115.195 100.555 115.612 99.9453 115.898C99.3359 116.185 98.6224 116.328 97.8047 116.328C97.1849 116.328 96.5807 116.203 95.9922 115.953C95.4036 115.708 94.9583 115.391 94.6562 115L95.6562 113.625C96.2188 114.255 96.901 114.57 97.7031 114.57C98.3021 114.57 98.7682 114.409 99.1016 114.086C99.4349 113.768 99.6016 113.315 99.6016 112.727V112.273C99.0807 112.862 98.3958 113.156 97.5469 113.156C96.5312 113.156 95.7083 112.76 95.0781 111.969C94.4531 111.172 94.1406 110.117 94.1406 108.805V108.711ZM96.3984 108.875C96.3984 109.641 96.5521 110.242 96.8594 110.68C97.1667 111.112 97.5885 111.328 98.125 111.328C98.8125 111.328 99.3047 111.07 99.6016 110.555V107C99.2995 106.484 98.8125 106.227 98.1406 106.227C97.599 106.227 97.1719 106.448 96.8594 106.891C96.5521 107.333 96.3984 107.995 96.3984 108.875ZM103.258 108.695C103.258 107.857 103.419 107.109 103.742 106.453C104.065 105.797 104.529 105.289 105.133 104.93C105.742 104.57 106.448 104.391 107.25 104.391C108.391 104.391 109.32 104.74 110.039 105.438C110.763 106.135 111.167 107.083 111.25 108.281L111.266 108.859C111.266 110.156 110.904 111.198 110.18 111.984C109.456 112.766 108.484 113.156 107.266 113.156C106.047 113.156 105.073 112.766 104.344 111.984C103.62 111.203 103.258 110.141 103.258 108.797V108.695ZM105.516 108.859C105.516 109.661 105.667 110.276 105.969 110.703C106.271 111.125 106.703 111.336 107.266 111.336C107.812 111.336 108.24 111.128 108.547 110.711C108.854 110.289 109.008 109.617 109.008 108.695C109.008 107.909 108.854 107.299 108.547 106.867C108.24 106.435 107.807 106.219 107.25 106.219C106.698 106.219 106.271 106.435 105.969 106.867C105.667 107.294 105.516 107.958 105.516 108.859ZM115.359 102.469V104.547H116.805V106.203H115.359V110.422C115.359 110.734 115.419 110.958 115.539 111.094C115.659 111.229 115.888 111.297 116.227 111.297C116.477 111.297 116.698 111.279 116.891 111.242V112.953C116.448 113.089 115.992 113.156 115.523 113.156C113.94 113.156 113.133 112.357 113.102 110.758V106.203H111.867V104.547H113.102V102.469H115.359ZM125.938 113.156C124.698 113.156 123.688 112.776 122.906 112.016C122.13 111.255 121.742 110.242 121.742 108.977V108.758C121.742 107.909 121.906 107.151 122.234 106.484C122.562 105.812 123.026 105.297 123.625 104.938C124.229 104.573 124.917 104.391 125.688 104.391C126.844 104.391 127.753 104.755 128.414 105.484C129.081 106.214 129.414 107.247 129.414 108.586V109.508H124.031C124.104 110.06 124.323 110.503 124.688 110.836C125.057 111.169 125.523 111.336 126.086 111.336C126.956 111.336 127.635 111.021 128.125 110.391L129.234 111.633C128.896 112.112 128.438 112.487 127.859 112.758C127.281 113.023 126.641 113.156 125.938 113.156ZM125.68 106.219C125.232 106.219 124.867 106.37 124.586 106.672C124.31 106.974 124.133 107.406 124.055 107.969H127.195V107.789C127.185 107.289 127.049 106.904 126.789 106.633C126.529 106.357 126.159 106.219 125.68 106.219ZM125.883 101H128.344L126.18 103.422H124.344L125.883 101ZM135.453 106.664C135.146 106.622 134.875 106.602 134.641 106.602C133.786 106.602 133.227 106.891 132.961 107.469V113H130.703V104.547H132.836L132.898 105.555C133.352 104.779 133.979 104.391 134.781 104.391C135.031 104.391 135.266 104.424 135.484 104.492L135.453 106.664ZM138.93 113H136.664V104.547H138.93V113ZM136.531 102.359C136.531 102.021 136.643 101.742 136.867 101.523C137.096 101.305 137.406 101.195 137.797 101.195C138.182 101.195 138.49 101.305 138.719 101.523C138.948 101.742 139.062 102.021 139.062 102.359C139.062 102.703 138.945 102.984 138.711 103.203C138.482 103.422 138.177 103.531 137.797 103.531C137.417 103.531 137.109 103.422 136.875 103.203C136.646 102.984 136.531 102.703 136.531 102.359ZM142.875 104.547L142.945 105.523C143.549 104.768 144.359 104.391 145.375 104.391C146.271 104.391 146.938 104.654 147.375 105.18C147.812 105.706 148.036 106.492 148.047 107.539V113H145.789V107.594C145.789 107.115 145.685 106.768 145.477 106.555C145.268 106.336 144.922 106.227 144.438 106.227C143.802 106.227 143.326 106.497 143.008 107.039V113H140.75V104.547H142.875ZM152.469 102.469V104.547H153.914V106.203H152.469V110.422C152.469 110.734 152.529 110.958 152.648 111.094C152.768 111.229 152.997 111.297 153.336 111.297C153.586 111.297 153.807 111.279 154 111.242V112.953C153.557 113.089 153.102 113.156 152.633 113.156C151.049 113.156 150.242 112.357 150.211 110.758V106.203H148.977V104.547H150.211V102.469H152.469ZM154.586 108.695C154.586 107.857 154.747 107.109 155.07 106.453C155.393 105.797 155.857 105.289 156.461 104.93C157.07 104.57 157.776 104.391 158.578 104.391C159.719 104.391 160.648 104.74 161.367 105.438C162.091 106.135 162.495 107.083 162.578 108.281L162.594 108.859C162.594 110.156 162.232 111.198 161.508 111.984C160.784 112.766 159.812 113.156 158.594 113.156C157.375 113.156 156.401 112.766 155.672 111.984C154.948 111.203 154.586 110.141 154.586 108.797V108.695ZM156.844 108.859C156.844 109.661 156.995 110.276 157.297 110.703C157.599 111.125 158.031 111.336 158.594 111.336C159.141 111.336 159.568 111.128 159.875 110.711C160.182 110.289 160.336 109.617 160.336 108.695C160.336 107.909 160.182 107.299 159.875 106.867C159.568 106.435 159.135 106.219 158.578 106.219C158.026 106.219 157.599 106.435 157.297 106.867C156.995 107.294 156.844 107.958 156.844 108.859ZM160.695 101.008H162.719L160.641 103.359H158.938L160.695 101.008ZM157.641 101.008H159.633L157.844 103.359H156.188L157.641 101.008ZM10.1797 132C10.0755 131.797 10 131.544 9.95312 131.242C9.40625 131.852 8.69531 132.156 7.82031 132.156C6.99219 132.156 6.30469 131.917 5.75781 131.438C5.21615 130.958 4.94531 130.354 4.94531 129.625C4.94531 128.729 5.27604 128.042 5.9375 127.562C6.60417 127.083 7.5651 126.841 8.82031 126.836H9.85938V126.352C9.85938 125.961 9.75781 125.648 9.55469 125.414C9.35677 125.18 9.04167 125.062 8.60938 125.062C8.22917 125.062 7.92969 125.154 7.71094 125.336C7.4974 125.518 7.39062 125.768 7.39062 126.086H5.13281C5.13281 125.596 5.28385 125.143 5.58594 124.727C5.88802 124.31 6.3151 123.984 6.86719 123.75C7.41927 123.51 8.03906 123.391 8.72656 123.391C9.76823 123.391 10.5938 123.654 11.2031 124.18C11.8177 124.701 12.125 125.435 12.125 126.383V130.047C12.1302 130.849 12.2422 131.456 12.4609 131.867V132H10.1797ZM8.3125 130.43C8.64583 130.43 8.95312 130.357 9.23438 130.211C9.51562 130.06 9.72396 129.859 9.85938 129.609V128.156H9.01562C7.88542 128.156 7.28385 128.547 7.21094 129.328L7.20312 129.461C7.20312 129.742 7.30208 129.974 7.5 130.156C7.69792 130.339 7.96875 130.43 8.3125 130.43ZM16.9297 128.609L16.1172 129.422V132H13.8594V120H16.1172V126.648L16.5547 126.086L18.7188 123.547H21.4297L18.375 127.07L21.6953 132H19.1016L16.9297 128.609ZM25.1094 121.469V123.547H26.5547V125.203H25.1094V129.422C25.1094 129.734 25.1693 129.958 25.2891 130.094C25.4089 130.229 25.638 130.297 25.9766 130.297C26.2266 130.297 26.4479 130.279 26.6406 130.242V131.953C26.1979 132.089 25.7422 132.156 25.2734 132.156C23.6901 132.156 22.8828 131.357 22.8516 129.758V125.203H21.6172V123.547H22.8516V121.469H25.1094ZM32.875 131.141C32.3177 131.818 31.5469 132.156 30.5625 132.156C29.6562 132.156 28.9635 131.896 28.4844 131.375C28.0104 130.854 27.7682 130.091 27.7578 129.086V123.547H30.0156V129.008C30.0156 129.888 30.4167 130.328 31.2188 130.328C31.9844 130.328 32.5104 130.062 32.7969 129.531V123.547H35.0625V132H32.9375L32.875 131.141ZM41.6641 132C41.5599 131.797 41.4844 131.544 41.4375 131.242C40.8906 131.852 40.1797 132.156 39.3047 132.156C38.4766 132.156 37.7891 131.917 37.2422 131.438C36.7005 130.958 36.4297 130.354 36.4297 129.625C36.4297 128.729 36.7604 128.042 37.4219 127.562C38.0885 127.083 39.0495 126.841 40.3047 126.836H41.3438V126.352C41.3438 125.961 41.2422 125.648 41.0391 125.414C40.8411 125.18 40.526 125.062 40.0938 125.062C39.7135 125.062 39.4141 125.154 39.1953 125.336C38.9818 125.518 38.875 125.768 38.875 126.086H36.6172C36.6172 125.596 36.7682 125.143 37.0703 124.727C37.3724 124.31 37.7995 123.984 38.3516 123.75C38.9036 123.51 39.5234 123.391 40.2109 123.391C41.2526 123.391 42.0781 123.654 42.6875 124.18C43.3021 124.701 43.6094 125.435 43.6094 126.383V130.047C43.6146 130.849 43.7266 131.456 43.9453 131.867V132H41.6641ZM39.7969 130.43C40.1302 130.43 40.4375 130.357 40.7188 130.211C41 130.06 41.2083 129.859 41.3438 129.609V128.156H40.5C39.3698 128.156 38.7682 128.547 38.6953 129.328L38.6875 129.461C38.6875 129.742 38.7865 129.974 38.9844 130.156C39.1823 130.339 39.4531 130.43 39.7969 130.43ZM40.6562 120H43.1172L40.9531 122.422H39.1172L40.6562 120ZM47.7266 132H45.4609V120H47.7266V132ZM51.9766 132H49.7109V123.547H51.9766V132ZM49.5781 121.359C49.5781 121.021 49.6901 120.742 49.9141 120.523C50.1432 120.305 50.4531 120.195 50.8438 120.195C51.2292 120.195 51.5365 120.305 51.7656 120.523C51.9948 120.742 52.1094 121.021 52.1094 121.359C52.1094 121.703 51.9922 121.984 51.7578 122.203C51.5286 122.422 51.224 122.531 50.8438 122.531C50.4635 122.531 50.1562 122.422 49.9219 122.203C49.6927 121.984 49.5781 121.703 49.5781 121.359ZM58.4219 129.664C58.4219 129.388 58.2839 129.172 58.0078 129.016C57.737 128.854 57.2995 128.711 56.6953 128.586C54.6849 128.164 53.6797 127.31 53.6797 126.023C53.6797 125.273 53.9896 124.648 54.6094 124.148C55.2344 123.643 56.0495 123.391 57.0547 123.391C58.1276 123.391 58.9844 123.643 59.625 124.148C60.2708 124.654 60.5938 125.31 60.5938 126.117H58.3359C58.3359 125.794 58.2318 125.529 58.0234 125.32C57.8151 125.107 57.4896 125 57.0469 125C56.6667 125 56.3724 125.086 56.1641 125.258C55.9557 125.43 55.8516 125.648 55.8516 125.914C55.8516 126.164 55.9688 126.367 56.2031 126.523C56.4427 126.674 56.8438 126.807 57.4062 126.922C57.9688 127.031 58.4427 127.156 58.8281 127.297C60.0208 127.734 60.6172 128.492 60.6172 129.57C60.6172 130.341 60.2865 130.966 59.625 131.445C58.9635 131.919 58.1094 132.156 57.0625 132.156C56.3542 132.156 55.724 132.031 55.1719 131.781C54.625 131.526 54.1953 131.18 53.8828 130.742C53.5703 130.299 53.4141 129.823 53.4141 129.312H55.5547C55.5755 129.714 55.724 130.021 56 130.234C56.276 130.448 56.6458 130.555 57.1094 130.555C57.5417 130.555 57.8672 130.474 58.0859 130.312C58.3099 130.146 58.4219 129.93 58.4219 129.664ZM66.9766 132C66.8724 131.797 66.7969 131.544 66.75 131.242C66.2031 131.852 65.4922 132.156 64.6172 132.156C63.7891 132.156 63.1016 131.917 62.5547 131.438C62.013 130.958 61.7422 130.354 61.7422 129.625C61.7422 128.729 62.0729 128.042 62.7344 127.562C63.401 127.083 64.362 126.841 65.6172 126.836H66.6562V126.352C66.6562 125.961 66.5547 125.648 66.3516 125.414C66.1536 125.18 65.8385 125.062 65.4062 125.062C65.026 125.062 64.7266 125.154 64.5078 125.336C64.2943 125.518 64.1875 125.768 64.1875 126.086H61.9297C61.9297 125.596 62.0807 125.143 62.3828 124.727C62.6849 124.31 63.112 123.984 63.6641 123.75C64.2161 123.51 64.8359 123.391 65.5234 123.391C66.5651 123.391 67.3906 123.654 68 124.18C68.6146 124.701 68.9219 125.435 68.9219 126.383V130.047C68.9271 130.849 69.0391 131.456 69.2578 131.867V132H66.9766ZM65.1094 130.43C65.4427 130.43 65.75 130.357 66.0312 130.211C66.3125 130.06 66.5208 129.859 66.6562 129.609V128.156H65.8125C64.6823 128.156 64.0807 128.547 64.0078 129.328L64 129.461C64 129.742 64.099 129.974 64.2969 130.156C64.4948 130.339 64.7656 130.43 65.1094 130.43ZM72.7344 123.547L72.8047 124.523C73.4089 123.768 74.2188 123.391 75.2344 123.391C76.1302 123.391 76.7969 123.654 77.2344 124.18C77.6719 124.706 77.8958 125.492 77.9062 126.539V132H75.6484V126.594C75.6484 126.115 75.5443 125.768 75.3359 125.555C75.1276 125.336 74.7812 125.227 74.2969 125.227C73.6615 125.227 73.1849 125.497 72.8672 126.039V132H70.6094V123.547H72.7344ZM85.9922 132H83.7266V120H85.9922V132ZM91.75 132.156C90.5104 132.156 89.5 131.776 88.7188 131.016C87.9427 130.255 87.5547 129.242 87.5547 127.977V127.758C87.5547 126.909 87.7188 126.151 88.0469 125.484C88.375 124.812 88.8385 124.297 89.4375 123.938C90.0417 123.573 90.7292 123.391 91.5 123.391C92.6562 123.391 93.5651 123.755 94.2266 124.484C94.8932 125.214 95.2266 126.247 95.2266 127.586V128.508H89.8438C89.9167 129.06 90.1354 129.503 90.5 129.836C90.8698 130.169 91.3359 130.336 91.8984 130.336C92.7682 130.336 93.4479 130.021 93.9375 129.391L95.0469 130.633C94.7083 131.112 94.25 131.487 93.6719 131.758C93.0938 132.023 92.4531 132.156 91.75 132.156ZM91.4922 125.219C91.0443 125.219 90.6797 125.37 90.3984 125.672C90.1224 125.974 89.9453 126.406 89.8672 126.969H93.0078V126.789C92.9974 126.289 92.862 125.904 92.6016 125.633C92.3411 125.357 91.9714 125.219 91.4922 125.219ZM96.1875 127.711C96.1875 126.414 96.4948 125.37 97.1094 124.578C97.7292 123.786 98.5625 123.391 99.6094 123.391C100.536 123.391 101.258 123.708 101.773 124.344L101.867 123.547H103.914V131.719C103.914 132.458 103.745 133.102 103.406 133.648C103.073 134.195 102.602 134.612 101.992 134.898C101.383 135.185 100.669 135.328 99.8516 135.328C99.2318 135.328 98.6276 135.203 98.0391 134.953C97.4505 134.708 97.0052 134.391 96.7031 134L97.7031 132.625C98.2656 133.255 98.9479 133.57 99.75 133.57C100.349 133.57 100.815 133.409 101.148 133.086C101.482 132.768 101.648 132.315 101.648 131.727V131.273C101.128 131.862 100.443 132.156 99.5938 132.156C98.5781 132.156 97.7552 131.76 97.125 130.969C96.5 130.172 96.1875 129.117 96.1875 127.805V127.711ZM98.4453 127.875C98.4453 128.641 98.599 129.242 98.9062 129.68C99.2135 130.112 99.6354 130.328 100.172 130.328C100.859 130.328 101.352 130.07 101.648 129.555V126C101.346 125.484 100.859 125.227 100.188 125.227C99.6458 125.227 99.2188 125.448 98.9062 125.891C98.599 126.333 98.4453 126.995 98.4453 127.875ZM106.273 132V125.203H105.016V123.547H106.273V122.828C106.273 121.88 106.544 121.146 107.086 120.625C107.633 120.099 108.396 119.836 109.375 119.836C109.688 119.836 110.07 119.888 110.523 119.992L110.5 121.742C110.312 121.695 110.083 121.672 109.812 121.672C108.964 121.672 108.539 122.07 108.539 122.867V123.547H110.219V125.203H108.539V132H106.273ZM111.039 127.695C111.039 126.857 111.201 126.109 111.523 125.453C111.846 124.797 112.31 124.289 112.914 123.93C113.523 123.57 114.229 123.391 115.031 123.391C116.172 123.391 117.102 123.74 117.82 124.438C118.544 125.135 118.948 126.083 119.031 127.281L119.047 127.859C119.047 129.156 118.685 130.198 117.961 130.984C117.237 131.766 116.266 132.156 115.047 132.156C113.828 132.156 112.854 131.766 112.125 130.984C111.401 130.203 111.039 129.141 111.039 127.797V127.695ZM113.297 127.859C113.297 128.661 113.448 129.276 113.75 129.703C114.052 130.125 114.484 130.336 115.047 130.336C115.594 130.336 116.021 130.128 116.328 129.711C116.635 129.289 116.789 128.617 116.789 127.695C116.789 126.909 116.635 126.299 116.328 125.867C116.021 125.435 115.589 125.219 115.031 125.219C114.479 125.219 114.052 125.435 113.75 125.867C113.448 126.294 113.297 126.958 113.297 127.859ZM122.516 123.547L122.586 124.523C123.19 123.768 124 123.391 125.016 123.391C125.911 123.391 126.578 123.654 127.016 124.18C127.453 124.706 127.677 125.492 127.688 126.539V132H125.43V126.594C125.43 126.115 125.326 125.768 125.117 125.555C124.909 125.336 124.562 125.227 124.078 125.227C123.443 125.227 122.966 125.497 122.648 126.039V132H120.391V123.547H122.516ZM132.109 121.469V123.547H133.555V125.203H132.109V129.422C132.109 129.734 132.169 129.958 132.289 130.094C132.409 130.229 132.638 130.297 132.977 130.297C133.227 130.297 133.448 130.279 133.641 130.242V131.953C133.198 132.089 132.742 132.156 132.273 132.156C130.69 132.156 129.883 131.357 129.852 129.758V125.203H128.617V123.547H129.852V121.469H132.109ZM134.227 127.695C134.227 126.857 134.388 126.109 134.711 125.453C135.034 124.797 135.497 124.289 136.102 123.93C136.711 123.57 137.417 123.391 138.219 123.391C139.359 123.391 140.289 123.74 141.008 124.438C141.732 125.135 142.135 126.083 142.219 127.281L142.234 127.859C142.234 129.156 141.872 130.198 141.148 130.984C140.424 131.766 139.453 132.156 138.234 132.156C137.016 132.156 136.042 131.766 135.312 130.984C134.589 130.203 134.227 129.141 134.227 127.797V127.695ZM136.484 127.859C136.484 128.661 136.635 129.276 136.938 129.703C137.24 130.125 137.672 130.336 138.234 130.336C138.781 130.336 139.208 130.128 139.516 129.711C139.823 129.289 139.977 128.617 139.977 127.695C139.977 126.909 139.823 126.299 139.516 125.867C139.208 125.435 138.776 125.219 138.219 125.219C137.667 125.219 137.24 125.435 136.938 125.867C136.635 126.294 136.484 126.958 136.484 127.859ZM148.203 129.664C148.203 129.388 148.065 129.172 147.789 129.016C147.518 128.854 147.081 128.711 146.477 128.586C144.466 128.164 143.461 127.31 143.461 126.023C143.461 125.273 143.771 124.648 144.391 124.148C145.016 123.643 145.831 123.391 146.836 123.391C147.909 123.391 148.766 123.643 149.406 124.148C150.052 124.654 150.375 125.31 150.375 126.117H148.117C148.117 125.794 148.013 125.529 147.805 125.32C147.596 125.107 147.271 125 146.828 125C146.448 125 146.154 125.086 145.945 125.258C145.737 125.43 145.633 125.648 145.633 125.914C145.633 126.164 145.75 126.367 145.984 126.523C146.224 126.674 146.625 126.807 147.188 126.922C147.75 127.031 148.224 127.156 148.609 127.297C149.802 127.734 150.398 128.492 150.398 129.57C150.398 130.341 150.068 130.966 149.406 131.445C148.745 131.919 147.891 132.156 146.844 132.156C146.135 132.156 145.505 132.031 144.953 131.781C144.406 131.526 143.977 131.18 143.664 130.742C143.352 130.299 143.195 129.823 143.195 129.312H145.336C145.357 129.714 145.505 130.021 145.781 130.234C146.057 130.448 146.427 130.555 146.891 130.555C147.323 130.555 147.648 130.474 147.867 130.312C148.091 130.146 148.203 129.93 148.203 129.664ZM156.758 132C156.654 131.797 156.578 131.544 156.531 131.242C155.984 131.852 155.273 132.156 154.398 132.156C153.57 132.156 152.883 131.917 152.336 131.438C151.794 130.958 151.523 130.354 151.523 129.625C151.523 128.729 151.854 128.042 152.516 127.562C153.182 127.083 154.143 126.841 155.398 126.836H156.438V126.352C156.438 125.961 156.336 125.648 156.133 125.414C155.935 125.18 155.62 125.062 155.188 125.062C154.807 125.062 154.508 125.154 154.289 125.336C154.076 125.518 153.969 125.768 153.969 126.086H151.711C151.711 125.596 151.862 125.143 152.164 124.727C152.466 124.31 152.893 123.984 153.445 123.75C153.997 123.51 154.617 123.391 155.305 123.391C156.346 123.391 157.172 123.654 157.781 124.18C158.396 124.701 158.703 125.435 158.703 126.383V130.047C158.708 130.849 158.82 131.456 159.039 131.867V132H156.758ZM154.891 130.43C155.224 130.43 155.531 130.357 155.812 130.211C156.094 130.06 156.302 129.859 156.438 129.609V128.156H155.594C154.464 128.156 153.862 128.547 153.789 129.328L153.781 129.461C153.781 129.742 153.88 129.974 154.078 130.156C154.276 130.339 154.547 130.43 154.891 130.43ZM168.055 127.852C168.055 129.206 167.766 130.263 167.188 131.023C166.609 131.779 165.802 132.156 164.766 132.156C163.849 132.156 163.117 131.805 162.57 131.102L162.469 132H160.438V120H162.695V124.305C163.216 123.695 163.901 123.391 164.75 123.391C165.781 123.391 166.589 123.771 167.172 124.531C167.76 125.286 168.055 126.352 168.055 127.727V127.852ZM165.797 127.688C165.797 126.833 165.661 126.211 165.391 125.82C165.12 125.424 164.716 125.227 164.18 125.227C163.461 125.227 162.966 125.521 162.695 126.109V129.445C162.971 130.039 163.471 130.336 164.195 130.336C164.924 130.336 165.404 129.977 165.633 129.258C165.742 128.914 165.797 128.391 165.797 127.688ZM177.07 127.852C177.07 129.206 176.781 130.263 176.203 131.023C175.625 131.779 174.818 132.156 173.781 132.156C172.865 132.156 172.133 131.805 171.586 131.102L171.484 132H169.453V120H171.711V124.305C172.232 123.695 172.917 123.391 173.766 123.391C174.797 123.391 175.604 123.771 176.188 124.531C176.776 125.286 177.07 126.352 177.07 127.727V127.852ZM174.812 127.688C174.812 126.833 174.677 126.211 174.406 125.82C174.135 125.424 173.732 125.227 173.195 125.227C172.477 125.227 171.982 125.521 171.711 126.109V129.445C171.987 130.039 172.487 130.336 173.211 130.336C173.94 130.336 174.419 129.977 174.648 129.258C174.758 128.914 174.812 128.391 174.812 127.688ZM72.0547 140.469V142.547H73.5V144.203H72.0547V148.422C72.0547 148.734 72.1146 148.958 72.2344 149.094C72.3542 149.229 72.5833 149.297 72.9219 149.297C73.1719 149.297 73.3932 149.279 73.5859 149.242V150.953C73.1432 151.089 72.6875 151.156 72.2188 151.156C70.6354 151.156 69.8281 150.357 69.7969 148.758V144.203H68.5625V142.547H69.7969V140.469H72.0547ZM78.6484 151.156C77.4089 151.156 76.3984 150.776 75.6172 150.016C74.8411 149.255 74.4531 148.242 74.4531 146.977V146.758C74.4531 145.909 74.6172 145.151 74.9453 144.484C75.2734 143.812 75.737 143.297 76.3359 142.938C76.9401 142.573 77.6276 142.391 78.3984 142.391C79.5547 142.391 80.4635 142.755 81.125 143.484C81.7917 144.214 82.125 145.247 82.125 146.586V147.508H76.7422C76.8151 148.06 77.0339 148.503 77.3984 148.836C77.7682 149.169 78.2344 149.336 78.7969 149.336C79.6667 149.336 80.3464 149.021 80.8359 148.391L81.9453 149.633C81.6068 150.112 81.1484 150.487 80.5703 150.758C79.9922 151.023 79.3516 151.156 78.6484 151.156ZM78.3906 144.219C77.9427 144.219 77.5781 144.37 77.2969 144.672C77.0208 144.974 76.8438 145.406 76.7656 145.969H79.9062V145.789C79.8958 145.289 79.7604 144.904 79.5 144.633C79.2396 144.357 78.8698 144.219 78.3906 144.219ZM78.5938 139H81.0547L78.8906 141.422H77.0547L78.5938 139ZM85.5312 142.547L85.6016 143.492C86.2005 142.758 87.0104 142.391 88.0312 142.391C89.1198 142.391 89.8672 142.82 90.2734 143.68C90.8672 142.82 91.7135 142.391 92.8125 142.391C93.7292 142.391 94.4115 142.659 94.8594 143.195C95.3073 143.727 95.5312 144.529 95.5312 145.602V151H93.2656V145.609C93.2656 145.13 93.1719 144.781 92.9844 144.562C92.7969 144.339 92.4661 144.227 91.9922 144.227C91.3151 144.227 90.8464 144.549 90.5859 145.195L90.5938 151H88.3359V145.617C88.3359 145.128 88.2396 144.773 88.0469 144.555C87.8542 144.336 87.526 144.227 87.0625 144.227C86.4219 144.227 85.9583 144.492 85.6719 145.023V151H83.4141V142.547H85.5312ZM102.172 151C102.068 150.797 101.992 150.544 101.945 150.242C101.398 150.852 100.688 151.156 99.8125 151.156C98.9844 151.156 98.2969 150.917 97.75 150.438C97.2083 149.958 96.9375 149.354 96.9375 148.625C96.9375 147.729 97.2682 147.042 97.9297 146.562C98.5964 146.083 99.5573 145.841 100.812 145.836H101.852V145.352C101.852 144.961 101.75 144.648 101.547 144.414C101.349 144.18 101.034 144.062 100.602 144.062C100.221 144.062 99.9219 144.154 99.7031 144.336C99.4896 144.518 99.3828 144.768 99.3828 145.086H97.125C97.125 144.596 97.276 144.143 97.5781 143.727C97.8802 143.31 98.3073 142.984 98.8594 142.75C99.4115 142.51 100.031 142.391 100.719 142.391C101.76 142.391 102.586 142.654 103.195 143.18C103.81 143.701 104.117 144.435 104.117 145.383V149.047C104.122 149.849 104.234 150.456 104.453 150.867V151H102.172ZM100.305 149.43C100.638 149.43 100.945 149.357 101.227 149.211C101.508 149.06 101.716 148.859 101.852 148.609V147.156H101.008C99.8776 147.156 99.276 147.547 99.2031 148.328L99.1953 148.461C99.1953 148.742 99.2943 148.974 99.4922 149.156C99.6901 149.339 99.9609 149.43 100.305 149.43ZM101.164 139H103.625L101.461 141.422H99.625L101.164 139ZM108.922 147.609L108.109 148.422V151H105.852V139H108.109V145.648L108.547 145.086L110.711 142.547H113.422L110.367 146.07L113.688 151H111.094L108.922 147.609Z" fill="#ECE7DD"/>
</svg>
