<svg width="187" height="332" viewBox="0 0 187 332" fill="none" xmlns="http://www.w3.org/2000/svg">
<rect y="0.982666" width="186.094" height="330.736" fill="#4B7793"/>
<path d="M57.5703 277.226H53.6855V288H52.1001V277.226H48.2236V275.914H57.5703V277.226ZM68.4277 282.347C68.4277 283.531 68.2285 284.566 67.8301 285.452C67.4316 286.332 66.8672 287.004 66.1367 287.469C65.4062 287.934 64.554 288.166 63.5801 288.166C62.6283 288.166 61.7843 287.934 61.0483 287.469C60.3123 286.998 59.7396 286.332 59.3301 285.468C58.9261 284.599 58.7186 283.595 58.7075 282.455V281.583C58.7075 280.421 58.9095 279.395 59.3135 278.504C59.7174 277.613 60.2874 276.932 61.0234 276.462C61.765 275.986 62.6117 275.748 63.5635 275.748C64.5319 275.748 65.3841 275.983 66.1201 276.454C66.8617 276.918 67.4316 277.596 67.8301 278.487C68.2285 279.373 68.4277 280.405 68.4277 281.583V282.347ZM66.8423 281.567C66.8423 280.134 66.5545 279.035 65.979 278.271C65.4035 277.502 64.5983 277.118 63.5635 277.118C62.5563 277.118 61.7622 277.502 61.1812 278.271C60.6056 279.035 60.3096 280.098 60.293 281.459V282.347C60.293 283.736 60.5835 284.829 61.1646 285.626C61.7511 286.417 62.5563 286.813 63.5801 286.813C64.6094 286.813 65.4062 286.439 65.9707 285.692C66.5352 284.94 66.8257 283.863 66.8423 282.463V281.567ZM74.6367 285.883L78.0898 275.914H79.833L75.3506 288H73.9395L69.4653 275.914H71.2002L74.6367 285.883ZM87.5029 284.846H82.4395L81.3022 288H79.6587L84.2739 275.914H85.6685L90.292 288H88.6567L87.5029 284.846ZM82.9209 283.534H87.0298L84.9712 277.881L82.9209 283.534ZM85.7598 272.677H87.6191L85.3945 275.117H84.1577L85.7598 272.677ZM91.9189 288V275.914H95.8701C97.1816 275.914 98.1667 276.185 98.8252 276.728C99.4893 277.27 99.8213 278.072 99.8213 279.135C99.8213 279.699 99.6608 280.2 99.3398 280.637C99.0189 281.069 98.5817 281.404 98.0283 281.642C98.6813 281.824 99.196 282.173 99.5723 282.688C99.9541 283.197 100.145 283.805 100.145 284.514C100.145 285.598 99.7936 286.451 99.0908 287.07C98.388 287.69 97.3947 288 96.1108 288H91.9189ZM93.5127 282.347V286.697H96.144C96.8856 286.697 97.4694 286.506 97.8955 286.124C98.3271 285.737 98.543 285.205 98.543 284.53C98.543 283.075 97.7516 282.347 96.1689 282.347H93.5127ZM93.5127 281.069H95.9199C96.6172 281.069 97.1733 280.895 97.5884 280.546C98.009 280.197 98.2192 279.724 98.2192 279.126C98.2192 278.462 98.0256 277.981 97.6382 277.682C97.2508 277.378 96.6615 277.226 95.8701 277.226H93.5127V281.069ZM102.511 288V275.914H106.462C107.773 275.914 108.758 276.185 109.417 276.728C110.081 277.27 110.413 278.072 110.413 279.135C110.413 279.699 110.253 280.2 109.932 280.637C109.611 281.069 109.174 281.404 108.62 281.642C109.273 281.824 109.788 282.173 110.164 282.688C110.546 283.197 110.737 283.805 110.737 284.514C110.737 285.598 110.385 286.451 109.683 287.07C108.98 287.69 107.986 288 106.703 288H102.511ZM104.104 282.347V286.697H106.736C107.477 286.697 108.061 286.506 108.487 286.124C108.919 285.737 109.135 285.205 109.135 284.53C109.135 283.075 108.343 282.347 106.761 282.347H104.104ZM104.104 281.069H106.512C107.209 281.069 107.765 280.895 108.18 280.546C108.601 280.197 108.811 279.724 108.811 279.126C108.811 278.462 108.617 277.981 108.23 277.682C107.843 277.378 107.253 277.226 106.462 277.226H104.104V281.069ZM123.993 284.846H118.93L117.792 288H116.149L120.764 275.914H122.159L126.782 288H125.147L123.993 284.846ZM119.411 283.534H123.52L121.461 277.881L119.411 283.534ZM129.604 286.697H136.519V288H127.72V286.805L134.344 277.226H127.828V275.914H136.253V277.084L129.604 286.697ZM27.2144 305.742H23.2217L22.5244 308H19.4116L23.8442 295.914H26.5835L31.0493 308H27.9199L27.2144 305.742ZM23.9189 303.493H26.5171L25.2139 299.301L23.9189 303.493ZM36.0464 303.501L34.8511 304.812V308H31.9375V295.914H34.8511V301.243L35.8638 299.708L38.4702 295.914H42.0728L37.9888 301.26L42.0728 308H38.6196L36.0464 303.501ZM52.2993 298.164H48.6719V308H45.7583V298.164H42.1973V295.914H52.2993V298.164ZM63.0156 295.914V303.825C63.0156 304.721 62.8247 305.499 62.4429 306.157C62.061 306.81 61.5132 307.308 60.7993 307.651C60.0854 307.994 59.2415 308.166 58.2676 308.166C56.7956 308.166 55.6362 307.784 54.7896 307.021C53.9429 306.257 53.5112 305.211 53.4946 303.883V295.914H56.4248V303.941C56.458 305.264 57.0723 305.925 58.2676 305.925C58.8708 305.925 59.3273 305.759 59.6372 305.427C59.9471 305.095 60.1021 304.555 60.1021 303.808V295.914H63.0156ZM71.5239 305.742H67.5312L66.834 308H63.7212L68.1538 295.914H70.8931L75.3589 308H72.2295L71.5239 305.742ZM68.2285 303.493H70.8267L69.5234 299.301L68.2285 303.493ZM79.1606 305.759H84.2324V308H76.2471V295.914H79.1606V305.759ZM88.5654 308H85.6602V295.914H88.5654V308ZM99.8296 298.164H96.2021V308H93.2886V298.164H89.7275V295.914H99.8296V298.164ZM106.935 305.742H102.942L102.245 308H99.1323L103.565 295.914H106.304L110.77 308H107.641L106.935 305.742ZM103.64 303.493H106.238L104.935 299.301L103.64 303.493ZM105.316 292.677H108.271L105.964 295.283H103.681L105.316 292.677ZM117.892 304.788C117.892 304.361 117.74 304.029 117.436 303.792C117.137 303.554 116.608 303.307 115.85 303.053C115.092 302.798 114.472 302.552 113.991 302.314C112.425 301.545 111.642 300.488 111.642 299.143C111.642 298.473 111.835 297.884 112.223 297.375C112.616 296.86 113.169 296.462 113.883 296.18C114.597 295.892 115.399 295.748 116.29 295.748C117.159 295.748 117.936 295.903 118.623 296.213C119.314 296.523 119.851 296.965 120.233 297.541C120.615 298.111 120.806 298.764 120.806 299.5H117.9C117.9 299.007 117.748 298.626 117.444 298.354C117.145 298.083 116.738 297.948 116.224 297.948C115.703 297.948 115.291 298.064 114.987 298.296C114.688 298.523 114.539 298.814 114.539 299.168C114.539 299.478 114.705 299.76 115.037 300.015C115.369 300.264 115.952 300.524 116.788 300.795C117.624 301.061 118.31 301.348 118.847 301.658C120.153 302.411 120.806 303.448 120.806 304.771C120.806 305.828 120.407 306.658 119.61 307.261C118.813 307.864 117.721 308.166 116.332 308.166C115.352 308.166 114.464 307.992 113.667 307.643C112.876 307.289 112.278 306.807 111.874 306.199C111.476 305.584 111.276 304.879 111.276 304.082H114.198C114.198 304.729 114.364 305.208 114.696 305.518C115.034 305.822 115.579 305.975 116.332 305.975C116.813 305.975 117.192 305.872 117.469 305.667C117.751 305.457 117.892 305.164 117.892 304.788ZM132.535 302.206C132.535 303.385 132.316 304.428 131.879 305.335C131.442 306.243 130.819 306.943 130.011 307.436C129.209 307.923 128.293 308.166 127.264 308.166C126.234 308.166 125.321 307.931 124.524 307.46C123.728 306.985 123.105 306.307 122.657 305.427C122.214 304.547 121.982 303.537 121.959 302.397V301.716C121.959 300.532 122.175 299.489 122.607 298.587C123.044 297.679 123.667 296.979 124.475 296.487C125.288 295.994 126.212 295.748 127.247 295.748C128.271 295.748 129.184 295.992 129.986 296.479C130.789 296.965 131.411 297.66 131.854 298.562C132.302 299.458 132.529 300.488 132.535 301.65V302.206ZM129.571 301.7C129.571 300.499 129.369 299.589 128.965 298.969C128.567 298.343 127.994 298.031 127.247 298.031C125.786 298.031 125.014 299.126 124.931 301.318L124.923 302.206C124.923 303.39 125.119 304.301 125.512 304.937C125.905 305.573 126.489 305.892 127.264 305.892C128 305.892 128.567 305.579 128.965 304.954C129.364 304.328 129.566 303.429 129.571 302.256V301.7ZM138.146 303.501L136.951 304.812V308H134.037V295.914H136.951V301.243L137.963 299.708L140.57 295.914H144.172L140.088 301.26L144.172 308H140.719L138.146 303.501ZM149.833 303.111H146.995V308H145.393V295.914H149.394C150.755 295.914 151.801 296.224 152.531 296.844C153.267 297.464 153.635 298.366 153.635 299.55C153.635 300.302 153.431 300.958 153.021 301.517C152.617 302.076 152.053 302.494 151.328 302.771L154.167 307.9V308H152.457L149.833 303.111ZM146.995 301.808H149.443C150.235 301.808 150.863 301.603 151.328 301.193C151.798 300.784 152.033 300.236 152.033 299.55C152.033 298.803 151.809 298.23 151.361 297.832C150.918 297.433 150.276 297.231 149.435 297.226H146.995V301.808ZM162.55 304.846H157.487L156.35 308H154.706L159.321 295.914H160.716L165.339 308H163.704L162.55 304.846ZM157.968 303.534H162.077L160.019 297.881L157.968 303.534Z" fill="#ECE7DD"/>
<path d="M23.927 131.777H18.2766L17.2024 135H13.7757L19.5979 119.359H22.5843L28.4388 135H25.012L23.927 131.777ZM19.1468 129.167H23.0569L21.0911 123.312L19.1468 129.167ZM36.0966 128.727L34.4209 130.531V135H31.1982V119.359H34.4209V126.449L35.8388 124.505L39.8242 119.359H43.788L38.2343 126.31L43.9492 135H40.1142L36.0966 128.727ZM49.6043 135C49.4611 134.721 49.3572 134.373 49.2928 133.958C48.5408 134.796 47.5633 135.215 46.3602 135.215C45.2215 135.215 44.2762 134.885 43.5242 134.227C42.7794 133.568 42.407 132.737 42.407 131.734C42.407 130.503 42.8618 129.557 43.7713 128.898C44.688 128.24 46.0092 127.907 47.7352 127.899H49.1639V127.233C49.1639 126.696 49.0242 126.267 48.7449 125.944C48.4728 125.622 48.0395 125.461 47.4451 125.461C46.9223 125.461 46.5105 125.586 46.2098 125.837C45.9161 126.088 45.7693 126.431 45.7693 126.868H42.6648C42.6648 126.195 42.8725 125.572 43.2879 124.999C43.7033 124.426 44.2905 123.979 45.0496 123.656C45.8087 123.327 46.6609 123.162 47.6063 123.162C49.0385 123.162 50.1736 123.524 51.0115 124.247C51.8566 124.963 52.2791 125.973 52.2791 127.276V132.314C52.2863 133.417 52.4402 134.252 52.741 134.817V135H49.6043ZM47.0369 132.841C47.4952 132.841 47.9178 132.741 48.3045 132.54C48.6912 132.332 48.9777 132.057 49.1639 131.713V129.715H48.0037C46.4497 129.715 45.6225 130.252 45.5223 131.326L45.5115 131.509C45.5115 131.896 45.6476 132.214 45.9197 132.465C46.1919 132.715 46.5643 132.841 47.0369 132.841ZM48.2186 118.5H51.6023L48.6268 121.83H46.1023L48.2186 118.5ZM59.1051 126.288C58.6826 126.231 58.3102 126.202 57.9879 126.202C56.8135 126.202 56.0436 126.6 55.6784 127.395V135H52.5739V123.377H55.5065L55.5924 124.763C56.2155 123.696 57.0784 123.162 58.1813 123.162C58.525 123.162 58.8473 123.209 59.1481 123.302L59.1051 126.288ZM68.9819 129.296C68.9819 131.086 68.5737 132.522 67.7573 133.604C66.9481 134.678 65.8524 135.215 64.4702 135.215C63.2957 135.215 62.3468 134.807 61.6235 133.99V139.469H58.519V123.377H61.3979L61.5054 124.516C62.2573 123.613 63.2384 123.162 64.4487 123.162C65.881 123.162 66.9946 123.692 67.7895 124.752C68.5845 125.812 68.9819 127.273 68.9819 129.135V129.296ZM65.8774 129.07C65.8774 127.989 65.6841 127.155 65.2973 126.567C64.9178 125.98 64.3628 125.687 63.6323 125.687C62.6583 125.687 61.9888 126.059 61.6235 126.804V131.562C62.0031 132.329 62.6798 132.712 63.6538 132.712C65.1362 132.712 65.8774 131.498 65.8774 129.07ZM75.5609 135C75.4176 134.721 75.3138 134.373 75.2493 133.958C74.4974 134.796 73.5198 135.215 72.3167 135.215C71.178 135.215 70.2327 134.885 69.4808 134.227C68.736 133.568 68.3636 132.737 68.3636 131.734C68.3636 130.503 68.8183 129.557 69.7279 128.898C70.6445 128.24 71.9658 127.907 73.6917 127.899H75.1204V127.233C75.1204 126.696 74.9808 126.267 74.7015 125.944C74.4293 125.622 73.9961 125.461 73.4017 125.461C72.8789 125.461 72.4671 125.586 72.1663 125.837C71.8727 126.088 71.7259 126.431 71.7259 126.868H68.6214C68.6214 126.195 68.8291 125.572 69.2445 124.999C69.6598 124.426 70.2471 123.979 71.0062 123.656C71.7653 123.327 72.6175 123.162 73.5628 123.162C74.9951 123.162 76.1302 123.524 76.9681 124.247C77.8131 124.963 78.2357 125.973 78.2357 127.276V132.314C78.2428 133.417 78.3968 134.252 78.6976 134.817V135H75.5609ZM72.9935 132.841C73.4518 132.841 73.8743 132.741 74.2611 132.54C74.6478 132.332 74.9342 132.057 75.1204 131.713V129.715H73.9603C72.4062 129.715 71.5791 130.252 71.4788 131.326L71.4681 131.509C71.4681 131.896 71.6042 132.214 71.8763 132.465C72.1484 132.715 72.5208 132.841 72.9935 132.841ZM74.1751 118.5H77.5589L74.5833 121.83H72.0589L74.1751 118.5ZM82.2472 120.52V123.377H84.2345V125.654H82.2472V131.455C82.2472 131.885 82.3296 132.193 82.4943 132.379C82.659 132.565 82.9741 132.658 83.4396 132.658C83.7834 132.658 84.0877 132.633 84.3527 132.583V134.936C83.744 135.122 83.1173 135.215 82.4728 135.215C80.2957 135.215 79.1857 134.116 79.1427 131.917V125.654H77.4455V123.377H79.1427V120.52H82.2472ZM89.9111 129.554H83.8633V127.051H89.9111V129.554ZM93.2245 123.377L93.3211 124.677C94.1447 123.667 95.2583 123.162 96.662 123.162C98.1587 123.162 99.1864 123.753 99.745 124.935C100.561 123.753 101.725 123.162 103.236 123.162C104.497 123.162 105.435 123.531 106.051 124.269C106.667 124.999 106.974 126.102 106.974 127.577V135H103.859V127.588C103.859 126.929 103.73 126.449 103.473 126.148C103.215 125.84 102.76 125.687 102.108 125.687C101.177 125.687 100.533 126.131 100.175 127.019L100.185 135H97.0809V127.599C97.0809 126.925 96.9484 126.438 96.6834 126.138C96.4185 125.837 95.9673 125.687 95.3299 125.687C94.4491 125.687 93.8117 126.052 93.4178 126.782V135H90.3133V123.377H93.2245ZM112.63 135.215C110.925 135.215 109.536 134.692 108.462 133.646C107.395 132.601 106.861 131.208 106.861 129.468V129.167C106.861 128 107.087 126.958 107.538 126.041C107.989 125.117 108.626 124.408 109.45 123.914C110.281 123.413 111.226 123.162 112.286 123.162C113.876 123.162 115.125 123.663 116.035 124.666C116.952 125.669 117.41 127.09 117.41 128.931V130.198H110.008C110.109 130.957 110.41 131.566 110.911 132.024C111.419 132.483 112.06 132.712 112.834 132.712C114.03 132.712 114.964 132.279 115.637 131.412L117.163 133.12C116.697 133.779 116.067 134.295 115.272 134.667C114.477 135.032 113.596 135.215 112.63 135.215ZM112.275 125.676C111.659 125.676 111.158 125.883 110.771 126.299C110.392 126.714 110.148 127.309 110.041 128.082H114.359V127.835C114.345 127.147 114.159 126.618 113.8 126.245C113.442 125.866 112.934 125.676 112.275 125.676ZM116.609 129.103C116.609 127.291 117.014 125.848 117.823 124.773C118.639 123.699 119.753 123.162 121.164 123.162C122.295 123.162 123.23 123.585 123.967 124.43V118.5H127.083V135H124.279L124.128 133.765C123.355 134.731 122.36 135.215 121.142 135.215C119.774 135.215 118.675 134.678 117.844 133.604C117.021 132.522 116.609 131.022 116.609 129.103ZM119.713 129.328C119.713 130.417 119.903 131.251 120.283 131.831C120.662 132.411 121.214 132.701 121.937 132.701C122.897 132.701 123.573 132.297 123.967 131.487V126.9C123.581 126.091 122.911 125.687 121.959 125.687C120.462 125.687 119.713 126.9 119.713 129.328ZM132.748 135.215C131.044 135.215 129.655 134.692 128.58 133.646C127.513 132.601 126.98 131.208 126.98 129.468V129.167C126.98 128 127.205 126.958 127.657 126.041C128.108 125.117 128.745 124.408 129.569 123.914C130.399 123.413 131.345 123.162 132.405 123.162C133.994 123.162 135.244 123.663 136.154 124.666C137.07 125.669 137.529 127.09 137.529 128.931V130.198H130.127C130.228 130.957 130.528 131.566 131.03 132.024C131.538 132.483 132.179 132.712 132.952 132.712C134.148 132.712 135.083 132.279 135.756 131.412L137.282 133.12C136.816 133.779 136.186 134.295 135.391 134.667C134.596 135.032 133.715 135.215 132.748 135.215ZM132.394 125.676C131.778 125.676 131.277 125.883 130.89 126.299C130.51 126.714 130.267 127.309 130.16 128.082H134.478V127.835C134.464 127.147 134.277 126.618 133.919 126.245C133.561 125.866 133.053 125.676 132.394 125.676ZM140.069 123.377L140.165 124.72C140.996 123.681 142.11 123.162 143.506 123.162C144.738 123.162 145.654 123.524 146.256 124.247C146.858 124.97 147.166 126.052 147.18 127.491V135H144.075V127.566C144.075 126.908 143.932 126.431 143.646 126.138C143.359 125.837 142.883 125.687 142.217 125.687C141.343 125.687 140.688 126.059 140.251 126.804V135H137.147V123.377H140.069ZM152.287 132.712C152.86 132.712 153.326 132.554 153.684 132.239C154.042 131.924 154.228 131.505 154.242 130.982H157.153C157.146 131.77 156.931 132.493 156.509 133.152C156.086 133.804 155.506 134.312 154.769 134.678C154.038 135.036 153.229 135.215 152.341 135.215C150.679 135.215 149.369 134.688 148.409 133.636C147.45 132.576 146.97 131.115 146.97 129.253V129.049C146.97 127.258 147.446 125.83 148.398 124.763C149.351 123.696 150.658 123.162 152.319 123.162C153.773 123.162 154.937 123.577 155.811 124.408C156.691 125.232 157.139 126.331 157.153 127.706H154.242C154.228 127.104 154.042 126.618 153.684 126.245C153.326 125.866 152.853 125.676 152.266 125.676C151.542 125.676 150.995 125.941 150.622 126.471C150.257 126.993 150.074 127.846 150.074 129.027V129.35C150.074 130.546 150.257 131.405 150.622 131.928C150.987 132.451 151.542 132.712 152.287 132.712ZM162.185 135.215C160.481 135.215 159.092 134.692 158.017 133.646C156.95 132.601 156.417 131.208 156.417 129.468V129.167C156.417 128 156.642 126.958 157.094 126.041C157.545 125.117 158.182 124.408 159.006 123.914C159.836 123.413 160.782 123.162 161.842 123.162C163.432 123.162 164.681 123.663 165.591 124.666C166.507 125.669 166.966 127.09 166.966 128.931V130.198H159.564C159.665 130.957 159.965 131.566 160.467 132.024C160.975 132.483 161.616 132.712 162.39 132.712C163.585 132.712 164.52 132.279 165.193 131.412L166.719 133.12C166.253 133.779 165.623 134.295 164.828 134.667C164.033 135.032 163.152 135.215 162.185 135.215ZM161.831 125.676C161.215 125.676 160.714 125.883 160.327 126.299C159.947 126.714 159.704 127.309 159.597 128.082H163.915V127.835C163.901 127.147 163.714 126.618 163.356 126.245C162.998 125.866 162.49 125.676 161.831 125.676ZM169.925 135H166.809V123.377H169.925V135ZM166.627 120.369C166.627 119.904 166.781 119.521 167.089 119.22C167.404 118.919 167.83 118.769 168.367 118.769C168.897 118.769 169.319 118.919 169.634 119.22C169.95 119.521 170.107 119.904 170.107 120.369C170.107 120.842 169.946 121.229 169.624 121.529C169.309 121.83 168.89 121.98 168.367 121.98C167.844 121.98 167.422 121.83 167.099 121.529C166.784 121.229 166.627 120.842 166.627 120.369ZM17.9574 149.377L18.0541 150.677C18.8776 149.667 19.9912 149.162 21.3949 149.162C22.8916 149.162 23.9193 149.753 24.4779 150.935C25.2943 149.753 26.458 149.162 27.9691 149.162C29.2295 149.162 30.1677 149.531 30.7836 150.269C31.3994 150.999 31.7074 152.102 31.7074 153.577V161H28.5921V153.588C28.5921 152.929 28.4632 152.449 28.2054 152.148C27.9476 151.84 27.4929 151.687 26.8412 151.687C25.9102 151.687 25.2657 152.131 24.9076 153.019L24.9183 161H21.8138V153.599C21.8138 152.925 21.6813 152.438 21.4164 152.138C21.1514 151.837 20.7002 151.687 20.0629 151.687C19.182 151.687 18.5446 152.052 18.1507 152.782V161H15.0462V149.377H17.9574ZM38.7482 161C38.605 160.721 38.5012 160.373 38.4367 159.958C37.6848 160.796 36.7072 161.215 35.5041 161.215C34.3654 161.215 33.4201 160.885 32.6682 160.227C31.9234 159.568 31.551 158.737 31.551 157.734C31.551 156.503 32.0057 155.557 32.9152 154.898C33.8319 154.24 35.1532 153.907 36.8791 153.899H38.3078V153.233C38.3078 152.696 38.1682 152.267 37.8889 151.944C37.6167 151.622 37.1835 151.461 36.5891 151.461C36.0663 151.461 35.6545 151.586 35.3537 151.837C35.0601 152.088 34.9133 152.431 34.9133 152.868H31.8088C31.8088 152.195 32.0165 151.572 32.4318 150.999C32.8472 150.426 33.4344 149.979 34.1936 149.656C34.9527 149.327 35.8049 149.162 36.7502 149.162C38.1825 149.162 39.3176 149.524 40.1555 150.247C41.0005 150.963 41.423 151.973 41.423 153.276V158.314C41.4302 159.417 41.5842 160.252 41.885 160.817V161H38.7482ZM36.1809 158.841C36.6392 158.841 37.0617 158.741 37.4484 158.54C37.8352 158.332 38.1216 158.057 38.3078 157.713V155.715H37.1477C35.5936 155.715 34.7665 156.252 34.6662 157.326L34.6555 157.509C34.6555 157.896 34.7915 158.214 35.0637 158.465C35.3358 158.715 35.7082 158.841 36.1809 158.841ZM41.2666 155.103C41.2666 153.319 41.6892 151.883 42.5342 150.795C43.3864 149.706 44.5323 149.162 45.9717 149.162C47.2465 149.162 48.2383 149.599 48.9473 150.473L49.0762 149.377H51.8907V160.613C51.8907 161.63 51.6579 162.515 51.1924 163.267C50.7341 164.019 50.086 164.591 49.2481 164.985C48.4102 165.379 47.4291 165.576 46.3047 165.576C45.4525 165.576 44.6218 165.404 43.8125 165.061C43.0033 164.724 42.391 164.287 41.9756 163.75L43.3506 161.859C44.1241 162.726 45.0622 163.159 46.1651 163.159C46.9886 163.159 47.6296 162.937 48.0879 162.493C48.5463 162.056 48.7754 161.433 48.7754 160.624V160.001C48.0593 160.81 47.1176 161.215 45.9502 161.215C44.5537 161.215 43.4222 160.671 42.5557 159.582C41.6963 158.486 41.2666 157.036 41.2666 155.231V155.103ZM44.3711 155.328C44.3711 156.381 44.5824 157.208 45.0049 157.81C45.4274 158.404 46.0075 158.701 46.7452 158.701C47.6905 158.701 48.3672 158.347 48.7754 157.638V152.75C48.3601 152.041 47.6905 151.687 46.7666 151.687C46.0218 151.687 45.4346 151.991 45.0049 152.6C44.5824 153.208 44.3711 154.118 44.3711 155.328ZM56.536 156.606L58.6845 149.377H62.0145L57.3417 162.805L57.0839 163.417C56.3892 164.935 55.2434 165.694 53.6464 165.694C53.1952 165.694 52.7369 165.626 52.2714 165.49V163.138L52.744 163.148C53.3313 163.148 53.7681 163.059 54.0546 162.88C54.3482 162.701 54.5774 162.404 54.7421 161.988L55.1073 161.032L51.036 149.377H54.3768L56.536 156.606ZM67.7126 161C67.5694 160.721 67.4655 160.373 67.4011 159.958C66.6491 160.796 65.6716 161.215 64.4685 161.215C63.3298 161.215 62.3845 160.885 61.6325 160.227C60.8877 159.568 60.5154 158.737 60.5154 157.734C60.5154 156.503 60.9701 155.557 61.8796 154.898C62.7963 154.24 64.1176 153.907 65.8435 153.899H67.2722V153.233C67.2722 152.696 67.1325 152.267 66.8532 151.944C66.5811 151.622 66.1478 151.461 65.5534 151.461C65.0306 151.461 64.6189 151.586 64.3181 151.837C64.0245 152.088 63.8777 152.431 63.8777 152.868H60.7732C60.7732 152.195 60.9808 151.572 61.3962 150.999C61.8116 150.426 62.3988 149.979 63.1579 149.656C63.917 149.327 64.7693 149.162 65.7146 149.162C67.1469 149.162 68.282 149.524 69.1198 150.247C69.9649 150.963 70.3874 151.973 70.3874 153.276V158.314C70.3946 159.417 70.5486 160.252 70.8493 160.817V161H67.7126ZM65.1452 158.841C65.6036 158.841 66.0261 158.741 66.4128 158.54C66.7995 158.332 67.086 158.057 67.2722 157.713V155.715H66.112C64.558 155.715 63.7308 156.252 63.6306 157.326L63.6198 157.509C63.6198 157.896 63.7559 158.214 64.028 158.465C64.3002 158.715 64.6726 158.841 65.1452 158.841ZM77.2134 152.288C76.7909 152.231 76.4185 152.202 76.0962 152.202C74.9218 152.202 74.1519 152.6 73.7867 153.395V161H70.6822V149.377H73.6148L73.7007 150.763C74.3238 149.696 75.1867 149.162 76.2896 149.162C76.6334 149.162 76.9556 149.209 77.2564 149.302L77.2134 152.288ZM82.9223 157.788C82.9223 157.409 82.7325 157.111 82.3529 156.896C81.9805 156.674 81.379 156.478 80.5482 156.306C77.7839 155.726 76.4018 154.551 76.4018 152.782C76.4018 151.751 76.8279 150.892 77.6801 150.204C78.5395 149.509 79.6602 149.162 81.0424 149.162C82.5176 149.162 83.6957 149.509 84.5766 150.204C85.4646 150.899 85.9086 151.801 85.9086 152.911H82.8041C82.8041 152.467 82.6609 152.102 82.3744 151.815C82.088 151.522 81.6404 151.375 81.0316 151.375C80.5089 151.375 80.1042 151.493 79.8178 151.729C79.5313 151.966 79.3881 152.267 79.3881 152.632C79.3881 152.976 79.5492 153.255 79.8715 153.47C80.2009 153.677 80.7523 153.86 81.5258 154.018C82.2992 154.168 82.9509 154.34 83.4809 154.533C85.1208 155.135 85.9408 156.177 85.9408 157.659C85.9408 158.719 85.4861 159.578 84.5766 160.237C83.6671 160.889 82.4926 161.215 81.0531 161.215C80.0792 161.215 79.2126 161.043 78.4535 160.699C77.7016 160.348 77.1107 159.872 76.6811 159.271C76.2514 158.662 76.0365 158.007 76.0365 157.305H78.9799C79.0085 157.856 79.2126 158.279 79.5922 158.572C79.9717 158.866 80.4802 159.013 81.1176 159.013C81.712 159.013 82.1596 158.902 82.4604 158.68C82.7683 158.451 82.9223 158.153 82.9223 157.788ZM92.595 161C92.4517 160.721 92.3479 160.373 92.2834 159.958C91.5315 160.796 90.5539 161.215 89.3508 161.215C88.2122 161.215 87.2668 160.885 86.5149 160.227C85.7701 159.568 85.3977 158.737 85.3977 157.734C85.3977 156.503 85.8525 155.557 86.762 154.898C87.6786 154.24 88.9999 153.907 90.7258 153.899H92.1545V153.233C92.1545 152.696 92.0149 152.267 91.7356 151.944C91.4635 151.622 91.0302 151.461 90.4358 151.461C89.913 151.461 89.5012 151.586 89.2004 151.837C88.9068 152.088 88.76 152.431 88.76 152.868H85.6555C85.6555 152.195 85.8632 151.572 86.2786 150.999C86.6939 150.426 87.2812 149.979 88.0403 149.656C88.7994 149.327 89.6516 149.162 90.5969 149.162C92.0292 149.162 93.1643 149.524 94.0022 150.247C94.8472 150.963 95.2698 151.973 95.2698 153.276V158.314C95.2769 159.417 95.4309 160.252 95.7317 160.817V161H92.595ZM90.0276 158.841C90.4859 158.841 90.9084 158.741 91.2952 158.54C91.6819 158.332 91.9683 158.057 92.1545 157.713V155.715H90.9944C89.4403 155.715 88.6132 156.252 88.5129 157.326L88.5022 157.509C88.5022 157.896 88.6383 158.214 88.9104 158.465C89.1825 158.715 89.5549 158.841 90.0276 158.841ZM91.2092 144.5H94.593L91.6174 147.83H89.093L91.2092 144.5ZM95.1134 155.103C95.1134 153.319 95.5359 151.883 96.3809 150.795C97.2331 149.706 98.379 149.162 99.8184 149.162C101.093 149.162 102.085 149.599 102.794 150.473L102.923 149.377H105.737V160.613C105.737 161.63 105.505 162.515 105.039 163.267C104.581 164.019 103.933 164.591 103.095 164.985C102.257 165.379 101.276 165.576 100.151 165.576C99.2992 165.576 98.4685 165.404 97.6593 165.061C96.85 164.724 96.2377 164.287 95.8223 163.75L97.1973 161.859C97.9708 162.726 98.9089 163.159 100.012 163.159C100.835 163.159 101.476 162.937 101.935 162.493C102.393 162.056 102.622 161.433 102.622 160.624V160.001C101.906 160.81 100.964 161.215 99.797 161.215C98.4005 161.215 97.269 160.671 96.4024 159.582C95.543 158.486 95.1134 157.036 95.1134 155.231V155.103ZM98.2178 155.328C98.2178 156.381 98.4291 157.208 98.8516 157.81C99.2742 158.404 99.8542 158.701 100.592 158.701C101.537 158.701 102.214 158.347 102.622 157.638V152.75C102.207 152.041 101.537 151.687 100.613 151.687C99.8686 151.687 99.2813 151.991 98.8516 152.6C98.4291 153.208 98.2178 154.118 98.2178 155.328ZM105.559 155.081C105.559 153.928 105.781 152.9 106.226 151.998C106.67 151.096 107.307 150.397 108.138 149.903C108.976 149.409 109.946 149.162 111.049 149.162C112.617 149.162 113.895 149.642 114.884 150.602C115.879 151.561 116.434 152.865 116.549 154.512L116.57 155.307C116.57 157.09 116.073 158.522 115.077 159.604C114.082 160.678 112.746 161.215 111.07 161.215C109.394 161.215 108.055 160.678 107.053 159.604C106.057 158.529 105.559 157.068 105.559 155.221V155.081ZM108.664 155.307C108.664 156.41 108.872 157.255 109.287 157.842C109.702 158.422 110.297 158.712 111.07 158.712C111.822 158.712 112.409 158.425 112.832 157.853C113.254 157.272 113.466 156.349 113.466 155.081C113.466 154 113.254 153.162 112.832 152.567C112.409 151.973 111.815 151.676 111.049 151.676C110.29 151.676 109.702 151.973 109.287 152.567C108.872 153.155 108.664 154.068 108.664 155.307ZM120.109 146.52V149.377H122.096V151.654H120.109V157.455C120.109 157.885 120.191 158.193 120.356 158.379C120.521 158.565 120.836 158.658 121.302 158.658C121.645 158.658 121.95 158.633 122.215 158.583V160.936C121.606 161.122 120.979 161.215 120.335 161.215C118.158 161.215 117.048 160.116 117.005 157.917V151.654H115.307V149.377H117.005V146.52H120.109ZM130.474 161.215C128.77 161.215 127.38 160.692 126.306 159.646C125.239 158.601 124.706 157.208 124.706 155.468V155.167C124.706 154 124.931 152.958 125.382 152.041C125.833 151.117 126.471 150.408 127.294 149.914C128.125 149.413 129.07 149.162 130.13 149.162C131.72 149.162 132.97 149.663 133.879 150.666C134.796 151.669 135.254 153.09 135.254 154.931V156.198H127.853C127.953 156.957 128.254 157.566 128.755 158.024C129.264 158.483 129.905 158.712 130.678 158.712C131.874 158.712 132.809 158.279 133.482 157.412L135.007 159.12C134.542 159.779 133.912 160.295 133.117 160.667C132.322 161.032 131.441 161.215 130.474 161.215ZM130.12 151.676C129.504 151.676 129.002 151.883 128.616 152.299C128.236 152.714 127.993 153.309 127.885 154.082H132.204V153.835C132.189 153.147 132.003 152.618 131.645 152.245C131.287 151.866 130.778 151.676 130.12 151.676ZM130.399 144.5H133.783L130.807 147.83H128.283L130.399 144.5ZM141.468 152.288C141.046 152.231 140.673 152.202 140.351 152.202C139.176 152.202 138.407 152.6 138.041 153.395V161H134.937V149.377H137.869L137.955 150.763C138.578 149.696 139.441 149.162 140.544 149.162C140.888 149.162 141.21 149.209 141.511 149.302L141.468 152.288ZM144.158 161H141.043V149.377H144.158V161ZM140.86 146.369C140.86 145.904 141.014 145.521 141.322 145.22C141.637 144.919 142.064 144.769 142.601 144.769C143.131 144.769 143.553 144.919 143.868 145.22C144.183 145.521 144.341 145.904 144.341 146.369C144.341 146.842 144.18 147.229 143.858 147.529C143.542 147.83 143.123 147.98 142.601 147.98C142.078 147.98 141.655 147.83 141.333 147.529C141.018 147.229 140.86 146.842 140.86 146.369ZM147.493 149.377L147.59 150.72C148.421 149.681 149.534 149.162 150.931 149.162C152.162 149.162 153.079 149.524 153.681 150.247C154.282 150.97 154.59 152.052 154.604 153.491V161H151.5V153.566C151.5 152.908 151.357 152.431 151.07 152.138C150.784 151.837 150.308 151.687 149.642 151.687C148.768 151.687 148.113 152.059 147.676 152.804V161H144.571V149.377H147.493ZM158.595 146.52V149.377H160.582V151.654H158.595V157.455C158.595 157.885 158.677 158.193 158.842 158.379C159.006 158.565 159.321 158.658 159.787 158.658C160.131 158.658 160.435 158.633 160.7 158.583V160.936C160.091 161.122 159.465 161.215 158.82 161.215C156.643 161.215 155.533 160.116 155.49 157.917V151.654H153.793V149.377H155.49V146.52H158.595ZM159.416 155.081C159.416 153.928 159.638 152.9 160.082 151.998C160.526 151.096 161.163 150.397 161.994 149.903C162.832 149.409 163.802 149.162 164.905 149.162C166.473 149.162 167.752 149.642 168.74 150.602C169.735 151.561 170.29 152.865 170.405 154.512L170.426 155.307C170.426 157.09 169.929 158.522 168.933 159.604C167.938 160.678 166.602 161.215 164.926 161.215C163.251 161.215 161.911 160.678 160.909 159.604C159.913 158.529 159.416 157.068 159.416 155.221V155.081ZM162.52 155.307C162.52 156.41 162.728 157.255 163.143 157.842C163.559 158.422 164.153 158.712 164.926 158.712C165.678 158.712 166.266 158.425 166.688 157.853C167.111 157.272 167.322 156.349 167.322 155.081C167.322 154 167.111 153.162 166.688 152.567C166.266 151.973 165.671 151.676 164.905 151.676C164.146 151.676 163.559 151.973 163.143 152.567C162.728 153.155 162.52 154.068 162.52 155.307ZM167.816 144.511H170.598L167.741 147.744H165.399L167.816 144.511ZM163.616 144.511H166.355L163.895 147.744H161.618L163.616 144.511ZM58.7214 187C58.5782 186.721 58.4743 186.373 58.4099 185.958C57.6579 186.796 56.6804 187.215 55.4773 187.215C54.3386 187.215 53.3933 186.885 52.6413 186.227C51.8965 185.568 51.5241 184.737 51.5241 183.734C51.5241 182.503 51.9789 181.557 52.8884 180.898C53.8051 180.24 55.1264 179.907 56.8523 179.899H58.281V179.233C58.281 178.696 58.1413 178.267 57.862 177.944C57.5899 177.622 57.1566 177.461 56.5622 177.461C56.0394 177.461 55.6277 177.586 55.3269 177.837C55.0333 178.088 54.8864 178.431 54.8864 178.868H51.782C51.782 178.195 51.9896 177.572 52.405 176.999C52.8204 176.426 53.4076 175.979 54.1667 175.656C54.9258 175.327 55.778 175.162 56.7234 175.162C58.1556 175.162 59.2907 175.524 60.1286 176.247C60.9737 176.963 61.3962 177.973 61.3962 179.276V184.314C61.4034 185.417 61.5573 186.252 61.8581 186.817V187H58.7214ZM56.154 184.841C56.6124 184.841 57.0349 184.741 57.4216 184.54C57.8083 184.332 58.0948 184.057 58.281 183.713V181.715H57.1208C55.5668 181.715 54.7396 182.252 54.6394 183.326L54.6286 183.509C54.6286 183.896 54.7647 184.214 55.0368 184.465C55.309 184.715 55.6814 184.841 56.154 184.841ZM65.9127 182.338L64.7955 183.455V187H61.691V170.5H64.7955V179.642L65.397 178.868L68.3726 175.377H72.1002L67.9 180.222L72.4654 187H68.899L65.9127 182.338ZM75.0697 172.52V175.377H77.057V177.654H75.0697V183.455C75.0697 183.885 75.1521 184.193 75.3168 184.379C75.4815 184.565 75.7966 184.658 76.2621 184.658C76.6059 184.658 76.9102 184.633 77.1752 184.583V186.936C76.5665 187.122 75.9398 187.215 75.2953 187.215C73.1182 187.215 72.0082 186.116 71.9652 183.917V177.654H70.268V175.377H71.9652V172.52H75.0697ZM83.6575 185.818C82.8912 186.749 81.8313 187.215 80.4778 187.215C79.2317 187.215 78.2792 186.857 77.6203 186.141C76.9687 185.424 76.6356 184.375 76.6213 182.993V175.377H79.7258V182.886C79.7258 184.096 80.2772 184.701 81.3801 184.701C82.4328 184.701 83.1562 184.336 83.55 183.605V175.377H86.6653V187H83.7434L83.6575 185.818ZM93.6524 187C93.5092 186.721 93.4053 186.373 93.3409 185.958C92.5889 186.796 91.6114 187.215 90.4083 187.215C89.2696 187.215 88.3243 186.885 87.5723 186.227C86.8276 185.568 86.4552 184.737 86.4552 183.734C86.4552 182.503 86.9099 181.557 87.8194 180.898C88.7361 180.24 90.0574 179.907 91.7833 179.899H93.212V179.233C93.212 178.696 93.0723 178.267 92.793 177.944C92.5209 177.622 92.0876 177.461 91.4932 177.461C90.9705 177.461 90.5587 177.586 90.2579 177.837C89.9643 178.088 89.8175 178.431 89.8175 178.868H86.713C86.713 178.195 86.9206 177.572 87.336 176.999C87.7514 176.426 88.3386 175.979 89.0977 175.656C89.8568 175.327 90.7091 175.162 91.6544 175.162C93.0867 175.162 94.2218 175.524 95.0596 176.247C95.9047 176.963 96.3272 177.973 96.3272 179.276V184.314C96.3344 185.417 96.4884 186.252 96.7891 186.817V187H93.6524ZM91.085 184.841C91.5434 184.841 91.9659 184.741 92.3526 184.54C92.7393 184.332 93.0258 184.057 93.212 183.713V181.715H92.0518C90.4978 181.715 89.6706 182.252 89.5704 183.326L89.5596 183.509C89.5596 183.896 89.6957 184.214 89.9678 184.465C90.24 184.715 90.6124 184.841 91.085 184.841ZM92.2667 170.5H95.6505L92.6749 173.83H90.1505L92.2667 170.5ZM99.8984 187H96.7831V170.5H99.8984V187ZM103.652 187H100.537V175.377H103.652V187ZM100.354 172.369C100.354 171.904 100.508 171.521 100.816 171.22C101.131 170.919 101.557 170.769 102.094 170.769C102.624 170.769 103.047 170.919 103.362 171.22C103.677 171.521 103.835 171.904 103.835 172.369C103.835 172.842 103.674 173.229 103.351 173.529C103.036 173.83 102.617 173.98 102.094 173.98C101.572 173.98 101.149 173.83 100.827 173.529C100.512 173.229 100.354 172.842 100.354 172.369ZM110.424 183.788C110.424 183.409 110.235 183.111 109.855 182.896C109.483 182.674 108.881 182.478 108.05 182.306C105.286 181.726 103.904 180.551 103.904 178.782C103.904 177.751 104.33 176.892 105.182 176.204C106.042 175.509 107.162 175.162 108.545 175.162C110.02 175.162 111.198 175.509 112.079 176.204C112.967 176.899 113.411 177.801 113.411 178.911H110.306C110.306 178.467 110.163 178.102 109.877 177.815C109.59 177.522 109.143 177.375 108.534 177.375C108.011 177.375 107.606 177.493 107.32 177.729C107.033 177.966 106.89 178.267 106.89 178.632C106.89 178.976 107.051 179.255 107.374 179.47C107.703 179.677 108.254 179.86 109.028 180.018C109.801 180.168 110.453 180.34 110.983 180.533C112.623 181.135 113.443 182.177 113.443 183.659C113.443 184.719 112.988 185.578 112.079 186.237C111.169 186.889 109.995 187.215 108.555 187.215C107.581 187.215 106.715 187.043 105.956 186.699C105.204 186.348 104.613 185.872 104.183 185.271C103.754 184.662 103.539 184.007 103.539 183.305H106.482C106.511 183.856 106.715 184.279 107.094 184.572C107.474 184.866 107.982 185.013 108.62 185.013C109.214 185.013 109.662 184.902 109.962 184.68C110.27 184.451 110.424 184.153 110.424 183.788ZM120.097 187C119.954 186.721 119.85 186.373 119.786 185.958C119.034 186.796 118.056 187.215 116.853 187.215C115.714 187.215 114.769 186.885 114.017 186.227C113.272 185.568 112.9 184.737 112.9 183.734C112.9 182.503 113.355 181.557 114.264 180.898C115.181 180.24 116.502 179.907 118.228 179.899H119.657V179.233C119.657 178.696 119.517 178.267 119.238 177.944C118.966 177.622 118.532 177.461 117.938 177.461C117.415 177.461 117.003 177.586 116.703 177.837C116.409 178.088 116.262 178.431 116.262 178.868H113.158C113.158 178.195 113.365 177.572 113.781 176.999C114.196 176.426 114.783 175.979 115.542 175.656C116.302 175.327 117.154 175.162 118.099 175.162C119.531 175.162 120.666 175.524 121.504 176.247C122.349 176.963 122.772 177.973 122.772 179.276V184.314C122.779 185.417 122.933 186.252 123.234 186.817V187H120.097ZM117.53 184.841C117.988 184.841 118.411 184.741 118.797 184.54C119.184 184.332 119.47 184.057 119.657 183.713V181.715H118.497C116.942 181.715 116.115 182.252 116.015 183.326L116.004 183.509C116.004 183.896 116.14 184.214 116.413 184.465C116.685 184.715 117.057 184.841 117.53 184.841ZM125.924 175.377L126.021 176.72C126.852 175.681 127.965 175.162 129.362 175.162C130.593 175.162 131.51 175.524 132.112 176.247C132.713 176.97 133.021 178.052 133.035 179.491V187H129.931V179.566C129.931 178.908 129.788 178.431 129.501 178.138C129.215 177.837 128.739 177.687 128.073 177.687C127.199 177.687 126.544 178.059 126.107 178.804V187H123.002V175.377H125.924ZM15.8089 213H12.6937V196.5H15.8089V213ZM21.6359 213.215C19.9315 213.215 18.5422 212.692 17.468 211.646C16.4009 210.601 15.8674 209.208 15.8674 207.468V207.167C15.8674 206 16.093 204.958 16.5441 204.041C16.9953 203.117 17.6327 202.408 18.4562 201.914C19.287 201.413 20.2323 201.162 21.2922 201.162C22.882 201.162 24.1317 201.663 25.0412 202.666C25.9579 203.669 26.4162 205.09 26.4162 206.931V208.198H19.0148C19.1151 208.957 19.4159 209.566 19.9172 210.024C20.4257 210.483 21.0666 210.712 21.84 210.712C23.036 210.712 23.9706 210.279 24.6437 209.412L26.1691 211.12C25.7036 211.779 25.0734 212.295 24.2785 212.667C23.4836 213.032 22.6027 213.215 21.6359 213.215ZM21.2814 203.676C20.6656 203.676 20.1643 203.883 19.7775 204.299C19.398 204.714 19.1545 205.309 19.0471 206.082H23.3654V205.835C23.3511 205.147 23.1649 204.618 22.8068 204.245C22.4488 203.866 21.9403 203.676 21.2814 203.676ZM25.6475 207.103C25.6475 205.319 26.07 203.883 26.9151 202.795C27.7673 201.706 28.9131 201.162 30.3526 201.162C31.6273 201.162 32.6192 201.599 33.3282 202.473L33.4571 201.377H36.2715V212.613C36.2715 213.63 36.0388 214.515 35.5733 215.267C35.1149 216.019 34.4668 216.591 33.6289 216.985C32.7911 217.379 31.8099 217.576 30.6856 217.576C29.8334 217.576 29.0026 217.404 28.1934 217.061C27.3842 216.724 26.7718 216.287 26.3565 215.75L27.7315 213.859C28.5049 214.726 29.4431 215.159 30.5459 215.159C31.3695 215.159 32.0105 214.937 32.4688 214.493C32.9271 214.056 33.1563 213.433 33.1563 212.624V212.001C32.4401 212.81 31.4984 213.215 30.3311 213.215C28.9346 213.215 27.8031 212.671 26.9366 211.582C26.0772 210.486 25.6475 209.036 25.6475 207.231V207.103ZM28.752 207.328C28.752 208.381 28.9633 209.208 29.3858 209.81C29.8083 210.404 30.3884 210.701 31.126 210.701C32.0713 210.701 32.7481 210.347 33.1563 209.638V204.75C32.7409 204.041 32.0713 203.687 31.1475 203.687C30.4027 203.687 29.8155 203.991 29.3858 204.6C28.9633 205.208 28.752 206.118 28.752 207.328ZM37.4257 213V203.654H35.6962V201.377H37.4257V200.389C37.4257 199.085 37.7981 198.076 38.5429 197.359C39.2948 196.636 40.344 196.274 41.6903 196.274C42.12 196.274 42.6464 196.346 43.2694 196.489L43.2372 198.896C42.9794 198.831 42.6643 198.799 42.2919 198.799C41.1246 198.799 40.5409 199.347 40.5409 200.442V201.377H42.8505V203.654H40.5409V213H37.4257ZM41.8884 207.081C41.8884 205.928 42.1104 204.9 42.5544 203.998C42.9984 203.096 43.6358 202.397 44.4665 201.903C45.3044 201.409 46.2748 201.162 47.3777 201.162C48.946 201.162 50.2243 201.642 51.2126 202.602C52.2081 203.561 52.7631 204.865 52.8777 206.512L52.8991 207.307C52.8991 209.09 52.4014 210.522 51.406 211.604C50.4105 212.678 49.0749 213.215 47.3991 213.215C45.7234 213.215 44.3842 212.678 43.3816 211.604C42.3861 210.529 41.8884 209.068 41.8884 207.221V207.081ZM44.9929 207.307C44.9929 208.41 45.2006 209.255 45.6159 209.842C46.0313 210.422 46.6257 210.712 47.3991 210.712C48.1511 210.712 48.7383 210.425 49.1609 209.853C49.5834 209.272 49.7946 208.349 49.7946 207.081C49.7946 206 49.5834 205.162 49.1609 204.567C48.7383 203.973 48.1439 203.676 47.3777 203.676C46.6185 203.676 46.0313 203.973 45.6159 204.567C45.2006 205.155 44.9929 206.068 44.9929 207.307ZM55.5787 201.377L55.6754 202.72C56.5061 201.681 57.6197 201.162 59.0162 201.162C60.2479 201.162 61.1646 201.524 61.7662 202.247C62.3677 202.97 62.6757 204.052 62.69 205.491V213H59.5855V205.566C59.5855 204.908 59.4423 204.431 59.1558 204.138C58.8694 203.837 58.3931 203.687 57.7271 203.687C56.8534 203.687 56.1981 204.059 55.7613 204.804V213H52.6568V201.377H55.5787ZM66.6801 198.52V201.377H68.6674V203.654H66.6801V209.455C66.6801 209.885 66.7624 210.193 66.9271 210.379C67.0919 210.565 67.407 210.658 67.8725 210.658C68.2162 210.658 68.5206 210.633 68.7855 210.583V212.936C68.1768 213.122 67.5502 213.215 66.9057 213.215C64.7286 213.215 63.6186 212.116 63.5756 209.917V203.654H61.8783V201.377H63.5756V198.52H66.6801ZM67.5012 207.081C67.5012 205.928 67.7232 204.9 68.1672 203.998C68.6112 203.096 69.2486 202.397 70.0793 201.903C70.9172 201.409 71.8876 201.162 72.9905 201.162C74.5588 201.162 75.8371 201.642 76.8254 202.602C77.8209 203.561 78.3759 204.865 78.4905 206.512L78.512 207.307C78.512 209.09 78.0142 210.522 77.0188 211.604C76.0233 212.678 74.6877 213.215 73.012 213.215C71.3362 213.215 69.997 212.678 68.9944 211.604C67.9989 210.529 67.5012 209.068 67.5012 207.221V207.081ZM70.6057 207.307C70.6057 208.41 70.8134 209.255 71.2287 209.842C71.6441 210.422 72.2385 210.712 73.012 210.712C73.7639 210.712 74.3511 210.425 74.7737 209.853C75.1962 209.272 75.4075 208.349 75.4075 207.081C75.4075 206 75.1962 205.162 74.7737 204.567C74.3511 203.973 73.7567 203.676 72.9905 203.676C72.2314 203.676 71.6441 203.973 71.2287 204.567C70.8134 205.155 70.6057 206.068 70.6057 207.307ZM84.629 209.788C84.629 209.409 84.4392 209.111 84.0596 208.896C83.6873 208.674 83.0857 208.478 82.255 208.306C79.4906 207.726 78.1085 206.551 78.1085 204.782C78.1085 203.751 78.5346 202.892 79.3868 202.204C80.2462 201.509 81.3669 201.162 82.7491 201.162C84.2244 201.162 85.4024 201.509 86.2833 202.204C87.1713 202.899 87.6153 203.801 87.6153 204.911H84.5108C84.5108 204.467 84.3676 204.102 84.0811 203.815C83.7947 203.522 83.3471 203.375 82.7384 203.375C82.2156 203.375 81.8109 203.493 81.5245 203.729C81.238 203.966 81.0948 204.267 81.0948 204.632C81.0948 204.976 81.2559 205.255 81.5782 205.47C81.9076 205.677 82.4591 205.86 83.2325 206.018C84.0059 206.168 84.6576 206.34 85.1876 206.533C86.8276 207.135 87.6475 208.177 87.6475 209.659C87.6475 210.719 87.1928 211.578 86.2833 212.237C85.3738 212.889 84.1993 213.215 82.7598 213.215C81.7859 213.215 80.9193 213.043 80.1602 212.699C79.4083 212.348 78.8175 211.872 78.3878 211.271C77.9581 210.662 77.7432 210.007 77.7432 209.305H80.6866C80.7152 209.856 80.9193 210.279 81.2989 210.572C81.6785 210.866 82.1869 211.013 82.8243 211.013C83.4187 211.013 83.8663 210.902 84.1671 210.68C84.475 210.451 84.629 210.153 84.629 209.788ZM94.3017 213C94.1585 212.721 94.0546 212.373 93.9902 211.958C93.2382 212.796 92.2607 213.215 91.0575 213.215C89.9189 213.215 88.9736 212.885 88.2216 212.227C87.4768 211.568 87.1044 210.737 87.1044 209.734C87.1044 208.503 87.5592 207.557 88.4687 206.898C89.3853 206.24 90.7066 205.907 92.4325 205.899H93.8613V205.233C93.8613 204.696 93.7216 204.267 93.4423 203.944C93.1702 203.622 92.7369 203.461 92.1425 203.461C91.6197 203.461 91.2079 203.586 90.9072 203.837C90.6135 204.088 90.4667 204.431 90.4667 204.868H87.3622C87.3622 204.195 87.5699 203.572 87.9853 202.999C88.4006 202.426 88.9879 201.979 89.747 201.656C90.5061 201.327 91.3583 201.162 92.3036 201.162C93.7359 201.162 94.871 201.524 95.7089 202.247C96.554 202.963 96.9765 203.973 96.9765 205.276V210.314C96.9836 211.417 97.1376 212.252 97.4384 212.817V213H94.3017ZM91.7343 210.841C92.1926 210.841 92.6152 210.741 93.0019 210.54C93.3886 210.332 93.6751 210.057 93.8613 209.713V207.715H92.7011C91.1471 207.715 90.3199 208.252 90.2197 209.326L90.2089 209.509C90.2089 209.896 90.345 210.214 90.6171 210.465C90.8892 210.715 91.2616 210.841 91.7343 210.841ZM107.745 207.296C107.745 209.158 107.347 210.612 106.552 211.657C105.758 212.696 104.648 213.215 103.222 213.215C101.962 213.215 100.956 212.731 100.204 211.765L100.064 213H97.2712V196.5H100.376V202.419C101.092 201.581 102.034 201.162 103.201 201.162C104.619 201.162 105.729 201.685 106.531 202.73C107.34 203.769 107.745 205.233 107.745 207.124V207.296ZM104.64 207.07C104.64 205.896 104.454 205.04 104.082 204.503C103.709 203.959 103.154 203.687 102.417 203.687C101.428 203.687 100.748 204.091 100.376 204.9V209.487C100.755 210.304 101.443 210.712 102.438 210.712C103.441 210.712 104.1 210.218 104.415 209.229C104.565 208.757 104.64 208.037 104.64 207.07ZM118.051 207.296C118.051 209.158 117.654 210.612 116.859 211.657C116.064 212.696 114.954 213.215 113.529 213.215C112.268 213.215 111.262 212.731 110.51 211.765L110.371 213H107.578V196.5H110.682V202.419C111.398 201.581 112.34 201.162 113.507 201.162C114.925 201.162 116.035 201.685 116.838 202.73C117.647 203.769 118.051 205.233 118.051 207.124V207.296ZM114.947 207.07C114.947 205.896 114.761 205.04 114.388 204.503C114.016 203.959 113.461 203.687 112.723 203.687C111.735 203.687 111.055 204.091 110.682 204.9V209.487C111.062 210.304 111.749 210.712 112.745 210.712C113.747 210.712 114.406 210.218 114.721 209.229C114.872 208.757 114.947 208.037 114.947 207.07ZM124.99 198.52V201.377H126.977V203.654H124.99V209.455C124.99 209.885 125.072 210.193 125.237 210.379C125.401 210.565 125.716 210.658 126.182 210.658C126.526 210.658 126.83 210.633 127.095 210.583V212.936C126.486 213.122 125.86 213.215 125.215 213.215C123.038 213.215 121.928 212.116 121.885 209.917V203.654H120.188V201.377H121.885V198.52H124.99ZM131.966 213.215C130.262 213.215 128.872 212.692 127.798 211.646C126.731 210.601 126.197 209.208 126.197 207.468V207.167C126.197 206 126.423 204.958 126.874 204.041C127.325 203.117 127.963 202.408 128.786 201.914C129.617 201.413 130.562 201.162 131.622 201.162C133.212 201.162 134.462 201.663 135.371 202.666C136.288 203.669 136.746 205.09 136.746 206.931V208.198H129.345C129.445 208.957 129.746 209.566 130.247 210.024C130.756 210.483 131.397 210.712 132.17 210.712C133.366 210.712 134.301 210.279 134.974 209.412L136.499 211.12C136.034 211.779 135.403 212.295 134.609 212.667C133.814 213.032 132.933 213.215 131.966 213.215ZM131.611 203.676C130.996 203.676 130.494 203.883 130.108 204.299C129.728 204.714 129.484 205.309 129.377 206.082H133.695V205.835C133.681 205.147 133.495 204.618 133.137 204.245C132.779 203.866 132.27 203.676 131.611 203.676ZM131.891 196.5H135.275L132.299 199.83H129.775L131.891 196.5ZM139.34 201.377L139.436 202.677C140.26 201.667 141.374 201.162 142.777 201.162C144.274 201.162 145.302 201.753 145.86 202.935C146.677 201.753 147.84 201.162 149.352 201.162C150.612 201.162 151.55 201.531 152.166 202.269C152.782 202.999 153.09 204.102 153.09 205.577V213H149.975V205.588C149.975 204.929 149.846 204.449 149.588 204.148C149.33 203.84 148.875 203.687 148.224 203.687C147.293 203.687 146.648 204.131 146.29 205.019L146.301 213H143.196V205.599C143.196 204.925 143.064 204.438 142.799 204.138C142.534 203.837 142.083 203.687 141.445 203.687C140.564 203.687 139.927 204.052 139.533 204.782V213H136.429V201.377H139.34ZM160.131 213C159.987 212.721 159.884 212.373 159.819 211.958C159.067 212.796 158.09 213.215 156.887 213.215C155.748 213.215 154.803 212.885 154.051 212.227C153.306 211.568 152.933 210.737 152.933 209.734C152.933 208.503 153.388 207.557 154.298 206.898C155.214 206.24 156.536 205.907 158.262 205.899H159.69V205.233C159.69 204.696 159.551 204.267 159.271 203.944C158.999 203.622 158.566 203.461 157.971 203.461C157.449 203.461 157.037 203.586 156.736 203.837C156.443 204.088 156.296 204.431 156.296 204.868H153.191C153.191 204.195 153.399 203.572 153.814 202.999C154.23 202.426 154.817 201.979 155.576 201.656C156.335 201.327 157.187 201.162 158.133 201.162C159.565 201.162 160.7 201.524 161.538 202.247C162.383 202.963 162.805 203.973 162.805 205.276V210.314C162.813 211.417 162.967 212.252 163.267 212.817V213H160.131ZM157.563 210.841C158.022 210.841 158.444 210.741 158.831 210.54C159.218 210.332 159.504 210.057 159.69 209.713V207.715H158.53C156.976 207.715 156.149 208.252 156.049 209.326L156.038 209.509C156.038 209.896 156.174 210.214 156.446 210.465C156.718 210.715 157.091 210.841 157.563 210.841ZM158.745 196.5H162.129L159.153 199.83H156.629L158.745 196.5ZM167.322 208.338L166.205 209.455V213H163.1V196.5H166.205V205.642L166.806 204.868L169.782 201.377H173.509L169.309 206.222L173.875 213H170.308L167.322 208.338Z" fill="#ECE7DD"/>
</svg>
