<svg width="187" height="479" viewBox="0 0 187 479" fill="none" xmlns="http://www.w3.org/2000/svg">
<rect x="0.457031" y="0.160156" width="186.094" height="477.922" fill="#B0B1A9" fill-opacity="0.7"/>
<path d="M74.4551 171.225L36.8633 158.78V240.561L74.4551 258.339M74.4551 171.225L116.004 158.78M74.4551 171.225V258.339M116.004 158.78L149.639 171.225V253.006L116.004 240.561M116.004 158.78V240.561M116.004 240.561L74.4551 258.339" stroke="#1B1D19" stroke-width="7"/>
<path d="M58.7007 291.747H54.563V303H51.7798V291.747H47.6978V289.492H58.7007V291.747ZM68.4233 297.146H63.0796V300.764H69.3511V303H60.2964V289.492H69.3325V291.747H63.0796V294.966H68.4233V297.146ZM65.5195 285.846H68.4419L65.8721 288.722H63.6919L65.5195 285.846ZM75.9844 298.055H73.7671V303H70.9839V289.492H76.0029C77.5986 289.492 78.8294 289.848 79.6953 290.559C80.5612 291.27 80.9941 292.275 80.9941 293.574C80.9941 294.496 80.7931 295.266 80.3911 295.884C79.9953 296.497 79.3923 296.985 78.582 297.35L81.5044 302.87V303H78.5171L75.9844 298.055ZM73.7671 295.801H76.0122C76.7111 295.801 77.2523 295.625 77.6357 295.272C78.0192 294.913 78.2109 294.422 78.2109 293.797C78.2109 293.16 78.0285 292.659 77.6636 292.294C77.3049 291.929 76.7513 291.747 76.0029 291.747H73.7671V295.801ZM87.3491 297.582L85.9019 299.141V303H83.1187V289.492H85.9019V295.615L87.1265 293.936L90.5684 289.492H93.9917L89.1953 295.495L94.1309 303H90.8188L87.3491 297.582ZM103.306 297.146H97.9624V300.764H104.234V303H95.1792V289.492H104.215V291.747H97.9624V294.966H103.306V297.146ZM100.402 285.846H103.325L100.755 288.722H98.5747L100.402 285.846ZM108.65 298.241V303H105.867V289.492H111.136C112.151 289.492 113.041 289.678 113.808 290.049C114.581 290.42 115.175 290.949 115.589 291.635C116.004 292.316 116.211 293.092 116.211 293.964C116.211 295.287 115.756 296.333 114.847 297.1C113.944 297.86 112.692 298.241 111.09 298.241H108.65ZM108.65 295.986H111.136C111.872 295.986 112.432 295.813 112.815 295.467C113.205 295.12 113.4 294.626 113.4 293.982C113.4 293.321 113.205 292.786 112.815 292.377C112.426 291.969 111.888 291.759 111.201 291.747H108.65V295.986ZM126.258 297.146H120.915V300.764H127.186V303H118.131V289.492H127.167V291.747H120.915V294.966H126.258V297.146ZM133.049 297.582L131.602 299.141V303H128.819V289.492H131.602V295.615L132.827 293.936L136.269 289.492H139.692L134.896 295.495L139.831 303H136.519L133.049 297.582Z" fill="#1B1D19"/>
</svg>
