<svg width="187" height="479" viewBox="0 0 187 479" fill="none" xmlns="http://www.w3.org/2000/svg">
<rect x="0.457031" y="0.160156" width="186.094" height="477.922" fill="#593C0F"/>
<path d="M64.1587 423.226H60.2739V434H58.6885V423.226H54.812V421.914H64.1587V423.226ZM75.0161 428.347C75.0161 429.531 74.8169 430.566 74.4185 431.452C74.02 432.332 73.4556 433.004 72.7251 433.469C71.9946 433.934 71.1424 434.166 70.1685 434.166C69.2166 434.166 68.3727 433.934 67.6367 433.469C66.9007 432.998 66.328 432.332 65.9185 431.468C65.5145 430.599 65.307 429.595 65.2959 428.455V427.583C65.2959 426.421 65.4979 425.395 65.9019 424.504C66.3058 423.613 66.8758 422.932 67.6118 422.462C68.3534 421.986 69.2 421.748 70.1519 421.748C71.1203 421.748 71.9725 421.983 72.7085 422.454C73.45 422.918 74.02 423.596 74.4185 424.487C74.8169 425.373 75.0161 426.405 75.0161 427.583V428.347ZM73.4307 427.567C73.4307 426.134 73.1429 425.035 72.5674 424.271C71.9919 423.502 71.1867 423.118 70.1519 423.118C69.1447 423.118 68.3506 423.502 67.7695 424.271C67.194 425.035 66.8979 426.098 66.8813 427.459V428.347C66.8813 429.736 67.1719 430.829 67.7529 431.626C68.3395 432.417 69.1447 432.813 70.1685 432.813C71.1978 432.813 71.9946 432.439 72.5591 431.692C73.1235 430.94 73.4141 429.863 73.4307 428.463V427.567ZM81.2251 431.883L84.6782 421.914H86.4214L81.939 434H80.5278L76.0537 421.914H77.7886L81.2251 431.883ZM94.0913 430.846H89.0278L87.8906 434H86.2471L90.8623 421.914H92.2568L96.8804 434H95.2451L94.0913 430.846ZM89.5093 429.534H93.6182L91.5596 423.881L89.5093 429.534ZM92.3481 418.677H94.2075L91.9829 421.117H90.7461L92.3481 418.677ZM98.5073 434V421.914H102.458C103.77 421.914 104.755 422.185 105.414 422.728C106.078 423.27 106.41 424.072 106.41 425.135C106.41 425.699 106.249 426.2 105.928 426.637C105.607 427.069 105.17 427.404 104.617 427.642C105.27 427.824 105.784 428.173 106.161 428.688C106.542 429.197 106.733 429.805 106.733 430.514C106.733 431.598 106.382 432.451 105.679 433.07C104.976 433.69 103.983 434 102.699 434H98.5073ZM100.101 428.347V432.697H102.732C103.474 432.697 104.058 432.506 104.484 432.124C104.916 431.737 105.131 431.205 105.131 430.53C105.131 429.075 104.34 428.347 102.757 428.347H100.101ZM100.101 427.069H102.508C103.206 427.069 103.762 426.895 104.177 426.546C104.597 426.197 104.808 425.724 104.808 425.126C104.808 424.462 104.614 423.981 104.227 423.682C103.839 423.378 103.25 423.226 102.458 423.226H100.101V427.069ZM109.099 434V421.914H113.05C114.362 421.914 115.347 422.185 116.005 422.728C116.669 423.27 117.001 424.072 117.001 425.135C117.001 425.699 116.841 426.2 116.52 426.637C116.199 427.069 115.762 427.404 115.208 427.642C115.861 427.824 116.376 428.173 116.752 428.688C117.134 429.197 117.325 429.805 117.325 430.514C117.325 431.598 116.974 432.451 116.271 433.07C115.568 433.69 114.575 434 113.291 434H109.099ZM110.693 428.347V432.697H113.324C114.066 432.697 114.65 432.506 115.076 432.124C115.507 431.737 115.723 431.205 115.723 430.53C115.723 429.075 114.932 428.347 113.349 428.347H110.693ZM110.693 427.069H113.1C113.797 427.069 114.354 426.895 114.769 426.546C115.189 426.197 115.399 425.724 115.399 425.126C115.399 424.462 115.206 423.981 114.818 423.682C114.431 423.378 113.842 423.226 113.05 423.226H110.693V427.069ZM130.582 430.846H125.518L124.381 434H122.737L127.353 421.914H128.747L133.371 434H131.735L130.582 430.846ZM126 429.534H130.108L128.05 423.881L126 429.534ZM52.7451 444.164H49.1177V454H46.2041V444.164H42.6431V441.914H52.7451V444.164ZM61.4775 448.878H56.8955V451.759H62.3076V454H53.9819V441.914H62.3242V444.164H56.8955V446.712H61.4775V448.878ZM58.7632 438.677H61.7183L59.4106 441.283H57.1279L58.7632 438.677ZM67.9854 449.733H66.4082V454H63.4946V441.914H68.251C69.6842 441.914 70.8049 442.232 71.6128 442.869C72.4207 443.505 72.8247 444.404 72.8247 445.566C72.8247 446.408 72.6532 447.105 72.3101 447.658C71.9725 448.212 71.4412 448.66 70.7163 449.003L73.2397 453.875V454H70.1187L67.9854 449.733ZM66.4082 447.484H68.251C68.8044 447.484 69.2194 447.34 69.4961 447.052C69.7783 446.759 69.9194 446.352 69.9194 445.832C69.9194 445.312 69.7783 444.905 69.4961 444.612C69.2139 444.313 68.7988 444.164 68.251 444.164H66.4082V447.484ZM78.6934 449.501L77.498 450.812V454H74.5845V441.914H77.498V447.243L78.5107 445.708L81.1172 441.914H84.7197L80.6357 447.26L84.7197 454H81.2666L78.6934 449.501ZM92.9541 448.878H88.3721V451.759H93.7842V454H85.4585V441.914H93.8008V444.164H88.3721V446.712H92.9541V448.878ZM90.2397 438.677H93.1948L90.8872 441.283H88.6045L90.2397 438.677ZM97.8848 449.899V454H94.9712V441.914H99.7939C100.718 441.914 101.534 442.086 102.243 442.429C102.957 442.766 103.507 443.25 103.895 443.881C104.287 444.507 104.484 445.218 104.484 446.015C104.484 447.193 104.061 448.137 103.214 448.845C102.373 449.548 101.216 449.899 99.7441 449.899H97.8848ZM97.8848 447.65H99.7939C100.358 447.65 100.787 447.509 101.081 447.227C101.379 446.944 101.529 446.546 101.529 446.031C101.529 445.467 101.377 445.016 101.072 444.678C100.768 444.341 100.353 444.169 99.8271 444.164H97.8848V447.65ZM113.54 448.878H108.958V451.759H114.37V454H106.044V441.914H114.387V444.164H108.958V446.712H113.54V448.878ZM119.666 449.501L118.471 450.812V454H115.557V441.914H118.471V447.243L119.483 445.708L122.09 441.914H125.692L121.608 447.26L125.692 454H122.239L119.666 449.501ZM131.354 449.111H128.515V454H126.913V441.914H130.914C132.275 441.914 133.321 442.224 134.051 442.844C134.787 443.464 135.155 444.366 135.155 445.55C135.155 446.302 134.951 446.958 134.541 447.517C134.137 448.076 133.573 448.494 132.848 448.771L135.687 453.9V454H133.977L131.354 449.111ZM128.515 447.808H130.963C131.755 447.808 132.383 447.603 132.848 447.193C133.318 446.784 133.553 446.236 133.553 445.55C133.553 444.803 133.329 444.23 132.881 443.832C132.438 443.433 131.796 443.231 130.955 443.226H128.515V447.808ZM144.228 448.414H138.99V452.697H145.075V454H137.396V441.914H144.992V443.226H138.99V447.11H144.228V448.414Z" fill="#ECE7DD"/>
<path d="M23.9877 195H20.7651V179.359H23.9877V195ZM27.5481 183.377L27.6448 184.72C28.4755 183.681 29.5891 183.162 30.9856 183.162C32.2174 183.162 33.1341 183.524 33.7356 184.247C34.3372 184.97 34.6451 186.052 34.6595 187.491V195H31.555V187.566C31.555 186.908 31.4117 186.431 31.1253 186.138C30.8388 185.837 30.3626 185.687 29.6966 185.687C28.8229 185.687 28.1676 186.059 27.7307 186.804V195H24.6262V183.377H27.5481ZM38.6495 180.52V183.377H40.6368V185.654H38.6495V191.455C38.6495 191.885 38.7319 192.193 38.8966 192.379C39.0613 192.565 39.3764 192.658 39.8419 192.658C40.1857 192.658 40.49 192.633 40.755 192.583V194.936C40.1463 195.122 39.5196 195.215 38.8751 195.215C36.698 195.215 35.588 194.116 35.545 191.917V185.654H33.8478V183.377H35.545V180.52H38.6495ZM45.6259 195.215C43.9215 195.215 42.5322 194.692 41.458 193.646C40.3909 192.601 39.8574 191.208 39.8574 189.468V189.167C39.8574 188 40.083 186.958 40.5341 186.041C40.9853 185.117 41.6227 184.408 42.4462 183.914C43.277 183.413 44.2223 183.162 45.2822 183.162C46.872 183.162 48.1217 183.663 49.0312 184.666C49.9479 185.669 50.4062 187.09 50.4062 188.931V190.198H43.0048C43.1051 190.957 43.4059 191.566 43.9072 192.024C44.4156 192.483 45.0566 192.712 45.83 192.712C47.026 192.712 47.9606 192.279 48.6337 191.412L50.1591 193.12C49.6936 193.779 49.0634 194.295 48.2685 194.667C47.4736 195.032 46.5927 195.215 45.6259 195.215ZM45.2714 185.676C44.6556 185.676 44.1543 185.883 43.7675 186.299C43.388 186.714 43.1445 187.309 43.0371 188.082H47.3554V187.835C47.3411 187.147 47.1549 186.618 46.7968 186.245C46.4388 185.866 45.9303 185.676 45.2714 185.676ZM56.6199 186.288C56.1974 186.231 55.825 186.202 55.5027 186.202C54.3283 186.202 53.5584 186.6 53.1932 187.395V195H50.0887V183.377H53.0213L53.1072 184.763C53.7303 183.696 54.5932 183.162 55.6961 183.162C56.0398 183.162 56.3621 183.209 56.6629 183.302L56.6199 186.288ZM62.4469 195C62.3037 194.721 62.1998 194.373 62.1354 193.958C61.3834 194.796 60.4059 195.215 59.2028 195.215C58.0641 195.215 57.1188 194.885 56.3668 194.227C55.622 193.568 55.2496 192.737 55.2496 191.734C55.2496 190.503 55.7044 189.557 56.6139 188.898C57.5306 188.24 58.8519 187.907 60.5778 187.899H62.0065V187.233C62.0065 186.696 61.8668 186.267 61.5875 185.944C61.3154 185.622 60.8821 185.461 60.2877 185.461C59.7649 185.461 59.3532 185.586 59.0524 185.837C58.7588 186.088 58.6119 186.431 58.6119 186.868H55.5075C55.5075 186.195 55.7151 185.572 56.1305 184.999C56.5459 184.426 57.1331 183.979 57.8922 183.656C58.6513 183.327 59.5036 183.162 60.4489 183.162C61.8812 183.162 63.0162 183.524 63.8541 184.247C64.6992 184.963 65.1217 185.973 65.1217 187.276V192.314C65.1289 193.417 65.2828 194.252 65.5836 194.817V195H62.4469ZM59.8795 192.841C60.3379 192.841 60.7604 192.741 61.1471 192.54C61.5338 192.332 61.8203 192.057 62.0065 191.713V189.715H60.8463C59.2923 189.715 58.4651 190.252 58.3649 191.326L58.3541 191.509C58.3541 191.896 58.4902 192.214 58.7623 192.465C59.0345 192.715 59.4069 192.841 59.8795 192.841ZM69.6382 190.338L68.521 191.455V195H65.4165V178.5H68.521V187.642L69.1225 186.868L72.0981 183.377H75.8257L71.6255 188.222L76.1909 195H72.6245L69.6382 190.338ZM78.7952 180.52V183.377H80.7825V185.654H78.7952V191.455C78.7952 191.885 78.8776 192.193 79.0423 192.379C79.207 192.565 79.5221 192.658 79.9876 192.658C80.3314 192.658 80.6357 192.633 80.9007 192.583V194.936C80.292 195.122 79.6653 195.215 79.0208 195.215C76.8437 195.215 75.7337 194.116 75.6907 191.917V185.654H73.9935V183.377H75.6907V180.52H78.7952ZM83.7736 195H80.6691V183.377H83.7736V195ZM82.8605 178.661H86.2443L83.2687 181.991H80.7443L82.8605 178.661ZM88.7197 191.208L90.8789 183.377H94.123L90.2021 195H87.2373L83.3164 183.377H86.5605L88.7197 191.208ZM100.513 180.52V183.377H102.501V185.654H100.513V191.455C100.513 191.885 100.596 192.193 100.76 192.379C100.925 192.565 101.24 192.658 101.706 192.658C102.049 192.658 102.354 192.633 102.619 192.583V194.936C102.01 195.122 101.383 195.215 100.739 195.215C98.5619 195.215 97.4518 194.116 97.4089 191.917V185.654H95.7116V183.377H97.4089V180.52H100.513ZM107.49 195.215C105.785 195.215 104.396 194.692 103.322 193.646C102.255 192.601 101.721 191.208 101.721 189.468V189.167C101.721 188 101.947 186.958 102.398 186.041C102.849 185.117 103.487 184.408 104.31 183.914C105.141 183.413 106.086 183.162 107.146 183.162C108.736 183.162 109.986 183.663 110.895 184.666C111.812 185.669 112.27 187.09 112.27 188.931V190.198H104.869C104.969 190.957 105.27 191.566 105.771 192.024C106.279 192.483 106.92 192.712 107.694 192.712C108.89 192.712 109.824 192.279 110.498 191.412L112.023 193.12C111.557 193.779 110.927 194.295 110.132 194.667C109.337 195.032 108.457 195.215 107.49 195.215ZM107.135 185.676C106.519 185.676 106.018 185.883 105.631 186.299C105.252 186.714 105.008 187.309 104.901 188.082H109.219V187.835C109.205 187.147 109.019 186.618 108.661 186.245C108.303 185.866 107.794 185.676 107.135 185.676ZM107.415 178.5H110.798L107.823 181.83H105.298L107.415 178.5ZM118.484 186.288C118.061 186.231 117.689 186.202 117.367 186.202C116.192 186.202 115.422 186.6 115.057 187.395V195H111.952V183.377H114.885L114.971 184.763C115.594 183.696 116.457 183.162 117.56 183.162C117.904 183.162 118.226 183.209 118.527 183.302L118.484 186.288ZM122.119 190.338L121.002 191.455V195H117.898V178.5H121.002V187.642L121.604 186.868L124.579 183.377H128.307L124.107 188.222L128.672 195H125.106L122.119 190.338ZM132.694 195.215C130.99 195.215 129.601 194.692 128.526 193.646C127.459 192.601 126.926 191.208 126.926 189.468V189.167C126.926 188 127.151 186.958 127.603 186.041C128.054 185.117 128.691 184.408 129.515 183.914C130.345 183.413 131.291 183.162 132.351 183.162C133.94 183.162 135.19 183.663 136.1 184.666C137.016 185.669 137.475 187.09 137.475 188.931V190.198H130.073C130.174 190.957 130.474 191.566 130.976 192.024C131.484 192.483 132.125 192.712 132.898 192.712C134.094 192.712 135.029 192.279 135.702 191.412L137.228 193.12C136.762 193.779 136.132 194.295 135.337 194.667C134.542 195.032 133.661 195.215 132.694 195.215ZM132.34 185.676C131.724 185.676 131.223 185.883 130.836 186.299C130.456 186.714 130.213 187.309 130.106 188.082H134.424V187.835C134.41 187.147 134.223 186.618 133.865 186.245C133.507 185.866 132.999 185.676 132.34 185.676ZM132.619 178.5H136.003L133.027 181.83H130.503L132.619 178.5ZM147.62 189.296C147.62 191.086 147.212 192.522 146.395 193.604C145.586 194.678 144.49 195.215 143.108 195.215C141.934 195.215 140.985 194.807 140.262 193.99V199.469H137.157V183.377H140.036L140.143 184.516C140.895 183.613 141.877 183.162 143.087 183.162C144.519 183.162 145.633 183.692 146.428 184.752C147.223 185.812 147.62 187.273 147.62 189.135V189.296ZM144.516 189.07C144.516 187.989 144.322 187.155 143.935 186.567C143.556 185.98 143.001 185.687 142.27 185.687C141.296 185.687 140.627 186.059 140.262 186.804V191.562C140.641 192.329 141.318 192.712 142.292 192.712C143.774 192.712 144.516 191.498 144.516 189.07ZM152.813 195.215C151.109 195.215 149.719 194.692 148.645 193.646C147.578 192.601 147.045 191.208 147.045 189.468V189.167C147.045 188 147.27 186.958 147.721 186.041C148.173 185.117 148.81 184.408 149.634 183.914C150.464 183.413 151.41 183.162 152.469 183.162C154.059 183.162 155.309 183.663 156.218 184.666C157.135 185.669 157.593 187.09 157.593 188.931V190.198H150.192C150.292 190.957 150.593 191.566 151.094 192.024C151.603 192.483 152.244 192.712 153.017 192.712C154.213 192.712 155.148 192.279 155.821 191.412L157.346 193.12C156.881 193.779 156.251 194.295 155.456 194.667C154.661 195.032 153.78 195.215 152.813 195.215ZM152.459 185.676C151.843 185.676 151.342 185.883 150.955 186.299C150.575 186.714 150.332 187.309 150.224 188.082H154.543V187.835C154.528 187.147 154.342 186.618 153.984 186.245C153.626 185.866 153.118 185.676 152.459 185.676ZM161.498 190.338L160.38 191.455V195H157.276V178.5H160.38V187.642L160.982 186.868L163.958 183.377H167.685L163.485 188.222L168.05 195H164.484L161.498 190.338ZM44.8095 221C44.6663 220.721 44.5625 220.373 44.498 219.958C43.7461 220.796 42.7685 221.215 41.5654 221.215C40.4267 221.215 39.4814 220.885 38.7295 220.227C37.9847 219.568 37.6123 218.737 37.6123 217.734C37.6123 216.503 38.067 215.557 38.9765 214.898C39.8932 214.24 41.2145 213.907 42.9404 213.899H44.3691V213.233C44.3691 212.696 44.2295 212.267 43.9502 211.944C43.678 211.622 43.2448 211.461 42.6504 211.461C42.1276 211.461 41.7158 211.586 41.415 211.837C41.1214 212.088 40.9746 212.431 40.9746 212.868H37.8701C37.8701 212.195 38.0778 211.572 38.4931 210.999C38.9085 210.426 39.4957 209.979 40.2548 209.656C41.014 209.327 41.8662 209.162 42.8115 209.162C44.2438 209.162 45.3789 209.524 46.2168 210.247C47.0618 210.963 47.4843 211.973 47.4843 213.276V218.314C47.4915 219.417 47.6455 220.252 47.9463 220.817V221H44.8095ZM42.2421 218.841C42.7005 218.841 43.123 218.741 43.5097 218.54C43.8964 218.332 44.1829 218.057 44.3691 217.713V215.715H43.2089C41.6549 215.715 40.8278 216.252 40.7275 217.326L40.7168 217.509C40.7168 217.896 40.8528 218.214 41.125 218.465C41.3971 218.715 41.7695 218.841 42.2421 218.841ZM56.2702 214.727L54.5944 216.531V221H51.3717V205.359H54.5944V212.449L56.0123 210.505L59.9977 205.359H63.9616L58.4079 212.31L64.1227 221H60.2877L56.2702 214.727ZM69.7778 221C69.6346 220.721 69.5307 220.373 69.4663 219.958C68.7143 220.796 67.7368 221.215 66.5337 221.215C65.395 221.215 64.4497 220.885 63.6977 220.227C62.9529 219.568 62.5805 218.737 62.5805 217.734C62.5805 216.503 63.0353 215.557 63.9448 214.898C64.8615 214.24 66.1828 213.907 67.9087 213.899H69.3374V213.233C69.3374 212.696 69.1977 212.267 68.9184 211.944C68.6463 211.622 68.213 211.461 67.6186 211.461C67.0958 211.461 66.6841 211.586 66.3833 211.837C66.0897 212.088 65.9429 212.431 65.9429 212.868H62.8384C62.8384 212.195 63.046 211.572 63.4614 210.999C63.8768 210.426 64.464 209.979 65.2231 209.656C65.9822 209.327 66.8345 209.162 67.7798 209.162C69.2121 209.162 70.3471 209.524 71.185 210.247C72.0301 210.963 72.4526 211.973 72.4526 213.276V218.314C72.4598 219.417 72.6138 220.252 72.9145 220.817V221H69.7778ZM67.2104 218.841C67.6688 218.841 68.0913 218.741 68.478 218.54C68.8647 218.332 69.1512 218.057 69.3374 217.713V215.715H68.1772C66.6232 215.715 65.796 216.252 65.6958 217.326L65.685 217.509C65.685 217.896 65.8211 218.214 66.0932 218.465C66.3654 218.715 66.7378 218.841 67.2104 218.841ZM68.3921 204.5H71.7759L68.8003 207.83H66.2759L68.3921 204.5ZM79.2786 212.288C78.8561 212.231 78.4837 212.202 78.1614 212.202C76.987 212.202 76.2171 212.6 75.8519 213.395V221H72.7474V209.377H75.68L75.7659 210.763C76.389 209.696 77.2519 209.162 78.3548 209.162C78.6986 209.162 79.0208 209.209 79.3216 209.302L79.2786 212.288ZM89.1554 215.296C89.1554 217.086 88.7472 218.522 87.9308 219.604C87.1216 220.678 86.0259 221.215 84.6437 221.215C83.4692 221.215 82.5203 220.807 81.797 219.99V225.469H78.6925V209.377H81.5714L81.6789 210.516C82.4308 209.613 83.4119 209.162 84.6222 209.162C86.0545 209.162 87.1681 209.692 87.963 210.752C88.758 211.812 89.1554 213.273 89.1554 215.135V215.296ZM86.0509 215.07C86.0509 213.989 85.8576 213.155 85.4709 212.567C85.0913 211.98 84.5363 211.687 83.8058 211.687C82.8319 211.687 82.1623 212.059 81.797 212.804V217.562C82.1766 218.329 82.8533 218.712 83.8273 218.712C85.3097 218.712 86.0509 217.498 86.0509 215.07ZM95.7344 221C95.5911 220.721 95.4873 220.373 95.4229 219.958C94.6709 220.796 93.6934 221.215 92.4902 221.215C91.3516 221.215 90.4062 220.885 89.6543 220.227C88.9095 219.568 88.5371 218.737 88.5371 217.734C88.5371 216.503 88.9919 215.557 89.9014 214.898C90.818 214.24 92.1393 213.907 93.8652 213.899H95.2939V213.233C95.2939 212.696 95.1543 212.267 94.875 211.944C94.6029 211.622 94.1696 211.461 93.5752 211.461C93.0524 211.461 92.6406 211.586 92.3398 211.837C92.0462 212.088 91.8994 212.431 91.8994 212.868H88.7949C88.7949 212.195 89.0026 211.572 89.418 210.999C89.8333 210.426 90.4206 209.979 91.1797 209.656C91.9388 209.327 92.791 209.162 93.7363 209.162C95.1686 209.162 96.3037 209.524 97.1416 210.247C97.9867 210.963 98.4092 211.973 98.4092 213.276V218.314C98.4163 219.417 98.5703 220.252 98.8711 220.817V221H95.7344ZM93.167 218.841C93.6253 218.841 94.0479 218.741 94.4346 218.54C94.8213 218.332 95.1077 218.057 95.2939 217.713V215.715H94.1338C92.5798 215.715 91.7526 216.252 91.6523 217.326L91.6416 217.509C91.6416 217.896 91.7777 218.214 92.0498 218.465C92.3219 218.715 92.6943 218.841 93.167 218.841ZM94.3486 204.5H97.7324L94.7568 207.83H92.2324L94.3486 204.5ZM102.421 206.52V209.377H104.408V211.654H102.421V217.455C102.421 217.885 102.503 218.193 102.668 218.379C102.833 218.565 103.148 218.658 103.613 218.658C103.957 218.658 104.261 218.633 104.526 218.583V220.936C103.917 221.122 103.291 221.215 102.646 221.215C100.469 221.215 99.3592 220.116 99.3163 217.917V211.654H97.619V209.377H99.3163V206.52H102.421ZM110.085 215.554H104.037V213.051H110.085V215.554ZM113.516 210.645C114.34 209.656 115.375 209.162 116.621 209.162C119.141 209.162 120.42 210.627 120.456 213.556V221H117.351V213.642C117.351 212.976 117.208 212.485 116.921 212.17C116.635 211.848 116.159 211.687 115.493 211.687C114.583 211.687 113.924 212.037 113.516 212.739V221H110.412V204.5H113.516V210.645ZM127.443 221C127.3 220.721 127.196 220.373 127.131 219.958C126.379 220.796 125.402 221.215 124.199 221.215C123.06 221.215 122.115 220.885 121.363 220.227C120.618 219.568 120.245 218.737 120.245 217.734C120.245 216.503 120.7 215.557 121.61 214.898C122.526 214.24 123.848 213.907 125.574 213.899H127.002V213.233C127.002 212.696 126.863 212.267 126.583 211.944C126.311 211.622 125.878 211.461 125.284 211.461C124.761 211.461 124.349 211.586 124.048 211.837C123.755 212.088 123.608 212.431 123.608 212.868H120.503C120.503 212.195 120.711 211.572 121.126 210.999C121.542 210.426 122.129 209.979 122.888 209.656C123.647 209.327 124.499 209.162 125.445 209.162C126.877 209.162 128.012 209.524 128.85 210.247C129.695 210.963 130.118 211.973 130.118 213.276V218.314C130.125 219.417 130.279 220.252 130.579 220.817V221H127.443ZM124.875 218.841C125.334 218.841 125.756 218.741 126.143 218.54C126.53 218.332 126.816 218.057 127.002 217.713V215.715H125.842C124.288 215.715 123.461 216.252 123.361 217.326L123.35 217.509C123.35 217.896 123.486 218.214 123.758 218.465C124.03 218.715 124.403 218.841 124.875 218.841ZM133.979 218.497H139.661V221H130.015V219.109L135.483 211.891H130.176V209.377H139.489V211.214L133.979 218.497ZM146.251 221C146.108 220.721 146.004 220.373 145.939 219.958C145.188 220.796 144.21 221.215 143.007 221.215C141.868 221.215 140.923 220.885 140.171 220.227C139.426 219.568 139.054 218.737 139.054 217.734C139.054 216.503 139.508 215.557 140.418 214.898C141.335 214.24 142.656 213.907 144.382 213.899H145.811V213.233C145.811 212.696 145.671 212.267 145.392 211.944C145.119 211.622 144.686 211.461 144.092 211.461C143.569 211.461 143.157 211.586 142.856 211.837C142.563 212.088 142.416 212.431 142.416 212.868H139.312C139.312 212.195 139.519 211.572 139.935 210.999C140.35 210.426 140.937 209.979 141.696 209.656C142.455 209.327 143.308 209.162 144.253 209.162C145.685 209.162 146.82 209.524 147.658 210.247C148.503 210.963 148.926 211.973 148.926 213.276V218.314C148.933 219.417 149.087 220.252 149.388 220.817V221H146.251ZM143.684 218.841C144.142 218.841 144.564 218.741 144.951 218.54C145.338 218.332 145.624 218.057 145.811 217.713V215.715H144.65C143.096 215.715 142.269 216.252 142.169 217.326L142.158 217.509C142.158 217.896 142.294 218.214 142.566 218.465C142.839 218.715 143.211 218.841 143.684 218.841ZM55.0223 243.788C55.0223 243.409 54.8326 243.111 54.453 242.896C54.0806 242.674 53.479 242.478 52.6483 242.306C49.884 241.726 48.5018 240.551 48.5018 238.782C48.5018 237.751 48.9279 236.892 49.7802 236.204C50.6395 235.509 51.7603 235.162 53.1425 235.162C54.6177 235.162 55.7958 235.509 56.6766 236.204C57.5647 236.899 58.0087 237.801 58.0087 238.911H54.9042C54.9042 238.467 54.7609 238.102 54.4745 237.815C54.188 237.522 53.7404 237.375 53.1317 237.375C52.6089 237.375 52.2043 237.493 51.9179 237.729C51.6314 237.966 51.4882 238.267 51.4882 238.632C51.4882 238.976 51.6493 239.255 51.9716 239.47C52.301 239.677 52.8524 239.86 53.6259 240.018C54.3993 240.168 55.051 240.34 55.5809 240.533C57.2209 241.135 58.0409 242.177 58.0409 243.659C58.0409 244.719 57.5861 245.578 56.6766 246.237C55.7671 246.889 54.5927 247.215 53.1532 247.215C52.1792 247.215 51.3127 247.043 50.5536 246.699C49.8016 246.348 49.2108 245.872 48.7811 245.271C48.3514 244.662 48.1366 244.007 48.1366 243.305H51.08C51.1086 243.856 51.3127 244.279 51.6923 244.572C52.0718 244.866 52.5803 245.013 53.2177 245.013C53.8121 245.013 54.2596 244.902 54.5604 244.68C54.8684 244.451 55.0223 244.153 55.0223 243.788ZM61.6765 232.52V235.377H63.6638V237.654H61.6765V243.455C61.6765 243.885 61.7588 244.193 61.9236 244.379C62.0883 244.565 62.4034 244.658 62.8689 244.658C63.2126 244.658 63.517 244.633 63.782 244.583V246.936C63.1732 247.122 62.5466 247.215 61.9021 247.215C59.725 247.215 58.615 246.116 58.572 243.917V237.654H56.8747V235.377H58.572V232.52H61.6765ZM70.0386 247C69.8954 246.721 69.7916 246.373 69.7271 245.958C68.9752 246.796 67.9976 247.215 66.7945 247.215C65.6558 247.215 64.7105 246.885 63.9586 246.227C63.2138 245.568 62.8414 244.737 62.8414 243.734C62.8414 242.503 63.2961 241.557 64.2056 240.898C65.1223 240.24 66.4436 239.907 68.1695 239.899H69.5982V239.233C69.5982 238.696 69.4586 238.267 69.1793 237.944C68.9071 237.622 68.4739 237.461 67.8795 237.461C67.3567 237.461 66.9449 237.586 66.6441 237.837C66.3505 238.088 66.2037 238.431 66.2037 238.868H63.0992C63.0992 238.195 63.3069 237.572 63.7222 236.999C64.1376 236.426 64.7248 235.979 65.4839 235.656C66.2431 235.327 67.0953 235.162 68.0406 235.162C69.4729 235.162 70.608 235.524 71.4459 236.247C72.2909 236.963 72.7134 237.973 72.7134 239.276V244.314C72.7206 245.417 72.8746 246.252 73.1754 246.817V247H70.0386ZM67.4712 244.841C67.9296 244.841 68.3521 244.741 68.7388 244.54C69.1255 244.332 69.412 244.057 69.5982 243.713V241.715H68.438C66.884 241.715 66.0569 242.252 65.9566 243.326L65.9459 243.509C65.9459 243.896 66.0819 244.214 66.3541 244.465C66.6262 244.715 66.9986 244.841 67.4712 244.841ZM76.725 232.52V235.377H78.7123V237.654H76.725V243.455C76.725 243.885 76.8074 244.193 76.9721 244.379C77.1368 244.565 77.4519 244.658 77.9174 244.658C78.2611 244.658 78.5655 244.633 78.8305 244.583V246.936C78.2217 247.122 77.5951 247.215 76.9506 247.215C74.7735 247.215 73.6635 246.116 73.6205 243.917V237.654H71.9232V235.377H73.6205V232.52H76.725ZM81.6282 247H78.5129V235.377H81.6282V247ZM78.3303 232.369C78.3303 231.904 78.4843 231.521 78.7922 231.22C79.1073 230.919 79.5334 230.769 80.0705 230.769C80.6005 230.769 81.023 230.919 81.3381 231.22C81.6532 231.521 81.8108 231.904 81.8108 232.369C81.8108 232.842 81.6496 233.229 81.3274 233.529C81.0123 233.83 80.5933 233.98 80.0705 233.98C79.5478 233.98 79.1252 233.83 78.803 233.529C78.4879 233.229 78.3303 232.842 78.3303 232.369ZM88.4005 243.788C88.4005 243.409 88.2107 243.111 87.8311 242.896C87.4587 242.674 86.8572 242.478 86.0264 242.306C83.2621 241.726 81.88 240.551 81.88 238.782C81.88 237.751 82.3061 236.892 83.1583 236.204C84.0177 235.509 85.1384 235.162 86.5206 235.162C87.9958 235.162 89.1739 235.509 90.0548 236.204C90.9428 236.899 91.3868 237.801 91.3868 238.911H88.2823C88.2823 238.467 88.1391 238.102 87.8526 237.815C87.5662 237.522 87.1186 237.375 86.5098 237.375C85.9871 237.375 85.5824 237.493 85.296 237.729C85.0095 237.966 84.8663 238.267 84.8663 238.632C84.8663 238.976 85.0274 239.255 85.3497 239.47C85.6791 239.677 86.2305 239.86 87.004 240.018C87.7774 240.168 88.4291 240.34 88.9591 240.533C90.599 241.135 91.419 242.177 91.419 243.659C91.419 244.719 90.9643 245.578 90.0548 246.237C89.1453 246.889 87.9708 247.215 86.5313 247.215C85.5574 247.215 84.6908 247.043 83.9317 246.699C83.1798 246.348 82.5889 245.872 82.1593 245.271C81.7296 244.662 81.5147 244.007 81.5147 243.305H84.4581C84.4867 243.856 84.6908 244.279 85.0704 244.572C85.4499 244.866 85.9584 245.013 86.5958 245.013C87.1902 245.013 87.6378 244.902 87.9386 244.68C88.2465 244.451 88.4005 244.153 88.4005 243.788ZM94.9042 244.497H100.587V247H90.9404V245.109L96.4081 237.891H91.1015V235.377H100.415V237.214L94.9042 244.497ZM104.158 232.52V235.377H106.145V237.654H104.158V243.455C104.158 243.885 104.24 244.193 104.405 244.379C104.57 244.565 104.885 244.658 105.35 244.658C105.694 244.658 105.998 244.633 106.263 244.583V246.936C105.655 247.122 105.028 247.215 104.384 247.215C102.206 247.215 101.096 246.116 101.053 243.917V237.654H99.3562V235.377H101.053V232.52H104.158ZM109.061 247H105.946V235.377H109.061V247ZM105.763 232.369C105.763 231.904 105.917 231.521 106.225 231.22C106.54 230.919 106.966 230.769 107.504 230.769C108.033 230.769 108.456 230.919 108.771 231.22C109.086 231.521 109.244 231.904 109.244 232.369C109.244 232.842 109.083 233.229 108.76 233.529C108.445 233.83 108.026 233.98 107.504 233.98C106.981 233.98 106.558 233.83 106.236 233.529C105.921 233.229 105.763 232.842 105.763 232.369ZM113.76 242.338L112.643 243.455V247H109.539V230.5H112.643V239.642L113.245 238.868L116.22 235.377H119.948L115.747 240.222L120.313 247H116.747L113.76 242.338ZM125.936 247C125.793 246.721 125.689 246.373 125.624 245.958C124.872 246.796 123.895 247.215 122.692 247.215C121.553 247.215 120.608 246.885 119.856 246.227C119.111 245.568 118.739 244.737 118.739 243.734C118.739 242.503 119.193 241.557 120.103 240.898C121.019 240.24 122.341 239.907 124.067 239.899H125.495V239.233C125.495 238.696 125.356 238.267 125.076 237.944C124.804 237.622 124.371 237.461 123.777 237.461C123.254 237.461 122.842 237.586 122.541 237.837C122.248 238.088 122.101 238.431 122.101 238.868H118.996C118.996 238.195 119.204 237.572 119.619 236.999C120.035 236.426 120.622 235.979 121.381 235.656C122.14 235.327 122.992 235.162 123.938 235.162C125.37 235.162 126.505 235.524 127.343 236.247C128.188 236.963 128.611 237.973 128.611 239.276V244.314C128.618 245.417 128.772 246.252 129.073 246.817V247H125.936ZM123.368 244.841C123.827 244.841 124.249 244.741 124.636 244.54C125.023 244.332 125.309 244.057 125.495 243.713V241.715H124.335C122.781 241.715 121.954 242.252 121.854 243.326L121.843 243.509C121.843 243.896 121.979 244.214 122.251 244.465C122.523 244.715 122.896 244.841 123.368 244.841ZM124.55 230.5H127.934L124.958 233.83H122.434L124.55 230.5ZM133.127 242.338L132.01 243.455V247H128.905V230.5H132.01V239.642L132.611 238.868L135.587 235.377H139.315L135.114 240.222L139.68 247H136.113L133.127 242.338ZM40.2686 273C40.1254 272.721 40.0215 272.373 39.9571 271.958C39.2051 272.796 38.2276 273.215 37.0245 273.215C35.8858 273.215 34.9405 272.885 34.1885 272.227C33.4437 271.568 33.0713 270.737 33.0713 269.734C33.0713 268.503 33.5261 267.557 34.4356 266.898C35.3523 266.24 36.6735 265.907 38.3995 265.899H39.8282V265.233C39.8282 264.696 39.6885 264.267 39.4092 263.944C39.1371 263.622 38.7038 263.461 38.1094 263.461C37.5866 263.461 37.1748 263.586 36.8741 263.837C36.5804 264.088 36.4336 264.431 36.4336 264.868H33.3291C33.3291 264.195 33.5368 263.572 33.9522 262.999C34.3676 262.426 34.9548 261.979 35.7139 261.656C36.473 261.327 37.3252 261.162 38.2705 261.162C39.7028 261.162 40.8379 261.524 41.6758 262.247C42.5209 262.963 42.9434 263.973 42.9434 265.276V270.314C42.9506 271.417 43.1045 272.252 43.4053 272.817V273H40.2686ZM37.7012 270.841C38.1595 270.841 38.5821 270.741 38.9688 270.54C39.3555 270.332 39.642 270.057 39.8282 269.713V267.715H38.668C37.114 267.715 36.2868 268.252 36.1866 269.326L36.1758 269.509C36.1758 269.896 36.3119 270.214 36.584 270.465C36.8562 270.715 37.2286 270.841 37.7012 270.841ZM42.7548 267.103C42.7548 265.291 43.1594 263.848 43.9686 262.773C44.785 261.699 45.8986 261.162 47.3095 261.162C48.441 261.162 49.3755 261.585 50.1132 262.43V256.5H53.2284V273H50.4247L50.2743 271.765C49.5009 272.731 48.5054 273.215 47.288 273.215C45.9201 273.215 44.8208 272.678 43.9901 271.604C43.1665 270.522 42.7548 269.022 42.7548 267.103ZM45.8593 267.328C45.8593 268.417 46.049 269.251 46.4286 269.831C46.8081 270.411 47.3596 270.701 48.0829 270.701C49.0425 270.701 49.7193 270.297 50.1132 269.487V264.9C49.7264 264.091 49.0568 263.687 48.1044 263.687C46.6076 263.687 45.8593 264.9 45.8593 267.328ZM60.28 273C60.1368 272.721 60.0329 272.373 59.9685 271.958C59.2165 272.796 58.239 273.215 57.0359 273.215C55.8972 273.215 54.9519 272.885 54.1999 272.227C53.4551 271.568 53.0827 270.737 53.0827 269.734C53.0827 268.503 53.5375 267.557 54.447 266.898C55.3637 266.24 56.6849 265.907 58.4109 265.899H59.8396V265.233C59.8396 264.696 59.6999 264.267 59.4206 263.944C59.1485 263.622 58.7152 263.461 58.1208 263.461C57.598 263.461 57.1862 263.586 56.8855 263.837C56.5918 264.088 56.445 264.431 56.445 264.868H53.3405C53.3405 264.195 53.5482 263.572 53.9636 262.999C54.379 262.426 54.9662 261.979 55.7253 261.656C56.4844 261.327 57.3366 261.162 58.282 261.162C59.7142 261.162 60.8493 261.524 61.6872 262.247C62.5323 262.963 62.9548 263.973 62.9548 265.276V270.314C62.962 271.417 63.1159 272.252 63.4167 272.817V273H60.28ZM57.7126 270.841C58.1709 270.841 58.5935 270.741 58.9802 270.54C59.3669 270.332 59.6534 270.057 59.8396 269.713V267.715H58.6794C57.1254 267.715 56.2982 268.252 56.198 269.326L56.1872 269.509C56.1872 269.896 56.3233 270.214 56.5954 270.465C56.8676 270.715 57.24 270.841 57.7126 270.841ZM66.9664 258.52V261.377H68.9537V263.654H66.9664V269.455C66.9664 269.885 67.0487 270.193 67.2134 270.379C67.3781 270.565 67.6933 270.658 68.1587 270.658C68.5025 270.658 68.8069 270.633 69.0718 270.583V272.936C68.4631 273.122 67.8365 273.215 67.192 273.215C65.0149 273.215 63.9048 272.116 63.8619 269.917V263.654H62.1646V261.377H63.8619V258.52H66.9664ZM79.0668 267.296C79.0668 269.158 78.6693 270.612 77.8744 271.657C77.0795 272.696 75.9695 273.215 74.5443 273.215C73.2839 273.215 72.2777 272.731 71.5258 271.765L71.3861 273H68.5932V256.5H71.6977V262.419C72.4138 261.581 73.3555 261.162 74.5229 261.162C75.9408 261.162 77.0508 261.685 77.8529 262.73C78.6622 263.769 79.0668 265.233 79.0668 267.124V267.296ZM75.9623 267.07C75.9623 265.896 75.7761 265.04 75.4037 264.503C75.0313 263.959 74.4763 263.687 73.7387 263.687C72.7504 263.687 72.0701 264.091 71.6977 264.9V269.487C72.0772 270.304 72.7647 270.712 73.7602 270.712C74.7628 270.712 75.4216 270.218 75.7367 269.229C75.8871 268.757 75.9623 268.037 75.9623 267.07ZM85.635 273C85.4918 272.721 85.3879 272.373 85.3235 271.958C84.5715 272.796 83.594 273.215 82.3909 273.215C81.2522 273.215 80.3069 272.885 79.5549 272.227C78.8101 271.568 78.4377 270.737 78.4377 269.734C78.4377 268.503 78.8925 267.557 79.802 266.898C80.7187 266.24 82.0399 265.907 83.7659 265.899H85.1946V265.233C85.1946 264.696 85.0549 264.267 84.7756 263.944C84.5035 263.622 84.0702 263.461 83.4758 263.461C82.953 263.461 82.5412 263.586 82.2405 263.837C81.9468 264.088 81.8 264.431 81.8 264.868H78.6955C78.6955 264.195 78.9032 263.572 79.3186 262.999C79.734 262.426 80.3212 261.979 81.0803 261.656C81.8394 261.327 82.6916 261.162 83.6369 261.162C85.0692 261.162 86.2043 261.524 87.0422 262.247C87.8873 262.963 88.3098 263.973 88.3098 265.276V270.314C88.317 271.417 88.4709 272.252 88.7717 272.817V273H85.635ZM83.0676 270.841C83.5259 270.841 83.9485 270.741 84.3352 270.54C84.7219 270.332 85.0084 270.057 85.1946 269.713V267.715H84.0344C82.4804 267.715 81.6532 268.252 81.553 269.326L81.5422 269.509C81.5422 269.896 81.6783 270.214 81.9504 270.465C82.2226 270.715 82.595 270.841 83.0676 270.841ZM84.2493 256.5H87.633L84.6575 259.83H82.133L84.2493 256.5ZM92.171 270.497H97.8536V273H88.2071V271.109L93.6749 263.891H88.3682V261.377H97.6817V263.214L92.171 270.497ZM100.984 273H97.8691V261.377H100.984V273ZM97.6864 258.369C97.6864 257.904 97.8404 257.521 98.1484 257.22C98.4635 256.919 98.8896 256.769 99.4267 256.769C99.9566 256.769 100.379 256.919 100.694 257.22C101.009 257.521 101.167 257.904 101.167 258.369C101.167 258.842 101.006 259.229 100.684 259.529C100.368 259.83 99.9495 259.98 99.4267 259.98C98.9039 259.98 98.4814 259.83 98.1591 259.529C97.844 259.229 97.6864 258.842 97.6864 258.369ZM107.757 269.788C107.757 269.409 107.567 269.111 107.187 268.896C106.815 268.674 106.213 268.478 105.383 268.306C102.618 267.726 101.236 266.551 101.236 264.782C101.236 263.751 101.662 262.892 102.514 262.204C103.374 261.509 104.495 261.162 105.877 261.162C107.352 261.162 108.53 261.509 109.411 262.204C110.299 262.899 110.743 263.801 110.743 264.911H107.638C107.638 264.467 107.495 264.102 107.209 263.815C106.922 263.522 106.475 263.375 105.866 263.375C105.343 263.375 104.939 263.493 104.652 263.729C104.366 263.966 104.222 264.267 104.222 264.632C104.222 264.976 104.384 265.255 104.706 265.47C105.035 265.677 105.587 265.86 106.36 266.018C107.134 266.168 107.785 266.34 108.315 266.533C109.955 267.135 110.775 268.177 110.775 269.659C110.775 270.719 110.32 271.578 109.411 272.237C108.501 272.889 107.327 273.215 105.887 273.215C104.914 273.215 104.047 273.043 103.288 272.699C102.536 272.348 101.945 271.872 101.515 271.271C101.086 270.662 100.871 270.007 100.871 269.305H103.814C103.843 269.856 104.047 270.279 104.427 270.572C104.806 270.866 105.315 271.013 105.952 271.013C106.546 271.013 106.994 270.902 107.295 270.68C107.603 270.451 107.757 270.153 107.757 269.788ZM117.429 273C117.286 272.721 117.182 272.373 117.118 271.958C116.366 272.796 115.388 273.215 114.185 273.215C113.046 273.215 112.101 272.885 111.349 272.227C110.604 271.568 110.232 270.737 110.232 269.734C110.232 268.503 110.687 267.557 111.596 266.898C112.513 266.24 113.834 265.907 115.56 265.899H116.989V265.233C116.989 264.696 116.849 264.267 116.57 263.944C116.298 263.622 115.865 263.461 115.27 263.461C114.747 263.461 114.336 263.586 114.035 263.837C113.741 264.088 113.594 264.431 113.594 264.868H110.49C110.49 264.195 110.698 263.572 111.113 262.999C111.528 262.426 112.115 261.979 112.875 261.656C113.634 261.327 114.486 261.162 115.431 261.162C116.864 261.162 117.999 261.524 118.837 262.247C119.682 262.963 120.104 263.973 120.104 265.276V270.314C120.111 271.417 120.265 272.252 120.566 272.817V273H117.429ZM114.862 270.841C115.32 270.841 115.743 270.741 116.129 270.54C116.516 270.332 116.803 270.057 116.989 269.713V267.715H115.829C114.275 267.715 113.448 268.252 113.347 269.326L113.337 269.509C113.337 269.896 113.473 270.214 113.745 270.465C114.017 270.715 114.389 270.841 114.862 270.841ZM123.675 273H120.56V261.377H123.675V273ZM120.377 258.369C120.377 257.904 120.531 257.521 120.839 257.22C121.154 256.919 121.581 256.769 122.118 256.769C122.648 256.769 123.07 256.919 123.385 257.22C123.7 257.521 123.858 257.904 123.858 258.369C123.858 258.842 123.697 259.229 123.374 259.529C123.059 259.83 122.64 259.98 122.118 259.98C121.595 259.98 121.172 259.83 120.85 259.529C120.535 259.229 120.377 258.842 120.377 258.369ZM127.01 261.377L127.107 262.72C127.937 261.681 129.051 261.162 130.448 261.162C131.679 261.162 132.596 261.524 133.198 262.247C133.799 262.97 134.107 264.052 134.121 265.491V273H131.017V265.566C131.017 264.908 130.874 264.431 130.587 264.138C130.301 263.837 129.824 263.687 129.158 263.687C128.285 263.687 127.63 264.059 127.193 264.804V273H124.088V261.377H127.01ZM141.13 273C140.987 272.721 140.883 272.373 140.818 271.958C140.067 272.796 139.089 273.215 137.886 273.215C136.747 273.215 135.802 272.885 135.05 272.227C134.305 271.568 133.933 270.737 133.933 269.734C133.933 268.503 134.387 267.557 135.297 266.898C136.214 266.24 137.535 265.907 139.261 265.899H140.69V265.233C140.69 264.696 140.55 264.267 140.271 263.944C139.998 263.622 139.565 263.461 138.971 263.461C138.448 263.461 138.036 263.586 137.735 263.837C137.442 264.088 137.295 264.431 137.295 264.868H134.191C134.191 264.195 134.398 263.572 134.814 262.999C135.229 262.426 135.816 261.979 136.575 261.656C137.334 261.327 138.187 261.162 139.132 261.162C140.564 261.162 141.699 261.524 142.537 262.247C143.382 262.963 143.805 263.973 143.805 265.276V270.314C143.812 271.417 143.966 272.252 144.267 272.817V273H141.13ZM138.563 270.841C139.021 270.841 139.443 270.741 139.83 270.54C140.217 270.332 140.503 270.057 140.69 269.713V267.715H139.529C137.975 267.715 137.148 268.252 137.048 269.326L137.037 269.509C137.037 269.896 137.173 270.214 137.445 270.465C137.718 270.715 138.09 270.841 138.563 270.841ZM148.321 268.338L147.204 269.455V273H144.1V256.5H147.204V265.642L147.806 264.868L150.781 261.377H154.509L150.309 266.222L154.874 273H151.308L148.321 268.338ZM32.2132 284.52V287.377H34.2005V289.654H32.2132V295.455C32.2132 295.885 32.2956 296.193 32.4603 296.379C32.625 296.565 32.9401 296.658 33.4056 296.658C33.7494 296.658 34.0537 296.633 34.3187 296.583V298.936C33.71 299.122 33.0834 299.215 32.4388 299.215C30.2617 299.215 29.1517 298.116 29.1087 295.917V289.654H27.4115V287.377H29.1087V284.52H32.2132ZM39.1896 299.215C37.4852 299.215 36.0959 298.692 35.0217 297.646C33.9546 296.601 33.4211 295.208 33.4211 293.468V293.167C33.4211 292 33.6467 290.958 34.0979 290.041C34.549 289.117 35.1864 288.408 36.01 287.914C36.8407 287.413 37.786 287.162 38.8459 287.162C40.4357 287.162 41.6854 287.663 42.5949 288.666C43.5116 289.669 43.9699 291.09 43.9699 292.931V294.198H36.5686C36.6688 294.957 36.9696 295.566 37.4709 296.024C37.9794 296.483 38.6203 296.712 39.3937 296.712C40.5897 296.712 41.5243 296.279 42.1975 295.412L43.7229 297.12C43.2574 297.779 42.6271 298.295 41.8322 298.667C41.0373 299.032 40.1564 299.215 39.1896 299.215ZM38.8352 289.676C38.2193 289.676 37.718 289.883 37.3312 290.299C36.9517 290.714 36.7082 291.309 36.6008 292.082H40.9191V291.835C40.9048 291.147 40.7186 290.618 40.3605 290.245C40.0025 289.866 39.494 289.676 38.8352 289.676ZM50.1836 290.288C49.7611 290.231 49.3887 290.202 49.0664 290.202C47.892 290.202 47.1221 290.6 46.7569 291.395V299H43.6524V287.377H46.585L46.6709 288.763C47.294 287.696 48.1569 287.162 49.2598 287.162C49.6036 287.162 49.9258 287.209 50.2266 287.302L50.1836 290.288ZM56.5585 297.818C55.7922 298.749 54.7323 299.215 53.3788 299.215C52.1327 299.215 51.1802 298.857 50.5214 298.141C49.8697 297.424 49.5367 296.375 49.5223 294.993V287.377H52.6268V294.886C52.6268 296.096 53.1783 296.701 54.2811 296.701C55.3339 296.701 56.0572 296.336 56.4511 295.605V287.377H59.5663V299H56.6444L56.5585 297.818ZM53.4218 284.337C53.4218 284.716 53.2821 285.039 53.0028 285.304C52.7235 285.562 52.3654 285.69 51.9286 285.69C51.4846 285.69 51.1265 285.558 50.8544 285.293C50.5822 285.028 50.4462 284.709 50.4462 284.337C50.4462 283.965 50.5822 283.646 50.8544 283.381C51.1265 283.109 51.4846 282.973 51.9286 282.973C52.3726 282.973 52.7307 283.109 53.0028 283.381C53.2821 283.646 53.4218 283.965 53.4218 284.337ZM55.6776 284.337C55.6776 283.95 55.8208 283.628 56.1073 283.37C56.4009 283.105 56.7554 282.973 57.1708 282.973C57.5933 282.973 57.9442 283.105 58.2235 283.37C58.51 283.635 58.6532 283.957 58.6532 284.337C58.6532 284.709 58.5171 285.032 58.245 285.304C57.9729 285.569 57.6148 285.701 57.1708 285.701C56.7268 285.701 56.3651 285.569 56.0858 285.304C55.8137 285.032 55.6776 284.709 55.6776 284.337ZM63.0945 299H59.9792V282.5H63.0945V299ZM68.9214 299.215C67.217 299.215 65.8277 298.692 64.7535 297.646C63.6864 296.601 63.1529 295.208 63.1529 293.468V293.167C63.1529 292 63.3785 290.958 63.8296 290.041C64.2808 289.117 64.9182 288.408 65.7418 287.914C66.5725 287.413 67.5178 287.162 68.5777 287.162C70.1675 287.162 71.4172 287.663 72.3267 288.666C73.2434 289.669 73.7017 291.09 73.7017 292.931V294.198H66.3004C66.4006 294.957 66.7014 295.566 67.2027 296.024C67.7112 296.483 68.3521 296.712 69.1255 296.712C70.3215 296.712 71.2561 296.279 71.9293 295.412L73.4546 297.12C72.9892 297.779 72.3589 298.295 71.564 298.667C70.7691 299.032 69.8882 299.215 68.9214 299.215ZM68.567 289.676C67.9511 289.676 67.4498 289.883 67.063 290.299C66.6835 290.714 66.44 291.309 66.3326 292.082H70.6509V291.835C70.6366 291.147 70.4504 290.618 70.0923 290.245C69.7343 289.866 69.2258 289.676 68.567 289.676ZM77.101 284.52V287.377H79.0883V289.654H77.101V295.455C77.101 295.885 77.1833 296.193 77.348 296.379C77.5128 296.565 77.8279 296.658 78.2934 296.658C78.6371 296.658 78.9415 296.633 79.2064 296.583V298.936C78.5977 299.122 77.9711 299.215 77.3266 299.215C75.1495 299.215 74.0395 298.116 73.9965 295.917V289.654H72.2992V287.377H73.9965V284.52H77.101ZM82.0041 299H78.8889V287.377H82.0041V299ZM78.7063 284.369C78.7063 283.904 78.8603 283.521 79.1682 283.22C79.4833 282.919 79.9094 282.769 80.4465 282.769C80.9765 282.769 81.399 282.919 81.7141 283.22C82.0292 283.521 82.1868 283.904 82.1868 284.369C82.1868 284.842 82.0256 285.229 81.7034 285.529C81.3882 285.83 80.9693 285.98 80.4465 285.98C79.9237 285.98 79.5012 285.83 79.1789 285.529C78.8638 285.229 78.7063 284.842 78.7063 284.369ZM92.6054 299C92.4622 298.721 92.3583 298.373 92.2939 297.958C91.5419 298.796 90.5644 299.215 89.3613 299.215C88.2226 299.215 87.2773 298.885 86.5253 298.227C85.7805 297.568 85.4081 296.737 85.4081 295.734C85.4081 294.503 85.8629 293.557 86.7724 292.898C87.6891 292.24 89.0103 291.907 90.7363 291.899H92.165V291.233C92.165 290.696 92.0253 290.267 91.746 289.944C91.4739 289.622 91.0406 289.461 90.4462 289.461C89.9234 289.461 89.5116 289.586 89.2109 289.837C88.9172 290.088 88.7704 290.431 88.7704 290.868H85.6659C85.6659 290.195 85.8736 289.572 86.289 288.999C86.7044 288.426 87.2916 287.979 88.0507 287.656C88.8098 287.327 89.662 287.162 90.6073 287.162C92.0396 287.162 93.1747 287.524 94.0126 288.247C94.8577 288.963 95.2802 289.973 95.2802 291.276V296.314C95.2874 297.417 95.4413 298.252 95.7421 298.817V299H92.6054ZM90.038 296.841C90.4963 296.841 90.9189 296.741 91.3056 296.54C91.6923 296.332 91.9788 296.057 92.165 295.713V293.715H91.0048C89.4508 293.715 88.6236 294.252 88.5234 295.326L88.5126 295.509C88.5126 295.896 88.6487 296.214 88.9208 296.465C89.193 296.715 89.5654 296.841 90.038 296.841ZM95.0916 293.103C95.0916 291.291 95.4962 289.848 96.3054 288.773C97.1218 287.699 98.2354 287.162 99.6462 287.162C100.778 287.162 101.712 287.585 102.45 288.43V282.5H105.565V299H102.761L102.611 297.765C101.838 298.731 100.842 299.215 99.6248 299.215C98.2569 299.215 97.1576 298.678 96.3269 297.604C95.5033 296.522 95.0916 295.022 95.0916 293.103ZM98.1961 293.328C98.1961 294.417 98.3858 295.251 98.7654 295.831C99.1449 296.411 99.6964 296.701 100.42 296.701C101.379 296.701 102.056 296.297 102.45 295.487V290.9C102.063 290.091 101.394 289.687 100.441 289.687C98.9444 289.687 98.1961 290.9 98.1961 293.328ZM112.617 299C112.474 298.721 112.37 298.373 112.305 297.958C111.553 298.796 110.576 299.215 109.373 299.215C108.234 299.215 107.289 298.885 106.537 298.227C105.792 297.568 105.42 296.737 105.42 295.734C105.42 294.503 105.874 293.557 106.784 292.898C107.7 292.24 109.022 291.907 110.748 291.899H112.176V291.233C112.176 290.696 112.037 290.267 111.757 289.944C111.485 289.622 111.052 289.461 110.458 289.461C109.935 289.461 109.523 289.586 109.222 289.837C108.929 290.088 108.782 290.431 108.782 290.868H105.677C105.677 290.195 105.885 289.572 106.3 288.999C106.716 288.426 107.303 287.979 108.062 287.656C108.821 287.327 109.673 287.162 110.619 287.162C112.051 287.162 113.186 287.524 114.024 288.247C114.869 288.963 115.292 289.973 115.292 291.276V296.314C115.299 297.417 115.453 298.252 115.754 298.817V299H112.617ZM110.049 296.841C110.508 296.841 110.93 296.741 111.317 296.54C111.704 296.332 111.99 296.057 112.176 295.713V293.715H111.016C109.462 293.715 108.635 294.252 108.535 295.326L108.524 295.509C108.524 295.896 108.66 296.214 108.932 296.465C109.204 296.715 109.577 296.841 110.049 296.841ZM119.303 284.52V287.377H121.29V289.654H119.303V295.455C119.303 295.885 119.386 296.193 119.55 296.379C119.715 296.565 120.03 296.658 120.496 296.658C120.839 296.658 121.144 296.633 121.409 296.583V298.936C120.8 299.122 120.173 299.215 119.529 299.215C117.352 299.215 116.242 298.116 116.199 295.917V289.654H114.501V287.377H116.199V284.52H119.303ZM127.665 299C127.522 298.721 127.418 298.373 127.354 297.958C126.602 298.796 125.624 299.215 124.421 299.215C123.283 299.215 122.337 298.885 121.585 298.227C120.84 297.568 120.468 296.737 120.468 295.734C120.468 294.503 120.923 293.557 121.832 292.898C122.749 292.24 124.07 291.907 125.796 291.899H127.225V291.233C127.225 290.696 127.085 290.267 126.806 289.944C126.534 289.622 126.101 289.461 125.506 289.461C124.983 289.461 124.572 289.586 124.271 289.837C123.977 290.088 123.83 290.431 123.83 290.868H120.726C120.726 290.195 120.934 289.572 121.349 288.999C121.764 288.426 122.352 287.979 123.111 287.656C123.87 287.327 124.722 287.162 125.667 287.162C127.1 287.162 128.235 287.524 129.073 288.247C129.918 288.963 130.34 289.973 130.34 291.276V296.314C130.347 297.417 130.501 298.252 130.802 298.817V299H127.665ZM125.098 296.841C125.556 296.841 125.979 296.741 126.366 296.54C126.752 296.332 127.039 296.057 127.225 295.713V293.715H126.065C124.511 293.715 123.684 294.252 123.583 295.326L123.573 295.509C123.573 295.896 123.709 296.214 123.981 296.465C124.253 296.715 124.625 296.841 125.098 296.841ZM133.911 299H130.796V287.377H133.911V299ZM130.613 284.369C130.613 283.904 130.767 283.521 131.075 283.22C131.39 282.919 131.817 282.769 132.354 282.769C132.884 282.769 133.306 282.919 133.621 283.22C133.936 283.521 134.094 283.904 134.094 284.369C134.094 284.842 133.933 285.229 133.61 285.529C133.295 285.83 132.876 285.98 132.354 285.98C131.831 285.98 131.408 285.83 131.086 285.529C130.771 285.229 130.613 284.842 130.613 284.369ZM144.862 293.296C144.862 295.158 144.465 296.612 143.67 297.657C142.875 298.696 141.765 299.215 140.34 299.215C139.079 299.215 138.073 298.731 137.321 297.765L137.182 299H134.389V282.5H137.493V288.419C138.209 287.581 139.151 287.162 140.318 287.162C141.736 287.162 142.846 287.685 143.648 288.73C144.458 289.769 144.862 291.233 144.862 293.124V293.296ZM141.758 293.07C141.758 291.896 141.572 291.04 141.199 290.503C140.827 289.959 140.272 289.687 139.534 289.687C138.546 289.687 137.866 290.091 137.493 290.9V295.487C137.873 296.304 138.56 296.712 139.556 296.712C140.558 296.712 141.217 296.218 141.532 295.229C141.683 294.757 141.758 294.037 141.758 293.07ZM144.212 293.081C144.212 291.928 144.434 290.9 144.878 289.998C145.322 289.096 145.959 288.397 146.79 287.903C147.628 287.409 148.598 287.162 149.701 287.162C151.269 287.162 152.548 287.642 153.536 288.602C154.531 289.561 155.086 290.865 155.201 292.512L155.222 293.307C155.222 295.09 154.725 296.522 153.729 297.604C152.734 298.678 151.398 299.215 149.722 299.215C148.047 299.215 146.707 298.678 145.705 297.604C144.709 296.529 144.212 295.068 144.212 293.221V293.081ZM147.316 293.307C147.316 294.41 147.524 295.255 147.939 295.842C148.355 296.422 148.949 296.712 149.722 296.712C150.474 296.712 151.062 296.425 151.484 295.853C151.907 295.272 152.118 294.349 152.118 293.081C152.118 292 151.907 291.162 151.484 290.567C151.062 289.973 150.467 289.676 149.701 289.676C148.942 289.676 148.355 289.973 147.939 290.567C147.524 291.155 147.316 292.068 147.316 293.307ZM150.313 282.5H153.697L150.721 285.83H148.197L150.313 282.5ZM158.321 299H155.206V282.5H158.321V299Z" fill="#ECE7DD"/>
</svg>
