<svg width="187" height="479" viewBox="0 0 187 479" fill="none" xmlns="http://www.w3.org/2000/svg">
<rect x="0.457031" y="0.160156" width="186.094" height="477.922" fill="#593C0F"/>
<path d="M64.1587 423.226H60.2739V434H58.6885V423.226H54.812V421.914H64.1587V423.226ZM75.0161 428.347C75.0161 429.531 74.8169 430.566 74.4185 431.452C74.02 432.332 73.4556 433.004 72.7251 433.469C71.9946 433.934 71.1424 434.166 70.1685 434.166C69.2166 434.166 68.3727 433.934 67.6367 433.469C66.9007 432.998 66.328 432.332 65.9185 431.468C65.5145 430.599 65.307 429.595 65.2959 428.455V427.583C65.2959 426.421 65.4979 425.395 65.9019 424.504C66.3058 423.613 66.8758 422.932 67.6118 422.462C68.3534 421.986 69.2 421.748 70.1519 421.748C71.1203 421.748 71.9725 421.983 72.7085 422.454C73.45 422.918 74.02 423.596 74.4185 424.487C74.8169 425.373 75.0161 426.405 75.0161 427.583V428.347ZM73.4307 427.567C73.4307 426.134 73.1429 425.035 72.5674 424.271C71.9919 423.502 71.1867 423.118 70.1519 423.118C69.1447 423.118 68.3506 423.502 67.7695 424.271C67.194 425.035 66.8979 426.098 66.8813 427.459V428.347C66.8813 429.736 67.1719 430.829 67.7529 431.626C68.3395 432.417 69.1447 432.813 70.1685 432.813C71.1978 432.813 71.9946 432.439 72.5591 431.692C73.1235 430.94 73.4141 429.863 73.4307 428.463V427.567ZM81.2251 431.883L84.6782 421.914H86.4214L81.939 434H80.5278L76.0537 421.914H77.7886L81.2251 431.883ZM94.0913 430.846H89.0278L87.8906 434H86.2471L90.8623 421.914H92.2568L96.8804 434H95.2451L94.0913 430.846ZM89.5093 429.534H93.6182L91.5596 423.881L89.5093 429.534ZM92.3481 418.677H94.2075L91.9829 421.117H90.7461L92.3481 418.677ZM98.5073 434V421.914H102.458C103.77 421.914 104.755 422.185 105.414 422.728C106.078 423.27 106.41 424.072 106.41 425.135C106.41 425.699 106.249 426.2 105.928 426.637C105.607 427.069 105.17 427.404 104.617 427.642C105.27 427.824 105.784 428.173 106.161 428.688C106.542 429.197 106.733 429.805 106.733 430.514C106.733 431.598 106.382 432.451 105.679 433.07C104.976 433.69 103.983 434 102.699 434H98.5073ZM100.101 428.347V432.697H102.732C103.474 432.697 104.058 432.506 104.484 432.124C104.916 431.737 105.131 431.205 105.131 430.53C105.131 429.075 104.34 428.347 102.757 428.347H100.101ZM100.101 427.069H102.508C103.206 427.069 103.762 426.895 104.177 426.546C104.597 426.197 104.808 425.724 104.808 425.126C104.808 424.462 104.614 423.981 104.227 423.682C103.839 423.378 103.25 423.226 102.458 423.226H100.101V427.069ZM109.099 434V421.914H113.05C114.362 421.914 115.347 422.185 116.005 422.728C116.669 423.27 117.001 424.072 117.001 425.135C117.001 425.699 116.841 426.2 116.52 426.637C116.199 427.069 115.762 427.404 115.208 427.642C115.861 427.824 116.376 428.173 116.752 428.688C117.134 429.197 117.325 429.805 117.325 430.514C117.325 431.598 116.974 432.451 116.271 433.07C115.568 433.69 114.575 434 113.291 434H109.099ZM110.693 428.347V432.697H113.324C114.066 432.697 114.65 432.506 115.076 432.124C115.507 431.737 115.723 431.205 115.723 430.53C115.723 429.075 114.932 428.347 113.349 428.347H110.693ZM110.693 427.069H113.1C113.797 427.069 114.354 426.895 114.769 426.546C115.189 426.197 115.399 425.724 115.399 425.126C115.399 424.462 115.206 423.981 114.818 423.682C114.431 423.378 113.842 423.226 113.05 423.226H110.693V427.069ZM130.582 430.846H125.518L124.381 434H122.737L127.353 421.914H128.747L133.371 434H131.735L130.582 430.846ZM126 429.534H130.108L128.05 423.881L126 429.534ZM52.7451 444.164H49.1177V454H46.2041V444.164H42.6431V441.914H52.7451V444.164ZM61.4775 448.878H56.8955V451.759H62.3076V454H53.9819V441.914H62.3242V444.164H56.8955V446.712H61.4775V448.878ZM58.7632 438.677H61.7183L59.4106 441.283H57.1279L58.7632 438.677ZM67.9854 449.733H66.4082V454H63.4946V441.914H68.251C69.6842 441.914 70.8049 442.232 71.6128 442.869C72.4207 443.505 72.8247 444.404 72.8247 445.566C72.8247 446.408 72.6532 447.105 72.3101 447.658C71.9725 448.212 71.4412 448.66 70.7163 449.003L73.2397 453.875V454H70.1187L67.9854 449.733ZM66.4082 447.484H68.251C68.8044 447.484 69.2194 447.34 69.4961 447.052C69.7783 446.759 69.9194 446.352 69.9194 445.832C69.9194 445.312 69.7783 444.905 69.4961 444.612C69.2139 444.313 68.7988 444.164 68.251 444.164H66.4082V447.484ZM78.6934 449.501L77.498 450.812V454H74.5845V441.914H77.498V447.243L78.5107 445.708L81.1172 441.914H84.7197L80.6357 447.26L84.7197 454H81.2666L78.6934 449.501ZM92.9541 448.878H88.3721V451.759H93.7842V454H85.4585V441.914H93.8008V444.164H88.3721V446.712H92.9541V448.878ZM90.2397 438.677H93.1948L90.8872 441.283H88.6045L90.2397 438.677ZM97.8848 449.899V454H94.9712V441.914H99.7939C100.718 441.914 101.534 442.086 102.243 442.429C102.957 442.766 103.507 443.25 103.895 443.881C104.287 444.507 104.484 445.218 104.484 446.015C104.484 447.193 104.061 448.137 103.214 448.845C102.373 449.548 101.216 449.899 99.7441 449.899H97.8848ZM97.8848 447.65H99.7939C100.358 447.65 100.787 447.509 101.081 447.227C101.379 446.944 101.529 446.546 101.529 446.031C101.529 445.467 101.377 445.016 101.072 444.678C100.768 444.341 100.353 444.169 99.8271 444.164H97.8848V447.65ZM113.54 448.878H108.958V451.759H114.37V454H106.044V441.914H114.387V444.164H108.958V446.712H113.54V448.878ZM119.666 449.501L118.471 450.812V454H115.557V441.914H118.471V447.243L119.483 445.708L122.09 441.914H125.692L121.608 447.26L125.692 454H122.239L119.666 449.501ZM131.354 449.111H128.515V454H126.913V441.914H130.914C132.275 441.914 133.321 442.224 134.051 442.844C134.787 443.464 135.155 444.366 135.155 445.55C135.155 446.302 134.951 446.958 134.541 447.517C134.137 448.076 133.573 448.494 132.848 448.771L135.687 453.9V454H133.977L131.354 449.111ZM128.515 447.808H130.963C131.755 447.808 132.383 447.603 132.848 447.193C133.318 446.784 133.553 446.236 133.553 445.55C133.553 444.803 133.329 444.23 132.881 443.832C132.438 443.433 131.796 443.231 130.955 443.226H128.515V447.808ZM144.228 448.414H138.99V452.697H145.075V454H137.396V441.914H144.992V443.226H138.99V447.11H144.228V448.414Z" fill="#ECE7DD"/>
<path d="M23.381 195H21.3185V179.359H23.381V195ZM26.9706 183.377L27.0351 184.838C27.9231 183.721 29.0833 183.162 30.5155 183.162C32.9719 183.162 34.2109 184.548 34.2323 187.319V195H32.245V187.309C32.2379 186.471 32.0445 185.851 31.665 185.45C31.2926 185.049 30.7089 184.849 29.914 184.849C29.2694 184.849 28.7037 185.021 28.2167 185.364C27.7297 185.708 27.3502 186.159 27.078 186.718V195H25.0907V183.377H26.9706ZM38.1657 180.562V183.377H40.3356V184.913H38.1657V192.121C38.1657 192.587 38.2624 192.938 38.4557 193.174C38.6491 193.403 38.9785 193.518 39.444 193.518C39.6732 193.518 39.9883 193.475 40.3893 193.389V195C39.8665 195.143 39.3581 195.215 38.8639 195.215C37.9759 195.215 37.3063 194.946 36.8552 194.409C36.404 193.872 36.1784 193.109 36.1784 192.121V184.913H34.0622V183.377H36.1784V180.562H38.1657ZM45.7299 195.215C44.1544 195.215 42.8725 194.699 41.8842 193.668C40.8959 192.63 40.4018 191.244 40.4018 189.511V189.146C40.4018 187.993 40.6202 186.965 41.0571 186.062C41.5011 185.153 42.117 184.444 42.9047 183.936C43.6996 183.42 44.559 183.162 45.4828 183.162C46.9939 183.162 48.1684 183.66 49.0063 184.655C49.8442 185.651 50.2631 187.076 50.2631 188.931V189.758H42.3891C42.4177 190.904 42.7508 191.831 43.3881 192.54C44.0327 193.242 44.8491 193.593 45.8373 193.593C46.5392 193.593 47.1336 193.45 47.6205 193.163C48.1075 192.877 48.5336 192.497 48.8989 192.024L50.1127 192.97C49.1388 194.466 47.6778 195.215 45.7299 195.215ZM45.4828 184.795C44.6808 184.795 44.0076 185.089 43.4633 185.676C42.919 186.256 42.5825 187.072 42.4536 188.125H48.2758V187.975C48.2185 186.965 47.9464 186.184 47.4594 185.633C46.9724 185.074 46.3136 184.795 45.4828 184.795ZM56.4309 185.16C56.1301 185.11 55.8042 185.085 55.4533 185.085C54.1499 185.085 53.2655 185.64 52.8 186.75V195H50.8127V183.377H52.7463L52.7785 184.72C53.4302 183.681 54.354 183.162 55.55 183.162C55.9367 183.162 56.2303 183.212 56.4309 183.312V185.16ZM63.2539 195C63.1393 194.771 63.0462 194.363 62.9746 193.775C62.0507 194.735 60.9479 195.215 59.666 195.215C58.5201 195.215 57.5784 194.893 56.8408 194.248C56.1103 193.596 55.7451 192.773 55.7451 191.777C55.7451 190.567 56.2034 189.629 57.1201 188.963C58.0439 188.29 59.3401 187.953 61.0087 187.953H62.9423V187.04C62.9423 186.345 62.7347 185.794 62.3193 185.386C61.9039 184.97 61.2916 184.763 60.4824 184.763C59.7734 184.763 59.179 184.942 58.6992 185.3C58.2194 185.658 57.9795 186.091 57.9795 186.6H55.9814C55.9814 186.02 56.1855 185.461 56.5937 184.924C57.0091 184.38 57.5677 183.95 58.2695 183.635C58.9785 183.32 59.7555 183.162 60.6005 183.162C61.9397 183.162 62.9889 183.499 63.748 184.172C64.5071 184.838 64.901 185.758 64.9296 186.933V192.282C64.9296 193.349 65.0657 194.198 65.3378 194.828V195H63.2539ZM59.956 193.485C60.5791 193.485 61.1699 193.324 61.7285 193.002C62.2871 192.68 62.6917 192.261 62.9423 191.745V189.36H61.3847C58.9498 189.36 57.7324 190.073 57.7324 191.498C57.7324 192.121 57.9401 192.608 58.3554 192.959C58.7708 193.31 59.3043 193.485 59.956 193.485ZM69.529 189.618L68.2829 190.918V195H66.2956V178.5H68.2829V188.479L69.3464 187.201L72.9665 183.377H75.3835L70.8611 188.232L75.9099 195H73.5788L69.529 189.618ZM78.3716 180.562V183.377H80.5415V184.913H78.3716V192.121C78.3716 192.587 78.4682 192.938 78.6616 193.174C78.855 193.403 79.1844 193.518 79.6499 193.518C79.879 193.518 80.1942 193.475 80.5952 193.389V195C80.0724 195.143 79.5639 195.215 79.0698 195.215C78.1818 195.215 77.5122 194.946 77.061 194.409C76.6098 193.872 76.3843 193.109 76.3843 192.121V184.913H74.268V183.377H76.3843V180.562H78.3716ZM83.2717 195H81.2737V183.377H83.2717V195ZM83.2932 178.511H85.6994L82.8205 181.669H81.22L83.2932 178.511ZM88.623 192.304L91.502 183.377H93.5322L89.3643 195H87.8496L83.6387 183.377H85.6689L88.623 192.304ZM100.078 180.562V183.377H102.248V184.913H100.078V192.121C100.078 192.587 100.174 192.938 100.368 193.174C100.561 193.403 100.89 193.518 101.356 193.518C101.585 193.518 101.9 193.475 102.301 193.389V195C101.778 195.143 101.27 195.215 100.776 195.215C99.8879 195.215 99.2183 194.946 98.7671 194.409C98.3159 193.872 98.0903 193.109 98.0903 192.121V184.913H95.9741V183.377H98.0903V180.562H100.078ZM107.642 195.215C106.066 195.215 104.784 194.699 103.796 193.668C102.808 192.63 102.314 191.244 102.314 189.511V189.146C102.314 187.993 102.532 186.965 102.969 186.062C103.413 185.153 104.029 184.444 104.817 183.936C105.612 183.42 106.471 183.162 107.395 183.162C108.906 183.162 110.08 183.66 110.918 184.655C111.756 185.651 112.175 187.076 112.175 188.931V189.758H104.301C104.33 190.904 104.663 191.831 105.3 192.54C105.945 193.242 106.761 193.593 107.749 193.593C108.451 193.593 109.046 193.45 109.532 193.163C110.019 192.877 110.446 192.497 110.811 192.024L112.025 192.97C111.051 194.466 109.59 195.215 107.642 195.215ZM107.395 184.795C106.593 184.795 105.92 185.089 105.375 185.676C104.831 186.256 104.494 187.072 104.366 188.125H110.188V187.975C110.13 186.965 109.858 186.184 109.371 185.633C108.884 185.074 108.226 184.795 107.395 184.795ZM108.362 178.5H110.768L107.889 181.658H106.288L108.362 178.5ZM118.343 185.16C118.042 185.11 117.716 185.085 117.365 185.085C116.062 185.085 115.177 185.64 114.712 186.75V195H112.725V183.377H114.658L114.69 184.72C115.342 183.681 116.266 183.162 117.462 183.162C117.849 183.162 118.142 183.212 118.343 183.312V185.16ZM121.664 189.618L120.418 190.918V195H118.43V178.5H120.418V188.479L121.481 187.201L125.101 183.377H127.518L122.996 188.232L128.045 195H125.714L121.664 189.618ZM132.419 195.215C130.843 195.215 129.561 194.699 128.573 193.668C127.585 192.63 127.09 191.244 127.09 189.511V189.146C127.09 187.993 127.309 186.965 127.746 186.062C128.19 185.153 128.806 184.444 129.593 183.936C130.388 183.42 131.248 183.162 132.171 183.162C133.683 183.162 134.857 183.66 135.695 184.655C136.533 185.651 136.952 187.076 136.952 188.931V189.758H129.078C129.106 190.904 129.439 191.831 130.077 192.54C130.721 193.242 131.538 193.593 132.526 193.593C133.228 193.593 133.822 193.45 134.309 193.163C134.796 192.877 135.222 192.497 135.587 192.024L136.801 192.97C135.827 194.466 134.366 195.215 132.419 195.215ZM132.171 184.795C131.369 184.795 130.696 185.089 130.152 185.676C129.608 186.256 129.271 187.072 129.142 188.125H134.964V187.975C134.907 186.965 134.635 186.184 134.148 185.633C133.661 185.074 133.002 184.795 132.171 184.795ZM133.138 178.5H135.544L132.666 181.658H131.065L133.138 178.5ZM147.32 189.317C147.32 191.086 146.915 192.511 146.106 193.593C145.297 194.674 144.201 195.215 142.819 195.215C141.408 195.215 140.298 194.767 139.489 193.872V199.469H137.501V183.377H139.317L139.413 184.666C140.223 183.663 141.347 183.162 142.786 183.162C144.183 183.162 145.286 183.688 146.095 184.741C146.911 185.794 147.32 187.258 147.32 189.135V189.317ZM145.332 189.092C145.332 187.781 145.053 186.746 144.494 185.987C143.936 185.228 143.17 184.849 142.196 184.849C140.992 184.849 140.09 185.382 139.489 186.449V192.003C140.083 193.063 140.992 193.593 142.217 193.593C143.17 193.593 143.925 193.217 144.484 192.465C145.049 191.706 145.332 190.581 145.332 189.092ZM152.918 195.215C151.343 195.215 150.061 194.699 149.072 193.668C148.084 192.63 147.59 191.244 147.59 189.511V189.146C147.59 187.993 147.808 186.965 148.245 186.062C148.689 185.153 149.305 184.444 150.093 183.936C150.888 183.42 151.747 183.162 152.671 183.162C154.182 183.162 155.357 183.66 156.194 184.655C157.032 185.651 157.451 187.076 157.451 188.931V189.758H149.577C149.606 190.904 149.939 191.831 150.576 192.54C151.221 193.242 152.037 193.593 153.025 193.593C153.727 193.593 154.322 193.45 154.809 193.163C155.296 192.877 155.722 192.497 156.087 192.024L157.301 192.97C156.327 194.466 154.866 195.215 152.918 195.215ZM152.671 184.795C151.869 184.795 151.196 185.089 150.651 185.676C150.107 186.256 149.771 187.072 149.642 188.125H155.464V187.975C155.407 186.965 155.135 186.184 154.648 185.633C154.161 185.074 153.502 184.795 152.671 184.795ZM161.245 189.618L159.999 190.918V195H158.012V178.5H159.999V188.479L161.062 187.201L164.682 183.377H167.099L162.577 188.232L167.626 195H165.295L161.245 189.618ZM45.1391 221C45.0245 220.771 44.9314 220.363 44.8598 219.775C43.936 220.735 42.8331 221.215 41.5512 221.215C40.4054 221.215 39.4636 220.893 38.726 220.248C37.9955 219.596 37.6303 218.773 37.6303 217.777C37.6303 216.567 38.0886 215.629 39.0053 214.963C39.9291 214.29 41.2254 213.953 42.894 213.953H44.8276V213.04C44.8276 212.345 44.6199 211.794 44.2045 211.386C43.7892 210.97 43.1769 210.763 42.3676 210.763C41.6586 210.763 41.0642 210.942 40.5844 211.3C40.1046 211.658 39.8647 212.091 39.8647 212.6H37.8666C37.8666 212.02 38.0707 211.461 38.4789 210.924C38.8943 210.38 39.4529 209.95 40.1547 209.635C40.8637 209.32 41.6407 209.162 42.4858 209.162C43.825 209.162 44.8741 209.499 45.6332 210.172C46.3924 210.838 46.7862 211.758 46.8149 212.933V218.282C46.8149 219.349 46.951 220.198 47.2231 220.828V221H45.1391ZM41.8413 219.485C42.4643 219.485 43.0551 219.324 43.6137 219.002C44.1723 218.68 44.5769 218.261 44.8276 217.745V215.36H43.27C40.8351 215.36 39.6176 216.073 39.6176 217.498C39.6176 218.121 39.8253 218.608 40.2407 218.959C40.656 219.31 41.1896 219.485 41.8413 219.485ZM56.1533 213.728L54.2412 215.715V221H52.1787V205.359H54.2412V213.094L61.1914 205.359H63.6836L57.5283 212.267L64.167 221H61.6963L56.1533 213.728ZM71.0759 221C70.9613 220.771 70.8682 220.363 70.7966 219.775C69.8728 220.735 68.7699 221.215 67.488 221.215C66.3422 221.215 65.4004 220.893 64.6628 220.248C63.9323 219.596 63.5671 218.773 63.5671 217.777C63.5671 216.567 64.0254 215.629 64.9421 214.963C65.8659 214.29 67.1622 213.953 68.8308 213.953H70.7644V213.04C70.7644 212.345 70.5567 211.794 70.1413 211.386C69.726 210.97 69.1137 210.763 68.3044 210.763C67.5954 210.763 67.001 210.942 66.5212 211.3C66.0414 211.658 65.8015 212.091 65.8015 212.6H63.8034C63.8034 212.02 64.0075 211.461 64.4157 210.924C64.8311 210.38 65.3897 209.95 66.0915 209.635C66.8005 209.32 67.5775 209.162 68.4226 209.162C69.7618 209.162 70.8109 209.499 71.57 210.172C72.3292 210.838 72.723 211.758 72.7517 212.933V218.282C72.7517 219.349 72.8877 220.198 73.1599 220.828V221H71.0759ZM67.778 219.485C68.4011 219.485 68.9919 219.324 69.5505 219.002C70.1091 218.68 70.5137 218.261 70.7644 217.745V215.36H69.2068C66.7719 215.36 65.5544 216.073 65.5544 217.498C65.5544 218.121 65.7621 218.608 66.1775 218.959C66.5928 219.31 67.1264 219.485 67.778 219.485ZM69.615 204.5H72.0212L69.1423 207.658H67.5417L69.615 204.5ZM79.7251 211.16C79.4243 211.11 79.0985 211.085 78.7475 211.085C77.4442 211.085 76.5597 211.64 76.0942 212.75V221H74.1069V209.377H76.0405L76.0727 210.72C76.7244 209.681 77.6483 209.162 78.8442 209.162C79.2309 209.162 79.5246 209.212 79.7251 209.312V211.16ZM89.6204 215.317C89.6204 217.086 89.2157 218.511 88.4065 219.593C87.5972 220.674 86.5015 221.215 85.1194 221.215C83.7086 221.215 82.5985 220.767 81.7893 219.872V225.469H79.802V209.377H81.6174L81.7141 210.666C82.5233 209.663 83.6477 209.162 85.0872 209.162C86.4836 209.162 87.5865 209.688 88.3957 210.741C89.2122 211.794 89.6204 213.258 89.6204 215.135V215.317ZM87.633 215.092C87.633 213.781 87.3538 212.746 86.7952 211.987C86.2366 211.228 85.4703 210.849 84.4963 210.849C83.2932 210.849 82.3909 211.382 81.7893 212.449V218.003C82.3837 219.063 83.2932 219.593 84.5178 219.593C85.4703 219.593 86.2258 219.217 86.7844 218.465C87.3502 217.706 87.633 216.581 87.633 215.092ZM97.5713 221C97.4567 220.771 97.3636 220.363 97.292 219.775C96.3682 220.735 95.2653 221.215 93.9834 221.215C92.8376 221.215 91.8958 220.893 91.1582 220.248C90.4277 219.596 90.0625 218.773 90.0625 217.777C90.0625 216.567 90.5208 215.629 91.4375 214.963C92.3613 214.29 93.6576 213.953 95.3262 213.953H97.2598V213.04C97.2598 212.345 97.0521 211.794 96.6367 211.386C96.2214 210.97 95.609 210.763 94.7998 210.763C94.0908 210.763 93.4964 210.942 93.0166 211.3C92.5368 211.658 92.2969 212.091 92.2969 212.6H90.2988C90.2988 212.02 90.5029 211.461 90.9111 210.924C91.3265 210.38 91.8851 209.95 92.5869 209.635C93.2959 209.32 94.0729 209.162 94.918 209.162C96.2572 209.162 97.3063 209.499 98.0654 210.172C98.8245 210.838 99.2184 211.758 99.2471 212.933V218.282C99.2471 219.349 99.3831 220.198 99.6553 220.828V221H97.5713ZM94.2734 219.485C94.8965 219.485 95.4873 219.324 96.0459 219.002C96.6045 218.68 97.0091 218.261 97.2598 217.745V215.36H95.7021C93.2673 215.36 92.0498 216.073 92.0498 217.498C92.0498 218.121 92.2575 218.608 92.6729 218.959C93.0882 219.31 93.6217 219.485 94.2734 219.485ZM96.1104 204.5H98.5166L95.6377 207.658H94.0371L96.1104 204.5ZM103.299 206.562V209.377H105.469V210.913H103.299V218.121C103.299 218.587 103.395 218.938 103.589 219.174C103.782 219.403 104.111 219.518 104.577 219.518C104.806 219.518 105.121 219.475 105.522 219.389V221C104.999 221.143 104.491 221.215 103.997 221.215C103.109 221.215 102.439 220.946 101.988 220.409C101.537 219.872 101.311 219.109 101.311 218.121V210.913H99.1951V209.377H101.311V206.562H103.299ZM110.175 215.167H104.933V213.545H110.175V215.167ZM112.347 210.784C113.228 209.703 114.374 209.162 115.784 209.162C118.241 209.162 119.48 210.548 119.501 213.319V221H117.514V213.309C117.507 212.471 117.313 211.851 116.934 211.45C116.561 211.049 115.978 210.849 115.183 210.849C114.538 210.849 113.973 211.021 113.486 211.364C112.999 211.708 112.619 212.159 112.347 212.718V221H110.36V204.5H112.347V210.784ZM127.893 221C127.778 220.771 127.685 220.363 127.613 219.775C126.689 220.735 125.587 221.215 124.305 221.215C123.159 221.215 122.217 220.893 121.48 220.248C120.749 219.596 120.384 218.773 120.384 217.777C120.384 216.567 120.842 215.629 121.759 214.963C122.683 214.29 123.979 213.953 125.648 213.953H127.581V213.04C127.581 212.345 127.373 211.794 126.958 211.386C126.543 210.97 125.93 210.763 125.121 210.763C124.412 210.763 123.818 210.942 123.338 211.3C122.858 211.658 122.618 212.091 122.618 212.6H120.62C120.62 212.02 120.824 211.461 121.232 210.924C121.648 210.38 122.206 209.95 122.908 209.635C123.617 209.32 124.394 209.162 125.239 209.162C126.578 209.162 127.628 209.499 128.387 210.172C129.146 210.838 129.54 211.758 129.568 212.933V218.282C129.568 219.349 129.704 220.198 129.977 220.828V221H127.893ZM124.595 219.485C125.218 219.485 125.809 219.324 126.367 219.002C126.926 218.68 127.33 218.261 127.581 217.745V215.36H126.023C123.589 215.36 122.371 216.073 122.371 217.498C122.371 218.121 122.579 218.608 122.994 218.959C123.41 219.31 123.943 219.485 124.595 219.485ZM132.793 219.378H139.593V221H130.365V219.539L136.778 211.021H130.462V209.377H139.27V210.784L132.793 219.378ZM147.253 221C147.139 220.771 147.046 220.363 146.974 219.775C146.05 220.735 144.947 221.215 143.666 221.215C142.52 221.215 141.578 220.893 140.84 220.248C140.11 219.596 139.745 218.773 139.745 217.777C139.745 216.567 140.203 215.629 141.12 214.963C142.044 214.29 143.34 213.953 145.008 213.953H146.942V213.04C146.942 212.345 146.734 211.794 146.319 211.386C145.904 210.97 145.291 210.763 144.482 210.763C143.773 210.763 143.179 210.942 142.699 211.3C142.219 211.658 141.979 212.091 141.979 212.6H139.981C139.981 212.02 140.185 211.461 140.593 210.924C141.009 210.38 141.567 209.95 142.269 209.635C142.978 209.32 143.755 209.162 144.6 209.162C145.939 209.162 146.989 209.499 147.748 210.172C148.507 210.838 148.901 211.758 148.929 212.933V218.282C148.929 219.349 149.065 220.198 149.337 220.828V221H147.253ZM143.956 219.485C144.579 219.485 145.169 219.324 145.728 219.002C146.287 218.68 146.691 218.261 146.942 217.745V215.36H145.384C142.949 215.36 141.732 216.073 141.732 217.498C141.732 218.121 141.94 218.608 142.355 218.959C142.77 219.31 143.304 219.485 143.956 219.485ZM55.388 243.917C55.388 243.38 55.1839 242.965 54.7757 242.671C54.3747 242.37 53.6693 242.112 52.6595 241.897C51.6569 241.683 50.8584 241.425 50.264 241.124C49.6767 240.823 49.2399 240.465 48.9534 240.05C48.6741 239.634 48.5345 239.14 48.5345 238.567C48.5345 237.615 48.9355 236.809 49.7376 236.15C50.5469 235.492 51.5781 235.162 52.8314 235.162C54.1491 235.162 55.2161 235.502 56.0325 236.183C56.8561 236.863 57.2679 237.733 57.2679 238.793H55.2698C55.2698 238.249 55.0371 237.78 54.5716 237.386C54.1133 236.992 53.5332 236.795 52.8314 236.795C52.1081 236.795 51.5423 236.952 51.1341 237.268C50.7259 237.583 50.5218 237.994 50.5218 238.503C50.5218 238.983 50.7116 239.344 51.0911 239.588C51.4707 239.831 52.1546 240.064 53.1429 240.286C54.1383 240.508 54.944 240.773 55.5599 241.081C56.1758 241.389 56.6305 241.761 56.9241 242.198C57.2249 242.628 57.3753 243.154 57.3753 243.777C57.3753 244.816 56.9599 245.65 56.1292 246.28C55.2985 246.903 54.2207 247.215 52.8958 247.215C51.9648 247.215 51.1413 247.05 50.4251 246.721C49.709 246.391 49.1468 245.933 48.7386 245.346C48.3376 244.751 48.137 244.11 48.137 243.423H50.1243C50.1601 244.089 50.4251 244.619 50.9193 245.013C51.4206 245.399 52.0794 245.593 52.8958 245.593C53.6478 245.593 54.2493 245.442 54.7005 245.142C55.1588 244.834 55.388 244.425 55.388 243.917ZM60.9005 232.562V235.377H63.0704V236.913H60.9005V244.121C60.9005 244.587 60.9971 244.938 61.1905 245.174C61.3839 245.403 61.7133 245.518 62.1788 245.518C62.408 245.518 62.7231 245.475 63.1241 245.389V247C62.6013 247.143 62.0928 247.215 61.5987 247.215C60.7107 247.215 60.0411 246.946 59.5899 246.409C59.1387 245.872 58.9132 245.109 58.9132 244.121V236.913H56.797V235.377H58.9132V232.562H60.9005ZM70.8172 247C70.7026 246.771 70.6095 246.363 70.5379 245.775C69.6141 246.735 68.5112 247.215 67.2293 247.215C66.0835 247.215 65.1418 246.893 64.4041 246.248C63.6737 245.596 63.3084 244.773 63.3084 243.777C63.3084 242.567 63.7668 241.629 64.6834 240.963C65.6073 240.29 66.9035 239.953 68.5721 239.953H70.5057V239.04C70.5057 238.345 70.298 237.794 69.8827 237.386C69.4673 236.97 68.855 236.763 68.0457 236.763C67.3368 236.763 66.7424 236.942 66.2625 237.3C65.7827 237.658 65.5428 238.091 65.5428 238.6H63.5448C63.5448 238.02 63.7489 237.461 64.1571 236.924C64.5724 236.38 65.131 235.95 65.8329 235.635C66.5418 235.32 67.3189 235.162 68.1639 235.162C69.5031 235.162 70.5523 235.499 71.3114 236.172C72.0705 236.838 72.4644 237.758 72.493 238.933V244.282C72.493 245.349 72.6291 246.198 72.9012 246.828V247H70.8172ZM67.5194 245.485C68.1424 245.485 68.7332 245.324 69.2918 245.002C69.8504 244.68 70.2551 244.261 70.5057 243.745V241.36H68.9481C66.5132 241.36 65.2957 242.073 65.2957 243.498C65.2957 244.121 65.5034 244.608 65.9188 244.959C66.3342 245.31 66.8677 245.485 67.5194 245.485ZM76.5445 232.562V235.377H78.7145V236.913H76.5445V244.121C76.5445 244.587 76.6412 244.938 76.8346 245.174C77.0279 245.403 77.3574 245.518 77.8229 245.518C78.052 245.518 78.3671 245.475 78.7682 245.389V247C78.2454 247.143 77.7369 247.215 77.2428 247.215C76.3548 247.215 75.6852 246.946 75.234 246.409C74.7828 245.872 74.5572 245.109 74.5572 244.121V236.913H72.441V235.377H74.5572V232.562H76.5445ZM81.4447 247H79.4574V235.377H81.4447V247ZM79.2962 232.294C79.2962 231.972 79.3929 231.7 79.5863 231.478C79.7868 231.256 80.0804 231.145 80.4671 231.145C80.8539 231.145 81.1475 231.256 81.348 231.478C81.5485 231.7 81.6488 231.972 81.6488 232.294C81.6488 232.616 81.5485 232.885 81.348 233.1C81.1475 233.314 80.8539 233.422 80.4671 233.422C80.0804 233.422 79.7868 233.314 79.5863 233.1C79.3929 232.885 79.2962 232.616 79.2962 232.294ZM89.6427 243.917C89.6427 243.38 89.4386 242.965 89.0304 242.671C88.6294 242.37 87.924 242.112 86.9142 241.897C85.9116 241.683 85.1131 241.425 84.5187 241.124C83.9314 240.823 83.4946 240.465 83.2081 240.05C82.9288 239.634 82.7892 239.14 82.7892 238.567C82.7892 237.615 83.1902 236.809 83.9923 236.15C84.8016 235.492 85.8328 235.162 87.0861 235.162C88.4038 235.162 89.4708 235.502 90.2872 236.183C91.1108 236.863 91.5226 237.733 91.5226 238.793H89.5245C89.5245 238.249 89.2918 237.78 88.8263 237.386C88.368 236.992 87.7879 236.795 87.0861 236.795C86.3628 236.795 85.797 236.952 85.3888 237.268C84.9806 237.583 84.7765 237.994 84.7765 238.503C84.7765 238.983 84.9663 239.344 85.3458 239.588C85.7254 239.831 86.4093 240.064 87.3976 240.286C88.393 240.508 89.1987 240.773 89.8146 241.081C90.4305 241.389 90.8852 241.761 91.1788 242.198C91.4796 242.628 91.63 243.154 91.63 243.777C91.63 244.816 91.2146 245.65 90.3839 246.28C89.5532 246.903 88.4754 247.215 87.1505 247.215C86.2195 247.215 85.396 247.05 84.6798 246.721C83.9637 246.391 83.4015 245.933 82.9933 245.346C82.5922 244.751 82.3917 244.11 82.3917 243.423H84.379C84.4148 244.089 84.6798 244.619 85.174 245.013C85.6753 245.399 86.3341 245.593 87.1505 245.593C87.9025 245.593 88.504 245.442 88.9552 245.142C89.4135 244.834 89.6427 244.425 89.6427 243.917ZM94.328 245.378H101.128V247H91.9003V245.539L98.3134 237.021H91.9969V235.377H100.806V236.784L94.328 245.378ZM104.309 232.562V235.377H106.479V236.913H104.309V244.121C104.309 244.587 104.406 244.938 104.599 245.174C104.793 245.403 105.122 245.518 105.588 245.518C105.817 245.518 106.132 245.475 106.533 245.389V247C106.01 247.143 105.502 247.215 105.007 247.215C104.119 247.215 103.45 246.946 102.999 246.409C102.548 245.872 102.322 245.109 102.322 244.121V236.913H100.206V235.377H102.322V232.562H104.309ZM109.209 247H107.222V235.377H109.209V247ZM107.061 232.294C107.061 231.972 107.158 231.7 107.351 231.478C107.551 231.256 107.845 231.145 108.232 231.145C108.619 231.145 108.912 231.256 109.113 231.478C109.313 231.7 109.413 231.972 109.413 232.294C109.413 232.616 109.313 232.885 109.113 233.1C108.912 233.314 108.619 233.422 108.232 233.422C107.845 233.422 107.551 233.314 107.351 233.1C107.158 232.885 107.061 232.616 107.061 232.294ZM113.884 241.618L112.638 242.918V247H110.651V230.5H112.638V240.479L113.701 239.201L117.321 235.377H119.738L115.216 240.232L120.265 247H117.934L113.884 241.618ZM127.206 247C127.091 246.771 126.998 246.363 126.927 245.775C126.003 246.735 124.9 247.215 123.618 247.215C122.472 247.215 121.531 246.893 120.793 246.248C120.062 245.596 119.697 244.773 119.697 243.777C119.697 242.567 120.156 241.629 121.072 240.963C121.996 240.29 123.292 239.953 124.961 239.953H126.894V239.04C126.894 238.345 126.687 237.794 126.271 237.386C125.856 236.97 125.244 236.763 124.434 236.763C123.726 236.763 123.131 236.942 122.651 237.3C122.171 237.658 121.932 238.091 121.932 238.6H119.934C119.934 238.02 120.138 237.461 120.546 236.924C120.961 236.38 121.52 235.95 122.222 235.635C122.931 235.32 123.708 235.162 124.553 235.162C125.892 235.162 126.941 235.499 127.7 236.172C128.459 236.838 128.853 237.758 128.882 238.933V244.282C128.882 245.349 129.018 246.198 129.29 246.828V247H127.206ZM123.908 245.485C124.531 245.485 125.122 245.324 125.681 245.002C126.239 244.68 126.644 244.261 126.894 243.745V241.36H125.337C122.902 241.36 121.684 242.073 121.684 243.498C121.684 244.121 121.892 244.608 122.308 244.959C122.723 245.31 123.256 245.485 123.908 245.485ZM125.745 230.5H128.151L125.272 233.658H123.672L125.745 230.5ZM133.481 241.618L132.235 242.918V247H130.248V230.5H132.235V240.479L133.299 239.201L136.919 235.377H139.336L134.813 240.232L139.862 247H137.531L133.481 241.618ZM39.5953 273C39.4807 272.771 39.3876 272.363 39.316 271.775C38.3921 272.735 37.2893 273.215 36.0074 273.215C34.8615 273.215 33.9198 272.893 33.1822 272.248C32.4517 271.596 32.0865 270.773 32.0865 269.777C32.0865 268.567 32.5448 267.629 33.4615 266.963C34.3853 266.29 35.6815 265.953 37.3502 265.953H39.2837V265.04C39.2837 264.345 39.0761 263.794 38.6607 263.386C38.2453 262.97 37.633 262.763 36.8238 262.763C36.1148 262.763 35.5204 262.942 35.0406 263.3C34.5608 263.658 34.3209 264.091 34.3209 264.6H32.3228C32.3228 264.02 32.5269 263.461 32.9351 262.924C33.3505 262.38 33.9091 261.95 34.6109 261.635C35.3199 261.32 36.0969 261.162 36.942 261.162C38.2811 261.162 39.3303 261.499 40.0894 262.172C40.8485 262.838 41.2424 263.758 41.2711 264.933V270.282C41.2711 271.349 41.4071 272.198 41.6793 272.828V273H39.5953ZM36.2974 271.485C36.9205 271.485 37.5113 271.324 38.0699 271.002C38.6285 270.68 39.0331 270.261 39.2837 269.745V267.36H37.7261C35.2912 267.36 34.0738 268.073 34.0738 269.498C34.0738 270.121 34.2815 270.608 34.6968 270.959C35.1122 271.31 35.6457 271.485 36.2974 271.485ZM42.1429 267.092C42.1429 265.309 42.5654 263.876 43.4105 262.795C44.2555 261.706 45.362 261.162 46.7298 261.162C48.0905 261.162 49.1683 261.628 49.9632 262.559V256.5H51.9505V273H50.1243L50.0277 271.754C49.2327 272.728 48.1263 273.215 46.7083 273.215C45.362 273.215 44.2627 272.663 43.4105 271.561C42.5654 270.458 42.1429 269.018 42.1429 267.242V267.092ZM44.1302 267.317C44.1302 268.635 44.4023 269.666 44.9466 270.411C45.4909 271.156 46.2428 271.528 47.2025 271.528C48.4629 271.528 49.3831 270.963 49.9632 269.831V264.492C49.3688 263.396 48.4557 262.849 47.2239 262.849C46.25 262.849 45.4909 263.225 44.9466 263.977C44.4023 264.729 44.1302 265.842 44.1302 267.317ZM60.46 273C60.3455 272.771 60.2524 272.363 60.1807 271.775C59.2569 272.735 58.154 273.215 56.8721 273.215C55.7263 273.215 54.7846 272.893 54.047 272.248C53.3165 271.596 52.9512 270.773 52.9512 269.777C52.9512 268.567 53.4096 267.629 54.3262 266.963C55.2501 266.29 56.5463 265.953 58.2149 265.953H60.1485V265.04C60.1485 264.345 59.9408 263.794 59.5255 263.386C59.1101 262.97 58.4978 262.763 57.6886 262.763C56.9796 262.763 56.3852 262.942 55.9053 263.3C55.4255 263.658 55.1856 264.091 55.1856 264.6H53.1876C53.1876 264.02 53.3917 263.461 53.7999 262.924C54.2152 262.38 54.7738 261.95 55.4757 261.635C56.1846 261.32 56.9617 261.162 57.8067 261.162C59.1459 261.162 60.1951 261.499 60.9542 262.172C61.7133 262.838 62.1072 263.758 62.1358 264.933V270.282C62.1358 271.349 62.2719 272.198 62.544 272.828V273H60.46ZM57.1622 271.485C57.7852 271.485 58.3761 271.324 58.9346 271.002C59.4932 270.68 59.8979 270.261 60.1485 269.745V267.36H58.5909C56.156 267.36 54.9386 268.073 54.9386 269.498C54.9386 270.121 55.1462 270.608 55.5616 270.959C55.977 271.31 56.5105 271.485 57.1622 271.485ZM66.1873 258.562V261.377H68.3573V262.913H66.1873V270.121C66.1873 270.587 66.284 270.938 66.4774 271.174C66.6707 271.403 67.0002 271.518 67.4657 271.518C67.6948 271.518 68.0099 271.475 68.411 271.389V273C67.8882 273.143 67.3797 273.215 66.8856 273.215C65.9976 273.215 65.328 272.946 64.8768 272.409C64.4256 271.872 64.2 271.109 64.2 270.121V262.913H62.0838V261.377H64.2V258.562H66.1873ZM78.7682 267.317C78.7682 269.093 78.36 270.522 77.5435 271.604C76.7271 272.678 75.6314 273.215 74.2564 273.215C72.7883 273.215 71.6532 272.696 70.8512 271.657L70.7545 273H68.9283V256.5H70.9156V262.655C71.7177 261.66 72.8241 261.162 74.235 261.162C75.6458 261.162 76.7522 261.696 77.5543 262.763C78.3635 263.83 78.7682 265.291 78.7682 267.146V267.317ZM76.7809 267.092C76.7809 265.738 76.5195 264.693 75.9967 263.955C75.4739 263.217 74.7219 262.849 73.7408 262.849C72.4303 262.849 71.4885 263.457 70.9156 264.675V269.702C71.5243 270.92 72.4732 271.528 73.7623 271.528C74.7148 271.528 75.456 271.16 75.9859 270.422C76.5159 269.684 76.7809 268.574 76.7809 267.092ZM86.6976 273C86.583 272.771 86.4899 272.363 86.4183 271.775C85.4945 272.735 84.3916 273.215 83.1097 273.215C81.9639 273.215 81.0222 272.893 80.2845 272.248C79.5541 271.596 79.1888 270.773 79.1888 269.777C79.1888 268.567 79.6472 267.629 80.5638 266.963C81.4877 266.29 82.7839 265.953 84.4525 265.953H86.3861V265.04C86.3861 264.345 86.1784 263.794 85.763 263.386C85.3477 262.97 84.7354 262.763 83.9261 262.763C83.2171 262.763 82.6227 262.942 82.1429 263.3C81.6631 263.658 81.4232 264.091 81.4232 264.6H79.4252C79.4252 264.02 79.6293 263.461 80.0375 262.924C80.4528 262.38 81.0114 261.95 81.7132 261.635C82.4222 261.32 83.1992 261.162 84.0443 261.162C85.3835 261.162 86.4326 261.499 87.1918 262.172C87.9509 262.838 88.3448 263.758 88.3734 264.933V270.282C88.3734 271.349 88.5095 272.198 88.7816 272.828V273H86.6976ZM83.3998 271.485C84.0228 271.485 84.6136 271.324 85.1722 271.002C85.7308 270.68 86.1354 270.261 86.3861 269.745V267.36H84.8285C82.3936 267.36 81.1761 268.073 81.1761 269.498C81.1761 270.121 81.3838 270.608 81.7992 270.959C82.2145 271.31 82.7481 271.485 83.3998 271.485ZM85.2367 256.5H87.6429L84.764 259.658H83.1634L85.2367 256.5ZM91.5978 271.378H98.3976V273H89.17V271.539L95.5831 263.021H89.2667V261.377H98.0753V262.784L91.5978 271.378ZM101.042 273H99.0546V261.377H101.042V273ZM98.8934 258.294C98.8934 257.972 98.9901 257.7 99.1835 257.478C99.384 257.256 99.6776 257.145 100.064 257.145C100.451 257.145 100.745 257.256 100.945 257.478C101.146 257.7 101.246 257.972 101.246 258.294C101.246 258.616 101.146 258.885 100.945 259.1C100.745 259.314 100.451 259.422 100.064 259.422C99.6776 259.422 99.384 259.314 99.1835 259.1C98.9901 258.885 98.8934 258.616 98.8934 258.294ZM109.24 269.917C109.24 269.38 109.036 268.965 108.628 268.671C108.227 268.37 107.521 268.112 106.511 267.897C105.509 267.683 104.71 267.425 104.116 267.124C103.529 266.823 103.092 266.465 102.805 266.05C102.526 265.634 102.386 265.14 102.386 264.567C102.386 263.615 102.787 262.809 103.589 262.15C104.399 261.492 105.43 261.162 106.683 261.162C108.001 261.162 109.068 261.502 109.884 262.183C110.708 262.863 111.12 263.733 111.12 264.793H109.122C109.122 264.249 108.889 263.78 108.423 263.386C107.965 262.992 107.385 262.795 106.683 262.795C105.96 262.795 105.394 262.952 104.986 263.268C104.578 263.583 104.374 263.994 104.374 264.503C104.374 264.983 104.563 265.344 104.943 265.588C105.323 265.831 106.006 266.064 106.995 266.286C107.99 266.508 108.796 266.773 109.412 267.081C110.028 267.389 110.482 267.761 110.776 268.198C111.077 268.628 111.227 269.154 111.227 269.777C111.227 270.816 110.812 271.65 109.981 272.28C109.15 272.903 108.073 273.215 106.748 273.215C105.817 273.215 104.993 273.05 104.277 272.721C103.561 272.391 102.999 271.933 102.59 271.346C102.189 270.751 101.989 270.11 101.989 269.423H103.976C104.012 270.089 104.277 270.619 104.771 271.013C105.272 271.399 105.931 271.593 106.748 271.593C107.5 271.593 108.101 271.442 108.552 271.142C109.011 270.834 109.24 270.425 109.24 269.917ZM119.232 273C119.117 272.771 119.024 272.363 118.953 271.775C118.029 272.735 116.926 273.215 115.644 273.215C114.498 273.215 113.556 272.893 112.819 272.248C112.088 271.596 111.723 270.773 111.723 269.777C111.723 268.567 112.181 267.629 113.098 266.963C114.022 266.29 115.318 265.953 116.987 265.953H118.92V265.04C118.92 264.345 118.713 263.794 118.297 263.386C117.882 262.97 117.27 262.763 116.46 262.763C115.751 262.763 115.157 262.942 114.677 263.3C114.197 263.658 113.957 264.091 113.957 264.6H111.959C111.959 264.02 112.163 263.461 112.572 262.924C112.987 262.38 113.546 261.95 114.247 261.635C114.956 261.32 115.733 261.162 116.579 261.162C117.918 261.162 118.967 261.499 119.726 262.172C120.485 262.838 120.879 263.758 120.908 264.933V270.282C120.908 271.349 121.044 272.198 121.316 272.828V273H119.232ZM115.934 271.485C116.557 271.485 117.148 271.324 117.706 271.002C118.265 270.68 118.67 270.261 118.92 269.745V267.36H117.363C114.928 267.36 113.71 268.073 113.71 269.498C113.71 270.121 113.918 270.608 114.333 270.959C114.749 271.31 115.282 271.485 115.934 271.485ZM124.422 273H122.435V261.377H124.422V273ZM122.274 258.294C122.274 257.972 122.37 257.7 122.564 257.478C122.764 257.256 123.058 257.145 123.444 257.145C123.831 257.145 124.125 257.256 124.325 257.478C124.526 257.7 124.626 257.972 124.626 258.294C124.626 258.616 124.526 258.885 124.325 259.1C124.125 259.314 123.831 259.422 123.444 259.422C123.058 259.422 122.764 259.314 122.564 259.1C122.37 258.885 122.274 258.616 122.274 258.294ZM127.732 261.377L127.797 262.838C128.685 261.721 129.845 261.162 131.277 261.162C133.734 261.162 134.973 262.548 134.994 265.319V273H133.007V265.309C133 264.471 132.806 263.851 132.427 263.45C132.054 263.049 131.471 262.849 130.676 262.849C130.031 262.849 129.465 263.021 128.978 263.364C128.491 263.708 128.112 264.159 127.84 264.718V273H125.852V261.377H127.732ZM143.407 273C143.292 272.771 143.199 272.363 143.128 271.775C142.204 272.735 141.101 273.215 139.819 273.215C138.673 273.215 137.731 272.893 136.994 272.248C136.263 271.596 135.898 270.773 135.898 269.777C135.898 268.567 136.356 267.629 137.273 266.963C138.197 266.29 139.493 265.953 141.162 265.953H143.095V265.04C143.095 264.345 142.888 263.794 142.472 263.386C142.057 262.97 141.445 262.763 140.635 262.763C139.926 262.763 139.332 262.942 138.852 263.3C138.372 263.658 138.132 264.091 138.132 264.6H136.134C136.134 264.02 136.339 263.461 136.747 262.924C137.162 262.38 137.721 261.95 138.423 261.635C139.132 261.32 139.909 261.162 140.754 261.162C142.093 261.162 143.142 261.499 143.901 262.172C144.66 262.838 145.054 263.758 145.083 264.933V270.282C145.083 271.349 145.219 272.198 145.491 272.828V273H143.407ZM140.109 271.485C140.732 271.485 141.323 271.324 141.882 271.002C142.44 270.68 142.845 270.261 143.095 269.745V267.36H141.538C139.103 267.36 137.885 268.073 137.885 269.498C137.885 270.121 138.093 270.608 138.508 270.959C138.924 271.31 139.457 271.485 140.109 271.485ZM149.682 267.618L148.436 268.918V273H146.449V256.5H148.436V266.479L149.499 265.201L153.12 261.377H155.537L151.014 266.232L156.063 273H153.732L149.682 267.618ZM30.3643 284.562V287.377H32.5342V288.913H30.3643V296.121C30.3643 296.587 30.461 296.938 30.6543 297.174C30.8477 297.403 31.1771 297.518 31.6426 297.518C31.8718 297.518 32.1869 297.475 32.5879 297.389V299C32.0651 299.143 31.5567 299.215 31.0625 299.215C30.1745 299.215 29.5049 298.946 29.0537 298.409C28.6026 297.872 28.377 297.109 28.377 296.121V288.913H26.2608V287.377H28.377V284.562H30.3643ZM37.9285 299.215C36.353 299.215 35.0711 298.699 34.0828 297.668C33.0945 296.63 32.6004 295.244 32.6004 293.511V293.146C32.6004 291.993 32.8188 290.965 33.2557 290.062C33.6997 289.153 34.3156 288.444 35.1033 287.936C35.8982 287.42 36.7576 287.162 37.6814 287.162C39.1925 287.162 40.367 287.66 41.2049 288.655C42.0428 289.651 42.4617 291.076 42.4617 292.931V293.758H34.5877C34.6163 294.904 34.9493 295.831 35.5867 296.54C36.2312 297.242 37.0477 297.593 38.0359 297.593C38.7378 297.593 39.3322 297.45 39.8191 297.163C40.3061 296.877 40.7322 296.497 41.0975 296.024L42.3113 296.97C41.3374 298.466 39.8764 299.215 37.9285 299.215ZM37.6814 288.795C36.8794 288.795 36.2062 289.089 35.6619 289.676C35.1176 290.256 34.7811 291.072 34.6521 292.125H40.4744V291.975C40.4171 290.965 40.145 290.184 39.658 289.633C39.171 289.074 38.5122 288.795 37.6814 288.795ZM48.6295 289.16C48.3287 289.11 48.0028 289.085 47.6519 289.085C46.3485 289.085 45.4641 289.64 44.9986 290.75V299H43.0113V287.377H44.9449L44.9771 288.72C45.6288 287.681 46.5526 287.162 47.7486 287.162C48.1353 287.162 48.4289 287.212 48.6295 287.312V289.16ZM55.8821 297.851C55.1087 298.76 53.9736 299.215 52.4769 299.215C51.2379 299.215 50.2926 298.857 49.6409 298.141C48.9964 297.417 48.6706 296.35 48.6634 294.939V287.377H50.6507V294.886C50.6507 296.647 51.3668 297.528 52.7991 297.528C54.3174 297.528 55.3271 296.963 55.8284 295.831V287.377H57.8157V299H55.9251L55.8821 297.851ZM49.8343 284.272C49.8343 283.95 49.931 283.682 50.1243 283.467C50.3249 283.245 50.6185 283.134 51.0052 283.134C51.3919 283.134 51.6855 283.245 51.8861 283.467C52.0866 283.682 52.1868 283.95 52.1868 284.272C52.1868 284.595 52.0866 284.863 51.8861 285.078C51.6855 285.293 51.3919 285.4 51.0052 285.4C50.6185 285.4 50.3249 285.293 50.1243 285.078C49.931 284.863 49.8343 284.595 49.8343 284.272ZM54.4534 284.294C54.4534 283.972 54.5501 283.7 54.7435 283.478C54.944 283.256 55.2376 283.145 55.6243 283.145C56.0111 283.145 56.3047 283.256 56.5052 283.478C56.7057 283.7 56.806 283.972 56.806 284.294C56.806 284.616 56.7057 284.885 56.5052 285.1C56.3047 285.314 56.0111 285.422 55.6243 285.422C55.2376 285.422 54.944 285.314 54.7435 285.1C54.5501 284.885 54.4534 284.616 54.4534 284.294ZM61.2442 299H59.2569V282.5H61.2442V299ZM67.4979 299.215C65.9224 299.215 64.6405 298.699 63.6522 297.668C62.6639 296.63 62.1698 295.244 62.1698 293.511V293.146C62.1698 291.993 62.3882 290.965 62.825 290.062C63.269 289.153 63.8849 288.444 64.6727 287.936C65.4676 287.42 66.327 287.162 67.2508 287.162C68.7619 287.162 69.9364 287.66 70.7743 288.655C71.6121 289.651 72.0311 291.076 72.0311 292.931V293.758H64.1571C64.1857 294.904 64.5187 295.831 65.1561 296.54C65.8006 297.242 66.617 297.593 67.6053 297.593C68.3071 297.593 68.9015 297.45 69.3885 297.163C69.8755 296.877 70.3016 296.497 70.6668 296.024L71.8807 296.97C70.9067 298.466 69.4458 299.215 67.4979 299.215ZM67.2508 288.795C66.4487 288.795 65.7756 289.089 65.2313 289.676C64.687 290.256 64.3504 291.072 64.2215 292.125H70.0438V291.975C69.9865 290.965 69.7144 290.184 69.2274 289.633C68.7404 289.074 68.0815 288.795 67.2508 288.795ZM75.2769 284.562V287.377H77.4469V288.913H75.2769V296.121C75.2769 296.587 75.3736 296.938 75.567 297.174C75.7603 297.403 76.0898 297.518 76.5553 297.518C76.7844 297.518 77.0995 297.475 77.5006 297.389V299C76.9778 299.143 76.4693 299.215 75.9752 299.215C75.0872 299.215 74.4176 298.946 73.9664 298.409C73.5152 297.872 73.2896 297.109 73.2896 296.121V288.913H71.1734V287.377H73.2896V284.562H75.2769ZM80.1771 299H78.1898V287.377H80.1771V299ZM78.0287 284.294C78.0287 283.972 78.1254 283.7 78.3187 283.478C78.5192 283.256 78.8129 283.145 79.1996 283.145C79.5863 283.145 79.8799 283.256 80.0804 283.478C80.2809 283.7 80.3812 283.972 80.3812 284.294C80.3812 284.616 80.2809 284.885 80.0804 285.1C79.8799 285.314 79.5863 285.422 79.1996 285.422C78.8129 285.422 78.5192 285.314 78.3187 285.1C78.1254 284.885 78.0287 284.616 78.0287 284.294ZM92.4803 299C92.3658 298.771 92.2727 298.363 92.201 297.775C91.2772 298.735 90.1744 299.215 88.8925 299.215C87.7466 299.215 86.8049 298.893 86.0673 298.248C85.3368 297.596 84.9716 296.773 84.9716 295.777C84.9716 294.567 85.4299 293.629 86.3466 292.963C87.2704 292.29 88.5666 291.953 90.2352 291.953H92.1688V291.04C92.1688 290.345 91.9611 289.794 91.5458 289.386C91.1304 288.97 90.5181 288.763 89.7089 288.763C88.9999 288.763 88.4055 288.942 87.9257 289.3C87.4458 289.658 87.2059 290.091 87.2059 290.6H85.2079C85.2079 290.02 85.412 289.461 85.8202 288.924C86.2356 288.38 86.7941 287.95 87.496 287.635C88.205 287.32 88.982 287.162 89.827 287.162C91.1662 287.162 92.2154 287.499 92.9745 288.172C93.7336 288.838 94.1275 289.758 94.1561 290.933V296.282C94.1561 297.349 94.2922 298.198 94.5643 298.828V299H92.4803ZM89.1825 297.485C89.8055 297.485 90.3964 297.324 90.955 297.002C91.5135 296.68 91.9182 296.261 92.1688 295.745V293.36H90.6112C88.1763 293.36 86.9589 294.073 86.9589 295.498C86.9589 296.121 87.1665 296.608 87.5819 296.959C87.9973 297.31 88.5308 297.485 89.1825 297.485ZM95.028 293.092C95.028 291.309 95.4505 289.876 96.2955 288.795C97.1406 287.706 98.247 287.162 99.6149 287.162C100.976 287.162 102.053 287.628 102.848 288.559V282.5H104.836V299H103.009L102.913 297.754C102.118 298.728 101.011 299.215 99.5934 299.215C98.247 299.215 97.1478 298.663 96.2955 297.561C95.4505 296.458 95.028 295.018 95.028 293.242V293.092ZM97.0153 293.317C97.0153 294.635 97.2874 295.666 97.8317 296.411C98.376 297.156 99.1279 297.528 100.088 297.528C101.348 297.528 102.268 296.963 102.848 295.831V290.492C102.254 289.396 101.341 288.849 100.109 288.849C99.1351 288.849 98.376 289.225 97.8317 289.977C97.2874 290.729 97.0153 291.842 97.0153 293.317ZM113.345 299C113.231 298.771 113.137 298.363 113.066 297.775C112.142 298.735 111.039 299.215 109.757 299.215C108.611 299.215 107.67 298.893 106.932 298.248C106.202 297.596 105.836 296.773 105.836 295.777C105.836 294.567 106.295 293.629 107.211 292.963C108.135 292.29 109.431 291.953 111.1 291.953H113.034V291.04C113.034 290.345 112.826 289.794 112.411 289.386C111.995 288.97 111.383 288.763 110.574 288.763C109.865 288.763 109.27 288.942 108.79 289.3C108.311 289.658 108.071 290.091 108.071 290.6H106.073C106.073 290.02 106.277 289.461 106.685 288.924C107.1 288.38 107.659 287.95 108.361 287.635C109.07 287.32 109.847 287.162 110.692 287.162C112.031 287.162 113.08 287.499 113.839 288.172C114.598 288.838 114.992 289.758 115.021 290.933V296.282C115.021 297.349 115.157 298.198 115.429 298.828V299H113.345ZM110.047 297.485C110.67 297.485 111.261 297.324 111.82 297.002C112.378 296.68 112.783 296.261 113.034 295.745V293.36H111.476C109.041 293.36 107.824 294.073 107.824 295.498C107.824 296.121 108.031 296.608 108.447 296.959C108.862 297.31 109.396 297.485 110.047 297.485ZM119.072 284.562V287.377H121.242V288.913H119.072V296.121C119.072 296.587 119.169 296.938 119.362 297.174C119.556 297.403 119.885 297.518 120.351 297.518C120.58 297.518 120.895 297.475 121.296 297.389V299C120.773 299.143 120.265 299.215 119.771 299.215C118.883 299.215 118.213 298.946 117.762 298.409C117.311 297.872 117.085 297.109 117.085 296.121V288.913H114.969V287.377H117.085V284.562H119.072ZM128.989 299C128.875 298.771 128.781 298.363 128.71 297.775C127.786 298.735 126.683 299.215 125.401 299.215C124.255 299.215 123.314 298.893 122.576 298.248C121.846 297.596 121.48 296.773 121.48 295.777C121.48 294.567 121.939 293.629 122.855 292.963C123.779 292.29 125.075 291.953 126.744 291.953H128.678V291.04C128.678 290.345 128.47 289.794 128.055 289.386C127.639 288.97 127.027 288.763 126.218 288.763C125.509 288.763 124.914 288.942 124.434 289.3C123.955 289.658 123.715 290.091 123.715 290.6H121.717C121.717 290.02 121.921 289.461 122.329 288.924C122.744 288.38 123.303 287.95 124.005 287.635C124.714 287.32 125.491 287.162 126.336 287.162C127.675 287.162 128.724 287.499 129.483 288.172C130.242 288.838 130.636 289.758 130.665 290.933V296.282C130.665 297.349 130.801 298.198 131.073 298.828V299H128.989ZM125.691 297.485C126.314 297.485 126.905 297.324 127.464 297.002C128.022 296.68 128.427 296.261 128.678 295.745V293.36H127.12C124.685 293.36 123.468 294.073 123.468 295.498C123.468 296.121 123.675 296.608 124.091 296.959C124.506 297.31 125.04 297.485 125.691 297.485ZM134.179 299H132.192V287.377H134.179V299ZM132.031 284.294C132.031 283.972 132.128 283.7 132.321 283.478C132.522 283.256 132.815 283.145 133.202 283.145C133.589 283.145 133.882 283.256 134.083 283.478C134.283 283.7 134.383 283.972 134.383 284.294C134.383 284.616 134.283 284.885 134.083 285.1C133.882 285.314 133.589 285.422 133.202 285.422C132.815 285.422 132.522 285.314 132.321 285.1C132.128 284.885 132.031 284.616 132.031 284.294ZM145.45 293.317C145.45 295.093 145.041 296.522 144.225 297.604C143.409 298.678 142.313 299.215 140.938 299.215C139.47 299.215 138.335 298.696 137.533 297.657L137.436 299H135.61V282.5H137.597V288.655C138.399 287.66 139.506 287.162 140.916 287.162C142.327 287.162 143.434 287.696 144.236 288.763C145.045 289.83 145.45 291.291 145.45 293.146V293.317ZM143.462 293.092C143.462 291.738 143.201 290.693 142.678 289.955C142.155 289.217 141.403 288.849 140.422 288.849C139.112 288.849 138.17 289.457 137.597 290.675V295.702C138.206 296.92 139.155 297.528 140.444 297.528C141.396 297.528 142.137 297.16 142.667 296.422C143.197 295.684 143.462 294.574 143.462 293.092ZM145.677 293.081C145.677 291.942 145.899 290.918 146.343 290.009C146.794 289.099 147.417 288.397 148.212 287.903C149.014 287.409 149.927 287.162 150.951 287.162C152.534 287.162 153.812 287.71 154.786 288.806C155.767 289.901 156.258 291.359 156.258 293.178V293.317C156.258 294.449 156.04 295.466 155.603 296.368C155.173 297.263 154.554 297.962 153.744 298.463C152.942 298.964 152.018 299.215 150.973 299.215C149.397 299.215 148.119 298.667 147.138 297.571C146.164 296.476 145.677 295.025 145.677 293.221V293.081ZM147.675 293.317C147.675 294.606 147.972 295.641 148.567 296.422C149.168 297.202 149.97 297.593 150.973 297.593C151.983 297.593 152.785 297.199 153.379 296.411C153.973 295.616 154.271 294.506 154.271 293.081C154.271 291.806 153.966 290.775 153.358 289.987C152.756 289.192 151.954 288.795 150.951 288.795C149.97 288.795 149.179 289.185 148.577 289.966C147.976 290.746 147.675 291.864 147.675 293.317ZM151.854 282.5H154.26L151.381 285.658H149.78L151.854 282.5ZM159.149 299H157.162V282.5H159.149V299Z" fill="#ECE7DD"/>
</svg>
