<svg width="187" height="479" viewBox="0 0 187 479" fill="none" xmlns="http://www.w3.org/2000/svg">
<rect x="0.457031" y="0.160156" width="186.094" height="477.922" fill="#593C0F"/>
<path d="M64.1587 393.226H60.2739V404H58.6885V393.226H54.812V391.914H64.1587V393.226ZM75.0161 398.347C75.0161 399.531 74.8169 400.566 74.4185 401.452C74.02 402.332 73.4556 403.004 72.7251 403.469C71.9946 403.934 71.1424 404.166 70.1685 404.166C69.2166 404.166 68.3727 403.934 67.6367 403.469C66.9007 402.998 66.328 402.332 65.9185 401.468C65.5145 400.599 65.307 399.595 65.2959 398.455V397.583C65.2959 396.421 65.4979 395.395 65.9019 394.504C66.3058 393.613 66.8758 392.932 67.6118 392.462C68.3534 391.986 69.2 391.748 70.1519 391.748C71.1203 391.748 71.9725 391.983 72.7085 392.454C73.45 392.918 74.02 393.596 74.4185 394.487C74.8169 395.373 75.0161 396.405 75.0161 397.583V398.347ZM73.4307 397.567C73.4307 396.134 73.1429 395.035 72.5674 394.271C71.9919 393.502 71.1867 393.118 70.1519 393.118C69.1447 393.118 68.3506 393.502 67.7695 394.271C67.194 395.035 66.8979 396.098 66.8813 397.459V398.347C66.8813 399.736 67.1719 400.829 67.7529 401.626C68.3395 402.417 69.1447 402.813 70.1685 402.813C71.1978 402.813 71.9946 402.439 72.5591 401.692C73.1235 400.94 73.4141 399.863 73.4307 398.463V397.567ZM81.2251 401.883L84.6782 391.914H86.4214L81.939 404H80.5278L76.0537 391.914H77.7886L81.2251 401.883ZM94.0913 400.846H89.0278L87.8906 404H86.2471L90.8623 391.914H92.2568L96.8804 404H95.2451L94.0913 400.846ZM89.5093 399.534H93.6182L91.5596 393.881L89.5093 399.534ZM92.3481 388.677H94.2075L91.9829 391.117H90.7461L92.3481 388.677ZM98.5073 404V391.914H102.458C103.77 391.914 104.755 392.185 105.414 392.728C106.078 393.27 106.41 394.072 106.41 395.135C106.41 395.699 106.249 396.2 105.928 396.637C105.607 397.069 105.17 397.404 104.617 397.642C105.27 397.824 105.784 398.173 106.161 398.688C106.542 399.197 106.733 399.805 106.733 400.514C106.733 401.598 106.382 402.451 105.679 403.07C104.976 403.69 103.983 404 102.699 404H98.5073ZM100.101 398.347V402.697H102.732C103.474 402.697 104.058 402.506 104.484 402.124C104.916 401.737 105.131 401.205 105.131 400.53C105.131 399.075 104.34 398.347 102.757 398.347H100.101ZM100.101 397.069H102.508C103.206 397.069 103.762 396.895 104.177 396.546C104.597 396.197 104.808 395.724 104.808 395.126C104.808 394.462 104.614 393.981 104.227 393.682C103.839 393.378 103.25 393.226 102.458 393.226H100.101V397.069ZM109.099 404V391.914H113.05C114.362 391.914 115.347 392.185 116.005 392.728C116.669 393.27 117.001 394.072 117.001 395.135C117.001 395.699 116.841 396.2 116.52 396.637C116.199 397.069 115.762 397.404 115.208 397.642C115.861 397.824 116.376 398.173 116.752 398.688C117.134 399.197 117.325 399.805 117.325 400.514C117.325 401.598 116.974 402.451 116.271 403.07C115.568 403.69 114.575 404 113.291 404H109.099ZM110.693 398.347V402.697H113.324C114.066 402.697 114.65 402.506 115.076 402.124C115.507 401.737 115.723 401.205 115.723 400.53C115.723 399.075 114.932 398.347 113.349 398.347H110.693ZM110.693 397.069H113.1C113.797 397.069 114.354 396.895 114.769 396.546C115.189 396.197 115.399 395.724 115.399 395.126C115.399 394.462 115.206 393.981 114.818 393.682C114.431 393.378 113.842 393.226 113.05 393.226H110.693V397.069ZM130.582 400.846H125.518L124.381 404H122.737L127.353 391.914H128.747L133.371 404H131.735L130.582 400.846ZM126 399.534H130.108L128.05 393.881L126 399.534ZM52.7451 414.164H49.1177V424H46.2041V414.164H42.6431V411.914H52.7451V414.164ZM61.4775 418.878H56.8955V421.759H62.3076V424H53.9819V411.914H62.3242V414.164H56.8955V416.712H61.4775V418.878ZM58.7632 408.677H61.7183L59.4106 411.283H57.1279L58.7632 408.677ZM67.9854 419.733H66.4082V424H63.4946V411.914H68.251C69.6842 411.914 70.8049 412.232 71.6128 412.869C72.4207 413.505 72.8247 414.404 72.8247 415.566C72.8247 416.408 72.6532 417.105 72.3101 417.658C71.9725 418.212 71.4412 418.66 70.7163 419.003L73.2397 423.875V424H70.1187L67.9854 419.733ZM66.4082 417.484H68.251C68.8044 417.484 69.2194 417.34 69.4961 417.052C69.7783 416.759 69.9194 416.352 69.9194 415.832C69.9194 415.312 69.7783 414.905 69.4961 414.612C69.2139 414.313 68.7988 414.164 68.251 414.164H66.4082V417.484ZM78.6934 419.501L77.498 420.812V424H74.5845V411.914H77.498V417.243L78.5107 415.708L81.1172 411.914H84.7197L80.6357 417.26L84.7197 424H81.2666L78.6934 419.501ZM92.9541 418.878H88.3721V421.759H93.7842V424H85.4585V411.914H93.8008V414.164H88.3721V416.712H92.9541V418.878ZM90.2397 408.677H93.1948L90.8872 411.283H88.6045L90.2397 408.677ZM97.8848 419.899V424H94.9712V411.914H99.7939C100.718 411.914 101.534 412.086 102.243 412.429C102.957 412.766 103.507 413.25 103.895 413.881C104.287 414.507 104.484 415.218 104.484 416.015C104.484 417.193 104.061 418.137 103.214 418.845C102.373 419.548 101.216 419.899 99.7441 419.899H97.8848ZM97.8848 417.65H99.7939C100.358 417.65 100.787 417.509 101.081 417.227C101.379 416.944 101.529 416.546 101.529 416.031C101.529 415.467 101.377 415.016 101.072 414.678C100.768 414.341 100.353 414.169 99.8271 414.164H97.8848V417.65ZM113.54 418.878H108.958V421.759H114.37V424H106.044V411.914H114.387V414.164H108.958V416.712H113.54V418.878ZM119.666 419.501L118.471 420.812V424H115.557V411.914H118.471V417.243L119.483 415.708L122.09 411.914H125.692L121.608 417.26L125.692 424H122.239L119.666 419.501ZM131.354 419.111H128.515V424H126.913V411.914H130.914C132.275 411.914 133.321 412.224 134.051 412.844C134.787 413.464 135.155 414.366 135.155 415.55C135.155 416.302 134.951 416.958 134.541 417.517C134.137 418.076 133.573 418.494 132.848 418.771L135.687 423.9V424H133.977L131.354 419.111ZM128.515 417.808H130.963C131.755 417.808 132.383 417.603 132.848 417.193C133.318 416.784 133.553 416.236 133.553 415.55C133.553 414.803 133.329 414.23 132.881 413.832C132.438 413.433 131.796 413.231 130.955 413.226H128.515V417.808ZM144.228 418.414H138.99V422.697H145.075V424H137.396V411.914H144.992V413.226H138.99V417.11H144.228V418.414Z" fill="#ECE7DD"/>
<path d="M23.4844 204H21.1406V192.625H23.4844V204ZM27.5938 195.547L27.6641 196.523C28.2682 195.768 29.0781 195.391 30.0938 195.391C30.9896 195.391 31.6562 195.654 32.0938 196.18C32.5312 196.706 32.7552 197.492 32.7656 198.539V204H30.5078V198.594C30.5078 198.115 30.4036 197.768 30.1953 197.555C29.987 197.336 29.6406 197.227 29.1562 197.227C28.5208 197.227 28.0443 197.497 27.7266 198.039V204H25.4688V195.547H27.5938ZM37.1875 193.469V195.547H38.6328V197.203H37.1875V201.422C37.1875 201.734 37.2474 201.958 37.3672 202.094C37.487 202.229 37.7161 202.297 38.0547 202.297C38.3047 202.297 38.526 202.279 38.7188 202.242V203.953C38.276 204.089 37.8203 204.156 37.3516 204.156C35.7682 204.156 34.9609 203.357 34.9297 201.758V197.203H33.6953V195.547H34.9297V193.469H37.1875ZM43.7812 204.156C42.5417 204.156 41.5312 203.776 40.75 203.016C39.974 202.255 39.5859 201.242 39.5859 199.977V199.758C39.5859 198.909 39.75 198.151 40.0781 197.484C40.4062 196.812 40.8698 196.297 41.4688 195.938C42.0729 195.573 42.7604 195.391 43.5312 195.391C44.6875 195.391 45.5964 195.755 46.2578 196.484C46.9245 197.214 47.2578 198.247 47.2578 199.586V200.508H41.875C41.9479 201.06 42.1667 201.503 42.5312 201.836C42.901 202.169 43.3672 202.336 43.9297 202.336C44.7995 202.336 45.4792 202.021 45.9688 201.391L47.0781 202.633C46.7396 203.112 46.2812 203.487 45.7031 203.758C45.125 204.023 44.4844 204.156 43.7812 204.156ZM43.5234 197.219C43.0755 197.219 42.7109 197.37 42.4297 197.672C42.1536 197.974 41.9766 198.406 41.8984 198.969H45.0391V198.789C45.0286 198.289 44.8932 197.904 44.6328 197.633C44.3724 197.357 44.0026 197.219 43.5234 197.219ZM53.2969 197.664C52.9896 197.622 52.7188 197.602 52.4844 197.602C51.6302 197.602 51.0703 197.891 50.8047 198.469V204H48.5469V195.547H50.6797L50.7422 196.555C51.1953 195.779 51.8229 195.391 52.625 195.391C52.875 195.391 53.1094 195.424 53.3281 195.492L53.2969 197.664ZM59.0547 204C58.9505 203.797 58.875 203.544 58.8281 203.242C58.2812 203.852 57.5703 204.156 56.6953 204.156C55.8672 204.156 55.1797 203.917 54.6328 203.438C54.0911 202.958 53.8203 202.354 53.8203 201.625C53.8203 200.729 54.151 200.042 54.8125 199.562C55.4792 199.083 56.4401 198.841 57.6953 198.836H58.7344V198.352C58.7344 197.961 58.6328 197.648 58.4297 197.414C58.2318 197.18 57.9167 197.062 57.4844 197.062C57.1042 197.062 56.8047 197.154 56.5859 197.336C56.3724 197.518 56.2656 197.768 56.2656 198.086H54.0078C54.0078 197.596 54.1589 197.143 54.4609 196.727C54.763 196.31 55.1901 195.984 55.7422 195.75C56.2943 195.51 56.9141 195.391 57.6016 195.391C58.6432 195.391 59.4688 195.654 60.0781 196.18C60.6927 196.701 61 197.435 61 198.383V202.047C61.0052 202.849 61.1172 203.456 61.3359 203.867V204H59.0547ZM57.1875 202.43C57.5208 202.43 57.8281 202.357 58.1094 202.211C58.3906 202.06 58.599 201.859 58.7344 201.609V200.156H57.8906C56.7604 200.156 56.1589 200.547 56.0859 201.328L56.0781 201.461C56.0781 201.742 56.1771 201.974 56.375 202.156C56.5729 202.339 56.8438 202.43 57.1875 202.43ZM65.8047 200.609L64.9922 201.422V204H62.7344V192H64.9922V198.648L65.4297 198.086L67.5938 195.547H70.3047L67.25 199.07L70.5703 204H67.9766L65.8047 200.609ZM73.9844 193.469V195.547H75.4297V197.203H73.9844V201.422C73.9844 201.734 74.0443 201.958 74.1641 202.094C74.2839 202.229 74.513 202.297 74.8516 202.297C75.1016 202.297 75.3229 202.279 75.5156 202.242V203.953C75.0729 204.089 74.6172 204.156 74.1484 204.156C72.5651 204.156 71.7578 203.357 71.7266 201.758V197.203H70.4922V195.547H71.7266V193.469H73.9844ZM79.125 204H76.8672V195.547H79.125V204ZM78.4609 192.117H80.9219L78.7578 194.539H76.9219L78.4609 192.117ZM84.2422 201.242L85.8125 195.547H88.1719L85.3203 204H83.1641L80.3125 195.547H82.6719L84.2422 201.242ZM95.8594 193.469V195.547H97.3047V197.203H95.8594V201.422C95.8594 201.734 95.9193 201.958 96.0391 202.094C96.1589 202.229 96.388 202.297 96.7266 202.297C96.9766 202.297 97.1979 202.279 97.3906 202.242V203.953C96.9479 204.089 96.4922 204.156 96.0234 204.156C94.4401 204.156 93.6328 203.357 93.6016 201.758V197.203H92.3672V195.547H93.6016V193.469H95.8594ZM102.453 204.156C101.214 204.156 100.203 203.776 99.4219 203.016C98.6458 202.255 98.2578 201.242 98.2578 199.977V199.758C98.2578 198.909 98.4219 198.151 98.75 197.484C99.0781 196.812 99.5417 196.297 100.141 195.938C100.745 195.573 101.432 195.391 102.203 195.391C103.359 195.391 104.268 195.755 104.93 196.484C105.596 197.214 105.93 198.247 105.93 199.586V200.508H100.547C100.62 201.06 100.839 201.503 101.203 201.836C101.573 202.169 102.039 202.336 102.602 202.336C103.471 202.336 104.151 202.021 104.641 201.391L105.75 202.633C105.411 203.112 104.953 203.487 104.375 203.758C103.797 204.023 103.156 204.156 102.453 204.156ZM102.195 197.219C101.747 197.219 101.383 197.37 101.102 197.672C100.826 197.974 100.648 198.406 100.57 198.969H103.711V198.789C103.701 198.289 103.565 197.904 103.305 197.633C103.044 197.357 102.674 197.219 102.195 197.219ZM102.398 192H104.859L102.695 194.422H100.859L102.398 192ZM111.969 197.664C111.661 197.622 111.391 197.602 111.156 197.602C110.302 197.602 109.742 197.891 109.477 198.469V204H107.219V195.547H109.352L109.414 196.555C109.867 195.779 110.495 195.391 111.297 195.391C111.547 195.391 111.781 195.424 112 195.492L111.969 197.664ZM116.133 200.609L115.32 201.422V204H113.062V192H115.32V198.648L115.758 198.086L117.922 195.547H120.633L117.578 199.07L120.898 204H118.305L116.133 200.609ZM125.344 204.156C124.104 204.156 123.094 203.776 122.312 203.016C121.536 202.255 121.148 201.242 121.148 199.977V199.758C121.148 198.909 121.312 198.151 121.641 197.484C121.969 196.812 122.432 196.297 123.031 195.938C123.635 195.573 124.323 195.391 125.094 195.391C126.25 195.391 127.159 195.755 127.82 196.484C128.487 197.214 128.82 198.247 128.82 199.586V200.508H123.438C123.51 201.06 123.729 201.503 124.094 201.836C124.464 202.169 124.93 202.336 125.492 202.336C126.362 202.336 127.042 202.021 127.531 201.391L128.641 202.633C128.302 203.112 127.844 203.487 127.266 203.758C126.688 204.023 126.047 204.156 125.344 204.156ZM125.086 197.219C124.638 197.219 124.273 197.37 123.992 197.672C123.716 197.974 123.539 198.406 123.461 198.969H126.602V198.789C126.591 198.289 126.456 197.904 126.195 197.633C125.935 197.357 125.565 197.219 125.086 197.219ZM125.289 192H127.75L125.586 194.422H123.75L125.289 192ZM137.719 199.852C137.719 201.154 137.422 202.198 136.828 202.984C136.24 203.766 135.443 204.156 134.438 204.156C133.583 204.156 132.893 203.859 132.367 203.266V207.25H130.109V195.547H132.203L132.281 196.375C132.828 195.719 133.542 195.391 134.422 195.391C135.464 195.391 136.273 195.776 136.852 196.547C137.43 197.318 137.719 198.38 137.719 199.734V199.852ZM135.461 199.688C135.461 198.901 135.32 198.294 135.039 197.867C134.763 197.44 134.359 197.227 133.828 197.227C133.12 197.227 132.633 197.497 132.367 198.039V201.5C132.643 202.057 133.135 202.336 133.844 202.336C134.922 202.336 135.461 201.453 135.461 199.688ZM143.016 204.156C141.776 204.156 140.766 203.776 139.984 203.016C139.208 202.255 138.82 201.242 138.82 199.977V199.758C138.82 198.909 138.984 198.151 139.312 197.484C139.641 196.812 140.104 196.297 140.703 195.938C141.307 195.573 141.995 195.391 142.766 195.391C143.922 195.391 144.831 195.755 145.492 196.484C146.159 197.214 146.492 198.247 146.492 199.586V200.508H141.109C141.182 201.06 141.401 201.503 141.766 201.836C142.135 202.169 142.602 202.336 143.164 202.336C144.034 202.336 144.714 202.021 145.203 201.391L146.312 202.633C145.974 203.112 145.516 203.487 144.938 203.758C144.359 204.023 143.719 204.156 143.016 204.156ZM142.758 197.219C142.31 197.219 141.945 197.37 141.664 197.672C141.388 197.974 141.211 198.406 141.133 198.969H144.273V198.789C144.263 198.289 144.128 197.904 143.867 197.633C143.607 197.357 143.237 197.219 142.758 197.219ZM150.852 200.609L150.039 201.422V204H147.781V192H150.039V198.648L150.477 198.086L152.641 195.547H155.352L152.297 199.07L155.617 204H153.023L150.852 200.609ZM165.211 204C165.107 203.797 165.031 203.544 164.984 203.242C164.438 203.852 163.727 204.156 162.852 204.156C162.023 204.156 161.336 203.917 160.789 203.438C160.247 202.958 159.977 202.354 159.977 201.625C159.977 200.729 160.307 200.042 160.969 199.562C161.635 199.083 162.596 198.841 163.852 198.836H164.891V198.352C164.891 197.961 164.789 197.648 164.586 197.414C164.388 197.18 164.073 197.062 163.641 197.062C163.26 197.062 162.961 197.154 162.742 197.336C162.529 197.518 162.422 197.768 162.422 198.086H160.164C160.164 197.596 160.315 197.143 160.617 196.727C160.919 196.31 161.346 195.984 161.898 195.75C162.451 195.51 163.07 195.391 163.758 195.391C164.799 195.391 165.625 195.654 166.234 196.18C166.849 196.701 167.156 197.435 167.156 198.383V202.047C167.161 202.849 167.273 203.456 167.492 203.867V204H165.211ZM163.344 202.43C163.677 202.43 163.984 202.357 164.266 202.211C164.547 202.06 164.755 201.859 164.891 201.609V200.156H164.047C162.917 200.156 162.315 200.547 162.242 201.328L162.234 201.461C162.234 201.742 162.333 201.974 162.531 202.156C162.729 202.339 163 202.43 163.344 202.43ZM10.7812 218.438L9.5625 219.75V223H7.21875V211.625H9.5625V216.781L10.5938 215.367L13.4922 211.625H16.375L12.3359 216.68L16.4922 223H13.7031L10.7812 218.438ZM22.125 223C22.0208 222.797 21.9453 222.544 21.8984 222.242C21.3516 222.852 20.6406 223.156 19.7656 223.156C18.9375 223.156 18.25 222.917 17.7031 222.438C17.1615 221.958 16.8906 221.354 16.8906 220.625C16.8906 219.729 17.2214 219.042 17.8828 218.562C18.5495 218.083 19.5104 217.841 20.7656 217.836H21.8047V217.352C21.8047 216.961 21.7031 216.648 21.5 216.414C21.3021 216.18 20.987 216.062 20.5547 216.062C20.1745 216.062 19.875 216.154 19.6562 216.336C19.4427 216.518 19.3359 216.768 19.3359 217.086H17.0781C17.0781 216.596 17.2292 216.143 17.5312 215.727C17.8333 215.31 18.2604 214.984 18.8125 214.75C19.3646 214.51 19.9844 214.391 20.6719 214.391C21.7135 214.391 22.5391 214.654 23.1484 215.18C23.763 215.701 24.0703 216.435 24.0703 217.383V221.047C24.0755 221.849 24.1875 222.456 24.4062 222.867V223H22.125ZM20.2578 221.43C20.5911 221.43 20.8984 221.357 21.1797 221.211C21.4609 221.06 21.6693 220.859 21.8047 220.609V219.156H20.9609C19.8307 219.156 19.2292 219.547 19.1562 220.328L19.1484 220.461C19.1484 220.742 19.2474 220.974 19.4453 221.156C19.6432 221.339 19.9141 221.43 20.2578 221.43ZM21.1172 211H23.5781L21.4141 213.422H19.5781L21.1172 211ZM30.5547 216.664C30.2474 216.622 29.9766 216.602 29.7422 216.602C28.888 216.602 28.3281 216.891 28.0625 217.469V223H25.8047V214.547H27.9375L28 215.555C28.4531 214.779 29.0807 214.391 29.8828 214.391C30.1328 214.391 30.3672 214.424 30.5859 214.492L30.5547 216.664ZM39.2578 218.852C39.2578 220.154 38.9609 221.198 38.3672 221.984C37.7786 222.766 36.9818 223.156 35.9766 223.156C35.1224 223.156 34.4323 222.859 33.9062 222.266V226.25H31.6484V214.547H33.7422L33.8203 215.375C34.3672 214.719 35.0807 214.391 35.9609 214.391C37.0026 214.391 37.8125 214.776 38.3906 215.547C38.9688 216.318 39.2578 217.38 39.2578 218.734V218.852ZM37 218.688C37 217.901 36.8594 217.294 36.5781 216.867C36.3021 216.44 35.8984 216.227 35.3672 216.227C34.6589 216.227 34.1719 216.497 33.9062 217.039V220.5C34.1823 221.057 34.6745 221.336 35.3828 221.336C36.4609 221.336 37 220.453 37 218.688ZM45.5625 223C45.4583 222.797 45.3828 222.544 45.3359 222.242C44.7891 222.852 44.0781 223.156 43.2031 223.156C42.375 223.156 41.6875 222.917 41.1406 222.438C40.599 221.958 40.3281 221.354 40.3281 220.625C40.3281 219.729 40.6589 219.042 41.3203 218.562C41.987 218.083 42.9479 217.841 44.2031 217.836H45.2422V217.352C45.2422 216.961 45.1406 216.648 44.9375 216.414C44.7396 216.18 44.4245 216.062 43.9922 216.062C43.612 216.062 43.3125 216.154 43.0938 216.336C42.8802 216.518 42.7734 216.768 42.7734 217.086H40.5156C40.5156 216.596 40.6667 216.143 40.9688 215.727C41.2708 215.31 41.6979 214.984 42.25 214.75C42.8021 214.51 43.4219 214.391 44.1094 214.391C45.151 214.391 45.9766 214.654 46.5859 215.18C47.2005 215.701 47.5078 216.435 47.5078 217.383V221.047C47.513 221.849 47.625 222.456 47.8438 222.867V223H45.5625ZM43.6953 221.43C44.0286 221.43 44.3359 221.357 44.6172 221.211C44.8984 221.06 45.1068 220.859 45.2422 220.609V219.156H44.3984C43.2682 219.156 42.6667 219.547 42.5938 220.328L42.5859 220.461C42.5859 220.742 42.6849 220.974 42.8828 221.156C43.0807 221.339 43.3516 221.43 43.6953 221.43ZM44.5547 211H47.0156L44.8516 213.422H43.0156L44.5547 211ZM51.9453 212.469V214.547H53.3906V216.203H51.9453V220.422C51.9453 220.734 52.0052 220.958 52.125 221.094C52.2448 221.229 52.474 221.297 52.8125 221.297C53.0625 221.297 53.2839 221.279 53.4766 221.242V222.953C53.0339 223.089 52.5781 223.156 52.1094 223.156C50.526 223.156 49.7188 222.357 49.6875 220.758V216.203H48.4531V214.547H49.6875V212.469H51.9453ZM59.0391 219.039H54.6406V217.219H59.0391V219.039ZM63.0547 215.469C63.6536 214.75 64.4062 214.391 65.3125 214.391C67.1458 214.391 68.0755 215.456 68.1016 217.586V223H65.8438V217.648C65.8438 217.164 65.7396 216.807 65.5312 216.578C65.3229 216.344 64.9766 216.227 64.4922 216.227C63.8307 216.227 63.3516 216.482 63.0547 216.992V223H60.7969V211H63.0547V215.469ZM74.7031 223C74.599 222.797 74.5234 222.544 74.4766 222.242C73.9297 222.852 73.2188 223.156 72.3438 223.156C71.5156 223.156 70.8281 222.917 70.2812 222.438C69.7396 221.958 69.4688 221.354 69.4688 220.625C69.4688 219.729 69.7995 219.042 70.4609 218.562C71.1276 218.083 72.0885 217.841 73.3438 217.836H74.3828V217.352C74.3828 216.961 74.2812 216.648 74.0781 216.414C73.8802 216.18 73.5651 216.062 73.1328 216.062C72.7526 216.062 72.4531 216.154 72.2344 216.336C72.0208 216.518 71.9141 216.768 71.9141 217.086H69.6562C69.6562 216.596 69.8073 216.143 70.1094 215.727C70.4115 215.31 70.8385 214.984 71.3906 214.75C71.9427 214.51 72.5625 214.391 73.25 214.391C74.2917 214.391 75.1172 214.654 75.7266 215.18C76.3411 215.701 76.6484 216.435 76.6484 217.383V221.047C76.6536 221.849 76.7656 222.456 76.9844 222.867V223H74.7031ZM72.8359 221.43C73.1693 221.43 73.4766 221.357 73.7578 221.211C74.0391 221.06 74.2474 220.859 74.3828 220.609V219.156H73.5391C72.4089 219.156 71.8073 219.547 71.7344 220.328L71.7266 220.461C71.7266 220.742 71.8255 220.974 72.0234 221.156C72.2214 221.339 72.4922 221.43 72.8359 221.43ZM80.9766 221.18H85.1094V223H78.0938V221.625L82.0703 216.375H78.2109V214.547H84.9844V215.883L80.9766 221.18ZM91.4219 223C91.3177 222.797 91.2422 222.544 91.1953 222.242C90.6484 222.852 89.9375 223.156 89.0625 223.156C88.2344 223.156 87.5469 222.917 87 222.438C86.4583 221.958 86.1875 221.354 86.1875 220.625C86.1875 219.729 86.5182 219.042 87.1797 218.562C87.8464 218.083 88.8073 217.841 90.0625 217.836H91.1016V217.352C91.1016 216.961 91 216.648 90.7969 216.414C90.599 216.18 90.2839 216.062 89.8516 216.062C89.4714 216.062 89.1719 216.154 88.9531 216.336C88.7396 216.518 88.6328 216.768 88.6328 217.086H86.375C86.375 216.596 86.526 216.143 86.8281 215.727C87.1302 215.31 87.5573 214.984 88.1094 214.75C88.6615 214.51 89.2812 214.391 89.9688 214.391C91.0104 214.391 91.8359 214.654 92.4453 215.18C93.0599 215.701 93.3672 216.435 93.3672 217.383V221.047C93.3724 221.849 93.4844 222.456 93.7031 222.867V223H91.4219ZM89.5547 221.43C89.888 221.43 90.1953 221.357 90.4766 221.211C90.7578 221.06 90.9661 220.859 91.1016 220.609V219.156H90.2578C89.1276 219.156 88.526 219.547 88.4531 220.328L88.4453 220.461C88.4453 220.742 88.5443 220.974 88.7422 221.156C88.9401 221.339 89.2109 221.43 89.5547 221.43ZM103.664 220.664C103.664 220.388 103.526 220.172 103.25 220.016C102.979 219.854 102.542 219.711 101.938 219.586C99.9271 219.164 98.9219 218.31 98.9219 217.023C98.9219 216.273 99.2318 215.648 99.8516 215.148C100.477 214.643 101.292 214.391 102.297 214.391C103.37 214.391 104.227 214.643 104.867 215.148C105.513 215.654 105.836 216.31 105.836 217.117H103.578C103.578 216.794 103.474 216.529 103.266 216.32C103.057 216.107 102.732 216 102.289 216C101.909 216 101.615 216.086 101.406 216.258C101.198 216.43 101.094 216.648 101.094 216.914C101.094 217.164 101.211 217.367 101.445 217.523C101.685 217.674 102.086 217.807 102.648 217.922C103.211 218.031 103.685 218.156 104.07 218.297C105.263 218.734 105.859 219.492 105.859 220.57C105.859 221.341 105.529 221.966 104.867 222.445C104.206 222.919 103.352 223.156 102.305 223.156C101.596 223.156 100.966 223.031 100.414 222.781C99.8672 222.526 99.4375 222.18 99.125 221.742C98.8125 221.299 98.6562 220.823 98.6562 220.312H100.797C100.818 220.714 100.966 221.021 101.242 221.234C101.518 221.448 101.888 221.555 102.352 221.555C102.784 221.555 103.109 221.474 103.328 221.312C103.552 221.146 103.664 220.93 103.664 220.664ZM110.023 212.469V214.547H111.469V216.203H110.023V220.422C110.023 220.734 110.083 220.958 110.203 221.094C110.323 221.229 110.552 221.297 110.891 221.297C111.141 221.297 111.362 221.279 111.555 221.242V222.953C111.112 223.089 110.656 223.156 110.188 223.156C108.604 223.156 107.797 222.357 107.766 220.758V216.203H106.531V214.547H107.766V212.469H110.023ZM117.625 223C117.521 222.797 117.445 222.544 117.398 222.242C116.852 222.852 116.141 223.156 115.266 223.156C114.438 223.156 113.75 222.917 113.203 222.438C112.661 221.958 112.391 221.354 112.391 220.625C112.391 219.729 112.721 219.042 113.383 218.562C114.049 218.083 115.01 217.841 116.266 217.836H117.305V217.352C117.305 216.961 117.203 216.648 117 216.414C116.802 216.18 116.487 216.062 116.055 216.062C115.674 216.062 115.375 216.154 115.156 216.336C114.943 216.518 114.836 216.768 114.836 217.086H112.578C112.578 216.596 112.729 216.143 113.031 215.727C113.333 215.31 113.76 214.984 114.312 214.75C114.865 214.51 115.484 214.391 116.172 214.391C117.214 214.391 118.039 214.654 118.648 215.18C119.263 215.701 119.57 216.435 119.57 217.383V221.047C119.576 221.849 119.688 222.456 119.906 222.867V223H117.625ZM115.758 221.43C116.091 221.43 116.398 221.357 116.68 221.211C116.961 221.06 117.169 220.859 117.305 220.609V219.156H116.461C115.331 219.156 114.729 219.547 114.656 220.328L114.648 220.461C114.648 220.742 114.747 220.974 114.945 221.156C115.143 221.339 115.414 221.43 115.758 221.43ZM124.008 212.469V214.547H125.453V216.203H124.008V220.422C124.008 220.734 124.068 220.958 124.188 221.094C124.307 221.229 124.536 221.297 124.875 221.297C125.125 221.297 125.346 221.279 125.539 221.242V222.953C125.096 223.089 124.641 223.156 124.172 223.156C122.589 223.156 121.781 222.357 121.75 220.758V216.203H120.516V214.547H121.75V212.469H124.008ZM129.094 223H126.828V214.547H129.094V223ZM126.695 212.359C126.695 212.021 126.807 211.742 127.031 211.523C127.26 211.305 127.57 211.195 127.961 211.195C128.346 211.195 128.654 211.305 128.883 211.523C129.112 211.742 129.227 212.021 129.227 212.359C129.227 212.703 129.109 212.984 128.875 213.203C128.646 213.422 128.341 213.531 127.961 213.531C127.581 213.531 127.273 213.422 127.039 213.203C126.81 212.984 126.695 212.703 126.695 212.359ZM135.539 220.664C135.539 220.388 135.401 220.172 135.125 220.016C134.854 219.854 134.417 219.711 133.812 219.586C131.802 219.164 130.797 218.31 130.797 217.023C130.797 216.273 131.107 215.648 131.727 215.148C132.352 214.643 133.167 214.391 134.172 214.391C135.245 214.391 136.102 214.643 136.742 215.148C137.388 215.654 137.711 216.31 137.711 217.117H135.453C135.453 216.794 135.349 216.529 135.141 216.32C134.932 216.107 134.607 216 134.164 216C133.784 216 133.49 216.086 133.281 216.258C133.073 216.43 132.969 216.648 132.969 216.914C132.969 217.164 133.086 217.367 133.32 217.523C133.56 217.674 133.961 217.807 134.523 217.922C135.086 218.031 135.56 218.156 135.945 218.297C137.138 218.734 137.734 219.492 137.734 220.57C137.734 221.341 137.404 221.966 136.742 222.445C136.081 222.919 135.227 223.156 134.18 223.156C133.471 223.156 132.841 223.031 132.289 222.781C131.742 222.526 131.312 222.18 131 221.742C130.688 221.299 130.531 220.823 130.531 220.312H132.672C132.693 220.714 132.841 221.021 133.117 221.234C133.393 221.448 133.763 221.555 134.227 221.555C134.659 221.555 134.984 221.474 135.203 221.312C135.427 221.146 135.539 220.93 135.539 220.664ZM141.789 221.18H145.922V223H138.906V221.625L142.883 216.375H139.023V214.547H145.797V215.883L141.789 221.18ZM150.039 212.469V214.547H151.484V216.203H150.039V220.422C150.039 220.734 150.099 220.958 150.219 221.094C150.339 221.229 150.568 221.297 150.906 221.297C151.156 221.297 151.378 221.279 151.57 221.242V222.953C151.128 223.089 150.672 223.156 150.203 223.156C148.62 223.156 147.812 222.357 147.781 220.758V216.203H146.547V214.547H147.781V212.469H150.039ZM155.125 223H152.859V214.547H155.125V223ZM152.727 212.359C152.727 212.021 152.839 211.742 153.062 211.523C153.292 211.305 153.602 211.195 153.992 211.195C154.378 211.195 154.685 211.305 154.914 211.523C155.143 211.742 155.258 212.021 155.258 212.359C155.258 212.703 155.141 212.984 154.906 213.203C154.677 213.422 154.372 213.531 153.992 213.531C153.612 213.531 153.305 213.422 153.07 213.203C152.841 212.984 152.727 212.703 152.727 212.359ZM160.062 219.609L159.25 220.422V223H156.992V211H159.25V217.648L159.688 217.086L161.852 214.547H164.562L161.508 218.07L164.828 223H162.234L160.062 219.609ZM170.438 223C170.333 222.797 170.258 222.544 170.211 222.242C169.664 222.852 168.953 223.156 168.078 223.156C167.25 223.156 166.562 222.917 166.016 222.438C165.474 221.958 165.203 221.354 165.203 220.625C165.203 219.729 165.534 219.042 166.195 218.562C166.862 218.083 167.823 217.841 169.078 217.836H170.117V217.352C170.117 216.961 170.016 216.648 169.812 216.414C169.615 216.18 169.299 216.062 168.867 216.062C168.487 216.062 168.188 216.154 167.969 216.336C167.755 216.518 167.648 216.768 167.648 217.086H165.391C165.391 216.596 165.542 216.143 165.844 215.727C166.146 215.31 166.573 214.984 167.125 214.75C167.677 214.51 168.297 214.391 168.984 214.391C170.026 214.391 170.852 214.654 171.461 215.18C172.076 215.701 172.383 216.435 172.383 217.383V221.047C172.388 221.849 172.5 222.456 172.719 222.867V223H170.438ZM168.57 221.43C168.904 221.43 169.211 221.357 169.492 221.211C169.773 221.06 169.982 220.859 170.117 220.609V219.156H169.273C168.143 219.156 167.542 219.547 167.469 220.328L167.461 220.461C167.461 220.742 167.56 220.974 167.758 221.156C167.956 221.339 168.227 221.43 168.57 221.43ZM169.43 211H171.891L169.727 213.422H167.891L169.43 211ZM177.188 219.609L176.375 220.422V223H174.117V211H176.375V217.648L176.812 217.086L178.977 214.547H181.688L178.633 218.07L181.953 223H179.359L177.188 219.609ZM45.4062 242C45.3021 241.797 45.2266 241.544 45.1797 241.242C44.6328 241.852 43.9219 242.156 43.0469 242.156C42.2188 242.156 41.5312 241.917 40.9844 241.438C40.4427 240.958 40.1719 240.354 40.1719 239.625C40.1719 238.729 40.5026 238.042 41.1641 237.562C41.8307 237.083 42.7917 236.841 44.0469 236.836H45.0859V236.352C45.0859 235.961 44.9844 235.648 44.7812 235.414C44.5833 235.18 44.2682 235.062 43.8359 235.062C43.4557 235.062 43.1562 235.154 42.9375 235.336C42.724 235.518 42.6172 235.768 42.6172 236.086H40.3594C40.3594 235.596 40.5104 235.143 40.8125 234.727C41.1146 234.31 41.5417 233.984 42.0938 233.75C42.6458 233.51 43.2656 233.391 43.9531 233.391C44.9948 233.391 45.8203 233.654 46.4297 234.18C47.0443 234.701 47.3516 235.435 47.3516 236.383V240.047C47.3568 240.849 47.4688 241.456 47.6875 241.867V242H45.4062ZM43.5391 240.43C43.8724 240.43 44.1797 240.357 44.4609 240.211C44.7422 240.06 44.9505 239.859 45.0859 239.609V238.156H44.2422C43.112 238.156 42.5104 238.547 42.4375 239.328L42.4297 239.461C42.4297 239.742 42.5286 239.974 42.7266 240.156C42.9245 240.339 43.1953 240.43 43.5391 240.43ZM48.7344 237.711C48.7344 236.393 49.0286 235.344 49.6172 234.562C50.2109 233.781 51.0208 233.391 52.0469 233.391C52.8698 233.391 53.5495 233.698 54.0859 234.312V230H56.3516V242H54.3125L54.2031 241.102C53.6406 241.805 52.9167 242.156 52.0312 242.156C51.0365 242.156 50.237 241.766 49.6328 240.984C49.0339 240.198 48.7344 239.107 48.7344 237.711ZM50.9922 237.875C50.9922 238.667 51.1302 239.273 51.4062 239.695C51.6823 240.117 52.0833 240.328 52.6094 240.328C53.3073 240.328 53.7995 240.034 54.0859 239.445V236.109C53.8047 235.521 53.3177 235.227 52.625 235.227C51.5365 235.227 50.9922 236.109 50.9922 237.875ZM63 242C62.8958 241.797 62.8203 241.544 62.7734 241.242C62.2266 241.852 61.5156 242.156 60.6406 242.156C59.8125 242.156 59.125 241.917 58.5781 241.438C58.0365 240.958 57.7656 240.354 57.7656 239.625C57.7656 238.729 58.0964 238.042 58.7578 237.562C59.4245 237.083 60.3854 236.841 61.6406 236.836H62.6797V236.352C62.6797 235.961 62.5781 235.648 62.375 235.414C62.1771 235.18 61.862 235.062 61.4297 235.062C61.0495 235.062 60.75 235.154 60.5312 235.336C60.3177 235.518 60.2109 235.768 60.2109 236.086H57.9531C57.9531 235.596 58.1042 235.143 58.4062 234.727C58.7083 234.31 59.1354 233.984 59.6875 233.75C60.2396 233.51 60.8594 233.391 61.5469 233.391C62.5885 233.391 63.4141 233.654 64.0234 234.18C64.638 234.701 64.9453 235.435 64.9453 236.383V240.047C64.9505 240.849 65.0625 241.456 65.2812 241.867V242H63ZM61.1328 240.43C61.4661 240.43 61.7734 240.357 62.0547 240.211C62.3359 240.06 62.5443 239.859 62.6797 239.609V238.156H61.8359C60.7057 238.156 60.1042 238.547 60.0312 239.328L60.0234 239.461C60.0234 239.742 60.1224 239.974 60.3203 240.156C60.5182 240.339 60.7891 240.43 61.1328 240.43ZM69.3828 231.469V233.547H70.8281V235.203H69.3828V239.422C69.3828 239.734 69.4427 239.958 69.5625 240.094C69.6823 240.229 69.9115 240.297 70.25 240.297C70.5 240.297 70.7214 240.279 70.9141 240.242V241.953C70.4714 242.089 70.0156 242.156 69.5469 242.156C67.9635 242.156 67.1562 241.357 67.125 239.758V235.203H65.8906V233.547H67.125V231.469H69.3828ZM79.7031 237.852C79.7031 239.206 79.4141 240.263 78.8359 241.023C78.2578 241.779 77.4505 242.156 76.4141 242.156C75.4974 242.156 74.7656 241.805 74.2188 241.102L74.1172 242H72.0859V230H74.3438V234.305C74.8646 233.695 75.5495 233.391 76.3984 233.391C77.4297 233.391 78.237 233.771 78.8203 234.531C79.4089 235.286 79.7031 236.352 79.7031 237.727V237.852ZM77.4453 237.688C77.4453 236.833 77.3099 236.211 77.0391 235.82C76.7682 235.424 76.3646 235.227 75.8281 235.227C75.1094 235.227 74.6146 235.521 74.3438 236.109V239.445C74.6198 240.039 75.1198 240.336 75.8438 240.336C76.5729 240.336 77.0521 239.977 77.2812 239.258C77.3906 238.914 77.4453 238.391 77.4453 237.688ZM86 242C85.8958 241.797 85.8203 241.544 85.7734 241.242C85.2266 241.852 84.5156 242.156 83.6406 242.156C82.8125 242.156 82.125 241.917 81.5781 241.438C81.0365 240.958 80.7656 240.354 80.7656 239.625C80.7656 238.729 81.0964 238.042 81.7578 237.562C82.4245 237.083 83.3854 236.841 84.6406 236.836H85.6797V236.352C85.6797 235.961 85.5781 235.648 85.375 235.414C85.1771 235.18 84.862 235.062 84.4297 235.062C84.0495 235.062 83.75 235.154 83.5312 235.336C83.3177 235.518 83.2109 235.768 83.2109 236.086H80.9531C80.9531 235.596 81.1042 235.143 81.4062 234.727C81.7083 234.31 82.1354 233.984 82.6875 233.75C83.2396 233.51 83.8594 233.391 84.5469 233.391C85.5885 233.391 86.4141 233.654 87.0234 234.18C87.638 234.701 87.9453 235.435 87.9453 236.383V240.047C87.9505 240.849 88.0625 241.456 88.2812 241.867V242H86ZM84.1328 240.43C84.4661 240.43 84.7734 240.357 85.0547 240.211C85.3359 240.06 85.5443 239.859 85.6797 239.609V238.156H84.8359C83.7057 238.156 83.1042 238.547 83.0312 239.328L83.0234 239.461C83.0234 239.742 83.1224 239.974 83.3203 240.156C83.5182 240.339 83.7891 240.43 84.1328 240.43ZM84.9922 230H87.4531L85.2891 232.422H83.4531L84.9922 230ZM92.2734 240.18H96.4062V242H89.3906V240.625L93.3672 235.375H89.5078V233.547H96.2812V234.883L92.2734 240.18ZM100.203 242H97.9375V233.547H100.203V242ZM97.8047 231.359C97.8047 231.021 97.9167 230.742 98.1406 230.523C98.3698 230.305 98.6797 230.195 99.0703 230.195C99.4557 230.195 99.763 230.305 99.9922 230.523C100.221 230.742 100.336 231.021 100.336 231.359C100.336 231.703 100.219 231.984 99.9844 232.203C99.7552 232.422 99.4505 232.531 99.0703 232.531C98.6901 232.531 98.3828 232.422 98.1484 232.203C97.9193 231.984 97.8047 231.703 97.8047 231.359ZM106.648 239.664C106.648 239.388 106.51 239.172 106.234 239.016C105.964 238.854 105.526 238.711 104.922 238.586C102.911 238.164 101.906 237.31 101.906 236.023C101.906 235.273 102.216 234.648 102.836 234.148C103.461 233.643 104.276 233.391 105.281 233.391C106.354 233.391 107.211 233.643 107.852 234.148C108.497 234.654 108.82 235.31 108.82 236.117H106.562C106.562 235.794 106.458 235.529 106.25 235.32C106.042 235.107 105.716 235 105.273 235C104.893 235 104.599 235.086 104.391 235.258C104.182 235.43 104.078 235.648 104.078 235.914C104.078 236.164 104.195 236.367 104.43 236.523C104.669 236.674 105.07 236.807 105.633 236.922C106.195 237.031 106.669 237.156 107.055 237.297C108.247 237.734 108.844 238.492 108.844 239.57C108.844 240.341 108.513 240.966 107.852 241.445C107.19 241.919 106.336 242.156 105.289 242.156C104.581 242.156 103.951 242.031 103.398 241.781C102.852 241.526 102.422 241.18 102.109 240.742C101.797 240.299 101.641 239.823 101.641 239.312H103.781C103.802 239.714 103.951 240.021 104.227 240.234C104.503 240.448 104.872 240.555 105.336 240.555C105.768 240.555 106.094 240.474 106.312 240.312C106.536 240.146 106.648 239.93 106.648 239.664ZM115.203 242C115.099 241.797 115.023 241.544 114.977 241.242C114.43 241.852 113.719 242.156 112.844 242.156C112.016 242.156 111.328 241.917 110.781 241.438C110.24 240.958 109.969 240.354 109.969 239.625C109.969 238.729 110.299 238.042 110.961 237.562C111.628 237.083 112.589 236.841 113.844 236.836H114.883V236.352C114.883 235.961 114.781 235.648 114.578 235.414C114.38 235.18 114.065 235.062 113.633 235.062C113.253 235.062 112.953 235.154 112.734 235.336C112.521 235.518 112.414 235.768 112.414 236.086H110.156C110.156 235.596 110.307 235.143 110.609 234.727C110.911 234.31 111.339 233.984 111.891 233.75C112.443 233.51 113.062 233.391 113.75 233.391C114.792 233.391 115.617 233.654 116.227 234.18C116.841 234.701 117.148 235.435 117.148 236.383V240.047C117.154 240.849 117.266 241.456 117.484 241.867V242H115.203ZM113.336 240.43C113.669 240.43 113.977 240.357 114.258 240.211C114.539 240.06 114.747 239.859 114.883 239.609V238.156H114.039C112.909 238.156 112.307 238.547 112.234 239.328L112.227 239.461C112.227 239.742 112.326 239.974 112.523 240.156C112.721 240.339 112.992 240.43 113.336 240.43ZM121.266 242H119V233.547H121.266V242ZM118.867 231.359C118.867 231.021 118.979 230.742 119.203 230.523C119.432 230.305 119.742 230.195 120.133 230.195C120.518 230.195 120.826 230.305 121.055 230.523C121.284 230.742 121.398 231.021 121.398 231.359C121.398 231.703 121.281 231.984 121.047 232.203C120.818 232.422 120.513 232.531 120.133 232.531C119.753 232.531 119.445 232.422 119.211 232.203C118.982 231.984 118.867 231.703 118.867 231.359ZM125.211 233.547L125.281 234.523C125.885 233.768 126.695 233.391 127.711 233.391C128.607 233.391 129.273 233.654 129.711 234.18C130.148 234.706 130.372 235.492 130.383 236.539V242H128.125V236.594C128.125 236.115 128.021 235.768 127.812 235.555C127.604 235.336 127.258 235.227 126.773 235.227C126.138 235.227 125.661 235.497 125.344 236.039V242H123.086V233.547H125.211ZM137 242C136.896 241.797 136.82 241.544 136.773 241.242C136.227 241.852 135.516 242.156 134.641 242.156C133.812 242.156 133.125 241.917 132.578 241.438C132.036 240.958 131.766 240.354 131.766 239.625C131.766 238.729 132.096 238.042 132.758 237.562C133.424 237.083 134.385 236.841 135.641 236.836H136.68V236.352C136.68 235.961 136.578 235.648 136.375 235.414C136.177 235.18 135.862 235.062 135.43 235.062C135.049 235.062 134.75 235.154 134.531 235.336C134.318 235.518 134.211 235.768 134.211 236.086H131.953C131.953 235.596 132.104 235.143 132.406 234.727C132.708 234.31 133.135 233.984 133.688 233.75C134.24 233.51 134.859 233.391 135.547 233.391C136.589 233.391 137.414 233.654 138.023 234.18C138.638 234.701 138.945 235.435 138.945 236.383V240.047C138.951 240.849 139.062 241.456 139.281 241.867V242H137ZM135.133 240.43C135.466 240.43 135.773 240.357 136.055 240.211C136.336 240.06 136.544 239.859 136.68 239.609V238.156H135.836C134.706 238.156 134.104 238.547 134.031 239.328L134.023 239.461C134.023 239.742 134.122 239.974 134.32 240.156C134.518 240.339 134.789 240.43 135.133 240.43ZM143.75 238.609L142.938 239.422V242H140.68V230H142.938V236.648L143.375 236.086L145.539 233.547H148.25L145.195 237.07L148.516 242H145.922L143.75 238.609ZM34.5156 250.469V252.547H35.9609V254.203H34.5156V258.422C34.5156 258.734 34.5755 258.958 34.6953 259.094C34.8151 259.229 35.0443 259.297 35.3828 259.297C35.6328 259.297 35.8542 259.279 36.0469 259.242V260.953C35.6042 261.089 35.1484 261.156 34.6797 261.156C33.0964 261.156 32.2891 260.357 32.2578 258.758V254.203H31.0234V252.547H32.2578V250.469H34.5156ZM41.1094 261.156C39.8698 261.156 38.8594 260.776 38.0781 260.016C37.3021 259.255 36.9141 258.242 36.9141 256.977V256.758C36.9141 255.909 37.0781 255.151 37.4062 254.484C37.7344 253.812 38.1979 253.297 38.7969 252.938C39.401 252.573 40.0885 252.391 40.8594 252.391C42.0156 252.391 42.9245 252.755 43.5859 253.484C44.2526 254.214 44.5859 255.247 44.5859 256.586V257.508H39.2031C39.276 258.06 39.4948 258.503 39.8594 258.836C40.2292 259.169 40.6953 259.336 41.2578 259.336C42.1276 259.336 42.8073 259.021 43.2969 258.391L44.4062 259.633C44.0677 260.112 43.6094 260.487 43.0312 260.758C42.4531 261.023 41.8125 261.156 41.1094 261.156ZM40.8516 254.219C40.4036 254.219 40.0391 254.37 39.7578 254.672C39.4818 254.974 39.3047 255.406 39.2266 255.969H42.3672V255.789C42.3568 255.289 42.2214 254.904 41.9609 254.633C41.7005 254.357 41.3307 254.219 40.8516 254.219ZM50.625 254.664C50.3177 254.622 50.0469 254.602 49.8125 254.602C48.9583 254.602 48.3984 254.891 48.1328 255.469V261H45.875V252.547H48.0078L48.0703 253.555C48.5234 252.779 49.151 252.391 49.9531 252.391C50.2031 252.391 50.4375 252.424 50.6562 252.492L50.625 254.664ZM56.7812 260.141C56.224 260.818 55.4531 261.156 54.4688 261.156C53.5625 261.156 52.8698 260.896 52.3906 260.375C51.9167 259.854 51.6745 259.091 51.6641 258.086V252.547H53.9219V258.008C53.9219 258.888 54.3229 259.328 55.125 259.328C55.8906 259.328 56.4167 259.062 56.7031 258.531V252.547H58.9688V261H56.8438L56.7812 260.141ZM54.5 250.336C54.5 250.612 54.3984 250.846 54.1953 251.039C53.9922 251.227 53.7318 251.32 53.4141 251.32C53.0911 251.32 52.8307 251.224 52.6328 251.031C52.4349 250.839 52.3359 250.607 52.3359 250.336C52.3359 250.065 52.4349 249.833 52.6328 249.641C52.8307 249.443 53.0911 249.344 53.4141 249.344C53.737 249.344 53.9974 249.443 54.1953 249.641C54.3984 249.833 54.5 250.065 54.5 250.336ZM56.1406 250.336C56.1406 250.055 56.2448 249.82 56.4531 249.633C56.6667 249.44 56.9245 249.344 57.2266 249.344C57.5339 249.344 57.7891 249.44 57.9922 249.633C58.2005 249.826 58.3047 250.06 58.3047 250.336C58.3047 250.607 58.2057 250.841 58.0078 251.039C57.8099 251.232 57.5495 251.328 57.2266 251.328C56.9036 251.328 56.6406 251.232 56.4375 251.039C56.2396 250.841 56.1406 250.607 56.1406 250.336ZM63.0547 261H60.7891V249H63.0547V261ZM68.8125 261.156C67.5729 261.156 66.5625 260.776 65.7812 260.016C65.0052 259.255 64.6172 258.242 64.6172 256.977V256.758C64.6172 255.909 64.7812 255.151 65.1094 254.484C65.4375 253.812 65.901 253.297 66.5 252.938C67.1042 252.573 67.7917 252.391 68.5625 252.391C69.7188 252.391 70.6276 252.755 71.2891 253.484C71.9557 254.214 72.2891 255.247 72.2891 256.586V257.508H66.9062C66.9792 258.06 67.1979 258.503 67.5625 258.836C67.9323 259.169 68.3984 259.336 68.9609 259.336C69.8307 259.336 70.5104 259.021 71 258.391L72.1094 259.633C71.7708 260.112 71.3125 260.487 70.7344 260.758C70.1562 261.023 69.5156 261.156 68.8125 261.156ZM68.5547 254.219C68.1068 254.219 67.7422 254.37 67.4609 254.672C67.1849 254.974 67.0078 255.406 66.9297 255.969H70.0703V255.789C70.0599 255.289 69.9245 254.904 69.6641 254.633C69.4036 254.357 69.0339 254.219 68.5547 254.219ZM76.2812 250.469V252.547H77.7266V254.203H76.2812V258.422C76.2812 258.734 76.3411 258.958 76.4609 259.094C76.5807 259.229 76.8099 259.297 77.1484 259.297C77.3984 259.297 77.6198 259.279 77.8125 259.242V260.953C77.3698 261.089 76.9141 261.156 76.4453 261.156C74.862 261.156 74.0547 260.357 74.0234 258.758V254.203H72.7891V252.547H74.0234V250.469H76.2812ZM81.3672 261H79.1016V252.547H81.3672V261ZM78.9688 250.359C78.9688 250.021 79.0807 249.742 79.3047 249.523C79.5339 249.305 79.8438 249.195 80.2344 249.195C80.6198 249.195 80.9271 249.305 81.1562 249.523C81.3854 249.742 81.5 250.021 81.5 250.359C81.5 250.703 81.3828 250.984 81.1484 251.203C80.9193 251.422 80.6146 251.531 80.2344 251.531C79.8542 251.531 79.5469 251.422 79.3125 251.203C79.0833 250.984 78.9688 250.703 78.9688 250.359ZM92.1172 261C92.013 260.797 91.9375 260.544 91.8906 260.242C91.3438 260.852 90.6328 261.156 89.7578 261.156C88.9297 261.156 88.2422 260.917 87.6953 260.438C87.1536 259.958 86.8828 259.354 86.8828 258.625C86.8828 257.729 87.2135 257.042 87.875 256.562C88.5417 256.083 89.5026 255.841 90.7578 255.836H91.7969V255.352C91.7969 254.961 91.6953 254.648 91.4922 254.414C91.2943 254.18 90.9792 254.062 90.5469 254.062C90.1667 254.062 89.8672 254.154 89.6484 254.336C89.4349 254.518 89.3281 254.768 89.3281 255.086H87.0703C87.0703 254.596 87.2214 254.143 87.5234 253.727C87.8255 253.31 88.2526 252.984 88.8047 252.75C89.3568 252.51 89.9766 252.391 90.6641 252.391C91.7057 252.391 92.5312 252.654 93.1406 253.18C93.7552 253.701 94.0625 254.435 94.0625 255.383V259.047C94.0677 259.849 94.1797 260.456 94.3984 260.867V261H92.1172ZM90.25 259.43C90.5833 259.43 90.8906 259.357 91.1719 259.211C91.4531 259.06 91.6615 258.859 91.7969 258.609V257.156H90.9531C89.8229 257.156 89.2214 257.547 89.1484 258.328L89.1406 258.461C89.1406 258.742 89.2396 258.974 89.4375 259.156C89.6354 259.339 89.9062 259.43 90.25 259.43ZM95.4453 256.711C95.4453 255.393 95.7396 254.344 96.3281 253.562C96.9219 252.781 97.7318 252.391 98.7578 252.391C99.5807 252.391 100.26 252.698 100.797 253.312V249H103.062V261H101.023L100.914 260.102C100.352 260.805 99.6276 261.156 98.7422 261.156C97.7474 261.156 96.9479 260.766 96.3438 259.984C95.7448 259.198 95.4453 258.107 95.4453 256.711ZM97.7031 256.875C97.7031 257.667 97.8411 258.273 98.1172 258.695C98.3932 259.117 98.7943 259.328 99.3203 259.328C100.018 259.328 100.51 259.034 100.797 258.445V255.109C100.516 254.521 100.029 254.227 99.3359 254.227C98.2474 254.227 97.7031 255.109 97.7031 256.875ZM109.711 261C109.607 260.797 109.531 260.544 109.484 260.242C108.938 260.852 108.227 261.156 107.352 261.156C106.523 261.156 105.836 260.917 105.289 260.438C104.747 259.958 104.477 259.354 104.477 258.625C104.477 257.729 104.807 257.042 105.469 256.562C106.135 256.083 107.096 255.841 108.352 255.836H109.391V255.352C109.391 254.961 109.289 254.648 109.086 254.414C108.888 254.18 108.573 254.062 108.141 254.062C107.76 254.062 107.461 254.154 107.242 254.336C107.029 254.518 106.922 254.768 106.922 255.086H104.664C104.664 254.596 104.815 254.143 105.117 253.727C105.419 253.31 105.846 252.984 106.398 252.75C106.951 252.51 107.57 252.391 108.258 252.391C109.299 252.391 110.125 252.654 110.734 253.18C111.349 253.701 111.656 254.435 111.656 255.383V259.047C111.661 259.849 111.773 260.456 111.992 260.867V261H109.711ZM107.844 259.43C108.177 259.43 108.484 259.357 108.766 259.211C109.047 259.06 109.255 258.859 109.391 258.609V257.156H108.547C107.417 257.156 106.815 257.547 106.742 258.328L106.734 258.461C106.734 258.742 106.833 258.974 107.031 259.156C107.229 259.339 107.5 259.43 107.844 259.43ZM116.094 250.469V252.547H117.539V254.203H116.094V258.422C116.094 258.734 116.154 258.958 116.273 259.094C116.393 259.229 116.622 259.297 116.961 259.297C117.211 259.297 117.432 259.279 117.625 259.242V260.953C117.182 261.089 116.727 261.156 116.258 261.156C114.674 261.156 113.867 260.357 113.836 258.758V254.203H112.602V252.547H113.836V250.469H116.094ZM123.695 261C123.591 260.797 123.516 260.544 123.469 260.242C122.922 260.852 122.211 261.156 121.336 261.156C120.508 261.156 119.82 260.917 119.273 260.438C118.732 259.958 118.461 259.354 118.461 258.625C118.461 257.729 118.792 257.042 119.453 256.562C120.12 256.083 121.081 255.841 122.336 255.836H123.375V255.352C123.375 254.961 123.273 254.648 123.07 254.414C122.872 254.18 122.557 254.062 122.125 254.062C121.745 254.062 121.445 254.154 121.227 254.336C121.013 254.518 120.906 254.768 120.906 255.086H118.648C118.648 254.596 118.799 254.143 119.102 253.727C119.404 253.31 119.831 252.984 120.383 252.75C120.935 252.51 121.555 252.391 122.242 252.391C123.284 252.391 124.109 252.654 124.719 253.18C125.333 253.701 125.641 254.435 125.641 255.383V259.047C125.646 259.849 125.758 260.456 125.977 260.867V261H123.695ZM121.828 259.43C122.161 259.43 122.469 259.357 122.75 259.211C123.031 259.06 123.24 258.859 123.375 258.609V257.156H122.531C121.401 257.156 120.799 257.547 120.727 258.328L120.719 258.461C120.719 258.742 120.818 258.974 121.016 259.156C121.214 259.339 121.484 259.43 121.828 259.43ZM129.758 261H127.492V252.547H129.758V261ZM127.359 250.359C127.359 250.021 127.471 249.742 127.695 249.523C127.924 249.305 128.234 249.195 128.625 249.195C129.01 249.195 129.318 249.305 129.547 249.523C129.776 249.742 129.891 250.021 129.891 250.359C129.891 250.703 129.773 250.984 129.539 251.203C129.31 251.422 129.005 251.531 128.625 251.531C128.245 251.531 127.938 251.422 127.703 251.203C127.474 250.984 127.359 250.703 127.359 250.359ZM139.242 256.852C139.242 258.206 138.953 259.263 138.375 260.023C137.797 260.779 136.99 261.156 135.953 261.156C135.036 261.156 134.305 260.805 133.758 260.102L133.656 261H131.625V249H133.883V253.305C134.404 252.695 135.089 252.391 135.938 252.391C136.969 252.391 137.776 252.771 138.359 253.531C138.948 254.286 139.242 255.352 139.242 256.727V256.852ZM136.984 256.688C136.984 255.833 136.849 255.211 136.578 254.82C136.307 254.424 135.904 254.227 135.367 254.227C134.648 254.227 134.154 254.521 133.883 255.109V258.445C134.159 259.039 134.659 259.336 135.383 259.336C136.112 259.336 136.591 258.977 136.82 258.258C136.93 257.914 136.984 257.391 136.984 256.688ZM140.289 256.695C140.289 255.857 140.451 255.109 140.773 254.453C141.096 253.797 141.56 253.289 142.164 252.93C142.773 252.57 143.479 252.391 144.281 252.391C145.422 252.391 146.352 252.74 147.07 253.438C147.794 254.135 148.198 255.083 148.281 256.281L148.297 256.859C148.297 258.156 147.935 259.198 147.211 259.984C146.487 260.766 145.516 261.156 144.297 261.156C143.078 261.156 142.104 260.766 141.375 259.984C140.651 259.203 140.289 258.141 140.289 256.797V256.695ZM142.547 256.859C142.547 257.661 142.698 258.276 143 258.703C143.302 259.125 143.734 259.336 144.297 259.336C144.844 259.336 145.271 259.128 145.578 258.711C145.885 258.289 146.039 257.617 146.039 256.695C146.039 255.909 145.885 255.299 145.578 254.867C145.271 254.435 144.839 254.219 144.281 254.219C143.729 254.219 143.302 254.435 143 254.867C142.698 255.294 142.547 255.958 142.547 256.859ZM144.727 249H147.188L145.023 251.422H143.188L144.727 249ZM152.07 261H149.805V249H152.07V261Z" fill="#ECE7DD"/>
</svg>
