<svg width="188" height="800" viewBox="0 0 188 800" fill="none" xmlns="http://www.w3.org/2000/svg">
<rect x="0.914062" width="186.094" height="800" fill="#4B7793" fill-opacity="0.7"/>
<path d="M141.568 353.806V443.674H46.4141V319.445H111.663M141.568 353.806H111.663V319.445M141.568 353.806L111.663 319.445" stroke="#1B1D19" stroke-width="7"/>
<path d="M118.214 394.682C118.214 407.488 107.591 417.994 94.3317 417.994C81.0719 417.994 70.4492 407.488 70.4492 394.682C70.4492 381.877 81.0719 371.37 94.3317 371.37C107.591 371.37 118.214 381.877 118.214 394.682Z" stroke="#1B1D19" stroke-width="7"/>
<path d="M90.9624 397.183L90.9625 371.222L101.395 371.222L113.025 377.419L118.296 387.253L118.296 397.182L90.9624 397.183Z" fill="#1B1D19"/>
<path d="M34.7456 470.582L33.2983 472.141V476H30.5151V462.492H33.2983V468.615L34.5229 466.936L37.9648 462.492H41.3882L36.5918 468.495L41.5273 476H38.2153L34.7456 470.582ZM45.5352 476H42.752V462.492H45.5352V476ZM51.7603 462.492L55.23 472.289L58.6812 462.492H62.3364V476H59.5439V472.308L59.8223 465.934L56.1763 476H54.2651L50.6284 465.943L50.9067 472.308V476H48.1235V462.492H51.7603ZM74.9907 462.492V471.389C74.9907 472.867 74.5269 474.036 73.5991 474.896C72.6776 475.756 71.4159 476.186 69.814 476.186C68.2368 476.186 66.9844 475.768 66.0566 474.933C65.1289 474.098 64.6558 472.951 64.6372 471.491V462.492H67.4204V471.408C67.4204 472.292 67.6307 472.938 68.0513 473.347C68.478 473.749 69.0656 473.95 69.814 473.95C71.3787 473.95 72.1735 473.127 72.1982 471.482V462.492H74.9907ZM87.4409 464.747H83.3032V476H80.52V464.747H76.438V462.492H87.4409V464.747ZM95.5493 473.217H90.6694L89.7417 476H86.7822L91.8105 462.492H94.3896L99.4458 476H96.4863L95.5493 473.217ZM91.4209 470.962H94.7979L93.1001 465.906L91.4209 470.962ZM109.762 464.747H105.625V476H102.841V464.747H98.7593V462.492H109.762V464.747ZM117.871 473.217H112.991L112.063 476H109.104L114.132 462.492H116.711L121.767 476H118.808L117.871 473.217ZM113.742 470.962H117.119L115.421 465.906L113.742 470.962ZM115.997 458.874H118.919L116.349 461.75H114.169L115.997 458.874ZM130.033 472.456C130.033 471.93 129.848 471.528 129.477 471.25C129.105 470.965 128.438 470.669 127.473 470.359C126.508 470.044 125.744 469.735 125.181 469.432C123.647 468.603 122.88 467.486 122.88 466.083C122.88 465.353 123.084 464.703 123.493 464.134C123.907 463.559 124.498 463.111 125.265 462.789C126.038 462.467 126.904 462.307 127.862 462.307C128.827 462.307 129.687 462.483 130.441 462.835C131.196 463.182 131.78 463.674 132.195 464.311C132.615 464.948 132.826 465.671 132.826 466.481H130.042C130.042 465.863 129.848 465.384 129.458 465.043C129.068 464.697 128.521 464.524 127.816 464.524C127.136 464.524 126.607 464.669 126.229 464.96C125.852 465.244 125.664 465.622 125.664 466.092C125.664 466.531 125.883 466.899 126.322 467.196C126.768 467.493 127.42 467.771 128.28 468.031C129.863 468.507 131.017 469.098 131.74 469.803C132.464 470.508 132.826 471.386 132.826 472.438C132.826 473.606 132.383 474.525 131.499 475.193C130.615 475.855 129.424 476.186 127.927 476.186C126.888 476.186 125.942 475.997 125.088 475.62C124.235 475.236 123.582 474.714 123.131 474.052C122.686 473.39 122.463 472.623 122.463 471.751H125.255C125.255 473.242 126.146 473.987 127.927 473.987C128.589 473.987 129.105 473.854 129.477 473.588C129.848 473.316 130.033 472.938 130.033 472.456ZM145.814 469.552C145.814 470.882 145.579 472.048 145.109 473.05C144.639 474.052 143.965 474.825 143.086 475.369C142.214 475.913 141.212 476.186 140.081 476.186C138.961 476.186 137.962 475.917 137.084 475.378C136.206 474.84 135.525 474.073 135.043 473.078C134.561 472.076 134.316 470.925 134.31 469.626V468.958C134.31 467.629 134.548 466.46 135.024 465.452C135.507 464.437 136.184 463.661 137.056 463.123C137.934 462.579 138.936 462.307 140.062 462.307C141.188 462.307 142.187 462.579 143.059 463.123C143.937 463.661 144.614 464.437 145.09 465.452C145.573 466.46 145.814 467.626 145.814 468.949V469.552ZM142.994 468.94C142.994 467.524 142.74 466.447 142.233 465.711C141.726 464.975 141.002 464.607 140.062 464.607C139.128 464.607 138.408 464.972 137.9 465.702C137.393 466.426 137.137 467.49 137.13 468.894V469.552C137.13 470.931 137.384 472.001 137.891 472.762C138.398 473.523 139.128 473.903 140.081 473.903C141.014 473.903 141.732 473.538 142.233 472.809C142.734 472.073 142.987 471.003 142.994 469.599V468.94ZM152.067 470.582L150.62 472.141V476H147.836V462.492H150.62V468.615L151.844 466.936L155.286 462.492H158.709L153.913 468.495L158.849 476H155.537L152.067 470.582Z" fill="#1B1D19"/>
</svg>
