<svg width="188" height="800" viewBox="0 0 188 800" fill="none" xmlns="http://www.w3.org/2000/svg">
<rect x="0.914062" width="186.094" height="800" fill="#838D92"/>
<path d="M63.6587 715.226H59.7739V726H58.1885V715.226H54.312V713.914H63.6587V715.226ZM74.5161 720.347C74.5161 721.531 74.3169 722.566 73.9185 723.452C73.52 724.332 72.9556 725.004 72.2251 725.469C71.4946 725.934 70.6424 726.166 69.6685 726.166C68.7166 726.166 67.8727 725.934 67.1367 725.469C66.4007 724.998 65.828 724.332 65.4185 723.468C65.0145 722.599 64.807 721.595 64.7959 720.455V719.583C64.7959 718.421 64.9979 717.395 65.4019 716.504C65.8058 715.613 66.3758 714.932 67.1118 714.462C67.8534 713.986 68.7 713.748 69.6519 713.748C70.6203 713.748 71.4725 713.983 72.2085 714.454C72.95 714.918 73.52 715.596 73.9185 716.487C74.3169 717.373 74.5161 718.405 74.5161 719.583V720.347ZM72.9307 719.567C72.9307 718.134 72.6429 717.035 72.0674 716.271C71.4919 715.502 70.6867 715.118 69.6519 715.118C68.6447 715.118 67.8506 715.502 67.2695 716.271C66.694 717.035 66.3979 718.098 66.3813 719.459V720.347C66.3813 721.736 66.6719 722.829 67.2529 723.626C67.8395 724.417 68.6447 724.813 69.6685 724.813C70.6978 724.813 71.4946 724.439 72.0591 723.692C72.6235 722.94 72.9141 721.863 72.9307 720.463V719.567ZM80.7251 723.883L84.1782 713.914H85.9214L81.439 726H80.0278L75.5537 713.914H77.2886L80.7251 723.883ZM93.5913 722.846H88.5278L87.3906 726H85.7471L90.3623 713.914H91.7568L96.3804 726H94.7451L93.5913 722.846ZM89.0093 721.534H93.1182L91.0596 715.881L89.0093 721.534ZM91.8481 710.677H93.7075L91.4829 713.117H90.2461L91.8481 710.677ZM98.0073 726V713.914H101.958C103.27 713.914 104.255 714.185 104.914 714.728C105.578 715.27 105.91 716.072 105.91 717.135C105.91 717.699 105.749 718.2 105.428 718.637C105.107 719.069 104.67 719.404 104.117 719.642C104.77 719.824 105.284 720.173 105.661 720.688C106.042 721.197 106.233 721.805 106.233 722.514C106.233 723.598 105.882 724.451 105.179 725.07C104.476 725.69 103.483 726 102.199 726H98.0073ZM99.6011 720.347V724.697H102.232C102.974 724.697 103.558 724.506 103.984 724.124C104.416 723.737 104.631 723.205 104.631 722.53C104.631 721.075 103.84 720.347 102.257 720.347H99.6011ZM99.6011 719.069H102.008C102.706 719.069 103.262 718.895 103.677 718.546C104.097 718.197 104.308 717.724 104.308 717.126C104.308 716.462 104.114 715.981 103.727 715.682C103.339 715.378 102.75 715.226 101.958 715.226H99.6011V719.069ZM108.599 726V713.914H112.55C113.862 713.914 114.847 714.185 115.505 714.728C116.169 715.27 116.501 716.072 116.501 717.135C116.501 717.699 116.341 718.2 116.02 718.637C115.699 719.069 115.262 719.404 114.708 719.642C115.361 719.824 115.876 720.173 116.252 720.688C116.634 721.197 116.825 721.805 116.825 722.514C116.825 723.598 116.474 724.451 115.771 725.07C115.068 725.69 114.075 726 112.791 726H108.599ZM110.193 720.347V724.697H112.824C113.566 724.697 114.15 724.506 114.576 724.124C115.007 723.737 115.223 723.205 115.223 722.53C115.223 721.075 114.432 720.347 112.849 720.347H110.193ZM110.193 719.069H112.6C113.297 719.069 113.854 718.895 114.269 718.546C114.689 718.197 114.899 717.724 114.899 717.126C114.899 716.462 114.706 715.981 114.318 715.682C113.931 715.378 113.342 715.226 112.55 715.226H110.193V719.069ZM130.082 722.846H125.018L123.881 726H122.237L126.853 713.914H128.247L132.871 726H131.235L130.082 722.846ZM125.5 721.534H129.608L127.55 715.881L125.5 721.534ZM29.1855 741.501L27.9902 742.812V746H25.0767V733.914H27.9902V739.243L29.0029 737.708L31.6094 733.914H35.2119L31.1279 739.26L35.2119 746H31.7588L29.1855 741.501ZM39.0552 746H36.1499V733.914H39.0552V746ZM44.9072 733.914L47.605 742.323L50.2944 733.914H54.1294V746H51.2075V743.178L51.4897 737.4L48.5679 746H46.6421L43.7119 737.392L43.9941 743.178V746H41.0806V733.914H44.9072ZM65.4683 733.914V741.825C65.4683 742.721 65.2773 743.499 64.8955 744.157C64.5137 744.81 63.9658 745.308 63.252 745.651C62.5381 745.994 61.6942 746.166 60.7202 746.166C59.2482 746.166 58.0889 745.784 57.2422 745.021C56.3955 744.257 55.9639 743.211 55.9473 741.883V733.914H58.8774V741.941C58.9106 743.264 59.5249 743.925 60.7202 743.925C61.3234 743.925 61.7799 743.759 62.0898 743.427C62.3997 743.095 62.5547 742.555 62.5547 741.808V733.914H65.4683ZM76.7822 736.164H73.1548V746H70.2412V736.164H66.6802V733.914H76.7822V736.164ZM83.8877 743.742H79.895L79.1978 746H76.085L80.5176 733.914H83.2568L87.7227 746H84.5933L83.8877 743.742ZM80.5923 741.493H83.1904L81.8872 737.301L80.5923 741.493ZM97.1025 736.164H93.4751V746H90.5615V736.164H87.0005V733.914H97.1025V736.164ZM104.208 743.742H100.215L99.5181 746H96.4053L100.838 733.914H103.577L108.043 746H104.914L104.208 743.742ZM100.913 741.493H103.511L102.208 737.301L100.913 741.493ZM102.589 730.677H105.544L103.237 733.283H100.954L102.589 730.677ZM115.165 742.788C115.165 742.361 115.013 742.029 114.708 741.792C114.41 741.554 113.881 741.307 113.123 741.053C112.365 740.798 111.745 740.552 111.264 740.314C109.698 739.545 108.915 738.488 108.915 737.143C108.915 736.473 109.108 735.884 109.496 735.375C109.889 734.86 110.442 734.462 111.156 734.18C111.87 733.892 112.672 733.748 113.563 733.748C114.432 733.748 115.209 733.903 115.896 734.213C116.587 734.523 117.124 734.965 117.506 735.541C117.888 736.111 118.079 736.764 118.079 737.5H115.173C115.173 737.007 115.021 736.626 114.717 736.354C114.418 736.083 114.011 735.948 113.497 735.948C112.976 735.948 112.564 736.064 112.26 736.296C111.961 736.523 111.812 736.814 111.812 737.168C111.812 737.478 111.978 737.76 112.31 738.015C112.642 738.264 113.225 738.524 114.061 738.795C114.897 739.061 115.583 739.348 116.12 739.658C117.426 740.411 118.079 741.448 118.079 742.771C118.079 743.828 117.68 744.658 116.883 745.261C116.086 745.864 114.993 746.166 113.604 746.166C112.625 746.166 111.737 745.992 110.94 745.643C110.149 745.289 109.551 744.807 109.147 744.199C108.749 743.584 108.549 742.879 108.549 742.082H111.471C111.471 742.729 111.637 743.208 111.969 743.518C112.307 743.822 112.852 743.975 113.604 743.975C114.086 743.975 114.465 743.872 114.742 743.667C115.024 743.457 115.165 743.164 115.165 742.788ZM129.808 740.206C129.808 741.385 129.589 742.428 129.152 743.335C128.715 744.243 128.092 744.943 127.284 745.436C126.482 745.923 125.566 746.166 124.537 746.166C123.507 746.166 122.594 745.931 121.797 745.46C121 744.985 120.378 744.307 119.93 743.427C119.487 742.547 119.255 741.537 119.232 740.397V739.716C119.232 738.532 119.448 737.489 119.88 736.587C120.317 735.679 120.94 734.979 121.748 734.487C122.561 733.994 123.485 733.748 124.52 733.748C125.544 733.748 126.457 733.992 127.259 734.479C128.062 734.965 128.684 735.66 129.127 736.562C129.575 737.458 129.802 738.488 129.808 739.65V740.206ZM126.844 739.7C126.844 738.499 126.642 737.589 126.238 736.969C125.84 736.343 125.267 736.031 124.52 736.031C123.059 736.031 122.287 737.126 122.204 739.318L122.196 740.206C122.196 741.39 122.392 742.301 122.785 742.937C123.178 743.573 123.762 743.892 124.537 743.892C125.273 743.892 125.84 743.579 126.238 742.954C126.637 742.328 126.839 741.429 126.844 740.256V739.7ZM135.419 741.501L134.224 742.812V746H131.31V733.914H134.224V739.243L135.236 737.708L137.843 733.914H141.445L137.361 739.26L141.445 746H137.992L135.419 741.501ZM147.106 741.111H144.268V746H142.666V733.914H146.667C148.028 733.914 149.074 734.224 149.804 734.844C150.54 735.464 150.908 736.366 150.908 737.55C150.908 738.302 150.703 738.958 150.294 739.517C149.89 740.076 149.326 740.494 148.601 740.771L151.439 745.9V746H149.729L147.106 741.111ZM144.268 739.808H146.716C147.508 739.808 148.136 739.603 148.601 739.193C149.071 738.784 149.306 738.236 149.306 737.55C149.306 736.803 149.082 736.23 148.634 735.832C148.191 735.433 147.549 735.231 146.708 735.226H144.268V739.808ZM159.823 742.846H154.76L153.623 746H151.979L156.594 733.914H157.989L162.612 746H160.977L159.823 742.846ZM155.241 741.534H159.35L157.292 735.881L155.241 741.534Z" fill="#ECE7DD"/>
<path d="M16.6484 348H14.3047V336.625H16.6484V348ZM20.7578 339.547L20.8281 340.523C21.4323 339.768 22.2422 339.391 23.2578 339.391C24.1536 339.391 24.8203 339.654 25.2578 340.18C25.6953 340.706 25.9193 341.492 25.9297 342.539V348H23.6719V342.594C23.6719 342.115 23.5677 341.768 23.3594 341.555C23.151 341.336 22.8047 341.227 22.3203 341.227C21.6849 341.227 21.2083 341.497 20.8906 342.039V348H18.6328V339.547H20.7578ZM30.3516 337.469V339.547H31.7969V341.203H30.3516V345.422C30.3516 345.734 30.4115 345.958 30.5312 346.094C30.651 346.229 30.8802 346.297 31.2188 346.297C31.4688 346.297 31.6901 346.279 31.8828 346.242V347.953C31.4401 348.089 30.9844 348.156 30.5156 348.156C28.9323 348.156 28.125 347.357 28.0938 345.758V341.203H26.8594V339.547H28.0938V337.469H30.3516ZM36.9453 348.156C35.7057 348.156 34.6953 347.776 33.9141 347.016C33.138 346.255 32.75 345.242 32.75 343.977V343.758C32.75 342.909 32.9141 342.151 33.2422 341.484C33.5703 340.812 34.0339 340.297 34.6328 339.938C35.237 339.573 35.9245 339.391 36.6953 339.391C37.8516 339.391 38.7604 339.755 39.4219 340.484C40.0885 341.214 40.4219 342.247 40.4219 343.586V344.508H35.0391C35.112 345.06 35.3307 345.503 35.6953 345.836C36.0651 346.169 36.5312 346.336 37.0938 346.336C37.9635 346.336 38.6432 346.021 39.1328 345.391L40.2422 346.633C39.9036 347.112 39.4453 347.487 38.8672 347.758C38.2891 348.023 37.6484 348.156 36.9453 348.156ZM36.6875 341.219C36.2396 341.219 35.875 341.37 35.5938 341.672C35.3177 341.974 35.1406 342.406 35.0625 342.969H38.2031V342.789C38.1927 342.289 38.0573 341.904 37.7969 341.633C37.5365 341.357 37.1667 341.219 36.6875 341.219ZM46.4609 341.664C46.1536 341.622 45.8828 341.602 45.6484 341.602C44.7943 341.602 44.2344 341.891 43.9688 342.469V348H41.7109V339.547H43.8438L43.9062 340.555C44.3594 339.779 44.987 339.391 45.7891 339.391C46.0391 339.391 46.2734 339.424 46.4922 339.492L46.4609 341.664ZM52.2188 348C52.1146 347.797 52.0391 347.544 51.9922 347.242C51.4453 347.852 50.7344 348.156 49.8594 348.156C49.0312 348.156 48.3438 347.917 47.7969 347.438C47.2552 346.958 46.9844 346.354 46.9844 345.625C46.9844 344.729 47.3151 344.042 47.9766 343.562C48.6432 343.083 49.6042 342.841 50.8594 342.836H51.8984V342.352C51.8984 341.961 51.7969 341.648 51.5938 341.414C51.3958 341.18 51.0807 341.062 50.6484 341.062C50.2682 341.062 49.9688 341.154 49.75 341.336C49.5365 341.518 49.4297 341.768 49.4297 342.086H47.1719C47.1719 341.596 47.3229 341.143 47.625 340.727C47.9271 340.31 48.3542 339.984 48.9062 339.75C49.4583 339.51 50.0781 339.391 50.7656 339.391C51.8073 339.391 52.6328 339.654 53.2422 340.18C53.8568 340.701 54.1641 341.435 54.1641 342.383V346.047C54.1693 346.849 54.2812 347.456 54.5 347.867V348H52.2188ZM50.3516 346.43C50.6849 346.43 50.9922 346.357 51.2734 346.211C51.5547 346.06 51.763 345.859 51.8984 345.609V344.156H51.0547C49.9245 344.156 49.3229 344.547 49.25 345.328L49.2422 345.461C49.2422 345.742 49.3411 345.974 49.5391 346.156C49.737 346.339 50.0078 346.43 50.3516 346.43ZM58.9688 344.609L58.1562 345.422V348H55.8984V336H58.1562V342.648L58.5938 342.086L60.7578 339.547H63.4688L60.4141 343.07L63.7344 348H61.1406L58.9688 344.609ZM67.1484 337.469V339.547H68.5938V341.203H67.1484V345.422C67.1484 345.734 67.2083 345.958 67.3281 346.094C67.4479 346.229 67.6771 346.297 68.0156 346.297C68.2656 346.297 68.487 346.279 68.6797 346.242V347.953C68.237 348.089 67.7812 348.156 67.3125 348.156C65.7292 348.156 64.9219 347.357 64.8906 345.758V341.203H63.6562V339.547H64.8906V337.469H67.1484ZM72.2891 348H70.0312V339.547H72.2891V348ZM71.625 336.117H74.0859L71.9219 338.539H70.0859L71.625 336.117ZM77.4062 345.242L78.9766 339.547H81.3359L78.4844 348H76.3281L73.4766 339.547H75.8359L77.4062 345.242ZM89.3906 344.609L88.5781 345.422V348H86.3203V336H88.5781V342.648L89.0156 342.086L91.1797 339.547H93.8906L90.8359 343.07L94.1562 348H91.5625L89.3906 344.609ZM97.25 348H94.9844V339.547H97.25V348ZM94.8516 337.359C94.8516 337.021 94.9635 336.742 95.1875 336.523C95.4167 336.305 95.7266 336.195 96.1172 336.195C96.5026 336.195 96.8099 336.305 97.0391 336.523C97.2682 336.742 97.3828 337.021 97.3828 337.359C97.3828 337.703 97.2656 337.984 97.0312 338.203C96.8021 338.422 96.4974 338.531 96.1172 338.531C95.737 338.531 95.4297 338.422 95.1953 338.203C94.9661 337.984 94.8516 337.703 94.8516 337.359ZM101.234 339.547L101.305 340.492C101.904 339.758 102.714 339.391 103.734 339.391C104.823 339.391 105.57 339.82 105.977 340.68C106.57 339.82 107.417 339.391 108.516 339.391C109.432 339.391 110.115 339.659 110.562 340.195C111.01 340.727 111.234 341.529 111.234 342.602V348H108.969V342.609C108.969 342.13 108.875 341.781 108.688 341.562C108.5 341.339 108.169 341.227 107.695 341.227C107.018 341.227 106.549 341.549 106.289 342.195L106.297 348H104.039V342.617C104.039 342.128 103.943 341.773 103.75 341.555C103.557 341.336 103.229 341.227 102.766 341.227C102.125 341.227 101.661 341.492 101.375 342.023V348H99.1172V339.547H101.234ZM118.039 347.141C117.482 347.818 116.711 348.156 115.727 348.156C114.82 348.156 114.128 347.896 113.648 347.375C113.174 346.854 112.932 346.091 112.922 345.086V339.547H115.18V345.008C115.18 345.888 115.581 346.328 116.383 346.328C117.148 346.328 117.674 346.062 117.961 345.531V339.547H120.227V348H118.102L118.039 347.141ZM124.633 337.469V339.547H126.078V341.203H124.633V345.422C124.633 345.734 124.693 345.958 124.812 346.094C124.932 346.229 125.161 346.297 125.5 346.297C125.75 346.297 125.971 346.279 126.164 346.242V347.953C125.721 348.089 125.266 348.156 124.797 348.156C123.214 348.156 122.406 347.357 122.375 345.758V341.203H121.141V339.547H122.375V337.469H124.633ZM132.234 348C132.13 347.797 132.055 347.544 132.008 347.242C131.461 347.852 130.75 348.156 129.875 348.156C129.047 348.156 128.359 347.917 127.812 347.438C127.271 346.958 127 346.354 127 345.625C127 344.729 127.331 344.042 127.992 343.562C128.659 343.083 129.62 342.841 130.875 342.836H131.914V342.352C131.914 341.961 131.812 341.648 131.609 341.414C131.411 341.18 131.096 341.062 130.664 341.062C130.284 341.062 129.984 341.154 129.766 341.336C129.552 341.518 129.445 341.768 129.445 342.086H127.188C127.188 341.596 127.339 341.143 127.641 340.727C127.943 340.31 128.37 339.984 128.922 339.75C129.474 339.51 130.094 339.391 130.781 339.391C131.823 339.391 132.648 339.654 133.258 340.18C133.872 340.701 134.18 341.435 134.18 342.383V346.047C134.185 346.849 134.297 347.456 134.516 347.867V348H132.234ZM130.367 346.43C130.701 346.43 131.008 346.357 131.289 346.211C131.57 346.06 131.779 345.859 131.914 345.609V344.156H131.07C129.94 344.156 129.339 344.547 129.266 345.328L129.258 345.461C129.258 345.742 129.357 345.974 129.555 346.156C129.753 346.339 130.023 346.43 130.367 346.43ZM138.617 337.469V339.547H140.062V341.203H138.617V345.422C138.617 345.734 138.677 345.958 138.797 346.094C138.917 346.229 139.146 346.297 139.484 346.297C139.734 346.297 139.956 346.279 140.148 346.242V347.953C139.706 348.089 139.25 348.156 138.781 348.156C137.198 348.156 136.391 347.357 136.359 345.758V341.203H135.125V339.547H136.359V337.469H138.617ZM146.219 348C146.115 347.797 146.039 347.544 145.992 347.242C145.445 347.852 144.734 348.156 143.859 348.156C143.031 348.156 142.344 347.917 141.797 347.438C141.255 346.958 140.984 346.354 140.984 345.625C140.984 344.729 141.315 344.042 141.977 343.562C142.643 343.083 143.604 342.841 144.859 342.836H145.898V342.352C145.898 341.961 145.797 341.648 145.594 341.414C145.396 341.18 145.081 341.062 144.648 341.062C144.268 341.062 143.969 341.154 143.75 341.336C143.536 341.518 143.43 341.768 143.43 342.086H141.172C141.172 341.596 141.323 341.143 141.625 340.727C141.927 340.31 142.354 339.984 142.906 339.75C143.458 339.51 144.078 339.391 144.766 339.391C145.807 339.391 146.633 339.654 147.242 340.18C147.857 340.701 148.164 341.435 148.164 342.383V346.047C148.169 346.849 148.281 347.456 148.5 347.867V348H146.219ZM144.352 346.43C144.685 346.43 144.992 346.357 145.273 346.211C145.555 346.06 145.763 345.859 145.898 345.609V344.156H145.055C143.924 344.156 143.323 344.547 143.25 345.328L143.242 345.461C143.242 345.742 143.341 345.974 143.539 346.156C143.737 346.339 144.008 346.43 144.352 346.43ZM145.211 336H147.672L145.508 338.422H143.672L145.211 336ZM154.477 345.664C154.477 345.388 154.339 345.172 154.062 345.016C153.792 344.854 153.354 344.711 152.75 344.586C150.74 344.164 149.734 343.31 149.734 342.023C149.734 341.273 150.044 340.648 150.664 340.148C151.289 339.643 152.104 339.391 153.109 339.391C154.182 339.391 155.039 339.643 155.68 340.148C156.326 340.654 156.648 341.31 156.648 342.117H154.391C154.391 341.794 154.286 341.529 154.078 341.32C153.87 341.107 153.544 341 153.102 341C152.721 341 152.427 341.086 152.219 341.258C152.01 341.43 151.906 341.648 151.906 341.914C151.906 342.164 152.023 342.367 152.258 342.523C152.497 342.674 152.898 342.807 153.461 342.922C154.023 343.031 154.497 343.156 154.883 343.297C156.076 343.734 156.672 344.492 156.672 345.57C156.672 346.341 156.341 346.966 155.68 347.445C155.018 347.919 154.164 348.156 153.117 348.156C152.409 348.156 151.779 348.031 151.227 347.781C150.68 347.526 150.25 347.18 149.938 346.742C149.625 346.299 149.469 345.823 149.469 345.312H151.609C151.63 345.714 151.779 346.021 152.055 346.234C152.331 346.448 152.701 346.555 153.164 346.555C153.596 346.555 153.922 346.474 154.141 346.312C154.365 346.146 154.477 345.93 154.477 345.664ZM157.781 343.695C157.781 342.857 157.943 342.109 158.266 341.453C158.589 340.797 159.052 340.289 159.656 339.93C160.266 339.57 160.971 339.391 161.773 339.391C162.914 339.391 163.844 339.74 164.562 340.438C165.286 341.135 165.69 342.083 165.773 343.281L165.789 343.859C165.789 345.156 165.427 346.198 164.703 346.984C163.979 347.766 163.008 348.156 161.789 348.156C160.57 348.156 159.596 347.766 158.867 346.984C158.143 346.203 157.781 345.141 157.781 343.797V343.695ZM160.039 343.859C160.039 344.661 160.19 345.276 160.492 345.703C160.794 346.125 161.227 346.336 161.789 346.336C162.336 346.336 162.763 346.128 163.07 345.711C163.378 345.289 163.531 344.617 163.531 343.695C163.531 342.909 163.378 342.299 163.07 341.867C162.763 341.435 162.331 341.219 161.773 341.219C161.221 341.219 160.794 341.435 160.492 341.867C160.19 342.294 160.039 342.958 160.039 343.859ZM170.25 344.609L169.438 345.422V348H167.18V336H169.438V342.648L169.875 342.086L172.039 339.547H174.75L171.695 343.07L175.016 348H172.422L170.25 344.609ZM38.6719 367.156C37.4323 367.156 36.4219 366.776 35.6406 366.016C34.8646 365.255 34.4766 364.242 34.4766 362.977V362.758C34.4766 361.909 34.6406 361.151 34.9688 360.484C35.2969 359.812 35.7604 359.297 36.3594 358.938C36.9635 358.573 37.651 358.391 38.4219 358.391C39.5781 358.391 40.487 358.755 41.1484 359.484C41.8151 360.214 42.1484 361.247 42.1484 362.586V363.508H36.7656C36.8385 364.06 37.0573 364.503 37.4219 364.836C37.7917 365.169 38.2578 365.336 38.8203 365.336C39.6901 365.336 40.3698 365.021 40.8594 364.391L41.9688 365.633C41.6302 366.112 41.1719 366.487 40.5938 366.758C40.0156 367.023 39.375 367.156 38.6719 367.156ZM38.4141 360.219C37.9661 360.219 37.6016 360.37 37.3203 360.672C37.0443 360.974 36.8672 361.406 36.7891 361.969H39.9297V361.789C39.9193 361.289 39.7839 360.904 39.5234 360.633C39.263 360.357 38.8932 360.219 38.4141 360.219ZM38.6172 355H41.0781L38.9141 357.422H37.0781L38.6172 355ZM48.0156 364.664C48.0156 364.388 47.8776 364.172 47.6016 364.016C47.3307 363.854 46.8932 363.711 46.2891 363.586C44.2786 363.164 43.2734 362.31 43.2734 361.023C43.2734 360.273 43.5833 359.648 44.2031 359.148C44.8281 358.643 45.6432 358.391 46.6484 358.391C47.7214 358.391 48.5781 358.643 49.2188 359.148C49.8646 359.654 50.1875 360.31 50.1875 361.117H47.9297C47.9297 360.794 47.8255 360.529 47.6172 360.32C47.4089 360.107 47.0833 360 46.6406 360C46.2604 360 45.9661 360.086 45.7578 360.258C45.5495 360.43 45.4453 360.648 45.4453 360.914C45.4453 361.164 45.5625 361.367 45.7969 361.523C46.0365 361.674 46.4375 361.807 47 361.922C47.5625 362.031 48.0365 362.156 48.4219 362.297C49.6146 362.734 50.2109 363.492 50.2109 364.57C50.2109 365.341 49.8802 365.966 49.2188 366.445C48.5573 366.919 47.7031 367.156 46.6562 367.156C45.9479 367.156 45.3177 367.031 44.7656 366.781C44.2188 366.526 43.7891 366.18 43.4766 365.742C43.1641 365.299 43.0078 364.823 43.0078 364.312H45.1484C45.1693 364.714 45.3177 365.021 45.5938 365.234C45.8698 365.448 46.2396 365.555 46.7031 365.555C47.1354 365.555 47.4609 365.474 47.6797 365.312C47.9036 365.146 48.0156 364.93 48.0156 364.664ZM58.0391 367H55.7734V358.547H58.0391V367ZM55.6406 356.359C55.6406 356.021 55.7526 355.742 55.9766 355.523C56.2057 355.305 56.5156 355.195 56.9062 355.195C57.2917 355.195 57.599 355.305 57.8281 355.523C58.0573 355.742 58.1719 356.021 58.1719 356.359C58.1719 356.703 58.0547 356.984 57.8203 357.203C57.5911 357.422 57.2865 357.531 56.9062 357.531C56.526 357.531 56.2188 357.422 55.9844 357.203C55.7552 356.984 55.6406 356.703 55.6406 356.359ZM61.9844 358.547L62.0547 359.523C62.6589 358.768 63.4688 358.391 64.4844 358.391C65.3802 358.391 66.0469 358.654 66.4844 359.18C66.9219 359.706 67.1458 360.492 67.1562 361.539V367H64.8984V361.594C64.8984 361.115 64.7943 360.768 64.5859 360.555C64.3776 360.336 64.0312 360.227 63.5469 360.227C62.9115 360.227 62.4349 360.497 62.1172 361.039V367H59.8594V358.547H61.9844ZM69.4922 367V360.203H68.2344V358.547H69.4922V357.828C69.4922 356.88 69.763 356.146 70.3047 355.625C70.8516 355.099 71.6146 354.836 72.5938 354.836C72.9062 354.836 73.2891 354.888 73.7422 354.992L73.7188 356.742C73.5312 356.695 73.3021 356.672 73.0312 356.672C72.1823 356.672 71.7578 357.07 71.7578 357.867V358.547H73.4375V360.203H71.7578V367H69.4922ZM74.2578 362.695C74.2578 361.857 74.4193 361.109 74.7422 360.453C75.0651 359.797 75.5286 359.289 76.1328 358.93C76.7422 358.57 77.4479 358.391 78.25 358.391C79.3906 358.391 80.3203 358.74 81.0391 359.438C81.763 360.135 82.1667 361.083 82.25 362.281L82.2656 362.859C82.2656 364.156 81.9036 365.198 81.1797 365.984C80.4557 366.766 79.4844 367.156 78.2656 367.156C77.0469 367.156 76.0729 366.766 75.3438 365.984C74.6198 365.203 74.2578 364.141 74.2578 362.797V362.695ZM76.5156 362.859C76.5156 363.661 76.6667 364.276 76.9688 364.703C77.2708 365.125 77.7031 365.336 78.2656 365.336C78.8125 365.336 79.2396 365.128 79.5469 364.711C79.8542 364.289 80.0078 363.617 80.0078 362.695C80.0078 361.909 79.8542 361.299 79.5469 360.867C79.2396 360.435 78.8073 360.219 78.25 360.219C77.6979 360.219 77.2708 360.435 76.9688 360.867C76.6667 361.294 76.5156 361.958 76.5156 362.859ZM83.3281 362.711C83.3281 361.414 83.6354 360.37 84.25 359.578C84.8698 358.786 85.7031 358.391 86.75 358.391C87.6771 358.391 88.3984 358.708 88.9141 359.344L89.0078 358.547H91.0547V366.719C91.0547 367.458 90.8854 368.102 90.5469 368.648C90.2135 369.195 89.7422 369.612 89.1328 369.898C88.5234 370.185 87.8099 370.328 86.9922 370.328C86.3724 370.328 85.7682 370.203 85.1797 369.953C84.5911 369.708 84.1458 369.391 83.8438 369L84.8438 367.625C85.4062 368.255 86.0885 368.57 86.8906 368.57C87.4896 368.57 87.9557 368.409 88.2891 368.086C88.6224 367.768 88.7891 367.315 88.7891 366.727V366.273C88.2682 366.862 87.5833 367.156 86.7344 367.156C85.7188 367.156 84.8958 366.76 84.2656 365.969C83.6406 365.172 83.3281 364.117 83.3281 362.805V362.711ZM85.5859 362.875C85.5859 363.641 85.7396 364.242 86.0469 364.68C86.3542 365.112 86.776 365.328 87.3125 365.328C88 365.328 88.4922 365.07 88.7891 364.555V361C88.487 360.484 88 360.227 87.3281 360.227C86.7865 360.227 86.3594 360.448 86.0469 360.891C85.7396 361.333 85.5859 361.995 85.5859 362.875ZM97.5469 360.664C97.2396 360.622 96.9688 360.602 96.7344 360.602C95.8802 360.602 95.3203 360.891 95.0547 361.469V367H92.7969V358.547H94.9297L94.9922 359.555C95.4453 358.779 96.0729 358.391 96.875 358.391C97.125 358.391 97.3594 358.424 97.5781 358.492L97.5469 360.664ZM103.305 367C103.201 366.797 103.125 366.544 103.078 366.242C102.531 366.852 101.82 367.156 100.945 367.156C100.117 367.156 99.4297 366.917 98.8828 366.438C98.3411 365.958 98.0703 365.354 98.0703 364.625C98.0703 363.729 98.401 363.042 99.0625 362.562C99.7292 362.083 100.69 361.841 101.945 361.836H102.984V361.352C102.984 360.961 102.883 360.648 102.68 360.414C102.482 360.18 102.167 360.062 101.734 360.062C101.354 360.062 101.055 360.154 100.836 360.336C100.622 360.518 100.516 360.768 100.516 361.086H98.2578C98.2578 360.596 98.4089 360.143 98.7109 359.727C99.013 359.31 99.4401 358.984 99.9922 358.75C100.544 358.51 101.164 358.391 101.852 358.391C102.893 358.391 103.719 358.654 104.328 359.18C104.943 359.701 105.25 360.435 105.25 361.383V365.047C105.255 365.849 105.367 366.456 105.586 366.867V367H103.305ZM101.438 365.43C101.771 365.43 102.078 365.357 102.359 365.211C102.641 365.06 102.849 364.859 102.984 364.609V363.156H102.141C101.01 363.156 100.409 363.547 100.336 364.328L100.328 364.461C100.328 364.742 100.427 364.974 100.625 365.156C100.823 365.339 101.094 365.43 101.438 365.43ZM107.531 367V360.203H106.273V358.547H107.531V358.156C107.542 357.094 107.867 356.276 108.508 355.703C109.154 355.125 110.062 354.836 111.234 354.836C111.938 354.836 112.792 354.99 113.797 355.297L113.469 357.164C112.958 357.013 112.562 356.917 112.281 356.875C112 356.828 111.698 356.805 111.375 356.805C110.323 356.805 109.797 357.271 109.797 358.203V358.547H111.461V360.203H109.797V367H107.531ZM114.852 367H112.586V358.547H114.852V367ZM119.789 363.609L118.977 364.422V367H116.719V355H118.977V361.648L119.414 361.086L121.578 358.547H124.289L121.234 362.07L124.555 367H121.961L119.789 363.609ZM130.164 367C130.06 366.797 129.984 366.544 129.938 366.242C129.391 366.852 128.68 367.156 127.805 367.156C126.977 367.156 126.289 366.917 125.742 366.438C125.201 365.958 124.93 365.354 124.93 364.625C124.93 363.729 125.26 363.042 125.922 362.562C126.589 362.083 127.549 361.841 128.805 361.836H129.844V361.352C129.844 360.961 129.742 360.648 129.539 360.414C129.341 360.18 129.026 360.062 128.594 360.062C128.214 360.062 127.914 360.154 127.695 360.336C127.482 360.518 127.375 360.768 127.375 361.086H125.117C125.117 360.596 125.268 360.143 125.57 359.727C125.872 359.31 126.299 358.984 126.852 358.75C127.404 358.51 128.023 358.391 128.711 358.391C129.753 358.391 130.578 358.654 131.188 359.18C131.802 359.701 132.109 360.435 132.109 361.383V365.047C132.115 365.849 132.227 366.456 132.445 366.867V367H130.164ZM128.297 365.43C128.63 365.43 128.938 365.357 129.219 365.211C129.5 365.06 129.708 364.859 129.844 364.609V363.156H129C127.87 363.156 127.268 363.547 127.195 364.328L127.188 364.461C127.188 364.742 127.286 364.974 127.484 365.156C127.682 365.339 127.953 365.43 128.297 365.43ZM129.156 355H131.617L129.453 357.422H127.617L129.156 355ZM136.914 363.609L136.102 364.422V367H133.844V355H136.102V361.648L136.539 361.086L138.703 358.547H141.414L138.359 362.07L141.68 367H139.086L136.914 363.609ZM151.273 367C151.169 366.797 151.094 366.544 151.047 366.242C150.5 366.852 149.789 367.156 148.914 367.156C148.086 367.156 147.398 366.917 146.852 366.438C146.31 365.958 146.039 365.354 146.039 364.625C146.039 363.729 146.37 363.042 147.031 362.562C147.698 362.083 148.659 361.841 149.914 361.836H150.953V361.352C150.953 360.961 150.852 360.648 150.648 360.414C150.451 360.18 150.135 360.062 149.703 360.062C149.323 360.062 149.023 360.154 148.805 360.336C148.591 360.518 148.484 360.768 148.484 361.086H146.227C146.227 360.596 146.378 360.143 146.68 359.727C146.982 359.31 147.409 358.984 147.961 358.75C148.513 358.51 149.133 358.391 149.82 358.391C150.862 358.391 151.688 358.654 152.297 359.18C152.911 359.701 153.219 360.435 153.219 361.383V365.047C153.224 365.849 153.336 366.456 153.555 366.867V367H151.273ZM149.406 365.43C149.74 365.43 150.047 365.357 150.328 365.211C150.609 365.06 150.818 364.859 150.953 364.609V363.156H150.109C148.979 363.156 148.378 363.547 148.305 364.328L148.297 364.461C148.297 364.742 148.396 364.974 148.594 365.156C148.792 365.339 149.062 365.43 149.406 365.43ZM10.7812 381.438L9.5625 382.75V386H7.21875V374.625H9.5625V379.781L10.5938 378.367L13.4922 374.625H16.375L12.3359 379.68L16.4922 386H13.7031L10.7812 381.438ZM22.125 386C22.0208 385.797 21.9453 385.544 21.8984 385.242C21.3516 385.852 20.6406 386.156 19.7656 386.156C18.9375 386.156 18.25 385.917 17.7031 385.438C17.1615 384.958 16.8906 384.354 16.8906 383.625C16.8906 382.729 17.2214 382.042 17.8828 381.562C18.5495 381.083 19.5104 380.841 20.7656 380.836H21.8047V380.352C21.8047 379.961 21.7031 379.648 21.5 379.414C21.3021 379.18 20.987 379.062 20.5547 379.062C20.1745 379.062 19.875 379.154 19.6562 379.336C19.4427 379.518 19.3359 379.768 19.3359 380.086H17.0781C17.0781 379.596 17.2292 379.143 17.5312 378.727C17.8333 378.31 18.2604 377.984 18.8125 377.75C19.3646 377.51 19.9844 377.391 20.6719 377.391C21.7135 377.391 22.5391 377.654 23.1484 378.18C23.763 378.701 24.0703 379.435 24.0703 380.383V384.047C24.0755 384.849 24.1875 385.456 24.4062 385.867V386H22.125ZM20.2578 384.43C20.5911 384.43 20.8984 384.357 21.1797 384.211C21.4609 384.06 21.6693 383.859 21.8047 383.609V382.156H20.9609C19.8307 382.156 19.2292 382.547 19.1562 383.328L19.1484 383.461C19.1484 383.742 19.2474 383.974 19.4453 384.156C19.6432 384.339 19.9141 384.43 20.2578 384.43ZM21.1172 374H23.5781L21.4141 376.422H19.5781L21.1172 374ZM30.5547 379.664C30.2474 379.622 29.9766 379.602 29.7422 379.602C28.888 379.602 28.3281 379.891 28.0625 380.469V386H25.8047V377.547H27.9375L28 378.555C28.4531 377.779 29.0807 377.391 29.8828 377.391C30.1328 377.391 30.3672 377.424 30.5859 377.492L30.5547 379.664ZM39.2578 381.852C39.2578 383.154 38.9609 384.198 38.3672 384.984C37.7786 385.766 36.9818 386.156 35.9766 386.156C35.1224 386.156 34.4323 385.859 33.9062 385.266V389.25H31.6484V377.547H33.7422L33.8203 378.375C34.3672 377.719 35.0807 377.391 35.9609 377.391C37.0026 377.391 37.8125 377.776 38.3906 378.547C38.9688 379.318 39.2578 380.38 39.2578 381.734V381.852ZM37 381.688C37 380.901 36.8594 380.294 36.5781 379.867C36.3021 379.44 35.8984 379.227 35.3672 379.227C34.6589 379.227 34.1719 379.497 33.9062 380.039V383.5C34.1823 384.057 34.6745 384.336 35.3828 384.336C36.4609 384.336 37 383.453 37 381.688ZM45.5625 386C45.4583 385.797 45.3828 385.544 45.3359 385.242C44.7891 385.852 44.0781 386.156 43.2031 386.156C42.375 386.156 41.6875 385.917 41.1406 385.438C40.599 384.958 40.3281 384.354 40.3281 383.625C40.3281 382.729 40.6589 382.042 41.3203 381.562C41.987 381.083 42.9479 380.841 44.2031 380.836H45.2422V380.352C45.2422 379.961 45.1406 379.648 44.9375 379.414C44.7396 379.18 44.4245 379.062 43.9922 379.062C43.612 379.062 43.3125 379.154 43.0938 379.336C42.8802 379.518 42.7734 379.768 42.7734 380.086H40.5156C40.5156 379.596 40.6667 379.143 40.9688 378.727C41.2708 378.31 41.6979 377.984 42.25 377.75C42.8021 377.51 43.4219 377.391 44.1094 377.391C45.151 377.391 45.9766 377.654 46.5859 378.18C47.2005 378.701 47.5078 379.435 47.5078 380.383V384.047C47.513 384.849 47.625 385.456 47.8438 385.867V386H45.5625ZM43.6953 384.43C44.0286 384.43 44.3359 384.357 44.6172 384.211C44.8984 384.06 45.1068 383.859 45.2422 383.609V382.156H44.3984C43.2682 382.156 42.6667 382.547 42.5938 383.328L42.5859 383.461C42.5859 383.742 42.6849 383.974 42.8828 384.156C43.0807 384.339 43.3516 384.43 43.6953 384.43ZM44.5547 374H47.0156L44.8516 376.422H43.0156L44.5547 374ZM51.9453 375.469V377.547H53.3906V379.203H51.9453V383.422C51.9453 383.734 52.0052 383.958 52.125 384.094C52.2448 384.229 52.474 384.297 52.8125 384.297C53.0625 384.297 53.2839 384.279 53.4766 384.242V385.953C53.0339 386.089 52.5781 386.156 52.1094 386.156C50.526 386.156 49.7188 385.357 49.6875 383.758V379.203H48.4531V377.547H49.6875V375.469H51.9453ZM59.0391 382.039H54.6406V380.219H59.0391V382.039ZM63.0547 378.469C63.6536 377.75 64.4062 377.391 65.3125 377.391C67.1458 377.391 68.0755 378.456 68.1016 380.586V386H65.8438V380.648C65.8438 380.164 65.7396 379.807 65.5312 379.578C65.3229 379.344 64.9766 379.227 64.4922 379.227C63.8307 379.227 63.3516 379.482 63.0547 379.992V386H60.7969V374H63.0547V378.469ZM74.7031 386C74.599 385.797 74.5234 385.544 74.4766 385.242C73.9297 385.852 73.2188 386.156 72.3438 386.156C71.5156 386.156 70.8281 385.917 70.2812 385.438C69.7396 384.958 69.4688 384.354 69.4688 383.625C69.4688 382.729 69.7995 382.042 70.4609 381.562C71.1276 381.083 72.0885 380.841 73.3438 380.836H74.3828V380.352C74.3828 379.961 74.2812 379.648 74.0781 379.414C73.8802 379.18 73.5651 379.062 73.1328 379.062C72.7526 379.062 72.4531 379.154 72.2344 379.336C72.0208 379.518 71.9141 379.768 71.9141 380.086H69.6562C69.6562 379.596 69.8073 379.143 70.1094 378.727C70.4115 378.31 70.8385 377.984 71.3906 377.75C71.9427 377.51 72.5625 377.391 73.25 377.391C74.2917 377.391 75.1172 377.654 75.7266 378.18C76.3411 378.701 76.6484 379.435 76.6484 380.383V384.047C76.6536 384.849 76.7656 385.456 76.9844 385.867V386H74.7031ZM72.8359 384.43C73.1693 384.43 73.4766 384.357 73.7578 384.211C74.0391 384.06 74.2474 383.859 74.3828 383.609V382.156H73.5391C72.4089 382.156 71.8073 382.547 71.7344 383.328L71.7266 383.461C71.7266 383.742 71.8255 383.974 72.0234 384.156C72.2214 384.339 72.4922 384.43 72.8359 384.43ZM80.9766 384.18H85.1094V386H78.0938V384.625L82.0703 379.375H78.2109V377.547H84.9844V378.883L80.9766 384.18ZM91.4219 386C91.3177 385.797 91.2422 385.544 91.1953 385.242C90.6484 385.852 89.9375 386.156 89.0625 386.156C88.2344 386.156 87.5469 385.917 87 385.438C86.4583 384.958 86.1875 384.354 86.1875 383.625C86.1875 382.729 86.5182 382.042 87.1797 381.562C87.8464 381.083 88.8073 380.841 90.0625 380.836H91.1016V380.352C91.1016 379.961 91 379.648 90.7969 379.414C90.599 379.18 90.2839 379.062 89.8516 379.062C89.4714 379.062 89.1719 379.154 88.9531 379.336C88.7396 379.518 88.6328 379.768 88.6328 380.086H86.375C86.375 379.596 86.526 379.143 86.8281 378.727C87.1302 378.31 87.5573 377.984 88.1094 377.75C88.6615 377.51 89.2812 377.391 89.9688 377.391C91.0104 377.391 91.8359 377.654 92.4453 378.18C93.0599 378.701 93.3672 379.435 93.3672 380.383V384.047C93.3724 384.849 93.4844 385.456 93.7031 385.867V386H91.4219ZM89.5547 384.43C89.888 384.43 90.1953 384.357 90.4766 384.211C90.7578 384.06 90.9661 383.859 91.1016 383.609V382.156H90.2578C89.1276 382.156 88.526 382.547 88.4531 383.328L88.4453 383.461C88.4453 383.742 88.5443 383.974 88.7422 384.156C88.9401 384.339 89.2109 384.43 89.5547 384.43ZM103.664 383.664C103.664 383.388 103.526 383.172 103.25 383.016C102.979 382.854 102.542 382.711 101.938 382.586C99.9271 382.164 98.9219 381.31 98.9219 380.023C98.9219 379.273 99.2318 378.648 99.8516 378.148C100.477 377.643 101.292 377.391 102.297 377.391C103.37 377.391 104.227 377.643 104.867 378.148C105.513 378.654 105.836 379.31 105.836 380.117H103.578C103.578 379.794 103.474 379.529 103.266 379.32C103.057 379.107 102.732 379 102.289 379C101.909 379 101.615 379.086 101.406 379.258C101.198 379.43 101.094 379.648 101.094 379.914C101.094 380.164 101.211 380.367 101.445 380.523C101.685 380.674 102.086 380.807 102.648 380.922C103.211 381.031 103.685 381.156 104.07 381.297C105.263 381.734 105.859 382.492 105.859 383.57C105.859 384.341 105.529 384.966 104.867 385.445C104.206 385.919 103.352 386.156 102.305 386.156C101.596 386.156 100.966 386.031 100.414 385.781C99.8672 385.526 99.4375 385.18 99.125 384.742C98.8125 384.299 98.6562 383.823 98.6562 383.312H100.797C100.818 383.714 100.966 384.021 101.242 384.234C101.518 384.448 101.888 384.555 102.352 384.555C102.784 384.555 103.109 384.474 103.328 384.312C103.552 384.146 103.664 383.93 103.664 383.664ZM110.023 375.469V377.547H111.469V379.203H110.023V383.422C110.023 383.734 110.083 383.958 110.203 384.094C110.323 384.229 110.552 384.297 110.891 384.297C111.141 384.297 111.362 384.279 111.555 384.242V385.953C111.112 386.089 110.656 386.156 110.188 386.156C108.604 386.156 107.797 385.357 107.766 383.758V379.203H106.531V377.547H107.766V375.469H110.023ZM117.625 386C117.521 385.797 117.445 385.544 117.398 385.242C116.852 385.852 116.141 386.156 115.266 386.156C114.438 386.156 113.75 385.917 113.203 385.438C112.661 384.958 112.391 384.354 112.391 383.625C112.391 382.729 112.721 382.042 113.383 381.562C114.049 381.083 115.01 380.841 116.266 380.836H117.305V380.352C117.305 379.961 117.203 379.648 117 379.414C116.802 379.18 116.487 379.062 116.055 379.062C115.674 379.062 115.375 379.154 115.156 379.336C114.943 379.518 114.836 379.768 114.836 380.086H112.578C112.578 379.596 112.729 379.143 113.031 378.727C113.333 378.31 113.76 377.984 114.312 377.75C114.865 377.51 115.484 377.391 116.172 377.391C117.214 377.391 118.039 377.654 118.648 378.18C119.263 378.701 119.57 379.435 119.57 380.383V384.047C119.576 384.849 119.688 385.456 119.906 385.867V386H117.625ZM115.758 384.43C116.091 384.43 116.398 384.357 116.68 384.211C116.961 384.06 117.169 383.859 117.305 383.609V382.156H116.461C115.331 382.156 114.729 382.547 114.656 383.328L114.648 383.461C114.648 383.742 114.747 383.974 114.945 384.156C115.143 384.339 115.414 384.43 115.758 384.43ZM124.008 375.469V377.547H125.453V379.203H124.008V383.422C124.008 383.734 124.068 383.958 124.188 384.094C124.307 384.229 124.536 384.297 124.875 384.297C125.125 384.297 125.346 384.279 125.539 384.242V385.953C125.096 386.089 124.641 386.156 124.172 386.156C122.589 386.156 121.781 385.357 121.75 383.758V379.203H120.516V377.547H121.75V375.469H124.008ZM129.094 386H126.828V377.547H129.094V386ZM126.695 375.359C126.695 375.021 126.807 374.742 127.031 374.523C127.26 374.305 127.57 374.195 127.961 374.195C128.346 374.195 128.654 374.305 128.883 374.523C129.112 374.742 129.227 375.021 129.227 375.359C129.227 375.703 129.109 375.984 128.875 376.203C128.646 376.422 128.341 376.531 127.961 376.531C127.581 376.531 127.273 376.422 127.039 376.203C126.81 375.984 126.695 375.703 126.695 375.359ZM135.539 383.664C135.539 383.388 135.401 383.172 135.125 383.016C134.854 382.854 134.417 382.711 133.812 382.586C131.802 382.164 130.797 381.31 130.797 380.023C130.797 379.273 131.107 378.648 131.727 378.148C132.352 377.643 133.167 377.391 134.172 377.391C135.245 377.391 136.102 377.643 136.742 378.148C137.388 378.654 137.711 379.31 137.711 380.117H135.453C135.453 379.794 135.349 379.529 135.141 379.32C134.932 379.107 134.607 379 134.164 379C133.784 379 133.49 379.086 133.281 379.258C133.073 379.43 132.969 379.648 132.969 379.914C132.969 380.164 133.086 380.367 133.32 380.523C133.56 380.674 133.961 380.807 134.523 380.922C135.086 381.031 135.56 381.156 135.945 381.297C137.138 381.734 137.734 382.492 137.734 383.57C137.734 384.341 137.404 384.966 136.742 385.445C136.081 385.919 135.227 386.156 134.18 386.156C133.471 386.156 132.841 386.031 132.289 385.781C131.742 385.526 131.312 385.18 131 384.742C130.688 384.299 130.531 383.823 130.531 383.312H132.672C132.693 383.714 132.841 384.021 133.117 384.234C133.393 384.448 133.763 384.555 134.227 384.555C134.659 384.555 134.984 384.474 135.203 384.312C135.427 384.146 135.539 383.93 135.539 383.664ZM141.789 384.18H145.922V386H138.906V384.625L142.883 379.375H139.023V377.547H145.797V378.883L141.789 384.18ZM150.039 375.469V377.547H151.484V379.203H150.039V383.422C150.039 383.734 150.099 383.958 150.219 384.094C150.339 384.229 150.568 384.297 150.906 384.297C151.156 384.297 151.378 384.279 151.57 384.242V385.953C151.128 386.089 150.672 386.156 150.203 386.156C148.62 386.156 147.812 385.357 147.781 383.758V379.203H146.547V377.547H147.781V375.469H150.039ZM155.125 386H152.859V377.547H155.125V386ZM152.727 375.359C152.727 375.021 152.839 374.742 153.062 374.523C153.292 374.305 153.602 374.195 153.992 374.195C154.378 374.195 154.685 374.305 154.914 374.523C155.143 374.742 155.258 375.021 155.258 375.359C155.258 375.703 155.141 375.984 154.906 376.203C154.677 376.422 154.372 376.531 153.992 376.531C153.612 376.531 153.305 376.422 153.07 376.203C152.841 375.984 152.727 375.703 152.727 375.359ZM160.062 382.609L159.25 383.422V386H156.992V374H159.25V380.648L159.688 380.086L161.852 377.547H164.562L161.508 381.07L164.828 386H162.234L160.062 382.609ZM170.438 386C170.333 385.797 170.258 385.544 170.211 385.242C169.664 385.852 168.953 386.156 168.078 386.156C167.25 386.156 166.562 385.917 166.016 385.438C165.474 384.958 165.203 384.354 165.203 383.625C165.203 382.729 165.534 382.042 166.195 381.562C166.862 381.083 167.823 380.841 169.078 380.836H170.117V380.352C170.117 379.961 170.016 379.648 169.812 379.414C169.615 379.18 169.299 379.062 168.867 379.062C168.487 379.062 168.188 379.154 167.969 379.336C167.755 379.518 167.648 379.768 167.648 380.086H165.391C165.391 379.596 165.542 379.143 165.844 378.727C166.146 378.31 166.573 377.984 167.125 377.75C167.677 377.51 168.297 377.391 168.984 377.391C170.026 377.391 170.852 377.654 171.461 378.18C172.076 378.701 172.383 379.435 172.383 380.383V384.047C172.388 384.849 172.5 385.456 172.719 385.867V386H170.438ZM168.57 384.43C168.904 384.43 169.211 384.357 169.492 384.211C169.773 384.06 169.982 383.859 170.117 383.609V382.156H169.273C168.143 382.156 167.542 382.547 167.469 383.328L167.461 383.461C167.461 383.742 167.56 383.974 167.758 384.156C167.956 384.339 168.227 384.43 168.57 384.43ZM169.43 374H171.891L169.727 376.422H167.891L169.43 374ZM177.188 382.609L176.375 383.422V386H174.117V374H176.375V380.648L176.812 380.086L178.977 377.547H181.688L178.633 381.07L181.953 386H179.359L177.188 382.609ZM53.75 405C53.6458 404.797 53.5703 404.544 53.5234 404.242C52.9766 404.852 52.2656 405.156 51.3906 405.156C50.5625 405.156 49.875 404.917 49.3281 404.438C48.7865 403.958 48.5156 403.354 48.5156 402.625C48.5156 401.729 48.8464 401.042 49.5078 400.562C50.1745 400.083 51.1354 399.841 52.3906 399.836H53.4297V399.352C53.4297 398.961 53.3281 398.648 53.125 398.414C52.9271 398.18 52.612 398.062 52.1797 398.062C51.7995 398.062 51.5 398.154 51.2812 398.336C51.0677 398.518 50.9609 398.768 50.9609 399.086H48.7031C48.7031 398.596 48.8542 398.143 49.1562 397.727C49.4583 397.31 49.8854 396.984 50.4375 396.75C50.9896 396.51 51.6094 396.391 52.2969 396.391C53.3385 396.391 54.1641 396.654 54.7734 397.18C55.388 397.701 55.6953 398.435 55.6953 399.383V403.047C55.7005 403.849 55.8125 404.456 56.0312 404.867V405H53.75ZM51.8828 403.43C52.2161 403.43 52.5234 403.357 52.8047 403.211C53.0859 403.06 53.2943 402.859 53.4297 402.609V401.156H52.5859C51.4557 401.156 50.8542 401.547 50.7812 402.328L50.7734 402.461C50.7734 402.742 50.8724 402.974 51.0703 403.156C51.2682 403.339 51.5391 403.43 51.8828 403.43ZM57.0781 400.711C57.0781 399.393 57.3724 398.344 57.9609 397.562C58.5547 396.781 59.3646 396.391 60.3906 396.391C61.2135 396.391 61.8932 396.698 62.4297 397.312V393H64.6953V405H62.6562L62.5469 404.102C61.9844 404.805 61.2604 405.156 60.375 405.156C59.3802 405.156 58.5807 404.766 57.9766 403.984C57.3776 403.198 57.0781 402.107 57.0781 400.711ZM59.3359 400.875C59.3359 401.667 59.474 402.273 59.75 402.695C60.026 403.117 60.4271 403.328 60.9531 403.328C61.651 403.328 62.1432 403.034 62.4297 402.445V399.109C62.1484 398.521 61.6615 398.227 60.9688 398.227C59.8802 398.227 59.3359 399.109 59.3359 400.875ZM71.3438 405C71.2396 404.797 71.1641 404.544 71.1172 404.242C70.5703 404.852 69.8594 405.156 68.9844 405.156C68.1562 405.156 67.4688 404.917 66.9219 404.438C66.3802 403.958 66.1094 403.354 66.1094 402.625C66.1094 401.729 66.4401 401.042 67.1016 400.562C67.7682 400.083 68.7292 399.841 69.9844 399.836H71.0234V399.352C71.0234 398.961 70.9219 398.648 70.7188 398.414C70.5208 398.18 70.2057 398.062 69.7734 398.062C69.3932 398.062 69.0938 398.154 68.875 398.336C68.6615 398.518 68.5547 398.768 68.5547 399.086H66.2969C66.2969 398.596 66.4479 398.143 66.75 397.727C67.0521 397.31 67.4792 396.984 68.0312 396.75C68.5833 396.51 69.2031 396.391 69.8906 396.391C70.9323 396.391 71.7578 396.654 72.3672 397.18C72.9818 397.701 73.2891 398.435 73.2891 399.383V403.047C73.2943 403.849 73.4062 404.456 73.625 404.867V405H71.3438ZM69.4766 403.43C69.8099 403.43 70.1172 403.357 70.3984 403.211C70.6797 403.06 70.888 402.859 71.0234 402.609V401.156H70.1797C69.0495 401.156 68.4479 401.547 68.375 402.328L68.3672 402.461C68.3672 402.742 68.4661 402.974 68.6641 403.156C68.862 403.339 69.1328 403.43 69.4766 403.43ZM77.7266 394.469V396.547H79.1719V398.203H77.7266V402.422C77.7266 402.734 77.7865 402.958 77.9062 403.094C78.026 403.229 78.2552 403.297 78.5938 403.297C78.8438 403.297 79.0651 403.279 79.2578 403.242V404.953C78.8151 405.089 78.3594 405.156 77.8906 405.156C76.3073 405.156 75.5 404.357 75.4688 402.758V398.203H74.2344V396.547H75.4688V394.469H77.7266ZM85.3281 405C85.224 404.797 85.1484 404.544 85.1016 404.242C84.5547 404.852 83.8438 405.156 82.9688 405.156C82.1406 405.156 81.4531 404.917 80.9062 404.438C80.3646 403.958 80.0938 403.354 80.0938 402.625C80.0938 401.729 80.4245 401.042 81.0859 400.562C81.7526 400.083 82.7135 399.841 83.9688 399.836H85.0078V399.352C85.0078 398.961 84.9062 398.648 84.7031 398.414C84.5052 398.18 84.1901 398.062 83.7578 398.062C83.3776 398.062 83.0781 398.154 82.8594 398.336C82.6458 398.518 82.5391 398.768 82.5391 399.086H80.2812C80.2812 398.596 80.4323 398.143 80.7344 397.727C81.0365 397.31 81.4635 396.984 82.0156 396.75C82.5677 396.51 83.1875 396.391 83.875 396.391C84.9167 396.391 85.7422 396.654 86.3516 397.18C86.9661 397.701 87.2734 398.435 87.2734 399.383V403.047C87.2786 403.849 87.3906 404.456 87.6094 404.867V405H85.3281ZM83.4609 403.43C83.7943 403.43 84.1016 403.357 84.3828 403.211C84.6641 403.06 84.8724 402.859 85.0078 402.609V401.156H84.1641C83.0339 401.156 82.4323 401.547 82.3594 402.328L82.3516 402.461C82.3516 402.742 82.4505 402.974 82.6484 403.156C82.8464 403.339 83.1172 403.43 83.4609 403.43ZM91.3906 405H89.125V396.547H91.3906V405ZM88.9922 394.359C88.9922 394.021 89.1042 393.742 89.3281 393.523C89.5573 393.305 89.8672 393.195 90.2578 393.195C90.6432 393.195 90.9505 393.305 91.1797 393.523C91.4089 393.742 91.5234 394.021 91.5234 394.359C91.5234 394.703 91.4062 394.984 91.1719 395.203C90.9427 395.422 90.638 395.531 90.2578 395.531C89.8776 395.531 89.5703 395.422 89.3359 395.203C89.1068 394.984 88.9922 394.703 88.9922 394.359ZM98.0078 398.664C97.7005 398.622 97.4297 398.602 97.1953 398.602C96.3411 398.602 95.7812 398.891 95.5156 399.469V405H93.2578V396.547H95.3906L95.4531 397.555C95.9062 396.779 96.5339 396.391 97.3359 396.391C97.5859 396.391 97.8203 396.424 98.0391 396.492L98.0078 398.664ZM103.766 405C103.661 404.797 103.586 404.544 103.539 404.242C102.992 404.852 102.281 405.156 101.406 405.156C100.578 405.156 99.8906 404.917 99.3438 404.438C98.8021 403.958 98.5312 403.354 98.5312 402.625C98.5312 401.729 98.862 401.042 99.5234 400.562C100.19 400.083 101.151 399.841 102.406 399.836H103.445V399.352C103.445 398.961 103.344 398.648 103.141 398.414C102.943 398.18 102.628 398.062 102.195 398.062C101.815 398.062 101.516 398.154 101.297 398.336C101.083 398.518 100.977 398.768 100.977 399.086H98.7188C98.7188 398.596 98.8698 398.143 99.1719 397.727C99.474 397.31 99.901 396.984 100.453 396.75C101.005 396.51 101.625 396.391 102.312 396.391C103.354 396.391 104.18 396.654 104.789 397.18C105.404 397.701 105.711 398.435 105.711 399.383V403.047C105.716 403.849 105.828 404.456 106.047 404.867V405H103.766ZM101.898 403.43C102.232 403.43 102.539 403.357 102.82 403.211C103.102 403.06 103.31 402.859 103.445 402.609V401.156H102.602C101.471 401.156 100.87 401.547 100.797 402.328L100.789 402.461C100.789 402.742 100.888 402.974 101.086 403.156C101.284 403.339 101.555 403.43 101.898 403.43ZM115.32 405.156C114.081 405.156 113.07 404.776 112.289 404.016C111.513 403.255 111.125 402.242 111.125 400.977V400.758C111.125 399.909 111.289 399.151 111.617 398.484C111.945 397.812 112.409 397.297 113.008 396.938C113.612 396.573 114.299 396.391 115.07 396.391C116.227 396.391 117.135 396.755 117.797 397.484C118.464 398.214 118.797 399.247 118.797 400.586V401.508H113.414C113.487 402.06 113.706 402.503 114.07 402.836C114.44 403.169 114.906 403.336 115.469 403.336C116.339 403.336 117.018 403.021 117.508 402.391L118.617 403.633C118.279 404.112 117.82 404.487 117.242 404.758C116.664 405.023 116.023 405.156 115.32 405.156ZM115.062 398.219C114.615 398.219 114.25 398.37 113.969 398.672C113.693 398.974 113.516 399.406 113.438 399.969H116.578V399.789C116.568 399.289 116.432 398.904 116.172 398.633C115.911 398.357 115.542 398.219 115.062 398.219ZM115.266 393H117.727L115.562 395.422H113.727L115.266 393ZM124.664 402.664C124.664 402.388 124.526 402.172 124.25 402.016C123.979 401.854 123.542 401.711 122.938 401.586C120.927 401.164 119.922 400.31 119.922 399.023C119.922 398.273 120.232 397.648 120.852 397.148C121.477 396.643 122.292 396.391 123.297 396.391C124.37 396.391 125.227 396.643 125.867 397.148C126.513 397.654 126.836 398.31 126.836 399.117H124.578C124.578 398.794 124.474 398.529 124.266 398.32C124.057 398.107 123.732 398 123.289 398C122.909 398 122.615 398.086 122.406 398.258C122.198 398.43 122.094 398.648 122.094 398.914C122.094 399.164 122.211 399.367 122.445 399.523C122.685 399.674 123.086 399.807 123.648 399.922C124.211 400.031 124.685 400.156 125.07 400.297C126.263 400.734 126.859 401.492 126.859 402.57C126.859 403.341 126.529 403.966 125.867 404.445C125.206 404.919 124.352 405.156 123.305 405.156C122.596 405.156 121.966 405.031 121.414 404.781C120.867 404.526 120.438 404.18 120.125 403.742C119.812 403.299 119.656 402.823 119.656 402.312H121.797C121.818 402.714 121.966 403.021 122.242 403.234C122.518 403.448 122.888 403.555 123.352 403.555C123.784 403.555 124.109 403.474 124.328 403.312C124.552 403.146 124.664 402.93 124.664 402.664ZM137.203 405C137.099 404.797 137.023 404.544 136.977 404.242C136.43 404.852 135.719 405.156 134.844 405.156C134.016 405.156 133.328 404.917 132.781 404.438C132.24 403.958 131.969 403.354 131.969 402.625C131.969 401.729 132.299 401.042 132.961 400.562C133.628 400.083 134.589 399.841 135.844 399.836H136.883V399.352C136.883 398.961 136.781 398.648 136.578 398.414C136.38 398.18 136.065 398.062 135.633 398.062C135.253 398.062 134.953 398.154 134.734 398.336C134.521 398.518 134.414 398.768 134.414 399.086H132.156C132.156 398.596 132.307 398.143 132.609 397.727C132.911 397.31 133.339 396.984 133.891 396.75C134.443 396.51 135.062 396.391 135.75 396.391C136.792 396.391 137.617 396.654 138.227 397.18C138.841 397.701 139.148 398.435 139.148 399.383V403.047C139.154 403.849 139.266 404.456 139.484 404.867V405H137.203ZM135.336 403.43C135.669 403.43 135.977 403.357 136.258 403.211C136.539 403.06 136.747 402.859 136.883 402.609V401.156H136.039C134.909 401.156 134.307 401.547 134.234 402.328L134.227 402.461C134.227 402.742 134.326 402.974 134.523 403.156C134.721 403.339 134.992 403.43 135.336 403.43ZM42.2656 424H39.9219L35.3594 416.516V424H33.0156V412.625H35.3594L39.9297 420.125V412.625H42.2656V424ZM48.0547 424.156C46.8151 424.156 45.8047 423.776 45.0234 423.016C44.2474 422.255 43.8594 421.242 43.8594 419.977V419.758C43.8594 418.909 44.0234 418.151 44.3516 417.484C44.6797 416.812 45.1432 416.297 45.7422 415.938C46.3464 415.573 47.0339 415.391 47.8047 415.391C48.9609 415.391 49.8698 415.755 50.5312 416.484C51.1979 417.214 51.5312 418.247 51.5312 419.586V420.508H46.1484C46.2214 421.06 46.4401 421.503 46.8047 421.836C47.1745 422.169 47.6406 422.336 48.2031 422.336C49.0729 422.336 49.7526 422.021 50.2422 421.391L51.3516 422.633C51.013 423.112 50.5547 423.487 49.9766 423.758C49.3984 424.023 48.7578 424.156 48.0547 424.156ZM47.7969 417.219C47.349 417.219 46.9844 417.37 46.7031 417.672C46.4271 417.974 46.25 418.406 46.1719 418.969H49.3125V418.789C49.3021 418.289 49.1667 417.904 48.9062 417.633C48.6458 417.357 48.276 417.219 47.7969 417.219ZM54.9375 415.547L55.0078 416.492C55.6068 415.758 56.4167 415.391 57.4375 415.391C58.526 415.391 59.2734 415.82 59.6797 416.68C60.2734 415.82 61.1198 415.391 62.2188 415.391C63.1354 415.391 63.8177 415.659 64.2656 416.195C64.7135 416.727 64.9375 417.529 64.9375 418.602V424H62.6719V418.609C62.6719 418.13 62.5781 417.781 62.3906 417.562C62.2031 417.339 61.8724 417.227 61.3984 417.227C60.7214 417.227 60.2526 417.549 59.9922 418.195L60 424H57.7422V418.617C57.7422 418.128 57.6458 417.773 57.4531 417.555C57.2604 417.336 56.9323 417.227 56.4688 417.227C55.8281 417.227 55.3646 417.492 55.0781 418.023V424H52.8203V415.547H54.9375ZM69.2734 422.18H73.4062V424H66.3906V422.625L70.3672 417.375H66.5078V415.547H73.2812V416.883L69.2734 422.18ZM78.5859 424.156C77.3464 424.156 76.3359 423.776 75.5547 423.016C74.7786 422.255 74.3906 421.242 74.3906 419.977V419.758C74.3906 418.909 74.5547 418.151 74.8828 417.484C75.2109 416.812 75.6745 416.297 76.2734 415.938C76.8776 415.573 77.5651 415.391 78.3359 415.391C79.4922 415.391 80.401 415.755 81.0625 416.484C81.7292 417.214 82.0625 418.247 82.0625 419.586V420.508H76.6797C76.7526 421.06 76.9714 421.503 77.3359 421.836C77.7057 422.169 78.1719 422.336 78.7344 422.336C79.6042 422.336 80.2839 422.021 80.7734 421.391L81.8828 422.633C81.5443 423.112 81.0859 423.487 80.5078 423.758C79.9297 424.023 79.2891 424.156 78.5859 424.156ZM78.3281 417.219C77.8802 417.219 77.5156 417.37 77.2344 417.672C76.9583 417.974 76.7812 418.406 76.7031 418.969H79.8438V418.789C79.8333 418.289 79.6979 417.904 79.4375 417.633C79.1771 417.357 78.8073 417.219 78.3281 417.219ZM86.0547 413.469V415.547H87.5V417.203H86.0547V421.422C86.0547 421.734 86.1146 421.958 86.2344 422.094C86.3542 422.229 86.5833 422.297 86.9219 422.297C87.1719 422.297 87.3932 422.279 87.5859 422.242V423.953C87.1432 424.089 86.6875 424.156 86.2188 424.156C84.6354 424.156 83.8281 423.357 83.7969 421.758V417.203H82.5625V415.547H83.7969V413.469H86.0547ZM93.3359 421.664C93.3359 421.388 93.1979 421.172 92.9219 421.016C92.651 420.854 92.2135 420.711 91.6094 420.586C89.599 420.164 88.5938 419.31 88.5938 418.023C88.5938 417.273 88.9036 416.648 89.5234 416.148C90.1484 415.643 90.9635 415.391 91.9688 415.391C93.0417 415.391 93.8984 415.643 94.5391 416.148C95.1849 416.654 95.5078 417.31 95.5078 418.117H93.25C93.25 417.794 93.1458 417.529 92.9375 417.32C92.7292 417.107 92.4036 417 91.9609 417C91.5807 417 91.2865 417.086 91.0781 417.258C90.8698 417.43 90.7656 417.648 90.7656 417.914C90.7656 418.164 90.8828 418.367 91.1172 418.523C91.3568 418.674 91.7578 418.807 92.3203 418.922C92.8828 419.031 93.3568 419.156 93.7422 419.297C94.9349 419.734 95.5312 420.492 95.5312 421.57C95.5312 422.341 95.2005 422.966 94.5391 423.445C93.8776 423.919 93.0234 424.156 91.9766 424.156C91.2682 424.156 90.638 424.031 90.0859 423.781C89.5391 423.526 89.1094 423.18 88.7969 422.742C88.4844 422.299 88.3281 421.823 88.3281 421.312H90.4688C90.4896 421.714 90.638 422.021 90.9141 422.234C91.1901 422.448 91.5599 422.555 92.0234 422.555C92.4557 422.555 92.7812 422.474 93 422.312C93.224 422.146 93.3359 421.93 93.3359 421.664ZM99.6953 413.469V415.547H101.141V417.203H99.6953V421.422C99.6953 421.734 99.7552 421.958 99.875 422.094C99.9948 422.229 100.224 422.297 100.562 422.297C100.812 422.297 101.034 422.279 101.227 422.242V423.953C100.784 424.089 100.328 424.156 99.8594 424.156C98.276 424.156 97.4688 423.357 97.4375 421.758V417.203H96.2031V415.547H97.4375V413.469H99.6953ZM107.148 417.664C106.841 417.622 106.57 417.602 106.336 417.602C105.482 417.602 104.922 417.891 104.656 418.469V424H102.398V415.547H104.531L104.594 416.555C105.047 415.779 105.674 415.391 106.477 415.391C106.727 415.391 106.961 415.424 107.18 415.492L107.148 417.664ZM112.906 424C112.802 423.797 112.727 423.544 112.68 423.242C112.133 423.852 111.422 424.156 110.547 424.156C109.719 424.156 109.031 423.917 108.484 423.438C107.943 422.958 107.672 422.354 107.672 421.625C107.672 420.729 108.003 420.042 108.664 419.562C109.331 419.083 110.292 418.841 111.547 418.836H112.586V418.352C112.586 417.961 112.484 417.648 112.281 417.414C112.083 417.18 111.768 417.062 111.336 417.062C110.956 417.062 110.656 417.154 110.438 417.336C110.224 417.518 110.117 417.768 110.117 418.086H107.859C107.859 417.596 108.01 417.143 108.312 416.727C108.615 416.31 109.042 415.984 109.594 415.75C110.146 415.51 110.766 415.391 111.453 415.391C112.495 415.391 113.32 415.654 113.93 416.18C114.544 416.701 114.852 417.435 114.852 418.383V422.047C114.857 422.849 114.969 423.456 115.188 423.867V424H112.906ZM111.039 422.43C111.372 422.43 111.68 422.357 111.961 422.211C112.242 422.06 112.451 421.859 112.586 421.609V420.156H111.742C110.612 420.156 110.01 420.547 109.938 421.328L109.93 421.461C109.93 421.742 110.029 421.974 110.227 422.156C110.424 422.339 110.695 422.43 111.039 422.43ZM119.289 413.469V415.547H120.734V417.203H119.289V421.422C119.289 421.734 119.349 421.958 119.469 422.094C119.589 422.229 119.818 422.297 120.156 422.297C120.406 422.297 120.628 422.279 120.82 422.242V423.953C120.378 424.089 119.922 424.156 119.453 424.156C117.87 424.156 117.062 423.357 117.031 421.758V417.203H115.797V415.547H117.031V413.469H119.289ZM125.883 424.156C124.643 424.156 123.633 423.776 122.852 423.016C122.076 422.255 121.688 421.242 121.688 419.977V419.758C121.688 418.909 121.852 418.151 122.18 417.484C122.508 416.812 122.971 416.297 123.57 415.938C124.174 415.573 124.862 415.391 125.633 415.391C126.789 415.391 127.698 415.755 128.359 416.484C129.026 417.214 129.359 418.247 129.359 419.586V420.508H123.977C124.049 421.06 124.268 421.503 124.633 421.836C125.003 422.169 125.469 422.336 126.031 422.336C126.901 422.336 127.581 422.021 128.07 421.391L129.18 422.633C128.841 423.112 128.383 423.487 127.805 423.758C127.227 424.023 126.586 424.156 125.883 424.156ZM125.625 417.219C125.177 417.219 124.812 417.37 124.531 417.672C124.255 417.974 124.078 418.406 124 418.969H127.141V418.789C127.13 418.289 126.995 417.904 126.734 417.633C126.474 417.357 126.104 417.219 125.625 417.219ZM125.828 412H128.289L126.125 414.422H124.289L125.828 412ZM130.32 419.711C130.32 418.414 130.628 417.37 131.242 416.578C131.862 415.786 132.695 415.391 133.742 415.391C134.669 415.391 135.391 415.708 135.906 416.344L136 415.547H138.047V423.719C138.047 424.458 137.878 425.102 137.539 425.648C137.206 426.195 136.734 426.612 136.125 426.898C135.516 427.185 134.802 427.328 133.984 427.328C133.365 427.328 132.76 427.203 132.172 426.953C131.583 426.708 131.138 426.391 130.836 426L131.836 424.625C132.398 425.255 133.081 425.57 133.883 425.57C134.482 425.57 134.948 425.409 135.281 425.086C135.615 424.768 135.781 424.315 135.781 423.727V423.273C135.26 423.862 134.576 424.156 133.727 424.156C132.711 424.156 131.888 423.76 131.258 422.969C130.633 422.172 130.32 421.117 130.32 419.805V419.711ZM132.578 419.875C132.578 420.641 132.732 421.242 133.039 421.68C133.346 422.112 133.768 422.328 134.305 422.328C134.992 422.328 135.484 422.07 135.781 421.555V418C135.479 417.484 134.992 417.227 134.32 417.227C133.779 417.227 133.352 417.448 133.039 417.891C132.732 418.333 132.578 418.995 132.578 419.875ZM142.172 424H139.906V415.547H142.172V424ZM139.773 413.359C139.773 413.021 139.885 412.742 140.109 412.523C140.339 412.305 140.648 412.195 141.039 412.195C141.424 412.195 141.732 412.305 141.961 412.523C142.19 412.742 142.305 413.021 142.305 413.359C142.305 413.703 142.188 413.984 141.953 414.203C141.724 414.422 141.419 414.531 141.039 414.531C140.659 414.531 140.352 414.422 140.117 414.203C139.888 413.984 139.773 413.703 139.773 413.359ZM148.938 424C148.833 423.797 148.758 423.544 148.711 423.242C148.164 423.852 147.453 424.156 146.578 424.156C145.75 424.156 145.062 423.917 144.516 423.438C143.974 422.958 143.703 422.354 143.703 421.625C143.703 420.729 144.034 420.042 144.695 419.562C145.362 419.083 146.323 418.841 147.578 418.836H148.617V418.352C148.617 417.961 148.516 417.648 148.312 417.414C148.115 417.18 147.799 417.062 147.367 417.062C146.987 417.062 146.688 417.154 146.469 417.336C146.255 417.518 146.148 417.768 146.148 418.086H143.891C143.891 417.596 144.042 417.143 144.344 416.727C144.646 416.31 145.073 415.984 145.625 415.75C146.177 415.51 146.797 415.391 147.484 415.391C148.526 415.391 149.352 415.654 149.961 416.18C150.576 416.701 150.883 417.435 150.883 418.383V422.047C150.888 422.849 151 423.456 151.219 423.867V424H148.938ZM147.07 422.43C147.404 422.43 147.711 422.357 147.992 422.211C148.273 422.06 148.482 421.859 148.617 421.609V420.156H147.773C146.643 420.156 146.042 420.547 145.969 421.328L145.961 421.461C145.961 421.742 146.06 421.974 146.258 422.156C146.456 422.339 146.727 422.43 147.07 422.43ZM155 424H152.734V415.547H155V424ZM152.602 413.359C152.602 413.021 152.714 412.742 152.938 412.523C153.167 412.305 153.477 412.195 153.867 412.195C154.253 412.195 154.56 412.305 154.789 412.523C155.018 412.742 155.133 413.021 155.133 413.359C155.133 413.703 155.016 413.984 154.781 414.203C154.552 414.422 154.247 414.531 153.867 414.531C153.487 414.531 153.18 414.422 152.945 414.203C152.716 413.984 152.602 413.703 152.602 413.359ZM50.3359 438.438L49.1172 439.75V443H46.7734V431.625H49.1172V436.781L50.1484 435.367L53.0469 431.625H55.9297L51.8906 436.68L56.0469 443H53.2578L50.3359 438.438ZM61.6562 442.141C61.099 442.818 60.3281 443.156 59.3438 443.156C58.4375 443.156 57.7448 442.896 57.2656 442.375C56.7917 441.854 56.5495 441.091 56.5391 440.086V434.547H58.7969V440.008C58.7969 440.888 59.1979 441.328 60 441.328C60.7656 441.328 61.2917 441.062 61.5781 440.531V434.547H63.8438V443H61.7188L61.6562 442.141ZM68.25 432.469V434.547H69.6953V436.203H68.25V440.422C68.25 440.734 68.3099 440.958 68.4297 441.094C68.5495 441.229 68.7786 441.297 69.1172 441.297C69.3672 441.297 69.5885 441.279 69.7812 441.242V442.953C69.3385 443.089 68.8828 443.156 68.4141 443.156C66.8307 443.156 66.0234 442.357 65.9922 440.758V436.203H64.7578V434.547H65.9922V432.469H68.25ZM75.8516 443C75.7474 442.797 75.6719 442.544 75.625 442.242C75.0781 442.852 74.3672 443.156 73.4922 443.156C72.6641 443.156 71.9766 442.917 71.4297 442.438C70.888 441.958 70.6172 441.354 70.6172 440.625C70.6172 439.729 70.9479 439.042 71.6094 438.562C72.276 438.083 73.237 437.841 74.4922 437.836H75.5312V437.352C75.5312 436.961 75.4297 436.648 75.2266 436.414C75.0286 436.18 74.7135 436.062 74.2812 436.062C73.901 436.062 73.6016 436.154 73.3828 436.336C73.1693 436.518 73.0625 436.768 73.0625 437.086H70.8047C70.8047 436.596 70.9557 436.143 71.2578 435.727C71.5599 435.31 71.987 434.984 72.5391 434.75C73.0911 434.51 73.7109 434.391 74.3984 434.391C75.4401 434.391 76.2656 434.654 76.875 435.18C77.4896 435.701 77.7969 436.435 77.7969 437.383V441.047C77.8021 441.849 77.9141 442.456 78.1328 442.867V443H75.8516ZM73.9844 441.43C74.3177 441.43 74.625 441.357 74.9062 441.211C75.1875 441.06 75.3958 440.859 75.5312 440.609V439.156H74.6875C73.5573 439.156 72.9557 439.547 72.8828 440.328L72.875 440.461C72.875 440.742 72.974 440.974 73.1719 441.156C73.3698 441.339 73.6406 441.43 73.9844 441.43ZM82.2344 432.469V434.547H83.6797V436.203H82.2344V440.422C82.2344 440.734 82.2943 440.958 82.4141 441.094C82.5339 441.229 82.763 441.297 83.1016 441.297C83.3516 441.297 83.5729 441.279 83.7656 441.242V442.953C83.3229 443.089 82.8672 443.156 82.3984 443.156C80.8151 443.156 80.0078 442.357 79.9766 440.758V436.203H78.7422V434.547H79.9766V432.469H82.2344ZM84.3516 438.695C84.3516 437.857 84.513 437.109 84.8359 436.453C85.1589 435.797 85.6224 435.289 86.2266 434.93C86.8359 434.57 87.5417 434.391 88.3438 434.391C89.4844 434.391 90.4141 434.74 91.1328 435.438C91.8568 436.135 92.2604 437.083 92.3438 438.281L92.3594 438.859C92.3594 440.156 91.9974 441.198 91.2734 441.984C90.5495 442.766 89.5781 443.156 88.3594 443.156C87.1406 443.156 86.1667 442.766 85.4375 441.984C84.7135 441.203 84.3516 440.141 84.3516 438.797V438.695ZM86.6094 438.859C86.6094 439.661 86.7604 440.276 87.0625 440.703C87.3646 441.125 87.7969 441.336 88.3594 441.336C88.9062 441.336 89.3333 441.128 89.6406 440.711C89.9479 440.289 90.1016 439.617 90.1016 438.695C90.1016 437.909 89.9479 437.299 89.6406 436.867C89.3333 436.435 88.901 436.219 88.3438 436.219C87.7917 436.219 87.3646 436.435 87.0625 436.867C86.7604 437.294 86.6094 437.958 86.6094 438.859ZM88.7891 431H91.25L89.0859 433.422H87.25L88.7891 431ZM96.1328 443H93.8672V434.547H96.1328V443ZM93.7344 432.359C93.7344 432.021 93.8464 431.742 94.0703 431.523C94.2995 431.305 94.6094 431.195 95 431.195C95.3854 431.195 95.6927 431.305 95.9219 431.523C96.151 431.742 96.2656 432.021 96.2656 432.359C96.2656 432.703 96.1484 432.984 95.9141 433.203C95.6849 433.422 95.3802 433.531 95 433.531C94.6198 433.531 94.3125 433.422 94.0781 433.203C93.849 432.984 93.7344 432.703 93.7344 432.359ZM100.078 434.547L100.148 435.523C100.753 434.768 101.562 434.391 102.578 434.391C103.474 434.391 104.141 434.654 104.578 435.18C105.016 435.706 105.24 436.492 105.25 437.539V443H102.992V437.594C102.992 437.115 102.888 436.768 102.68 436.555C102.471 436.336 102.125 436.227 101.641 436.227C101.005 436.227 100.529 436.497 100.211 437.039V443H97.9531V434.547H100.078ZM109.672 432.469V434.547H111.117V436.203H109.672V440.422C109.672 440.734 109.732 440.958 109.852 441.094C109.971 441.229 110.201 441.297 110.539 441.297C110.789 441.297 111.01 441.279 111.203 441.242V442.953C110.76 443.089 110.305 443.156 109.836 443.156C108.253 443.156 107.445 442.357 107.414 440.758V436.203H106.18V434.547H107.414V432.469H109.672ZM116.266 443.156C115.026 443.156 114.016 442.776 113.234 442.016C112.458 441.255 112.07 440.242 112.07 438.977V438.758C112.07 437.909 112.234 437.151 112.562 436.484C112.891 435.812 113.354 435.297 113.953 434.938C114.557 434.573 115.245 434.391 116.016 434.391C117.172 434.391 118.081 434.755 118.742 435.484C119.409 436.214 119.742 437.247 119.742 438.586V439.508H114.359C114.432 440.06 114.651 440.503 115.016 440.836C115.385 441.169 115.852 441.336 116.414 441.336C117.284 441.336 117.964 441.021 118.453 440.391L119.562 441.633C119.224 442.112 118.766 442.487 118.188 442.758C117.609 443.023 116.969 443.156 116.266 443.156ZM116.008 436.219C115.56 436.219 115.195 436.37 114.914 436.672C114.638 436.974 114.461 437.406 114.383 437.969H117.523V437.789C117.513 437.289 117.378 436.904 117.117 436.633C116.857 436.357 116.487 436.219 116.008 436.219ZM116.211 431H118.672L116.508 433.422H114.672L116.211 431ZM123.625 441.18H127.758V443H120.742V441.625L124.719 436.375H120.859V434.547H127.633V435.883L123.625 441.18ZM132.938 443.156C131.698 443.156 130.688 442.776 129.906 442.016C129.13 441.255 128.742 440.242 128.742 438.977V438.758C128.742 437.909 128.906 437.151 129.234 436.484C129.562 435.812 130.026 435.297 130.625 434.938C131.229 434.573 131.917 434.391 132.688 434.391C133.844 434.391 134.753 434.755 135.414 435.484C136.081 436.214 136.414 437.247 136.414 438.586V439.508H131.031C131.104 440.06 131.323 440.503 131.688 440.836C132.057 441.169 132.523 441.336 133.086 441.336C133.956 441.336 134.635 441.021 135.125 440.391L136.234 441.633C135.896 442.112 135.438 442.487 134.859 442.758C134.281 443.023 133.641 443.156 132.938 443.156ZM132.68 436.219C132.232 436.219 131.867 436.37 131.586 436.672C131.31 436.974 131.133 437.406 131.055 437.969H134.195V437.789C134.185 437.289 134.049 436.904 133.789 436.633C133.529 436.357 133.159 436.219 132.68 436.219ZM140.406 432.469V434.547H141.852V436.203H140.406V440.422C140.406 440.734 140.466 440.958 140.586 441.094C140.706 441.229 140.935 441.297 141.273 441.297C141.523 441.297 141.745 441.279 141.938 441.242V442.953C141.495 443.089 141.039 443.156 140.57 443.156C138.987 443.156 138.18 442.357 138.148 440.758V436.203H136.914V434.547H138.148V432.469H140.406ZM31.5391 458.609L30.7266 459.422V462H28.4688V450H30.7266V456.648L31.1641 456.086L33.3281 453.547H36.0391L32.9844 457.07L36.3047 462H33.7109L31.5391 458.609ZM42.0781 461.141C41.5208 461.818 40.75 462.156 39.7656 462.156C38.8594 462.156 38.1667 461.896 37.6875 461.375C37.2135 460.854 36.9714 460.091 36.9609 459.086V453.547H39.2188V459.008C39.2188 459.888 39.6198 460.328 40.4219 460.328C41.1875 460.328 41.7135 460.062 42 459.531V453.547H44.2656V462H42.1406L42.0781 461.141ZM48.6719 451.469V453.547H50.1172V455.203H48.6719V459.422C48.6719 459.734 48.7318 459.958 48.8516 460.094C48.9714 460.229 49.2005 460.297 49.5391 460.297C49.7891 460.297 50.0104 460.279 50.2031 460.242V461.953C49.7604 462.089 49.3047 462.156 48.8359 462.156C47.2526 462.156 46.4453 461.357 46.4141 459.758V455.203H45.1797V453.547H46.4141V451.469H48.6719ZM56.2734 462C56.1693 461.797 56.0938 461.544 56.0469 461.242C55.5 461.852 54.7891 462.156 53.9141 462.156C53.0859 462.156 52.3984 461.917 51.8516 461.438C51.3099 460.958 51.0391 460.354 51.0391 459.625C51.0391 458.729 51.3698 458.042 52.0312 457.562C52.6979 457.083 53.6589 456.841 54.9141 456.836H55.9531V456.352C55.9531 455.961 55.8516 455.648 55.6484 455.414C55.4505 455.18 55.1354 455.062 54.7031 455.062C54.3229 455.062 54.0234 455.154 53.8047 455.336C53.5911 455.518 53.4844 455.768 53.4844 456.086H51.2266C51.2266 455.596 51.3776 455.143 51.6797 454.727C51.9818 454.31 52.4089 453.984 52.9609 453.75C53.513 453.51 54.1328 453.391 54.8203 453.391C55.862 453.391 56.6875 453.654 57.2969 454.18C57.9115 454.701 58.2188 455.435 58.2188 456.383V460.047C58.224 460.849 58.3359 461.456 58.5547 461.867V462H56.2734ZM54.4062 460.43C54.7396 460.43 55.0469 460.357 55.3281 460.211C55.6094 460.06 55.8177 459.859 55.9531 459.609V458.156H55.1094C53.9792 458.156 53.3776 458.547 53.3047 459.328L53.2969 459.461C53.2969 459.742 53.3958 459.974 53.5938 460.156C53.7917 460.339 54.0625 460.43 54.4062 460.43ZM62.6562 451.469V453.547H64.1016V455.203H62.6562V459.422C62.6562 459.734 62.7161 459.958 62.8359 460.094C62.9557 460.229 63.1849 460.297 63.5234 460.297C63.7734 460.297 63.9948 460.279 64.1875 460.242V461.953C63.7448 462.089 63.2891 462.156 62.8203 462.156C61.237 462.156 60.4297 461.357 60.3984 459.758V455.203H59.1641V453.547H60.3984V451.469H62.6562ZM70.2578 462C70.1536 461.797 70.0781 461.544 70.0312 461.242C69.4844 461.852 68.7734 462.156 67.8984 462.156C67.0703 462.156 66.3828 461.917 65.8359 461.438C65.2943 460.958 65.0234 460.354 65.0234 459.625C65.0234 458.729 65.3542 458.042 66.0156 457.562C66.6823 457.083 67.6432 456.841 68.8984 456.836H69.9375V456.352C69.9375 455.961 69.8359 455.648 69.6328 455.414C69.4349 455.18 69.1198 455.062 68.6875 455.062C68.3073 455.062 68.0078 455.154 67.7891 455.336C67.5755 455.518 67.4688 455.768 67.4688 456.086H65.2109C65.2109 455.596 65.362 455.143 65.6641 454.727C65.9661 454.31 66.3932 453.984 66.9453 453.75C67.4974 453.51 68.1172 453.391 68.8047 453.391C69.8464 453.391 70.6719 453.654 71.2812 454.18C71.8958 454.701 72.2031 455.435 72.2031 456.383V460.047C72.2083 460.849 72.3203 461.456 72.5391 461.867V462H70.2578ZM68.3906 460.43C68.724 460.43 69.0312 460.357 69.3125 460.211C69.5938 460.06 69.8021 459.859 69.9375 459.609V458.156H69.0938C67.9635 458.156 67.362 458.547 67.2891 459.328L67.2812 459.461C67.2812 459.742 67.3802 459.974 67.5781 460.156C67.776 460.339 68.0469 460.43 68.3906 460.43ZM69.25 450H71.7109L69.5469 452.422H67.7109L69.25 450ZM78.5156 459.664C78.5156 459.388 78.3776 459.172 78.1016 459.016C77.8307 458.854 77.3932 458.711 76.7891 458.586C74.7786 458.164 73.7734 457.31 73.7734 456.023C73.7734 455.273 74.0833 454.648 74.7031 454.148C75.3281 453.643 76.1432 453.391 77.1484 453.391C78.2214 453.391 79.0781 453.643 79.7188 454.148C80.3646 454.654 80.6875 455.31 80.6875 456.117H78.4297C78.4297 455.794 78.3255 455.529 78.1172 455.32C77.9089 455.107 77.5833 455 77.1406 455C76.7604 455 76.4661 455.086 76.2578 455.258C76.0495 455.43 75.9453 455.648 75.9453 455.914C75.9453 456.164 76.0625 456.367 76.2969 456.523C76.5365 456.674 76.9375 456.807 77.5 456.922C78.0625 457.031 78.5365 457.156 78.9219 457.297C80.1146 457.734 80.7109 458.492 80.7109 459.57C80.7109 460.341 80.3802 460.966 79.7188 461.445C79.0573 461.919 78.2031 462.156 77.1562 462.156C76.4479 462.156 75.8177 462.031 75.2656 461.781C74.7188 461.526 74.2891 461.18 73.9766 460.742C73.6641 460.299 73.5078 459.823 73.5078 459.312H75.6484C75.6693 459.714 75.8177 460.021 76.0938 460.234C76.3698 460.448 76.7396 460.555 77.2031 460.555C77.6354 460.555 77.9609 460.474 78.1797 460.312C78.4036 460.146 78.5156 459.93 78.5156 459.664ZM87.0703 462C86.9661 461.797 86.8906 461.544 86.8438 461.242C86.2969 461.852 85.5859 462.156 84.7109 462.156C83.8828 462.156 83.1953 461.917 82.6484 461.438C82.1068 460.958 81.8359 460.354 81.8359 459.625C81.8359 458.729 82.1667 458.042 82.8281 457.562C83.4948 457.083 84.4557 456.841 85.7109 456.836H86.75V456.352C86.75 455.961 86.6484 455.648 86.4453 455.414C86.2474 455.18 85.9323 455.062 85.5 455.062C85.1198 455.062 84.8203 455.154 84.6016 455.336C84.388 455.518 84.2812 455.768 84.2812 456.086H82.0234C82.0234 455.596 82.1745 455.143 82.4766 454.727C82.7786 454.31 83.2057 453.984 83.7578 453.75C84.3099 453.51 84.9297 453.391 85.6172 453.391C86.6589 453.391 87.4844 453.654 88.0938 454.18C88.7083 454.701 89.0156 455.435 89.0156 456.383V460.047C89.0208 460.849 89.1328 461.456 89.3516 461.867V462H87.0703ZM85.2031 460.43C85.5365 460.43 85.8438 460.357 86.125 460.211C86.4062 460.06 86.6146 459.859 86.75 459.609V458.156H85.9062C84.776 458.156 84.1745 458.547 84.1016 459.328L84.0938 459.461C84.0938 459.742 84.1927 459.974 84.3906 460.156C84.5885 460.339 84.8594 460.43 85.2031 460.43ZM93.1328 462H90.8672V453.547H93.1328V462ZM90.7344 451.359C90.7344 451.021 90.8464 450.742 91.0703 450.523C91.2995 450.305 91.6094 450.195 92 450.195C92.3854 450.195 92.6927 450.305 92.9219 450.523C93.151 450.742 93.2656 451.021 93.2656 451.359C93.2656 451.703 93.1484 451.984 92.9141 452.203C92.6849 452.422 92.3802 452.531 92 452.531C91.6198 452.531 91.3125 452.422 91.0781 452.203C90.849 451.984 90.7344 451.703 90.7344 451.359ZM99.75 455.664C99.4427 455.622 99.1719 455.602 98.9375 455.602C98.0833 455.602 97.5234 455.891 97.2578 456.469V462H95V453.547H97.1328L97.1953 454.555C97.6484 453.779 98.276 453.391 99.0781 453.391C99.3281 453.391 99.5625 453.424 99.7812 453.492L99.75 455.664ZM105.508 462C105.404 461.797 105.328 461.544 105.281 461.242C104.734 461.852 104.023 462.156 103.148 462.156C102.32 462.156 101.633 461.917 101.086 461.438C100.544 460.958 100.273 460.354 100.273 459.625C100.273 458.729 100.604 458.042 101.266 457.562C101.932 457.083 102.893 456.841 104.148 456.836H105.188V456.352C105.188 455.961 105.086 455.648 104.883 455.414C104.685 455.18 104.37 455.062 103.938 455.062C103.557 455.062 103.258 455.154 103.039 455.336C102.826 455.518 102.719 455.768 102.719 456.086H100.461C100.461 455.596 100.612 455.143 100.914 454.727C101.216 454.31 101.643 453.984 102.195 453.75C102.747 453.51 103.367 453.391 104.055 453.391C105.096 453.391 105.922 453.654 106.531 454.18C107.146 454.701 107.453 455.435 107.453 456.383V460.047C107.458 460.849 107.57 461.456 107.789 461.867V462H105.508ZM103.641 460.43C103.974 460.43 104.281 460.357 104.562 460.211C104.844 460.06 105.052 459.859 105.188 459.609V458.156H104.344C103.214 458.156 102.612 458.547 102.539 459.328L102.531 459.461C102.531 459.742 102.63 459.974 102.828 460.156C103.026 460.339 103.297 460.43 103.641 460.43ZM117.062 462.156C115.823 462.156 114.812 461.776 114.031 461.016C113.255 460.255 112.867 459.242 112.867 457.977V457.758C112.867 456.909 113.031 456.151 113.359 455.484C113.688 454.812 114.151 454.297 114.75 453.938C115.354 453.573 116.042 453.391 116.812 453.391C117.969 453.391 118.878 453.755 119.539 454.484C120.206 455.214 120.539 456.247 120.539 457.586V458.508H115.156C115.229 459.06 115.448 459.503 115.812 459.836C116.182 460.169 116.648 460.336 117.211 460.336C118.081 460.336 118.76 460.021 119.25 459.391L120.359 460.633C120.021 461.112 119.562 461.487 118.984 461.758C118.406 462.023 117.766 462.156 117.062 462.156ZM116.805 455.219C116.357 455.219 115.992 455.37 115.711 455.672C115.435 455.974 115.258 456.406 115.18 456.969H118.32V456.789C118.31 456.289 118.174 455.904 117.914 455.633C117.654 455.357 117.284 455.219 116.805 455.219ZM117.008 450H119.469L117.305 452.422H115.469L117.008 450ZM129.438 457.852C129.438 459.154 129.141 460.198 128.547 460.984C127.958 461.766 127.161 462.156 126.156 462.156C125.302 462.156 124.612 461.859 124.086 461.266V465.25H121.828V453.547H123.922L124 454.375C124.547 453.719 125.26 453.391 126.141 453.391C127.182 453.391 127.992 453.776 128.57 454.547C129.148 455.318 129.438 456.38 129.438 457.734V457.852ZM127.18 457.688C127.18 456.901 127.039 456.294 126.758 455.867C126.482 455.44 126.078 455.227 125.547 455.227C124.839 455.227 124.352 455.497 124.086 456.039V459.5C124.362 460.057 124.854 460.336 125.562 460.336C126.641 460.336 127.18 459.453 127.18 457.688ZM133.281 462H131.023V453.547H133.281V462ZM132.617 450.117H135.078L132.914 452.539H131.078L132.617 450.117ZM137.938 451.469V453.547H139.383V455.203H137.938V459.422C137.938 459.734 137.997 459.958 138.117 460.094C138.237 460.229 138.466 460.297 138.805 460.297C139.055 460.297 139.276 460.279 139.469 460.242V461.953C139.026 462.089 138.57 462.156 138.102 462.156C136.518 462.156 135.711 461.357 135.68 459.758V455.203H134.445V453.547H135.68V451.469H137.938ZM143.805 459.242L145.375 453.547H147.734L144.883 462H142.727L139.875 453.547H142.234L143.805 459.242ZM152.516 462.156C151.276 462.156 150.266 461.776 149.484 461.016C148.708 460.255 148.32 459.242 148.32 457.977V457.758C148.32 456.909 148.484 456.151 148.812 455.484C149.141 454.812 149.604 454.297 150.203 453.938C150.807 453.573 151.495 453.391 152.266 453.391C153.422 453.391 154.331 453.755 154.992 454.484C155.659 455.214 155.992 456.247 155.992 457.586V458.508H150.609C150.682 459.06 150.901 459.503 151.266 459.836C151.635 460.169 152.102 460.336 152.664 460.336C153.534 460.336 154.214 460.021 154.703 459.391L155.812 460.633C155.474 461.112 155.016 461.487 154.438 461.758C153.859 462.023 153.219 462.156 152.516 462.156ZM152.258 455.219C151.81 455.219 151.445 455.37 151.164 455.672C150.888 455.974 150.711 456.406 150.633 456.969H153.773V456.789C153.763 456.289 153.628 455.904 153.367 455.633C153.107 455.357 152.737 455.219 152.258 455.219Z" fill="#ECE7DD"/>
</svg>
