<svg width="188" height="800" viewBox="0 0 188 800" fill="none" xmlns="http://www.w3.org/2000/svg">
<rect x="0.914062" width="186.094" height="800" fill="#838D92"/>
<path d="M63.6587 745.226H59.7739V756H58.1885V745.226H54.312V743.914H63.6587V745.226ZM74.5161 750.347C74.5161 751.531 74.3169 752.566 73.9185 753.452C73.52 754.332 72.9556 755.004 72.2251 755.469C71.4946 755.934 70.6424 756.166 69.6685 756.166C68.7166 756.166 67.8727 755.934 67.1367 755.469C66.4007 754.998 65.828 754.332 65.4185 753.468C65.0145 752.599 64.807 751.595 64.7959 750.455V749.583C64.7959 748.421 64.9979 747.395 65.4019 746.504C65.8058 745.613 66.3758 744.932 67.1118 744.462C67.8534 743.986 68.7 743.748 69.6519 743.748C70.6203 743.748 71.4725 743.983 72.2085 744.454C72.95 744.918 73.52 745.596 73.9185 746.487C74.3169 747.373 74.5161 748.405 74.5161 749.583V750.347ZM72.9307 749.567C72.9307 748.134 72.6429 747.035 72.0674 746.271C71.4919 745.502 70.6867 745.118 69.6519 745.118C68.6447 745.118 67.8506 745.502 67.2695 746.271C66.694 747.035 66.3979 748.098 66.3813 749.459V750.347C66.3813 751.736 66.6719 752.829 67.2529 753.626C67.8395 754.417 68.6447 754.813 69.6685 754.813C70.6978 754.813 71.4946 754.439 72.0591 753.692C72.6235 752.94 72.9141 751.863 72.9307 750.463V749.567ZM80.7251 753.883L84.1782 743.914H85.9214L81.439 756H80.0278L75.5537 743.914H77.2886L80.7251 753.883ZM93.5913 752.846H88.5278L87.3906 756H85.7471L90.3623 743.914H91.7568L96.3804 756H94.7451L93.5913 752.846ZM89.0093 751.534H93.1182L91.0596 745.881L89.0093 751.534ZM91.8481 740.677H93.7075L91.4829 743.117H90.2461L91.8481 740.677ZM98.0073 756V743.914H101.958C103.27 743.914 104.255 744.185 104.914 744.728C105.578 745.27 105.91 746.072 105.91 747.135C105.91 747.699 105.749 748.2 105.428 748.637C105.107 749.069 104.67 749.404 104.117 749.642C104.77 749.824 105.284 750.173 105.661 750.688C106.042 751.197 106.233 751.805 106.233 752.514C106.233 753.598 105.882 754.451 105.179 755.07C104.476 755.69 103.483 756 102.199 756H98.0073ZM99.6011 750.347V754.697H102.232C102.974 754.697 103.558 754.506 103.984 754.124C104.416 753.737 104.631 753.205 104.631 752.53C104.631 751.075 103.84 750.347 102.257 750.347H99.6011ZM99.6011 749.069H102.008C102.706 749.069 103.262 748.895 103.677 748.546C104.097 748.197 104.308 747.724 104.308 747.126C104.308 746.462 104.114 745.981 103.727 745.682C103.339 745.378 102.75 745.226 101.958 745.226H99.6011V749.069ZM108.599 756V743.914H112.55C113.862 743.914 114.847 744.185 115.505 744.728C116.169 745.27 116.501 746.072 116.501 747.135C116.501 747.699 116.341 748.2 116.02 748.637C115.699 749.069 115.262 749.404 114.708 749.642C115.361 749.824 115.876 750.173 116.252 750.688C116.634 751.197 116.825 751.805 116.825 752.514C116.825 753.598 116.474 754.451 115.771 755.07C115.068 755.69 114.075 756 112.791 756H108.599ZM110.193 750.347V754.697H112.824C113.566 754.697 114.15 754.506 114.576 754.124C115.007 753.737 115.223 753.205 115.223 752.53C115.223 751.075 114.432 750.347 112.849 750.347H110.193ZM110.193 749.069H112.6C113.297 749.069 113.854 748.895 114.269 748.546C114.689 748.197 114.899 747.724 114.899 747.126C114.899 746.462 114.706 745.981 114.318 745.682C113.931 745.378 113.342 745.226 112.55 745.226H110.193V749.069ZM130.082 752.846H125.018L123.881 756H122.237L126.853 743.914H128.247L132.871 756H131.235L130.082 752.846ZM125.5 751.534H129.608L127.55 745.881L125.5 751.534ZM29.1855 771.501L27.9902 772.812V776H25.0767V763.914H27.9902V769.243L29.0029 767.708L31.6094 763.914H35.2119L31.1279 769.26L35.2119 776H31.7588L29.1855 771.501ZM39.0552 776H36.1499V763.914H39.0552V776ZM44.9072 763.914L47.605 772.323L50.2944 763.914H54.1294V776H51.2075V773.178L51.4897 767.4L48.5679 776H46.6421L43.7119 767.392L43.9941 773.178V776H41.0806V763.914H44.9072ZM65.4683 763.914V771.825C65.4683 772.721 65.2773 773.499 64.8955 774.157C64.5137 774.81 63.9658 775.308 63.252 775.651C62.5381 775.994 61.6942 776.166 60.7202 776.166C59.2482 776.166 58.0889 775.784 57.2422 775.021C56.3955 774.257 55.9639 773.211 55.9473 771.883V763.914H58.8774V771.941C58.9106 773.264 59.5249 773.925 60.7202 773.925C61.3234 773.925 61.7799 773.759 62.0898 773.427C62.3997 773.095 62.5547 772.555 62.5547 771.808V763.914H65.4683ZM76.7822 766.164H73.1548V776H70.2412V766.164H66.6802V763.914H76.7822V766.164ZM83.8877 773.742H79.895L79.1978 776H76.085L80.5176 763.914H83.2568L87.7227 776H84.5933L83.8877 773.742ZM80.5923 771.493H83.1904L81.8872 767.301L80.5923 771.493ZM97.1025 766.164H93.4751V776H90.5615V766.164H87.0005V763.914H97.1025V766.164ZM104.208 773.742H100.215L99.5181 776H96.4053L100.838 763.914H103.577L108.043 776H104.914L104.208 773.742ZM100.913 771.493H103.511L102.208 767.301L100.913 771.493ZM102.589 760.677H105.544L103.237 763.283H100.954L102.589 760.677ZM115.165 772.788C115.165 772.361 115.013 772.029 114.708 771.792C114.41 771.554 113.881 771.307 113.123 771.053C112.365 770.798 111.745 770.552 111.264 770.314C109.698 769.545 108.915 768.488 108.915 767.143C108.915 766.473 109.108 765.884 109.496 765.375C109.889 764.86 110.442 764.462 111.156 764.18C111.87 763.892 112.672 763.748 113.563 763.748C114.432 763.748 115.209 763.903 115.896 764.213C116.587 764.523 117.124 764.965 117.506 765.541C117.888 766.111 118.079 766.764 118.079 767.5H115.173C115.173 767.007 115.021 766.626 114.717 766.354C114.418 766.083 114.011 765.948 113.497 765.948C112.976 765.948 112.564 766.064 112.26 766.296C111.961 766.523 111.812 766.814 111.812 767.168C111.812 767.478 111.978 767.76 112.31 768.015C112.642 768.264 113.225 768.524 114.061 768.795C114.897 769.061 115.583 769.348 116.12 769.658C117.426 770.411 118.079 771.448 118.079 772.771C118.079 773.828 117.68 774.658 116.883 775.261C116.086 775.864 114.993 776.166 113.604 776.166C112.625 776.166 111.737 775.992 110.94 775.643C110.149 775.289 109.551 774.807 109.147 774.199C108.749 773.584 108.549 772.879 108.549 772.082H111.471C111.471 772.729 111.637 773.208 111.969 773.518C112.307 773.822 112.852 773.975 113.604 773.975C114.086 773.975 114.465 773.872 114.742 773.667C115.024 773.457 115.165 773.164 115.165 772.788ZM129.808 770.206C129.808 771.385 129.589 772.428 129.152 773.335C128.715 774.243 128.092 774.943 127.284 775.436C126.482 775.923 125.566 776.166 124.537 776.166C123.507 776.166 122.594 775.931 121.797 775.46C121 774.985 120.378 774.307 119.93 773.427C119.487 772.547 119.255 771.537 119.232 770.397V769.716C119.232 768.532 119.448 767.489 119.88 766.587C120.317 765.679 120.94 764.979 121.748 764.487C122.561 763.994 123.485 763.748 124.52 763.748C125.544 763.748 126.457 763.992 127.259 764.479C128.062 764.965 128.684 765.66 129.127 766.562C129.575 767.458 129.802 768.488 129.808 769.65V770.206ZM126.844 769.7C126.844 768.499 126.642 767.589 126.238 766.969C125.84 766.343 125.267 766.031 124.52 766.031C123.059 766.031 122.287 767.126 122.204 769.318L122.196 770.206C122.196 771.39 122.392 772.301 122.785 772.937C123.178 773.573 123.762 773.892 124.537 773.892C125.273 773.892 125.84 773.579 126.238 772.954C126.637 772.328 126.839 771.429 126.844 770.256V769.7ZM135.419 771.501L134.224 772.812V776H131.31V763.914H134.224V769.243L135.236 767.708L137.843 763.914H141.445L137.361 769.26L141.445 776H137.992L135.419 771.501ZM147.106 771.111H144.268V776H142.666V763.914H146.667C148.028 763.914 149.074 764.224 149.804 764.844C150.54 765.464 150.908 766.366 150.908 767.55C150.908 768.302 150.703 768.958 150.294 769.517C149.89 770.076 149.326 770.494 148.601 770.771L151.439 775.9V776H149.729L147.106 771.111ZM144.268 769.808H146.716C147.508 769.808 148.136 769.603 148.601 769.193C149.071 768.784 149.306 768.236 149.306 767.55C149.306 766.803 149.082 766.23 148.634 765.832C148.191 765.433 147.549 765.231 146.708 765.226H144.268V769.808ZM159.823 772.846H154.76L153.623 776H151.979L156.594 763.914H157.989L162.612 776H160.977L159.823 772.846ZM155.241 771.534H159.35L157.292 765.881L155.241 771.534Z" fill="#ECE7DD"/>
<path d="M8.9316 330H5.70895V314.359H8.9316V330ZM12.602 318.377L12.6987 319.72C13.5294 318.681 14.643 318.162 16.0395 318.162C17.2713 318.162 18.1879 318.524 18.7895 319.247C19.3911 319.97 19.699 321.052 19.7133 322.491V330H16.6088V322.566C16.6088 321.908 16.4656 321.431 16.1791 321.138C15.8927 320.837 15.4164 320.687 14.7504 320.687C13.8767 320.687 13.2215 321.059 12.7846 321.804V330H9.68012V318.377H12.602ZM23.8134 315.52V318.377H25.8007V320.654H23.8134V326.455C23.8134 326.885 23.8958 327.193 24.0605 327.379C24.2252 327.565 24.5403 327.658 25.0058 327.658C25.3495 327.658 25.6539 327.633 25.9189 327.583V329.936C25.3101 330.122 24.6835 330.215 24.039 330.215C21.8619 330.215 20.7519 329.116 20.7089 326.917V320.654H19.0116V318.377H20.7089V315.52H23.8134ZM30.8998 330.215C29.1954 330.215 27.8061 329.692 26.7318 328.646C25.6648 327.601 25.1313 326.208 25.1313 324.468V324.167C25.1313 323 25.3568 321.958 25.808 321.041C26.2592 320.117 26.8965 319.408 27.7201 318.914C28.5508 318.413 29.4962 318.162 30.5561 318.162C32.1459 318.162 33.3956 318.663 34.3051 319.666C35.2217 320.669 35.6801 322.09 35.6801 323.931V325.198H28.2787C28.379 325.957 28.6798 326.566 29.1811 327.024C29.6895 327.483 30.3305 327.712 31.1039 327.712C32.2999 327.712 33.2344 327.279 33.9076 326.412L35.433 328.12C34.9675 328.779 34.3373 329.295 33.5424 329.667C32.7475 330.032 31.8666 330.215 30.8998 330.215ZM30.5453 320.676C29.9294 320.676 29.4281 320.883 29.0414 321.299C28.6618 321.714 28.4184 322.309 28.3109 323.082H32.6293V322.835C32.615 322.147 32.4288 321.618 32.0707 321.245C31.7126 320.866 31.2042 320.676 30.5453 320.676ZM42.0038 321.288C41.5813 321.231 41.2089 321.202 40.8866 321.202C39.7121 321.202 38.9423 321.6 38.577 322.395V330H35.4725V318.377H38.4052L38.4911 319.763C39.1141 318.696 39.9771 318.162 41.08 318.162C41.4237 318.162 41.746 318.209 42.0468 318.302L42.0038 321.288ZM47.9408 330C47.7976 329.721 47.6937 329.373 47.6293 328.958C46.8773 329.796 45.8998 330.215 44.6966 330.215C43.558 330.215 42.6127 329.885 41.8607 329.227C41.1159 328.568 40.7435 327.737 40.7435 326.734C40.7435 325.503 41.1983 324.557 42.1078 323.898C43.0244 323.24 44.3457 322.907 46.0716 322.899H47.5004V322.233C47.5004 321.696 47.3607 321.267 47.0814 320.944C46.8093 320.622 46.376 320.461 45.7816 320.461C45.2588 320.461 44.847 320.586 44.5462 320.837C44.2526 321.088 44.1058 321.431 44.1058 321.868H41.0013C41.0013 321.195 41.209 320.572 41.6244 319.999C42.0397 319.426 42.627 318.979 43.3861 318.656C44.1452 318.327 44.9974 318.162 45.9427 318.162C47.375 318.162 48.5101 318.524 49.348 319.247C50.1931 319.963 50.6156 320.973 50.6156 322.276V327.314C50.6227 328.417 50.7767 329.252 51.0775 329.817V330H47.9408ZM45.3734 327.841C45.8317 327.841 46.2543 327.741 46.641 327.54C47.0277 327.332 47.3142 327.057 47.5004 326.713V324.715H46.3402C44.7862 324.715 43.959 325.252 43.8587 326.326L43.848 326.509C43.848 326.896 43.9841 327.214 44.2562 327.465C44.5283 327.715 44.9007 327.841 45.3734 327.841ZM55.242 325.338L54.1248 326.455V330H51.0204V313.5H54.1248V322.642L54.7264 321.868L57.702 318.377H61.4295L57.2293 323.222L61.7948 330H58.2284L55.242 325.338ZM64.5091 315.52V318.377H66.4964V320.654H64.5091V326.455C64.5091 326.885 64.5915 327.193 64.7562 327.379C64.9209 327.565 65.236 327.658 65.7015 327.658C66.0452 327.658 66.3496 327.633 66.6146 327.583V329.936C66.0058 330.122 65.3792 330.215 64.7347 330.215C62.5576 330.215 61.4476 329.116 61.4046 326.917V320.654H59.7073V318.377H61.4046V315.52H64.5091ZM69.5975 330H66.493V318.377H69.5975V330ZM68.6844 313.661H72.0682L69.0926 316.991H66.5682L68.6844 313.661ZM74.6536 326.208L76.8128 318.377H80.0569L76.136 330H73.1712L69.2503 318.377H72.4944L74.6536 326.208ZM87.1721 325.338L86.0549 326.455V330H82.9504V313.5H86.0549V322.642L86.6565 321.868L89.6321 318.377H93.3596L89.1594 323.222L93.7248 330H90.1584L87.1721 325.338ZM95.9987 330H92.8835V318.377H95.9987V330ZM92.7009 315.369C92.7009 314.904 92.8549 314.521 93.1628 314.22C93.4779 313.919 93.904 313.769 94.4411 313.769C94.9711 313.769 95.3936 313.919 95.7087 314.22C96.0238 314.521 96.1814 314.904 96.1814 315.369C96.1814 315.842 96.0202 316.229 95.698 316.529C95.3829 316.83 94.9639 316.98 94.4411 316.98C93.9183 316.98 93.4958 316.83 93.1736 316.529C92.8584 316.229 92.7009 315.842 92.7009 315.369ZM99.4973 318.377L99.5939 319.677C100.418 318.667 101.531 318.162 102.935 318.162C104.432 318.162 105.459 318.753 106.018 319.935C106.834 318.753 107.998 318.162 109.509 318.162C110.769 318.162 111.708 318.531 112.323 319.269C112.939 319.999 113.247 321.102 113.247 322.577V330H110.132V322.588C110.132 321.929 110.003 321.449 109.745 321.148C109.488 320.84 109.033 320.687 108.381 320.687C107.45 320.687 106.806 321.131 106.447 322.019L106.458 330H103.354V322.599C103.354 321.925 103.221 321.438 102.956 321.138C102.691 320.837 102.24 320.687 101.603 320.687C100.722 320.687 100.085 321.052 99.6906 321.782V330H96.5861V318.377H99.4973ZM120.624 328.818C119.857 329.749 118.798 330.215 117.444 330.215C116.198 330.215 115.245 329.857 114.587 329.141C113.935 328.424 113.602 327.375 113.588 325.993V318.377H116.692V325.886C116.692 327.096 117.244 327.701 118.346 327.701C119.399 327.701 120.122 327.336 120.516 326.605V318.377H123.632V330H120.71L120.624 328.818ZM127.71 315.52V318.377H129.697V320.654H127.71V326.455C127.71 326.885 127.792 327.193 127.957 327.379C128.122 327.565 128.437 327.658 128.903 327.658C129.246 327.658 129.551 327.633 129.816 327.583V329.936C129.207 330.122 128.58 330.215 127.936 330.215C125.759 330.215 124.649 329.116 124.606 326.917V320.654H122.908V318.377H124.606V315.52H127.71ZM136.182 330C136.039 329.721 135.935 329.373 135.871 328.958C135.119 329.796 134.141 330.215 132.938 330.215C131.799 330.215 130.854 329.885 130.102 329.227C129.357 328.568 128.985 327.737 128.985 326.734C128.985 325.503 129.44 324.557 130.349 323.898C131.266 323.24 132.587 322.907 134.313 322.899H135.742V322.233C135.742 321.696 135.602 321.267 135.323 320.944C135.051 320.622 134.617 320.461 134.023 320.461C133.5 320.461 133.089 320.586 132.788 320.837C132.494 321.088 132.347 321.431 132.347 321.868H129.243C129.243 321.195 129.45 320.572 129.866 319.999C130.281 319.426 130.868 318.979 131.628 318.656C132.387 318.327 133.239 318.162 134.184 318.162C135.617 318.162 136.752 318.524 137.589 319.247C138.435 319.963 138.857 320.973 138.857 322.276V327.314C138.864 328.417 139.018 329.252 139.319 329.817V330H136.182ZM133.615 327.841C134.073 327.841 134.496 327.741 134.882 327.54C135.269 327.332 135.556 327.057 135.742 326.713V324.715H134.582C133.028 324.715 132.2 325.252 132.1 326.326L132.089 326.509C132.089 326.896 132.226 327.214 132.498 327.465C132.77 327.715 133.142 327.841 133.615 327.841ZM142.979 315.52V318.377H144.966V320.654H142.979V326.455C142.979 326.885 143.061 327.193 143.226 327.379C143.39 327.565 143.706 327.658 144.171 327.658C144.515 327.658 144.819 327.633 145.084 327.583V329.936C144.475 330.122 143.849 330.215 143.204 330.215C141.027 330.215 139.917 329.116 139.874 326.917V320.654H138.177V318.377H139.874V315.52H142.979ZM151.451 330C151.308 329.721 151.204 329.373 151.139 328.958C150.387 329.796 149.41 330.215 148.207 330.215C147.068 330.215 146.123 329.885 145.371 329.227C144.626 328.568 144.254 327.737 144.254 326.734C144.254 325.503 144.708 324.557 145.618 323.898C146.534 323.24 147.856 322.907 149.582 322.899H151.01V322.233C151.01 321.696 150.871 321.267 150.591 320.944C150.319 320.622 149.886 320.461 149.292 320.461C148.769 320.461 148.357 320.586 148.056 320.837C147.763 321.088 147.616 321.431 147.616 321.868H144.511C144.511 321.195 144.719 320.572 145.134 319.999C145.55 319.426 146.137 318.979 146.896 318.656C147.655 318.327 148.507 318.162 149.453 318.162C150.885 318.162 152.02 318.524 152.858 319.247C153.703 319.963 154.126 320.973 154.126 322.276V327.314C154.133 328.417 154.287 329.252 154.587 329.817V330H151.451ZM148.883 327.841C149.342 327.841 149.764 327.741 150.151 327.54C150.538 327.332 150.824 327.057 151.01 326.713V324.715H149.85C148.296 324.715 147.469 325.252 147.369 326.326L147.358 326.509C147.358 326.896 147.494 327.214 147.766 327.465C148.038 327.715 148.411 327.841 148.883 327.841ZM150.065 313.5H153.449L150.473 316.83H147.949L150.065 313.5ZM160.825 326.788C160.825 326.409 160.636 326.111 160.256 325.896C159.884 325.674 159.282 325.478 158.451 325.306C155.687 324.726 154.305 323.551 154.305 321.782C154.305 320.751 154.731 319.892 155.583 319.204C156.442 318.509 157.563 318.162 158.945 318.162C160.421 318.162 161.599 318.509 162.48 319.204C163.368 319.899 163.812 320.801 163.812 321.911H160.707C160.707 321.467 160.564 321.102 160.277 320.815C159.991 320.522 159.543 320.375 158.935 320.375C158.412 320.375 158.007 320.493 157.721 320.729C157.434 320.966 157.291 321.267 157.291 321.632C157.291 321.976 157.452 322.255 157.775 322.47C158.104 322.677 158.655 322.86 159.429 323.018C160.202 323.168 160.854 323.34 161.384 323.533C163.024 324.135 163.844 325.177 163.844 326.659C163.844 327.719 163.389 328.578 162.48 329.237C161.57 329.889 160.396 330.215 158.956 330.215C157.982 330.215 157.116 330.043 156.357 329.699C155.605 329.348 155.014 328.872 154.584 328.271C154.154 327.662 153.94 327.007 153.94 326.305H156.883C156.912 326.856 157.116 327.279 157.495 327.572C157.875 327.866 158.383 328.013 159.021 328.013C159.615 328.013 160.063 327.902 160.363 327.68C160.671 327.451 160.825 327.153 160.825 326.788ZM163.389 324.081C163.389 322.928 163.611 321.9 164.055 320.998C164.499 320.096 165.137 319.397 165.967 318.903C166.805 318.409 167.776 318.162 168.878 318.162C170.447 318.162 171.725 318.642 172.713 319.602C173.709 320.561 174.264 321.865 174.378 323.512L174.4 324.307C174.4 326.09 173.902 327.522 172.907 328.604C171.911 329.678 170.576 330.215 168.9 330.215C167.224 330.215 165.885 329.678 164.882 328.604C163.887 327.529 163.389 326.068 163.389 324.221V324.081ZM166.494 324.307C166.494 325.41 166.701 326.255 167.117 326.842C167.532 327.422 168.127 327.712 168.9 327.712C169.652 327.712 170.239 327.425 170.662 326.853C171.084 326.272 171.295 325.349 171.295 324.081C171.295 323 171.084 322.162 170.662 321.567C170.239 320.973 169.645 320.676 168.878 320.676C168.119 320.676 167.532 320.973 167.117 321.567C166.701 322.155 166.494 323.068 166.494 324.307ZM178.554 325.338L177.437 326.455V330H174.332V313.5H177.437V322.642L178.038 321.868L181.014 318.377H184.741L180.541 323.222L185.106 330H181.54L178.554 325.338ZM39.9305 356.215C38.2261 356.215 36.8368 355.692 35.7626 354.646C34.6955 353.601 34.162 352.208 34.162 350.468V350.167C34.162 349 34.3876 347.958 34.8387 347.041C35.2899 346.117 35.9273 345.408 36.7509 344.914C37.5816 344.413 38.5269 344.162 39.5868 344.162C41.1766 344.162 42.4263 344.663 43.3358 345.666C44.2525 346.669 44.7108 348.09 44.7108 349.931V351.198H37.3095C37.4097 351.957 37.7105 352.566 38.2118 353.024C38.7203 353.483 39.3612 353.712 40.1346 353.712C41.3306 353.712 42.2652 353.279 42.9384 352.412L44.4637 354.12C43.9983 354.779 43.368 355.295 42.5731 355.667C41.7782 356.032 40.8973 356.215 39.9305 356.215ZM39.5761 346.676C38.9602 346.676 38.4589 346.883 38.0721 347.299C37.6926 347.714 37.4491 348.309 37.3417 349.082H41.66V348.835C41.6457 348.147 41.4595 347.618 41.1014 347.245C40.7434 346.866 40.2349 346.676 39.5761 346.676ZM39.8554 339.5H43.2391L40.2636 342.83H37.7391L39.8554 339.5ZM50.7982 352.788C50.7982 352.409 50.6084 352.111 50.2289 351.896C49.8565 351.674 49.2549 351.478 48.4242 351.306C45.6599 350.726 44.2777 349.551 44.2777 347.782C44.2777 346.751 44.7038 345.892 45.556 345.204C46.4154 344.509 47.5362 344.162 48.9183 344.162C50.3936 344.162 51.5716 344.509 52.4525 345.204C53.3405 345.899 53.7845 346.801 53.7845 347.911H50.68C50.68 347.467 50.5368 347.102 50.2504 346.815C49.9639 346.522 49.5163 346.375 48.9076 346.375C48.3848 346.375 47.9802 346.493 47.6937 346.729C47.4073 346.966 47.264 347.267 47.264 347.632C47.264 347.976 47.4252 348.255 47.7474 348.47C48.0768 348.677 48.6283 348.86 49.4017 349.018C50.1752 349.168 50.8268 349.34 51.3568 349.533C52.9968 350.135 53.8168 351.177 53.8168 352.659C53.8168 353.719 53.362 354.578 52.4525 355.237C51.543 355.889 50.3685 356.215 48.9291 356.215C47.9551 356.215 47.0886 356.043 46.3295 355.699C45.5775 355.348 44.9867 354.872 44.557 354.271C44.1273 353.662 43.9125 353.007 43.9125 352.305H46.8558C46.8845 352.856 47.0886 353.279 47.4681 353.572C47.8477 353.866 48.3561 354.013 48.9935 354.013C49.5879 354.013 50.0355 353.902 50.3363 353.68C50.6442 353.451 50.7982 353.153 50.7982 352.788ZM60.6204 356H57.5052V344.377H60.6204V356ZM57.3226 341.369C57.3226 340.904 57.4765 340.521 57.7845 340.22C58.0996 339.919 58.5257 339.769 59.0628 339.769C59.5928 339.769 60.0153 339.919 60.3304 340.22C60.6455 340.521 60.803 340.904 60.803 341.369C60.803 341.842 60.6419 342.229 60.3196 342.529C60.0045 342.83 59.5856 342.98 59.0628 342.98C58.54 342.98 58.1175 342.83 57.7952 342.529C57.4801 342.229 57.3226 341.842 57.3226 341.369ZM64.0652 344.377L64.1619 345.72C64.9926 344.681 66.1062 344.162 67.5027 344.162C68.7345 344.162 69.6512 344.524 70.2527 345.247C70.8543 345.97 71.1622 347.052 71.1766 348.491V356H68.0721V348.566C68.0721 347.908 67.9288 347.431 67.6424 347.138C67.3559 346.837 66.8797 346.687 66.2137 346.687C65.34 346.687 64.6847 347.059 64.2478 347.804V356H61.1434V344.377H64.0652ZM72.4085 356V346.654H70.679V344.377H72.4085V343.389C72.4085 342.085 72.7809 341.076 73.5257 340.359C74.2776 339.636 75.3268 339.274 76.6731 339.274C77.1028 339.274 77.6292 339.346 78.2522 339.489L78.22 341.896C77.9622 341.831 77.6471 341.799 77.2747 341.799C76.1074 341.799 75.5237 342.347 75.5237 343.442V344.377H77.8333V346.654H75.5237V356H72.4085ZM76.9812 350.081C76.9812 348.928 77.2032 347.9 77.6472 346.998C78.0912 346.096 78.7286 345.397 79.5593 344.903C80.3972 344.409 81.3676 344.162 82.4705 344.162C84.0388 344.162 85.3171 344.642 86.3054 345.602C87.3009 346.561 87.8559 347.865 87.9705 349.512L87.992 350.307C87.992 352.09 87.4942 353.522 86.4988 354.604C85.5033 355.678 84.1677 356.215 82.492 356.215C80.8162 356.215 79.477 355.678 78.4744 354.604C77.4789 353.529 76.9812 352.068 76.9812 350.221V350.081ZM80.0857 350.307C80.0857 351.41 80.2934 352.255 80.7087 352.842C81.1241 353.422 81.7185 353.712 82.492 353.712C83.2439 353.712 83.8311 353.425 84.2537 352.853C84.6762 352.272 84.8875 351.349 84.8875 350.081C84.8875 349 84.6762 348.162 84.2537 347.567C83.8311 346.973 83.2367 346.676 82.4705 346.676C81.7114 346.676 81.1241 346.973 80.7087 347.567C80.2934 348.155 80.0857 349.068 80.0857 350.307ZM87.4729 350.103C87.4729 348.319 87.8954 346.883 88.7405 345.795C89.5927 344.706 90.7385 344.162 92.178 344.162C93.4527 344.162 94.4446 344.599 95.1535 345.473L95.2825 344.377H98.0969V355.613C98.0969 356.63 97.8642 357.515 97.3987 358.267C96.9403 359.019 96.2922 359.591 95.4543 359.985C94.6164 360.379 93.6353 360.576 92.511 360.576C91.6588 360.576 90.828 360.404 90.0188 360.061C89.2095 359.724 88.5972 359.287 88.1819 358.75L89.5569 356.859C90.3303 357.726 91.2685 358.159 92.3713 358.159C93.1949 358.159 93.8358 357.937 94.2942 357.493C94.7525 357.056 94.9817 356.433 94.9817 355.624V355.001C94.2655 355.81 93.3238 356.215 92.1565 356.215C90.76 356.215 89.6285 355.671 88.7619 354.582C87.9026 353.486 87.4729 352.036 87.4729 350.231V350.103ZM90.5774 350.328C90.5774 351.381 90.7886 352.208 91.2112 352.81C91.6337 353.404 92.2138 353.701 92.9514 353.701C93.8967 353.701 94.5735 353.347 94.9817 352.638V347.75C94.5663 347.041 93.8967 346.687 92.9729 346.687C92.2281 346.687 91.6409 346.991 91.2112 347.6C90.7886 348.208 90.5774 349.118 90.5774 350.328ZM105.044 347.288C104.621 347.231 104.249 347.202 103.926 347.202C102.752 347.202 101.982 347.6 101.617 348.395V356H98.5124V344.377H101.445L101.531 345.763C102.154 344.696 103.017 344.162 104.12 344.162C104.464 344.162 104.786 344.209 105.087 344.302L105.044 347.288ZM110.981 356C110.837 355.721 110.734 355.373 110.669 354.958C109.917 355.796 108.94 356.215 107.737 356.215C106.598 356.215 105.653 355.885 104.901 355.227C104.156 354.568 103.783 353.737 103.783 352.734C103.783 351.503 104.238 350.557 105.148 349.898C106.064 349.24 107.386 348.907 109.112 348.899H110.54V348.233C110.54 347.696 110.401 347.267 110.121 346.944C109.849 346.622 109.416 346.461 108.821 346.461C108.299 346.461 107.887 346.586 107.586 346.837C107.293 347.088 107.146 347.431 107.146 347.868H104.041C104.041 347.195 104.249 346.572 104.664 345.999C105.08 345.426 105.667 344.979 106.426 344.656C107.185 344.327 108.037 344.162 108.983 344.162C110.415 344.162 111.55 344.524 112.388 345.247C113.233 345.963 113.655 346.973 113.655 348.276V353.314C113.663 354.417 113.817 355.252 114.117 355.817V356H110.981ZM108.413 353.841C108.872 353.841 109.294 353.741 109.681 353.54C110.068 353.332 110.354 353.057 110.54 352.713V350.715H109.38C107.826 350.715 106.999 351.252 106.899 352.326L106.888 352.509C106.888 352.896 107.024 353.214 107.296 353.465C107.568 353.715 107.941 353.841 108.413 353.841ZM114.812 356V346.654H113.083V344.377H114.812V343.84C114.827 342.379 115.274 341.255 116.155 340.467C117.043 339.672 118.293 339.274 119.904 339.274C120.871 339.274 122.045 339.486 123.427 339.908L122.976 342.476C122.274 342.268 121.73 342.135 121.343 342.078C120.957 342.014 120.541 341.981 120.097 341.981C118.651 341.981 117.927 342.622 117.927 343.904V344.377H120.215V346.654H117.927V356H114.812ZM124.878 356H121.762V344.377H124.878V356ZM129.687 351.338L128.569 352.455V356H125.465V339.5H128.569V348.642L129.171 347.868L132.147 344.377H135.874L131.674 349.222L136.239 356H132.673L129.687 351.338ZM141.972 356C141.829 355.721 141.725 355.373 141.661 354.958C140.909 355.796 139.931 356.215 138.728 356.215C137.589 356.215 136.644 355.885 135.892 355.227C135.147 354.568 134.775 353.737 134.775 352.734C134.775 351.503 135.23 350.557 136.139 349.898C137.056 349.24 138.377 348.907 140.103 348.899H141.532V348.233C141.532 347.696 141.392 347.267 141.113 346.944C140.841 346.622 140.408 346.461 139.813 346.461C139.29 346.461 138.879 346.586 138.578 346.837C138.284 347.088 138.137 347.431 138.137 347.868H135.033C135.033 347.195 135.241 346.572 135.656 345.999C136.071 345.426 136.659 344.979 137.418 344.656C138.177 344.327 139.029 344.162 139.974 344.162C141.407 344.162 142.542 344.524 143.38 345.247C144.225 345.963 144.647 346.973 144.647 348.276V353.314C144.654 354.417 144.808 355.252 145.109 355.817V356H141.972ZM139.405 353.841C139.863 353.841 140.286 353.741 140.673 353.54C141.059 353.332 141.346 353.057 141.532 352.713V350.715H140.372C138.818 350.715 137.991 351.252 137.89 352.326L137.88 352.509C137.88 352.896 138.016 353.214 138.288 353.465C138.56 353.715 138.932 353.841 139.405 353.841ZM140.587 339.5H143.97L140.995 342.83H138.47L140.587 339.5ZM149.274 351.338L148.156 352.455V356H145.052V339.5H148.156V348.642L148.758 347.868L151.734 344.377H155.461L151.261 349.222L155.826 356H152.26L149.274 351.338ZM45.1495 382C45.0063 381.721 44.9025 381.373 44.838 380.958C44.0861 381.796 43.1085 382.215 41.9054 382.215C40.7667 382.215 39.8214 381.885 39.0695 381.227C38.3247 380.568 37.9523 379.737 37.9523 378.734C37.9523 377.503 38.407 376.557 39.3165 375.898C40.2332 375.24 41.5545 374.907 43.2804 374.899H44.7091V374.233C44.7091 373.696 44.5695 373.267 44.2902 372.944C44.018 372.622 43.5848 372.461 42.9904 372.461C42.4676 372.461 42.0558 372.586 41.755 372.837C41.4614 373.088 41.3146 373.431 41.3146 373.868H38.2101C38.2101 373.195 38.4178 372.572 38.8331 371.999C39.2485 371.426 39.8357 370.979 40.5948 370.656C41.354 370.327 42.2062 370.162 43.1515 370.162C44.5838 370.162 45.7189 370.524 46.5568 371.247C47.4018 371.963 47.8243 372.973 47.8243 374.276V379.314C47.8315 380.417 47.9855 381.252 48.2863 381.817V382H45.1495ZM42.5821 379.841C43.0405 379.841 43.463 379.741 43.8497 379.54C44.2364 379.332 44.5229 379.057 44.7091 378.713V376.715H43.5489C41.9949 376.715 41.1678 377.252 41.0675 378.326L41.0568 378.509C41.0568 378.896 41.1928 379.214 41.465 379.465C41.7371 379.715 42.1095 379.841 42.5821 379.841ZM56.8302 375.727L55.1544 377.531V382H51.9317V366.359H55.1544V373.449L56.5723 371.505L60.5577 366.359H64.5216L58.9679 373.31L64.6827 382H60.8477L56.8302 375.727ZM70.4478 382C70.3046 381.721 70.2007 381.373 70.1363 380.958C69.3843 381.796 68.4068 382.215 67.2037 382.215C66.065 382.215 65.1197 381.885 64.3677 381.227C63.6229 380.568 63.2505 379.737 63.2505 378.734C63.2505 377.503 63.7053 376.557 64.6148 375.898C65.5315 375.24 66.8528 374.907 68.5787 374.899H70.0074V374.233C70.0074 373.696 69.8677 373.267 69.5884 372.944C69.3163 372.622 68.883 372.461 68.2886 372.461C67.7658 372.461 67.3541 372.586 67.0533 372.837C66.7597 373.088 66.6129 373.431 66.6129 373.868H63.5084C63.5084 373.195 63.716 372.572 64.1314 371.999C64.5468 371.426 65.134 370.979 65.8931 370.656C66.6522 370.327 67.5045 370.162 68.4498 370.162C69.8821 370.162 71.0172 370.524 71.855 371.247C72.7001 371.963 73.1226 372.973 73.1226 374.276V379.314C73.1298 380.417 73.2838 381.252 73.5845 381.817V382H70.4478ZM67.8804 379.841C68.3388 379.841 68.7613 379.741 69.148 379.54C69.5347 379.332 69.8212 379.057 70.0074 378.713V376.715H68.8472C67.2932 376.715 66.466 377.252 66.3658 378.326L66.355 378.509C66.355 378.896 66.4911 379.214 66.7632 379.465C67.0354 379.715 67.4078 379.841 67.8804 379.841ZM69.0621 365.5H72.4459L69.4703 368.83H66.9459L69.0621 365.5ZM80.0586 373.288C79.6361 373.231 79.2637 373.202 78.9415 373.202C77.767 373.202 76.9971 373.6 76.6319 374.395V382H73.5274V370.377H76.46L76.5459 371.763C77.169 370.696 78.0319 370.162 79.1348 370.162C79.4786 370.162 79.8008 370.209 80.1016 370.302L80.0586 373.288ZM90.0454 376.296C90.0454 378.086 89.6372 379.522 88.8208 380.604C88.0116 381.678 86.9159 382.215 85.5337 382.215C84.3592 382.215 83.4103 381.807 82.687 380.99V386.469H79.5825V370.377H82.4614L82.5689 371.516C83.3208 370.613 84.3019 370.162 85.5122 370.162C86.9445 370.162 88.0581 370.692 88.853 371.752C89.648 372.812 90.0454 374.273 90.0454 376.135V376.296ZM86.9409 376.07C86.9409 374.989 86.7476 374.155 86.3609 373.567C85.9813 372.98 85.4263 372.687 84.6958 372.687C83.7219 372.687 83.0523 373.059 82.687 373.804V378.562C83.0666 379.329 83.7433 379.712 84.7173 379.712C86.1997 379.712 86.9409 378.498 86.9409 376.07ZM96.7344 382C96.5911 381.721 96.4873 381.373 96.4229 380.958C95.6709 381.796 94.6934 382.215 93.4902 382.215C92.3516 382.215 91.4062 381.885 90.6543 381.227C89.9095 380.568 89.5371 379.737 89.5371 378.734C89.5371 377.503 89.9919 376.557 90.9014 375.898C91.818 375.24 93.1393 374.907 94.8652 374.899H96.2939V374.233C96.2939 373.696 96.1543 373.267 95.875 372.944C95.6029 372.622 95.1696 372.461 94.5752 372.461C94.0524 372.461 93.6406 372.586 93.3398 372.837C93.0462 373.088 92.8994 373.431 92.8994 373.868H89.7949C89.7949 373.195 90.0026 372.572 90.418 371.999C90.8333 371.426 91.4206 370.979 92.1797 370.656C92.9388 370.327 93.791 370.162 94.7363 370.162C96.1686 370.162 97.3037 370.524 98.1416 371.247C98.9867 371.963 99.4092 372.973 99.4092 374.276V379.314C99.4163 380.417 99.5703 381.252 99.8711 381.817V382H96.7344ZM94.167 379.841C94.6253 379.841 95.0479 379.741 95.4346 379.54C95.8213 379.332 96.1077 379.057 96.2939 378.713V376.715H95.1338C93.5798 376.715 92.7526 377.252 92.6523 378.326L92.6416 378.509C92.6416 378.896 92.7777 379.214 93.0498 379.465C93.3219 379.715 93.6943 379.841 94.167 379.841ZM95.3486 365.5H98.7324L95.7568 368.83H93.2324L95.3486 365.5ZM103.531 367.52V370.377H105.518V372.654H103.531V378.455C103.531 378.885 103.613 379.193 103.778 379.379C103.943 379.565 104.258 379.658 104.723 379.658C105.067 379.658 105.371 379.633 105.636 379.583V381.936C105.027 382.122 104.401 382.215 103.756 382.215C101.579 382.215 100.469 381.116 100.426 378.917V372.654H98.729V370.377H100.426V367.52H103.531ZM111.305 376.554H105.257V374.051H111.305V376.554ZM114.846 371.645C115.67 370.656 116.705 370.162 117.951 370.162C120.471 370.162 121.75 371.627 121.786 374.556V382H118.681V374.642C118.681 373.976 118.538 373.485 118.251 373.17C117.965 372.848 117.489 372.687 116.823 372.687C115.913 372.687 115.254 373.037 114.846 373.739V382H111.742V365.5H114.846V371.645ZM128.883 382C128.74 381.721 128.636 381.373 128.571 380.958C127.819 381.796 126.842 382.215 125.639 382.215C124.5 382.215 123.555 381.885 122.803 381.227C122.058 380.568 121.685 379.737 121.685 378.734C121.685 377.503 122.14 376.557 123.05 375.898C123.966 375.24 125.288 374.907 127.014 374.899H128.442V374.233C128.442 373.696 128.303 373.267 128.023 372.944C127.751 372.622 127.318 372.461 126.724 372.461C126.201 372.461 125.789 372.586 125.488 372.837C125.195 373.088 125.048 373.431 125.048 373.868H121.943C121.943 373.195 122.151 372.572 122.566 371.999C122.982 371.426 123.569 370.979 124.328 370.656C125.087 370.327 125.939 370.162 126.885 370.162C128.317 370.162 129.452 370.524 130.29 371.247C131.135 371.963 131.558 372.973 131.558 374.276V379.314C131.565 380.417 131.719 381.252 132.019 381.817V382H128.883ZM126.315 379.841C126.774 379.841 127.196 379.741 127.583 379.54C127.97 379.332 128.256 379.057 128.442 378.713V376.715H127.282C125.728 376.715 124.901 377.252 124.801 378.326L124.79 378.509C124.79 378.896 124.926 379.214 125.198 379.465C125.47 379.715 125.843 379.841 126.315 379.841ZM135.529 379.497H141.211V382H131.565V380.109L137.033 372.891H131.726V370.377H141.039V372.214L135.529 379.497ZM147.911 382C147.768 381.721 147.664 381.373 147.599 380.958C146.848 381.796 145.87 382.215 144.667 382.215C143.528 382.215 142.583 381.885 141.831 381.227C141.086 380.568 140.714 379.737 140.714 378.734C140.714 377.503 141.168 376.557 142.078 375.898C142.995 375.24 144.316 374.907 146.042 374.899H147.471V374.233C147.471 373.696 147.331 373.267 147.052 372.944C146.78 372.622 146.346 372.461 145.752 372.461C145.229 372.461 144.817 372.586 144.516 372.837C144.223 373.088 144.076 373.431 144.076 373.868H140.972C140.972 373.195 141.179 372.572 141.595 371.999C142.01 371.426 142.597 370.979 143.356 370.656C144.115 370.327 144.968 370.162 145.913 370.162C147.345 370.162 148.48 370.524 149.318 371.247C150.163 371.963 150.586 372.973 150.586 374.276V379.314C150.593 380.417 150.747 381.252 151.048 381.817V382H147.911ZM145.344 379.841C145.802 379.841 146.224 379.741 146.611 379.54C146.998 379.332 147.284 379.057 147.471 378.713V376.715H146.31C144.756 376.715 143.929 377.252 143.829 378.326L143.818 378.509C143.818 378.896 143.954 379.214 144.226 379.465C144.499 379.715 144.871 379.841 145.344 379.841ZM21.3049 404.788C21.3049 404.409 21.1151 404.111 20.7355 403.896C20.3632 403.674 19.7616 403.478 18.9309 403.306C16.1665 402.726 14.7844 401.551 14.7844 399.782C14.7844 398.751 15.2105 397.892 16.0627 397.204C16.9221 396.509 18.0428 396.162 19.425 396.162C20.9003 396.162 22.0783 396.509 22.9592 397.204C23.8472 397.899 24.2912 398.801 24.2912 399.911H21.1867C21.1867 399.467 21.0435 399.102 20.757 398.815C20.4706 398.522 20.023 398.375 19.4143 398.375C18.8915 398.375 18.4869 398.493 18.2004 398.729C17.9139 398.966 17.7707 399.267 17.7707 399.632C17.7707 399.976 17.9318 400.255 18.2541 400.47C18.5835 400.677 19.135 400.86 19.9084 401.018C20.6818 401.168 21.3335 401.34 21.8635 401.533C23.5035 402.135 24.3234 403.177 24.3234 404.659C24.3234 405.719 23.8687 406.578 22.9592 407.237C22.0497 407.889 20.8752 408.215 19.4357 408.215C18.4618 408.215 17.5953 408.043 16.8361 407.699C16.0842 407.348 15.4934 406.872 15.0637 406.271C14.634 405.662 14.4191 405.007 14.4191 404.305H17.3625C17.3911 404.856 17.5953 405.279 17.9748 405.572C18.3544 405.866 18.8628 406.013 19.5002 406.013C20.0946 406.013 20.5422 405.902 20.843 405.68C21.1509 405.451 21.3049 405.153 21.3049 404.788ZM28.069 393.52V396.377H30.0563V398.654H28.069V404.455C28.069 404.885 28.1514 405.193 28.3161 405.379C28.4808 405.565 28.7959 405.658 29.2614 405.658C29.6052 405.658 29.9095 405.633 30.1745 405.583V407.936C29.5658 408.122 28.9391 408.215 28.2946 408.215C26.1175 408.215 25.0075 407.116 24.9645 404.917V398.654H23.2673V396.377H24.9645V393.52H28.069ZM36.5412 408C36.3979 407.721 36.2941 407.373 36.2297 406.958C35.4777 407.796 34.5002 408.215 33.297 408.215C32.1584 408.215 31.2131 407.885 30.4611 407.227C29.7163 406.568 29.3439 405.737 29.3439 404.734C29.3439 403.503 29.7987 402.557 30.7082 401.898C31.6248 401.24 32.9461 400.907 34.672 400.899H36.1007V400.233C36.1007 399.696 35.9611 399.267 35.6818 398.944C35.4097 398.622 34.9764 398.461 34.382 398.461C33.8592 398.461 33.4474 398.586 33.1466 398.837C32.853 399.088 32.7062 399.431 32.7062 399.868H29.6017C29.6017 399.195 29.8094 398.572 30.2248 397.999C30.6401 397.426 31.2274 396.979 31.9865 396.656C32.7456 396.327 33.5978 396.162 34.5431 396.162C35.9754 396.162 37.1105 396.524 37.9484 397.247C38.7935 397.963 39.216 398.973 39.216 400.276V405.314C39.2231 406.417 39.3771 407.252 39.6779 407.817V408H36.5412ZM33.9738 405.841C34.4321 405.841 34.8547 405.741 35.2414 405.54C35.6281 405.332 35.9145 405.057 36.1007 404.713V402.715H34.9406C33.3866 402.715 32.5594 403.252 32.4591 404.326L32.4484 404.509C32.4484 404.896 32.5845 405.214 32.8566 405.465C33.1287 405.715 33.5011 405.841 33.9738 405.841ZM43.3375 393.52V396.377H45.3248V398.654H43.3375V404.455C43.3375 404.885 43.4199 405.193 43.5846 405.379C43.7493 405.565 44.0644 405.658 44.5299 405.658C44.8737 405.658 45.178 405.633 45.443 405.583V407.936C44.8343 408.122 44.2077 408.215 43.5631 408.215C41.386 408.215 40.276 407.116 40.233 404.917V398.654H38.5358V396.377H40.233V393.52H43.3375ZM48.3507 408H45.2355V396.377H48.3507V408ZM45.0529 393.369C45.0529 392.904 45.2068 392.521 45.5148 392.22C45.8299 391.919 46.256 391.769 46.7931 391.769C47.323 391.769 47.7456 391.919 48.0607 392.22C48.3758 392.521 48.5333 392.904 48.5333 393.369C48.5333 393.842 48.3722 394.229 48.0499 394.529C47.7348 394.83 47.3159 394.98 46.7931 394.98C46.2703 394.98 45.8478 394.83 45.5255 394.529C45.2104 394.229 45.0529 393.842 45.0529 393.369ZM55.233 404.788C55.233 404.409 55.0432 404.111 54.6637 403.896C54.2913 403.674 53.6897 403.478 52.859 403.306C50.0947 402.726 48.7125 401.551 48.7125 399.782C48.7125 398.751 49.1386 397.892 49.9908 397.204C50.8502 396.509 51.971 396.162 53.3531 396.162C54.8284 396.162 56.0064 396.509 56.8873 397.204C57.7753 397.899 58.2193 398.801 58.2193 399.911H55.1148C55.1148 399.467 54.9716 399.102 54.6852 398.815C54.3987 398.522 53.9511 398.375 53.3424 398.375C52.8196 398.375 52.415 398.493 52.1285 398.729C51.8421 398.966 51.6988 399.267 51.6988 399.632C51.6988 399.976 51.86 400.255 52.1822 400.47C52.5117 400.677 53.0631 400.86 53.8365 401.018C54.61 401.168 55.2617 401.34 55.7916 401.533C57.4316 402.135 58.2516 403.177 58.2516 404.659C58.2516 405.719 57.7968 406.578 56.8873 407.237C55.9778 407.889 54.8033 408.215 53.3639 408.215C52.3899 408.215 51.5234 408.043 50.7643 407.699C50.0123 407.348 49.4215 406.872 48.9918 406.271C48.5621 405.662 48.3473 405.007 48.3473 404.305H51.2906C51.3193 404.856 51.5234 405.279 51.9029 405.572C52.2825 405.866 52.791 406.013 53.4283 406.013C54.0227 406.013 54.4703 405.902 54.7711 405.68C55.079 405.451 55.233 405.153 55.233 404.788ZM61.8468 405.497H67.5294V408H57.8829V406.109L63.3507 398.891H58.044V396.377H67.3575V398.214L61.8468 405.497ZM71.2105 393.52V396.377H73.1978V398.654H71.2105V404.455C71.2105 404.885 71.2929 405.193 71.4576 405.379C71.6223 405.565 71.9374 405.658 72.4029 405.658C72.7466 405.658 73.051 405.633 73.316 405.583V407.936C72.7073 408.122 72.0806 408.215 71.4361 408.215C69.259 408.215 68.149 407.116 68.106 404.917V398.654H66.4088V396.377H68.106V393.52H71.2105ZM76.2237 408H73.1084V396.377H76.2237V408ZM72.9258 393.369C72.9258 392.904 73.0798 392.521 73.3877 392.22C73.7028 391.919 74.129 391.769 74.6661 391.769C75.196 391.769 75.6185 391.919 75.9336 392.22C76.2487 392.521 76.4063 392.904 76.4063 393.369C76.4063 393.842 76.2452 394.229 75.9229 394.529C75.6078 394.83 75.1888 394.98 74.6661 394.98C74.1433 394.98 73.7207 394.83 73.3985 394.529C73.0834 394.229 72.9258 393.842 72.9258 393.369ZM81.0327 403.338L79.9156 404.455V408H76.8111V391.5H79.9156V400.642L80.5171 399.868L83.4927 396.377H87.2202L83.02 401.222L87.5855 408H84.0191L81.0327 403.338ZM93.3184 408C93.1751 407.721 93.0713 407.373 93.0068 406.958C92.2549 407.796 91.2773 408.215 90.0742 408.215C88.9355 408.215 87.9902 407.885 87.2383 407.227C86.4935 406.568 86.1211 405.737 86.1211 404.734C86.1211 403.503 86.5758 402.557 87.4854 401.898C88.402 401.24 89.7233 400.907 91.4492 400.899H92.8779V400.233C92.8779 399.696 92.7383 399.267 92.459 398.944C92.1868 398.622 91.7536 398.461 91.1592 398.461C90.6364 398.461 90.2246 398.586 89.9238 398.837C89.6302 399.088 89.4834 399.431 89.4834 399.868H86.3789C86.3789 399.195 86.5866 398.572 87.002 397.999C87.4173 397.426 88.0046 396.979 88.7637 396.656C89.5228 396.327 90.375 396.162 91.3203 396.162C92.7526 396.162 93.8877 396.524 94.7256 397.247C95.5706 397.963 95.9932 398.973 95.9932 400.276V405.314C96.0003 406.417 96.1543 407.252 96.4551 407.817V408H93.3184ZM90.751 405.841C91.2093 405.841 91.6318 405.741 92.0186 405.54C92.4053 405.332 92.6917 405.057 92.8779 404.713V402.715H91.7178C90.1637 402.715 89.3366 403.252 89.2363 404.326L89.2256 404.509C89.2256 404.896 89.3617 405.214 89.6338 405.465C89.9059 405.715 90.2783 405.841 90.751 405.841ZM91.9326 391.5H95.3164L92.3408 394.83H89.8164L91.9326 391.5ZM100.62 403.338L99.5024 404.455V408H96.3979V391.5H99.5024V400.642L100.104 399.868L103.08 396.377H106.807L102.607 401.222L107.172 408H103.606L100.62 403.338ZM116.404 408C116.261 407.721 116.157 407.373 116.092 406.958C115.34 407.796 114.363 408.215 113.16 408.215C112.021 408.215 111.076 407.885 110.324 407.227C109.579 406.568 109.206 405.737 109.206 404.734C109.206 403.503 109.661 402.557 110.571 401.898C111.487 401.24 112.809 400.907 114.535 400.899H115.963V400.233C115.963 399.696 115.824 399.267 115.544 398.944C115.272 398.622 114.839 398.461 114.245 398.461C113.722 398.461 113.31 398.586 113.009 398.837C112.716 399.088 112.569 399.431 112.569 399.868H109.464C109.464 399.195 109.672 398.572 110.087 397.999C110.503 397.426 111.09 396.979 111.849 396.656C112.608 396.327 113.46 396.162 114.406 396.162C115.838 396.162 116.973 396.524 117.811 397.247C118.656 397.963 119.079 398.973 119.079 400.276V405.314C119.086 406.417 119.24 407.252 119.54 407.817V408H116.404ZM113.836 405.841C114.295 405.841 114.717 405.741 115.104 405.54C115.491 405.332 115.777 405.057 115.963 404.713V402.715H114.803C113.249 402.715 112.422 403.252 112.322 404.326L112.311 404.509C112.311 404.896 112.447 405.214 112.719 405.465C112.991 405.715 113.364 405.841 113.836 405.841ZM119 402.103C119 400.291 119.405 398.848 120.214 397.773C121.03 396.699 122.144 396.162 123.555 396.162C124.686 396.162 125.621 396.585 126.358 397.43V391.5H129.474V408H126.67L126.519 406.765C125.746 407.731 124.751 408.215 123.533 408.215C122.165 408.215 121.066 407.678 120.235 406.604C119.412 405.522 119 404.022 119 402.103ZM122.104 402.328C122.104 403.417 122.294 404.251 122.674 404.831C123.053 405.411 123.605 405.701 124.328 405.701C125.288 405.701 125.964 405.297 126.358 404.487V399.9C125.972 399.091 125.302 398.687 124.35 398.687C122.853 398.687 122.104 399.9 122.104 402.328ZM136.635 408C136.492 407.721 136.388 407.373 136.324 406.958C135.572 407.796 134.594 408.215 133.391 408.215C132.252 408.215 131.307 407.885 130.555 407.227C129.81 406.568 129.438 405.737 129.438 404.734C129.438 403.503 129.893 402.557 130.802 401.898C131.719 401.24 133.04 400.907 134.766 400.899H136.195V400.233C136.195 399.696 136.055 399.267 135.776 398.944C135.504 398.622 135.07 398.461 134.476 398.461C133.953 398.461 133.541 398.586 133.241 398.837C132.947 399.088 132.8 399.431 132.8 399.868H129.696C129.696 399.195 129.903 398.572 130.319 397.999C130.734 397.426 131.321 396.979 132.08 396.656C132.84 396.327 133.692 396.162 134.637 396.162C136.069 396.162 137.204 396.524 138.042 397.247C138.887 397.963 139.31 398.973 139.31 400.276V405.314C139.317 406.417 139.471 407.252 139.772 407.817V408H136.635ZM134.068 405.841C134.526 405.841 134.949 405.741 135.335 405.54C135.722 405.332 136.009 405.057 136.195 404.713V402.715H135.035C133.481 402.715 132.653 403.252 132.553 404.326L132.542 404.509C132.542 404.896 132.678 405.214 132.951 405.465C133.223 405.715 133.595 405.841 134.068 405.841ZM143.432 393.52V396.377H145.419V398.654H143.432V404.455C143.432 404.885 143.514 405.193 143.679 405.379C143.843 405.565 144.158 405.658 144.624 405.658C144.968 405.658 145.272 405.633 145.537 405.583V407.936C144.928 408.122 144.302 408.215 143.657 408.215C141.48 408.215 140.37 407.116 140.327 404.917V398.654H138.63V396.377H140.327V393.52H143.432ZM151.904 408C151.76 407.721 151.657 407.373 151.592 406.958C150.84 407.796 149.863 408.215 148.66 408.215C147.521 408.215 146.576 407.885 145.824 407.227C145.079 406.568 144.706 405.737 144.706 404.734C144.706 403.503 145.161 402.557 146.071 401.898C146.987 401.24 148.309 400.907 150.035 400.899H151.463V400.233C151.463 399.696 151.324 399.267 151.044 398.944C150.772 398.622 150.339 398.461 149.744 398.461C149.222 398.461 148.81 398.586 148.509 398.837C148.216 399.088 148.069 399.431 148.069 399.868H144.964C144.964 399.195 145.172 398.572 145.587 397.999C146.003 397.426 146.59 396.979 147.349 396.656C148.108 396.327 148.96 396.162 149.906 396.162C151.338 396.162 152.473 396.524 153.311 397.247C154.156 397.963 154.578 398.973 154.578 400.276V405.314C154.586 406.417 154.74 407.252 155.04 407.817V408H151.904ZM149.336 405.841C149.795 405.841 150.217 405.741 150.604 405.54C150.991 405.332 151.277 405.057 151.463 404.713V402.715H150.303C148.749 402.715 147.922 403.252 147.822 404.326L147.811 404.509C147.811 404.896 147.947 405.214 148.219 405.465C148.491 405.715 148.864 405.841 149.336 405.841ZM158.26 408H155.144V396.377H158.26V408ZM154.962 393.369C154.962 392.904 155.116 392.521 155.424 392.22C155.739 391.919 156.165 391.769 156.702 391.769C157.232 391.769 157.654 391.919 157.97 392.22C158.285 392.521 158.442 392.904 158.442 393.369C158.442 393.842 158.281 394.229 157.959 394.529C157.644 394.83 157.225 394.98 156.702 394.98C156.179 394.98 155.757 394.83 155.434 394.529C155.119 394.229 154.962 393.842 154.962 393.369ZM165.378 399.288C164.956 399.231 164.583 399.202 164.261 399.202C163.087 399.202 162.317 399.6 161.951 400.395V408H158.847V396.377H161.78L161.866 397.763C162.489 396.696 163.352 396.162 164.454 396.162C164.798 396.162 165.12 396.209 165.421 396.302L165.378 399.288ZM171.315 408C171.172 407.721 171.068 407.373 171.004 406.958C170.252 407.796 169.274 408.215 168.071 408.215C166.932 408.215 165.987 407.885 165.235 407.227C164.49 406.568 164.118 405.737 164.118 404.734C164.118 403.503 164.573 402.557 165.482 401.898C166.399 401.24 167.72 400.907 169.446 400.899H170.875V400.233C170.875 399.696 170.735 399.267 170.456 398.944C170.184 398.622 169.75 398.461 169.156 398.461C168.633 398.461 168.221 398.586 167.921 398.837C167.627 399.088 167.48 399.431 167.48 399.868H164.376C164.376 399.195 164.583 398.572 164.999 397.999C165.414 397.426 166.001 396.979 166.761 396.656C167.52 396.327 168.372 396.162 169.317 396.162C170.749 396.162 171.885 396.524 172.722 397.247C173.568 397.963 173.99 398.973 173.99 400.276V405.314C173.997 406.417 174.151 407.252 174.452 407.817V408H171.315ZM168.748 405.841C169.206 405.841 169.629 405.741 170.015 405.54C170.402 405.332 170.689 405.057 170.875 404.713V402.715H169.715C168.161 402.715 167.333 403.252 167.233 404.326L167.222 404.509C167.222 404.896 167.359 405.214 167.631 405.465C167.903 405.715 168.275 405.841 168.748 405.841ZM12.6037 434.215C10.8993 434.215 9.50996 433.692 8.43575 432.646C7.36869 431.601 6.83516 430.208 6.83516 428.468V428.167C6.83516 427 7.06075 425.958 7.51192 425.041C7.96309 424.117 8.60046 423.408 9.42403 422.914C10.2548 422.413 11.2001 422.162 12.26 422.162C13.8498 422.162 15.0995 422.663 16.009 423.666C16.9257 424.669 17.384 426.09 17.384 427.931V429.198H9.98262C10.0829 429.957 10.3837 430.566 10.885 431.024C11.3934 431.483 12.0344 431.712 12.8078 431.712C14.0038 431.712 14.9383 431.279 15.6115 430.412L17.1369 432.12C16.6714 432.779 16.0412 433.295 15.2463 433.667C14.4514 434.032 13.5705 434.215 12.6037 434.215ZM12.2492 424.676C11.6333 424.676 11.132 424.883 10.7453 425.299C10.3658 425.714 10.1223 426.309 10.0148 427.082H14.3332V426.835C14.3189 426.147 14.1327 425.618 13.7746 425.245C13.4165 424.866 12.9081 424.676 12.2492 424.676ZM12.5285 417.5H15.9123L12.9367 420.83H10.4123L12.5285 417.5ZM23.4714 430.788C23.4714 430.409 23.2816 430.111 22.902 429.896C22.5296 429.674 21.9281 429.478 21.0973 429.306C18.333 428.726 16.9509 427.551 16.9509 425.782C16.9509 424.751 17.377 423.892 18.2292 423.204C19.0886 422.509 20.2093 422.162 21.5915 422.162C23.0667 422.162 24.2448 422.509 25.1257 423.204C26.0137 423.899 26.4577 424.801 26.4577 425.911H23.3532C23.3532 425.467 23.21 425.102 22.9235 424.815C22.6371 424.522 22.1895 424.375 21.5807 424.375C21.058 424.375 20.6533 424.493 20.3669 424.729C20.0804 424.966 19.9372 425.267 19.9372 425.632C19.9372 425.976 20.0983 426.255 20.4206 426.47C20.75 426.677 21.3014 426.86 22.0749 427.018C22.8483 427.168 23.5 427.34 24.03 427.533C25.6699 428.135 26.4899 429.177 26.4899 430.659C26.4899 431.719 26.0352 432.578 25.1257 433.237C24.2162 433.889 23.0417 434.215 21.6022 434.215C20.6283 434.215 19.7617 434.043 19.0026 433.699C18.2507 433.348 17.6598 432.872 17.2302 432.271C16.8005 431.662 16.5856 431.007 16.5856 430.305H19.529C19.5576 430.856 19.7617 431.279 20.1413 431.572C20.5208 431.866 21.0293 432.013 21.6667 432.013C22.2611 432.013 22.7087 431.902 23.0095 431.68C23.3174 431.451 23.4714 431.153 23.4714 430.788ZM36.7526 434C36.6094 433.721 36.5055 433.373 36.4411 432.958C35.6891 433.796 34.7116 434.215 33.5084 434.215C32.3698 434.215 31.4245 433.885 30.6725 433.227C29.9277 432.568 29.5553 431.737 29.5553 430.734C29.5553 429.503 30.0101 428.557 30.9196 427.898C31.8362 427.24 33.1575 426.907 34.8834 426.899H36.3122V426.233C36.3122 425.696 36.1725 425.267 35.8932 424.944C35.6211 424.622 35.1878 424.461 34.5934 424.461C34.0706 424.461 33.6588 424.586 33.358 424.837C33.0644 425.088 32.9176 425.431 32.9176 425.868H29.8131C29.8131 425.195 30.0208 424.572 30.4362 423.999C30.8515 423.426 31.4388 422.979 32.1979 422.656C32.957 422.327 33.8092 422.162 34.7545 422.162C36.1868 422.162 37.3219 422.524 38.1598 423.247C39.0049 423.963 39.4274 424.973 39.4274 426.276V431.314C39.4345 432.417 39.5885 433.252 39.8893 433.817V434H36.7526ZM34.1852 431.841C34.6435 431.841 35.0661 431.741 35.4528 431.54C35.8395 431.332 36.126 431.057 36.3122 430.713V428.715H35.152C33.598 428.715 32.7708 429.252 32.6705 430.326L32.6598 430.509C32.6598 430.896 32.7959 431.214 33.068 431.465C33.3401 431.715 33.7125 431.841 34.1852 431.841ZM56.2535 434H53.0309L46.7574 423.709V434H43.5348V418.359H46.7574L53.0416 428.672V418.359H56.2535V434ZM62.2335 434.215C60.5291 434.215 59.1397 433.692 58.0655 432.646C56.9985 431.601 56.4649 430.208 56.4649 428.468V428.167C56.4649 427 56.6905 425.958 57.1417 425.041C57.5929 424.117 58.2302 423.408 59.0538 422.914C59.8845 422.413 60.8298 422.162 61.8897 422.162C63.4796 422.162 64.7292 422.663 65.6388 423.666C66.5554 424.669 67.0138 426.09 67.0138 427.931V429.198H59.6124C59.7126 429.957 60.0134 430.566 60.5147 431.024C61.0232 431.483 61.6641 431.712 62.4376 431.712C63.6335 431.712 64.5681 431.279 65.2413 430.412L66.7667 432.12C66.3012 432.779 65.671 433.295 64.8761 433.667C64.0811 434.032 63.2003 434.215 62.2335 434.215ZM61.879 424.676C61.2631 424.676 60.7618 424.883 60.3751 425.299C59.9955 425.714 59.752 426.309 59.6446 427.082H63.963V426.835C63.9486 426.147 63.7624 425.618 63.4044 425.245C63.0463 424.866 62.5378 424.676 61.879 424.676ZM69.7173 422.377L69.814 423.677C70.6376 422.667 71.7512 422.162 73.1548 422.162C74.6516 422.162 75.6793 422.753 76.2379 423.935C77.0543 422.753 78.218 422.162 79.7291 422.162C80.9895 422.162 81.9276 422.531 82.5435 423.269C83.1594 423.999 83.4673 425.102 83.4673 426.577V434H80.3521V426.588C80.3521 425.929 80.2232 425.449 79.9654 425.148C79.7076 424.84 79.2528 424.687 78.6011 424.687C77.6701 424.687 77.0256 425.131 76.6675 426.019L76.6783 434H73.5738V426.599C73.5738 425.925 73.4413 425.438 73.1763 425.138C72.9114 424.837 72.4602 424.687 71.8228 424.687C70.942 424.687 70.3046 425.052 69.9107 425.782V434H66.8062V422.377H69.7173ZM87.4493 431.497H93.1319V434H83.4854V432.109L88.9532 424.891H83.6465V422.377H92.96V424.214L87.4493 431.497ZM98.2739 434.215C96.5695 434.215 95.1802 433.692 94.106 432.646C93.0389 431.601 92.5054 430.208 92.5054 428.468V428.167C92.5054 427 92.731 425.958 93.1822 425.041C93.6333 424.117 94.2707 423.408 95.0943 422.914C95.925 422.413 96.8703 422.162 97.9302 422.162C99.52 422.162 100.77 422.663 101.679 423.666C102.596 424.669 103.054 426.09 103.054 427.931V429.198H95.6529C95.7531 429.957 96.0539 430.566 96.5552 431.024C97.0637 431.483 97.7046 431.712 98.4781 431.712C99.674 431.712 100.609 431.279 101.282 430.412L102.807 432.12C102.342 432.779 101.711 433.295 100.917 433.667C100.122 434.032 99.2407 434.215 98.2739 434.215ZM97.9195 424.676C97.3036 424.676 96.8023 424.883 96.4156 425.299C96.036 425.714 95.7925 426.309 95.6851 427.082H100.003V426.835C99.9891 426.147 99.8029 425.618 99.4448 425.245C99.0868 424.866 98.5783 424.676 97.9195 424.676ZM106.563 419.52V422.377H108.551V424.654H106.563V430.455C106.563 430.885 106.646 431.193 106.811 431.379C106.975 431.565 107.29 431.658 107.756 431.658C108.1 431.658 108.404 431.633 108.669 431.583V433.936C108.06 434.122 107.434 434.215 106.789 434.215C104.612 434.215 103.502 433.116 103.459 430.917V424.654H101.762V422.377H103.459V419.52H106.563ZM114.595 430.788C114.595 430.409 114.405 430.111 114.026 429.896C113.653 429.674 113.052 429.478 112.221 429.306C109.457 428.726 108.075 427.551 108.075 425.782C108.075 424.751 108.501 423.892 109.353 423.204C110.212 422.509 111.333 422.162 112.715 422.162C114.191 422.162 115.369 422.509 116.249 423.204C117.138 423.899 117.582 424.801 117.582 425.911H114.477C114.477 425.467 114.334 425.102 114.047 424.815C113.761 424.522 113.313 424.375 112.705 424.375C112.182 424.375 111.777 424.493 111.491 424.729C111.204 424.966 111.061 425.267 111.061 425.632C111.061 425.976 111.222 426.255 111.544 426.47C111.874 426.677 112.425 426.86 113.199 427.018C113.972 427.168 114.624 427.34 115.154 427.533C116.794 428.135 117.614 429.177 117.614 430.659C117.614 431.719 117.159 432.578 116.249 433.237C115.34 433.889 114.166 434.215 112.726 434.215C111.752 434.215 110.886 434.043 110.126 433.699C109.374 433.348 108.784 432.872 108.354 432.271C107.924 431.662 107.709 431.007 107.709 430.305H110.653C110.681 430.856 110.886 431.279 111.265 431.572C111.645 431.866 112.153 432.013 112.791 432.013C113.385 432.013 113.833 431.902 114.133 431.68C114.441 431.451 114.595 431.153 114.595 430.788ZM121.359 419.52V422.377H123.347V424.654H121.359V430.455C121.359 430.885 121.442 431.193 121.606 431.379C121.771 431.565 122.086 431.658 122.552 431.658C122.895 431.658 123.2 431.633 123.465 431.583V433.936C122.856 434.122 122.229 434.215 121.585 434.215C119.408 434.215 118.298 433.116 118.255 430.917V424.654H116.558V422.377H118.255V419.52H121.359ZM129.627 425.288C129.205 425.231 128.832 425.202 128.51 425.202C127.336 425.202 126.566 425.6 126.201 426.395V434H123.096V422.377H126.029L126.115 423.763C126.738 422.696 127.601 422.162 128.704 422.162C129.047 422.162 129.37 422.209 129.67 422.302L129.627 425.288ZM135.564 434C135.421 433.721 135.317 433.373 135.253 432.958C134.501 433.796 133.523 434.215 132.32 434.215C131.182 434.215 130.236 433.885 129.484 433.227C128.74 432.568 128.367 431.737 128.367 430.734C128.367 429.503 128.822 428.557 129.731 427.898C130.648 427.24 131.969 426.907 133.695 426.899H135.124V426.233C135.124 425.696 134.984 425.267 134.705 424.944C134.433 424.622 134 424.461 133.405 424.461C132.882 424.461 132.471 424.586 132.17 424.837C131.876 425.088 131.729 425.431 131.729 425.868H128.625C128.625 425.195 128.833 424.572 129.248 423.999C129.663 423.426 130.251 422.979 131.01 422.656C131.769 422.327 132.621 422.162 133.566 422.162C134.999 422.162 136.134 422.524 136.972 423.247C137.817 423.963 138.239 424.973 138.239 426.276V431.314C138.246 432.417 138.4 433.252 138.701 433.817V434H135.564ZM132.997 431.841C133.455 431.841 133.878 431.741 134.265 431.54C134.651 431.332 134.938 431.057 135.124 430.713V428.715H133.964C132.41 428.715 131.583 429.252 131.482 430.326L131.472 430.509C131.472 430.896 131.608 431.214 131.88 431.465C132.152 431.715 132.524 431.841 132.997 431.841ZM142.361 419.52V422.377H144.348V424.654H142.361V430.455C142.361 430.885 142.443 431.193 142.608 431.379C142.773 431.565 143.088 431.658 143.553 431.658C143.897 431.658 144.201 431.633 144.466 431.583V433.936C143.857 434.122 143.231 434.215 142.586 434.215C140.409 434.215 139.299 433.116 139.256 430.917V424.654H137.559V422.377H139.256V419.52H142.361ZM149.447 434.215C147.743 434.215 146.353 433.692 145.279 432.646C144.212 431.601 143.679 430.208 143.679 428.468V428.167C143.679 427 143.904 425.958 144.355 425.041C144.807 424.117 145.444 423.408 146.267 422.914C147.098 422.413 148.044 422.162 149.103 422.162C150.693 422.162 151.943 422.663 152.852 423.666C153.769 424.669 154.227 426.09 154.227 427.931V429.198H146.826C146.926 429.957 147.227 430.566 147.728 431.024C148.237 431.483 148.878 431.712 149.651 431.712C150.847 431.712 151.782 431.279 152.455 430.412L153.98 432.12C153.515 432.779 152.885 433.295 152.09 433.667C151.295 434.032 150.414 434.215 149.447 434.215ZM149.093 424.676C148.477 424.676 147.975 424.883 147.589 425.299C147.209 425.714 146.966 426.309 146.858 427.082H151.177V426.835C151.162 426.147 150.976 425.618 150.618 425.245C150.26 424.866 149.752 424.676 149.093 424.676ZM149.372 417.5H152.756L149.78 420.83H147.256L149.372 417.5ZM153.569 428.103C153.569 426.319 153.991 424.883 154.836 423.795C155.689 422.706 156.834 422.162 158.274 422.162C159.549 422.162 160.54 422.599 161.249 423.473L161.378 422.377H164.193V433.613C164.193 434.63 163.96 435.515 163.494 436.267C163.036 437.019 162.388 437.591 161.55 437.985C160.712 438.379 159.731 438.576 158.607 438.576C157.755 438.576 156.924 438.404 156.115 438.061C155.305 437.724 154.693 437.287 154.278 436.75L155.653 434.859C156.426 435.726 157.364 436.159 158.467 436.159C159.291 436.159 159.932 435.937 160.39 435.493C160.848 435.056 161.077 434.433 161.077 433.624V433.001C160.361 433.81 159.42 434.215 158.252 434.215C156.856 434.215 155.724 433.671 154.858 432.582C153.998 431.486 153.569 430.036 153.569 428.231V428.103ZM156.673 428.328C156.673 429.381 156.884 430.208 157.307 430.81C157.73 431.404 158.31 431.701 159.047 431.701C159.993 431.701 160.669 431.347 161.077 430.638V425.75C160.662 425.041 159.993 424.687 159.069 424.687C158.324 424.687 157.737 424.991 157.307 425.6C156.884 426.208 156.673 427.118 156.673 428.328ZM167.885 434H164.769V422.377H167.885V434ZM164.587 419.369C164.587 418.904 164.741 418.521 165.049 418.22C165.364 417.919 165.79 417.769 166.327 417.769C166.857 417.769 167.279 417.919 167.595 418.22C167.91 418.521 168.067 418.904 168.067 419.369C168.067 419.842 167.906 420.229 167.584 420.529C167.269 420.83 166.85 420.98 166.327 420.98C165.804 420.98 165.382 420.83 165.059 420.529C164.744 420.229 164.587 419.842 164.587 419.369ZM175.207 434C175.064 433.721 174.96 433.373 174.896 432.958C174.144 433.796 173.166 434.215 171.963 434.215C170.825 434.215 169.879 433.885 169.127 433.227C168.382 432.568 168.01 431.737 168.01 430.734C168.01 429.503 168.465 428.557 169.374 427.898C170.291 427.24 171.612 426.907 173.338 426.899H174.767V426.233C174.767 425.696 174.627 425.267 174.348 424.944C174.076 424.622 173.643 424.461 173.048 424.461C172.525 424.461 172.114 424.586 171.813 424.837C171.519 425.088 171.372 425.431 171.372 425.868H168.268C168.268 425.195 168.476 424.572 168.891 423.999C169.306 423.426 169.894 422.979 170.653 422.656C171.412 422.327 172.264 422.162 173.209 422.162C174.642 422.162 175.777 422.524 176.615 423.247C177.46 423.963 177.882 424.973 177.882 426.276V431.314C177.889 432.417 178.043 433.252 178.344 433.817V434H175.207ZM172.64 431.841C173.098 431.841 173.521 431.741 173.908 431.54C174.294 431.332 174.581 431.057 174.767 430.713V428.715H173.607C172.053 428.715 171.226 429.252 171.125 430.326L171.115 430.509C171.115 430.896 171.251 431.214 171.523 431.465C171.795 431.715 172.167 431.841 172.64 431.841ZM181.563 434H178.448V422.377H181.563V434ZM178.265 419.369C178.265 418.904 178.419 418.521 178.727 418.22C179.042 417.919 179.469 417.769 180.006 417.769C180.536 417.769 180.958 417.919 181.273 418.22C181.588 418.521 181.746 418.904 181.746 419.369C181.746 419.842 181.585 420.229 181.262 420.529C180.947 420.83 180.528 420.98 180.006 420.98C179.483 420.98 179.06 420.83 178.738 420.529C178.423 420.229 178.265 419.842 178.265 419.369ZM46.3419 453.727L44.6661 455.531V460H41.4435V444.359H44.6661V451.449L46.0841 449.505L50.0695 444.359H54.0333L48.4796 451.31L54.1945 460H50.3595L46.3419 453.727ZM59.9273 458.818C59.1611 459.749 58.1012 460.215 56.7477 460.215C55.5016 460.215 54.5491 459.857 53.8902 459.141C53.2385 458.424 52.9055 457.375 52.8912 455.993V448.377H55.9957V455.886C55.9957 457.096 56.5471 457.701 57.65 457.701C58.7027 457.701 59.426 457.336 59.8199 456.605V448.377H62.9352V460H60.0133L59.9273 458.818ZM67.0138 445.52V448.377H69.0011V450.654H67.0138V456.455C67.0138 456.885 67.0961 457.193 67.2608 457.379C67.4255 457.565 67.7406 457.658 68.2061 457.658C68.5499 457.658 68.8542 457.633 69.1192 457.583V459.936C68.5105 460.122 67.8839 460.215 67.2393 460.215C65.0623 460.215 63.9522 459.116 63.9093 456.917V450.654H62.212V448.377H63.9093V445.52H67.0138ZM75.4859 460C75.3427 459.721 75.2388 459.373 75.1744 458.958C74.4224 459.796 73.4449 460.215 72.2418 460.215C71.1031 460.215 70.1578 459.885 69.4058 459.227C68.661 458.568 68.2886 457.737 68.2886 456.734C68.2886 455.503 68.7434 454.557 69.6529 453.898C70.5696 453.24 71.8908 452.907 73.6168 452.899H75.0455V452.233C75.0455 451.696 74.9058 451.267 74.6265 450.944C74.3544 450.622 73.9211 450.461 73.3267 450.461C72.8039 450.461 72.3922 450.586 72.0914 450.837C71.7977 451.088 71.6509 451.431 71.6509 451.868H68.5464C68.5464 451.195 68.7541 450.572 69.1695 449.999C69.5849 449.426 70.1721 448.979 70.9312 448.656C71.6903 448.327 72.5425 448.162 73.4879 448.162C74.9201 448.162 76.0552 448.524 76.8931 449.247C77.7382 449.963 78.1607 450.973 78.1607 452.276V457.314C78.1679 458.417 78.3218 459.252 78.6226 459.817V460H75.4859ZM72.9185 457.841C73.3769 457.841 73.7994 457.741 74.1861 457.54C74.5728 457.332 74.8593 457.057 75.0455 456.713V454.715H73.8853C72.3313 454.715 71.5041 455.252 71.4039 456.326L71.3931 456.509C71.3931 456.896 71.5292 457.214 71.8013 457.465C72.0735 457.715 72.4459 457.841 72.9185 457.841ZM82.2823 445.52V448.377H84.2696V450.654H82.2823V456.455C82.2823 456.885 82.3646 457.193 82.5293 457.379C82.6941 457.565 83.0092 457.658 83.4747 457.658C83.8184 457.658 84.1228 457.633 84.3877 457.583V459.936C83.779 460.122 83.1524 460.215 82.5079 460.215C80.3308 460.215 79.2207 459.116 79.1778 456.917V450.654H77.4805V448.377H79.1778V445.52H82.2823ZM83.2134 454.081C83.2134 452.928 83.4354 451.9 83.8794 450.998C84.3234 450.096 84.9608 449.397 85.7915 448.903C86.6294 448.409 87.5998 448.162 88.7027 448.162C90.271 448.162 91.5493 448.642 92.5376 449.602C93.5331 450.561 94.0881 451.865 94.2027 453.512L94.2241 454.307C94.2241 456.09 93.7264 457.522 92.731 458.604C91.7355 459.678 90.3999 460.215 88.7241 460.215C87.0484 460.215 85.7092 459.678 84.7066 458.604C83.7111 457.529 83.2134 456.068 83.2134 454.221V454.081ZM86.3179 454.307C86.3179 455.41 86.5256 456.255 86.9409 456.842C87.3563 457.422 87.9507 457.712 88.7241 457.712C89.4761 457.712 90.0633 457.425 90.4859 456.853C90.9084 456.272 91.1196 455.349 91.1196 454.081C91.1196 453 90.9084 452.162 90.4859 451.567C90.0633 450.973 89.4689 450.676 88.7027 450.676C87.9435 450.676 87.3563 450.973 86.9409 451.567C86.5256 452.155 86.3179 453.068 86.3179 454.307ZM89.315 443.5H92.6987L89.7232 446.83H87.1987L89.315 443.5ZM97.4326 460H94.3174V448.377H97.4326V460ZM94.1348 445.369C94.1348 444.904 94.2887 444.521 94.5967 444.22C94.9118 443.919 95.3379 443.769 95.875 443.769C96.4049 443.769 96.8275 443.919 97.1426 444.22C97.4577 444.521 97.6152 444.904 97.6152 445.369C97.6152 445.842 97.4541 446.229 97.1318 446.529C96.8167 446.83 96.3978 446.98 95.875 446.98C95.3522 446.98 94.9297 446.83 94.6074 446.529C94.2923 446.229 94.1348 445.842 94.1348 445.369ZM100.877 448.377L100.974 449.72C101.805 448.681 102.918 448.162 104.315 448.162C105.547 448.162 106.463 448.524 107.065 449.247C107.666 449.97 107.974 451.052 107.989 452.491V460H104.884V452.566C104.884 451.908 104.741 451.431 104.455 451.138C104.168 450.837 103.692 450.687 103.026 450.687C102.152 450.687 101.497 451.059 101.06 451.804V460H97.9556V448.377H100.877ZM112.089 445.52V448.377H114.076V450.654H112.089V456.455C112.089 456.885 112.171 457.193 112.336 457.379C112.501 457.565 112.816 457.658 113.281 457.658C113.625 457.658 113.929 457.633 114.194 457.583V459.936C113.586 460.122 112.959 460.215 112.314 460.215C110.137 460.215 109.027 459.116 108.984 456.917V450.654H107.287V448.377H108.984V445.52H112.089ZM119.175 460.215C117.471 460.215 116.081 459.692 115.007 458.646C113.94 457.601 113.407 456.208 113.407 454.468V454.167C113.407 453 113.632 451.958 114.083 451.041C114.535 450.117 115.172 449.408 115.996 448.914C116.826 448.413 117.772 448.162 118.831 448.162C120.421 448.162 121.671 448.663 122.581 449.666C123.497 450.669 123.956 452.09 123.956 453.931V455.198H116.554C116.654 455.957 116.955 456.566 117.456 457.024C117.965 457.483 118.606 457.712 119.379 457.712C120.575 457.712 121.51 457.279 122.183 456.412L123.708 458.12C123.243 458.779 122.613 459.295 121.818 459.667C121.023 460.032 120.142 460.215 119.175 460.215ZM118.821 450.676C118.205 450.676 117.704 450.883 117.317 451.299C116.937 451.714 116.694 452.309 116.586 453.082H120.905V452.835C120.89 452.147 120.704 451.618 120.346 451.245C119.988 450.866 119.48 450.676 118.821 450.676ZM119.1 443.5H122.484L119.508 446.83H116.984L119.1 443.5ZM127.314 457.497H132.997V460H123.351V458.109L128.818 450.891H123.512V448.377H132.825V450.214L127.314 457.497ZM138.139 460.215C136.435 460.215 135.045 459.692 133.971 458.646C132.904 457.601 132.371 456.208 132.371 454.468V454.167C132.371 453 132.596 451.958 133.047 451.041C133.498 450.117 134.136 449.408 134.959 448.914C135.79 448.413 136.735 448.162 137.795 448.162C139.385 448.162 140.635 448.663 141.544 449.666C142.461 450.669 142.919 452.09 142.919 453.931V455.198H135.518C135.618 455.957 135.919 456.566 136.42 457.024C136.929 457.483 137.57 457.712 138.343 457.712C139.539 457.712 140.474 457.279 141.147 456.412L142.672 458.12C142.207 458.779 141.577 459.295 140.782 459.667C139.987 460.032 139.106 460.215 138.139 460.215ZM137.785 450.676C137.169 450.676 136.667 450.883 136.281 451.299C135.901 451.714 135.658 452.309 135.55 453.082H139.869V452.835C139.854 452.147 139.668 451.618 139.31 451.245C138.952 450.866 138.443 450.676 137.785 450.676ZM146.429 445.52V448.377H148.416V450.654H146.429V456.455C146.429 456.885 146.511 457.193 146.676 457.379C146.84 457.565 147.155 457.658 147.621 457.658C147.965 457.658 148.269 457.633 148.534 457.583V459.936C147.925 460.122 147.299 460.215 146.654 460.215C144.477 460.215 143.367 459.116 143.324 456.917V450.654H141.627V448.377H143.324V445.52H146.429ZM26.4362 481.338L25.319 482.455V486H22.2145V469.5H25.319V478.642L25.9206 477.868L28.8962 474.377H32.6237L28.4235 479.222L32.9889 486H29.4225L26.4362 481.338ZM38.9474 484.818C38.1811 485.749 37.1213 486.215 35.7677 486.215C34.5216 486.215 33.5692 485.857 32.9103 485.141C32.2586 484.424 31.9256 483.375 31.9113 481.993V474.377H35.0158V481.886C35.0158 483.096 35.5672 483.701 36.6701 483.701C37.7228 483.701 38.4461 483.336 38.84 482.605V474.377H41.9552V486H39.0334L38.9474 484.818ZM46.0338 471.52V474.377H48.0211V476.654H46.0338V482.455C46.0338 482.885 46.1162 483.193 46.2809 483.379C46.4456 483.565 46.7607 483.658 47.2262 483.658C47.57 483.658 47.8743 483.633 48.1393 483.583V485.936C47.5306 486.122 46.9039 486.215 46.2594 486.215C44.0823 486.215 42.9723 485.116 42.9293 482.917V476.654H41.2321V474.377H42.9293V471.52H46.0338ZM54.506 486C54.3627 485.721 54.2589 485.373 54.1945 484.958C53.4425 485.796 52.465 486.215 51.2618 486.215C50.1232 486.215 49.1778 485.885 48.4259 485.227C47.6811 484.568 47.3087 483.737 47.3087 482.734C47.3087 481.503 47.7635 480.557 48.673 479.898C49.5896 479.24 50.9109 478.907 52.6368 478.899H54.0655V478.233C54.0655 477.696 53.9259 477.267 53.6466 476.944C53.3745 476.622 52.9412 476.461 52.3468 476.461C51.824 476.461 51.4122 476.586 51.1114 476.837C50.8178 477.088 50.671 477.431 50.671 477.868H47.5665C47.5665 477.195 47.7742 476.572 48.1896 475.999C48.6049 475.426 49.1922 474.979 49.9513 474.656C50.7104 474.327 51.5626 474.162 52.5079 474.162C53.9402 474.162 55.0753 474.524 55.9132 475.247C56.7583 475.963 57.1808 476.973 57.1808 478.276V483.314C57.1879 484.417 57.3419 485.252 57.6427 485.817V486H54.506ZM51.9386 483.841C52.3969 483.841 52.8195 483.741 53.2062 483.54C53.5929 483.332 53.8793 483.057 54.0655 482.713V480.715H52.9054C51.3514 480.715 50.5242 481.252 50.4239 482.326L50.4132 482.509C50.4132 482.896 50.5493 483.214 50.8214 483.465C51.0935 483.715 51.4659 483.841 51.9386 483.841ZM61.3023 471.52V474.377H63.2896V476.654H61.3023V482.455C61.3023 482.885 61.3847 483.193 61.5494 483.379C61.7141 483.565 62.0292 483.658 62.4947 483.658C62.8385 483.658 63.1428 483.633 63.4078 483.583V485.936C62.7991 486.122 62.1725 486.215 61.5279 486.215C59.3508 486.215 58.2408 485.116 58.1979 482.917V476.654H56.5006V474.377H58.1979V471.52H61.3023ZM69.7745 486C69.6313 485.721 69.5274 485.373 69.463 484.958C68.711 485.796 67.7335 486.215 66.5303 486.215C65.3917 486.215 64.4464 485.885 63.6944 485.227C62.9496 484.568 62.5772 483.737 62.5772 482.734C62.5772 481.503 63.032 480.557 63.9415 479.898C64.8581 479.24 66.1794 478.907 67.9053 478.899H69.3341V478.233C69.3341 477.696 69.1944 477.267 68.9151 476.944C68.643 476.622 68.2097 476.461 67.6153 476.461C67.0925 476.461 66.6807 476.586 66.38 476.837C66.0863 477.088 65.9395 477.431 65.9395 477.868H62.835C62.835 477.195 63.0427 476.572 63.4581 475.999C63.8734 475.426 64.4607 474.979 65.2198 474.656C65.9789 474.327 66.8311 474.162 67.7764 474.162C69.2087 474.162 70.3438 474.524 71.1817 475.247C72.0268 475.963 72.4493 476.973 72.4493 478.276V483.314C72.4565 484.417 72.6104 485.252 72.9112 485.817V486H69.7745ZM67.2071 483.841C67.6654 483.841 68.088 483.741 68.4747 483.54C68.8614 483.332 69.1479 483.057 69.3341 482.713V480.715H68.1739C66.6199 480.715 65.7927 481.252 65.6925 482.326L65.6817 482.509C65.6817 482.896 65.8178 483.214 66.0899 483.465C66.3621 483.715 66.7345 483.841 67.2071 483.841ZM68.3887 469.5H71.7725L68.797 472.83H66.2725L68.3887 469.5ZM79.149 482.788C79.149 482.409 78.9592 482.111 78.5797 481.896C78.2073 481.674 77.6057 481.478 76.775 481.306C74.0106 480.726 72.6285 479.551 72.6285 477.782C72.6285 476.751 73.0546 475.892 73.9068 475.204C74.7662 474.509 75.8869 474.162 77.2691 474.162C78.7444 474.162 79.9224 474.509 80.8033 475.204C81.6913 475.899 82.1353 476.801 82.1353 477.911H79.0308C79.0308 477.467 78.8876 477.102 78.6011 476.815C78.3147 476.522 77.8671 476.375 77.2584 476.375C76.7356 476.375 76.331 476.493 76.0445 476.729C75.758 476.966 75.6148 477.267 75.6148 477.632C75.6148 477.976 75.7759 478.255 76.0982 478.47C76.4276 478.677 76.9791 478.86 77.7525 479.018C78.5259 479.168 79.1776 479.34 79.7076 479.533C81.3476 480.135 82.1675 481.177 82.1675 482.659C82.1675 483.719 81.7128 484.578 80.8033 485.237C79.8938 485.889 78.7193 486.215 77.2798 486.215C76.3059 486.215 75.4394 486.043 74.6802 485.699C73.9283 485.348 73.3375 484.872 72.9078 484.271C72.4781 483.662 72.2632 483.007 72.2632 482.305H75.2066C75.2352 482.856 75.4394 483.279 75.8189 483.572C76.1985 483.866 76.7069 484.013 77.3443 484.013C77.9387 484.013 78.3863 483.902 78.6871 483.68C78.995 483.451 79.149 483.153 79.149 482.788ZM88.9317 486C88.7884 485.721 88.6846 485.373 88.6202 484.958C87.8682 485.796 86.8907 486.215 85.6875 486.215C84.5489 486.215 83.6036 485.885 82.8516 485.227C82.1068 484.568 81.7344 483.737 81.7344 482.734C81.7344 481.503 82.1892 480.557 83.0987 479.898C84.0153 479.24 85.3366 478.907 87.0625 478.899H88.4912V478.233C88.4912 477.696 88.3516 477.267 88.0723 476.944C87.8002 476.622 87.3669 476.461 86.7725 476.461C86.2497 476.461 85.8379 476.586 85.5371 476.837C85.2435 477.088 85.0967 477.431 85.0967 477.868H81.9922C81.9922 477.195 82.1999 476.572 82.6153 475.999C83.0306 475.426 83.6179 474.979 84.377 474.656C85.1361 474.327 85.9883 474.162 86.9336 474.162C88.3659 474.162 89.501 474.524 90.3389 475.247C91.184 475.963 91.6065 476.973 91.6065 478.276V483.314C91.6136 484.417 91.7676 485.252 92.0684 485.817V486H88.9317ZM86.3643 483.841C86.8226 483.841 87.2452 483.741 87.6319 483.54C88.0186 483.332 88.3051 483.057 88.4912 482.713V480.715H87.3311C85.7771 480.715 84.9499 481.252 84.8496 482.326L84.8389 482.509C84.8389 482.896 84.975 483.214 85.2471 483.465C85.5192 483.715 85.8916 483.841 86.3643 483.841ZM95.2876 486H92.1724V474.377H95.2876V486ZM91.9898 471.369C91.9898 470.904 92.1437 470.521 92.4517 470.22C92.7668 469.919 93.1929 469.769 93.73 469.769C94.26 469.769 94.6825 469.919 94.9976 470.22C95.3127 470.521 95.4702 470.904 95.4702 471.369C95.4702 471.842 95.3091 472.229 94.9868 472.529C94.6717 472.83 94.2528 472.98 93.73 472.98C93.2072 472.98 92.7847 472.83 92.4624 472.529C92.1473 472.229 91.9898 471.842 91.9898 471.369ZM102.406 477.288C101.984 477.231 101.611 477.202 101.289 477.202C100.115 477.202 99.3447 477.6 98.9795 478.395V486H95.875V474.377H98.8076L98.8936 475.763C99.5166 474.696 100.38 474.162 101.482 474.162C101.826 474.162 102.148 474.209 102.449 474.302L102.406 477.288ZM108.343 486C108.2 485.721 108.096 485.373 108.032 484.958C107.28 485.796 106.302 486.215 105.099 486.215C103.96 486.215 103.015 485.885 102.263 485.227C101.518 484.568 101.146 483.737 101.146 482.734C101.146 481.503 101.601 480.557 102.51 479.898C103.427 479.24 104.748 478.907 106.474 478.899H107.903V478.233C107.903 477.696 107.763 477.267 107.484 476.944C107.212 476.622 106.778 476.461 106.184 476.461C105.661 476.461 105.249 476.586 104.949 476.837C104.655 477.088 104.508 477.431 104.508 477.868H101.404C101.404 477.195 101.611 476.572 102.027 475.999C102.442 475.426 103.029 474.979 103.789 474.656C104.548 474.327 105.4 474.162 106.345 474.162C107.777 474.162 108.913 474.524 109.75 475.247C110.596 475.963 111.018 476.973 111.018 478.276V483.314C111.025 484.417 111.179 485.252 111.48 485.817V486H108.343ZM105.776 483.841C106.234 483.841 106.657 483.741 107.043 483.54C107.43 483.332 107.717 483.057 107.903 482.713V480.715H106.743C105.189 480.715 104.361 481.252 104.261 482.326L104.25 482.509C104.25 482.896 104.387 483.214 104.659 483.465C104.931 483.715 105.303 483.841 105.776 483.841ZM120.271 486.215C118.567 486.215 117.177 485.692 116.103 484.646C115.036 483.601 114.502 482.208 114.502 480.468V480.167C114.502 479 114.728 477.958 115.179 477.041C115.63 476.117 116.268 475.408 117.091 474.914C117.922 474.413 118.867 474.162 119.927 474.162C121.517 474.162 122.767 474.663 123.676 475.666C124.593 476.669 125.051 478.09 125.051 479.931V481.198H117.65C117.75 481.957 118.051 482.566 118.552 483.024C119.061 483.483 119.702 483.712 120.475 483.712C121.671 483.712 122.606 483.279 123.279 482.412L124.804 484.12C124.339 484.779 123.708 485.295 122.914 485.667C122.119 486.032 121.238 486.215 120.271 486.215ZM119.916 476.676C119.301 476.676 118.799 476.883 118.413 477.299C118.033 477.714 117.789 478.309 117.682 479.082H122V478.835C121.986 478.147 121.8 477.618 121.442 477.245C121.084 476.866 120.575 476.676 119.916 476.676ZM120.196 469.5H123.58L120.604 472.83H118.08L120.196 469.5ZM135.307 480.296C135.307 482.086 134.898 483.522 134.082 484.604C133.273 485.678 132.177 486.215 130.795 486.215C129.62 486.215 128.671 485.807 127.948 484.99V490.469H124.844V474.377H127.723L127.83 475.516C128.582 474.613 129.563 474.162 130.773 474.162C132.206 474.162 133.319 474.692 134.114 475.752C134.909 476.812 135.307 478.273 135.307 480.135V480.296ZM132.202 480.07C132.202 478.989 132.009 478.155 131.622 477.567C131.242 476.98 130.687 476.687 129.957 476.687C128.983 476.687 128.313 477.059 127.948 477.804V482.562C128.328 483.329 129.004 483.712 129.978 483.712C131.461 483.712 132.202 482.498 132.202 480.07ZM138.612 486H135.507V474.377H138.612V486ZM137.699 469.661H141.082L138.107 472.991H135.582L137.699 469.661ZM143.034 471.52V474.377H145.021V476.654H143.034V482.455C143.034 482.885 143.116 483.193 143.281 483.379C143.446 483.565 143.761 483.658 144.226 483.658C144.57 483.658 144.875 483.633 145.14 483.583V485.936C144.531 486.122 143.904 486.215 143.26 486.215C141.083 486.215 139.973 485.116 139.93 482.917V476.654H138.232V474.377H139.93V471.52H143.034ZM149.121 482.208L151.281 474.377H154.525L150.604 486H147.639L143.718 474.377H146.962L149.121 482.208ZM159.119 486.215C157.415 486.215 156.025 485.692 154.951 484.646C153.884 483.601 153.35 482.208 153.35 480.468V480.167C153.35 479 153.576 477.958 154.027 477.041C154.478 476.117 155.116 475.408 155.939 474.914C156.77 474.413 157.715 474.162 158.775 474.162C160.365 474.162 161.615 474.663 162.524 475.666C163.441 476.669 163.899 478.09 163.899 479.931V481.198H156.498C156.598 481.957 156.899 482.566 157.4 483.024C157.909 483.483 158.55 483.712 159.323 483.712C160.519 483.712 161.454 483.279 162.127 482.412L163.652 484.12C163.187 484.779 162.556 485.295 161.762 485.667C160.967 486.032 160.086 486.215 159.119 486.215ZM158.764 476.676C158.149 476.676 157.647 476.883 157.261 477.299C156.881 477.714 156.638 478.309 156.53 479.082H160.848V478.835C160.834 478.147 160.648 477.618 160.29 477.245C159.932 476.866 159.423 476.676 158.764 476.676Z" fill="#ECE7DD"/>
</svg>
