<svg width="188" height="800" viewBox="0 0 188 800" fill="none" xmlns="http://www.w3.org/2000/svg">
<rect x="0.914062" width="186.094" height="800" fill="#838D92"/>
<path d="M63.6587 745.226H59.7739V756H58.1885V745.226H54.312V743.914H63.6587V745.226ZM74.5161 750.347C74.5161 751.531 74.3169 752.566 73.9185 753.452C73.52 754.332 72.9556 755.004 72.2251 755.469C71.4946 755.934 70.6424 756.166 69.6685 756.166C68.7166 756.166 67.8727 755.934 67.1367 755.469C66.4007 754.998 65.828 754.332 65.4185 753.468C65.0145 752.599 64.807 751.595 64.7959 750.455V749.583C64.7959 748.421 64.9979 747.395 65.4019 746.504C65.8058 745.613 66.3758 744.932 67.1118 744.462C67.8534 743.986 68.7 743.748 69.6519 743.748C70.6203 743.748 71.4725 743.983 72.2085 744.454C72.95 744.918 73.52 745.596 73.9185 746.487C74.3169 747.373 74.5161 748.405 74.5161 749.583V750.347ZM72.9307 749.567C72.9307 748.134 72.6429 747.035 72.0674 746.271C71.4919 745.502 70.6867 745.118 69.6519 745.118C68.6447 745.118 67.8506 745.502 67.2695 746.271C66.694 747.035 66.3979 748.098 66.3813 749.459V750.347C66.3813 751.736 66.6719 752.829 67.2529 753.626C67.8395 754.417 68.6447 754.813 69.6685 754.813C70.6978 754.813 71.4946 754.439 72.0591 753.692C72.6235 752.94 72.9141 751.863 72.9307 750.463V749.567ZM80.7251 753.883L84.1782 743.914H85.9214L81.439 756H80.0278L75.5537 743.914H77.2886L80.7251 753.883ZM93.5913 752.846H88.5278L87.3906 756H85.7471L90.3623 743.914H91.7568L96.3804 756H94.7451L93.5913 752.846ZM89.0093 751.534H93.1182L91.0596 745.881L89.0093 751.534ZM91.8481 740.677H93.7075L91.4829 743.117H90.2461L91.8481 740.677ZM98.0073 756V743.914H101.958C103.27 743.914 104.255 744.185 104.914 744.728C105.578 745.27 105.91 746.072 105.91 747.135C105.91 747.699 105.749 748.2 105.428 748.637C105.107 749.069 104.67 749.404 104.117 749.642C104.77 749.824 105.284 750.173 105.661 750.688C106.042 751.197 106.233 751.805 106.233 752.514C106.233 753.598 105.882 754.451 105.179 755.07C104.476 755.69 103.483 756 102.199 756H98.0073ZM99.6011 750.347V754.697H102.232C102.974 754.697 103.558 754.506 103.984 754.124C104.416 753.737 104.631 753.205 104.631 752.53C104.631 751.075 103.84 750.347 102.257 750.347H99.6011ZM99.6011 749.069H102.008C102.706 749.069 103.262 748.895 103.677 748.546C104.097 748.197 104.308 747.724 104.308 747.126C104.308 746.462 104.114 745.981 103.727 745.682C103.339 745.378 102.75 745.226 101.958 745.226H99.6011V749.069ZM108.599 756V743.914H112.55C113.862 743.914 114.847 744.185 115.505 744.728C116.169 745.27 116.501 746.072 116.501 747.135C116.501 747.699 116.341 748.2 116.02 748.637C115.699 749.069 115.262 749.404 114.708 749.642C115.361 749.824 115.876 750.173 116.252 750.688C116.634 751.197 116.825 751.805 116.825 752.514C116.825 753.598 116.474 754.451 115.771 755.07C115.068 755.69 114.075 756 112.791 756H108.599ZM110.193 750.347V754.697H112.824C113.566 754.697 114.15 754.506 114.576 754.124C115.007 753.737 115.223 753.205 115.223 752.53C115.223 751.075 114.432 750.347 112.849 750.347H110.193ZM110.193 749.069H112.6C113.297 749.069 113.854 748.895 114.269 748.546C114.689 748.197 114.899 747.724 114.899 747.126C114.899 746.462 114.706 745.981 114.318 745.682C113.931 745.378 113.342 745.226 112.55 745.226H110.193V749.069ZM130.082 752.846H125.018L123.881 756H122.237L126.853 743.914H128.247L132.871 756H131.235L130.082 752.846ZM125.5 751.534H129.608L127.55 745.881L125.5 751.534ZM29.1855 771.501L27.9902 772.812V776H25.0767V763.914H27.9902V769.243L29.0029 767.708L31.6094 763.914H35.2119L31.1279 769.26L35.2119 776H31.7588L29.1855 771.501ZM39.0552 776H36.1499V763.914H39.0552V776ZM44.9072 763.914L47.605 772.323L50.2944 763.914H54.1294V776H51.2075V773.178L51.4897 767.4L48.5679 776H46.6421L43.7119 767.392L43.9941 773.178V776H41.0806V763.914H44.9072ZM65.4683 763.914V771.825C65.4683 772.721 65.2773 773.499 64.8955 774.157C64.5137 774.81 63.9658 775.308 63.252 775.651C62.5381 775.994 61.6942 776.166 60.7202 776.166C59.2482 776.166 58.0889 775.784 57.2422 775.021C56.3955 774.257 55.9639 773.211 55.9473 771.883V763.914H58.8774V771.941C58.9106 773.264 59.5249 773.925 60.7202 773.925C61.3234 773.925 61.7799 773.759 62.0898 773.427C62.3997 773.095 62.5547 772.555 62.5547 771.808V763.914H65.4683ZM76.7822 766.164H73.1548V776H70.2412V766.164H66.6802V763.914H76.7822V766.164ZM83.8877 773.742H79.895L79.1978 776H76.085L80.5176 763.914H83.2568L87.7227 776H84.5933L83.8877 773.742ZM80.5923 771.493H83.1904L81.8872 767.301L80.5923 771.493ZM97.1025 766.164H93.4751V776H90.5615V766.164H87.0005V763.914H97.1025V766.164ZM104.208 773.742H100.215L99.5181 776H96.4053L100.838 763.914H103.577L108.043 776H104.914L104.208 773.742ZM100.913 771.493H103.511L102.208 767.301L100.913 771.493ZM102.589 760.677H105.544L103.237 763.283H100.954L102.589 760.677ZM115.165 772.788C115.165 772.361 115.013 772.029 114.708 771.792C114.41 771.554 113.881 771.307 113.123 771.053C112.365 770.798 111.745 770.552 111.264 770.314C109.698 769.545 108.915 768.488 108.915 767.143C108.915 766.473 109.108 765.884 109.496 765.375C109.889 764.86 110.442 764.462 111.156 764.18C111.87 763.892 112.672 763.748 113.563 763.748C114.432 763.748 115.209 763.903 115.896 764.213C116.587 764.523 117.124 764.965 117.506 765.541C117.888 766.111 118.079 766.764 118.079 767.5H115.173C115.173 767.007 115.021 766.626 114.717 766.354C114.418 766.083 114.011 765.948 113.497 765.948C112.976 765.948 112.564 766.064 112.26 766.296C111.961 766.523 111.812 766.814 111.812 767.168C111.812 767.478 111.978 767.76 112.31 768.015C112.642 768.264 113.225 768.524 114.061 768.795C114.897 769.061 115.583 769.348 116.12 769.658C117.426 770.411 118.079 771.448 118.079 772.771C118.079 773.828 117.68 774.658 116.883 775.261C116.086 775.864 114.993 776.166 113.604 776.166C112.625 776.166 111.737 775.992 110.94 775.643C110.149 775.289 109.551 774.807 109.147 774.199C108.749 773.584 108.549 772.879 108.549 772.082H111.471C111.471 772.729 111.637 773.208 111.969 773.518C112.307 773.822 112.852 773.975 113.604 773.975C114.086 773.975 114.465 773.872 114.742 773.667C115.024 773.457 115.165 773.164 115.165 772.788ZM129.808 770.206C129.808 771.385 129.589 772.428 129.152 773.335C128.715 774.243 128.092 774.943 127.284 775.436C126.482 775.923 125.566 776.166 124.537 776.166C123.507 776.166 122.594 775.931 121.797 775.46C121 774.985 120.378 774.307 119.93 773.427C119.487 772.547 119.255 771.537 119.232 770.397V769.716C119.232 768.532 119.448 767.489 119.88 766.587C120.317 765.679 120.94 764.979 121.748 764.487C122.561 763.994 123.485 763.748 124.52 763.748C125.544 763.748 126.457 763.992 127.259 764.479C128.062 764.965 128.684 765.66 129.127 766.562C129.575 767.458 129.802 768.488 129.808 769.65V770.206ZM126.844 769.7C126.844 768.499 126.642 767.589 126.238 766.969C125.84 766.343 125.267 766.031 124.52 766.031C123.059 766.031 122.287 767.126 122.204 769.318L122.196 770.206C122.196 771.39 122.392 772.301 122.785 772.937C123.178 773.573 123.762 773.892 124.537 773.892C125.273 773.892 125.84 773.579 126.238 772.954C126.637 772.328 126.839 771.429 126.844 770.256V769.7ZM135.419 771.501L134.224 772.812V776H131.31V763.914H134.224V769.243L135.236 767.708L137.843 763.914H141.445L137.361 769.26L141.445 776H137.992L135.419 771.501ZM147.106 771.111H144.268V776H142.666V763.914H146.667C148.028 763.914 149.074 764.224 149.804 764.844C150.54 765.464 150.908 766.366 150.908 767.55C150.908 768.302 150.703 768.958 150.294 769.517C149.89 770.076 149.326 770.494 148.601 770.771L151.439 775.9V776H149.729L147.106 771.111ZM144.268 769.808H146.716C147.508 769.808 148.136 769.603 148.601 769.193C149.071 768.784 149.306 768.236 149.306 767.55C149.306 766.803 149.082 766.23 148.634 765.832C148.191 765.433 147.549 765.231 146.708 765.226H144.268V769.808ZM159.823 772.846H154.76L153.623 776H151.979L156.594 763.914H157.989L162.612 776H160.977L159.823 772.846ZM155.241 771.534H159.35L157.292 765.881L155.241 771.534Z" fill="#ECE7DD"/>
<path d="M8.41555 330H6.35305V314.359H8.41555V330ZM12.0052 318.377L12.0696 319.838C12.9576 318.721 14.1178 318.162 15.5501 318.162C18.0065 318.162 19.2454 319.548 19.2669 322.319V330H17.2796V322.309C17.2724 321.471 17.0791 320.851 16.6995 320.45C16.3271 320.049 15.7434 319.849 14.9485 319.849C14.304 319.849 13.7382 320.021 13.2513 320.364C12.7643 320.708 12.3847 321.159 12.1126 321.718V330H10.1253V318.377H12.0052ZM23.2002 315.562V318.377H25.3702V319.913H23.2002V327.121C23.2002 327.587 23.2969 327.938 23.4903 328.174C23.6836 328.403 24.0131 328.518 24.4786 328.518C24.7077 328.518 25.0228 328.475 25.4239 328.389V330C24.9011 330.143 24.3926 330.215 23.8985 330.215C23.0105 330.215 22.3409 329.946 21.8897 329.409C21.4385 328.872 21.2129 328.109 21.2129 327.121V319.913H19.0967V318.377H21.2129V315.562H23.2002ZM30.7645 330.215C29.1889 330.215 27.907 329.699 26.9188 328.668C25.9305 327.63 25.4363 326.244 25.4363 324.511V324.146C25.4363 322.993 25.6548 321.965 26.0916 321.062C26.5356 320.153 27.1515 319.444 27.9393 318.936C28.7342 318.42 29.5936 318.162 30.5174 318.162C32.0285 318.162 33.2029 318.66 34.0408 319.655C34.8787 320.651 35.2977 322.076 35.2977 323.931V324.758H27.4236C27.4523 325.904 27.7853 326.831 28.4227 327.54C29.0672 328.242 29.8836 328.593 30.8719 328.593C31.5737 328.593 32.1681 328.45 32.6551 328.163C33.1421 327.877 33.5682 327.497 33.9334 327.024L35.1473 327.97C34.1733 329.466 32.7124 330.215 30.7645 330.215ZM30.5174 319.795C29.7153 319.795 29.0421 320.089 28.4979 320.676C27.9536 321.256 27.617 322.072 27.4881 323.125H33.3104V322.975C33.2531 321.965 32.9809 321.184 32.4939 320.633C32.007 320.074 31.3481 319.795 30.5174 319.795ZM41.4654 320.16C41.1646 320.11 40.8388 320.085 40.4879 320.085C39.1845 320.085 38.3 320.64 37.8345 321.75V330H35.8472V318.377H37.7808L37.813 319.72C38.4647 318.681 39.3886 318.162 40.5845 318.162C40.9713 318.162 41.2649 318.212 41.4654 318.312V320.16ZM48.2884 330C48.1738 329.771 48.0807 329.363 48.0091 328.775C47.0853 329.735 45.9824 330.215 44.7005 330.215C43.5547 330.215 42.6129 329.893 41.8753 329.248C41.1448 328.596 40.7796 327.773 40.7796 326.777C40.7796 325.567 41.2379 324.629 42.1546 323.963C43.0784 323.29 44.3747 322.953 46.0433 322.953H47.9769V322.04C47.9769 321.345 47.7692 320.794 47.3538 320.386C46.9385 319.97 46.3262 319.763 45.5169 319.763C44.8079 319.763 44.2135 319.942 43.7337 320.3C43.2539 320.658 43.014 321.091 43.014 321.6H41.0159C41.0159 321.02 41.22 320.461 41.6282 319.924C42.0436 319.38 42.6022 318.95 43.304 318.635C44.013 318.32 44.79 318.162 45.6351 318.162C46.9743 318.162 48.0234 318.499 48.7825 319.172C49.5417 319.838 49.9355 320.758 49.9642 321.933V327.282C49.9642 328.349 50.1003 329.198 50.3724 329.828V330H48.2884ZM44.9906 328.485C45.6136 328.485 46.2044 328.324 46.763 328.002C47.3216 327.68 47.7262 327.261 47.9769 326.745V324.36H46.4193C43.9844 324.36 42.7669 325.073 42.7669 326.498C42.7669 327.121 42.9746 327.608 43.39 327.959C43.8053 328.31 44.3389 328.485 44.9906 328.485ZM54.5636 324.618L53.3175 325.918V330H51.3302V313.5H53.3175V323.479L54.3809 322.201L58.0011 318.377H60.418L55.8956 323.232L60.9444 330H58.6134L54.5636 324.618ZM63.4061 315.562V318.377H65.576V319.913H63.4061V327.121C63.4061 327.587 63.5028 327.938 63.6961 328.174C63.8895 328.403 64.2189 328.518 64.6844 328.518C64.9136 328.518 65.2287 328.475 65.6297 328.389V330C65.1069 330.143 64.5985 330.215 64.1043 330.215C63.2163 330.215 62.5467 329.946 62.0956 329.409C61.6444 328.872 61.4188 328.109 61.4188 327.121V319.913H59.3026V318.377H61.4188V315.562H63.4061ZM68.3063 330H66.3082V318.377H68.3063V330ZM68.3277 313.511H70.734L67.8551 316.669H66.2545L68.3277 313.511ZM73.6576 327.304L76.5365 318.377H78.5668L74.3988 330H72.8841L68.6732 318.377H70.7035L73.6576 327.304ZM85.66 324.618L84.4139 325.918V330H82.4266V313.5H84.4139V323.479L85.4774 322.201L89.0975 318.377H91.5145L86.9921 323.232L92.0409 330H89.7098L85.66 324.618ZM93.9655 330H91.9782V318.377H93.9655V330ZM91.817 315.294C91.817 314.972 91.9137 314.7 92.1071 314.478C92.3076 314.256 92.6012 314.145 92.9879 314.145C93.3746 314.145 93.6683 314.256 93.8688 314.478C94.0693 314.7 94.1696 314.972 94.1696 315.294C94.1696 315.616 94.0693 315.885 93.8688 316.1C93.6683 316.314 93.3746 316.422 92.9879 316.422C92.6012 316.422 92.3076 316.314 92.1071 316.1C91.9137 315.885 91.817 315.616 91.817 315.294ZM97.265 318.377L97.3188 319.666C98.171 318.663 99.3204 318.162 100.767 318.162C102.393 318.162 103.499 318.785 104.086 320.031C104.473 319.473 104.974 319.021 105.59 318.678C106.213 318.334 106.947 318.162 107.792 318.162C110.342 318.162 111.638 319.512 111.681 322.212V330H109.694V322.33C109.694 321.499 109.504 320.88 109.124 320.472C108.745 320.056 108.107 319.849 107.212 319.849C106.475 319.849 105.862 320.071 105.375 320.515C104.888 320.951 104.606 321.542 104.527 322.287V330H102.529V322.384C102.529 320.694 101.702 319.849 100.047 319.849C98.7439 319.849 97.8523 320.404 97.3725 321.514V330H95.3852V318.377H97.265ZM120.105 328.851C119.331 329.76 118.196 330.215 116.699 330.215C115.46 330.215 114.515 329.857 113.863 329.141C113.219 328.417 112.893 327.35 112.886 325.939V318.377H114.873V325.886C114.873 327.647 115.589 328.528 117.022 328.528C118.54 328.528 119.55 327.963 120.051 326.831V318.377H122.038V330H120.148L120.105 328.851ZM126.004 315.562V318.377H128.174V319.913H126.004V327.121C126.004 327.587 126.101 327.938 126.294 328.174C126.487 328.403 126.817 328.518 127.282 328.518C127.511 328.518 127.826 328.475 128.227 328.389V330C127.705 330.143 127.196 330.215 126.702 330.215C125.814 330.215 125.144 329.946 124.693 329.409C124.242 328.872 124.017 328.109 124.017 327.121V319.913H121.9V318.377H124.017V315.562H126.004ZM135.921 330C135.806 329.771 135.713 329.363 135.641 328.775C134.717 329.735 133.615 330.215 132.333 330.215C131.187 330.215 130.245 329.893 129.507 329.248C128.777 328.596 128.412 327.773 128.412 326.777C128.412 325.567 128.87 324.629 129.787 323.963C130.711 323.29 132.007 322.953 133.675 322.953H135.609V322.04C135.609 321.345 135.401 320.794 134.986 320.386C134.571 319.97 133.958 319.763 133.149 319.763C132.44 319.763 131.846 319.942 131.366 320.3C130.886 320.658 130.646 321.091 130.646 321.6H128.648C128.648 321.02 128.852 320.461 129.26 319.924C129.676 319.38 130.234 318.95 130.936 318.635C131.645 318.32 132.422 318.162 133.267 318.162C134.606 318.162 135.656 318.499 136.415 319.172C137.174 319.838 137.568 320.758 137.596 321.933V327.282C137.596 328.349 137.732 329.198 138.005 329.828V330H135.921ZM132.623 328.485C133.246 328.485 133.837 328.324 134.395 328.002C134.954 327.68 135.358 327.261 135.609 326.745V324.36H134.051C131.617 324.36 130.399 325.073 130.399 326.498C130.399 327.121 130.607 327.608 131.022 327.959C131.438 328.31 131.971 328.485 132.623 328.485ZM141.648 315.562V318.377H143.818V319.913H141.648V327.121C141.648 327.587 141.745 327.938 141.938 328.174C142.131 328.403 142.461 328.518 142.926 328.518C143.155 328.518 143.47 328.475 143.872 328.389V330C143.349 330.143 142.84 330.215 142.346 330.215C141.458 330.215 140.789 329.946 140.337 329.409C139.886 328.872 139.661 328.109 139.661 327.121V319.913H137.544V318.377H139.661V315.562H141.648ZM151.565 330C151.45 329.771 151.357 329.363 151.285 328.775C150.362 329.735 149.259 330.215 147.977 330.215C146.831 330.215 145.889 329.893 145.152 329.248C144.421 328.596 144.056 327.773 144.056 326.777C144.056 325.567 144.514 324.629 145.431 323.963C146.355 323.29 147.651 322.953 149.32 322.953H151.253V322.04C151.253 321.345 151.045 320.794 150.63 320.386C150.215 319.97 149.602 319.763 148.793 319.763C148.084 319.763 147.49 319.942 147.01 320.3C146.53 320.658 146.29 321.091 146.29 321.6H144.292C144.292 321.02 144.496 320.461 144.905 319.924C145.32 319.38 145.878 318.95 146.58 318.635C147.289 318.32 148.066 318.162 148.911 318.162C150.251 318.162 151.3 318.499 152.059 319.172C152.818 319.838 153.212 320.758 153.24 321.933V327.282C153.24 328.349 153.377 329.198 153.649 329.828V330H151.565ZM148.267 328.485C148.89 328.485 149.481 328.324 150.039 328.002C150.598 327.68 151.002 327.261 151.253 326.745V324.36H149.696C147.261 324.36 146.043 325.073 146.043 326.498C146.043 327.121 146.251 327.608 146.666 327.959C147.082 328.31 147.615 328.485 148.267 328.485ZM150.104 313.5H152.51L149.631 316.658H148.03L150.104 313.5ZM161.363 326.917C161.363 326.38 161.159 325.965 160.751 325.671C160.35 325.37 159.645 325.112 158.635 324.897C157.632 324.683 156.834 324.425 156.239 324.124C155.652 323.823 155.215 323.465 154.929 323.05C154.649 322.634 154.51 322.14 154.51 321.567C154.51 320.615 154.911 319.809 155.713 319.15C156.522 318.492 157.553 318.162 158.807 318.162C160.124 318.162 161.191 318.502 162.008 319.183C162.831 319.863 163.243 320.733 163.243 321.793H161.245C161.245 321.249 161.012 320.78 160.547 320.386C160.089 319.992 159.508 319.795 158.807 319.795C158.083 319.795 157.518 319.952 157.109 320.268C156.701 320.583 156.497 320.994 156.497 321.503C156.497 321.983 156.687 322.344 157.066 322.588C157.446 322.831 158.13 323.064 159.118 323.286C160.114 323.508 160.919 323.773 161.535 324.081C162.151 324.389 162.606 324.761 162.899 325.198C163.2 325.628 163.351 326.154 163.351 326.777C163.351 327.816 162.935 328.65 162.104 329.28C161.274 329.903 160.196 330.215 158.871 330.215C157.94 330.215 157.117 330.05 156.4 329.721C155.684 329.391 155.122 328.933 154.714 328.346C154.313 327.751 154.112 327.11 154.112 326.423H156.1C156.135 327.089 156.4 327.619 156.895 328.013C157.396 328.399 158.055 328.593 158.871 328.593C159.623 328.593 160.225 328.442 160.676 328.142C161.134 327.834 161.363 327.425 161.363 326.917ZM163.653 324.081C163.653 322.942 163.875 321.918 164.319 321.009C164.77 320.099 165.393 319.397 166.188 318.903C166.99 318.409 167.903 318.162 168.927 318.162C170.51 318.162 171.788 318.71 172.762 319.806C173.744 320.901 174.234 322.359 174.234 324.178V324.317C174.234 325.449 174.016 326.466 173.579 327.368C173.149 328.263 172.53 328.962 171.72 329.463C170.918 329.964 169.995 330.215 168.949 330.215C167.373 330.215 166.095 329.667 165.114 328.571C164.14 327.476 163.653 326.025 163.653 324.221V324.081ZM165.651 324.317C165.651 325.606 165.948 326.641 166.543 327.422C167.144 328.202 167.946 328.593 168.949 328.593C169.959 328.593 170.761 328.199 171.355 327.411C171.95 326.616 172.247 325.506 172.247 324.081C172.247 322.806 171.942 321.775 171.334 320.987C170.732 320.192 169.93 319.795 168.927 319.795C167.946 319.795 167.155 320.185 166.553 320.966C165.952 321.746 165.651 322.864 165.651 324.317ZM178.21 324.618L176.964 325.918V330H174.977V313.5H176.964V323.479L178.028 322.201L181.648 318.377H184.065L179.542 323.232L184.591 330H182.26L178.21 324.618ZM40.2945 356.215C38.719 356.215 37.4371 355.699 36.4488 354.668C35.4605 353.63 34.9664 352.244 34.9664 350.511V350.146C34.9664 348.993 35.1848 347.965 35.6216 347.062C36.0656 346.153 36.6815 345.444 37.4693 344.936C38.2642 344.42 39.1236 344.162 40.0474 344.162C41.5585 344.162 42.733 344.66 43.5709 345.655C44.4087 346.651 44.8277 348.076 44.8277 349.931V350.758H36.9537C36.9823 351.904 37.3153 352.831 37.9527 353.54C38.5972 354.242 39.4136 354.593 40.4019 354.593C41.1037 354.593 41.6981 354.45 42.1851 354.163C42.6721 353.877 43.0982 353.497 43.4634 353.024L44.6773 353.97C43.7033 355.466 42.2424 356.215 40.2945 356.215ZM40.0474 345.795C39.2453 345.795 38.5722 346.089 38.0279 346.676C37.4836 347.256 37.147 348.072 37.0181 349.125H42.8404V348.975C42.7831 347.965 42.511 347.184 42.024 346.633C41.537 346.074 40.8781 345.795 40.0474 345.795ZM41.0142 339.5H43.4205L40.5416 342.658H38.941L41.0142 339.5ZM52.1448 352.917C52.1448 352.38 51.9407 351.965 51.5325 351.671C51.1315 351.37 50.4261 351.112 49.4163 350.897C48.4137 350.683 47.6152 350.425 47.0208 350.124C46.4336 349.823 45.9967 349.465 45.7103 349.05C45.431 348.634 45.2913 348.14 45.2913 347.567C45.2913 346.615 45.6924 345.809 46.4945 345.15C47.3037 344.492 48.3349 344.162 49.5882 344.162C50.9059 344.162 51.973 344.502 52.7894 345.183C53.6129 345.863 54.0247 346.733 54.0247 347.793H52.0267C52.0267 347.249 51.7939 346.78 51.3284 346.386C50.8701 345.992 50.29 345.795 49.5882 345.795C48.8649 345.795 48.2991 345.952 47.8909 346.268C47.4827 346.583 47.2786 346.994 47.2786 347.503C47.2786 347.983 47.4684 348.344 47.848 348.588C48.2275 348.831 48.9114 349.064 49.8997 349.286C50.8952 349.508 51.7008 349.773 52.3167 350.081C52.9326 350.389 53.3874 350.761 53.681 351.198C53.9818 351.628 54.1321 352.154 54.1321 352.777C54.1321 353.816 53.7168 354.65 52.8861 355.28C52.0553 355.903 50.9775 356.215 49.6527 356.215C48.7217 356.215 47.8981 356.05 47.182 355.721C46.4658 355.391 45.9036 354.933 45.4954 354.346C45.0944 353.751 44.8939 353.11 44.8939 352.423H46.8812C46.917 353.089 47.182 353.619 47.6761 354.013C48.1774 354.399 48.8363 354.593 49.6527 354.593C50.4046 354.593 51.0062 354.442 51.4573 354.142C51.9157 353.834 52.1448 353.425 52.1448 352.917ZM60.8172 356H58.8299V344.377H60.8172V356ZM58.6688 341.294C58.6688 340.972 58.7655 340.7 58.9588 340.478C59.1593 340.256 59.453 340.145 59.8397 340.145C60.2264 340.145 60.52 340.256 60.7205 340.478C60.9211 340.7 61.0213 340.972 61.0213 341.294C61.0213 341.616 60.9211 341.885 60.7205 342.1C60.52 342.314 60.2264 342.422 59.8397 342.422C59.453 342.422 59.1593 342.314 58.9588 342.1C58.7655 341.885 58.6688 341.616 58.6688 341.294ZM64.1275 344.377L64.192 345.838C65.08 344.721 66.2402 344.162 67.6725 344.162C70.1288 344.162 71.3678 345.548 71.3893 348.319V356H69.402V348.309C69.3948 347.471 69.2014 346.851 68.8219 346.45C68.4495 346.049 67.8658 345.849 67.0709 345.849C66.4264 345.849 65.8606 346.021 65.3736 346.364C64.8867 346.708 64.5071 347.159 64.235 347.718V356H62.2477V344.377H64.1275ZM73.6039 356V345.913H71.767V344.377H73.6039V343.185C73.6039 341.938 73.9369 340.975 74.6029 340.295C75.2689 339.615 76.2106 339.274 77.4281 339.274C77.8864 339.274 78.3412 339.335 78.7923 339.457L78.6849 341.068C78.3483 341.004 77.9903 340.972 77.6107 340.972C76.9662 340.972 76.4684 341.161 76.1175 341.541C75.7666 341.913 75.5912 342.451 75.5912 343.152V344.377H78.0726V345.913H75.5912V356H73.6039ZM77.9884 350.081C77.9884 348.942 78.2104 347.918 78.6544 347.009C79.1056 346.099 79.7286 345.397 80.5236 344.903C81.3256 344.409 82.2387 344.162 83.2628 344.162C84.8455 344.162 86.1238 344.71 87.0978 345.806C88.0789 346.901 88.5695 348.359 88.5695 350.178V350.317C88.5695 351.449 88.351 352.466 87.9142 353.368C87.4845 354.263 86.865 354.962 86.0558 355.463C85.2537 355.964 84.3299 356.215 83.2843 356.215C81.7088 356.215 80.4305 355.667 79.4493 354.571C78.4754 353.476 77.9884 352.025 77.9884 350.221V350.081ZM79.9864 350.317C79.9864 351.606 80.2836 352.641 80.878 353.422C81.4796 354.202 82.2817 354.593 83.2843 354.593C84.2941 354.593 85.0961 354.199 85.6905 353.411C86.2849 352.616 86.5821 351.506 86.5821 350.081C86.5821 348.806 86.2778 347.775 85.6691 346.987C85.0675 346.192 84.2654 345.795 83.2628 345.795C82.2817 345.795 81.4903 346.185 80.8888 346.966C80.2872 347.746 79.9864 348.864 79.9864 350.317ZM88.829 350.092C88.829 348.28 89.2479 346.84 90.0858 345.773C90.9237 344.699 92.0337 344.162 93.4159 344.162C94.8339 344.162 95.9403 344.663 96.7352 345.666L96.8319 344.377H98.6473V355.721C98.6473 357.225 98.1997 358.41 97.3046 359.276C96.4165 360.143 95.2206 360.576 93.7167 360.576C92.8788 360.576 92.0588 360.397 91.2567 360.039C90.4546 359.681 89.8423 359.19 89.4198 358.567L90.451 357.375C91.3033 358.428 92.3453 358.954 93.577 358.954C94.5438 358.954 95.2958 358.682 95.8329 358.138C96.3772 357.593 96.6493 356.827 96.6493 355.839V354.84C95.8544 355.757 94.7694 356.215 93.3944 356.215C92.0337 356.215 90.9309 355.667 90.0858 354.571C89.2479 353.476 88.829 351.982 88.829 350.092ZM90.827 350.317C90.827 351.628 91.0956 352.659 91.6327 353.411C92.1698 354.156 92.9218 354.528 93.8885 354.528C95.1418 354.528 96.0621 353.959 96.6493 352.82V347.514C96.0406 346.404 95.1275 345.849 93.91 345.849C92.9432 345.849 92.1877 346.225 91.6434 346.977C91.0992 347.729 90.827 348.842 90.827 350.317ZM105.513 346.16C105.213 346.11 104.887 346.085 104.536 346.085C103.232 346.085 102.348 346.64 101.882 347.75V356H99.8952V344.377H101.829L101.861 345.72C102.513 344.681 103.436 344.162 104.632 344.162C105.019 344.162 105.313 344.212 105.513 344.312V346.16ZM112.336 356C112.222 355.771 112.129 355.363 112.057 354.775C111.133 355.735 110.03 356.215 108.748 356.215C107.603 356.215 106.661 355.893 105.923 355.248C105.193 354.596 104.828 353.773 104.828 352.777C104.828 351.567 105.286 350.629 106.203 349.963C107.126 349.29 108.423 348.953 110.091 348.953H112.025V348.04C112.025 347.345 111.817 346.794 111.402 346.386C110.986 345.97 110.374 345.763 109.565 345.763C108.856 345.763 108.261 345.942 107.782 346.3C107.302 346.658 107.062 347.091 107.062 347.6H105.064C105.064 347.02 105.268 346.461 105.676 345.924C106.092 345.38 106.65 344.95 107.352 344.635C108.061 344.32 108.838 344.162 109.683 344.162C111.022 344.162 112.071 344.499 112.83 345.172C113.59 345.838 113.983 346.758 114.012 347.933V353.282C114.012 354.349 114.148 355.198 114.42 355.828V356H112.336ZM109.038 354.485C109.662 354.485 110.252 354.324 110.811 354.002C111.37 353.68 111.774 353.261 112.025 352.745V350.36H110.467C108.032 350.36 106.815 351.073 106.815 352.498C106.815 353.121 107.023 353.608 107.438 353.959C107.853 354.31 108.387 354.485 109.038 354.485ZM116.033 356V345.913H114.196V344.377H116.033V343.389C116.033 342.092 116.402 341.083 117.14 340.359C117.885 339.636 118.934 339.274 120.287 339.274C121.089 339.274 122.103 339.493 123.327 339.93L122.994 341.605C122.099 341.247 121.247 341.068 120.438 341.068C119.585 341.068 118.97 341.262 118.59 341.648C118.218 342.028 118.031 342.601 118.031 343.367V344.377H120.405V345.913H118.031V356H116.033ZM124.316 356H122.318V344.377H124.316V356ZM129.033 350.618L127.787 351.918V356H125.8V339.5H127.787V349.479L128.851 348.201L132.471 344.377H134.888L130.365 349.232L135.414 356H133.083L129.033 350.618ZM142.355 356C142.241 355.771 142.147 355.363 142.076 354.775C141.152 355.735 140.049 356.215 138.767 356.215C137.621 356.215 136.68 355.893 135.942 355.248C135.212 354.596 134.846 353.773 134.846 352.777C134.846 351.567 135.305 350.629 136.221 349.963C137.145 349.29 138.441 348.953 140.11 348.953H142.044V348.04C142.044 347.345 141.836 346.794 141.421 346.386C141.005 345.97 140.393 345.763 139.584 345.763C138.875 345.763 138.28 345.942 137.8 346.3C137.321 346.658 137.081 347.091 137.081 347.6H135.083C135.083 347.02 135.287 346.461 135.695 345.924C136.11 345.38 136.669 344.95 137.371 344.635C138.08 344.32 138.857 344.162 139.702 344.162C141.041 344.162 142.09 344.499 142.849 345.172C143.608 345.838 144.002 346.758 144.031 347.933V353.282C144.031 354.349 144.167 355.198 144.439 355.828V356H142.355ZM139.057 354.485C139.68 354.485 140.271 354.324 140.83 354.002C141.388 353.68 141.793 353.261 142.044 352.745V350.36H140.486C138.051 350.36 136.834 351.073 136.834 352.498C136.834 353.121 137.041 353.608 137.457 353.959C137.872 354.31 138.406 354.485 139.057 354.485ZM140.894 339.5H143.3L140.422 342.658H138.821L140.894 339.5ZM148.63 350.618L147.384 351.918V356H145.397V339.5H147.384V349.479L148.448 348.201L152.068 344.377H154.485L149.962 349.232L155.011 356H152.68L148.63 350.618ZM46.1391 382C46.0245 381.771 45.9314 381.363 45.8598 380.775C44.936 381.735 43.8331 382.215 42.5512 382.215C41.4054 382.215 40.4636 381.893 39.726 381.248C38.9955 380.596 38.6303 379.773 38.6303 378.777C38.6303 377.567 39.0886 376.629 40.0053 375.963C40.9291 375.29 42.2254 374.953 43.894 374.953H45.8276V374.04C45.8276 373.345 45.6199 372.794 45.2045 372.386C44.7892 371.97 44.1769 371.763 43.3676 371.763C42.6586 371.763 42.0642 371.942 41.5844 372.3C41.1046 372.658 40.8647 373.091 40.8647 373.6H38.8666C38.8666 373.02 39.0707 372.461 39.4789 371.924C39.8943 371.38 40.4529 370.95 41.1547 370.635C41.8637 370.32 42.6407 370.162 43.4858 370.162C44.825 370.162 45.8741 370.499 46.6332 371.172C47.3924 371.838 47.7862 372.758 47.8149 373.933V379.282C47.8149 380.349 47.951 381.198 48.2231 381.828V382H46.1391ZM42.8413 380.485C43.4643 380.485 44.0551 380.324 44.6137 380.002C45.1723 379.68 45.5769 379.261 45.8276 378.745V376.36H44.27C41.8351 376.36 40.6176 377.073 40.6176 378.498C40.6176 379.121 40.8253 379.608 41.2407 379.959C41.656 380.31 42.1896 380.485 42.8413 380.485ZM57.1533 374.728L55.2412 376.715V382H53.1787V366.359H55.2412V374.094L62.1914 366.359H64.6836L58.5283 373.267L65.167 382H62.6963L57.1533 374.728ZM72.0759 382C71.9613 381.771 71.8682 381.363 71.7966 380.775C70.8728 381.735 69.7699 382.215 68.488 382.215C67.3422 382.215 66.4004 381.893 65.6628 381.248C64.9323 380.596 64.5671 379.773 64.5671 378.777C64.5671 377.567 65.0254 376.629 65.9421 375.963C66.8659 375.29 68.1622 374.953 69.8308 374.953H71.7644V374.04C71.7644 373.345 71.5567 372.794 71.1413 372.386C70.726 371.97 70.1137 371.763 69.3044 371.763C68.5954 371.763 68.001 371.942 67.5212 372.3C67.0414 372.658 66.8015 373.091 66.8015 373.6H64.8034C64.8034 373.02 65.0075 372.461 65.4157 371.924C65.8311 371.38 66.3897 370.95 67.0915 370.635C67.8005 370.32 68.5775 370.162 69.4226 370.162C70.7618 370.162 71.8109 370.499 72.57 371.172C73.3292 371.838 73.723 372.758 73.7517 373.933V379.282C73.7517 380.349 73.8877 381.198 74.1599 381.828V382H72.0759ZM68.778 380.485C69.4011 380.485 69.9919 380.324 70.5505 380.002C71.1091 379.68 71.5137 379.261 71.7644 378.745V376.36H70.2068C67.7719 376.36 66.5544 377.073 66.5544 378.498C66.5544 379.121 66.7621 379.608 67.1775 379.959C67.5928 380.31 68.1264 380.485 68.778 380.485ZM70.615 365.5H73.0212L70.1423 368.658H68.5417L70.615 365.5ZM80.7251 372.16C80.4243 372.11 80.0985 372.085 79.7475 372.085C78.4442 372.085 77.5597 372.64 77.0942 373.75V382H75.1069V370.377H77.0405L77.0727 371.72C77.7244 370.681 78.6483 370.162 79.8442 370.162C80.2309 370.162 80.5246 370.212 80.7251 370.312V372.16ZM90.6204 376.317C90.6204 378.086 90.2157 379.511 89.4065 380.593C88.5972 381.674 87.5015 382.215 86.1194 382.215C84.7086 382.215 83.5985 381.767 82.7893 380.872V386.469H80.802V370.377H82.6174L82.7141 371.666C83.5233 370.663 84.6477 370.162 86.0872 370.162C87.4836 370.162 88.5865 370.688 89.3957 371.741C90.2122 372.794 90.6204 374.258 90.6204 376.135V376.317ZM88.633 376.092C88.633 374.781 88.3538 373.746 87.7952 372.987C87.2366 372.228 86.4703 371.849 85.4963 371.849C84.2932 371.849 83.3909 372.382 82.7893 373.449V379.003C83.3837 380.063 84.2932 380.593 85.5178 380.593C86.4703 380.593 87.2258 380.217 87.7844 379.465C88.3502 378.706 88.633 377.581 88.633 376.092ZM98.5713 382C98.4567 381.771 98.3636 381.363 98.292 380.775C97.3682 381.735 96.2653 382.215 94.9834 382.215C93.8376 382.215 92.8958 381.893 92.1582 381.248C91.4277 380.596 91.0625 379.773 91.0625 378.777C91.0625 377.567 91.5208 376.629 92.4375 375.963C93.3613 375.29 94.6576 374.953 96.3262 374.953H98.2598V374.04C98.2598 373.345 98.0521 372.794 97.6367 372.386C97.2214 371.97 96.609 371.763 95.7998 371.763C95.0908 371.763 94.4964 371.942 94.0166 372.3C93.5368 372.658 93.2969 373.091 93.2969 373.6H91.2988C91.2988 373.02 91.5029 372.461 91.9111 371.924C92.3265 371.38 92.8851 370.95 93.5869 370.635C94.2959 370.32 95.0729 370.162 95.918 370.162C97.2572 370.162 98.3063 370.499 99.0654 371.172C99.8245 371.838 100.218 372.758 100.247 373.933V379.282C100.247 380.349 100.383 381.198 100.655 381.828V382H98.5713ZM95.2734 380.485C95.8965 380.485 96.4873 380.324 97.0459 380.002C97.6045 379.68 98.0091 379.261 98.2598 378.745V376.36H96.7021C94.2673 376.36 93.0498 377.073 93.0498 378.498C93.0498 379.121 93.2575 379.608 93.6729 379.959C94.0882 380.31 94.6217 380.485 95.2734 380.485ZM97.1104 365.5H99.5166L96.6377 368.658H95.0371L97.1104 365.5ZM104.299 367.562V370.377H106.469V371.913H104.299V379.121C104.299 379.587 104.395 379.938 104.589 380.174C104.782 380.403 105.111 380.518 105.577 380.518C105.806 380.518 106.121 380.475 106.522 380.389V382C105.999 382.143 105.491 382.215 104.997 382.215C104.109 382.215 103.439 381.946 102.988 381.409C102.537 380.872 102.311 380.109 102.311 379.121V371.913H100.195V370.377H102.311V367.562H104.299ZM111.175 376.167H105.933V374.545H111.175V376.167ZM113.347 371.784C114.228 370.703 115.374 370.162 116.784 370.162C119.241 370.162 120.48 371.548 120.501 374.319V382H118.514V374.309C118.507 373.471 118.313 372.851 117.934 372.45C117.561 372.049 116.978 371.849 116.183 371.849C115.538 371.849 114.973 372.021 114.486 372.364C113.999 372.708 113.619 373.159 113.347 373.718V382H111.36V365.5H113.347V371.784ZM128.893 382C128.778 381.771 128.685 381.363 128.613 380.775C127.689 381.735 126.587 382.215 125.305 382.215C124.159 382.215 123.217 381.893 122.48 381.248C121.749 380.596 121.384 379.773 121.384 378.777C121.384 377.567 121.842 376.629 122.759 375.963C123.683 375.29 124.979 374.953 126.648 374.953H128.581V374.04C128.581 373.345 128.373 372.794 127.958 372.386C127.543 371.97 126.93 371.763 126.121 371.763C125.412 371.763 124.818 371.942 124.338 372.3C123.858 372.658 123.618 373.091 123.618 373.6H121.62C121.62 373.02 121.824 372.461 122.232 371.924C122.648 371.38 123.206 370.95 123.908 370.635C124.617 370.32 125.394 370.162 126.239 370.162C127.578 370.162 128.628 370.499 129.387 371.172C130.146 371.838 130.54 372.758 130.568 373.933V379.282C130.568 380.349 130.704 381.198 130.977 381.828V382H128.893ZM125.595 380.485C126.218 380.485 126.809 380.324 127.367 380.002C127.926 379.68 128.33 379.261 128.581 378.745V376.36H127.023C124.589 376.36 123.371 377.073 123.371 378.498C123.371 379.121 123.579 379.608 123.994 379.959C124.41 380.31 124.943 380.485 125.595 380.485ZM133.793 380.378H140.593V382H131.365V380.539L137.778 372.021H131.462V370.377H140.27V371.784L133.793 380.378ZM148.253 382C148.139 381.771 148.046 381.363 147.974 380.775C147.05 381.735 145.947 382.215 144.666 382.215C143.52 382.215 142.578 381.893 141.84 381.248C141.11 380.596 140.745 379.773 140.745 378.777C140.745 377.567 141.203 376.629 142.12 375.963C143.044 375.29 144.34 374.953 146.008 374.953H147.942V374.04C147.942 373.345 147.734 372.794 147.319 372.386C146.904 371.97 146.291 371.763 145.482 371.763C144.773 371.763 144.179 371.942 143.699 372.3C143.219 372.658 142.979 373.091 142.979 373.6H140.981C140.981 373.02 141.185 372.461 141.593 371.924C142.009 371.38 142.567 370.95 143.269 370.635C143.978 370.32 144.755 370.162 145.6 370.162C146.939 370.162 147.989 370.499 148.748 371.172C149.507 371.838 149.901 372.758 149.929 373.933V379.282C149.929 380.349 150.065 381.198 150.337 381.828V382H148.253ZM144.956 380.485C145.579 380.485 146.169 380.324 146.728 380.002C147.287 379.68 147.691 379.261 147.942 378.745V376.36H146.384C143.949 376.36 142.732 377.073 142.732 378.498C142.732 379.121 142.94 379.608 143.355 379.959C143.77 380.31 144.304 380.485 144.956 380.485ZM21.6508 404.917C21.6508 404.38 21.4467 403.965 21.0385 403.671C20.6374 403.37 19.932 403.112 18.9223 402.897C17.9197 402.683 17.1212 402.425 16.5268 402.124C15.9395 401.823 15.5027 401.465 15.2162 401.05C14.9369 400.634 14.7973 400.14 14.7973 399.567C14.7973 398.615 15.1983 397.809 16.0004 397.15C16.8096 396.492 17.8409 396.162 19.0941 396.162C20.4118 396.162 21.4789 396.502 22.2953 397.183C23.1189 397.863 23.5307 398.733 23.5307 399.793H21.5326C21.5326 399.249 21.2999 398.78 20.8344 398.386C20.376 397.992 19.796 397.795 19.0941 397.795C18.3708 397.795 17.8051 397.952 17.3969 398.268C16.9887 398.583 16.7846 398.994 16.7846 399.503C16.7846 399.983 16.9743 400.344 17.3539 400.588C17.7335 400.831 18.4174 401.064 19.4057 401.286C20.4011 401.508 21.2068 401.773 21.8227 402.081C22.4385 402.389 22.8933 402.761 23.1869 403.198C23.4877 403.628 23.6381 404.154 23.6381 404.777C23.6381 405.816 23.2227 406.65 22.392 407.28C21.5613 407.903 20.4835 408.215 19.1586 408.215C18.2276 408.215 17.404 408.05 16.6879 407.721C15.9717 407.391 15.4096 406.933 15.0014 406.346C14.6003 405.751 14.3998 405.11 14.3998 404.423H16.3871C16.4229 405.089 16.6879 405.619 17.182 406.013C17.6833 406.399 18.3422 406.593 19.1586 406.593C19.9105 406.593 20.5121 406.442 20.9633 406.142C21.4216 405.834 21.6508 405.425 21.6508 404.917ZM27.1632 393.562V396.377H29.3332V397.913H27.1632V405.121C27.1632 405.587 27.2599 405.938 27.4533 406.174C27.6466 406.403 27.9761 406.518 28.4416 406.518C28.6707 406.518 28.9858 406.475 29.3869 406.389V408C28.8641 408.143 28.3556 408.215 27.8615 408.215C26.9735 408.215 26.3039 407.946 25.8527 407.409C25.4015 406.872 25.1759 406.109 25.1759 405.121V397.913H23.0597V396.377H25.1759V393.562H27.1632ZM37.08 408C36.9654 407.771 36.8723 407.363 36.8007 406.775C35.8769 407.735 34.774 408.215 33.4921 408.215C32.3463 408.215 31.4045 407.893 30.6669 407.248C29.9364 406.596 29.5712 405.773 29.5712 404.777C29.5712 403.567 30.0295 402.629 30.9462 401.963C31.87 401.29 33.1663 400.953 34.8349 400.953H36.7685V400.04C36.7685 399.345 36.5608 398.794 36.1454 398.386C35.7301 397.97 35.1178 397.763 34.3085 397.763C33.5995 397.763 33.0051 397.942 32.5253 398.3C32.0455 398.658 31.8056 399.091 31.8056 399.6H29.8075C29.8075 399.02 30.0116 398.461 30.4198 397.924C30.8352 397.38 31.3938 396.95 32.0956 396.635C32.8046 396.32 33.5816 396.162 34.4267 396.162C35.7659 396.162 36.815 396.499 37.5741 397.172C38.3333 397.838 38.7271 398.758 38.7558 399.933V405.282C38.7558 406.349 38.8918 407.198 39.164 407.828V408H37.08ZM33.7821 406.485C34.4052 406.485 34.996 406.324 35.5546 406.002C36.1132 405.68 36.5178 405.261 36.7685 404.745V402.36H35.2109C32.776 402.36 31.5585 403.073 31.5585 404.498C31.5585 405.121 31.7662 405.608 32.1816 405.959C32.5969 406.31 33.1305 406.485 33.7821 406.485ZM42.8073 393.562V396.377H44.9772V397.913H42.8073V405.121C42.8073 405.587 42.904 405.938 43.0973 406.174C43.2907 406.403 43.6201 406.518 44.0856 406.518C44.3148 406.518 44.6299 406.475 45.0309 406.389V408C44.5082 408.143 43.9997 408.215 43.5055 408.215C42.6175 408.215 41.9479 407.946 41.4968 407.409C41.0456 406.872 40.82 406.109 40.82 405.121V397.913H38.7038V396.377H40.82V393.562H42.8073ZM47.7075 408H45.7202V396.377H47.7075V408ZM45.559 393.294C45.559 392.972 45.6557 392.7 45.8491 392.478C46.0496 392.256 46.3432 392.145 46.7299 392.145C47.1166 392.145 47.4103 392.256 47.6108 392.478C47.8113 392.7 47.9116 392.972 47.9116 393.294C47.9116 393.616 47.8113 393.885 47.6108 394.1C47.4103 394.314 47.1166 394.422 46.7299 394.422C46.3432 394.422 46.0496 394.314 45.8491 394.1C45.6557 393.885 45.559 393.616 45.559 393.294ZM55.9055 404.917C55.9055 404.38 55.7014 403.965 55.2932 403.671C54.8921 403.37 54.1867 403.112 53.177 402.897C52.1743 402.683 51.3758 402.425 50.7814 402.124C50.1942 401.823 49.7574 401.465 49.4709 401.05C49.1916 400.634 49.052 400.14 49.052 399.567C49.052 398.615 49.453 397.809 50.2551 397.15C51.0643 396.492 52.0956 396.162 53.3488 396.162C54.6665 396.162 55.7336 396.502 56.55 397.183C57.3736 397.863 57.7854 398.733 57.7854 399.793H55.7873C55.7873 399.249 55.5546 398.78 55.0891 398.386C54.6307 397.992 54.0507 397.795 53.3488 397.795C52.6255 397.795 52.0598 397.952 51.6516 398.268C51.2434 398.583 51.0393 398.994 51.0393 399.503C51.0393 399.983 51.229 400.344 51.6086 400.588C51.9882 400.831 52.6721 401.064 53.6604 401.286C54.6558 401.508 55.4615 401.773 56.0773 402.081C56.6932 402.389 57.148 402.761 57.4416 403.198C57.7424 403.628 57.8928 404.154 57.8928 404.777C57.8928 405.816 57.4774 406.65 56.6467 407.28C55.8159 407.903 54.7382 408.215 53.4133 408.215C52.4823 408.215 51.6587 408.05 50.9426 407.721C50.2264 407.391 49.6643 406.933 49.2561 406.346C48.855 405.751 48.6545 405.11 48.6545 404.423H50.6418C50.6776 405.089 50.9426 405.619 51.4367 406.013C51.938 406.399 52.5969 406.593 53.4133 406.593C54.1652 406.593 54.7668 406.442 55.218 406.142C55.6763 405.834 55.9055 405.425 55.9055 404.917ZM60.5908 406.378H67.3906V408H58.163V406.539L64.5761 398.021H58.2597V396.377H67.0683V397.784L60.5908 406.378ZM70.572 393.562V396.377H72.7419V397.913H70.572V405.121C70.572 405.587 70.6687 405.938 70.862 406.174C71.0554 406.403 71.3848 406.518 71.8503 406.518C72.0795 406.518 72.3946 406.475 72.7956 406.389V408C72.2728 408.143 71.7644 408.215 71.2702 408.215C70.3822 408.215 69.7126 407.946 69.2614 407.409C68.8103 406.872 68.5847 406.109 68.5847 405.121V397.913H66.4685V396.377H68.5847V393.562H70.572ZM75.4721 408H73.4848V396.377H75.4721V408ZM73.3237 393.294C73.3237 392.972 73.4204 392.7 73.6137 392.478C73.8143 392.256 74.1079 392.145 74.4946 392.145C74.8813 392.145 75.1749 392.256 75.3755 392.478C75.576 392.7 75.6762 392.972 75.6762 393.294C75.6762 393.616 75.576 393.885 75.3755 394.1C75.1749 394.314 74.8813 394.422 74.4946 394.422C74.1079 394.422 73.8143 394.314 73.6137 394.1C73.4204 393.885 73.3237 393.616 73.3237 393.294ZM80.1467 402.618L78.9006 403.918V408H76.9133V391.5H78.9006V401.479L79.9641 400.201L83.5842 396.377H86.0012L81.4787 401.232L86.5276 408H84.1965L80.1467 402.618ZM93.4688 408C93.3542 407.771 93.2611 407.363 93.1895 406.775C92.2656 407.735 91.1628 408.215 89.8809 408.215C88.735 408.215 87.7933 407.893 87.0557 407.248C86.3252 406.596 85.96 405.773 85.96 404.777C85.96 403.567 86.4183 402.629 87.335 401.963C88.2588 401.29 89.555 400.953 91.2236 400.953H93.1572V400.04C93.1572 399.345 92.9495 398.794 92.5342 398.386C92.1188 397.97 91.5065 397.763 90.6973 397.763C89.9883 397.763 89.3939 397.942 88.9141 398.3C88.4342 398.658 88.1943 399.091 88.1943 399.6H86.1963C86.1963 399.02 86.4004 398.461 86.8086 397.924C87.224 397.38 87.7826 396.95 88.4844 396.635C89.1934 396.32 89.9704 396.162 90.8154 396.162C92.1546 396.162 93.2038 396.499 93.9629 397.172C94.722 397.838 95.1159 398.758 95.1445 399.933V405.282C95.1445 406.349 95.2806 407.198 95.5527 407.828V408H93.4688ZM90.1709 406.485C90.7939 406.485 91.3848 406.324 91.9434 406.002C92.502 405.68 92.9066 405.261 93.1572 404.745V402.36H91.5996C89.1647 402.36 87.9473 403.073 87.9473 404.498C87.9473 405.121 88.1549 405.608 88.5703 405.959C88.9857 406.31 89.5192 406.485 90.1709 406.485ZM92.0078 391.5H94.4141L91.5352 394.658H89.9346L92.0078 391.5ZM99.7439 402.618L98.4978 403.918V408H96.5105V391.5H98.4978V401.479L99.5613 400.201L103.181 396.377H105.598L101.076 401.232L106.125 408H103.794L99.7439 402.618ZM116.763 408C116.648 407.771 116.555 407.363 116.484 406.775C115.56 407.735 114.457 408.215 113.175 408.215C112.029 408.215 111.088 407.893 110.35 407.248C109.619 406.596 109.254 405.773 109.254 404.777C109.254 403.567 109.713 402.629 110.629 401.963C111.553 401.29 112.849 400.953 114.518 400.953H116.451V400.04C116.451 399.345 116.244 398.794 115.828 398.386C115.413 397.97 114.801 397.763 113.991 397.763C113.283 397.763 112.688 397.942 112.208 398.3C111.728 398.658 111.489 399.091 111.489 399.6H109.491C109.491 399.02 109.695 398.461 110.103 397.924C110.518 397.38 111.077 396.95 111.779 396.635C112.488 396.32 113.265 396.162 114.11 396.162C115.449 396.162 116.498 396.499 117.257 397.172C118.016 397.838 118.41 398.758 118.439 399.933V405.282C118.439 406.349 118.575 407.198 118.847 407.828V408H116.763ZM113.465 406.485C114.088 406.485 114.679 406.324 115.238 406.002C115.796 405.68 116.201 405.261 116.451 404.745V402.36H114.894C112.459 402.36 111.241 403.073 111.241 404.498C111.241 405.121 111.449 405.608 111.865 405.959C112.28 406.31 112.813 406.485 113.465 406.485ZM119.311 402.092C119.311 400.309 119.733 398.876 120.578 397.795C121.423 396.706 122.53 396.162 123.897 396.162C125.258 396.162 126.336 396.628 127.131 397.559V391.5H129.118V408H127.292L127.195 406.754C126.4 407.728 125.294 408.215 123.876 408.215C122.53 408.215 121.43 407.663 120.578 406.561C119.733 405.458 119.311 404.018 119.311 402.242V402.092ZM121.298 402.317C121.298 403.635 121.57 404.666 122.114 405.411C122.659 406.156 123.411 406.528 124.37 406.528C125.631 406.528 126.551 405.963 127.131 404.831V399.492C126.536 398.396 125.623 397.849 124.392 397.849C123.418 397.849 122.659 398.225 122.114 398.977C121.57 399.729 121.298 400.842 121.298 402.317ZM137.628 408C137.513 407.771 137.42 407.363 137.348 406.775C136.425 407.735 135.322 408.215 134.04 408.215C132.894 408.215 131.952 407.893 131.215 407.248C130.484 406.596 130.119 405.773 130.119 404.777C130.119 403.567 130.577 402.629 131.494 401.963C132.418 401.29 133.714 400.953 135.383 400.953H137.316V400.04C137.316 399.345 137.109 398.794 136.693 398.386C136.278 397.97 135.665 397.763 134.856 397.763C134.147 397.763 133.553 397.942 133.073 398.3C132.593 398.658 132.353 399.091 132.353 399.6H130.355C130.355 399.02 130.559 398.461 130.968 397.924C131.383 397.38 131.942 396.95 132.643 396.635C133.352 396.32 134.129 396.162 134.974 396.162C136.314 396.162 137.363 396.499 138.122 397.172C138.881 397.838 139.275 398.758 139.304 399.933V405.282C139.304 406.349 139.44 407.198 139.712 407.828V408H137.628ZM134.33 406.485C134.953 406.485 135.544 406.324 136.102 406.002C136.661 405.68 137.066 405.261 137.316 404.745V402.36H135.759C133.324 402.36 132.106 403.073 132.106 404.498C132.106 405.121 132.314 405.608 132.729 405.959C133.145 406.31 133.678 406.485 134.33 406.485ZM143.355 393.562V396.377H145.525V397.913H143.355V405.121C143.355 405.587 143.452 405.938 143.645 406.174C143.838 406.403 144.168 406.518 144.633 406.518C144.863 406.518 145.178 406.475 145.579 406.389V408C145.056 408.143 144.547 408.215 144.053 408.215C143.165 408.215 142.496 407.946 142.044 407.409C141.593 406.872 141.368 406.109 141.368 405.121V397.913H139.252V396.377H141.368V393.562H143.355ZM153.272 408C153.157 407.771 153.064 407.363 152.992 406.775C152.069 407.735 150.966 408.215 149.684 408.215C148.538 408.215 147.596 407.893 146.859 407.248C146.128 406.596 145.763 405.773 145.763 404.777C145.763 403.567 146.221 402.629 147.138 401.963C148.062 401.29 149.358 400.953 151.027 400.953H152.96V400.04C152.96 399.345 152.753 398.794 152.337 398.386C151.922 397.97 151.31 397.763 150.5 397.763C149.791 397.763 149.197 397.942 148.717 398.3C148.237 398.658 147.997 399.091 147.997 399.6H145.999C145.999 399.02 146.203 398.461 146.612 397.924C147.027 397.38 147.586 396.95 148.287 396.635C148.996 396.32 149.773 396.162 150.618 396.162C151.958 396.162 153.007 396.499 153.766 397.172C154.525 397.838 154.919 398.758 154.948 399.933V405.282C154.948 406.349 155.084 407.198 155.356 407.828V408H153.272ZM149.974 406.485C150.597 406.485 151.188 406.324 151.746 406.002C152.305 405.68 152.71 405.261 152.96 404.745V402.36H151.403C148.968 402.36 147.75 403.073 147.75 404.498C147.75 405.121 147.958 405.608 148.373 405.959C148.789 406.31 149.322 406.485 149.974 406.485ZM158.462 408H156.475V396.377H158.462V408ZM156.314 393.294C156.314 392.972 156.41 392.7 156.604 392.478C156.804 392.256 157.098 392.145 157.484 392.145C157.871 392.145 158.165 392.256 158.365 392.478C158.566 392.7 158.666 392.972 158.666 393.294C158.666 393.616 158.566 393.885 158.365 394.1C158.165 394.314 157.871 394.422 157.484 394.422C157.098 394.422 156.804 394.314 156.604 394.1C156.41 393.885 156.314 393.616 156.314 393.294ZM165.511 398.16C165.21 398.11 164.884 398.085 164.533 398.085C163.23 398.085 162.345 398.64 161.88 399.75V408H159.892V396.377H161.826L161.858 397.72C162.51 396.681 163.434 396.162 164.63 396.162C165.016 396.162 165.31 396.212 165.511 396.312V398.16ZM172.334 408C172.219 407.771 172.126 407.363 172.054 406.775C171.13 407.735 170.028 408.215 168.746 408.215C167.6 408.215 166.658 407.893 165.921 407.248C165.19 406.596 164.825 405.773 164.825 404.777C164.825 403.567 165.283 402.629 166.2 401.963C167.124 401.29 168.42 400.953 170.088 400.953H172.022V400.04C172.022 399.345 171.814 398.794 171.399 398.386C170.984 397.97 170.371 397.763 169.562 397.763C168.853 397.763 168.259 397.942 167.779 398.3C167.299 398.658 167.059 399.091 167.059 399.6H165.061C165.061 399.02 165.265 398.461 165.673 397.924C166.089 397.38 166.647 396.95 167.349 396.635C168.058 396.32 168.835 396.162 169.68 396.162C171.019 396.162 172.069 396.499 172.828 397.172C173.587 397.838 173.981 398.758 174.009 399.933V405.282C174.009 406.349 174.145 407.198 174.418 407.828V408H172.334ZM169.036 406.485C169.659 406.485 170.25 406.324 170.808 406.002C171.367 405.68 171.771 405.261 172.022 404.745V402.36H170.464C168.03 402.36 166.812 403.073 166.812 404.498C166.812 405.121 167.02 405.608 167.435 405.959C167.851 406.31 168.384 406.485 169.036 406.485ZM11.6498 434.215C10.0743 434.215 8.79238 433.699 7.8041 432.668C6.81582 431.63 6.32168 430.244 6.32168 428.511V428.146C6.32168 426.993 6.5401 425.965 6.97695 425.062C7.42096 424.153 8.03685 423.444 8.82461 422.936C9.61953 422.42 10.4789 422.162 11.4027 422.162C12.9138 422.162 14.0883 422.66 14.9262 423.655C15.7641 424.651 16.183 426.076 16.183 427.931V428.758H8.30898C8.33763 429.904 8.67064 430.831 9.30801 431.54C9.95254 432.242 10.7689 432.593 11.7572 432.593C12.459 432.593 13.0534 432.45 13.5404 432.163C14.0274 431.877 14.4535 431.497 14.8187 431.024L16.0326 431.97C15.0587 433.466 13.5977 434.215 11.6498 434.215ZM11.4027 423.795C10.6006 423.795 9.92747 424.089 9.3832 424.676C8.83893 425.256 8.50234 426.072 8.37344 427.125H14.1957V426.975C14.1384 425.965 13.8663 425.184 13.3793 424.633C12.8923 424.074 12.2335 423.795 11.4027 423.795ZM12.3695 417.5H14.7758L11.8969 420.658H10.2963L12.3695 417.5ZM23.5002 430.917C23.5002 430.38 23.2961 429.965 22.8878 429.671C22.4868 429.37 21.7814 429.112 20.7716 428.897C19.769 428.683 18.9705 428.425 18.3761 428.124C17.7889 427.823 17.352 427.465 17.0656 427.05C16.7863 426.634 16.6466 426.14 16.6466 425.567C16.6466 424.615 17.0477 423.809 17.8498 423.15C18.659 422.492 19.6903 422.162 20.9435 422.162C22.2612 422.162 23.3283 422.502 24.1447 423.183C24.9683 423.863 25.38 424.733 25.38 425.793H23.382C23.382 425.249 23.1492 424.78 22.6837 424.386C22.2254 423.992 21.6453 423.795 20.9435 423.795C20.2202 423.795 19.6545 423.952 19.2462 424.268C18.838 424.583 18.6339 424.994 18.6339 425.503C18.6339 425.983 18.8237 426.344 19.2033 426.588C19.5828 426.831 20.2668 427.064 21.255 427.286C22.2505 427.508 23.0561 427.773 23.672 428.081C24.2879 428.389 24.7427 428.761 25.0363 429.198C25.3371 429.628 25.4875 430.154 25.4875 430.777C25.4875 431.816 25.0721 432.65 24.2414 433.28C23.4106 433.903 22.3328 434.215 21.008 434.215C20.077 434.215 19.2534 434.05 18.5373 433.721C17.8211 433.391 17.2589 432.933 16.8507 432.346C16.4497 431.751 16.2492 431.11 16.2492 430.423H18.2365C18.2723 431.089 18.5373 431.619 19.0314 432.013C19.5327 432.399 20.1916 432.593 21.008 432.593C21.7599 432.593 22.3615 432.442 22.8127 432.142C23.271 431.834 23.5002 431.425 23.5002 430.917ZM37.1891 434C37.0746 433.771 36.9815 433.363 36.9098 432.775C35.986 433.735 34.8831 434.215 33.6012 434.215C32.4554 434.215 31.5137 433.893 30.7761 433.248C30.0456 432.596 29.6803 431.773 29.6803 430.777C29.6803 429.567 30.1387 428.629 31.0553 427.963C31.9792 427.29 33.2754 426.953 34.944 426.953H36.8776V426.04C36.8776 425.345 36.6699 424.794 36.2546 424.386C35.8392 423.97 35.2269 423.763 34.4177 423.763C33.7087 423.763 33.1143 423.942 32.6345 424.3C32.1546 424.658 31.9147 425.091 31.9147 425.6H29.9167C29.9167 425.02 30.1208 424.461 30.529 423.924C30.9443 423.38 31.5029 422.95 32.2048 422.635C32.9137 422.32 33.6908 422.162 34.5358 422.162C35.875 422.162 36.9242 422.499 37.6833 423.172C38.4424 423.838 38.8363 424.758 38.8649 425.933V431.282C38.8649 432.349 39.001 433.198 39.2731 433.828V434H37.1891ZM33.8913 432.485C34.5143 432.485 35.1052 432.324 35.6637 432.002C36.2223 431.68 36.627 431.261 36.8776 430.745V428.36H35.32C32.8851 428.36 31.6677 429.073 31.6677 430.498C31.6677 431.121 31.8753 431.608 32.2907 431.959C32.7061 432.31 33.2396 432.485 33.8913 432.485ZM56.2492 434H54.176L46.302 421.947V434H44.2287V418.359H46.302L54.1975 430.466V418.359H56.2492V434ZM62.664 434.215C61.0885 434.215 59.8066 433.699 58.8183 432.668C57.83 431.63 57.3359 430.244 57.3359 428.511V428.146C57.3359 426.993 57.5543 425.965 57.9912 425.062C58.4352 424.153 59.0511 423.444 59.8388 422.936C60.6337 422.42 61.4931 422.162 62.417 422.162C63.928 422.162 65.1025 422.66 65.9404 423.655C66.7783 424.651 67.1972 426.076 67.1972 427.931V428.758H59.3232C59.3518 429.904 59.6849 430.831 60.3222 431.54C60.9668 432.242 61.7832 432.593 62.7714 432.593C63.4733 432.593 64.0677 432.45 64.5546 432.163C65.0416 431.877 65.4677 431.497 65.833 431.024L67.0468 431.97C66.0729 433.466 64.6119 434.215 62.664 434.215ZM62.417 423.795C61.6149 423.795 60.9417 424.089 60.3974 424.676C59.8531 425.256 59.5166 426.072 59.3877 427.125H65.2099V426.975C65.1526 425.965 64.8805 425.184 64.3935 424.633C63.9065 424.074 63.2477 423.795 62.417 423.795ZM69.6159 422.377L69.6696 423.666C70.5219 422.663 71.6713 422.162 73.1179 422.162C74.7435 422.162 75.85 422.785 76.4372 424.031C76.8239 423.473 77.3252 423.021 77.9411 422.678C78.5642 422.334 79.2982 422.162 80.1433 422.162C82.6928 422.162 83.989 423.512 84.032 426.212V434H82.0446V426.33C82.0446 425.499 81.8549 424.88 81.4753 424.472C81.0958 424.056 80.4584 423.849 79.5632 423.849C78.8256 423.849 78.2133 424.071 77.7263 424.515C77.2393 424.951 76.9564 425.542 76.8777 426.287V434H74.8796V426.384C74.8796 424.694 74.0525 423.849 72.3982 423.849C71.0948 423.849 70.2032 424.404 69.7234 425.514V434H67.7361V422.377H69.6159ZM87.1489 432.378H93.9487V434H84.7212V432.539L91.1343 424.021H84.8178V422.377H93.6264V423.784L87.1489 432.378ZM99.0852 434.215C97.5097 434.215 96.2278 433.699 95.2395 432.668C94.2512 431.63 93.7571 430.244 93.7571 428.511V428.146C93.7571 426.993 93.9755 425.965 94.4123 425.062C94.8564 424.153 95.4722 423.444 96.26 422.936C97.0549 422.42 97.9143 422.162 98.8381 422.162C100.349 422.162 101.524 422.66 102.362 423.655C103.199 424.651 103.618 426.076 103.618 427.931V428.758H95.7444C95.773 429.904 96.106 430.831 96.7434 431.54C97.3879 432.242 98.2043 432.593 99.1926 432.593C99.8944 432.593 100.489 432.45 100.976 432.163C101.463 431.877 101.889 431.497 102.254 431.024L103.468 431.97C102.494 433.466 101.033 434.215 99.0852 434.215ZM98.8381 423.795C98.036 423.795 97.3629 424.089 96.8186 424.676C96.2743 425.256 95.9377 426.072 95.8088 427.125H101.631V426.975C101.574 425.965 101.302 425.184 100.815 424.633C100.328 424.074 99.6689 423.795 98.8381 423.795ZM106.864 419.562V422.377H109.034V423.913H106.864V431.121C106.864 431.587 106.961 431.938 107.154 432.174C107.348 432.403 107.677 432.518 108.143 432.518C108.372 432.518 108.687 432.475 109.088 432.389V434C108.565 434.143 108.057 434.215 107.562 434.215C106.674 434.215 106.005 433.946 105.554 433.409C105.103 432.872 104.877 432.109 104.877 431.121V423.913H102.761V422.377H104.877V419.562H106.864ZM116.373 430.917C116.373 430.38 116.169 429.965 115.761 429.671C115.359 429.37 114.654 429.112 113.644 428.897C112.642 428.683 111.843 428.425 111.249 428.124C110.662 427.823 110.225 427.465 109.938 427.05C109.659 426.634 109.519 426.14 109.519 425.567C109.519 424.615 109.92 423.809 110.722 423.15C111.532 422.492 112.563 422.162 113.816 422.162C115.134 422.162 116.201 422.502 117.017 423.183C117.841 423.863 118.253 424.733 118.253 425.793H116.255C116.255 425.249 116.022 424.78 115.556 424.386C115.098 423.992 114.518 423.795 113.816 423.795C113.093 423.795 112.527 423.952 112.119 424.268C111.711 424.583 111.507 424.994 111.507 425.503C111.507 425.983 111.696 426.344 112.076 426.588C112.455 426.831 113.139 427.064 114.128 427.286C115.123 427.508 115.929 427.773 116.545 428.081C117.161 428.389 117.615 428.761 117.909 429.198C118.21 429.628 118.36 430.154 118.36 430.777C118.36 431.816 117.945 432.65 117.114 433.28C116.283 433.903 115.205 434.215 113.881 434.215C112.95 434.215 112.126 434.05 111.41 433.721C110.694 433.391 110.132 432.933 109.723 432.346C109.322 431.751 109.122 431.11 109.122 430.423H111.109C111.145 431.089 111.41 431.619 111.904 432.013C112.405 432.399 113.064 432.593 113.881 432.593C114.633 432.593 115.234 432.442 115.685 432.142C116.144 431.834 116.373 431.425 116.373 430.917ZM121.885 419.562V422.377H124.055V423.913H121.885V431.121C121.885 431.587 121.982 431.938 122.175 432.174C122.369 432.403 122.698 432.518 123.164 432.518C123.393 432.518 123.708 432.475 124.109 432.389V434C123.586 434.143 123.078 434.215 122.584 434.215C121.695 434.215 121.026 433.946 120.575 433.409C120.124 432.872 119.898 432.109 119.898 431.121V423.913H117.782V422.377H119.898V419.562H121.885ZM130.244 424.16C129.944 424.11 129.618 424.085 129.267 424.085C127.963 424.085 127.079 424.64 126.614 425.75V434H124.626V422.377H126.56L126.592 423.72C127.244 422.681 128.168 422.162 129.364 422.162C129.75 422.162 130.044 422.212 130.244 422.312V424.16ZM137.067 434C136.953 433.771 136.86 433.363 136.788 432.775C135.864 433.735 134.761 434.215 133.48 434.215C132.334 434.215 131.392 433.893 130.654 433.248C129.924 432.596 129.559 431.773 129.559 430.777C129.559 429.567 130.017 428.629 130.934 427.963C131.857 427.29 133.154 426.953 134.822 426.953H136.756V426.04C136.756 425.345 136.548 424.794 136.133 424.386C135.717 423.97 135.105 423.763 134.296 423.763C133.587 423.763 132.993 423.942 132.513 424.3C132.033 424.658 131.793 425.091 131.793 425.6H129.795C129.795 425.02 129.999 424.461 130.407 423.924C130.823 423.38 131.381 422.95 132.083 422.635C132.792 422.32 133.569 422.162 134.414 422.162C135.753 422.162 136.802 422.499 137.562 423.172C138.321 423.838 138.715 424.758 138.743 425.933V431.282C138.743 432.349 138.879 433.198 139.151 433.828V434H137.067ZM133.77 432.485C134.393 432.485 134.983 432.324 135.542 432.002C136.101 431.68 136.505 431.261 136.756 430.745V428.36H135.198C132.763 428.36 131.546 429.073 131.546 430.498C131.546 431.121 131.754 431.608 132.169 431.959C132.584 432.31 133.118 432.485 133.77 432.485ZM142.795 419.562V422.377H144.965V423.913H142.795V431.121C142.795 431.587 142.891 431.938 143.085 432.174C143.278 432.403 143.608 432.518 144.073 432.518C144.302 432.518 144.617 432.475 145.018 432.389V434C144.496 434.143 143.987 434.215 143.493 434.215C142.605 434.215 141.935 433.946 141.484 433.409C141.033 432.872 140.807 432.109 140.807 431.121V423.913H138.691V422.377H140.807V419.562H142.795ZM150.359 434.215C148.783 434.215 147.502 433.699 146.513 432.668C145.525 431.63 145.031 430.244 145.031 428.511V428.146C145.031 426.993 145.249 425.965 145.686 425.062C146.13 424.153 146.746 423.444 147.534 422.936C148.329 422.42 149.188 422.162 150.112 422.162C151.623 422.162 152.797 422.66 153.635 423.655C154.473 424.651 154.892 426.076 154.892 427.931V428.758H147.018C147.047 429.904 147.38 430.831 148.017 431.54C148.662 432.242 149.478 432.593 150.466 432.593C151.168 432.593 151.763 432.45 152.25 432.163C152.737 431.877 153.163 431.497 153.528 431.024L154.742 431.97C153.768 433.466 152.307 434.215 150.359 434.215ZM150.112 423.795C149.31 423.795 148.637 424.089 148.092 424.676C147.548 425.256 147.211 426.072 147.083 427.125H152.905V426.975C152.848 425.965 152.575 425.184 152.088 424.633C151.601 424.074 150.943 423.795 150.112 423.795ZM151.079 417.5H153.485L150.606 420.658H149.005L151.079 417.5ZM154.969 428.092C154.969 426.28 155.388 424.84 156.226 423.773C157.064 422.699 158.174 422.162 159.556 422.162C160.974 422.162 162.08 422.663 162.875 423.666L162.972 422.377H164.787V433.721C164.787 435.225 164.34 436.41 163.445 437.276C162.557 438.143 161.361 438.576 159.857 438.576C159.019 438.576 158.199 438.397 157.397 438.039C156.595 437.681 155.982 437.19 155.56 436.567L156.591 435.375C157.443 436.428 158.485 436.954 159.717 436.954C160.684 436.954 161.436 436.682 161.973 436.138C162.517 435.593 162.789 434.827 162.789 433.839V432.84C161.994 433.757 160.909 434.215 159.534 434.215C158.174 434.215 157.071 433.667 156.226 432.571C155.388 431.476 154.969 429.982 154.969 428.092ZM156.967 428.317C156.967 429.628 157.236 430.659 157.773 431.411C158.31 432.156 159.062 432.528 160.029 432.528C161.282 432.528 162.202 431.959 162.789 430.82V425.514C162.181 424.404 161.268 423.849 160.05 423.849C159.083 423.849 158.328 424.225 157.784 424.977C157.239 425.729 156.967 426.842 156.967 428.317ZM168.194 434H166.207V422.377H168.194V434ZM166.046 419.294C166.046 418.972 166.143 418.7 166.336 418.478C166.537 418.256 166.83 418.145 167.217 418.145C167.604 418.145 167.897 418.256 168.098 418.478C168.298 418.7 168.399 418.972 168.399 419.294C168.399 419.616 168.298 419.885 168.098 420.1C167.897 420.314 167.604 420.422 167.217 420.422C166.83 420.422 166.537 420.314 166.336 420.1C166.143 419.885 166.046 419.616 166.046 419.294ZM176.801 434C176.686 433.771 176.593 433.363 176.521 432.775C175.598 433.735 174.495 434.215 173.213 434.215C172.067 434.215 171.125 433.893 170.388 433.248C169.657 432.596 169.292 431.773 169.292 430.777C169.292 429.567 169.75 428.629 170.667 427.963C171.591 427.29 172.887 426.953 174.556 426.953H176.489V426.04C176.489 425.345 176.281 424.794 175.866 424.386C175.451 423.97 174.838 423.763 174.029 423.763C173.32 423.763 172.726 423.942 172.246 424.3C171.766 424.658 171.526 425.091 171.526 425.6H169.528C169.528 425.02 169.732 424.461 170.14 423.924C170.556 423.38 171.114 422.95 171.816 422.635C172.525 422.32 173.302 422.162 174.147 422.162C175.487 422.162 176.536 422.499 177.295 423.172C178.054 423.838 178.448 424.758 178.476 425.933V431.282C178.476 432.349 178.612 433.198 178.885 433.828V434H176.801ZM173.503 432.485C174.126 432.485 174.717 432.324 175.275 432.002C175.834 431.68 176.238 431.261 176.489 430.745V428.36H174.931C172.497 428.36 171.279 429.073 171.279 430.498C171.279 431.121 171.487 431.608 171.902 431.959C172.318 432.31 172.851 432.485 173.503 432.485ZM181.991 434H180.004V422.377H181.991V434ZM179.842 419.294C179.842 418.972 179.939 418.7 180.132 418.478C180.333 418.256 180.627 418.145 181.013 418.145C181.4 418.145 181.694 418.256 181.894 418.478C182.095 418.7 182.195 418.972 182.195 419.294C182.195 419.616 182.095 419.885 181.894 420.1C181.694 420.314 181.4 420.422 181.013 420.422C180.627 420.422 180.333 420.314 180.132 420.1C179.939 419.885 179.842 419.616 179.842 419.294ZM45.6879 452.728L43.7758 454.715V460H41.7133V444.359H43.7758V452.094L50.726 444.359H53.2182L47.0629 451.267L53.7016 460H51.2309L45.6879 452.728ZM60.3527 458.851C59.5793 459.76 58.4442 460.215 56.9475 460.215C55.7085 460.215 54.7632 459.857 54.1115 459.141C53.467 458.417 53.1411 457.35 53.134 455.939V448.377H55.1213V455.886C55.1213 457.647 55.8374 458.528 57.2697 458.528C58.788 458.528 59.7977 457.963 60.299 456.831V448.377H62.2863V460H60.3957L60.3527 458.851ZM66.2519 445.562V448.377H68.4218V449.913H66.2519V457.121C66.2519 457.587 66.3486 457.938 66.542 458.174C66.7353 458.403 67.0647 458.518 67.5302 458.518C67.7594 458.518 68.0745 458.475 68.4755 458.389V460C67.9528 460.143 67.4443 460.215 66.9502 460.215C66.0621 460.215 65.3925 459.946 64.9414 459.409C64.4902 458.872 64.2646 458.109 64.2646 457.121V449.913H62.1484V448.377H64.2646V445.562H66.2519ZM76.1687 460C76.0541 459.771 75.961 459.363 75.8894 458.775C74.9655 459.735 73.8627 460.215 72.5808 460.215C71.4349 460.215 70.4932 459.893 69.7556 459.248C69.0251 458.596 68.6599 457.773 68.6599 456.777C68.6599 455.567 69.1182 454.629 70.0349 453.963C70.9587 453.29 72.2549 452.953 73.9236 452.953H75.8571V452.04C75.8571 451.345 75.6495 450.794 75.2341 450.386C74.8187 449.97 74.2064 449.763 73.3972 449.763C72.6882 449.763 72.0938 449.942 71.614 450.3C71.1342 450.658 70.8943 451.091 70.8943 451.6H68.8962C68.8962 451.02 69.1003 450.461 69.5085 449.924C69.9239 449.38 70.4825 448.95 71.1843 448.635C71.8933 448.32 72.6703 448.162 73.5154 448.162C74.8545 448.162 75.9037 448.499 76.6628 449.172C77.4219 449.838 77.8158 450.758 77.8445 451.933V457.282C77.8445 458.349 77.9805 459.198 78.2527 459.828V460H76.1687ZM72.8708 458.485C73.4939 458.485 74.0847 458.324 74.6433 458.002C75.2019 457.68 75.6065 457.261 75.8571 456.745V454.36H74.2995C71.8646 454.36 70.6472 455.073 70.6472 456.498C70.6472 457.121 70.8549 457.608 71.2702 457.959C71.6856 458.31 72.2191 458.485 72.8708 458.485ZM81.896 445.562V448.377H84.0659V449.913H81.896V457.121C81.896 457.587 81.9927 457.938 82.186 458.174C82.3794 458.403 82.7088 458.518 83.1743 458.518C83.4035 458.518 83.7186 458.475 84.1196 458.389V460C83.5968 460.143 83.0884 460.215 82.5942 460.215C81.7062 460.215 81.0366 459.946 80.5854 459.409C80.1343 458.872 79.9087 458.109 79.9087 457.121V449.913H77.7925V448.377H79.9087V445.562H81.896ZM83.8957 454.081C83.8957 452.942 84.1177 451.918 84.5618 451.009C85.0129 450.099 85.636 449.397 86.4309 448.903C87.233 448.409 88.1461 448.162 89.1702 448.162C90.7528 448.162 92.0312 448.71 93.0051 449.806C93.9862 450.901 94.4768 452.359 94.4768 454.178V454.317C94.4768 455.449 94.2584 456.466 93.8215 457.368C93.3918 458.263 92.7724 458.962 91.9631 459.463C91.161 459.964 90.2372 460.215 89.1916 460.215C87.6161 460.215 86.3378 459.667 85.3567 458.571C84.3827 457.476 83.8957 456.025 83.8957 454.221V454.081ZM85.8938 454.317C85.8938 455.606 86.191 456.641 86.7854 457.422C87.387 458.202 88.189 458.593 89.1916 458.593C90.2014 458.593 91.0035 458.199 91.5979 457.411C92.1923 456.616 92.4895 455.506 92.4895 454.081C92.4895 452.806 92.1851 451.775 91.5764 450.987C90.9748 450.192 90.1728 449.795 89.1702 449.795C88.189 449.795 87.3977 450.185 86.7961 450.966C86.1946 451.746 85.8938 452.864 85.8938 454.317ZM90.0725 443.5H92.4788L89.5998 446.658H87.9993L90.0725 443.5ZM97.3682 460H95.3809V448.377H97.3682V460ZM95.2197 445.294C95.2197 444.972 95.3164 444.7 95.5098 444.478C95.7103 444.256 96.0039 444.145 96.3906 444.145C96.7773 444.145 97.071 444.256 97.2715 444.478C97.472 444.7 97.5723 444.972 97.5723 445.294C97.5723 445.616 97.472 445.885 97.2715 446.1C97.071 446.314 96.7773 446.422 96.3906 446.422C96.0039 446.422 95.7103 446.314 95.5098 446.1C95.3164 445.885 95.2197 445.616 95.2197 445.294ZM100.678 448.377L100.743 449.838C101.631 448.721 102.791 448.162 104.223 448.162C106.68 448.162 107.919 449.548 107.94 452.319V460H105.953V452.309C105.946 451.471 105.752 450.851 105.373 450.45C105 450.049 104.417 449.849 103.622 449.849C102.977 449.849 102.412 450.021 101.925 450.364C101.438 450.708 101.058 451.159 100.786 451.718V460H98.7986V448.377H100.678ZM111.874 445.562V448.377H114.043V449.913H111.874V457.121C111.874 457.587 111.97 457.938 112.164 458.174C112.357 458.403 112.686 458.518 113.152 458.518C113.381 458.518 113.696 458.475 114.097 458.389V460C113.574 460.143 113.066 460.215 112.572 460.215C111.684 460.215 111.014 459.946 110.563 459.409C110.112 458.872 109.886 458.109 109.886 457.121V449.913H107.77V448.377H109.886V445.562H111.874ZM119.438 460.215C117.862 460.215 116.58 459.699 115.592 458.668C114.604 457.63 114.11 456.244 114.11 454.511V454.146C114.11 452.993 114.328 451.965 114.765 451.062C115.209 450.153 115.825 449.444 116.613 448.936C117.408 448.42 118.267 448.162 119.191 448.162C120.702 448.162 121.876 448.66 122.714 449.655C123.552 450.651 123.971 452.076 123.971 453.931V454.758H116.097C116.126 455.904 116.459 456.831 117.096 457.54C117.741 458.242 118.557 458.593 119.545 458.593C120.247 458.593 120.841 458.45 121.328 458.163C121.815 457.877 122.241 457.497 122.607 457.024L123.821 457.97C122.847 459.466 121.386 460.215 119.438 460.215ZM119.191 449.795C118.389 449.795 117.715 450.089 117.171 450.676C116.627 451.256 116.29 452.072 116.161 453.125H121.984V452.975C121.926 451.965 121.654 451.184 121.167 450.633C120.68 450.074 120.021 449.795 119.191 449.795ZM120.158 443.5H122.564L119.685 446.658H118.084L120.158 443.5ZM126.39 458.378H133.189V460H123.962V458.539L130.375 450.021H124.059V448.377H132.867V449.784L126.39 458.378ZM138.326 460.215C136.75 460.215 135.469 459.699 134.48 458.668C133.492 457.63 132.998 456.244 132.998 454.511V454.146C132.998 452.993 133.216 451.965 133.653 451.062C134.097 450.153 134.713 449.444 135.501 448.936C136.296 448.42 137.155 448.162 138.079 448.162C139.59 448.162 140.764 448.66 141.602 449.655C142.44 450.651 142.859 452.076 142.859 453.931V454.758H134.985C135.014 455.904 135.347 456.831 135.984 457.54C136.629 458.242 137.445 458.593 138.433 458.593C139.135 458.593 139.73 458.45 140.217 458.163C140.704 457.877 141.13 457.497 141.495 457.024L142.709 457.97C141.735 459.466 140.274 460.215 138.326 460.215ZM138.079 449.795C137.277 449.795 136.604 450.089 136.059 450.676C135.515 451.256 135.179 452.072 135.05 453.125H140.872V452.975C140.815 451.965 140.542 451.184 140.055 450.633C139.568 450.074 138.91 449.795 138.079 449.795ZM146.105 445.562V448.377H148.275V449.913H146.105V457.121C146.105 457.587 146.202 457.938 146.395 458.174C146.588 458.403 146.918 458.518 147.383 458.518C147.613 458.518 147.928 458.475 148.329 458.389V460C147.806 460.143 147.297 460.215 146.803 460.215C145.915 460.215 145.246 459.946 144.794 459.409C144.343 458.872 144.118 458.109 144.118 457.121V449.913H142.002V448.377H144.118V445.562H146.105ZM25.5841 480.618L24.338 481.918V486H22.3507V469.5H24.338V479.479L25.4015 478.201L29.0216 474.377H31.4386L26.9162 479.232L31.965 486H29.6339L25.5841 480.618ZM38.9062 484.851C38.1327 485.76 36.9976 486.215 35.5009 486.215C34.262 486.215 33.3166 485.857 32.665 485.141C32.0204 484.417 31.6946 483.35 31.6874 481.939V474.377H33.6747V481.886C33.6747 483.647 34.3909 484.528 35.8232 484.528C37.3414 484.528 38.3512 483.963 38.8525 482.831V474.377H40.8398V486H38.9491L38.9062 484.851ZM44.8053 471.562V474.377H46.9753V475.913H44.8053V483.121C44.8053 483.587 44.902 483.938 45.0954 484.174C45.2887 484.403 45.6182 484.518 46.0837 484.518C46.3128 484.518 46.6279 484.475 47.029 484.389V486C46.5062 486.143 45.9977 486.215 45.5036 486.215C44.6156 486.215 43.946 485.946 43.4948 485.409C43.0436 484.872 42.818 484.109 42.818 483.121V475.913H40.7018V474.377H42.818V471.562H44.8053ZM54.7221 486C54.6075 485.771 54.5144 485.363 54.4428 484.775C53.519 485.735 52.4161 486.215 51.1342 486.215C49.9884 486.215 49.0467 485.893 48.309 485.248C47.5786 484.596 47.2133 483.773 47.2133 482.777C47.2133 481.567 47.6717 480.629 48.5883 479.963C49.5121 479.29 50.8084 478.953 52.477 478.953H54.4106V478.04C54.4106 477.345 54.2029 476.794 53.7875 476.386C53.3722 475.97 52.7599 475.763 51.9506 475.763C51.2416 475.763 50.6472 475.942 50.1674 476.3C49.6876 476.658 49.4477 477.091 49.4477 477.6H47.4496C47.4496 477.02 47.6537 476.461 48.062 475.924C48.4773 475.38 49.0359 474.95 49.7377 474.635C50.4467 474.32 51.2237 474.162 52.0688 474.162C53.408 474.162 54.4571 474.499 55.2162 475.172C55.9754 475.838 56.3692 476.758 56.3979 477.933V483.282C56.3979 484.349 56.534 485.198 56.8061 485.828V486H54.7221ZM51.4243 484.485C52.0473 484.485 52.6381 484.324 53.1967 484.002C53.7553 483.68 54.1599 483.261 54.4106 482.745V480.36H52.853C50.4181 480.36 49.2006 481.073 49.2006 482.498C49.2006 483.121 49.4083 483.608 49.8237 483.959C50.239 484.31 50.7726 484.485 51.4243 484.485ZM60.4494 471.562V474.377H62.6193V475.913H60.4494V483.121C60.4494 483.587 60.5461 483.938 60.7394 484.174C60.9328 484.403 61.2622 484.518 61.7277 484.518C61.9569 484.518 62.272 484.475 62.673 484.389V486C62.1503 486.143 61.6418 486.215 61.1477 486.215C60.2596 486.215 59.59 485.946 59.1389 485.409C58.6877 484.872 58.4621 484.109 58.4621 483.121V475.913H56.3459V474.377H58.4621V471.562H60.4494ZM70.3662 486C70.2516 485.771 70.1585 485.363 70.0869 484.775C69.163 485.735 68.0602 486.215 66.7783 486.215C65.6324 486.215 64.6907 485.893 63.9531 485.248C63.2226 484.596 62.8574 483.773 62.8574 482.777C62.8574 481.567 63.3157 480.629 64.2324 479.963C65.1562 479.29 66.4524 478.953 68.1211 478.953H70.0546V478.04C70.0546 477.345 69.847 476.794 69.4316 476.386C69.0162 475.97 68.4039 475.763 67.5947 475.763C66.8857 475.763 66.2913 475.942 65.8115 476.3C65.3317 476.658 65.0918 477.091 65.0918 477.6H63.0937C63.0937 477.02 63.2978 476.461 63.706 475.924C64.1214 475.38 64.68 474.95 65.3818 474.635C66.0908 474.32 66.8678 474.162 67.7128 474.162C69.052 474.162 70.1012 474.499 70.8603 475.172C71.6194 475.838 72.0133 476.758 72.042 477.933V483.282C72.042 484.349 72.178 485.198 72.4502 485.828V486H70.3662ZM67.0683 484.485C67.6914 484.485 68.2822 484.324 68.8408 484.002C69.3994 483.68 69.804 483.261 70.0546 482.745V480.36H68.497C66.0621 480.36 64.8447 481.073 64.8447 482.498C64.8447 483.121 65.0524 483.608 65.4677 483.959C65.8831 484.31 66.4166 484.485 67.0683 484.485ZM68.9052 469.5H71.3115L68.4326 472.658H66.832L68.9052 469.5ZM80.1648 482.917C80.1648 482.38 79.9607 481.965 79.5525 481.671C79.1514 481.37 78.446 481.112 77.4362 480.897C76.4336 480.683 75.6351 480.425 75.0407 480.124C74.4535 479.823 74.0167 479.465 73.7302 479.05C73.4509 478.634 73.3112 478.14 73.3112 477.567C73.3112 476.615 73.7123 475.809 74.5144 475.15C75.3236 474.492 76.3549 474.162 77.6081 474.162C78.9258 474.162 79.9929 474.502 80.8093 475.183C81.6329 475.863 82.0446 476.733 82.0446 477.793H80.0466C80.0466 477.249 79.8139 476.78 79.3484 476.386C78.89 475.992 78.3099 475.795 77.6081 475.795C76.8848 475.795 76.3191 475.952 75.9109 476.268C75.5027 476.583 75.2986 476.994 75.2986 477.503C75.2986 477.983 75.4883 478.344 75.8679 478.588C76.2474 478.831 76.9314 479.064 77.9196 479.286C78.9151 479.508 79.7208 479.773 80.3366 480.081C80.9525 480.389 81.4073 480.761 81.7009 481.198C82.0017 481.628 82.1521 482.154 82.1521 482.777C82.1521 483.816 81.7367 484.65 80.906 485.28C80.0752 485.903 78.9974 486.215 77.6726 486.215C76.7416 486.215 75.918 486.05 75.2019 485.721C74.4857 485.391 73.9236 484.933 73.5154 484.346C73.1143 483.751 72.9138 483.11 72.9138 482.423H74.9011C74.9369 483.089 75.2019 483.619 75.696 484.013C76.1973 484.399 76.8562 484.593 77.6726 484.593C78.4245 484.593 79.0261 484.442 79.4773 484.142C79.9356 483.834 80.1648 483.425 80.1648 482.917ZM90.1567 486C90.0421 485.771 89.949 485.363 89.8774 484.775C88.9536 485.735 87.8507 486.215 86.5688 486.215C85.423 486.215 84.4813 485.893 83.7436 485.248C83.0132 484.596 82.6479 483.773 82.6479 482.777C82.6479 481.567 83.1063 480.629 84.0229 479.963C84.9468 479.29 86.243 478.953 87.9116 478.953H89.8452V478.04C89.8452 477.345 89.6375 476.794 89.2221 476.386C88.8068 475.97 88.1945 475.763 87.3852 475.763C86.6762 475.763 86.0818 475.942 85.602 476.3C85.1222 476.658 84.8823 477.091 84.8823 477.6H82.8843C82.8843 477.02 83.0884 476.461 83.4966 475.924C83.9119 475.38 84.4705 474.95 85.1723 474.635C85.8813 474.32 86.6583 474.162 87.5034 474.162C88.8426 474.162 89.8917 474.499 90.6509 475.172C91.41 475.838 91.8039 476.758 91.8325 477.933V483.282C91.8325 484.349 91.9686 485.198 92.2407 485.828V486H90.1567ZM86.8589 484.485C87.4819 484.485 88.0727 484.324 88.6313 484.002C89.1899 483.68 89.5945 483.261 89.8452 482.745V480.36H88.2876C85.8527 480.36 84.6352 481.073 84.6352 482.498C84.6352 483.121 84.8429 483.608 85.2583 483.959C85.6736 484.31 86.2072 484.485 86.8589 484.485ZM95.3469 486H93.3596V474.377H95.3469V486ZM93.1985 471.294C93.1985 470.972 93.2952 470.7 93.4885 470.478C93.689 470.256 93.9827 470.145 94.3694 470.145C94.7561 470.145 95.0497 470.256 95.2502 470.478C95.4507 470.7 95.551 470.972 95.551 471.294C95.551 471.616 95.4507 471.885 95.2502 472.1C95.0497 472.314 94.7561 472.422 94.3694 472.422C93.9827 472.422 93.689 472.314 93.4885 472.1C93.2952 471.885 93.1985 471.616 93.1985 471.294ZM102.396 476.16C102.095 476.11 101.769 476.085 101.418 476.085C100.115 476.085 99.2301 476.64 98.7646 477.75V486H96.7773V474.377H98.7109L98.7432 475.72C99.3949 474.681 100.319 474.162 101.515 474.162C101.901 474.162 102.195 474.212 102.396 474.312V476.16ZM109.219 486C109.104 485.771 109.011 485.363 108.939 484.775C108.015 485.735 106.913 486.215 105.631 486.215C104.485 486.215 103.543 485.893 102.805 485.248C102.075 484.596 101.71 483.773 101.71 482.777C101.71 481.567 102.168 480.629 103.085 479.963C104.009 479.29 105.305 478.953 106.973 478.953H108.907V478.04C108.907 477.345 108.699 476.794 108.284 476.386C107.869 475.97 107.256 475.763 106.447 475.763C105.738 475.763 105.144 475.942 104.664 476.3C104.184 476.658 103.944 477.091 103.944 477.6H101.946C101.946 477.02 102.15 476.461 102.558 475.924C102.974 475.38 103.532 474.95 104.234 474.635C104.943 474.32 105.72 474.162 106.565 474.162C107.904 474.162 108.954 474.499 109.713 475.172C110.472 475.838 110.866 476.758 110.894 477.933V483.282C110.894 484.349 111.03 485.198 111.302 485.828V486H109.219ZM105.921 484.485C106.544 484.485 107.135 484.324 107.693 484.002C108.252 483.68 108.656 483.261 108.907 482.745V480.36H107.349C104.914 480.36 103.697 481.073 103.697 482.498C103.697 483.121 103.905 483.608 104.32 483.959C104.735 484.31 105.269 484.485 105.921 484.485ZM120.77 486.215C119.194 486.215 117.912 485.699 116.924 484.668C115.936 483.63 115.442 482.244 115.442 480.511V480.146C115.442 478.993 115.66 477.965 116.097 477.062C116.541 476.153 117.157 475.444 117.945 474.936C118.74 474.42 119.599 474.162 120.523 474.162C122.034 474.162 123.208 474.66 124.046 475.655C124.884 476.651 125.303 478.076 125.303 479.931V480.758H117.429C117.458 481.904 117.791 482.831 118.428 483.54C119.073 484.242 119.889 484.593 120.877 484.593C121.579 484.593 122.173 484.45 122.66 484.163C123.147 483.877 123.574 483.497 123.939 483.024L125.153 483.97C124.179 485.466 122.718 486.215 120.77 486.215ZM120.523 475.795C119.721 475.795 119.047 476.089 118.503 476.676C117.959 477.256 117.622 478.072 117.493 479.125H123.316V478.975C123.258 477.965 122.986 477.184 122.499 476.633C122.012 476.074 121.353 475.795 120.523 475.795ZM121.49 469.5H123.896L121.017 472.658H119.416L121.49 469.5ZM135.671 480.317C135.671 482.086 135.266 483.511 134.457 484.593C133.648 485.674 132.552 486.215 131.17 486.215C129.759 486.215 128.649 485.767 127.84 484.872V490.469H125.853V474.377H127.668L127.765 475.666C128.574 474.663 129.698 474.162 131.138 474.162C132.534 474.162 133.637 474.688 134.446 475.741C135.263 476.794 135.671 478.258 135.671 480.135V480.317ZM133.684 480.092C133.684 478.781 133.404 477.746 132.846 476.987C132.287 476.228 131.521 475.849 130.547 475.849C129.344 475.849 128.441 476.382 127.84 477.449V483.003C128.434 484.063 129.344 484.593 130.568 484.593C131.521 484.593 132.276 484.217 132.835 483.465C133.401 482.706 133.684 481.581 133.684 480.092ZM138.605 486H136.607V474.377H138.605V486ZM138.627 469.511H141.033L138.154 472.669H136.554L138.627 469.511ZM142.818 471.562V474.377H144.988V475.913H142.818V483.121C142.818 483.587 142.915 483.938 143.108 484.174C143.301 484.403 143.631 484.518 144.096 484.518C144.325 484.518 144.641 484.475 145.042 484.389V486C144.519 486.143 144.01 486.215 143.516 486.215C142.628 486.215 141.959 485.946 141.507 485.409C141.056 484.872 140.831 484.109 140.831 483.121V475.913H138.714V474.377H140.831V471.562H142.818ZM149.394 483.304L152.273 474.377H154.303L150.135 486H148.62L144.409 474.377H146.44L149.394 483.304ZM159.128 486.215C157.552 486.215 156.271 485.699 155.282 484.668C154.294 483.63 153.8 482.244 153.8 480.511V480.146C153.8 478.993 154.018 477.965 154.455 477.062C154.899 476.153 155.515 475.444 156.303 474.936C157.098 474.42 157.957 474.162 158.881 474.162C160.392 474.162 161.566 474.66 162.404 475.655C163.242 476.651 163.661 478.076 163.661 479.931V480.758H155.787C155.816 481.904 156.149 482.831 156.786 483.54C157.431 484.242 158.247 484.593 159.235 484.593C159.937 484.593 160.532 484.45 161.019 484.163C161.506 483.877 161.932 483.497 162.297 483.024L163.511 483.97C162.537 485.466 161.076 486.215 159.128 486.215ZM158.881 475.795C158.079 475.795 157.406 476.089 156.861 476.676C156.317 477.256 155.981 478.072 155.852 479.125H161.674V478.975C161.617 477.965 161.344 477.184 160.857 476.633C160.371 476.074 159.712 475.795 158.881 475.795Z" fill="#ECE7DD"/>
</svg>
