<svg width="187" height="721" viewBox="0 0 187 721" fill="none" xmlns="http://www.w3.org/2000/svg">
<rect x="0.371094" y="0.55835" width="186.094" height="720.346" fill="#B0B1A9" fill-opacity="0.8"/>
<path d="M142.782 320.627V278.445H112.137H45.2734V320.627M142.782 320.627H45.2734M142.782 320.627V360.028M45.2734 320.627V360.028M142.782 360.028V402.674H45.2734V360.028M142.782 360.028H45.2734" stroke="#ECE7DD" stroke-width="7"/>
<path d="M17.1587 421.492L20.6284 431.289L24.0796 421.492H27.7349V435H24.9424V431.308L25.2207 424.934L21.5747 435H19.6636L16.0269 424.943L16.3052 431.308V435H13.522V421.492H17.1587ZM38.2925 429.146H32.9487V432.764H39.2202V435H30.1655V421.492H39.2017V423.747H32.9487V426.966H38.2925V429.146ZM51.2065 423.747H47.0688V435H44.2856V423.747H40.2036V421.492H51.2065V423.747ZM59.3149 432.217H54.4351L53.5073 435H50.5479L55.5762 421.492H58.1553L63.2114 435H60.252L59.3149 432.217ZM55.1865 429.962H58.5635L56.8657 424.906L55.1865 429.962ZM69.5107 430.296H64.2876V428.135H69.5107V430.296ZM79.4653 432.217H74.5854L73.6577 435H70.6982L75.7266 421.492H78.3057L83.3618 435H80.4023L79.4653 432.217ZM75.3369 429.962H78.7139L77.0161 424.906L75.3369 429.962ZM84.6235 435V421.492H88.7798C89.9673 421.492 91.028 421.761 91.9619 422.299C92.902 422.831 93.6349 423.592 94.1606 424.582C94.6864 425.565 94.9492 426.684 94.9492 427.94V428.562C94.9492 429.817 94.6895 430.933 94.1699 431.911C93.6566 432.888 92.9299 433.646 91.9897 434.184C91.0496 434.722 89.9889 434.994 88.8076 435H84.6235ZM87.4067 423.747V432.764H88.752C89.8405 432.764 90.6724 432.409 91.2476 431.697C91.8228 430.986 92.1165 429.969 92.1289 428.645V427.931C92.1289 426.558 91.8444 425.519 91.2754 424.813C90.7064 424.102 89.8745 423.747 88.7798 423.747H87.4067ZM104.403 432.217H99.5229L98.5952 435H95.6357L100.664 421.492H103.243L108.299 435H105.34L104.403 432.217ZM100.274 429.962H103.651L101.954 424.906L100.274 429.962ZM118.616 423.747H114.478V435H111.695V423.747H107.613V421.492H118.616V423.747ZM120.211 435V421.492H124.943C126.582 421.492 127.825 421.808 128.672 422.438C129.52 423.063 129.943 423.982 129.943 425.194C129.943 425.856 129.773 426.44 129.433 426.947C129.093 427.448 128.62 427.816 128.014 428.051C128.706 428.224 129.251 428.574 129.646 429.1C130.049 429.625 130.25 430.269 130.25 431.029C130.25 432.328 129.835 433.312 129.006 433.979C128.178 434.647 126.996 434.988 125.462 435H120.211ZM122.995 429.118V432.764H125.379C126.035 432.764 126.545 432.61 126.91 432.3C127.281 431.985 127.466 431.552 127.466 431.001C127.466 429.764 126.826 429.137 125.546 429.118H122.995ZM122.995 427.151H125.054C126.458 427.127 127.16 426.567 127.16 425.472C127.16 424.86 126.981 424.421 126.622 424.155C126.27 423.883 125.71 423.747 124.943 423.747H122.995V427.151ZM139.972 432.217H135.092L134.165 435H131.205L136.233 421.492H138.812L143.869 435H140.909L139.972 432.217ZM135.844 429.962H139.221L137.523 424.906L135.844 429.962ZM138.098 417.874H141.021L138.451 420.75H136.271L138.098 417.874ZM148.081 432.764H154.89V435H144.602V433.367L151.281 423.747H144.611V421.492H154.742V423.088L148.081 432.764ZM159.612 435H156.829V421.492H159.612V435ZM169.205 431.456C169.205 430.93 169.02 430.528 168.648 430.25C168.277 429.965 167.609 429.669 166.645 429.359C165.68 429.044 164.916 428.735 164.353 428.432C162.819 427.603 162.052 426.486 162.052 425.083C162.052 424.353 162.256 423.703 162.665 423.134C163.079 422.559 163.67 422.111 164.437 421.789C165.21 421.467 166.076 421.307 167.034 421.307C167.999 421.307 168.859 421.483 169.613 421.835C170.368 422.182 170.952 422.674 171.367 423.311C171.787 423.948 171.998 424.671 171.998 425.481H169.214C169.214 424.863 169.02 424.384 168.63 424.043C168.24 423.697 167.693 423.524 166.988 423.524C166.307 423.524 165.779 423.669 165.401 423.96C165.024 424.244 164.835 424.622 164.835 425.092C164.835 425.531 165.055 425.899 165.494 426.196C165.939 426.493 166.592 426.771 167.452 427.031C169.035 427.507 170.188 428.098 170.912 428.803C171.636 429.508 171.998 430.386 171.998 431.438C171.998 432.606 171.555 433.525 170.671 434.193C169.786 434.855 168.596 435.186 167.099 435.186C166.06 435.186 165.114 434.997 164.26 434.62C163.407 434.236 162.754 433.714 162.303 433.052C161.857 432.39 161.635 431.623 161.635 430.751H164.427C164.427 432.242 165.318 432.987 167.099 432.987C167.761 432.987 168.277 432.854 168.648 432.588C169.02 432.316 169.205 431.938 169.205 431.456Z" fill="#ECE7DD"/>
</svg>
