<svg width="187" height="721" viewBox="0 0 187 721" fill="none" xmlns="http://www.w3.org/2000/svg">
<rect x="0.371094" y="0.55835" width="186.094" height="720.346" fill="#987033"/>
<path d="M63.1587 665.226H59.2739V676H57.6885V665.226H53.812V663.914H63.1587V665.226ZM74.0161 670.347C74.0161 671.531 73.8169 672.566 73.4185 673.452C73.02 674.332 72.4556 675.004 71.7251 675.469C70.9946 675.934 70.1424 676.166 69.1685 676.166C68.2166 676.166 67.3727 675.934 66.6367 675.469C65.9007 674.998 65.328 674.332 64.9185 673.468C64.5145 672.599 64.307 671.595 64.2959 670.455V669.583C64.2959 668.421 64.4979 667.395 64.9019 666.504C65.3058 665.613 65.8758 664.932 66.6118 664.462C67.3534 663.986 68.2 663.748 69.1519 663.748C70.1203 663.748 70.9725 663.983 71.7085 664.454C72.45 664.918 73.02 665.596 73.4185 666.487C73.8169 667.373 74.0161 668.405 74.0161 669.583V670.347ZM72.4307 669.567C72.4307 668.134 72.1429 667.035 71.5674 666.271C70.9919 665.502 70.1867 665.118 69.1519 665.118C68.1447 665.118 67.3506 665.502 66.7695 666.271C66.194 667.035 65.8979 668.098 65.8813 669.459V670.347C65.8813 671.736 66.1719 672.829 66.7529 673.626C67.3395 674.417 68.1447 674.813 69.1685 674.813C70.1978 674.813 70.9946 674.439 71.5591 673.692C72.1235 672.94 72.4141 671.863 72.4307 670.463V669.567ZM80.2251 673.883L83.6782 663.914H85.4214L80.939 676H79.5278L75.0537 663.914H76.7886L80.2251 673.883ZM93.0913 672.846H88.0278L86.8906 676H85.2471L89.8623 663.914H91.2568L95.8804 676H94.2451L93.0913 672.846ZM88.5093 671.534H92.6182L90.5596 665.881L88.5093 671.534ZM91.3481 660.677H93.2075L90.9829 663.117H89.7461L91.3481 660.677ZM97.5073 676V663.914H101.458C102.77 663.914 103.755 664.185 104.414 664.728C105.078 665.27 105.41 666.072 105.41 667.135C105.41 667.699 105.249 668.2 104.928 668.637C104.607 669.069 104.17 669.404 103.617 669.642C104.27 669.824 104.784 670.173 105.161 670.688C105.542 671.197 105.733 671.805 105.733 672.514C105.733 673.598 105.382 674.451 104.679 675.07C103.976 675.69 102.983 676 101.699 676H97.5073ZM99.1011 670.347V674.697H101.732C102.474 674.697 103.058 674.506 103.484 674.124C103.916 673.737 104.131 673.205 104.131 672.53C104.131 671.075 103.34 670.347 101.757 670.347H99.1011ZM99.1011 669.069H101.508C102.206 669.069 102.762 668.895 103.177 668.546C103.597 668.197 103.808 667.724 103.808 667.126C103.808 666.462 103.614 665.981 103.227 665.682C102.839 665.378 102.25 665.226 101.458 665.226H99.1011V669.069ZM108.099 676V663.914H112.05C113.362 663.914 114.347 664.185 115.005 664.728C115.669 665.27 116.001 666.072 116.001 667.135C116.001 667.699 115.841 668.2 115.52 668.637C115.199 669.069 114.762 669.404 114.208 669.642C114.861 669.824 115.376 670.173 115.752 670.688C116.134 671.197 116.325 671.805 116.325 672.514C116.325 673.598 115.974 674.451 115.271 675.07C114.568 675.69 113.575 676 112.291 676H108.099ZM109.693 670.347V674.697H112.324C113.066 674.697 113.65 674.506 114.076 674.124C114.507 673.737 114.723 673.205 114.723 672.53C114.723 671.075 113.932 670.347 112.349 670.347H109.693ZM109.693 669.069H112.1C112.797 669.069 113.354 668.895 113.769 668.546C114.189 668.197 114.399 667.724 114.399 667.126C114.399 666.462 114.206 665.981 113.818 665.682C113.431 665.378 112.842 665.226 112.05 665.226H109.693V669.069ZM129.582 672.846H124.518L123.381 676H121.737L126.353 663.914H127.747L132.371 676H130.735L129.582 672.846ZM125 671.534H129.108L127.05 665.881L125 671.534ZM13.9683 683.914L16.666 692.323L19.3555 683.914H23.1904V696H20.2686V693.178L20.5508 687.4L17.6289 696H15.7031L12.7729 687.392L13.0552 693.178V696H10.1416V683.914H13.9683ZM32.5454 690.878H27.9634V693.759H33.3755V696H25.0498V683.914H33.3921V686.164H27.9634V688.712H32.5454V690.878ZM44.2163 686.164H40.5889V696H37.6753V686.164H34.1143V683.914H44.2163V686.164ZM51.3218 693.742H47.3291L46.6318 696H43.519L47.9517 683.914H50.6909L55.1567 696H52.0273L51.3218 693.742ZM48.0264 691.493H50.6245L49.3213 687.301L48.0264 691.493ZM61.3823 691.875H56.3936V689.708H61.3823V691.875ZM70.563 693.742H66.5703L65.873 696H62.7603L67.1929 683.914H69.9321L74.3979 696H71.2686L70.563 693.742ZM67.2676 691.493H69.8657L68.5625 687.301L67.2676 691.493ZM75.2861 696V683.914H79.1792C80.2472 683.914 81.2074 684.158 82.0596 684.645C82.9118 685.126 83.5758 685.809 84.0518 686.695C84.5332 687.575 84.7767 688.562 84.7822 689.658V690.214C84.7822 691.321 84.547 692.314 84.0767 693.194C83.6118 694.069 82.9533 694.755 82.1011 695.253C81.2544 695.745 80.3081 695.994 79.2622 696H75.2861ZM78.1997 686.164V693.759H79.2124C80.048 693.759 80.6899 693.463 81.1382 692.871C81.5864 692.273 81.8105 691.388 81.8105 690.214V689.691C81.8105 688.524 81.5864 687.644 81.1382 687.052C80.6899 686.46 80.0369 686.164 79.1792 686.164H78.1997ZM92.9585 693.742H88.9658L88.2686 696H85.1558L89.5884 683.914H92.3276L96.7935 696H93.6641L92.9585 693.742ZM89.6631 691.493H92.2612L90.958 687.301L89.6631 691.493ZM106.173 686.164H102.546V696H99.6323V686.164H96.0713V683.914H106.173V686.164ZM107.41 696V683.914H111.751C113.306 683.914 114.488 684.199 115.296 684.769C116.109 685.339 116.516 686.166 116.516 687.251C116.516 687.876 116.372 688.41 116.084 688.853C115.797 689.296 115.373 689.622 114.814 689.833C115.445 689.999 115.93 690.308 116.267 690.762C116.605 691.216 116.773 691.769 116.773 692.422C116.773 693.607 116.397 694.498 115.645 695.095C114.897 695.687 113.788 695.989 112.316 696H107.41ZM110.324 690.862V693.759H112.233C112.759 693.759 113.163 693.64 113.445 693.402C113.727 693.158 113.868 692.818 113.868 692.381C113.868 691.374 113.367 690.867 112.366 690.862H110.324ZM110.324 688.953H111.843C112.479 688.947 112.933 688.831 113.204 688.604C113.475 688.377 113.611 688.042 113.611 687.6C113.611 687.09 113.464 686.725 113.171 686.504C112.878 686.277 112.404 686.164 111.751 686.164H110.324V688.953ZM125.249 693.742H121.256L120.559 696H117.446L121.878 683.914H124.618L129.083 696H125.954L125.249 693.742ZM121.953 691.493H124.551L123.248 687.301L121.953 691.493ZM123.63 680.677H126.585L124.277 683.283H121.995L123.63 680.677ZM133.242 693.759H139.02V696H129.606V694.464L135.367 686.164H129.573V683.914H138.961V685.408L133.242 693.759ZM143.452 696H140.547V683.914H143.452V696ZM151.711 692.788C151.711 692.361 151.559 692.029 151.255 691.792C150.956 691.554 150.428 691.307 149.669 691.053C148.911 690.798 148.292 690.552 147.81 690.314C146.244 689.545 145.461 688.488 145.461 687.143C145.461 686.473 145.655 685.884 146.042 685.375C146.435 684.86 146.988 684.462 147.702 684.18C148.416 683.892 149.218 683.748 150.109 683.748C150.978 683.748 151.756 683.903 152.442 684.213C153.134 684.523 153.67 684.965 154.052 685.541C154.434 686.111 154.625 686.764 154.625 687.5H151.72C151.72 687.007 151.568 686.626 151.263 686.354C150.964 686.083 150.558 685.948 150.043 685.948C149.523 685.948 149.111 686.064 148.806 686.296C148.507 686.523 148.358 686.814 148.358 687.168C148.358 687.478 148.524 687.76 148.856 688.015C149.188 688.264 149.772 688.524 150.607 688.795C151.443 689.061 152.129 689.348 152.666 689.658C153.972 690.411 154.625 691.448 154.625 692.771C154.625 693.828 154.227 694.658 153.43 695.261C152.633 695.864 151.54 696.166 150.151 696.166C149.171 696.166 148.283 695.992 147.486 695.643C146.695 695.289 146.097 694.807 145.693 694.199C145.295 693.584 145.096 692.879 145.096 692.082H148.018C148.018 692.729 148.184 693.208 148.516 693.518C148.853 693.822 149.398 693.975 150.151 693.975C150.632 693.975 151.011 693.872 151.288 693.667C151.57 693.457 151.711 693.164 151.711 692.788ZM161.042 691.111H158.203V696H156.601V683.914H160.602C161.963 683.914 163.009 684.224 163.739 684.844C164.475 685.464 164.843 686.366 164.843 687.55C164.843 688.302 164.639 688.958 164.229 689.517C163.825 690.076 163.261 690.494 162.536 690.771L165.375 695.9V696H163.665L161.042 691.111ZM158.203 689.808H160.651C161.443 689.808 162.071 689.603 162.536 689.193C163.006 688.784 163.241 688.236 163.241 687.55C163.241 686.803 163.017 686.23 162.569 685.832C162.126 685.433 161.484 685.231 160.643 685.226H158.203V689.808ZM173.758 692.846H168.695L167.558 696H165.914L170.529 683.914H171.924L176.547 696H174.912L173.758 692.846ZM169.176 691.534H173.285L171.227 685.881L169.176 691.534Z" fill="#ECE7DD"/>
<path d="M47.8653 327.359L52.9786 340.121L58.0919 327.359H60.7667V343H58.7042V336.909L58.8975 330.335L53.7628 343H52.1837L47.0596 330.367L47.2637 336.909V343H45.2012V327.359H47.8653ZM67.16 343.215C65.5845 343.215 64.3026 342.699 63.3143 341.668C62.326 340.63 61.8319 339.244 61.8319 337.511V337.146C61.8319 335.993 62.0503 334.965 62.4871 334.062C62.9312 333.153 63.547 332.444 64.3348 331.936C65.1297 331.42 65.9891 331.162 66.9129 331.162C68.424 331.162 69.5985 331.66 70.4364 332.655C71.2743 333.651 71.6932 335.076 71.6932 336.931V337.758H63.8192C63.8478 338.904 64.1808 339.831 64.8182 340.54C65.4627 341.242 66.2791 341.593 67.2674 341.593C67.9692 341.593 68.5636 341.45 69.0506 341.163C69.5376 340.877 69.9637 340.497 70.3289 340.024L71.5428 340.97C70.5689 342.466 69.1079 343.215 67.16 343.215ZM66.9129 332.795C66.1108 332.795 65.4377 333.089 64.8934 333.676C64.3491 334.256 64.0125 335.072 63.8836 336.125H69.7059V335.975C69.6486 334.965 69.3765 334.184 68.8895 333.633C68.4025 333.074 67.7437 332.795 66.9129 332.795ZM74.9391 328.562V331.377H77.109V332.913H74.9391V340.121C74.9391 340.587 75.0357 340.938 75.2291 341.174C75.4225 341.403 75.7519 341.518 76.2174 341.518C76.4465 341.518 76.7616 341.475 77.1627 341.389V343C76.6399 343.143 76.1314 343.215 75.6373 343.215C74.7493 343.215 74.0797 342.946 73.6285 342.409C73.1773 341.872 72.9518 341.109 72.9518 340.121V332.913H70.8355V331.377H72.9518V328.562H74.9391ZM84.8558 343C84.7412 342.771 84.6481 342.363 84.5765 341.775C83.6527 342.735 82.5498 343.215 81.2679 343.215C80.1221 343.215 79.1804 342.893 78.4427 342.248C77.7123 341.596 77.347 340.773 77.347 339.777C77.347 338.567 77.8054 337.629 78.722 336.963C79.6459 336.29 80.9421 335.953 82.6107 335.953H84.5443V335.04C84.5443 334.345 84.3366 333.794 83.9212 333.386C83.5059 332.97 82.8936 332.763 82.0843 332.763C81.3754 332.763 80.7809 332.942 80.3011 333.3C79.8213 333.658 79.5814 334.091 79.5814 334.6H77.5834C77.5834 334.02 77.7875 333.461 78.1957 332.924C78.611 332.38 79.1696 331.95 79.8714 331.635C80.5804 331.32 81.3574 331.162 82.2025 331.162C83.5417 331.162 84.5908 331.499 85.35 332.172C86.1091 332.838 86.503 333.758 86.5316 334.933V340.282C86.5316 341.349 86.6677 342.198 86.9398 342.828V343H84.8558ZM81.558 341.485C82.181 341.485 82.7718 341.324 83.3304 341.002C83.889 340.68 84.2936 340.261 84.5443 339.745V337.36H82.9867C80.5518 337.36 79.3343 338.073 79.3343 339.498C79.3343 340.121 79.542 340.608 79.9574 340.959C80.3727 341.31 80.9063 341.485 81.558 341.485ZM95.0626 343C94.948 342.771 94.8549 342.363 94.7833 341.775C93.8595 342.735 92.7566 343.215 91.4747 343.215C90.3289 343.215 89.3872 342.893 88.6495 342.248C87.9191 341.596 87.5538 340.773 87.5538 339.777C87.5538 338.567 88.0122 337.629 88.9288 336.963C89.8527 336.29 91.1489 335.953 92.8175 335.953H94.7511V335.04C94.7511 334.345 94.5434 333.794 94.128 333.386C93.7127 332.97 93.1004 332.763 92.2911 332.763C91.5821 332.763 90.9877 332.942 90.5079 333.3C90.0281 333.658 89.7882 334.091 89.7882 334.6H87.7902C87.7902 334.02 87.9943 333.461 88.4025 332.924C88.8178 332.38 89.3764 331.95 90.0782 331.635C90.7872 331.32 91.5642 331.162 92.4093 331.162C93.7485 331.162 94.7976 331.499 95.5568 332.172C96.3159 332.838 96.7097 333.758 96.7384 334.933V340.282C96.7384 341.349 96.8745 342.198 97.1466 342.828V343H95.0626ZM91.7648 341.485C92.3878 341.485 92.9786 341.324 93.5372 341.002C94.0958 340.68 94.5004 340.261 94.7511 339.745V337.36H93.1935C90.7586 337.36 89.5411 338.073 89.5411 339.498C89.5411 340.121 89.7488 340.608 90.1642 340.959C90.5795 341.31 91.1131 341.485 91.7648 341.485ZM97.6102 337.092C97.6102 335.309 98.0328 333.876 98.8778 332.795C99.7229 331.706 100.829 331.162 102.197 331.162C103.558 331.162 104.636 331.628 105.431 332.559V326.5H107.418V343H105.592L105.495 341.754C104.7 342.728 103.594 343.215 102.176 343.215C100.829 343.215 99.73 342.663 98.8778 341.561C98.0328 340.458 97.6102 339.018 97.6102 337.242V337.092ZM99.5975 337.317C99.5975 338.635 99.8697 339.666 100.414 340.411C100.958 341.156 101.71 341.528 102.67 341.528C103.93 341.528 104.85 340.963 105.431 339.831V334.492C104.836 333.396 103.923 332.849 102.691 332.849C101.717 332.849 100.958 333.225 100.414 333.977C99.8697 334.729 99.5975 335.842 99.5975 337.317ZM115.927 343C115.813 342.771 115.72 342.363 115.648 341.775C114.724 342.735 113.621 343.215 112.339 343.215C111.194 343.215 110.252 342.893 109.514 342.248C108.784 341.596 108.419 340.773 108.419 339.777C108.419 338.567 108.877 337.629 109.794 336.963C110.717 336.29 112.014 335.953 113.682 335.953H115.616V335.04C115.616 334.345 115.408 333.794 114.993 333.386C114.577 332.97 113.965 332.763 113.156 332.763C112.447 332.763 111.853 332.942 111.373 333.3C110.893 333.658 110.653 334.091 110.653 334.6H108.655C108.655 334.02 108.859 333.461 109.267 332.924C109.683 332.38 110.241 331.95 110.943 331.635C111.652 331.32 112.429 331.162 113.274 331.162C114.613 331.162 115.662 331.499 116.422 332.172C117.181 332.838 117.575 333.758 117.603 334.933V340.282C117.603 341.349 117.739 342.198 118.011 342.828V343H115.927ZM112.63 341.485C113.253 341.485 113.843 341.324 114.402 341.002C114.961 340.68 115.365 340.261 115.616 339.745V337.36H114.058C111.623 337.36 110.406 338.073 110.406 339.498C110.406 340.121 110.614 340.608 111.029 340.959C111.444 341.31 111.978 341.485 112.63 341.485ZM121.655 328.562V331.377H123.825V332.913H121.655V340.121C121.655 340.587 121.751 340.938 121.945 341.174C122.138 341.403 122.468 341.518 122.933 341.518C123.162 341.518 123.477 341.475 123.878 341.389V343C123.356 343.143 122.847 343.215 122.353 343.215C121.465 343.215 120.795 342.946 120.344 342.409C119.893 341.872 119.667 341.109 119.667 340.121V332.913H117.551V331.377H119.667V328.562H121.655ZM123.654 337.081C123.654 335.942 123.876 334.918 124.32 334.009C124.772 333.099 125.395 332.397 126.19 331.903C126.992 331.409 127.905 331.162 128.929 331.162C130.512 331.162 131.79 331.71 132.764 332.806C133.745 333.901 134.236 335.359 134.236 337.178V337.317C134.236 338.449 134.017 339.466 133.58 340.368C133.151 341.263 132.531 341.962 131.722 342.463C130.92 342.964 129.996 343.215 128.95 343.215C127.375 343.215 126.097 342.667 125.115 341.571C124.141 340.476 123.654 339.025 123.654 337.221V337.081ZM125.652 337.317C125.652 338.606 125.95 339.641 126.544 340.422C127.146 341.202 127.948 341.593 128.95 341.593C129.96 341.593 130.762 341.199 131.357 340.411C131.951 339.616 132.248 338.506 132.248 337.081C132.248 335.806 131.944 334.775 131.335 333.987C130.734 333.192 129.931 332.795 128.929 332.795C127.948 332.795 127.156 333.185 126.555 333.966C125.953 334.746 125.652 335.864 125.652 337.317ZM138.212 337.618L136.966 338.918V343H134.978V326.5H136.966V336.479L138.029 335.201L141.649 331.377H144.066L139.544 336.232L144.593 343H142.262L138.212 337.618ZM10.3557 354.562V357.377H12.5257V358.913H10.3557V366.121C10.3557 366.587 10.4524 366.938 10.6458 367.174C10.8391 367.403 11.1686 367.518 11.6341 367.518C11.8632 367.518 12.1783 367.475 12.5794 367.389V369C12.0566 369.143 11.5481 369.215 11.054 369.215C10.166 369.215 9.49637 368.946 9.0452 368.409C8.59402 367.872 8.36844 367.109 8.36844 366.121V358.913H6.25223V357.377H8.36844V354.562H10.3557ZM17.92 369.215C16.3444 369.215 15.0625 368.699 14.0743 367.668C13.086 366.63 12.5918 365.244 12.5918 363.511V363.146C12.5918 361.993 12.8103 360.965 13.2471 360.062C13.6911 359.153 14.307 358.444 15.0948 357.936C15.8897 357.42 16.7491 357.162 17.6729 357.162C19.184 357.162 20.3584 357.66 21.1963 358.655C22.0342 359.651 22.4532 361.076 22.4532 362.931V363.758H14.5791C14.6078 364.904 14.9408 365.831 15.5782 366.54C16.2227 367.242 17.0391 367.593 18.0274 367.593C18.7292 367.593 19.3236 367.45 19.8106 367.163C20.2976 366.877 20.7237 366.497 21.0889 366.024L22.3028 366.97C21.3288 368.466 19.8679 369.215 17.92 369.215ZM17.6729 358.795C16.8708 358.795 16.1976 359.089 15.6534 359.676C15.1091 360.256 14.7725 361.072 14.6436 362.125H20.4659V361.975C20.4086 360.965 20.1364 360.184 19.6495 359.633C19.1625 359.074 18.5036 358.795 17.6729 358.795ZM18.6397 352.5H21.0459L18.167 355.658H16.5664L18.6397 352.5ZM24.8719 357.377L24.9256 358.666C25.7778 357.663 26.9272 357.162 28.3738 357.162C29.9995 357.162 31.1059 357.785 31.6932 359.031C32.0799 358.473 32.5812 358.021 33.1971 357.678C33.8201 357.334 34.5542 357.162 35.3992 357.162C37.9487 357.162 39.2449 358.512 39.2879 361.212V369H37.3006V361.33C37.3006 360.499 37.1108 359.88 36.7313 359.472C36.3517 359.056 35.7143 358.849 34.8191 358.849C34.0815 358.849 33.4692 359.071 32.9822 359.515C32.4952 359.951 32.2124 360.542 32.1336 361.287V369H30.1355V361.384C30.1355 359.694 29.3084 358.849 27.6541 358.849C26.3507 358.849 25.4591 359.404 24.9793 360.514V369H22.992V357.377H24.8719ZM47.7115 369C47.5969 368.771 47.5038 368.363 47.4322 367.775C46.5084 368.735 45.4055 369.215 44.1236 369.215C42.9778 369.215 42.036 368.893 41.2984 368.248C40.5679 367.596 40.2027 366.773 40.2027 365.777C40.2027 364.567 40.661 363.629 41.5777 362.963C42.5015 362.29 43.7977 361.953 45.4664 361.953H47.4V361.04C47.4 360.345 47.1923 359.794 46.7769 359.386C46.3616 358.97 45.7492 358.763 44.94 358.763C44.231 358.763 43.6366 358.942 43.1568 359.3C42.677 359.658 42.4371 360.091 42.4371 360.6H40.439C40.439 360.02 40.6431 359.461 41.0513 358.924C41.4667 358.38 42.0253 357.95 42.7271 357.635C43.4361 357.32 44.2131 357.162 45.0582 357.162C46.3974 357.162 47.4465 357.499 48.2056 358.172C48.9647 358.838 49.3586 359.758 49.3873 360.933V366.282C49.3873 367.349 49.5233 368.198 49.7955 368.828V369H47.7115ZM44.4136 367.485C45.0367 367.485 45.6275 367.324 46.1861 367.002C46.7447 366.68 47.1493 366.261 47.4 365.745V363.36H45.8423C43.4075 363.36 42.19 364.073 42.19 365.498C42.19 366.121 42.3977 366.608 42.813 366.959C43.2284 367.31 43.7619 367.485 44.4136 367.485ZM53.9866 363.618L52.7405 364.918V369H50.7532V352.5H52.7405V362.479L53.804 361.201L57.4241 357.377H59.8411L55.3187 362.232L60.3675 369H58.0364L53.9866 363.618ZM59.6065 363.081C59.6065 361.942 59.8285 360.918 60.2725 360.009C60.7237 359.099 61.3468 358.397 62.1417 357.903C62.9438 357.409 63.8569 357.162 64.8809 357.162C66.4636 357.162 67.7419 357.71 68.7159 358.806C69.697 359.901 70.1876 361.359 70.1876 363.178V363.317C70.1876 364.449 69.9692 365.466 69.5323 366.368C69.1026 367.263 68.4832 367.962 67.6739 368.463C66.8718 368.964 65.948 369.215 64.9024 369.215C63.3269 369.215 62.0486 368.667 61.0675 367.571C60.0935 366.476 59.6065 365.025 59.6065 363.221V363.081ZM61.6046 363.317C61.6046 364.606 61.9018 365.641 62.4962 366.422C63.0977 367.202 63.8998 367.593 64.9024 367.593C65.9122 367.593 66.7143 367.199 67.3087 366.411C67.9031 365.616 68.2003 364.506 68.2003 363.081C68.2003 361.806 67.8959 360.775 67.2872 359.987C66.6856 359.192 65.8835 358.795 64.8809 358.795C63.8998 358.795 63.1085 359.185 62.5069 359.966C61.9054 360.746 61.6046 361.864 61.6046 363.317ZM61.3468 354.272C61.3468 353.95 61.4434 353.682 61.6368 353.467C61.8373 353.245 62.1309 353.134 62.5177 353.134C62.9044 353.134 63.198 353.245 63.3985 353.467C63.599 353.682 63.6993 353.95 63.6993 354.272C63.6993 354.595 63.599 354.863 63.3985 355.078C63.198 355.293 62.9044 355.4 62.5177 355.4C62.1309 355.4 61.8373 355.293 61.6368 355.078C61.4434 354.863 61.3468 354.595 61.3468 354.272ZM65.9659 354.294C65.9659 353.972 66.0626 353.7 66.2559 353.478C66.4565 353.256 66.7501 353.145 67.1368 353.145C67.5235 353.145 67.8171 353.256 68.0177 353.478C68.2182 353.7 68.3184 353.972 68.3184 354.294C68.3184 354.616 68.2182 354.885 68.0177 355.1C67.8171 355.314 67.5235 355.422 67.1368 355.422C66.7501 355.422 66.4565 355.314 66.2559 355.1C66.0626 354.885 65.9659 354.616 65.9659 354.294ZM76.5379 359.16C76.2372 359.11 75.9113 359.085 75.5604 359.085C74.257 359.085 73.3726 359.64 72.9071 360.75V369H70.9198V357.377H72.8534L72.8856 358.72C73.5373 357.681 74.4611 357.162 75.6571 357.162C76.0438 357.162 76.3374 357.212 76.5379 357.312V359.16ZM75.8736 363.081C75.8736 361.942 76.0956 360.918 76.5396 360.009C76.9908 359.099 77.6139 358.397 78.4088 357.903C79.2109 357.409 80.124 357.162 81.148 357.162C82.7307 357.162 84.0091 357.71 84.983 358.806C85.9641 359.901 86.4547 361.359 86.4547 363.178V363.317C86.4547 364.449 86.2363 365.466 85.7994 366.368C85.3697 367.263 84.7503 367.962 83.941 368.463C83.1389 368.964 82.2151 369.215 81.1695 369.215C79.594 369.215 78.3157 368.667 77.3346 367.571C76.3606 366.476 75.8736 365.025 75.8736 363.221V363.081ZM77.8717 363.317C77.8717 364.606 78.1689 365.641 78.7633 366.422C79.3648 367.202 80.1669 367.593 81.1695 367.593C82.1793 367.593 82.9814 367.199 83.5758 366.411C84.1702 365.616 84.4674 364.506 84.4674 363.081C84.4674 361.806 84.163 360.775 83.5543 359.987C82.9527 359.192 82.1507 358.795 81.148 358.795C80.1669 358.795 79.3756 359.185 78.774 359.966C78.1725 360.746 77.8717 361.864 77.8717 363.317ZM77.6139 354.272C77.6139 353.95 77.7105 353.682 77.9039 353.467C78.1044 353.245 78.398 353.134 78.7848 353.134C79.1715 353.134 79.4651 353.245 79.6656 353.467C79.8661 353.682 79.9664 353.95 79.9664 354.272C79.9664 354.595 79.8661 354.863 79.6656 355.078C79.4651 355.293 79.1715 355.4 78.7848 355.4C78.398 355.4 78.1044 355.293 77.9039 355.078C77.7105 354.863 77.6139 354.595 77.6139 354.272ZM82.233 354.294C82.233 353.972 82.3297 353.7 82.523 353.478C82.7236 353.256 83.0172 353.145 83.4039 353.145C83.7906 353.145 84.0842 353.256 84.2848 353.478C84.4853 353.7 84.5855 353.972 84.5855 354.294C84.5855 354.616 84.4853 354.885 84.2848 355.1C84.0842 355.314 83.7906 355.422 83.4039 355.422C83.0172 355.422 82.7236 355.314 82.523 355.1C82.3297 354.885 82.233 354.616 82.233 354.294ZM90.431 363.618L89.1849 364.918V369H87.1976V352.5H89.1849V362.479L90.2484 361.201L93.8685 357.377H96.2855L91.763 362.232L96.8119 369H94.4808L90.431 363.618ZM96.5128 372.115L95.3849 371.342C96.0581 370.404 96.409 369.437 96.4376 368.441V366.647H98.382V368.205C98.382 368.928 98.2029 369.652 97.8448 370.375C97.4939 371.098 97.0499 371.678 96.5128 372.115ZM102.306 363.081C102.306 361.942 102.528 360.918 102.972 360.009C103.423 359.099 104.047 358.397 104.841 357.903C105.644 357.409 106.557 357.162 107.581 357.162C109.163 357.162 110.442 357.71 111.416 358.806C112.397 359.901 112.887 361.359 112.887 363.178V363.317C112.887 364.449 112.669 365.466 112.232 366.368C111.802 367.263 111.183 367.962 110.374 368.463C109.572 368.964 108.648 369.215 107.602 369.215C106.027 369.215 104.748 368.667 103.767 367.571C102.793 366.476 102.306 365.025 102.306 363.221V363.081ZM104.304 363.317C104.304 364.606 104.602 365.641 105.196 366.422C105.798 367.202 106.6 367.593 107.602 367.593C108.612 367.593 109.414 367.199 110.008 366.411C110.603 365.616 110.9 364.506 110.9 363.081C110.9 361.806 110.596 360.775 109.987 359.987C109.385 359.192 108.583 358.795 107.581 358.795C106.6 358.795 105.808 359.185 105.207 359.966C104.605 360.746 104.304 361.864 104.304 363.317ZM119.238 359.16C118.937 359.11 118.611 359.085 118.26 359.085C116.957 359.085 116.072 359.64 115.607 360.75V369H113.62V357.377H115.553L115.585 358.72C116.237 357.681 117.161 357.162 118.357 357.162C118.744 357.162 119.037 357.212 119.238 357.312V359.16ZM126.082 365.917C126.082 365.38 125.878 364.965 125.47 364.671C125.069 364.37 124.363 364.112 123.354 363.897C122.351 363.683 121.553 363.425 120.958 363.124C120.371 362.823 119.934 362.465 119.648 362.05C119.368 361.634 119.229 361.14 119.229 360.567C119.229 359.615 119.63 358.809 120.432 358.15C121.241 357.492 122.272 357.162 123.526 357.162C124.843 357.162 125.91 357.502 126.727 358.183C127.55 358.863 127.962 359.733 127.962 360.793H125.964C125.964 360.249 125.731 359.78 125.266 359.386C124.807 358.992 124.227 358.795 123.526 358.795C122.802 358.795 122.236 358.952 121.828 359.268C121.42 359.583 121.216 359.994 121.216 360.503C121.216 360.983 121.406 361.344 121.785 361.588C122.165 361.831 122.849 362.064 123.837 362.286C124.833 362.508 125.638 362.773 126.254 363.081C126.87 363.389 127.325 363.761 127.618 364.198C127.919 364.628 128.069 365.154 128.069 365.777C128.069 366.816 127.654 367.65 126.823 368.28C125.993 368.903 124.915 369.215 123.59 369.215C122.659 369.215 121.835 369.05 121.119 368.721C120.403 368.391 119.841 367.933 119.433 367.346C119.032 366.751 118.831 366.11 118.831 365.423H120.819C120.854 366.089 121.119 366.619 121.613 367.013C122.115 367.399 122.774 367.593 123.59 367.593C124.342 367.593 124.944 367.442 125.395 367.142C125.853 366.834 126.082 366.425 126.082 365.917ZM130.768 367.378H137.567V369H128.34V367.539L134.753 359.021H128.436V357.377H137.245V358.784L130.768 367.378ZM145.228 369C145.114 368.771 145.021 368.363 144.949 367.775C144.025 368.735 142.922 369.215 141.64 369.215C140.494 369.215 139.553 368.893 138.815 368.248C138.085 367.596 137.719 366.773 137.719 365.777C137.719 364.567 138.178 363.629 139.094 362.963C140.018 362.29 141.314 361.953 142.983 361.953H144.917V361.04C144.917 360.345 144.709 359.794 144.294 359.386C143.878 358.97 143.266 358.763 142.457 358.763C141.748 358.763 141.153 358.942 140.674 359.3C140.194 359.658 139.954 360.091 139.954 360.6H137.956C137.956 360.02 138.16 359.461 138.568 358.924C138.983 358.38 139.542 357.95 140.244 357.635C140.953 357.32 141.73 357.162 142.575 357.162C143.914 357.162 144.963 357.499 145.722 358.172C146.481 358.838 146.875 359.758 146.904 360.933V366.282C146.904 367.349 147.04 368.198 147.312 368.828V369H145.228ZM141.93 367.485C142.553 367.485 143.144 367.324 143.703 367.002C144.261 366.68 144.666 366.261 144.917 365.745V363.36H143.359C140.924 363.36 139.707 364.073 139.707 365.498C139.707 366.121 139.914 366.608 140.33 366.959C140.745 367.31 141.279 367.485 141.93 367.485ZM143.767 352.5H146.174L143.295 355.658H141.694L143.767 352.5ZM147.787 363.092C147.787 361.28 148.206 359.84 149.043 358.773C149.881 357.699 150.991 357.162 152.373 357.162C153.791 357.162 154.898 357.663 155.693 358.666L155.789 357.377H157.605V368.721C157.605 370.225 157.157 371.41 156.262 372.276C155.374 373.143 154.178 373.576 152.674 373.576C151.836 373.576 151.016 373.397 150.214 373.039C149.412 372.681 148.8 372.19 148.377 371.567L149.409 370.375C150.261 371.428 151.303 371.954 152.535 371.954C153.501 371.954 154.253 371.682 154.79 371.138C155.335 370.593 155.607 369.827 155.607 368.839V367.84C154.812 368.757 153.727 369.215 152.352 369.215C150.991 369.215 149.888 368.667 149.043 367.571C148.206 366.476 147.787 364.982 147.787 363.092ZM149.785 363.317C149.785 364.628 150.053 365.659 150.59 366.411C151.127 367.156 151.879 367.528 152.846 367.528C154.099 367.528 155.02 366.959 155.607 365.82V360.514C154.998 359.404 154.085 358.849 152.868 358.849C151.901 358.849 151.145 359.225 150.601 359.977C150.057 360.729 149.785 361.842 149.785 363.317ZM158.326 363.081C158.326 361.942 158.548 360.918 158.992 360.009C159.444 359.099 160.067 358.397 160.862 357.903C161.664 357.409 162.577 357.162 163.601 357.162C165.183 357.162 166.462 357.71 167.436 358.806C168.417 359.901 168.907 361.359 168.907 363.178V363.317C168.907 364.449 168.689 365.466 168.252 366.368C167.822 367.263 167.203 367.962 166.394 368.463C165.592 368.964 164.668 369.215 163.622 369.215C162.047 369.215 160.768 368.667 159.787 367.571C158.813 366.476 158.326 365.025 158.326 363.221V363.081ZM160.324 363.317C160.324 364.606 160.622 365.641 161.216 366.422C161.818 367.202 162.62 367.593 163.622 367.593C164.632 367.593 165.434 367.199 166.029 366.411C166.623 365.616 166.92 364.506 166.92 363.081C166.92 361.806 166.616 360.775 166.007 359.987C165.405 359.192 164.603 358.795 163.601 358.795C162.62 358.795 161.828 359.185 161.227 359.966C160.625 360.746 160.324 361.864 160.324 363.317ZM172.884 363.618L171.638 364.918V369H169.65V352.5H171.638V362.479L172.701 361.201L176.321 357.377H178.738L174.216 362.232L179.265 369H176.934L172.884 363.618ZM178.966 372.115L177.838 371.342C178.511 370.404 178.862 369.437 178.89 368.441V366.647H180.835V368.205C180.835 368.928 180.656 369.652 180.298 370.375C179.947 371.098 179.503 371.678 178.966 372.115ZM9.29871 380.562V383.377H11.4686V384.913H9.29871V392.121C9.29871 392.587 9.39539 392.938 9.58875 393.174C9.78211 393.403 10.1115 393.518 10.577 393.518C10.8062 393.518 11.1213 393.475 11.5223 393.389V395C10.9996 395.143 10.4911 395.215 9.99696 395.215C9.10894 395.215 8.43934 394.946 7.98817 394.409C7.53699 393.872 7.31141 393.109 7.31141 392.121V384.913H5.1952V383.377H7.31141V380.562H9.29871ZM16.8629 395.215C15.2874 395.215 14.0055 394.699 13.0172 393.668C12.0289 392.63 11.5348 391.244 11.5348 389.511V389.146C11.5348 387.993 11.7532 386.965 12.1901 386.062C12.6341 385.153 13.25 384.444 14.0377 383.936C14.8327 383.42 15.692 383.162 16.6159 383.162C18.1269 383.162 19.3014 383.66 20.1393 384.655C20.9772 385.651 21.3961 387.076 21.3961 388.931V389.758H13.5221C13.5508 390.904 13.8838 391.831 14.5211 392.54C15.1657 393.242 15.9821 393.593 16.9704 393.593C17.6722 393.593 18.2666 393.45 18.7536 393.163C19.2405 392.877 19.6666 392.497 20.0319 392.024L21.2457 392.97C20.2718 394.466 18.8108 395.215 16.8629 395.215ZM16.6159 384.795C15.8138 384.795 15.1406 385.089 14.5963 385.676C14.0521 386.256 13.7155 387.072 13.5866 388.125H19.4088V387.975C19.3515 386.965 19.0794 386.184 18.5924 385.633C18.1054 385.074 17.4466 384.795 16.6159 384.795ZM27.5639 385.16C27.2631 385.11 26.9372 385.085 26.5863 385.085C25.2829 385.085 24.3985 385.64 23.933 386.75V395H21.9457V383.377H23.8793L23.9115 384.72C24.5632 383.681 25.487 383.162 26.683 383.162C27.0697 383.162 27.3633 383.212 27.5639 383.312V385.16ZM34.8166 393.851C34.0431 394.76 32.908 395.215 31.4113 395.215C30.1724 395.215 29.227 394.857 28.5754 394.141C27.9308 393.417 27.605 392.35 27.5978 390.939V383.377H29.5851V390.886C29.5851 392.647 30.3013 393.528 31.7336 393.528C33.2518 393.528 34.2616 392.963 34.7629 391.831V383.377H36.7502V395H34.8595L34.8166 393.851ZM28.7687 380.272C28.7687 379.95 28.8654 379.682 29.0588 379.467C29.2593 379.245 29.5529 379.134 29.9396 379.134C30.3263 379.134 30.6199 379.245 30.8205 379.467C31.021 379.682 31.1213 379.95 31.1213 380.272C31.1213 380.595 31.021 380.863 30.8205 381.078C30.6199 381.293 30.3263 381.4 29.9396 381.4C29.5529 381.4 29.2593 381.293 29.0588 381.078C28.8654 380.863 28.7687 380.595 28.7687 380.272ZM33.3879 380.294C33.3879 379.972 33.4845 379.7 33.6779 379.478C33.8784 379.256 34.172 379.145 34.5588 379.145C34.9455 379.145 35.2391 379.256 35.4396 379.478C35.6401 379.7 35.7404 379.972 35.7404 380.294C35.7404 380.616 35.6401 380.885 35.4396 381.1C35.2391 381.314 34.9455 381.422 34.5588 381.422C34.172 381.422 33.8784 381.314 33.6779 381.1C33.4845 380.885 33.3879 380.616 33.3879 380.294ZM40.1786 395H38.1913V378.5H40.1786V395ZM46.4323 395.215C44.8568 395.215 43.5749 394.699 42.5866 393.668C41.5983 392.63 41.1042 391.244 41.1042 389.511V389.146C41.1042 387.993 41.3226 386.965 41.7595 386.062C42.2035 385.153 42.8194 384.444 43.6071 383.936C44.402 383.42 45.2614 383.162 46.1852 383.162C47.6963 383.162 48.8708 383.66 49.7087 384.655C50.5466 385.651 50.9655 387.076 50.9655 388.931V389.758H43.0915C43.1201 390.904 43.4531 391.831 44.0905 392.54C44.735 393.242 45.5514 393.593 46.5397 393.593C47.2416 393.593 47.836 393.45 48.3229 393.163C48.8099 392.877 49.236 392.497 49.6013 392.024L50.8151 392.97C49.8412 394.466 48.3802 395.215 46.4323 395.215ZM46.1852 384.795C45.3832 384.795 44.71 385.089 44.1657 385.676C43.6214 386.256 43.2848 387.072 43.1559 388.125H48.9782V387.975C48.9209 386.965 48.6488 386.184 48.1618 385.633C47.6748 385.074 47.016 384.795 46.1852 384.795ZM54.2114 380.562V383.377H56.3813V384.913H54.2114V392.121C54.2114 392.587 54.308 392.938 54.5014 393.174C54.6948 393.403 55.0242 393.518 55.4897 393.518C55.7189 393.518 56.034 393.475 56.435 393.389V395C55.9122 395.143 55.4038 395.215 54.9096 395.215C54.0216 395.215 53.352 394.946 52.9008 394.409C52.4496 393.872 52.2241 393.109 52.2241 392.121V384.913H50.1079V383.377H52.2241V380.562H54.2114ZM59.1115 395H57.1242V383.377H59.1115V395ZM56.9631 380.294C56.9631 379.972 57.0598 379.7 57.2531 379.478C57.4536 379.256 57.7473 379.145 58.134 379.145C58.5207 379.145 58.8143 379.256 59.0148 379.478C59.2154 379.7 59.3156 379.972 59.3156 380.294C59.3156 380.616 59.2154 380.885 59.0148 381.1C58.8143 381.314 58.5207 381.422 58.134 381.422C57.7473 381.422 57.4536 381.314 57.2531 381.1C57.0598 380.885 56.9631 380.616 56.9631 380.294ZM71.0066 391.917C71.0066 391.38 70.8025 390.965 70.3943 390.671C69.9932 390.37 69.2878 390.112 68.278 389.897C67.2754 389.683 66.4769 389.425 65.8825 389.124C65.2953 388.823 64.8585 388.465 64.572 388.05C64.2927 387.634 64.153 387.14 64.153 386.567C64.153 385.615 64.5541 384.809 65.3562 384.15C66.1654 383.492 67.1967 383.162 68.4499 383.162C69.7676 383.162 70.8347 383.502 71.6511 384.183C72.4747 384.863 72.8864 385.733 72.8864 386.793H70.8884C70.8884 386.249 70.6557 385.78 70.1902 385.386C69.7318 384.992 69.1517 384.795 68.4499 384.795C67.7266 384.795 67.1609 384.952 66.7527 385.268C66.3445 385.583 66.1404 385.994 66.1404 386.503C66.1404 386.983 66.3301 387.344 66.7097 387.588C67.0892 387.831 67.7732 388.064 68.7614 388.286C69.7569 388.508 70.5626 388.773 71.1784 389.081C71.7943 389.389 72.2491 389.761 72.5427 390.198C72.8435 390.628 72.9939 391.154 72.9939 391.777C72.9939 392.816 72.5785 393.65 71.7478 394.28C70.917 394.903 69.8392 395.215 68.5144 395.215C67.5834 395.215 66.7598 395.05 66.0437 394.721C65.3275 394.391 64.7654 393.933 64.3572 393.346C63.9561 392.751 63.7556 392.11 63.7556 391.423H65.7429C65.7787 392.089 66.0437 392.619 66.5378 393.013C67.0391 393.399 67.698 393.593 68.5144 393.593C69.2663 393.593 69.8679 393.442 70.3191 393.142C70.7774 392.834 71.0066 392.425 71.0066 391.917ZM75.6919 393.378H82.4917V395H73.2641V393.539L79.6772 385.021H73.3608V383.377H82.1694V384.784L75.6919 393.378ZM85.136 395H83.1487V383.377H85.136V395ZM82.9875 380.294C82.9875 379.972 83.0842 379.7 83.2776 379.478C83.4781 379.256 83.7717 379.145 84.1584 379.145C84.5452 379.145 84.8388 379.256 85.0393 379.478C85.2398 379.7 85.3401 379.972 85.3401 380.294C85.3401 380.616 85.2398 380.885 85.0393 381.1C84.8388 381.314 84.5452 381.422 84.1584 381.422C83.7717 381.422 83.4781 381.314 83.2776 381.1C83.0842 380.885 82.9875 380.616 82.9875 380.294ZM88.4463 383.377L88.5107 384.838C89.3988 383.721 90.5589 383.162 91.9912 383.162C94.4476 383.162 95.6865 384.548 95.708 387.319V395H93.7207V387.309C93.7135 386.471 93.5202 385.851 93.1406 385.45C92.7682 385.049 92.1846 384.849 91.3896 384.849C90.7451 384.849 90.1794 385.021 89.6924 385.364C89.2054 385.708 88.8258 386.159 88.5537 386.718V395H86.5664V383.377H88.4463ZM99.6414 380.562V383.377H101.811V384.913H99.6414V392.121C99.6414 392.587 99.7381 392.938 99.9314 393.174C100.125 393.403 100.454 393.518 100.92 393.518C101.149 393.518 101.464 393.475 101.865 393.389V395C101.342 395.143 100.834 395.215 100.34 395.215C99.4516 395.215 98.782 394.946 98.3308 394.409C97.8797 393.872 97.6541 393.109 97.6541 392.121V384.913H95.5379V383.377H97.6541V380.562H99.6414ZM107.206 395.215C105.63 395.215 104.348 394.699 103.36 393.668C102.372 392.63 101.877 391.244 101.877 389.511V389.146C101.877 387.993 102.096 386.965 102.533 386.062C102.977 385.153 103.593 384.444 104.38 383.936C105.175 383.42 106.035 383.162 106.959 383.162C108.47 383.162 109.644 383.66 110.482 384.655C111.32 385.651 111.739 387.076 111.739 388.931V389.758H103.865C103.893 390.904 104.226 391.831 104.864 392.54C105.508 393.242 106.325 393.593 107.313 393.593C108.015 393.593 108.609 393.45 109.096 393.163C109.583 392.877 110.009 392.497 110.375 392.024L111.588 392.97C110.614 394.466 109.154 395.215 107.206 395.215ZM106.959 384.795C106.156 384.795 105.483 385.089 104.939 385.676C104.395 386.256 104.058 387.072 103.929 388.125H109.751V387.975C109.694 386.965 109.422 386.184 108.935 385.633C108.448 385.074 107.789 384.795 106.959 384.795ZM115.533 389.618L114.286 390.918V395H112.299V378.5H114.286V388.479L115.35 387.201L118.97 383.377H121.387L116.865 388.232L121.913 395H119.582L115.533 389.618ZM132.143 391.917C132.143 391.38 131.939 390.965 131.531 390.671C131.13 390.37 130.425 390.112 129.415 389.897C128.412 389.683 127.614 389.425 127.019 389.124C126.432 388.823 125.995 388.465 125.709 388.05C125.429 387.634 125.29 387.14 125.29 386.567C125.29 385.615 125.691 384.809 126.493 384.15C127.302 383.492 128.333 383.162 129.587 383.162C130.904 383.162 131.971 383.502 132.788 384.183C133.611 384.863 134.023 385.733 134.023 386.793H132.025C132.025 386.249 131.792 385.78 131.327 385.386C130.869 384.992 130.289 384.795 129.587 384.795C128.863 384.795 128.298 384.952 127.889 385.268C127.481 385.583 127.277 385.994 127.277 386.503C127.277 386.983 127.467 387.344 127.846 387.588C128.226 387.831 128.91 388.064 129.898 388.286C130.894 388.508 131.699 388.773 132.315 389.081C132.931 389.389 133.386 389.761 133.679 390.198C133.98 390.628 134.131 391.154 134.131 391.777C134.131 392.816 133.715 393.65 132.885 394.28C132.054 394.903 130.976 395.215 129.651 395.215C128.72 395.215 127.897 395.05 127.18 394.721C126.464 394.391 125.902 393.933 125.494 393.346C125.093 392.751 124.892 392.11 124.892 391.423H126.88C126.915 392.089 127.18 392.619 127.675 393.013C128.176 393.399 128.835 393.593 129.651 393.593C130.403 393.593 131.005 393.442 131.456 393.142C131.914 392.834 132.143 392.425 132.143 391.917ZM136.829 393.378H143.628V395H134.401V393.539L140.814 385.021H134.498V383.377H143.306V384.784L136.829 393.378ZM148.765 395.215C147.189 395.215 145.908 394.699 144.919 393.668C143.931 392.63 143.437 391.244 143.437 389.511V389.146C143.437 387.993 143.655 386.965 144.092 386.062C144.536 385.153 145.152 384.444 145.94 383.936C146.735 383.42 147.594 383.162 148.518 383.162C150.029 383.162 151.203 383.66 152.041 384.655C152.879 385.651 153.298 387.076 153.298 388.931V389.758H145.424C145.453 390.904 145.786 391.831 146.423 392.54C147.068 393.242 147.884 393.593 148.872 393.593C149.574 393.593 150.169 393.45 150.656 393.163C151.143 392.877 151.569 392.497 151.934 392.024L153.148 392.97C152.174 394.466 150.713 395.215 148.765 395.215ZM148.518 384.795C147.716 384.795 147.043 385.089 146.498 385.676C145.954 386.256 145.617 387.072 145.489 388.125H151.311V387.975C151.254 386.965 150.981 386.184 150.494 385.633C150.007 385.074 149.349 384.795 148.518 384.795ZM159.466 385.16C159.165 385.11 158.839 385.085 158.488 385.085C157.185 385.085 156.301 385.64 155.835 386.75V395H153.848V383.377H155.781L155.814 384.72C156.465 383.681 157.389 383.162 158.585 383.162C158.972 383.162 159.265 383.212 159.466 383.312V385.16ZM161.702 395H159.715V383.377H161.702V395ZM159.554 380.294C159.554 379.972 159.65 379.7 159.844 379.478C160.044 379.256 160.338 379.145 160.724 379.145C161.111 379.145 161.405 379.256 161.605 379.478C161.806 379.7 161.906 379.972 161.906 380.294C161.906 380.616 161.806 380.885 161.605 381.1C161.405 381.314 161.111 381.422 160.724 381.422C160.338 381.422 160.044 381.314 159.844 381.1C159.65 380.885 159.554 380.616 159.554 380.294ZM165.012 383.377L165.077 384.838C165.965 383.721 167.125 383.162 168.557 383.162C171.014 383.162 172.253 384.548 172.274 387.319V395H170.287V387.309C170.28 386.471 170.086 385.851 169.707 385.45C169.334 385.049 168.751 384.849 167.956 384.849C167.311 384.849 166.745 385.021 166.258 385.364C165.771 385.708 165.392 386.159 165.12 386.718V395H163.132V383.377H165.012ZM176.207 380.562V383.377H178.377V384.913H176.207V392.121C176.207 392.587 176.304 392.938 176.497 393.174C176.691 393.403 177.02 393.518 177.486 393.518C177.715 393.518 178.03 393.475 178.431 393.389V395C177.908 395.143 177.4 395.215 176.906 395.215C176.018 395.215 175.348 394.946 174.897 394.409C174.446 393.872 174.22 393.109 174.22 392.121V384.913H172.104V383.377H174.22V380.562H176.207Z" fill="#ECE7DD"/>
</svg>
