<svg width="187" height="721" viewBox="0 0 187 721" fill="none" xmlns="http://www.w3.org/2000/svg">
<rect x="0.371094" y="0.55835" width="186.094" height="720.346" fill="#987033"/>
<path d="M63.1587 636.226H59.2739V647H57.6885V636.226H53.812V634.914H63.1587V636.226ZM74.0161 641.347C74.0161 642.531 73.8169 643.566 73.4185 644.452C73.02 645.332 72.4556 646.004 71.7251 646.469C70.9946 646.934 70.1424 647.166 69.1685 647.166C68.2166 647.166 67.3727 646.934 66.6367 646.469C65.9007 645.998 65.328 645.332 64.9185 644.468C64.5145 643.599 64.307 642.595 64.2959 641.455V640.583C64.2959 639.421 64.4979 638.395 64.9019 637.504C65.3058 636.613 65.8758 635.932 66.6118 635.462C67.3534 634.986 68.2 634.748 69.1519 634.748C70.1203 634.748 70.9725 634.983 71.7085 635.454C72.45 635.918 73.02 636.596 73.4185 637.487C73.8169 638.373 74.0161 639.405 74.0161 640.583V641.347ZM72.4307 640.567C72.4307 639.134 72.1429 638.035 71.5674 637.271C70.9919 636.502 70.1867 636.118 69.1519 636.118C68.1447 636.118 67.3506 636.502 66.7695 637.271C66.194 638.035 65.8979 639.098 65.8813 640.459V641.347C65.8813 642.736 66.1719 643.829 66.7529 644.626C67.3395 645.417 68.1447 645.813 69.1685 645.813C70.1978 645.813 70.9946 645.439 71.5591 644.692C72.1235 643.94 72.4141 642.863 72.4307 641.463V640.567ZM80.2251 644.883L83.6782 634.914H85.4214L80.939 647H79.5278L75.0537 634.914H76.7886L80.2251 644.883ZM93.0913 643.846H88.0278L86.8906 647H85.2471L89.8623 634.914H91.2568L95.8804 647H94.2451L93.0913 643.846ZM88.5093 642.534H92.6182L90.5596 636.881L88.5093 642.534ZM91.3481 631.677H93.2075L90.9829 634.117H89.7461L91.3481 631.677ZM97.5073 647V634.914H101.458C102.77 634.914 103.755 635.185 104.414 635.728C105.078 636.27 105.41 637.072 105.41 638.135C105.41 638.699 105.249 639.2 104.928 639.637C104.607 640.069 104.17 640.404 103.617 640.642C104.27 640.824 104.784 641.173 105.161 641.688C105.542 642.197 105.733 642.805 105.733 643.514C105.733 644.598 105.382 645.451 104.679 646.07C103.976 646.69 102.983 647 101.699 647H97.5073ZM99.1011 641.347V645.697H101.732C102.474 645.697 103.058 645.506 103.484 645.124C103.916 644.737 104.131 644.205 104.131 643.53C104.131 642.075 103.34 641.347 101.757 641.347H99.1011ZM99.1011 640.069H101.508C102.206 640.069 102.762 639.895 103.177 639.546C103.597 639.197 103.808 638.724 103.808 638.126C103.808 637.462 103.614 636.981 103.227 636.682C102.839 636.378 102.25 636.226 101.458 636.226H99.1011V640.069ZM108.099 647V634.914H112.05C113.362 634.914 114.347 635.185 115.005 635.728C115.669 636.27 116.001 637.072 116.001 638.135C116.001 638.699 115.841 639.2 115.52 639.637C115.199 640.069 114.762 640.404 114.208 640.642C114.861 640.824 115.376 641.173 115.752 641.688C116.134 642.197 116.325 642.805 116.325 643.514C116.325 644.598 115.974 645.451 115.271 646.07C114.568 646.69 113.575 647 112.291 647H108.099ZM109.693 641.347V645.697H112.324C113.066 645.697 113.65 645.506 114.076 645.124C114.507 644.737 114.723 644.205 114.723 643.53C114.723 642.075 113.932 641.347 112.349 641.347H109.693ZM109.693 640.069H112.1C112.797 640.069 113.354 639.895 113.769 639.546C114.189 639.197 114.399 638.724 114.399 638.126C114.399 637.462 114.206 636.981 113.818 636.682C113.431 636.378 112.842 636.226 112.05 636.226H109.693V640.069ZM129.582 643.846H124.518L123.381 647H121.737L126.353 634.914H127.747L132.371 647H130.735L129.582 643.846ZM125 642.534H129.108L127.05 636.881L125 642.534ZM13.9683 654.914L16.666 663.323L19.3555 654.914H23.1904V667H20.2686V664.178L20.5508 658.4L17.6289 667H15.7031L12.7729 658.392L13.0552 664.178V667H10.1416V654.914H13.9683ZM32.5454 661.878H27.9634V664.759H33.3755V667H25.0498V654.914H33.3921V657.164H27.9634V659.712H32.5454V661.878ZM44.2163 657.164H40.5889V667H37.6753V657.164H34.1143V654.914H44.2163V657.164ZM51.3218 664.742H47.3291L46.6318 667H43.519L47.9517 654.914H50.6909L55.1567 667H52.0273L51.3218 664.742ZM48.0264 662.493H50.6245L49.3213 658.301L48.0264 662.493ZM61.3823 662.875H56.3936V660.708H61.3823V662.875ZM70.563 664.742H66.5703L65.873 667H62.7603L67.1929 654.914H69.9321L74.3979 667H71.2686L70.563 664.742ZM67.2676 662.493H69.8657L68.5625 658.301L67.2676 662.493ZM75.2861 667V654.914H79.1792C80.2472 654.914 81.2074 655.158 82.0596 655.645C82.9118 656.126 83.5758 656.809 84.0518 657.695C84.5332 658.575 84.7767 659.562 84.7822 660.658V661.214C84.7822 662.321 84.547 663.314 84.0767 664.194C83.6118 665.069 82.9533 665.755 82.1011 666.253C81.2544 666.745 80.3081 666.994 79.2622 667H75.2861ZM78.1997 657.164V664.759H79.2124C80.048 664.759 80.6899 664.463 81.1382 663.871C81.5864 663.273 81.8105 662.388 81.8105 661.214V660.691C81.8105 659.524 81.5864 658.644 81.1382 658.052C80.6899 657.46 80.0369 657.164 79.1792 657.164H78.1997ZM92.9585 664.742H88.9658L88.2686 667H85.1558L89.5884 654.914H92.3276L96.7935 667H93.6641L92.9585 664.742ZM89.6631 662.493H92.2612L90.958 658.301L89.6631 662.493ZM106.173 657.164H102.546V667H99.6323V657.164H96.0713V654.914H106.173V657.164ZM107.41 667V654.914H111.751C113.306 654.914 114.488 655.199 115.296 655.769C116.109 656.339 116.516 657.166 116.516 658.251C116.516 658.876 116.372 659.41 116.084 659.853C115.797 660.296 115.373 660.622 114.814 660.833C115.445 660.999 115.93 661.308 116.267 661.762C116.605 662.216 116.773 662.769 116.773 663.422C116.773 664.607 116.397 665.498 115.645 666.095C114.897 666.687 113.788 666.989 112.316 667H107.41ZM110.324 661.862V664.759H112.233C112.759 664.759 113.163 664.64 113.445 664.402C113.727 664.158 113.868 663.818 113.868 663.381C113.868 662.374 113.367 661.867 112.366 661.862H110.324ZM110.324 659.953H111.843C112.479 659.947 112.933 659.831 113.204 659.604C113.475 659.377 113.611 659.042 113.611 658.6C113.611 658.09 113.464 657.725 113.171 657.504C112.878 657.277 112.404 657.164 111.751 657.164H110.324V659.953ZM125.249 664.742H121.256L120.559 667H117.446L121.878 654.914H124.618L129.083 667H125.954L125.249 664.742ZM121.953 662.493H124.551L123.248 658.301L121.953 662.493ZM123.63 651.677H126.585L124.277 654.283H121.995L123.63 651.677ZM133.242 664.759H139.02V667H129.606V665.464L135.367 657.164H129.573V654.914H138.961V656.408L133.242 664.759ZM143.452 667H140.547V654.914H143.452V667ZM151.711 663.788C151.711 663.361 151.559 663.029 151.255 662.792C150.956 662.554 150.428 662.307 149.669 662.053C148.911 661.798 148.292 661.552 147.81 661.314C146.244 660.545 145.461 659.488 145.461 658.143C145.461 657.473 145.655 656.884 146.042 656.375C146.435 655.86 146.988 655.462 147.702 655.18C148.416 654.892 149.218 654.748 150.109 654.748C150.978 654.748 151.756 654.903 152.442 655.213C153.134 655.523 153.67 655.965 154.052 656.541C154.434 657.111 154.625 657.764 154.625 658.5H151.72C151.72 658.007 151.568 657.626 151.263 657.354C150.964 657.083 150.558 656.948 150.043 656.948C149.523 656.948 149.111 657.064 148.806 657.296C148.507 657.523 148.358 657.814 148.358 658.168C148.358 658.478 148.524 658.76 148.856 659.015C149.188 659.264 149.772 659.524 150.607 659.795C151.443 660.061 152.129 660.348 152.666 660.658C153.972 661.411 154.625 662.448 154.625 663.771C154.625 664.828 154.227 665.658 153.43 666.261C152.633 666.864 151.54 667.166 150.151 667.166C149.171 667.166 148.283 666.992 147.486 666.643C146.695 666.289 146.097 665.807 145.693 665.199C145.295 664.584 145.096 663.879 145.096 663.082H148.018C148.018 663.729 148.184 664.208 148.516 664.518C148.853 664.822 149.398 664.975 150.151 664.975C150.632 664.975 151.011 664.872 151.288 664.667C151.57 664.457 151.711 664.164 151.711 663.788ZM161.042 662.111H158.203V667H156.601V654.914H160.602C161.963 654.914 163.009 655.224 163.739 655.844C164.475 656.464 164.843 657.366 164.843 658.55C164.843 659.302 164.639 659.958 164.229 660.517C163.825 661.076 163.261 661.494 162.536 661.771L165.375 666.9V667H163.665L161.042 662.111ZM158.203 660.808H160.651C161.443 660.808 162.071 660.603 162.536 660.193C163.006 659.784 163.241 659.236 163.241 658.55C163.241 657.803 163.017 657.23 162.569 656.832C162.126 656.433 161.484 656.231 160.643 656.226H158.203V660.808ZM173.758 663.846H168.695L167.558 667H165.914L170.529 654.914H171.924L176.547 667H174.912L173.758 663.846ZM169.176 662.534H173.285L171.227 656.881L169.176 662.534Z" fill="#ECE7DD"/>
<path d="M12.2109 333.625L15.1328 341.875L18.0391 333.625H21.1172V345H18.7656V341.891L19 336.523L15.9297 345H14.3203L11.2578 336.531L11.4922 341.891V345H9.14844V333.625H12.2109ZM26.9062 345.156C25.6667 345.156 24.6562 344.776 23.875 344.016C23.099 343.255 22.7109 342.242 22.7109 340.977V340.758C22.7109 339.909 22.875 339.151 23.2031 338.484C23.5312 337.812 23.9948 337.297 24.5938 336.938C25.1979 336.573 25.8854 336.391 26.6562 336.391C27.8125 336.391 28.7214 336.755 29.3828 337.484C30.0495 338.214 30.3828 339.247 30.3828 340.586V341.508H25C25.0729 342.06 25.2917 342.503 25.6562 342.836C26.026 343.169 26.4922 343.336 27.0547 343.336C27.9245 343.336 28.6042 343.021 29.0938 342.391L30.2031 343.633C29.8646 344.112 29.4062 344.487 28.8281 344.758C28.25 345.023 27.6094 345.156 26.9062 345.156ZM26.6484 338.219C26.2005 338.219 25.8359 338.37 25.5547 338.672C25.2786 338.974 25.1016 339.406 25.0234 339.969H28.1641V339.789C28.1536 339.289 28.0182 338.904 27.7578 338.633C27.4974 338.357 27.1276 338.219 26.6484 338.219ZM34.375 334.469V336.547H35.8203V338.203H34.375V342.422C34.375 342.734 34.4349 342.958 34.5547 343.094C34.6745 343.229 34.9036 343.297 35.2422 343.297C35.4922 343.297 35.7135 343.279 35.9062 343.242V344.953C35.4635 345.089 35.0078 345.156 34.5391 345.156C32.9557 345.156 32.1484 344.357 32.1172 342.758V338.203H30.8828V336.547H32.1172V334.469H34.375ZM41.9766 345C41.8724 344.797 41.7969 344.544 41.75 344.242C41.2031 344.852 40.4922 345.156 39.6172 345.156C38.7891 345.156 38.1016 344.917 37.5547 344.438C37.013 343.958 36.7422 343.354 36.7422 342.625C36.7422 341.729 37.0729 341.042 37.7344 340.562C38.401 340.083 39.362 339.841 40.6172 339.836H41.6562V339.352C41.6562 338.961 41.5547 338.648 41.3516 338.414C41.1536 338.18 40.8385 338.062 40.4062 338.062C40.026 338.062 39.7266 338.154 39.5078 338.336C39.2943 338.518 39.1875 338.768 39.1875 339.086H36.9297C36.9297 338.596 37.0807 338.143 37.3828 337.727C37.6849 337.31 38.112 336.984 38.6641 336.75C39.2161 336.51 39.8359 336.391 40.5234 336.391C41.5651 336.391 42.3906 336.654 43 337.18C43.6146 337.701 43.9219 338.435 43.9219 339.383V343.047C43.9271 343.849 44.0391 344.456 44.2578 344.867V345H41.9766ZM40.1094 343.43C40.4427 343.43 40.75 343.357 41.0312 343.211C41.3125 343.06 41.5208 342.859 41.6562 342.609V341.156H40.8125C39.6823 341.156 39.0807 341.547 39.0078 342.328L39 342.461C39 342.742 39.099 342.974 39.2969 343.156C39.4948 343.339 39.7656 343.43 40.1094 343.43ZM50.5547 345C50.4505 344.797 50.375 344.544 50.3281 344.242C49.7812 344.852 49.0703 345.156 48.1953 345.156C47.3672 345.156 46.6797 344.917 46.1328 344.438C45.5911 343.958 45.3203 343.354 45.3203 342.625C45.3203 341.729 45.651 341.042 46.3125 340.562C46.9792 340.083 47.9401 339.841 49.1953 339.836H50.2344V339.352C50.2344 338.961 50.1328 338.648 49.9297 338.414C49.7318 338.18 49.4167 338.062 48.9844 338.062C48.6042 338.062 48.3047 338.154 48.0859 338.336C47.8724 338.518 47.7656 338.768 47.7656 339.086H45.5078C45.5078 338.596 45.6589 338.143 45.9609 337.727C46.263 337.31 46.6901 336.984 47.2422 336.75C47.7943 336.51 48.4141 336.391 49.1016 336.391C50.1432 336.391 50.9688 336.654 51.5781 337.18C52.1927 337.701 52.5 338.435 52.5 339.383V343.047C52.5052 343.849 52.6172 344.456 52.8359 344.867V345H50.5547ZM48.6875 343.43C49.0208 343.43 49.3281 343.357 49.6094 343.211C49.8906 343.06 50.099 342.859 50.2344 342.609V341.156H49.3906C48.2604 341.156 47.6589 341.547 47.5859 342.328L47.5781 342.461C47.5781 342.742 47.6771 342.974 47.875 343.156C48.0729 343.339 48.3438 343.43 48.6875 343.43ZM53.8828 340.711C53.8828 339.393 54.1771 338.344 54.7656 337.562C55.3594 336.781 56.1693 336.391 57.1953 336.391C58.0182 336.391 58.6979 336.698 59.2344 337.312V333H61.5V345H59.4609L59.3516 344.102C58.7891 344.805 58.0651 345.156 57.1797 345.156C56.1849 345.156 55.3854 344.766 54.7812 343.984C54.1823 343.198 53.8828 342.107 53.8828 340.711ZM56.1406 340.875C56.1406 341.667 56.2786 342.273 56.5547 342.695C56.8307 343.117 57.2318 343.328 57.7578 343.328C58.4557 343.328 58.9479 343.034 59.2344 342.445V339.109C58.9531 338.521 58.4661 338.227 57.7734 338.227C56.6849 338.227 56.1406 339.109 56.1406 340.875ZM68.1484 345C68.0443 344.797 67.9688 344.544 67.9219 344.242C67.375 344.852 66.6641 345.156 65.7891 345.156C64.9609 345.156 64.2734 344.917 63.7266 344.438C63.1849 343.958 62.9141 343.354 62.9141 342.625C62.9141 341.729 63.2448 341.042 63.9062 340.562C64.5729 340.083 65.5339 339.841 66.7891 339.836H67.8281V339.352C67.8281 338.961 67.7266 338.648 67.5234 338.414C67.3255 338.18 67.0104 338.062 66.5781 338.062C66.1979 338.062 65.8984 338.154 65.6797 338.336C65.4661 338.518 65.3594 338.768 65.3594 339.086H63.1016C63.1016 338.596 63.2526 338.143 63.5547 337.727C63.8568 337.31 64.2839 336.984 64.8359 336.75C65.388 336.51 66.0078 336.391 66.6953 336.391C67.737 336.391 68.5625 336.654 69.1719 337.18C69.7865 337.701 70.0938 338.435 70.0938 339.383V343.047C70.099 343.849 70.2109 344.456 70.4297 344.867V345H68.1484ZM66.2812 343.43C66.6146 343.43 66.9219 343.357 67.2031 343.211C67.4844 343.06 67.6927 342.859 67.8281 342.609V341.156H66.9844C65.8542 341.156 65.2526 341.547 65.1797 342.328L65.1719 342.461C65.1719 342.742 65.2708 342.974 65.4688 343.156C65.6667 343.339 65.9375 343.43 66.2812 343.43ZM74.5312 334.469V336.547H75.9766V338.203H74.5312V342.422C74.5312 342.734 74.5911 342.958 74.7109 343.094C74.8307 343.229 75.0599 343.297 75.3984 343.297C75.6484 343.297 75.8698 343.279 76.0625 343.242V344.953C75.6198 345.089 75.1641 345.156 74.6953 345.156C73.112 345.156 72.3047 344.357 72.2734 342.758V338.203H71.0391V336.547H72.2734V334.469H74.5312ZM76.6484 340.695C76.6484 339.857 76.8099 339.109 77.1328 338.453C77.4557 337.797 77.9193 337.289 78.5234 336.93C79.1328 336.57 79.8385 336.391 80.6406 336.391C81.7812 336.391 82.7109 336.74 83.4297 337.438C84.1536 338.135 84.5573 339.083 84.6406 340.281L84.6562 340.859C84.6562 342.156 84.2943 343.198 83.5703 343.984C82.8464 344.766 81.875 345.156 80.6562 345.156C79.4375 345.156 78.4635 344.766 77.7344 343.984C77.0104 343.203 76.6484 342.141 76.6484 340.797V340.695ZM78.9062 340.859C78.9062 341.661 79.0573 342.276 79.3594 342.703C79.6615 343.125 80.0938 343.336 80.6562 343.336C81.2031 343.336 81.6302 343.128 81.9375 342.711C82.2448 342.289 82.3984 341.617 82.3984 340.695C82.3984 339.909 82.2448 339.299 81.9375 338.867C81.6302 338.435 81.1979 338.219 80.6406 338.219C80.0885 338.219 79.6615 338.435 79.3594 338.867C79.0573 339.294 78.9062 339.958 78.9062 340.859ZM89.1172 341.609L88.3047 342.422V345H86.0469V333H88.3047V339.648L88.7422 339.086L90.9062 336.547H93.6172L90.5625 340.07L93.8828 345H91.2891L89.1172 341.609ZM101.281 334.469V336.547H102.727V338.203H101.281V342.422C101.281 342.734 101.341 342.958 101.461 343.094C101.581 343.229 101.81 343.297 102.148 343.297C102.398 343.297 102.62 343.279 102.812 343.242V344.953C102.37 345.089 101.914 345.156 101.445 345.156C99.862 345.156 99.0547 344.357 99.0234 342.758V338.203H97.7891V336.547H99.0234V334.469H101.281ZM107.875 345.156C106.635 345.156 105.625 344.776 104.844 344.016C104.068 343.255 103.68 342.242 103.68 340.977V340.758C103.68 339.909 103.844 339.151 104.172 338.484C104.5 337.812 104.964 337.297 105.562 336.938C106.167 336.573 106.854 336.391 107.625 336.391C108.781 336.391 109.69 336.755 110.352 337.484C111.018 338.214 111.352 339.247 111.352 340.586V341.508H105.969C106.042 342.06 106.26 342.503 106.625 342.836C106.995 343.169 107.461 343.336 108.023 343.336C108.893 343.336 109.573 343.021 110.062 342.391L111.172 343.633C110.833 344.112 110.375 344.487 109.797 344.758C109.219 345.023 108.578 345.156 107.875 345.156ZM107.617 338.219C107.169 338.219 106.805 338.37 106.523 338.672C106.247 338.974 106.07 339.406 105.992 339.969H109.133V339.789C109.122 339.289 108.987 338.904 108.727 338.633C108.466 338.357 108.096 338.219 107.617 338.219ZM107.82 333H110.281L108.117 335.422H106.281L107.82 333ZM114.758 336.547L114.828 337.492C115.427 336.758 116.237 336.391 117.258 336.391C118.346 336.391 119.094 336.82 119.5 337.68C120.094 336.82 120.94 336.391 122.039 336.391C122.956 336.391 123.638 336.659 124.086 337.195C124.534 337.727 124.758 338.529 124.758 339.602V345H122.492V339.609C122.492 339.13 122.398 338.781 122.211 338.562C122.023 338.339 121.693 338.227 121.219 338.227C120.542 338.227 120.073 338.549 119.812 339.195L119.82 345H117.562V339.617C117.562 339.128 117.466 338.773 117.273 338.555C117.081 338.336 116.753 338.227 116.289 338.227C115.648 338.227 115.185 338.492 114.898 339.023V345H112.641V336.547H114.758ZM131.398 345C131.294 344.797 131.219 344.544 131.172 344.242C130.625 344.852 129.914 345.156 129.039 345.156C128.211 345.156 127.523 344.917 126.977 344.438C126.435 343.958 126.164 343.354 126.164 342.625C126.164 341.729 126.495 341.042 127.156 340.562C127.823 340.083 128.784 339.841 130.039 339.836H131.078V339.352C131.078 338.961 130.977 338.648 130.773 338.414C130.576 338.18 130.26 338.062 129.828 338.062C129.448 338.062 129.148 338.154 128.93 338.336C128.716 338.518 128.609 338.768 128.609 339.086H126.352C126.352 338.596 126.503 338.143 126.805 337.727C127.107 337.31 127.534 336.984 128.086 336.75C128.638 336.51 129.258 336.391 129.945 336.391C130.987 336.391 131.812 336.654 132.422 337.18C133.036 337.701 133.344 338.435 133.344 339.383V343.047C133.349 343.849 133.461 344.456 133.68 344.867V345H131.398ZM129.531 343.43C129.865 343.43 130.172 343.357 130.453 343.211C130.734 343.06 130.943 342.859 131.078 342.609V341.156H130.234C129.104 341.156 128.503 341.547 128.43 342.328L128.422 342.461C128.422 342.742 128.521 342.974 128.719 343.156C128.917 343.339 129.188 343.43 129.531 343.43ZM138.148 341.609L137.336 342.422V345H135.078V333H137.336V339.648L137.773 339.086L139.938 336.547H142.648L139.594 340.07L142.914 345H140.32L138.148 341.609ZM143.273 340.695C143.273 339.857 143.435 339.109 143.758 338.453C144.081 337.797 144.544 337.289 145.148 336.93C145.758 336.57 146.464 336.391 147.266 336.391C148.406 336.391 149.336 336.74 150.055 337.438C150.779 338.135 151.182 339.083 151.266 340.281L151.281 340.859C151.281 342.156 150.919 343.198 150.195 343.984C149.471 344.766 148.5 345.156 147.281 345.156C146.062 345.156 145.089 344.766 144.359 343.984C143.635 343.203 143.273 342.141 143.273 340.797V340.695ZM145.531 340.859C145.531 341.661 145.682 342.276 145.984 342.703C146.286 343.125 146.719 343.336 147.281 343.336C147.828 343.336 148.255 343.128 148.562 342.711C148.87 342.289 149.023 341.617 149.023 340.695C149.023 339.909 148.87 339.299 148.562 338.867C148.255 338.435 147.823 338.219 147.266 338.219C146.714 338.219 146.286 338.435 145.984 338.867C145.682 339.294 145.531 339.958 145.531 340.859ZM146.438 334.336C146.438 334.612 146.336 334.846 146.133 335.039C145.93 335.227 145.669 335.32 145.352 335.32C145.029 335.32 144.768 335.224 144.57 335.031C144.372 334.839 144.273 334.607 144.273 334.336C144.273 334.065 144.372 333.833 144.57 333.641C144.768 333.443 145.029 333.344 145.352 333.344C145.674 333.344 145.935 333.443 146.133 333.641C146.336 333.833 146.438 334.065 146.438 334.336ZM148.078 334.336C148.078 334.055 148.182 333.82 148.391 333.633C148.604 333.44 148.862 333.344 149.164 333.344C149.471 333.344 149.727 333.44 149.93 333.633C150.138 333.826 150.242 334.06 150.242 334.336C150.242 334.607 150.143 334.841 149.945 335.039C149.747 335.232 149.487 335.328 149.164 335.328C148.841 335.328 148.578 335.232 148.375 335.039C148.177 334.841 148.078 334.607 148.078 334.336ZM157.422 338.664C157.115 338.622 156.844 338.602 156.609 338.602C155.755 338.602 155.195 338.891 154.93 339.469V345H152.672V336.547H154.805L154.867 337.555C155.32 336.779 155.948 336.391 156.75 336.391C157 336.391 157.234 336.424 157.453 336.492L157.422 338.664ZM157.883 340.695C157.883 339.857 158.044 339.109 158.367 338.453C158.69 337.797 159.154 337.289 159.758 336.93C160.367 336.57 161.073 336.391 161.875 336.391C163.016 336.391 163.945 336.74 164.664 337.438C165.388 338.135 165.792 339.083 165.875 340.281L165.891 340.859C165.891 342.156 165.529 343.198 164.805 343.984C164.081 344.766 163.109 345.156 161.891 345.156C160.672 345.156 159.698 344.766 158.969 343.984C158.245 343.203 157.883 342.141 157.883 340.797V340.695ZM160.141 340.859C160.141 341.661 160.292 342.276 160.594 342.703C160.896 343.125 161.328 343.336 161.891 343.336C162.438 343.336 162.865 343.128 163.172 342.711C163.479 342.289 163.633 341.617 163.633 340.695C163.633 339.909 163.479 339.299 163.172 338.867C162.865 338.435 162.432 338.219 161.875 338.219C161.323 338.219 160.896 338.435 160.594 338.867C160.292 339.294 160.141 339.958 160.141 340.859ZM161.047 334.336C161.047 334.612 160.945 334.846 160.742 335.039C160.539 335.227 160.279 335.32 159.961 335.32C159.638 335.32 159.378 335.224 159.18 335.031C158.982 334.839 158.883 334.607 158.883 334.336C158.883 334.065 158.982 333.833 159.18 333.641C159.378 333.443 159.638 333.344 159.961 333.344C160.284 333.344 160.544 333.443 160.742 333.641C160.945 333.833 161.047 334.065 161.047 334.336ZM162.688 334.336C162.688 334.055 162.792 333.82 163 333.633C163.214 333.44 163.471 333.344 163.773 333.344C164.081 333.344 164.336 333.44 164.539 333.633C164.747 333.826 164.852 334.06 164.852 334.336C164.852 334.607 164.753 334.841 164.555 335.039C164.357 335.232 164.096 335.328 163.773 335.328C163.451 335.328 163.188 335.232 162.984 335.039C162.786 334.841 162.688 334.607 162.688 334.336ZM170.352 341.609L169.539 342.422V345H167.281V333H169.539V339.648L169.977 339.086L172.141 336.547H174.852L171.797 340.07L175.117 345H172.523L170.352 341.609ZM176.414 347.852L175.234 347.234L175.516 346.727C175.865 346.091 176.044 345.458 176.055 344.828V343.078H177.961L177.953 344.641C177.948 345.219 177.802 345.802 177.516 346.391C177.229 346.979 176.862 347.466 176.414 347.852ZM2.97656 359.695C2.97656 358.857 3.13802 358.109 3.46094 357.453C3.78385 356.797 4.2474 356.289 4.85156 355.93C5.46094 355.57 6.16667 355.391 6.96875 355.391C8.10938 355.391 9.03906 355.74 9.75781 356.438C10.4818 357.135 10.8854 358.083 10.9688 359.281L10.9844 359.859C10.9844 361.156 10.6224 362.198 9.89844 362.984C9.17448 363.766 8.20312 364.156 6.98438 364.156C5.76562 364.156 4.79167 363.766 4.0625 362.984C3.33854 362.203 2.97656 361.141 2.97656 359.797V359.695ZM5.23438 359.859C5.23438 360.661 5.38542 361.276 5.6875 361.703C5.98958 362.125 6.42188 362.336 6.98438 362.336C7.53125 362.336 7.95833 362.128 8.26562 361.711C8.57292 361.289 8.72656 360.617 8.72656 359.695C8.72656 358.909 8.57292 358.299 8.26562 357.867C7.95833 357.435 7.52604 357.219 6.96875 357.219C6.41667 357.219 5.98958 357.435 5.6875 357.867C5.38542 358.294 5.23438 358.958 5.23438 359.859ZM17.125 357.664C16.8177 357.622 16.5469 357.602 16.3125 357.602C15.4583 357.602 14.8984 357.891 14.6328 358.469V364H12.375V355.547H14.5078L14.5703 356.555C15.0234 355.779 15.651 355.391 16.4531 355.391C16.7031 355.391 16.9375 355.424 17.1562 355.492L17.125 357.664ZM22.7969 361.664C22.7969 361.388 22.6589 361.172 22.3828 361.016C22.112 360.854 21.6745 360.711 21.0703 360.586C19.0599 360.164 18.0547 359.31 18.0547 358.023C18.0547 357.273 18.3646 356.648 18.9844 356.148C19.6094 355.643 20.4245 355.391 21.4297 355.391C22.5026 355.391 23.3594 355.643 24 356.148C24.6458 356.654 24.9688 357.31 24.9688 358.117H22.7109C22.7109 357.794 22.6068 357.529 22.3984 357.32C22.1901 357.107 21.8646 357 21.4219 357C21.0417 357 20.7474 357.086 20.5391 357.258C20.3307 357.43 20.2266 357.648 20.2266 357.914C20.2266 358.164 20.3438 358.367 20.5781 358.523C20.8177 358.674 21.2188 358.807 21.7812 358.922C22.3438 359.031 22.8177 359.156 23.2031 359.297C24.3958 359.734 24.9922 360.492 24.9922 361.57C24.9922 362.341 24.6615 362.966 24 363.445C23.3385 363.919 22.4844 364.156 21.4375 364.156C20.7292 364.156 20.099 364.031 19.5469 363.781C19 363.526 18.5703 363.18 18.2578 362.742C17.9453 362.299 17.7891 361.823 17.7891 361.312H19.9297C19.9505 361.714 20.099 362.021 20.375 362.234C20.651 362.448 21.0208 362.555 21.4844 362.555C21.9167 362.555 22.2422 362.474 22.4609 362.312C22.6849 362.146 22.7969 361.93 22.7969 361.664ZM29.0469 362.18H33.1797V364H26.1641V362.625L30.1406 357.375H26.2812V355.547H33.0547V356.883L29.0469 362.18ZM39.4922 364C39.388 363.797 39.3125 363.544 39.2656 363.242C38.7188 363.852 38.0078 364.156 37.1328 364.156C36.3047 364.156 35.6172 363.917 35.0703 363.438C34.5286 362.958 34.2578 362.354 34.2578 361.625C34.2578 360.729 34.5885 360.042 35.25 359.562C35.9167 359.083 36.8776 358.841 38.1328 358.836H39.1719V358.352C39.1719 357.961 39.0703 357.648 38.8672 357.414C38.6693 357.18 38.3542 357.062 37.9219 357.062C37.5417 357.062 37.2422 357.154 37.0234 357.336C36.8099 357.518 36.7031 357.768 36.7031 358.086H34.4453C34.4453 357.596 34.5964 357.143 34.8984 356.727C35.2005 356.31 35.6276 355.984 36.1797 355.75C36.7318 355.51 37.3516 355.391 38.0391 355.391C39.0807 355.391 39.9062 355.654 40.5156 356.18C41.1302 356.701 41.4375 357.435 41.4375 358.383V362.047C41.4427 362.849 41.5547 363.456 41.7734 363.867V364H39.4922ZM37.625 362.43C37.9583 362.43 38.2656 362.357 38.5469 362.211C38.8281 362.06 39.0365 361.859 39.1719 361.609V360.156H38.3281C37.1979 360.156 36.5964 360.547 36.5234 361.328L36.5156 361.461C36.5156 361.742 36.6146 361.974 36.8125 362.156C37.0104 362.339 37.2812 362.43 37.625 362.43ZM38.4844 352H40.9453L38.7812 354.422H36.9453L38.4844 352ZM42.8438 359.711C42.8438 358.414 43.151 357.37 43.7656 356.578C44.3854 355.786 45.2188 355.391 46.2656 355.391C47.1927 355.391 47.9141 355.708 48.4297 356.344L48.5234 355.547H50.5703V363.719C50.5703 364.458 50.401 365.102 50.0625 365.648C49.7292 366.195 49.2578 366.612 48.6484 366.898C48.0391 367.185 47.3255 367.328 46.5078 367.328C45.888 367.328 45.2839 367.203 44.6953 366.953C44.1068 366.708 43.6615 366.391 43.3594 366L44.3594 364.625C44.9219 365.255 45.6042 365.57 46.4062 365.57C47.0052 365.57 47.4714 365.409 47.8047 365.086C48.138 364.768 48.3047 364.315 48.3047 363.727V363.273C47.7839 363.862 47.099 364.156 46.25 364.156C45.2344 364.156 44.4115 363.76 43.7812 362.969C43.1562 362.172 42.8438 361.117 42.8438 359.805V359.711ZM45.1016 359.875C45.1016 360.641 45.2552 361.242 45.5625 361.68C45.8698 362.112 46.2917 362.328 46.8281 362.328C47.5156 362.328 48.0078 362.07 48.3047 361.555V358C48.0026 357.484 47.5156 357.227 46.8438 357.227C46.3021 357.227 45.875 357.448 45.5625 357.891C45.2552 358.333 45.1016 358.995 45.1016 359.875ZM51.9609 359.695C51.9609 358.857 52.1224 358.109 52.4453 357.453C52.7682 356.797 53.2318 356.289 53.8359 355.93C54.4453 355.57 55.151 355.391 55.9531 355.391C57.0938 355.391 58.0234 355.74 58.7422 356.438C59.4661 357.135 59.8698 358.083 59.9531 359.281L59.9688 359.859C59.9688 361.156 59.6068 362.198 58.8828 362.984C58.1589 363.766 57.1875 364.156 55.9688 364.156C54.75 364.156 53.776 363.766 53.0469 362.984C52.3229 362.203 51.9609 361.141 51.9609 359.797V359.695ZM54.2188 359.859C54.2188 360.661 54.3698 361.276 54.6719 361.703C54.974 362.125 55.4062 362.336 55.9688 362.336C56.5156 362.336 56.9427 362.128 57.25 361.711C57.5573 361.289 57.7109 360.617 57.7109 359.695C57.7109 358.909 57.5573 358.299 57.25 357.867C56.9427 357.435 56.5104 357.219 55.9531 357.219C55.401 357.219 54.974 357.435 54.6719 357.867C54.3698 358.294 54.2188 358.958 54.2188 359.859ZM64.4297 360.609L63.6172 361.422V364H61.3594V352H63.6172V358.648L64.0547 358.086L66.2188 355.547H68.9297L65.875 359.07L69.1953 364H66.6016L64.4297 360.609ZM70.4922 366.852L69.3125 366.234L69.5938 365.727C69.9427 365.091 70.1224 364.458 70.1328 363.828V362.078H72.0391L72.0312 363.641C72.026 364.219 71.8802 364.802 71.5938 365.391C71.3073 365.979 70.9401 366.466 70.4922 366.852ZM80.5 353.469V355.547H81.9453V357.203H80.5V361.422C80.5 361.734 80.5599 361.958 80.6797 362.094C80.7995 362.229 81.0286 362.297 81.3672 362.297C81.6172 362.297 81.8385 362.279 82.0312 362.242V363.953C81.5885 364.089 81.1328 364.156 80.6641 364.156C79.0807 364.156 78.2734 363.357 78.2422 361.758V357.203H77.0078V355.547H78.2422V353.469H80.5ZM87.0938 364.156C85.8542 364.156 84.8438 363.776 84.0625 363.016C83.2865 362.255 82.8984 361.242 82.8984 359.977V359.758C82.8984 358.909 83.0625 358.151 83.3906 357.484C83.7188 356.812 84.1823 356.297 84.7812 355.938C85.3854 355.573 86.0729 355.391 86.8438 355.391C88 355.391 88.9089 355.755 89.5703 356.484C90.237 357.214 90.5703 358.247 90.5703 359.586V360.508H85.1875C85.2604 361.06 85.4792 361.503 85.8438 361.836C86.2135 362.169 86.6797 362.336 87.2422 362.336C88.112 362.336 88.7917 362.021 89.2812 361.391L90.3906 362.633C90.0521 363.112 89.5938 363.487 89.0156 363.758C88.4375 364.023 87.7969 364.156 87.0938 364.156ZM86.8359 357.219C86.388 357.219 86.0234 357.37 85.7422 357.672C85.4661 357.974 85.2891 358.406 85.2109 358.969H88.3516V358.789C88.3411 358.289 88.2057 357.904 87.9453 357.633C87.6849 357.357 87.3151 357.219 86.8359 357.219ZM96.6094 357.664C96.3021 357.622 96.0312 357.602 95.7969 357.602C94.9427 357.602 94.3828 357.891 94.1172 358.469V364H91.8594V355.547H93.9922L94.0547 356.555C94.5078 355.779 95.1354 355.391 95.9375 355.391C96.1875 355.391 96.4219 355.424 96.6406 355.492L96.6094 357.664ZM102.766 363.141C102.208 363.818 101.438 364.156 100.453 364.156C99.5469 364.156 98.8542 363.896 98.375 363.375C97.901 362.854 97.6589 362.091 97.6484 361.086V355.547H99.9062V361.008C99.9062 361.888 100.307 362.328 101.109 362.328C101.875 362.328 102.401 362.062 102.688 361.531V355.547H104.953V364H102.828L102.766 363.141ZM100.484 353.336C100.484 353.612 100.383 353.846 100.18 354.039C99.9766 354.227 99.7161 354.32 99.3984 354.32C99.0755 354.32 98.8151 354.224 98.6172 354.031C98.4193 353.839 98.3203 353.607 98.3203 353.336C98.3203 353.065 98.4193 352.833 98.6172 352.641C98.8151 352.443 99.0755 352.344 99.3984 352.344C99.7214 352.344 99.9818 352.443 100.18 352.641C100.383 352.833 100.484 353.065 100.484 353.336ZM102.125 353.336C102.125 353.055 102.229 352.82 102.438 352.633C102.651 352.44 102.909 352.344 103.211 352.344C103.518 352.344 103.773 352.44 103.977 352.633C104.185 352.826 104.289 353.06 104.289 353.336C104.289 353.607 104.19 353.841 103.992 354.039C103.794 354.232 103.534 354.328 103.211 354.328C102.888 354.328 102.625 354.232 102.422 354.039C102.224 353.841 102.125 353.607 102.125 353.336ZM109.039 364H106.773V352H109.039V364ZM114.797 364.156C113.557 364.156 112.547 363.776 111.766 363.016C110.99 362.255 110.602 361.242 110.602 359.977V359.758C110.602 358.909 110.766 358.151 111.094 357.484C111.422 356.812 111.885 356.297 112.484 355.938C113.089 355.573 113.776 355.391 114.547 355.391C115.703 355.391 116.612 355.755 117.273 356.484C117.94 357.214 118.273 358.247 118.273 359.586V360.508H112.891C112.964 361.06 113.182 361.503 113.547 361.836C113.917 362.169 114.383 362.336 114.945 362.336C115.815 362.336 116.495 362.021 116.984 361.391L118.094 362.633C117.755 363.112 117.297 363.487 116.719 363.758C116.141 364.023 115.5 364.156 114.797 364.156ZM114.539 357.219C114.091 357.219 113.727 357.37 113.445 357.672C113.169 357.974 112.992 358.406 112.914 358.969H116.055V358.789C116.044 358.289 115.909 357.904 115.648 357.633C115.388 357.357 115.018 357.219 114.539 357.219ZM122.266 353.469V355.547H123.711V357.203H122.266V361.422C122.266 361.734 122.326 361.958 122.445 362.094C122.565 362.229 122.794 362.297 123.133 362.297C123.383 362.297 123.604 362.279 123.797 362.242V363.953C123.354 364.089 122.898 364.156 122.43 364.156C120.846 364.156 120.039 363.357 120.008 361.758V357.203H118.773V355.547H120.008V353.469H122.266ZM127.352 364H125.086V355.547H127.352V364ZM124.953 353.359C124.953 353.021 125.065 352.742 125.289 352.523C125.518 352.305 125.828 352.195 126.219 352.195C126.604 352.195 126.911 352.305 127.141 352.523C127.37 352.742 127.484 353.021 127.484 353.359C127.484 353.703 127.367 353.984 127.133 354.203C126.904 354.422 126.599 354.531 126.219 354.531C125.839 354.531 125.531 354.422 125.297 354.203C125.068 353.984 124.953 353.703 124.953 353.359ZM137.781 361.664C137.781 361.388 137.643 361.172 137.367 361.016C137.096 360.854 136.659 360.711 136.055 360.586C134.044 360.164 133.039 359.31 133.039 358.023C133.039 357.273 133.349 356.648 133.969 356.148C134.594 355.643 135.409 355.391 136.414 355.391C137.487 355.391 138.344 355.643 138.984 356.148C139.63 356.654 139.953 357.31 139.953 358.117H137.695C137.695 357.794 137.591 357.529 137.383 357.32C137.174 357.107 136.849 357 136.406 357C136.026 357 135.732 357.086 135.523 357.258C135.315 357.43 135.211 357.648 135.211 357.914C135.211 358.164 135.328 358.367 135.562 358.523C135.802 358.674 136.203 358.807 136.766 358.922C137.328 359.031 137.802 359.156 138.188 359.297C139.38 359.734 139.977 360.492 139.977 361.57C139.977 362.341 139.646 362.966 138.984 363.445C138.323 363.919 137.469 364.156 136.422 364.156C135.714 364.156 135.083 364.031 134.531 363.781C133.984 363.526 133.555 363.18 133.242 362.742C132.93 362.299 132.773 361.823 132.773 361.312H134.914C134.935 361.714 135.083 362.021 135.359 362.234C135.635 362.448 136.005 362.555 136.469 362.555C136.901 362.555 137.227 362.474 137.445 362.312C137.669 362.146 137.781 361.93 137.781 361.664ZM144.031 362.18H148.164V364H141.148V362.625L145.125 357.375H141.266V355.547H148.039V356.883L144.031 362.18ZM151.961 364H149.695V355.547H151.961V364ZM149.562 353.359C149.562 353.021 149.674 352.742 149.898 352.523C150.128 352.305 150.438 352.195 150.828 352.195C151.214 352.195 151.521 352.305 151.75 352.523C151.979 352.742 152.094 353.021 152.094 353.359C152.094 353.703 151.977 353.984 151.742 354.203C151.513 354.422 151.208 354.531 150.828 354.531C150.448 354.531 150.141 354.422 149.906 354.203C149.677 353.984 149.562 353.703 149.562 353.359ZM155.906 355.547L155.977 356.523C156.581 355.768 157.391 355.391 158.406 355.391C159.302 355.391 159.969 355.654 160.406 356.18C160.844 356.706 161.068 357.492 161.078 358.539V364H158.82V358.594C158.82 358.115 158.716 357.768 158.508 357.555C158.299 357.336 157.953 357.227 157.469 357.227C156.833 357.227 156.357 357.497 156.039 358.039V364H153.781V355.547H155.906ZM165.5 353.469V355.547H166.945V357.203H165.5V361.422C165.5 361.734 165.56 361.958 165.68 362.094C165.799 362.229 166.029 362.297 166.367 362.297C166.617 362.297 166.839 362.279 167.031 362.242V363.953C166.589 364.089 166.133 364.156 165.664 364.156C164.081 364.156 163.273 363.357 163.242 361.758V357.203H162.008V355.547H163.242V353.469H165.5ZM172.094 364.156C170.854 364.156 169.844 363.776 169.062 363.016C168.286 362.255 167.898 361.242 167.898 359.977V359.758C167.898 358.909 168.062 358.151 168.391 357.484C168.719 356.812 169.182 356.297 169.781 355.938C170.385 355.573 171.073 355.391 171.844 355.391C173 355.391 173.909 355.755 174.57 356.484C175.237 357.214 175.57 358.247 175.57 359.586V360.508H170.188C170.26 361.06 170.479 361.503 170.844 361.836C171.214 362.169 171.68 362.336 172.242 362.336C173.112 362.336 173.792 362.021 174.281 361.391L175.391 362.633C175.052 363.112 174.594 363.487 174.016 363.758C173.438 364.023 172.797 364.156 172.094 364.156ZM171.836 357.219C171.388 357.219 171.023 357.37 170.742 357.672C170.466 357.974 170.289 358.406 170.211 358.969H173.352V358.789C173.341 358.289 173.206 357.904 172.945 357.633C172.685 357.357 172.315 357.219 171.836 357.219ZM179.93 360.609L179.117 361.422V364H176.859V352H179.117V358.648L179.555 358.086L181.719 355.547H184.43L181.375 359.07L184.695 364H182.102L179.93 360.609ZM72.2656 380.664C72.2656 380.388 72.1276 380.172 71.8516 380.016C71.5807 379.854 71.1432 379.711 70.5391 379.586C68.5286 379.164 67.5234 378.31 67.5234 377.023C67.5234 376.273 67.8333 375.648 68.4531 375.148C69.0781 374.643 69.8932 374.391 70.8984 374.391C71.9714 374.391 72.8281 374.643 73.4688 375.148C74.1146 375.654 74.4375 376.31 74.4375 377.117H72.1797C72.1797 376.794 72.0755 376.529 71.8672 376.32C71.6589 376.107 71.3333 376 70.8906 376C70.5104 376 70.2161 376.086 70.0078 376.258C69.7995 376.43 69.6953 376.648 69.6953 376.914C69.6953 377.164 69.8125 377.367 70.0469 377.523C70.2865 377.674 70.6875 377.807 71.25 377.922C71.8125 378.031 72.2865 378.156 72.6719 378.297C73.8646 378.734 74.4609 379.492 74.4609 380.57C74.4609 381.341 74.1302 381.966 73.4688 382.445C72.8073 382.919 71.9531 383.156 70.9062 383.156C70.1979 383.156 69.5677 383.031 69.0156 382.781C68.4688 382.526 68.0391 382.18 67.7266 381.742C67.4141 381.299 67.2578 380.823 67.2578 380.312H69.3984C69.4193 380.714 69.5677 381.021 69.8438 381.234C70.1198 381.448 70.4896 381.555 70.9531 381.555C71.3854 381.555 71.7109 381.474 71.9297 381.312C72.1536 381.146 72.2656 380.93 72.2656 380.664ZM78.5156 381.18H82.6484V383H75.6328V381.625L79.6094 376.375H75.75V374.547H82.5234V375.883L78.5156 381.18ZM87.8281 383.156C86.5885 383.156 85.5781 382.776 84.7969 382.016C84.0208 381.255 83.6328 380.242 83.6328 378.977V378.758C83.6328 377.909 83.7969 377.151 84.125 376.484C84.4531 375.812 84.9167 375.297 85.5156 374.938C86.1198 374.573 86.8073 374.391 87.5781 374.391C88.7344 374.391 89.6432 374.755 90.3047 375.484C90.9714 376.214 91.3047 377.247 91.3047 378.586V379.508H85.9219C85.9948 380.06 86.2135 380.503 86.5781 380.836C86.9479 381.169 87.4141 381.336 87.9766 381.336C88.8464 381.336 89.526 381.021 90.0156 380.391L91.125 381.633C90.7865 382.112 90.3281 382.487 89.75 382.758C89.1719 383.023 88.5312 383.156 87.8281 383.156ZM87.5703 376.219C87.1224 376.219 86.7578 376.37 86.4766 376.672C86.2005 376.974 86.0234 377.406 85.9453 377.969H89.0859V377.789C89.0755 377.289 88.9401 376.904 88.6797 376.633C88.4193 376.357 88.0495 376.219 87.5703 376.219ZM97.3438 376.664C97.0365 376.622 96.7656 376.602 96.5312 376.602C95.6771 376.602 95.1172 376.891 94.8516 377.469V383H92.5938V374.547H94.7266L94.7891 375.555C95.2422 374.779 95.8698 374.391 96.6719 374.391C96.9219 374.391 97.1562 374.424 97.375 374.492L97.3438 376.664ZM100.82 383H98.5547V374.547H100.82V383ZM98.4219 372.359C98.4219 372.021 98.5339 371.742 98.7578 371.523C98.987 371.305 99.2969 371.195 99.6875 371.195C100.073 371.195 100.38 371.305 100.609 371.523C100.839 371.742 100.953 372.021 100.953 372.359C100.953 372.703 100.836 372.984 100.602 373.203C100.372 373.422 100.068 373.531 99.6875 373.531C99.3073 373.531 99 373.422 98.7656 373.203C98.5365 372.984 98.4219 372.703 98.4219 372.359ZM104.766 374.547L104.836 375.523C105.44 374.768 106.25 374.391 107.266 374.391C108.161 374.391 108.828 374.654 109.266 375.18C109.703 375.706 109.927 376.492 109.938 377.539V383H107.68V377.594C107.68 377.115 107.576 376.768 107.367 376.555C107.159 376.336 106.812 376.227 106.328 376.227C105.693 376.227 105.216 376.497 104.898 377.039V383H102.641V374.547H104.766ZM114.359 372.469V374.547H115.805V376.203H114.359V380.422C114.359 380.734 114.419 380.958 114.539 381.094C114.659 381.229 114.888 381.297 115.227 381.297C115.477 381.297 115.698 381.279 115.891 381.242V382.953C115.448 383.089 114.992 383.156 114.523 383.156C112.94 383.156 112.133 382.357 112.102 380.758V376.203H110.867V374.547H112.102V372.469H114.359Z" fill="#ECE7DD"/>
</svg>
