<svg width="187" height="721" viewBox="0 0 187 721" fill="none" xmlns="http://www.w3.org/2000/svg">
<rect x="0.371094" y="0.55835" width="186.094" height="720.346" fill="#987033"/>
<path d="M63.1587 665.226H59.2739V676H57.6885V665.226H53.812V663.914H63.1587V665.226ZM74.0161 670.347C74.0161 671.531 73.8169 672.566 73.4185 673.452C73.02 674.332 72.4556 675.004 71.7251 675.469C70.9946 675.934 70.1424 676.166 69.1685 676.166C68.2166 676.166 67.3727 675.934 66.6367 675.469C65.9007 674.998 65.328 674.332 64.9185 673.468C64.5145 672.599 64.307 671.595 64.2959 670.455V669.583C64.2959 668.421 64.4979 667.395 64.9019 666.504C65.3058 665.613 65.8758 664.932 66.6118 664.462C67.3534 663.986 68.2 663.748 69.1519 663.748C70.1203 663.748 70.9725 663.983 71.7085 664.454C72.45 664.918 73.02 665.596 73.4185 666.487C73.8169 667.373 74.0161 668.405 74.0161 669.583V670.347ZM72.4307 669.567C72.4307 668.134 72.1429 667.035 71.5674 666.271C70.9919 665.502 70.1867 665.118 69.1519 665.118C68.1447 665.118 67.3506 665.502 66.7695 666.271C66.194 667.035 65.8979 668.098 65.8813 669.459V670.347C65.8813 671.736 66.1719 672.829 66.7529 673.626C67.3395 674.417 68.1447 674.813 69.1685 674.813C70.1978 674.813 70.9946 674.439 71.5591 673.692C72.1235 672.94 72.4141 671.863 72.4307 670.463V669.567ZM80.2251 673.883L83.6782 663.914H85.4214L80.939 676H79.5278L75.0537 663.914H76.7886L80.2251 673.883ZM93.0913 672.846H88.0278L86.8906 676H85.2471L89.8623 663.914H91.2568L95.8804 676H94.2451L93.0913 672.846ZM88.5093 671.534H92.6182L90.5596 665.881L88.5093 671.534ZM91.3481 660.677H93.2075L90.9829 663.117H89.7461L91.3481 660.677ZM97.5073 676V663.914H101.458C102.77 663.914 103.755 664.185 104.414 664.728C105.078 665.27 105.41 666.072 105.41 667.135C105.41 667.699 105.249 668.2 104.928 668.637C104.607 669.069 104.17 669.404 103.617 669.642C104.27 669.824 104.784 670.173 105.161 670.688C105.542 671.197 105.733 671.805 105.733 672.514C105.733 673.598 105.382 674.451 104.679 675.07C103.976 675.69 102.983 676 101.699 676H97.5073ZM99.1011 670.347V674.697H101.732C102.474 674.697 103.058 674.506 103.484 674.124C103.916 673.737 104.131 673.205 104.131 672.53C104.131 671.075 103.34 670.347 101.757 670.347H99.1011ZM99.1011 669.069H101.508C102.206 669.069 102.762 668.895 103.177 668.546C103.597 668.197 103.808 667.724 103.808 667.126C103.808 666.462 103.614 665.981 103.227 665.682C102.839 665.378 102.25 665.226 101.458 665.226H99.1011V669.069ZM108.099 676V663.914H112.05C113.362 663.914 114.347 664.185 115.005 664.728C115.669 665.27 116.001 666.072 116.001 667.135C116.001 667.699 115.841 668.2 115.52 668.637C115.199 669.069 114.762 669.404 114.208 669.642C114.861 669.824 115.376 670.173 115.752 670.688C116.134 671.197 116.325 671.805 116.325 672.514C116.325 673.598 115.974 674.451 115.271 675.07C114.568 675.69 113.575 676 112.291 676H108.099ZM109.693 670.347V674.697H112.324C113.066 674.697 113.65 674.506 114.076 674.124C114.507 673.737 114.723 673.205 114.723 672.53C114.723 671.075 113.932 670.347 112.349 670.347H109.693ZM109.693 669.069H112.1C112.797 669.069 113.354 668.895 113.769 668.546C114.189 668.197 114.399 667.724 114.399 667.126C114.399 666.462 114.206 665.981 113.818 665.682C113.431 665.378 112.842 665.226 112.05 665.226H109.693V669.069ZM129.582 672.846H124.518L123.381 676H121.737L126.353 663.914H127.747L132.371 676H130.735L129.582 672.846ZM125 671.534H129.108L127.05 665.881L125 671.534ZM13.9683 683.914L16.666 692.323L19.3555 683.914H23.1904V696H20.2686V693.178L20.5508 687.4L17.6289 696H15.7031L12.7729 687.392L13.0552 693.178V696H10.1416V683.914H13.9683ZM32.5454 690.878H27.9634V693.759H33.3755V696H25.0498V683.914H33.3921V686.164H27.9634V688.712H32.5454V690.878ZM44.2163 686.164H40.5889V696H37.6753V686.164H34.1143V683.914H44.2163V686.164ZM51.3218 693.742H47.3291L46.6318 696H43.519L47.9517 683.914H50.6909L55.1567 696H52.0273L51.3218 693.742ZM48.0264 691.493H50.6245L49.3213 687.301L48.0264 691.493ZM61.3823 691.875H56.3936V689.708H61.3823V691.875ZM70.563 693.742H66.5703L65.873 696H62.7603L67.1929 683.914H69.9321L74.3979 696H71.2686L70.563 693.742ZM67.2676 691.493H69.8657L68.5625 687.301L67.2676 691.493ZM75.2861 696V683.914H79.1792C80.2472 683.914 81.2074 684.158 82.0596 684.645C82.9118 685.126 83.5758 685.809 84.0518 686.695C84.5332 687.575 84.7767 688.562 84.7822 689.658V690.214C84.7822 691.321 84.547 692.314 84.0767 693.194C83.6118 694.069 82.9533 694.755 82.1011 695.253C81.2544 695.745 80.3081 695.994 79.2622 696H75.2861ZM78.1997 686.164V693.759H79.2124C80.048 693.759 80.6899 693.463 81.1382 692.871C81.5864 692.273 81.8105 691.388 81.8105 690.214V689.691C81.8105 688.524 81.5864 687.644 81.1382 687.052C80.6899 686.46 80.0369 686.164 79.1792 686.164H78.1997ZM92.9585 693.742H88.9658L88.2686 696H85.1558L89.5884 683.914H92.3276L96.7935 696H93.6641L92.9585 693.742ZM89.6631 691.493H92.2612L90.958 687.301L89.6631 691.493ZM106.173 686.164H102.546V696H99.6323V686.164H96.0713V683.914H106.173V686.164ZM107.41 696V683.914H111.751C113.306 683.914 114.488 684.199 115.296 684.769C116.109 685.339 116.516 686.166 116.516 687.251C116.516 687.876 116.372 688.41 116.084 688.853C115.797 689.296 115.373 689.622 114.814 689.833C115.445 689.999 115.93 690.308 116.267 690.762C116.605 691.216 116.773 691.769 116.773 692.422C116.773 693.607 116.397 694.498 115.645 695.095C114.897 695.687 113.788 695.989 112.316 696H107.41ZM110.324 690.862V693.759H112.233C112.759 693.759 113.163 693.64 113.445 693.402C113.727 693.158 113.868 692.818 113.868 692.381C113.868 691.374 113.367 690.867 112.366 690.862H110.324ZM110.324 688.953H111.843C112.479 688.947 112.933 688.831 113.204 688.604C113.475 688.377 113.611 688.042 113.611 687.6C113.611 687.09 113.464 686.725 113.171 686.504C112.878 686.277 112.404 686.164 111.751 686.164H110.324V688.953ZM125.249 693.742H121.256L120.559 696H117.446L121.878 683.914H124.618L129.083 696H125.954L125.249 693.742ZM121.953 691.493H124.551L123.248 687.301L121.953 691.493ZM123.63 680.677H126.585L124.277 683.283H121.995L123.63 680.677ZM133.242 693.759H139.02V696H129.606V694.464L135.367 686.164H129.573V683.914H138.961V685.408L133.242 693.759ZM143.452 696H140.547V683.914H143.452V696ZM151.711 692.788C151.711 692.361 151.559 692.029 151.255 691.792C150.956 691.554 150.428 691.307 149.669 691.053C148.911 690.798 148.292 690.552 147.81 690.314C146.244 689.545 145.461 688.488 145.461 687.143C145.461 686.473 145.655 685.884 146.042 685.375C146.435 684.86 146.988 684.462 147.702 684.18C148.416 683.892 149.218 683.748 150.109 683.748C150.978 683.748 151.756 683.903 152.442 684.213C153.134 684.523 153.67 684.965 154.052 685.541C154.434 686.111 154.625 686.764 154.625 687.5H151.72C151.72 687.007 151.568 686.626 151.263 686.354C150.964 686.083 150.558 685.948 150.043 685.948C149.523 685.948 149.111 686.064 148.806 686.296C148.507 686.523 148.358 686.814 148.358 687.168C148.358 687.478 148.524 687.76 148.856 688.015C149.188 688.264 149.772 688.524 150.607 688.795C151.443 689.061 152.129 689.348 152.666 689.658C153.972 690.411 154.625 691.448 154.625 692.771C154.625 693.828 154.227 694.658 153.43 695.261C152.633 695.864 151.54 696.166 150.151 696.166C149.171 696.166 148.283 695.992 147.486 695.643C146.695 695.289 146.097 694.807 145.693 694.199C145.295 693.584 145.096 692.879 145.096 692.082H148.018C148.018 692.729 148.184 693.208 148.516 693.518C148.853 693.822 149.398 693.975 150.151 693.975C150.632 693.975 151.011 693.872 151.288 693.667C151.57 693.457 151.711 693.164 151.711 692.788ZM161.042 691.111H158.203V696H156.601V683.914H160.602C161.963 683.914 163.009 684.224 163.739 684.844C164.475 685.464 164.843 686.366 164.843 687.55C164.843 688.302 164.639 688.958 164.229 689.517C163.825 690.076 163.261 690.494 162.536 690.771L165.375 695.9V696H163.665L161.042 691.111ZM158.203 689.808H160.651C161.443 689.808 162.071 689.603 162.536 689.193C163.006 688.784 163.241 688.236 163.241 687.55C163.241 686.803 163.017 686.23 162.569 685.832C162.126 685.433 161.484 685.231 160.643 685.226H158.203V689.808ZM173.758 692.846H168.695L167.558 696H165.914L170.529 683.914H171.924L176.547 696H174.912L173.758 692.846ZM169.176 691.534H173.285L171.227 685.881L169.176 691.534Z" fill="#ECE7DD"/>
<path d="M49.6667 327.359L53.6843 338.703L57.6804 327.359H61.9128V343H58.6794V338.725L59.0017 331.345L54.78 343H52.5671L48.3562 331.355L48.6784 338.725V343H45.4558V327.359H49.6667ZM67.7828 343.215C66.0783 343.215 64.689 342.692 63.6148 341.646C62.5477 340.601 62.0142 339.208 62.0142 337.468V337.167C62.0142 336 62.2398 334.958 62.691 334.041C63.1421 333.117 63.7795 332.408 64.6031 331.914C65.4338 331.413 66.3791 331.162 67.439 331.162C69.0289 331.162 70.2785 331.663 71.188 332.666C72.1047 333.669 72.563 335.09 72.563 336.931V338.198H65.1617C65.2619 338.957 65.5627 339.566 66.064 340.024C66.5725 340.483 67.2134 340.712 67.9869 340.712C69.1828 340.712 70.1174 340.279 70.7906 339.412L72.316 341.12C71.8505 341.779 71.2203 342.295 70.4254 342.667C69.6304 343.032 68.7496 343.215 67.7828 343.215ZM67.4283 333.676C66.8124 333.676 66.3111 333.883 65.9244 334.299C65.5448 334.714 65.3013 335.309 65.1939 336.082H69.5123V335.835C69.4979 335.147 69.3117 334.618 68.9537 334.245C68.5956 333.866 68.0871 333.676 67.4283 333.676ZM75.9623 328.52V331.377H77.9496V333.654H75.9623V339.455C75.9623 339.885 76.0447 340.193 76.2094 340.379C76.3741 340.565 76.6892 340.658 77.1547 340.658C77.4984 340.658 77.8028 340.633 78.0678 340.583V342.936C77.459 343.122 76.8324 343.215 76.1879 343.215C74.0108 343.215 72.9008 342.116 72.8578 339.917V333.654H71.1605V331.377H72.8578V328.52H75.9623ZM84.3244 343C84.1812 342.721 84.0774 342.373 84.0129 341.958C83.261 342.796 82.2834 343.215 81.0803 343.215C79.9416 343.215 78.9963 342.885 78.2444 342.227C77.4996 341.568 77.1272 340.737 77.1272 339.734C77.1272 338.503 77.5819 337.557 78.4914 336.898C79.4081 336.24 80.7294 335.907 82.4553 335.899H83.884V335.233C83.884 334.696 83.7444 334.267 83.4651 333.944C83.1929 333.622 82.7597 333.461 82.1653 333.461C81.6425 333.461 81.2307 333.586 80.9299 333.837C80.6363 334.088 80.4895 334.431 80.4895 334.868H77.385C77.385 334.195 77.5927 333.572 78.008 332.999C78.4234 332.426 79.0106 331.979 79.7698 331.656C80.5289 331.327 81.3811 331.162 82.3264 331.162C83.7587 331.162 84.8938 331.524 85.7317 332.247C86.5767 332.963 86.9993 333.973 86.9993 335.276V340.314C87.0064 341.417 87.1604 342.252 87.4612 342.817V343H84.3244ZM81.7571 340.841C82.2154 340.841 82.6379 340.741 83.0246 340.54C83.4114 340.332 83.6978 340.057 83.884 339.713V337.715H82.7239C81.1698 337.715 80.3427 338.252 80.2424 339.326L80.2317 339.509C80.2317 339.896 80.3677 340.214 80.6399 340.465C80.912 340.715 81.2844 340.841 81.7571 340.841ZM94.0294 343C93.8861 342.721 93.7823 342.373 93.7178 341.958C92.9659 342.796 91.9884 343.215 90.7852 343.215C89.6466 343.215 88.7012 342.885 87.9493 342.227C87.2045 341.568 86.8321 340.737 86.8321 339.734C86.8321 338.503 87.2869 337.557 88.1964 336.898C89.113 336.24 90.4343 335.907 92.1602 335.899H93.5889V335.233C93.5889 334.696 93.4493 334.267 93.17 333.944C92.8979 333.622 92.4646 333.461 91.8702 333.461C91.3474 333.461 90.9356 333.586 90.6348 333.837C90.3412 334.088 90.1944 334.431 90.1944 334.868H87.0899C87.0899 334.195 87.2976 333.572 87.713 332.999C88.1283 332.426 88.7156 331.979 89.4747 331.656C90.2338 331.327 91.086 331.162 92.0313 331.162C93.4636 331.162 94.5987 331.524 95.4366 332.247C96.2817 332.963 96.7042 333.973 96.7042 335.276V340.314C96.7113 341.417 96.8653 342.252 97.1661 342.817V343H94.0294ZM91.462 340.841C91.9203 340.841 92.3428 340.741 92.7296 340.54C93.1163 340.332 93.4027 340.057 93.5889 339.713V337.715H92.4288C90.8748 337.715 90.0476 338.252 89.9473 339.326L89.9366 339.509C89.9366 339.896 90.0727 340.214 90.3448 340.465C90.6169 340.715 90.9893 340.841 91.462 340.841ZM96.5155 337.103C96.5155 335.291 96.9202 333.848 97.7294 332.773C98.5458 331.699 99.6594 331.162 101.07 331.162C102.202 331.162 103.136 331.585 103.874 332.43V326.5H106.989V343H104.185L104.035 341.765C103.262 342.731 102.266 343.215 101.049 343.215C99.6809 343.215 98.5816 342.678 97.7509 341.604C96.9273 340.522 96.5155 339.022 96.5155 337.103ZM99.62 337.328C99.62 338.417 99.8098 339.251 100.189 339.831C100.569 340.411 101.12 340.701 101.844 340.701C102.803 340.701 103.48 340.297 103.874 339.487V334.9C103.487 334.091 102.818 333.687 101.865 333.687C100.368 333.687 99.62 334.9 99.62 337.328ZM114.041 343C113.898 342.721 113.794 342.373 113.729 341.958C112.977 342.796 112 343.215 110.797 343.215C109.658 343.215 108.713 342.885 107.961 342.227C107.216 341.568 106.844 340.737 106.844 339.734C106.844 338.503 107.298 337.557 108.208 336.898C109.124 336.24 110.446 335.907 112.172 335.899H113.6V335.233C113.6 334.696 113.461 334.267 113.181 333.944C112.909 333.622 112.476 333.461 111.882 333.461C111.359 333.461 110.947 333.586 110.646 333.837C110.353 334.088 110.206 334.431 110.206 334.868H107.101C107.101 334.195 107.309 333.572 107.724 332.999C108.14 332.426 108.727 331.979 109.486 331.656C110.245 331.327 111.097 331.162 112.043 331.162C113.475 331.162 114.61 331.524 115.448 332.247C116.293 332.963 116.716 333.973 116.716 335.276V340.314C116.723 341.417 116.877 342.252 117.177 342.817V343H114.041ZM111.473 340.841C111.932 340.841 112.354 340.741 112.741 340.54C113.128 340.332 113.414 340.057 113.6 339.713V337.715H112.44C110.886 337.715 110.059 338.252 109.959 339.326L109.948 339.509C109.948 339.896 110.084 340.214 110.356 340.465C110.628 340.715 111.001 340.841 111.473 340.841ZM120.727 328.52V331.377H122.714V333.654H120.727V339.455C120.727 339.885 120.81 340.193 120.974 340.379C121.139 340.565 121.454 340.658 121.92 340.658C122.263 340.658 122.568 340.633 122.833 340.583V342.936C122.224 343.122 121.597 343.215 120.953 343.215C118.776 343.215 117.666 342.116 117.623 339.917V333.654H115.925V331.377H117.623V328.52H120.727ZM121.548 337.081C121.548 335.928 121.77 334.9 122.214 333.998C122.658 333.096 123.296 332.397 124.126 331.903C124.964 331.409 125.935 331.162 127.038 331.162C128.606 331.162 129.884 331.642 130.872 332.602C131.868 333.561 132.423 334.865 132.538 336.512L132.559 337.307C132.559 339.09 132.061 340.522 131.066 341.604C130.07 342.678 128.735 343.215 127.059 343.215C125.383 343.215 124.044 342.678 123.041 341.604C122.046 340.529 121.548 339.068 121.548 337.221V337.081ZM124.653 337.307C124.653 338.41 124.86 339.255 125.276 339.842C125.691 340.422 126.286 340.712 127.059 340.712C127.811 340.712 128.398 340.425 128.821 339.853C129.243 339.272 129.455 338.349 129.455 337.081C129.455 336 129.243 335.162 128.821 334.567C128.398 333.973 127.804 333.676 127.038 333.676C126.278 333.676 125.691 333.973 125.276 334.567C124.86 335.155 124.653 336.068 124.653 337.307ZM136.603 338.338L135.486 339.455V343H132.381V326.5H135.486V335.642L136.087 334.868L139.063 331.377H142.79L138.59 336.222L143.156 343H139.589L136.603 338.338ZM11.272 354.52V357.377H13.2593V359.654H11.272V365.455C11.272 365.885 11.3543 366.193 11.5191 366.379C11.6838 366.565 11.9989 366.658 12.4644 366.658C12.8081 366.658 13.1125 366.633 13.3775 366.583V368.936C12.7687 369.122 12.1421 369.215 11.4976 369.215C9.32049 369.215 8.21046 368.116 8.1675 365.917V359.654H6.47023V357.377H8.1675V354.52H11.272ZM18.2484 369.215C16.544 369.215 15.1546 368.692 14.0804 367.646C13.0134 366.601 12.4798 365.208 12.4798 363.468V363.167C12.4798 362 12.7054 360.958 13.1566 360.041C13.6078 359.117 14.2451 358.408 15.0687 357.914C15.8994 357.413 16.8447 357.162 17.9046 357.162C19.4945 357.162 20.7442 357.663 21.6537 358.666C22.5703 359.669 23.0287 361.09 23.0287 362.931V364.198H15.6273C15.7276 364.957 16.0283 365.566 16.5296 366.024C17.0381 366.483 17.6791 366.712 18.4525 366.712C19.6485 366.712 20.583 366.279 21.2562 365.412L22.7816 367.12C22.3161 367.779 21.6859 368.295 20.891 368.667C20.0961 369.032 19.2152 369.215 18.2484 369.215ZM17.8939 359.676C17.278 359.676 16.7767 359.883 16.39 360.299C16.0104 360.714 15.7669 361.309 15.6595 362.082H19.9779V361.835C19.9636 361.147 19.7774 360.618 19.4193 360.245C19.0612 359.866 18.5528 359.676 17.8939 359.676ZM18.1732 352.5H21.557L18.5814 355.83H16.057L18.1732 352.5ZM25.6223 357.377L25.7189 358.677C26.5425 357.667 27.6561 357.162 29.0598 357.162C30.5565 357.162 31.5842 357.753 32.1428 358.935C32.9592 357.753 34.1229 357.162 35.634 357.162C36.8944 357.162 37.8325 357.531 38.4484 358.269C39.0643 358.999 39.3723 360.102 39.3723 361.577V369H36.257V361.588C36.257 360.929 36.1281 360.449 35.8703 360.148C35.6125 359.84 35.1577 359.687 34.5061 359.687C33.5751 359.687 32.9305 360.131 32.5725 361.019L32.5832 369H29.4787V361.599C29.4787 360.925 29.3462 360.438 29.0812 360.138C28.8163 359.837 28.3651 359.687 27.7277 359.687C26.8469 359.687 26.2095 360.052 25.8156 360.782V369H22.7111V357.377H25.6223ZM46.4131 369C46.2699 368.721 46.166 368.373 46.1016 367.958C45.3496 368.796 44.3721 369.215 43.169 369.215C42.0303 369.215 41.085 368.885 40.333 368.227C39.5883 367.568 39.2159 366.737 39.2159 365.734C39.2159 364.503 39.6706 363.557 40.5801 362.898C41.4968 362.24 42.8181 361.907 44.544 361.899H45.9727V361.233C45.9727 360.696 45.833 360.267 45.5537 359.944C45.2816 359.622 44.8483 359.461 44.2539 359.461C43.7312 359.461 43.3194 359.586 43.0186 359.837C42.725 360.088 42.5782 360.431 42.5782 360.868H39.4737C39.4737 360.195 39.6813 359.572 40.0967 358.999C40.5121 358.426 41.0993 357.979 41.8584 357.656C42.6175 357.327 43.4698 357.162 44.4151 357.162C45.8474 357.162 46.9825 357.524 47.8203 358.247C48.6654 358.963 49.0879 359.973 49.0879 361.276V366.314C49.0951 367.417 49.2491 368.252 49.5498 368.817V369H46.4131ZM43.8457 366.841C44.3041 366.841 44.7266 366.741 45.1133 366.54C45.5 366.332 45.7865 366.057 45.9727 365.713V363.715H44.8125C43.2585 363.715 42.4313 364.252 42.3311 365.326L42.3203 365.509C42.3203 365.896 42.4564 366.214 42.7285 366.465C43.0007 366.715 43.3731 366.841 43.8457 366.841ZM53.6044 364.338L52.4872 365.455V369H49.3827V352.5H52.4872V361.642L53.0887 360.868L56.0643 357.377H59.7919L55.5917 362.222L60.1571 369H56.5907L53.6044 364.338ZM58.5612 363.081C58.5612 361.928 58.7833 360.9 59.2273 359.998C59.6713 359.096 60.3086 358.397 61.1394 357.903C61.9773 357.409 62.9476 357.162 64.0505 357.162C65.6189 357.162 66.8972 357.642 67.8855 358.602C68.8809 359.561 69.4359 360.865 69.5505 362.512L69.572 363.307C69.572 365.09 69.0743 366.522 68.0788 367.604C67.0834 368.678 65.7478 369.215 64.072 369.215C62.3962 369.215 61.057 368.678 60.0544 367.604C59.059 366.529 58.5612 365.068 58.5612 363.221V363.081ZM61.6657 363.307C61.6657 364.41 61.8734 365.255 62.2888 365.842C62.7041 366.422 63.2985 366.712 64.072 366.712C64.8239 366.712 65.4112 366.425 65.8337 365.853C66.2562 365.272 66.4675 364.349 66.4675 363.081C66.4675 362 66.2562 361.162 65.8337 360.567C65.4112 359.973 64.8168 359.676 64.0505 359.676C63.2914 359.676 62.7041 359.973 62.2888 360.567C61.8734 361.155 61.6657 362.068 61.6657 363.307ZM62.9118 354.337C62.9118 354.716 62.7722 355.039 62.4929 355.304C62.2136 355.562 61.8555 355.69 61.4187 355.69C60.9747 355.69 60.6166 355.558 60.3444 355.293C60.0723 355.028 59.9362 354.709 59.9362 354.337C59.9362 353.965 60.0723 353.646 60.3444 353.381C60.6166 353.109 60.9747 352.973 61.4187 352.973C61.8627 352.973 62.2208 353.109 62.4929 353.381C62.7722 353.646 62.9118 353.965 62.9118 354.337ZM65.1677 354.337C65.1677 353.95 65.3109 353.628 65.5974 353.37C65.891 353.105 66.2455 352.973 66.6609 352.973C67.0834 352.973 67.4343 353.105 67.7136 353.37C68 353.635 68.1433 353.957 68.1433 354.337C68.1433 354.709 68.0072 355.032 67.7351 355.304C67.4629 355.569 67.1049 355.701 66.6609 355.701C66.2168 355.701 65.8552 355.569 65.5759 355.304C65.3038 355.032 65.1677 354.709 65.1677 354.337ZM75.9253 360.288C75.5028 360.231 75.1304 360.202 74.8082 360.202C73.6337 360.202 72.8638 360.6 72.4986 361.395V369H69.3941V357.377H72.3267L72.4127 358.763C73.0357 357.696 73.8987 357.162 75.0015 357.162C75.3453 357.162 75.6675 357.209 75.9683 357.302L75.9253 360.288ZM74.4691 363.081C74.4691 361.928 74.6911 360.9 75.1352 359.998C75.5792 359.096 76.2165 358.397 77.0473 357.903C77.8852 357.409 78.8555 357.162 79.9584 357.162C81.5268 357.162 82.8051 357.642 83.7934 358.602C84.7888 359.561 85.3438 360.865 85.4584 362.512L85.4799 363.307C85.4799 365.09 84.9822 366.522 83.9867 367.604C82.9913 368.678 81.6557 369.215 79.9799 369.215C78.3041 369.215 76.9649 368.678 75.9623 367.604C74.9669 366.529 74.4691 365.068 74.4691 363.221V363.081ZM77.5736 363.307C77.5736 364.41 77.7813 365.255 78.1967 365.842C78.612 366.422 79.2064 366.712 79.9799 366.712C80.7318 366.712 81.3191 366.425 81.7416 365.853C82.1641 365.272 82.3754 364.349 82.3754 363.081C82.3754 362 82.1641 361.162 81.7416 360.567C81.3191 359.973 80.7247 359.676 79.9584 359.676C79.1993 359.676 78.612 359.973 78.1967 360.567C77.7813 361.155 77.5736 362.068 77.5736 363.307ZM78.8197 354.337C78.8197 354.716 78.6801 355.039 78.4008 355.304C78.1215 355.562 77.7634 355.69 77.3266 355.69C76.8826 355.69 76.5245 355.558 76.2523 355.293C75.9802 355.028 75.8441 354.709 75.8441 354.337C75.8441 353.965 75.9802 353.646 76.2523 353.381C76.5245 353.109 76.8826 352.973 77.3266 352.973C77.7706 352.973 78.1286 353.109 78.4008 353.381C78.6801 353.646 78.8197 353.965 78.8197 354.337ZM81.0756 354.337C81.0756 353.95 81.2188 353.628 81.5053 353.37C81.7989 353.105 82.1534 352.973 82.5687 352.973C82.9913 352.973 83.3422 353.105 83.6215 353.37C83.9079 353.635 84.0512 353.957 84.0512 354.337C84.0512 354.709 83.9151 355.032 83.643 355.304C83.3708 355.569 83.0128 355.701 82.5687 355.701C82.1247 355.701 81.7631 355.569 81.4838 355.304C81.2117 355.032 81.0756 354.709 81.0756 354.337ZM89.5237 364.338L88.4065 365.455V369H85.302V352.5H88.4065V361.642L89.008 360.868L91.9836 357.377H95.7112L91.511 362.222L96.0764 369H92.51L89.5237 364.338ZM95.7696 372.921L94.1475 372.072L94.5343 371.374C95.0141 370.5 95.2611 369.63 95.2755 368.764V366.357H97.8966L97.8858 368.506C97.8787 369.301 97.6781 370.103 97.2843 370.912C96.8904 371.721 96.3855 372.391 95.7696 372.921ZM101.15 363.081C101.15 361.928 101.372 360.9 101.816 359.998C102.26 359.096 102.898 358.397 103.728 357.903C104.566 357.409 105.537 357.162 106.639 357.162C108.208 357.162 109.486 357.642 110.474 358.602C111.47 359.561 112.025 360.865 112.139 362.512L112.161 363.307C112.161 365.09 111.663 366.522 110.668 367.604C109.672 368.678 108.337 369.215 106.661 369.215C104.985 369.215 103.646 368.678 102.643 367.604C101.648 366.529 101.15 365.068 101.15 363.221V363.081ZM104.255 363.307C104.255 364.41 104.462 365.255 104.878 365.842C105.293 366.422 105.887 366.712 106.661 366.712C107.413 366.712 108 366.425 108.423 365.853C108.845 365.272 109.056 364.349 109.056 363.081C109.056 362 108.845 361.162 108.423 360.567C108 359.973 107.406 359.676 106.639 359.676C105.88 359.676 105.293 359.973 104.878 360.567C104.462 361.155 104.255 362.068 104.255 363.307ZM118.514 360.288C118.092 360.231 117.719 360.202 117.397 360.202C116.223 360.202 115.453 360.6 115.087 361.395V369H111.983V357.377H114.916L115.002 358.763C115.625 357.696 116.488 357.162 117.59 357.162C117.934 357.162 118.256 357.209 118.557 357.302L118.514 360.288ZM124.223 365.788C124.223 365.409 124.033 365.111 123.654 364.896C123.281 364.674 122.68 364.478 121.849 364.306C119.085 363.726 117.703 362.551 117.703 360.782C117.703 359.751 118.129 358.892 118.981 358.204C119.84 357.509 120.961 357.162 122.343 357.162C123.818 357.162 124.997 357.509 125.877 358.204C126.765 358.899 127.209 359.801 127.209 360.911H124.105C124.105 360.467 123.962 360.102 123.675 359.815C123.389 359.522 122.941 359.375 122.332 359.375C121.81 359.375 121.405 359.493 121.119 359.729C120.832 359.966 120.689 360.267 120.689 360.632C120.689 360.976 120.85 361.255 121.172 361.47C121.502 361.677 122.053 361.86 122.827 362.018C123.6 362.168 124.252 362.34 124.782 362.533C126.422 363.135 127.242 364.177 127.242 365.659C127.242 366.719 126.787 367.578 125.877 368.237C124.968 368.889 123.793 369.215 122.354 369.215C121.38 369.215 120.513 369.043 119.754 368.699C119.002 368.348 118.412 367.872 117.982 367.271C117.552 366.662 117.337 366.007 117.337 365.305H120.281C120.309 365.856 120.513 366.279 120.893 366.572C121.273 366.866 121.781 367.013 122.418 367.013C123.013 367.013 123.46 366.902 123.761 366.68C124.069 366.451 124.223 366.153 124.223 365.788ZM130.727 366.497H136.409V369H126.763V367.109L132.231 359.891H126.924V357.377H136.238V359.214L130.727 366.497ZM142.999 369C142.856 368.721 142.752 368.373 142.688 367.958C141.936 368.796 140.958 369.215 139.755 369.215C138.616 369.215 137.671 368.885 136.919 368.227C136.174 367.568 135.802 366.737 135.802 365.734C135.802 364.503 136.257 363.557 137.166 362.898C138.083 362.24 139.404 361.907 141.13 361.899H142.559V361.233C142.559 360.696 142.419 360.267 142.14 359.944C141.868 359.622 141.434 359.461 140.84 359.461C140.317 359.461 139.905 359.586 139.605 359.837C139.311 360.088 139.164 360.431 139.164 360.868H136.06C136.06 360.195 136.267 359.572 136.683 358.999C137.098 358.426 137.685 357.979 138.444 357.656C139.204 357.327 140.056 357.162 141.001 357.162C142.433 357.162 143.568 357.524 144.406 358.247C145.251 358.963 145.674 359.973 145.674 361.276V366.314C145.681 367.417 145.835 368.252 146.136 368.817V369H142.999ZM140.432 366.841C140.89 366.841 141.313 366.741 141.699 366.54C142.086 366.332 142.373 366.057 142.559 365.713V363.715H141.399C139.845 363.715 139.017 364.252 138.917 365.326L138.906 365.509C138.906 365.896 139.042 366.214 139.315 366.465C139.587 366.715 139.959 366.841 140.432 366.841ZM141.613 352.5H144.997L142.022 355.83H139.497L141.613 352.5ZM145.518 363.103C145.518 361.319 145.94 359.883 146.785 358.795C147.637 357.706 148.783 357.162 150.223 357.162C151.497 357.162 152.489 357.599 153.198 358.473L153.327 357.377H156.142V368.613C156.142 369.63 155.909 370.515 155.443 371.267C154.985 372.019 154.337 372.591 153.499 372.985C152.661 373.379 151.68 373.576 150.556 373.576C149.703 373.576 148.873 373.404 148.063 373.061C147.254 372.724 146.642 372.287 146.227 371.75L147.602 369.859C148.375 370.726 149.313 371.159 150.416 371.159C151.24 371.159 151.88 370.937 152.339 370.493C152.797 370.056 153.026 369.433 153.026 368.624V368.001C152.31 368.81 151.368 369.215 150.201 369.215C148.805 369.215 147.673 368.671 146.807 367.582C145.947 366.486 145.518 365.036 145.518 363.231V363.103ZM148.622 363.328C148.622 364.381 148.833 365.208 149.256 365.81C149.678 366.404 150.258 366.701 150.996 366.701C151.941 366.701 152.618 366.347 153.026 365.638V360.75C152.611 360.041 151.941 359.687 151.018 359.687C150.273 359.687 149.686 359.991 149.256 360.6C148.833 361.208 148.622 362.118 148.622 363.328ZM155.964 363.081C155.964 361.928 156.186 360.9 156.63 359.998C157.074 359.096 157.711 358.397 158.542 357.903C159.38 357.409 160.35 357.162 161.453 357.162C163.021 357.162 164.3 357.642 165.288 358.602C166.283 359.561 166.838 360.865 166.953 362.512L166.974 363.307C166.974 365.09 166.477 366.522 165.481 367.604C164.486 368.678 163.15 369.215 161.474 369.215C159.799 369.215 158.459 368.678 157.457 367.604C156.461 366.529 155.964 365.068 155.964 363.221V363.081ZM159.068 363.307C159.068 364.41 159.276 365.255 159.691 365.842C160.107 366.422 160.701 366.712 161.474 366.712C162.226 366.712 162.814 366.425 163.236 365.853C163.659 365.272 163.87 364.349 163.87 363.081C163.87 362 163.659 361.162 163.236 360.567C162.814 359.973 162.219 359.676 161.453 359.676C160.694 359.676 160.107 359.973 159.691 360.567C159.276 361.155 159.068 362.068 159.068 363.307ZM171.018 364.338L169.901 365.455V369H166.797V352.5H169.901V361.642L170.503 360.868L173.478 357.377H177.206L173.006 362.222L177.571 369H174.005L171.018 364.338ZM177.264 372.921L175.642 372.072L176.029 371.374C176.509 370.5 176.756 369.63 176.77 368.764V366.357H179.391L179.38 368.506C179.373 369.301 179.173 370.103 178.779 370.912C178.385 371.721 177.88 372.391 177.264 372.921ZM10.0839 380.52V383.377H12.0712V385.654H10.0839V391.455C10.0839 391.885 10.1663 392.193 10.331 392.379C10.4957 392.565 10.8108 392.658 11.2763 392.658C11.62 392.658 11.9244 392.633 12.1894 392.583V394.936C11.5807 395.122 10.954 395.215 10.3095 395.215C8.13241 395.215 7.02238 394.116 6.97942 391.917V385.654H5.28215V383.377H6.97942V380.52H10.0839ZM17.0603 395.215C15.3559 395.215 13.9666 394.692 12.8923 393.646C11.8253 392.601 11.2918 391.208 11.2918 389.468V389.167C11.2918 388 11.5173 386.958 11.9685 386.041C12.4197 385.117 13.0571 384.408 13.8806 383.914C14.7114 383.413 15.6567 383.162 16.7166 383.162C18.3064 383.162 19.5561 383.663 20.4656 384.666C21.3823 385.669 21.8406 387.09 21.8406 388.931V390.198H14.4392C14.5395 390.957 14.8403 391.566 15.3416 392.024C15.85 392.483 16.491 392.712 17.2644 392.712C18.4604 392.712 19.3949 392.279 20.0681 391.412L21.5935 393.12C21.128 393.779 20.4978 394.295 19.7029 394.667C18.908 395.032 18.0271 395.215 17.0603 395.215ZM16.7058 385.676C16.0899 385.676 15.5886 385.883 15.2019 386.299C14.8224 386.714 14.5789 387.309 14.4714 388.082H18.7898V387.835C18.7755 387.147 18.5893 386.618 18.2312 386.245C17.8731 385.866 17.3647 385.676 16.7058 385.676ZM28.0543 386.288C27.6318 386.231 27.2594 386.202 26.9371 386.202C25.7626 386.202 24.9928 386.6 24.6275 387.395V395H21.523V383.377H24.4557L24.5416 384.763C25.1646 383.696 26.0276 383.162 27.1305 383.162C27.4742 383.162 27.7965 383.209 28.0973 383.302L28.0543 386.288ZM34.4291 393.818C33.6629 394.749 32.603 395.215 31.2495 395.215C30.0034 395.215 29.0509 394.857 28.392 394.141C27.7403 393.424 27.4073 392.375 27.393 390.993V383.377H30.4975V390.886C30.4975 392.096 31.0489 392.701 32.1518 392.701C33.2045 392.701 33.9278 392.336 34.3217 391.605V383.377H37.437V395H34.5151L34.4291 393.818ZM31.2924 380.337C31.2924 380.716 31.1528 381.039 30.8735 381.304C30.5942 381.562 30.2361 381.69 29.7993 381.69C29.3552 381.69 28.9972 381.558 28.725 381.293C28.4529 381.028 28.3168 380.709 28.3168 380.337C28.3168 379.965 28.4529 379.646 28.725 379.381C28.9972 379.109 29.3552 378.973 29.7993 378.973C30.2433 378.973 30.6013 379.109 30.8735 379.381C31.1528 379.646 31.2924 379.965 31.2924 380.337ZM33.5483 380.337C33.5483 379.95 33.6915 379.628 33.978 379.37C34.2716 379.105 34.6261 378.973 35.0414 378.973C35.464 378.973 35.8149 379.105 36.0942 379.37C36.3806 379.635 36.5239 379.957 36.5239 380.337C36.5239 380.709 36.3878 381.032 36.1157 381.304C35.8435 381.569 35.4855 381.701 35.0414 381.701C34.5974 381.701 34.2358 381.569 33.9565 381.304C33.6844 381.032 33.5483 380.709 33.5483 380.337ZM40.9651 395H37.8499V378.5H40.9651V395ZM46.7921 395.215C45.0877 395.215 43.6984 394.692 42.6241 393.646C41.5571 392.601 41.0236 391.208 41.0236 389.468V389.167C41.0236 388 41.2491 386.958 41.7003 386.041C42.1515 385.117 42.7889 384.408 43.6124 383.914C44.4432 383.413 45.3885 383.162 46.4484 383.162C48.0382 383.162 49.2879 383.663 50.1974 384.666C51.1141 385.669 51.5724 387.09 51.5724 388.931V390.198H44.171C44.2713 390.957 44.5721 391.566 45.0734 392.024C45.5818 392.483 46.2228 392.712 46.9962 392.712C48.1922 392.712 49.1267 392.279 49.7999 391.412L51.3253 393.12C50.8598 393.779 50.2296 394.295 49.4347 394.667C48.6398 395.032 47.7589 395.215 46.7921 395.215ZM46.4376 385.676C45.8217 385.676 45.3204 385.883 44.9337 386.299C44.5542 386.714 44.3107 387.309 44.2032 388.082H48.5216V387.835C48.5073 387.147 48.3211 386.618 47.963 386.245C47.6049 385.866 47.0965 385.676 46.4376 385.676ZM54.9716 380.52V383.377H56.9589V385.654H54.9716V391.455C54.9716 391.885 55.054 392.193 55.2187 392.379C55.3834 392.565 55.6985 392.658 56.164 392.658C56.5078 392.658 56.8121 392.633 57.0771 392.583V394.936C56.4684 395.122 55.8418 395.215 55.1972 395.215C53.0201 395.215 51.9101 394.116 51.8671 391.917V385.654H50.1699V383.377H51.8671V380.52H54.9716ZM59.8748 395H56.7596V383.377H59.8748V395ZM56.577 380.369C56.577 379.904 56.7309 379.521 57.0389 379.22C57.354 378.919 57.7801 378.769 58.3172 378.769C58.8471 378.769 59.2697 378.919 59.5848 379.22C59.8999 379.521 60.0574 379.904 60.0574 380.369C60.0574 380.842 59.8963 381.229 59.574 381.529C59.2589 381.83 58.84 381.98 58.3172 381.98C57.7944 381.98 57.3719 381.83 57.0496 381.529C56.7345 381.229 56.577 380.842 56.577 380.369ZM70.0356 391.788C70.0356 391.409 69.8459 391.111 69.4663 390.896C69.0939 390.674 68.4923 390.478 67.6616 390.306C64.8973 389.726 63.5151 388.551 63.5151 386.782C63.5151 385.751 63.9412 384.892 64.7934 384.204C65.6528 383.509 66.7736 383.162 68.1557 383.162C69.631 383.162 70.8091 383.509 71.6899 384.204C72.5779 384.899 73.022 385.801 73.022 386.911H69.9175C69.9175 386.467 69.7742 386.102 69.4878 385.815C69.2013 385.522 68.7537 385.375 68.145 385.375C67.6222 385.375 67.2176 385.493 66.9311 385.729C66.6447 385.966 66.5014 386.267 66.5014 386.632C66.5014 386.976 66.6626 387.255 66.9848 387.47C67.3143 387.677 67.8657 387.86 68.6391 388.018C69.4126 388.168 70.0643 388.34 70.5942 388.533C72.2342 389.135 73.0542 390.177 73.0542 391.659C73.0542 392.719 72.5994 393.578 71.6899 394.237C70.7804 394.889 69.6059 395.215 68.1665 395.215C67.1925 395.215 66.326 395.043 65.5669 394.699C64.8149 394.348 64.2241 393.872 63.7944 393.271C63.3647 392.662 63.1499 392.007 63.1499 391.305H66.0932C66.1219 391.856 66.326 392.279 66.7056 392.572C67.0851 392.866 67.5936 393.013 68.2309 393.013C68.8253 393.013 69.2729 392.902 69.5737 392.68C69.8817 392.451 70.0356 392.153 70.0356 391.788ZM76.5394 392.497H82.222V395H72.5755V393.109L78.0433 385.891H72.7366V383.377H82.0501V385.214L76.5394 392.497ZM85.3527 395H82.2375V383.377H85.3527V395ZM82.0548 380.369C82.0548 379.904 82.2088 379.521 82.5168 379.22C82.8319 378.919 83.258 378.769 83.7951 378.769C84.325 378.769 84.7476 378.919 85.0627 379.22C85.3778 379.521 85.5353 379.904 85.5353 380.369C85.5353 380.842 85.3742 381.229 85.0519 381.529C84.7368 381.83 84.3179 381.98 83.7951 381.98C83.2723 381.98 82.8498 381.83 82.5275 381.529C82.2124 381.229 82.0548 380.842 82.0548 380.369ZM88.6875 383.377L88.7842 384.72C89.6149 383.681 90.7285 383.162 92.125 383.162C93.3568 383.162 94.2734 383.524 94.875 384.247C95.4766 384.97 95.7845 386.052 95.7988 387.491V395H92.6943V387.566C92.6943 386.908 92.5511 386.431 92.2646 386.138C91.9782 385.837 91.502 385.687 90.8359 385.687C89.9622 385.687 89.307 386.059 88.8701 386.804V395H85.7656V383.377H88.6875ZM99.7889 380.52V383.377H101.776V385.654H99.7889V391.455C99.7889 391.885 99.8713 392.193 100.036 392.379C100.201 392.565 100.516 392.658 100.981 392.658C101.325 392.658 101.629 392.633 101.894 392.583V394.936C101.286 395.122 100.659 395.215 100.014 395.215C97.8374 395.215 96.7274 394.116 96.6844 391.917V385.654H94.9872V383.377H96.6844V380.52H99.7889ZM106.765 395.215C105.061 395.215 103.672 394.692 102.597 393.646C101.53 392.601 100.997 391.208 100.997 389.468V389.167C100.997 388 101.222 386.958 101.674 386.041C102.125 385.117 102.762 384.408 103.586 383.914C104.416 383.413 105.362 383.162 106.422 383.162C108.011 383.162 109.261 383.663 110.171 384.666C111.087 385.669 111.546 387.09 111.546 388.931V390.198H104.144C104.244 390.957 104.545 391.566 105.047 392.024C105.555 392.483 106.196 392.712 106.969 392.712C108.165 392.712 109.1 392.279 109.773 391.412L111.299 393.12C110.833 393.779 110.203 394.295 109.408 394.667C108.613 395.032 107.732 395.215 106.765 395.215ZM106.411 385.676C105.795 385.676 105.294 385.883 104.907 386.299C104.527 386.714 104.284 387.309 104.176 388.082H108.495V387.835C108.48 387.147 108.294 386.618 107.936 386.245C107.578 385.866 107.07 385.676 106.411 385.676ZM115.45 390.338L114.333 391.455V395H111.228V378.5H114.333V387.642L114.934 386.868L117.91 383.377H121.637L117.437 388.222L122.002 395H118.436L115.45 390.338ZM130.573 391.788C130.573 391.409 130.384 391.111 130.004 390.896C129.632 390.674 129.03 390.478 128.199 390.306C125.435 389.726 124.053 388.551 124.053 386.782C124.053 385.751 124.479 384.892 125.331 384.204C126.191 383.509 127.311 383.162 128.694 383.162C130.169 383.162 131.347 383.509 132.228 384.204C133.116 384.899 133.56 385.801 133.56 386.911H130.455C130.455 386.467 130.312 386.102 130.026 385.815C129.739 385.522 129.292 385.375 128.683 385.375C128.16 385.375 127.755 385.493 127.469 385.729C127.182 385.966 127.039 386.267 127.039 386.632C127.039 386.976 127.2 387.255 127.523 387.47C127.852 387.677 128.404 387.86 129.177 388.018C129.95 388.168 130.602 388.34 131.132 388.533C132.772 389.135 133.592 390.177 133.592 391.659C133.592 392.719 133.137 393.578 132.228 394.237C131.318 394.889 130.144 395.215 128.704 395.215C127.73 395.215 126.864 395.043 126.105 394.699C125.353 394.348 124.762 393.872 124.332 393.271C123.903 392.662 123.688 392.007 123.688 391.305H126.631C126.66 391.856 126.864 392.279 127.243 392.572C127.623 392.866 128.131 393.013 128.769 393.013C129.363 393.013 129.811 392.902 130.112 392.68C130.419 392.451 130.573 392.153 130.573 391.788ZM137.077 392.497H142.76V395H133.113V393.109L138.581 385.891H133.274V383.377H142.588V385.214L137.077 392.497ZM147.792 395.215C146.087 395.215 144.698 394.692 143.624 393.646C142.557 392.601 142.023 391.208 142.023 389.468V389.167C142.023 388 142.249 386.958 142.7 386.041C143.151 385.117 143.789 384.408 144.612 383.914C145.443 383.413 146.388 383.162 147.448 383.162C149.038 383.162 150.288 383.663 151.197 384.666C152.114 385.669 152.572 387.09 152.572 388.931V390.198H145.171C145.271 390.957 145.572 391.566 146.073 392.024C146.582 392.483 147.223 392.712 147.996 392.712C149.192 392.712 150.127 392.279 150.8 391.412L152.325 393.12C151.86 393.779 151.229 394.295 150.434 394.667C149.64 395.032 148.759 395.215 147.792 395.215ZM147.437 385.676C146.822 385.676 146.32 385.883 145.933 386.299C145.554 386.714 145.31 387.309 145.203 388.082H149.521V387.835C149.507 387.147 149.321 386.618 148.963 386.245C148.605 385.866 148.096 385.676 147.437 385.676ZM158.786 386.288C158.363 386.231 157.991 386.202 157.669 386.202C156.494 386.202 155.724 386.6 155.359 387.395V395H152.255V383.377H155.187L155.273 384.763C155.896 383.696 156.759 383.162 157.862 383.162C158.206 383.162 158.528 383.209 158.829 383.302L158.786 386.288ZM161.476 395H158.361V383.377H161.476V395ZM158.178 380.369C158.178 379.904 158.332 379.521 158.64 379.22C158.955 378.919 159.381 378.769 159.919 378.769C160.448 378.769 160.871 378.919 161.186 379.22C161.501 379.521 161.659 379.904 161.659 380.369C161.659 380.842 161.498 381.229 161.175 381.529C160.86 381.83 160.441 381.98 159.919 381.98C159.396 381.98 158.973 381.83 158.651 381.529C158.336 381.229 158.178 380.842 158.178 380.369ZM164.811 383.377L164.908 384.72C165.738 383.681 166.852 383.162 168.248 383.162C169.48 383.162 170.397 383.524 170.998 384.247C171.6 384.97 171.908 386.052 171.922 387.491V395H168.818V387.566C168.818 386.908 168.675 386.431 168.388 386.138C168.102 385.837 167.625 385.687 166.959 385.687C166.086 385.687 165.43 386.059 164.994 386.804V395H161.889V383.377H164.811ZM175.912 380.52V383.377H177.9V385.654H175.912V391.455C175.912 391.885 175.995 392.193 176.159 392.379C176.324 392.565 176.639 392.658 177.105 392.658C177.448 392.658 177.753 392.633 178.018 392.583V394.936C177.409 395.122 176.782 395.215 176.138 395.215C173.961 395.215 172.851 394.116 172.808 391.917V385.654H171.111V383.377H172.808V380.52H175.912Z" fill="#ECE7DD"/>
</svg>
