<svg width="187" height="537" viewBox="0 0 187 537" fill="none" xmlns="http://www.w3.org/2000/svg">
<rect x="0.828125" y="0.943481" width="186.094" height="535.065" fill="#B0B1A9" fill-opacity="0.7"/>
<path d="M141.69 287.313V197.445H45.1328V321.674H111.343M141.69 287.313H111.343V321.674M141.69 287.313L111.343 321.674" stroke="#1B1D19" stroke-width="7"/>
<line x1="61.3477" y1="225.002" x2="126.179" y2="225.002" stroke="#1B1D19" stroke-width="7"/>
<line x1="61.3477" y1="240.531" x2="98.394" y2="240.531" stroke="#1B1D19" stroke-width="7"/>
<path d="M19.0576 352.293C18.5566 352.893 17.8485 353.36 16.9331 353.694C16.0177 354.022 15.0034 354.186 13.8901 354.186C12.7212 354.186 11.6945 353.932 10.8101 353.425C9.9318 352.911 9.25146 352.169 8.76904 351.198C8.29281 350.227 8.0485 349.086 8.03613 347.775V346.856C8.03613 345.508 8.26188 344.342 8.71338 343.359C9.17106 342.369 9.82666 341.615 10.6802 341.095C11.5399 340.569 12.5449 340.307 13.6953 340.307C15.2972 340.307 16.5496 340.69 17.4526 341.457C18.3556 342.218 18.8906 343.328 19.0576 344.788H16.3486C16.2249 344.014 15.9497 343.449 15.5229 343.09C15.1024 342.731 14.521 342.552 13.7788 342.552C12.8325 342.552 12.112 342.907 11.6172 343.619C11.1224 344.33 10.8719 345.388 10.8657 346.792V347.654C10.8657 349.071 11.1348 350.141 11.6729 350.864C12.2109 351.588 12.9995 351.95 14.0386 351.95C15.0838 351.95 15.8291 351.727 16.2744 351.282V348.953H13.7417V346.903H19.0576V352.293ZM25.9785 346.578L28.7896 340.492H31.8325L27.3979 349.102V354H24.5684V349.102L20.1338 340.492H23.186L25.9785 346.578ZM43.8838 347.552C43.8838 348.882 43.6488 350.048 43.1787 351.05C42.7087 352.052 42.0345 352.825 41.1562 353.369C40.2842 353.913 39.2822 354.186 38.1504 354.186C37.0309 354.186 36.0321 353.917 35.1538 353.378C34.2756 352.84 33.5952 352.073 33.1128 351.078C32.6304 350.076 32.3861 348.925 32.3799 347.626V346.958C32.3799 345.629 32.618 344.46 33.0942 343.452C33.5767 342.437 34.2539 341.661 35.126 341.123C36.0042 340.579 37.0062 340.307 38.1318 340.307C39.2575 340.307 40.2563 340.579 41.1284 341.123C42.0067 341.661 42.6839 342.437 43.1602 343.452C43.6426 344.46 43.8838 345.626 43.8838 346.949V347.552ZM41.0635 346.94C41.0635 345.524 40.8099 344.447 40.3027 343.711C39.7956 342.975 39.0719 342.607 38.1318 342.607C37.1979 342.607 36.4774 342.972 35.9702 343.702C35.4631 344.426 35.2064 345.49 35.2002 346.894V347.552C35.2002 348.931 35.4538 350.001 35.9609 350.762C36.4681 351.523 37.1979 351.903 38.1504 351.903C39.0843 351.903 39.8018 351.538 40.3027 350.809C40.8037 350.073 41.0573 349.003 41.0635 347.599V346.94ZM50.9067 349.055H48.6895V354H45.9062V340.492H50.9253C52.521 340.492 53.7518 340.848 54.6177 341.559C55.4836 342.27 55.9165 343.275 55.9165 344.574C55.9165 345.496 55.7155 346.266 55.3135 346.884C54.9176 347.497 54.3146 347.985 53.5044 348.35L56.4268 353.87V354H53.4395L50.9067 349.055ZM48.6895 346.801H50.9346C51.6335 346.801 52.1746 346.625 52.5581 346.272C52.9416 345.913 53.1333 345.422 53.1333 344.797C53.1333 344.16 52.9508 343.659 52.5859 343.294C52.2272 342.929 51.6737 342.747 50.9253 342.747H48.6895V346.801ZM65.0454 350.456C65.0454 349.93 64.8599 349.528 64.4888 349.25C64.1177 348.965 63.4497 348.669 62.4849 348.359C61.52 348.044 60.7562 347.735 60.1934 347.432C58.6595 346.603 57.8926 345.486 57.8926 344.083C57.8926 343.353 58.0967 342.703 58.5049 342.134C58.9193 341.559 59.5099 341.111 60.2769 340.789C61.05 340.467 61.9159 340.307 62.8745 340.307C63.8394 340.307 64.6991 340.483 65.4536 340.835C66.2082 341.182 66.7926 341.674 67.207 342.311C67.6276 342.948 67.8379 343.671 67.8379 344.481H65.0547C65.0547 343.863 64.8599 343.384 64.4702 343.043C64.0806 342.697 63.5332 342.524 62.8281 342.524C62.1478 342.524 61.619 342.669 61.2417 342.96C60.8644 343.244 60.6758 343.622 60.6758 344.092C60.6758 344.531 60.8953 344.899 61.3345 345.196C61.7798 345.493 62.4323 345.771 63.292 346.031C64.8753 346.507 66.0288 347.098 66.7524 347.803C67.4761 348.508 67.8379 349.386 67.8379 350.438C67.8379 351.606 67.3957 352.525 66.5112 353.193C65.6268 353.855 64.4362 354.186 62.9395 354.186C61.9004 354.186 60.9541 353.997 60.1006 353.62C59.2471 353.236 58.5946 352.714 58.1431 352.052C57.6978 351.39 57.4751 350.623 57.4751 349.751H60.2676C60.2676 351.242 61.1582 351.987 62.9395 351.987C63.6012 351.987 64.1177 351.854 64.4888 351.588C64.8599 351.316 65.0454 350.938 65.0454 350.456ZM75.1763 340.492H77.9595V349.844C77.9595 350.703 77.7677 351.464 77.3843 352.126C77.007 352.782 76.472 353.289 75.7793 353.647C75.0866 354.006 74.3042 354.186 73.4321 354.186C72.0034 354.186 70.8901 353.824 70.0923 353.1C69.2944 352.37 68.8955 351.34 68.8955 350.011H71.6973C71.6973 350.673 71.8364 351.161 72.1147 351.477C72.3931 351.792 72.8322 351.95 73.4321 351.95C73.964 351.95 74.3877 351.767 74.7031 351.402C75.0186 351.037 75.1763 350.518 75.1763 349.844V340.492ZM88.4707 348.146H83.127V351.764H89.3984V354H80.3438V340.492H89.3799V342.747H83.127V345.966H88.4707V348.146ZM93.8145 351.764H99.7241V354H91.0312V340.492H93.8145V351.764ZM109.456 348.146H104.112V351.764H110.384V354H101.329V340.492H110.365V342.747H104.112V345.966H109.456V348.146ZM123.001 354H120.218L114.8 345.112V354H112.017V340.492H114.8L120.227 349.398V340.492H123.001V354ZM135.321 342.747H131.184V354H128.4V342.747H124.318V340.492H135.321V342.747ZM145.044 348.146H139.7V351.764H145.972V354H136.917V340.492H145.953V342.747H139.7V345.966H145.044V348.146ZM142.14 336.846H145.062L142.493 339.722H140.312L142.14 336.846ZM154.609 350.456C154.609 349.93 154.423 349.528 154.052 349.25C153.681 348.965 153.013 348.669 152.048 348.359C151.083 348.044 150.32 347.735 149.757 347.432C148.223 346.603 147.456 345.486 147.456 344.083C147.456 343.353 147.66 342.703 148.068 342.134C148.483 341.559 149.073 341.111 149.84 340.789C150.613 340.467 151.479 340.307 152.438 340.307C153.403 340.307 154.263 340.483 155.017 340.835C155.772 341.182 156.356 341.674 156.771 342.311C157.191 342.948 157.401 343.671 157.401 344.481H154.618C154.618 343.863 154.423 343.384 154.034 343.043C153.644 342.697 153.097 342.524 152.392 342.524C151.711 342.524 151.182 342.669 150.805 342.96C150.428 343.244 150.239 343.622 150.239 344.092C150.239 344.531 150.459 344.899 150.898 345.196C151.343 345.493 151.996 345.771 152.855 346.031C154.439 346.507 155.592 347.098 156.316 347.803C157.04 348.508 157.401 349.386 157.401 350.438C157.401 351.606 156.959 352.525 156.075 353.193C155.19 353.855 154 354.186 152.503 354.186C151.464 354.186 150.518 353.997 149.664 353.62C148.811 353.236 148.158 352.714 147.707 352.052C147.261 351.39 147.039 350.623 147.039 349.751H149.831C149.831 351.242 150.722 351.987 152.503 351.987C153.165 351.987 153.681 351.854 154.052 351.588C154.423 351.316 154.609 350.938 154.609 350.456ZM167.421 348.146H162.077V351.764H168.349V354H159.294V340.492H168.33V342.747H162.077V345.966H167.421V348.146ZM174.212 348.582L172.765 350.141V354H169.981V340.492H172.765V346.615L173.989 344.936L177.431 340.492H180.854L176.058 346.495L180.994 354H177.682L174.212 348.582Z" fill="#1B1D19"/>
</svg>
