<svg width="187" height="537" viewBox="0 0 187 537" fill="none" xmlns="http://www.w3.org/2000/svg">
<rect x="0.828125" y="0.943604" width="186.094" height="535.065" fill="#353C44"/>
<path d="M63.6587 481.226H59.7739V492H58.1885V481.226H54.312V479.914H63.6587V481.226ZM74.5161 486.347C74.5161 487.531 74.3169 488.566 73.9185 489.452C73.52 490.332 72.9556 491.004 72.2251 491.469C71.4946 491.934 70.6424 492.166 69.6685 492.166C68.7166 492.166 67.8727 491.934 67.1367 491.469C66.4007 490.998 65.828 490.332 65.4185 489.468C65.0145 488.599 64.807 487.595 64.7959 486.455V485.583C64.7959 484.421 64.9979 483.395 65.4019 482.504C65.8058 481.613 66.3758 480.932 67.1118 480.462C67.8534 479.986 68.7 479.748 69.6519 479.748C70.6203 479.748 71.4725 479.983 72.2085 480.454C72.95 480.918 73.52 481.596 73.9185 482.487C74.3169 483.373 74.5161 484.405 74.5161 485.583V486.347ZM72.9307 485.567C72.9307 484.134 72.6429 483.035 72.0674 482.271C71.4919 481.502 70.6867 481.118 69.6519 481.118C68.6447 481.118 67.8506 481.502 67.2695 482.271C66.694 483.035 66.3979 484.098 66.3813 485.459V486.347C66.3813 487.736 66.6719 488.829 67.2529 489.626C67.8395 490.417 68.6447 490.813 69.6685 490.813C70.6978 490.813 71.4946 490.439 72.0591 489.692C72.6235 488.94 72.9141 487.863 72.9307 486.463V485.567ZM80.7251 489.883L84.1782 479.914H85.9214L81.439 492H80.0278L75.5537 479.914H77.2886L80.7251 489.883ZM93.5913 488.846H88.5278L87.3906 492H85.7471L90.3623 479.914H91.7568L96.3804 492H94.7451L93.5913 488.846ZM89.0093 487.534H93.1182L91.0596 481.881L89.0093 487.534ZM91.8481 476.677H93.7075L91.4829 479.117H90.2461L91.8481 476.677ZM98.0073 492V479.914H101.958C103.27 479.914 104.255 480.185 104.914 480.728C105.578 481.27 105.91 482.072 105.91 483.135C105.91 483.699 105.749 484.2 105.428 484.637C105.107 485.069 104.67 485.404 104.117 485.642C104.77 485.824 105.284 486.173 105.661 486.688C106.042 487.197 106.233 487.805 106.233 488.514C106.233 489.598 105.882 490.451 105.179 491.07C104.476 491.69 103.483 492 102.199 492H98.0073ZM99.6011 486.347V490.697H102.232C102.974 490.697 103.558 490.506 103.984 490.124C104.416 489.737 104.631 489.205 104.631 488.53C104.631 487.075 103.84 486.347 102.257 486.347H99.6011ZM99.6011 485.069H102.008C102.706 485.069 103.262 484.895 103.677 484.546C104.097 484.197 104.308 483.724 104.308 483.126C104.308 482.462 104.114 481.981 103.727 481.682C103.339 481.378 102.75 481.226 101.958 481.226H99.6011V485.069ZM108.599 492V479.914H112.55C113.862 479.914 114.847 480.185 115.505 480.728C116.169 481.27 116.501 482.072 116.501 483.135C116.501 483.699 116.341 484.2 116.02 484.637C115.699 485.069 115.262 485.404 114.708 485.642C115.361 485.824 115.876 486.173 116.252 486.688C116.634 487.197 116.825 487.805 116.825 488.514C116.825 489.598 116.474 490.451 115.771 491.07C115.068 491.69 114.075 492 112.791 492H108.599ZM110.193 486.347V490.697H112.824C113.566 490.697 114.15 490.506 114.576 490.124C115.007 489.737 115.223 489.205 115.223 488.53C115.223 487.075 114.432 486.347 112.849 486.347H110.193ZM110.193 485.069H112.6C113.297 485.069 113.854 484.895 114.269 484.546C114.689 484.197 114.899 483.724 114.899 483.126C114.899 482.462 114.706 481.981 114.318 481.682C113.931 481.378 113.342 481.226 112.55 481.226H110.193V485.069ZM130.082 488.846H125.018L123.881 492H122.237L126.853 479.914H128.247L132.871 492H131.235L130.082 488.846ZM125.5 487.534H129.608L127.55 481.881L125.5 487.534ZM16.1201 510.506C15.6719 511.004 15.0161 511.405 14.1528 511.709C13.2896 512.014 12.3433 512.166 11.314 512.166C9.73128 512.166 8.4668 511.682 7.52051 510.713C6.57422 509.745 6.06787 508.397 6.00146 506.671L5.99316 505.625C5.99316 504.435 6.20345 503.398 6.62402 502.512C7.0446 501.621 7.64502 500.938 8.42529 500.462C9.2111 499.98 10.1187 499.74 11.1479 499.74C12.6532 499.74 13.8208 500.086 14.6509 500.777C15.4865 501.464 15.9735 502.49 16.1118 503.857H13.3062C13.2065 503.182 12.9907 502.7 12.6587 502.413C12.3267 502.125 11.8563 501.981 11.2476 501.981C10.5171 501.981 9.95264 502.291 9.5542 502.911C9.15576 503.53 8.95378 504.416 8.94824 505.567V506.297C8.94824 507.504 9.15299 508.411 9.5625 509.02C9.97754 509.623 10.6278 509.925 11.5132 509.925C12.2713 509.925 12.8358 509.756 13.2065 509.418V507.542H11.1812V505.542H16.1201V510.506ZM22.2378 505.16L24.4624 499.914H27.6084L23.7153 507.659V512H20.7603V507.659L16.8755 499.914H20.0049L22.2378 505.16ZM38.4741 506.206C38.4741 507.385 38.2555 508.428 37.8184 509.335C37.3812 510.243 36.7586 510.943 35.9507 511.436C35.1483 511.923 34.2324 512.166 33.2031 512.166C32.1738 512.166 31.2607 511.931 30.4639 511.46C29.667 510.985 29.0444 510.307 28.5962 509.427C28.1535 508.547 27.9211 507.537 27.8989 506.397V505.716C27.8989 504.532 28.1147 503.489 28.5464 502.587C28.9836 501.679 29.6061 500.979 30.4141 500.487C31.2275 499.994 32.1517 499.748 33.1865 499.748C34.2103 499.748 35.1234 499.992 35.9258 500.479C36.7282 500.965 37.3507 501.66 37.7935 502.562C38.2417 503.458 38.4686 504.488 38.4741 505.65V506.206ZM35.5107 505.7C35.5107 504.499 35.3088 503.589 34.9048 502.969C34.5063 502.343 33.9336 502.031 33.1865 502.031C31.7256 502.031 30.9536 503.126 30.8706 505.318L30.8623 506.206C30.8623 507.39 31.0588 508.301 31.4517 508.937C31.8446 509.573 32.4284 509.892 33.2031 509.892C33.9391 509.892 34.5063 509.579 34.9048 508.954C35.3032 508.328 35.5052 507.429 35.5107 506.256V505.7ZM44.4673 507.733H42.8901V512H39.9766V499.914H44.7329C46.1662 499.914 47.2868 500.232 48.0947 500.869C48.9027 501.505 49.3066 502.404 49.3066 503.566C49.3066 504.408 49.1351 505.105 48.792 505.658C48.4544 506.212 47.9232 506.66 47.1982 507.003L49.7217 511.875V512H46.6006L44.4673 507.733ZM42.8901 505.484H44.7329C45.2863 505.484 45.7013 505.34 45.978 505.052C46.2603 504.759 46.4014 504.352 46.4014 503.832C46.4014 503.312 46.2603 502.905 45.978 502.612C45.6958 502.313 45.2808 502.164 44.7329 502.164H42.8901V505.484ZM57.3003 508.788C57.3003 508.361 57.1481 508.029 56.8438 507.792C56.5449 507.554 56.0164 507.307 55.2583 507.053C54.5002 506.798 53.8804 506.552 53.3989 506.314C51.8328 505.545 51.0498 504.488 51.0498 503.143C51.0498 502.473 51.2435 501.884 51.6309 501.375C52.0238 500.86 52.5771 500.462 53.291 500.18C54.0049 499.892 54.8073 499.748 55.6982 499.748C56.5671 499.748 57.3446 499.903 58.0308 500.213C58.7225 500.523 59.2593 500.965 59.6411 501.541C60.0229 502.111 60.2139 502.764 60.2139 503.5H57.3086C57.3086 503.007 57.1564 502.626 56.8521 502.354C56.5532 502.083 56.1465 501.948 55.6318 501.948C55.1117 501.948 54.6994 502.064 54.395 502.296C54.0962 502.523 53.9468 502.814 53.9468 503.168C53.9468 503.478 54.1128 503.76 54.4448 504.015C54.7769 504.264 55.3607 504.524 56.1963 504.795C57.0319 505.061 57.7181 505.348 58.2549 505.658C59.5609 506.411 60.2139 507.448 60.2139 508.771C60.2139 509.828 59.8154 510.658 59.0186 511.261C58.2217 511.864 57.1287 512.166 55.7397 512.166C54.7603 512.166 53.8721 511.992 53.0752 511.643C52.2839 511.289 51.6862 510.807 51.2822 510.199C50.8838 509.584 50.6846 508.879 50.6846 508.082H53.6064C53.6064 508.729 53.7725 509.208 54.1045 509.518C54.4421 509.822 54.9871 509.975 55.7397 509.975C56.2212 509.975 56.6003 509.872 56.877 509.667C57.1592 509.457 57.3003 509.164 57.3003 508.788ZM66.5225 499.914H69.4277V508.207C69.4277 508.976 69.2479 509.662 68.8882 510.265C68.534 510.868 68.036 511.336 67.394 511.668C66.7576 512 66.0465 512.166 65.2607 512.166C63.9437 512.166 62.9199 511.834 62.1895 511.17C61.459 510.506 61.0938 509.565 61.0938 508.348H64.0156C64.0156 508.901 64.1097 509.302 64.2979 509.551C64.4915 509.8 64.8125 509.925 65.2607 509.925C65.6647 509.925 65.9746 509.775 66.1904 509.477C66.4118 509.172 66.5225 508.749 66.5225 508.207V499.914ZM78.7661 506.878H74.1841V509.759H79.5962V512H71.2705V499.914H79.6128V502.164H74.1841V504.712H78.7661V506.878ZM83.6968 509.759H88.7686V512H80.7832V499.914H83.6968V509.759ZM97.4927 506.878H92.9106V509.759H98.3228V512H89.9971V499.914H98.3394V502.164H92.9106V504.712H97.4927V506.878ZM109.604 512H106.707L102.423 504.479V512H99.5098V499.914H102.423L106.698 507.435V499.914H109.604V512ZM120.685 502.164H117.058V512H114.144V502.164H110.583V499.914H120.685V502.164ZM129.417 506.878H124.835V509.759H130.248V512H121.922V499.914H130.264V502.164H124.835V504.712H129.417V506.878ZM126.703 496.677H129.658L127.351 499.283H125.068L126.703 496.677ZM137.668 508.788C137.668 508.361 137.516 508.029 137.212 507.792C136.913 507.554 136.385 507.307 135.626 507.053C134.868 506.798 134.249 506.552 133.767 506.314C132.201 505.545 131.418 504.488 131.418 503.143C131.418 502.473 131.612 501.884 131.999 501.375C132.392 500.86 132.945 500.462 133.659 500.18C134.373 499.892 135.175 499.748 136.066 499.748C136.935 499.748 137.713 499.903 138.399 500.213C139.091 500.523 139.627 500.965 140.009 501.541C140.391 502.111 140.582 502.764 140.582 503.5H137.677C137.677 503.007 137.525 502.626 137.22 502.354C136.921 502.083 136.515 501.948 136 501.948C135.48 501.948 135.068 502.064 134.763 502.296C134.464 502.523 134.315 502.814 134.315 503.168C134.315 503.478 134.481 503.76 134.813 504.015C135.145 504.264 135.729 504.524 136.564 504.795C137.4 505.061 138.086 505.348 138.623 505.658C139.929 506.411 140.582 507.448 140.582 508.771C140.582 509.828 140.184 510.658 139.387 511.261C138.59 511.864 137.497 512.166 136.108 512.166C135.128 512.166 134.24 511.992 133.443 511.643C132.652 511.289 132.054 510.807 131.65 510.199C131.252 509.584 131.053 508.879 131.053 508.082H133.975C133.975 508.729 134.141 509.208 134.473 509.518C134.81 509.822 135.355 509.975 136.108 509.975C136.589 509.975 136.968 509.872 137.245 509.667C137.527 509.457 137.668 509.164 137.668 508.788ZM149.572 506.878H144.99V509.759H150.402V512H142.076V499.914H150.418V502.164H144.99V504.712H149.572V506.878ZM155.698 507.501L154.502 508.812V512H151.589V499.914H154.502V505.243L155.515 503.708L158.122 499.914H161.724L157.64 505.26L161.724 512H158.271L155.698 507.501ZM167.385 507.111H164.546V512H162.944V499.914H166.945C168.307 499.914 169.353 500.224 170.083 500.844C170.819 501.464 171.187 502.366 171.187 503.55C171.187 504.302 170.982 504.958 170.573 505.517C170.169 506.076 169.604 506.494 168.879 506.771L171.718 511.9V512H170.008L167.385 507.111ZM164.546 505.808H166.995C167.786 505.808 168.415 505.603 168.879 505.193C169.35 504.784 169.585 504.236 169.585 503.55C169.585 502.803 169.361 502.23 168.913 501.832C168.47 501.433 167.828 501.231 166.987 501.226H164.546V505.808ZM180.26 506.414H175.022V510.697H181.106V512H173.428V499.914H181.023V501.226H175.022V505.11H180.26V506.414Z" fill="#ECE7DD"/>
<path d="M26.6009 233.777H20.9505L19.8763 237H16.4496L22.2718 221.359H25.2582L31.1127 237H27.6859L26.6009 233.777ZM21.8207 231.167H25.7308L23.765 225.312L21.8207 231.167ZM46.5909 237H43.3682L37.0948 226.709V237H33.8721V221.359H37.0948L43.3789 231.672V221.359H46.5909V237ZM52.4608 237.215C50.7564 237.215 49.3671 236.692 48.2929 235.646C47.2258 234.601 46.6923 233.208 46.6923 231.468V231.167C46.6923 230 46.9179 228.958 47.369 228.041C47.8202 227.117 48.4576 226.408 49.2811 225.914C50.1119 225.413 51.0572 225.162 52.1171 225.162C53.7069 225.162 54.9566 225.663 55.8661 226.666C56.7828 227.669 57.2411 229.09 57.2411 230.931V232.198H49.8397C49.94 232.957 50.2408 233.566 50.7421 234.024C51.2505 234.483 51.8915 234.712 52.6649 234.712C53.8609 234.712 54.7955 234.279 55.4686 233.412L56.994 235.12C56.5285 235.779 55.8983 236.295 55.1034 236.667C54.3085 237.032 53.4276 237.215 52.4608 237.215ZM52.1063 227.676C51.4904 227.676 50.9891 227.883 50.6024 228.299C50.2229 228.714 49.9794 229.309 49.872 230.082H54.1903V229.835C54.176 229.147 53.9898 228.618 53.6317 228.245C53.2736 227.866 52.7652 227.676 52.1063 227.676ZM59.8347 225.377L59.9314 226.677C60.7549 225.667 61.8685 225.162 63.2722 225.162C64.7689 225.162 65.7966 225.753 66.3552 226.935C67.1716 225.753 68.3353 225.162 69.8464 225.162C71.1068 225.162 72.045 225.531 72.6609 226.269C73.2767 226.999 73.5847 228.102 73.5847 229.577V237H70.4695V229.588C70.4695 228.929 70.3405 228.449 70.0827 228.148C69.8249 227.84 69.3702 227.687 68.7185 227.687C67.7875 227.687 67.143 228.131 66.7849 229.019L66.7956 237H63.6911V229.599C63.6911 228.925 63.5586 228.438 63.2937 228.138C63.0287 227.837 62.5775 227.687 61.9402 227.687C61.0593 227.687 60.4219 228.052 60.028 228.782V237H56.9236V225.377H59.8347ZM77.4566 234.497H83.1392V237H73.4927V235.109L78.9605 227.891H73.6539V225.377H82.9673V227.214L77.4566 234.497ZM88.1713 237.215C86.4669 237.215 85.0775 236.692 84.0033 235.646C82.9363 234.601 82.4027 233.208 82.4027 231.468V231.167C82.4027 230 82.6283 228.958 83.0795 228.041C83.5307 227.117 84.168 226.408 84.9916 225.914C85.8223 225.413 86.7676 225.162 87.8275 225.162C89.4174 225.162 90.6671 225.663 91.5766 226.666C92.4932 227.669 92.9516 229.09 92.9516 230.931V232.198H85.5502C85.6505 232.957 85.9512 233.566 86.4525 234.024C86.961 234.483 87.602 234.712 88.3754 234.712C89.5714 234.712 90.5059 234.279 91.1791 233.412L92.7045 235.12C92.239 235.779 91.6088 236.295 90.8139 236.667C90.0189 237.032 89.1381 237.215 88.1713 237.215ZM87.8168 227.676C87.2009 227.676 86.6996 227.883 86.3129 228.299C85.9333 228.714 85.6898 229.309 85.5824 230.082H89.9008V229.835C89.8865 229.147 89.7003 228.618 89.3422 228.245C88.9841 227.866 88.4756 227.676 87.8168 227.676ZM96.3508 222.52V225.377H98.3381V227.654H96.3508V233.455C96.3508 233.885 96.4332 234.193 96.5979 234.379C96.7626 234.565 97.0777 234.658 97.5432 234.658C97.887 234.658 98.1913 234.633 98.4563 234.583V236.936C97.8476 237.122 97.2209 237.215 96.5764 237.215C94.3993 237.215 93.2893 236.116 93.2463 233.917V227.654H91.5491V225.377H93.2463V222.52H96.3508ZM104.273 233.788C104.273 233.409 104.083 233.111 103.703 232.896C103.331 232.674 102.729 232.478 101.899 232.306C99.1342 231.726 97.752 230.551 97.752 228.782C97.752 227.751 98.1781 226.892 99.0303 226.204C99.8897 225.509 101.01 225.162 102.393 225.162C103.868 225.162 105.046 225.509 105.927 226.204C106.815 226.899 107.259 227.801 107.259 228.911H104.154C104.154 228.467 104.011 228.102 103.725 227.815C103.438 227.522 102.991 227.375 102.382 227.375C101.859 227.375 101.455 227.493 101.168 227.729C100.882 227.966 100.738 228.267 100.738 228.632C100.738 228.976 100.899 229.255 101.222 229.47C101.551 229.677 102.103 229.86 102.876 230.018C103.649 230.168 104.301 230.34 104.831 230.533C106.471 231.135 107.291 232.177 107.291 233.659C107.291 234.719 106.836 235.578 105.927 236.237C105.017 236.889 103.843 237.215 102.403 237.215C101.429 237.215 100.563 237.043 99.8038 236.699C99.0518 236.348 98.461 235.872 98.0313 235.271C97.6016 234.662 97.3868 234.007 97.3868 233.305H100.33C100.359 233.856 100.563 234.279 100.942 234.572C101.322 234.866 101.83 235.013 102.468 235.013C103.062 235.013 103.51 234.902 103.811 234.68C104.119 234.451 104.273 234.153 104.273 233.788ZM110.927 222.52V225.377H112.914V227.654H110.927V233.455C110.927 233.885 111.009 234.193 111.174 234.379C111.338 234.565 111.654 234.658 112.119 234.658C112.463 234.658 112.767 234.633 113.032 234.583V236.936C112.423 237.122 111.797 237.215 111.152 237.215C108.975 237.215 107.865 236.116 107.822 233.917V227.654H106.125V225.377H107.822V222.52H110.927ZM119.085 228.288C118.662 228.231 118.29 228.202 117.968 228.202C116.793 228.202 116.023 228.6 115.658 229.395V237H112.553V225.377H115.486L115.572 226.763C116.195 225.696 117.058 225.162 118.161 225.162C118.505 225.162 118.827 225.209 119.128 225.302L119.085 228.288ZM124.912 237C124.768 236.721 124.665 236.373 124.6 235.958C123.848 236.796 122.871 237.215 121.668 237.215C120.529 237.215 119.584 236.885 118.832 236.227C118.087 235.568 117.714 234.737 117.714 233.734C117.714 232.503 118.169 231.557 119.079 230.898C119.995 230.24 121.317 229.907 123.043 229.899H124.471V229.233C124.471 228.696 124.332 228.267 124.052 227.944C123.78 227.622 123.347 227.461 122.753 227.461C122.23 227.461 121.818 227.586 121.517 227.837C121.224 228.088 121.077 228.431 121.077 228.868H117.972C117.972 228.195 118.18 227.572 118.595 226.999C119.011 226.426 119.598 225.979 120.357 225.656C121.116 225.327 121.968 225.162 122.914 225.162C124.346 225.162 125.481 225.524 126.319 226.247C127.164 226.963 127.587 227.973 127.587 229.276V234.314C127.594 235.417 127.748 236.252 128.048 236.817V237H124.912ZM122.344 234.841C122.803 234.841 123.225 234.741 123.612 234.54C123.999 234.332 124.285 234.057 124.471 233.713V231.715H123.311C121.757 231.715 120.93 232.252 120.83 233.326L120.819 233.509C120.819 233.896 120.955 234.214 121.227 234.465C121.499 234.715 121.872 234.841 122.344 234.841ZM131.598 222.52V225.377H133.585V227.654H131.598V233.455C131.598 233.885 131.68 234.193 131.845 234.379C132.01 234.565 132.325 234.658 132.79 234.658C133.134 234.658 133.439 234.633 133.704 234.583V236.936C133.095 237.122 132.468 237.215 131.824 237.215C129.647 237.215 128.537 236.116 128.494 233.917V227.654H126.796V225.377H128.494V222.52H131.598ZM138.574 237.215C136.87 237.215 135.481 236.692 134.407 235.646C133.339 234.601 132.806 233.208 132.806 231.468V231.167C132.806 230 133.032 228.958 133.483 228.041C133.934 227.117 134.571 226.408 135.395 225.914C136.226 225.413 137.171 225.162 138.231 225.162C139.821 225.162 141.07 225.663 141.98 226.666C142.896 227.669 143.355 229.09 143.355 230.931V232.198H135.953C136.054 232.957 136.354 233.566 136.856 234.024C137.364 234.483 138.005 234.712 138.779 234.712C139.975 234.712 140.909 234.279 141.582 233.412L143.108 235.12C142.642 235.779 142.012 236.295 141.217 236.667C140.422 237.032 139.541 237.215 138.574 237.215ZM138.22 227.676C137.604 227.676 137.103 227.883 136.716 228.299C136.337 228.714 136.093 229.309 135.986 230.082H140.304V229.835C140.29 229.147 140.103 228.618 139.745 228.245C139.387 227.866 138.879 227.676 138.22 227.676ZM138.499 220.5H141.883L138.908 223.83H136.383L138.499 220.5ZM142.586 231.103C142.586 229.319 143.009 227.883 143.854 226.795C144.706 225.706 145.852 225.162 147.291 225.162C148.566 225.162 149.558 225.599 150.267 226.473L150.396 225.377H153.21V236.613C153.21 237.63 152.977 238.515 152.512 239.267C152.054 240.019 151.405 240.591 150.568 240.985C149.73 241.379 148.748 241.576 147.624 241.576C146.772 241.576 145.941 241.404 145.132 241.061C144.323 240.724 143.71 240.287 143.295 239.75L144.67 237.859C145.443 238.726 146.382 239.159 147.484 239.159C148.308 239.159 148.949 238.937 149.407 238.493C149.866 238.056 150.095 237.433 150.095 236.624V236.001C149.379 236.81 148.437 237.215 147.27 237.215C145.873 237.215 144.742 236.671 143.875 235.582C143.016 234.486 142.586 233.036 142.586 231.231V231.103ZM145.691 231.328C145.691 232.381 145.902 233.208 146.324 233.81C146.747 234.404 147.327 234.701 148.065 234.701C149.01 234.701 149.687 234.347 150.095 233.638V228.75C149.679 228.041 149.01 227.687 148.086 227.687C147.341 227.687 146.754 227.991 146.324 228.6C145.902 229.208 145.691 230.118 145.691 231.328ZM156.792 237H153.677V225.377H156.792V237ZM153.494 222.369C153.494 221.904 153.648 221.521 153.956 221.22C154.271 220.919 154.697 220.769 155.234 220.769C155.764 220.769 156.187 220.919 156.502 221.22C156.817 221.521 156.975 221.904 156.975 222.369C156.975 222.842 156.813 223.229 156.491 223.529C156.176 223.83 155.757 223.98 155.234 223.98C154.712 223.98 154.289 223.83 153.967 223.529C153.652 223.229 153.494 222.842 153.494 222.369ZM164.005 237C163.861 236.721 163.758 236.373 163.693 235.958C162.941 236.796 161.964 237.215 160.761 237.215C159.622 237.215 158.677 236.885 157.925 236.227C157.18 235.568 156.807 234.737 156.807 233.734C156.807 232.503 157.262 231.557 158.172 230.898C159.088 230.24 160.41 229.907 162.136 229.899H163.564V229.233C163.564 228.696 163.425 228.267 163.145 227.944C162.873 227.622 162.44 227.461 161.846 227.461C161.323 227.461 160.911 227.586 160.61 227.837C160.317 228.088 160.17 228.431 160.17 228.868H157.065C157.065 228.195 157.273 227.572 157.688 226.999C158.104 226.426 158.691 225.979 159.45 225.656C160.209 225.327 161.061 225.162 162.007 225.162C163.439 225.162 164.574 225.524 165.412 226.247C166.257 226.963 166.679 227.973 166.679 229.276V234.314C166.687 235.417 166.841 236.252 167.141 236.817V237H164.005ZM161.437 234.841C161.896 234.841 162.318 234.741 162.705 234.54C163.092 234.332 163.378 234.057 163.564 233.713V231.715H162.404C160.85 231.715 160.023 232.252 159.923 233.326L159.912 233.509C159.912 233.896 160.048 234.214 160.32 234.465C160.592 234.715 160.965 234.841 161.437 234.841ZM170.251 237H167.135V225.377H170.251V237ZM166.953 222.369C166.953 221.904 167.107 221.521 167.415 221.22C167.73 220.919 168.156 220.769 168.693 220.769C169.223 220.769 169.645 220.919 169.961 221.22C170.276 221.521 170.433 221.904 170.433 222.369C170.433 222.842 170.272 223.229 169.95 223.529C169.635 223.83 169.216 223.98 168.693 223.98C168.17 223.98 167.748 223.83 167.425 223.529C167.11 223.229 166.953 222.842 166.953 222.369ZM46.5019 256.727L44.8261 258.531V263H41.6035V247.359H44.8261V254.449L46.2441 252.505L50.2295 247.359H54.1933L48.6396 254.31L54.3545 263H50.5195L46.5019 256.727ZM59.9773 261.818C59.2111 262.749 58.1512 263.215 56.7977 263.215C55.5516 263.215 54.5991 262.857 53.9402 262.141C53.2885 261.424 52.9555 260.375 52.9412 258.993V251.377H56.0457V258.886C56.0457 260.096 56.5971 260.701 57.7 260.701C58.7527 260.701 59.476 260.336 59.8699 259.605V251.377H62.9852V263H60.0633L59.9773 261.818ZM66.9538 248.52V251.377H68.9411V253.654H66.9538V259.455C66.9538 259.885 67.0361 260.193 67.2008 260.379C67.3655 260.565 67.6806 260.658 68.1461 260.658C68.4899 260.658 68.7942 260.633 69.0592 260.583V262.936C68.4505 263.122 67.8239 263.215 67.1793 263.215C65.0023 263.215 63.8922 262.116 63.8493 259.917V253.654H62.152V251.377H63.8493V248.52H66.9538ZM75.3159 263C75.1727 262.721 75.0688 262.373 75.0044 261.958C74.2524 262.796 73.2749 263.215 72.0718 263.215C70.9331 263.215 69.9878 262.885 69.2358 262.227C68.491 261.568 68.1186 260.737 68.1186 259.734C68.1186 258.503 68.5734 257.557 69.4829 256.898C70.3996 256.24 71.7209 255.907 73.4468 255.899H74.8755V255.233C74.8755 254.696 74.7358 254.267 74.4565 253.944C74.1844 253.622 73.7511 253.461 73.1567 253.461C72.6339 253.461 72.2222 253.586 71.9214 253.837C71.6278 254.088 71.4809 254.431 71.4809 254.868H68.3764C68.3764 254.195 68.5841 253.572 68.9995 252.999C69.4149 252.426 70.0021 251.979 70.7612 251.656C71.5203 251.327 72.3725 251.162 73.3179 251.162C74.7501 251.162 75.8852 251.524 76.7231 252.247C77.5682 252.963 77.9907 253.973 77.9907 255.276V260.314C77.9979 261.417 78.1518 262.252 78.4526 262.817V263H75.3159ZM72.7485 260.841C73.2069 260.841 73.6294 260.741 74.0161 260.54C74.4028 260.332 74.6893 260.057 74.8755 259.713V257.715H73.7153C72.1613 257.715 71.3341 258.252 71.2339 259.326L71.2231 259.509C71.2231 259.896 71.3592 260.214 71.6313 260.465C71.9035 260.715 72.2759 260.841 72.7485 260.841ZM82.0023 248.52V251.377H83.9896V253.654H82.0023V259.455C82.0023 259.885 82.0846 260.193 82.2493 260.379C82.414 260.565 82.7292 260.658 83.1946 260.658C83.5384 260.658 83.8428 260.633 84.1077 260.583V262.936C83.499 263.122 82.8724 263.215 82.2279 263.215C80.0508 263.215 78.9407 262.116 78.8978 259.917V253.654H77.2005V251.377H78.8978V248.52H82.0023ZM82.8234 257.081C82.8234 255.928 83.0454 254.9 83.4894 253.998C83.9334 253.096 84.5708 252.397 85.4015 251.903C86.2394 251.409 87.2098 251.162 88.3127 251.162C89.881 251.162 91.1593 251.642 92.1476 252.602C93.1431 253.561 93.6981 254.865 93.8127 256.512L93.8341 257.307C93.8341 259.09 93.3364 260.522 92.341 261.604C91.3455 262.678 90.0099 263.215 88.3341 263.215C86.6584 263.215 85.3192 262.678 84.3166 261.604C83.3211 260.529 82.8234 259.068 82.8234 257.221V257.081ZM85.9279 257.307C85.9279 258.41 86.1356 259.255 86.5509 259.842C86.9663 260.422 87.5607 260.712 88.3341 260.712C89.0861 260.712 89.6733 260.425 90.0959 259.853C90.5184 259.272 90.7296 258.349 90.7296 257.081C90.7296 256 90.5184 255.162 90.0959 254.567C89.6733 253.973 89.0789 253.676 88.3127 253.676C87.5535 253.676 86.9663 253.973 86.5509 254.567C86.1356 255.155 85.9279 256.068 85.9279 257.307ZM88.925 246.5H92.3087L89.3332 249.83H86.8087L88.925 246.5ZM96.9326 263H93.8174V251.377H96.9326V263ZM93.6348 248.369C93.6348 247.904 93.7887 247.521 94.0967 247.22C94.4118 246.919 94.8379 246.769 95.375 246.769C95.9049 246.769 96.3275 246.919 96.6426 247.22C96.9577 247.521 97.1152 247.904 97.1152 248.369C97.1152 248.842 96.9541 249.229 96.6318 249.529C96.3167 249.83 95.8978 249.98 95.375 249.98C94.8522 249.98 94.4297 249.83 94.1074 249.529C93.7923 249.229 93.6348 248.842 93.6348 248.369ZM100.267 251.377L100.364 252.72C101.195 251.681 102.308 251.162 103.705 251.162C104.937 251.162 105.853 251.524 106.455 252.247C107.056 252.97 107.364 254.052 107.379 255.491V263H104.274V255.566C104.274 254.908 104.131 254.431 103.845 254.138C103.558 253.837 103.082 253.687 102.416 253.687C101.542 253.687 100.887 254.059 100.45 254.804V263H97.3456V251.377H100.267ZM111.369 248.52V251.377H113.356V253.654H111.369V259.455C111.369 259.885 111.451 260.193 111.616 260.379C111.781 260.565 112.096 260.658 112.561 260.658C112.905 260.658 113.209 260.633 113.474 260.583V262.936C112.866 263.122 112.239 263.215 111.594 263.215C109.417 263.215 108.307 262.116 108.264 259.917V253.654H106.567V251.377H108.264V248.52H111.369ZM118.345 263.215C116.641 263.215 115.251 262.692 114.177 261.646C113.11 260.601 112.577 259.208 112.577 257.468V257.167C112.577 256 112.802 254.958 113.253 254.041C113.705 253.117 114.342 252.408 115.166 251.914C115.996 251.413 116.942 251.162 118.001 251.162C119.591 251.162 120.841 251.663 121.751 252.666C122.667 253.669 123.126 255.09 123.126 256.931V258.198H115.724C115.824 258.957 116.125 259.566 116.626 260.024C117.135 260.483 117.776 260.712 118.549 260.712C119.745 260.712 120.68 260.279 121.353 259.412L122.878 261.12C122.413 261.779 121.783 262.295 120.988 262.667C120.193 263.032 119.312 263.215 118.345 263.215ZM117.991 253.676C117.375 253.676 116.874 253.883 116.487 254.299C116.107 254.714 115.864 255.309 115.756 256.082H120.075V255.835C120.06 255.147 119.874 254.618 119.516 254.245C119.158 253.866 118.65 253.676 117.991 253.676ZM118.27 246.5H121.654L118.678 249.83H116.154L118.27 246.5ZM126.374 260.497H132.057V263H122.411V261.109L127.878 253.891H122.572V251.377H131.885V253.214L126.374 260.497ZM137.089 263.215C135.385 263.215 133.995 262.692 132.921 261.646C131.854 260.601 131.321 259.208 131.321 257.468V257.167C131.321 256 131.546 254.958 131.997 254.041C132.448 253.117 133.086 252.408 133.909 251.914C134.74 251.413 135.685 251.162 136.745 251.162C138.335 251.162 139.585 251.663 140.494 252.666C141.411 253.669 141.869 255.09 141.869 256.931V258.198H134.468C134.568 258.957 134.869 259.566 135.37 260.024C135.879 260.483 136.52 260.712 137.293 260.712C138.489 260.712 139.424 260.279 140.097 259.412L141.622 261.12C141.157 261.779 140.527 262.295 139.732 262.667C138.937 263.032 138.056 263.215 137.089 263.215ZM136.735 253.676C136.119 253.676 135.617 253.883 135.231 254.299C134.851 254.714 134.608 255.309 134.5 256.082H138.819V255.835C138.804 255.147 138.618 254.618 138.26 254.245C137.902 253.866 137.393 253.676 136.735 253.676ZM145.269 248.52V251.377H147.256V253.654H145.269V259.455C145.269 259.885 145.351 260.193 145.516 260.379C145.68 260.565 145.995 260.658 146.461 260.658C146.805 260.658 147.109 260.633 147.374 260.583V262.936C146.765 263.122 146.139 263.215 145.494 263.215C143.317 263.215 142.207 262.116 142.164 259.917V253.654H140.467V251.377H142.164V248.52H145.269ZM3.76906 283.103C3.76906 281.319 4.19158 279.883 5.03664 278.795C5.88885 277.706 7.03468 277.162 8.47414 277.162C9.74888 277.162 10.7407 277.599 11.4497 278.473L11.5786 277.377H14.3931V288.613C14.3931 289.63 14.1603 290.515 13.6948 291.267C13.2365 292.019 12.5884 292.591 11.7505 292.985C10.9126 293.379 9.93149 293.576 8.80714 293.576C7.95493 293.576 7.1242 293.404 6.31496 293.061C5.50571 292.724 4.89341 292.287 4.47804 291.75L5.85304 289.859C6.62648 290.726 7.56463 291.159 8.6675 291.159C9.49106 291.159 10.132 290.937 10.5903 290.493C11.0487 290.056 11.2778 289.433 11.2778 288.624V288.001C10.5617 288.81 9.61997 289.215 8.45265 289.215C7.05617 289.215 5.92466 288.671 5.05812 287.582C4.19875 286.486 3.76906 285.036 3.76906 283.231V283.103ZM6.87355 283.328C6.87355 284.381 7.08481 285.208 7.50734 285.81C7.92987 286.404 8.50994 286.701 9.24757 286.701C10.1929 286.701 10.8696 286.347 11.2778 285.638V280.75C10.8625 280.041 10.1929 279.687 9.26906 279.687C8.52427 279.687 7.93703 279.991 7.50734 280.6C7.08481 281.208 6.87355 282.118 6.87355 283.328ZM14.2152 283.081C14.2152 281.928 14.4372 280.9 14.8812 279.998C15.3252 279.096 15.9626 278.397 16.7933 277.903C17.6312 277.409 18.6016 277.162 19.7044 277.162C21.2728 277.162 22.5511 277.642 23.5394 278.602C24.5349 279.561 25.0899 280.865 25.2044 282.512L25.2259 283.307C25.2259 285.09 24.7282 286.522 23.7328 287.604C22.7373 288.678 21.4017 289.215 19.7259 289.215C18.0502 289.215 16.711 288.678 15.7084 287.604C14.7129 286.529 14.2152 285.068 14.2152 283.221V283.081ZM17.3197 283.307C17.3197 284.41 17.5274 285.255 17.9427 285.842C18.3581 286.422 18.9525 286.712 19.7259 286.712C20.4779 286.712 21.0651 286.425 21.4877 285.853C21.9102 285.272 22.1214 284.349 22.1214 283.081C22.1214 282 21.9102 281.162 21.4877 280.567C21.0651 279.973 20.4707 279.676 19.7044 279.676C18.9453 279.676 18.3581 279.973 17.9427 280.567C17.5274 281.155 17.3197 282.068 17.3197 283.307ZM27.9055 277.377L28.0021 278.72C28.8329 277.681 29.9465 277.162 31.343 277.162C32.5747 277.162 33.4914 277.524 34.093 278.247C34.6945 278.97 35.0025 280.052 35.0168 281.491V289H31.9123V281.566C31.9123 280.908 31.7691 280.431 31.4826 280.138C31.1962 279.837 30.7199 279.687 30.0539 279.687C29.1802 279.687 28.5249 280.059 28.0881 280.804V289H24.9836V277.377H27.9055ZM34.8067 283.103C34.8067 281.291 35.2113 279.848 36.0205 278.773C36.8369 277.699 37.9506 277.162 39.3614 277.162C40.4929 277.162 41.4274 277.585 42.1651 278.43V272.5H45.2803V289H42.4766L42.3262 287.765C41.5528 288.731 40.5573 289.215 39.3399 289.215C37.972 289.215 36.8728 288.678 36.042 287.604C35.2185 286.522 34.8067 285.022 34.8067 283.103ZM37.9112 283.328C37.9112 284.417 38.1009 285.251 38.4805 285.831C38.8601 286.411 39.4115 286.701 40.1348 286.701C41.0944 286.701 41.7712 286.297 42.1651 285.487V280.9C41.7784 280.091 41.1088 279.687 40.1563 279.687C38.6595 279.687 37.9112 280.9 37.9112 283.328ZM45.1132 283.081C45.1132 281.928 45.3352 280.9 45.7792 279.998C46.2232 279.096 46.8606 278.397 47.6913 277.903C48.5292 277.409 49.4996 277.162 50.6024 277.162C52.1708 277.162 53.4491 277.642 54.4374 278.602C55.4328 279.561 55.9878 280.865 56.1024 282.512L56.1239 283.307C56.1239 285.09 55.6262 286.522 54.6307 287.604C53.6353 288.678 52.2997 289.215 50.6239 289.215C48.9481 289.215 47.6089 288.678 46.6063 287.604C45.6109 286.529 45.1132 285.068 45.1132 283.221V283.081ZM48.2177 283.307C48.2177 284.41 48.4253 285.255 48.8407 285.842C49.2561 286.422 49.8505 286.712 50.6239 286.712C51.3759 286.712 51.9631 286.425 52.3856 285.853C52.8081 285.272 53.0194 284.349 53.0194 283.081C53.0194 282 52.8081 281.162 52.3856 280.567C51.9631 279.973 51.3687 279.676 50.6024 279.676C49.8433 279.676 49.2561 279.973 48.8407 280.567C48.4253 281.155 48.2177 282.068 48.2177 283.307ZM59.3405 286.497H65.0232V289H55.3767V287.109L60.8444 279.891H55.5378V277.377H64.8513V279.214L59.3405 286.497ZM71.6128 289C71.4696 288.721 71.3658 288.373 71.3013 287.958C70.5494 288.796 69.5718 289.215 68.3687 289.215C67.23 289.215 66.2847 288.885 65.5328 288.227C64.788 287.568 64.4156 286.737 64.4156 285.734C64.4156 284.503 64.8703 283.557 65.7798 282.898C66.6965 282.24 68.0178 281.907 69.7437 281.899H71.1724V281.233C71.1724 280.696 71.0328 280.267 70.7535 279.944C70.4813 279.622 70.0481 279.461 69.4537 279.461C68.9309 279.461 68.5191 279.586 68.2183 279.837C67.9247 280.088 67.7779 280.431 67.7779 280.868H64.6734C64.6734 280.195 64.8811 279.572 65.2964 278.999C65.7118 278.426 66.299 277.979 67.0582 277.656C67.8173 277.327 68.6695 277.162 69.6148 277.162C71.0471 277.162 72.1822 277.524 73.0201 278.247C73.8651 278.963 74.2877 279.973 74.2877 281.276V286.314C74.2948 287.417 74.4488 288.252 74.7496 288.817V289H71.6128ZM69.0455 286.841C69.5038 286.841 69.9263 286.741 70.313 286.54C70.6998 286.332 70.9862 286.057 71.1724 285.713V283.715H70.0123C68.4582 283.715 67.6311 284.252 67.5308 285.326L67.5201 285.509C67.5201 285.896 67.6561 286.214 67.9283 286.465C68.2004 286.715 68.5728 286.841 69.0455 286.841ZM70.2271 272.5H73.6109L70.6353 275.83H68.1109L70.2271 272.5ZM80.8773 285.788C80.8773 285.409 80.6876 285.111 80.308 284.896C79.9356 284.674 79.334 284.478 78.5033 284.306C75.739 283.726 74.3568 282.551 74.3568 280.782C74.3568 279.751 74.7829 278.892 75.6352 278.204C76.4945 277.509 77.6153 277.162 78.9975 277.162C80.4727 277.162 81.6508 277.509 82.5316 278.204C83.4197 278.899 83.8637 279.801 83.8637 280.911H80.7592C80.7592 280.467 80.6159 280.102 80.3295 279.815C80.043 279.522 79.5954 279.375 78.9867 279.375C78.4639 279.375 78.0593 279.493 77.7729 279.729C77.4864 279.966 77.3432 280.267 77.3432 280.632C77.3432 280.976 77.5043 281.255 77.8266 281.47C78.156 281.677 78.7074 281.86 79.4809 282.018C80.2543 282.168 80.906 282.34 81.4359 282.533C83.0759 283.135 83.8959 284.177 83.8959 285.659C83.8959 286.719 83.4411 287.578 82.5316 288.237C81.6221 288.889 80.4477 289.215 79.0082 289.215C78.0342 289.215 77.1677 289.043 76.4086 288.699C75.6566 288.348 75.0658 287.872 74.6361 287.271C74.2064 286.662 73.9916 286.007 73.9916 285.305H76.935C76.9636 285.856 77.1677 286.279 77.5473 286.572C77.9268 286.866 78.4353 287.013 79.0727 287.013C79.6671 287.013 80.1146 286.902 80.4154 286.68C80.7234 286.451 80.8773 286.153 80.8773 285.788ZM90.55 289C90.4068 288.721 90.303 288.373 90.2385 287.958C89.4866 288.796 88.509 289.215 87.3059 289.215C86.1672 289.215 85.2219 288.885 84.47 288.227C83.7252 287.568 83.3528 286.737 83.3528 285.734C83.3528 284.503 83.8075 283.557 84.717 282.898C85.6337 282.24 86.955 281.907 88.6809 281.899H90.1096V281.233C90.1096 280.696 89.97 280.267 89.6907 279.944C89.4185 279.622 88.9853 279.461 88.3909 279.461C87.8681 279.461 87.4563 279.586 87.1555 279.837C86.8619 280.088 86.7151 280.431 86.7151 280.868H83.6106C83.6106 280.195 83.8183 279.572 84.2336 278.999C84.649 278.426 85.2362 277.979 85.9953 277.656C86.7545 277.327 87.6067 277.162 88.552 277.162C89.9843 277.162 91.1194 277.524 91.9573 278.247C92.8023 278.963 93.2248 279.973 93.2248 281.276V286.314C93.232 287.417 93.386 288.252 93.6868 288.817V289H90.55ZM87.9827 286.841C88.441 286.841 88.8635 286.741 89.2502 286.54C89.6369 286.332 89.9234 286.057 90.1096 285.713V283.715H88.9494C87.3954 283.715 86.5683 284.252 86.468 285.326L86.4573 285.509C86.4573 285.896 86.5933 286.214 86.8655 286.465C87.1376 286.715 87.51 286.841 87.9827 286.841ZM89.1643 272.5H92.5481L89.5725 275.83H87.0481L89.1643 272.5ZM103.993 283.296C103.993 285.158 103.596 286.612 102.801 287.657C102.006 288.696 100.896 289.215 99.4708 289.215C98.2104 289.215 97.2042 288.731 96.4522 287.765L96.3126 289H93.5196V272.5H96.6241V278.419C97.3402 277.581 98.282 277.162 99.4493 277.162C100.867 277.162 101.977 277.685 102.779 278.73C103.589 279.769 103.993 281.233 103.993 283.124V283.296ZM100.889 283.07C100.889 281.896 100.703 281.04 100.33 280.503C99.9578 279.959 99.4027 279.687 98.6651 279.687C97.6768 279.687 96.9965 280.091 96.6241 280.9V285.487C97.0037 286.304 97.6912 286.712 98.6866 286.712C99.6892 286.712 100.348 286.218 100.663 285.229C100.814 284.757 100.889 284.037 100.889 283.07ZM110.561 289C110.418 288.721 110.314 288.373 110.25 287.958C109.498 288.796 108.52 289.215 107.317 289.215C106.179 289.215 105.233 288.885 104.481 288.227C103.737 287.568 103.364 286.737 103.364 285.734C103.364 284.503 103.819 283.557 104.728 282.898C105.645 282.24 106.966 281.907 108.692 281.899H110.121V281.233C110.121 280.696 109.981 280.267 109.702 279.944C109.43 279.622 108.997 279.461 108.402 279.461C107.879 279.461 107.468 279.586 107.167 279.837C106.873 280.088 106.726 280.431 106.726 280.868H103.622C103.622 280.195 103.83 279.572 104.245 278.999C104.66 278.426 105.248 277.979 106.007 277.656C106.766 277.327 107.618 277.162 108.563 277.162C109.996 277.162 111.131 277.524 111.969 278.247C112.814 278.963 113.236 279.973 113.236 281.276V286.314C113.243 287.417 113.397 288.252 113.698 288.817V289H110.561ZM107.994 286.841C108.452 286.841 108.875 286.741 109.262 286.54C109.648 286.332 109.935 286.057 110.121 285.713V283.715H108.961C107.407 283.715 106.58 284.252 106.479 285.326L106.469 285.509C106.469 285.896 106.605 286.214 106.877 286.465C107.149 286.715 107.521 286.841 107.994 286.841ZM116.388 277.377L116.485 278.72C117.316 277.681 118.429 277.162 119.826 277.162C121.058 277.162 121.974 277.524 122.576 278.247C123.177 278.97 123.485 280.052 123.5 281.491V289H120.395V281.566C120.395 280.908 120.252 280.431 119.966 280.138C119.679 279.837 119.203 279.687 118.537 279.687C117.663 279.687 117.008 280.059 116.571 280.804V289H113.467V277.377H116.388ZM131.383 284.338L130.266 285.455V289H127.162V272.5H130.266V281.642L130.868 280.868L133.843 277.377H137.571L133.371 282.222L137.936 289H134.37L131.383 284.338ZM141.958 289.215C140.254 289.215 138.865 288.692 137.79 287.646C136.723 286.601 136.19 285.208 136.19 283.468V283.167C136.19 282 136.415 280.958 136.866 280.041C137.318 279.117 137.955 278.408 138.779 277.914C139.609 277.413 140.555 277.162 141.615 277.162C143.204 277.162 144.454 277.663 145.364 278.666C146.28 279.669 146.739 281.09 146.739 282.931V284.198H139.337C139.437 284.957 139.738 285.566 140.24 286.024C140.748 286.483 141.389 286.712 142.162 286.712C143.358 286.712 144.293 286.279 144.966 285.412L146.491 287.12C146.026 287.779 145.396 288.295 144.601 288.667C143.806 289.032 142.925 289.215 141.958 289.215ZM141.604 279.676C140.988 279.676 140.487 279.883 140.1 280.299C139.72 280.714 139.477 281.309 139.369 282.082H143.688V281.835C143.673 281.147 143.487 280.618 143.129 280.245C142.771 279.866 142.263 279.676 141.604 279.676ZM141.883 272.5H145.267L142.291 275.83H139.767L141.883 272.5ZM152.716 285.788C152.716 285.409 152.526 285.111 152.147 284.896C151.774 284.674 151.173 284.478 150.342 284.306C147.578 283.726 146.195 282.551 146.195 280.782C146.195 279.751 146.622 278.892 147.474 278.204C148.333 277.509 149.454 277.162 150.836 277.162C152.311 277.162 153.489 277.509 154.37 278.204C155.258 278.899 155.702 279.801 155.702 280.911H152.598C152.598 280.467 152.455 280.102 152.168 279.815C151.882 279.522 151.434 279.375 150.825 279.375C150.303 279.375 149.898 279.493 149.611 279.729C149.325 279.966 149.182 280.267 149.182 280.632C149.182 280.976 149.343 281.255 149.665 281.47C149.995 281.677 150.546 281.86 151.319 282.018C152.093 282.168 152.745 282.34 153.275 282.533C154.914 283.135 155.734 284.177 155.734 285.659C155.734 286.719 155.28 287.578 154.37 288.237C153.461 288.889 152.286 289.215 150.847 289.215C149.873 289.215 149.006 289.043 148.247 288.699C147.495 288.348 146.904 287.872 146.475 287.271C146.045 286.662 145.83 286.007 145.83 285.305H148.774C148.802 285.856 149.006 286.279 149.386 286.572C149.765 286.866 150.274 287.013 150.911 287.013C151.506 287.013 151.953 286.902 152.254 286.68C152.562 286.451 152.716 286.153 152.716 285.788ZM159.22 286.497H164.902V289H155.256V287.109L160.724 279.891H155.417V277.377H164.73V279.214L159.22 286.497ZM171.718 287.818C170.951 288.749 169.891 289.215 168.538 289.215C167.292 289.215 166.339 288.857 165.68 288.141C165.029 287.424 164.696 286.375 164.681 284.993V277.377H167.786V284.886C167.786 286.096 168.337 286.701 169.44 286.701C170.493 286.701 171.216 286.336 171.61 285.605V277.377H174.725V289H171.804L171.718 287.818ZM168.581 274.337C168.581 274.716 168.441 275.039 168.162 275.304C167.883 275.562 167.525 275.69 167.088 275.69C166.644 275.69 166.286 275.558 166.013 275.293C165.741 275.028 165.605 274.709 165.605 274.337C165.605 273.965 165.741 273.646 166.013 273.381C166.286 273.109 166.644 272.973 167.088 272.973C167.532 272.973 167.89 273.109 168.162 273.381C168.441 273.646 168.581 273.965 168.581 274.337ZM170.837 274.337C170.837 273.95 170.98 273.628 171.266 273.37C171.56 273.105 171.915 272.973 172.33 272.973C172.752 272.973 173.103 273.105 173.383 273.37C173.669 273.635 173.812 273.957 173.812 274.337C173.812 274.709 173.676 275.032 173.404 275.304C173.132 275.569 172.774 275.701 172.33 275.701C171.886 275.701 171.524 275.569 171.245 275.304C170.973 275.032 170.837 274.709 170.837 274.337ZM178.254 289H175.138V272.5H178.254V289ZM182.448 274.52V277.377H184.435V279.654H182.448V285.455C182.448 285.885 182.53 286.193 182.695 286.379C182.86 286.565 183.175 286.658 183.64 286.658C183.984 286.658 184.288 286.633 184.553 286.583V288.936C183.944 289.122 183.318 289.215 182.673 289.215C180.496 289.215 179.386 288.116 179.343 285.917V279.654H177.646V277.377H179.343V274.52H182.448ZM13.1362 306.288C12.7137 306.231 12.3413 306.202 12.0191 306.202C10.8446 306.202 10.0747 306.6 9.70949 307.395V315H6.605V303.377H9.53761L9.62355 304.763C10.2466 303.696 11.1096 303.162 12.2124 303.162C12.5562 303.162 12.8784 303.209 13.1792 303.302L13.1362 306.288ZM11.68 309.081C11.68 307.928 11.902 306.9 12.3461 305.998C12.7901 305.096 13.4274 304.397 14.2582 303.903C15.0961 303.409 16.0664 303.162 17.1693 303.162C18.7377 303.162 20.016 303.642 21.0043 304.602C21.9997 305.561 22.5547 306.865 22.6693 308.512L22.6908 309.307C22.6908 311.09 22.1931 312.522 21.1976 313.604C20.2022 314.678 18.8666 315.215 17.1908 315.215C15.515 315.215 14.1758 314.678 13.1732 313.604C12.1778 312.529 11.68 311.068 11.68 309.221V309.081ZM14.7845 309.307C14.7845 310.41 14.9922 311.255 15.4076 311.842C15.8229 312.422 16.4173 312.712 17.1908 312.712C17.9427 312.712 18.53 312.425 18.9525 311.853C19.375 311.272 19.5863 310.349 19.5863 309.081C19.5863 308 19.375 307.162 18.9525 306.567C18.53 305.973 17.9356 305.676 17.1693 305.676C16.4102 305.676 15.8229 305.973 15.4076 306.567C14.9922 307.155 14.7845 308.068 14.7845 309.307ZM16.0306 300.337C16.0306 300.716 15.891 301.039 15.6117 301.304C15.3324 301.562 14.9743 301.69 14.5375 301.69C14.0934 301.69 13.7354 301.558 13.4632 301.293C13.1911 301.028 13.055 300.709 13.055 300.337C13.055 299.965 13.1911 299.646 13.4632 299.381C13.7354 299.109 14.0934 298.973 14.5375 298.973C14.9815 298.973 15.3395 299.109 15.6117 299.381C15.891 299.646 16.0306 299.965 16.0306 300.337ZM18.2865 300.337C18.2865 299.95 18.4297 299.628 18.7162 299.37C19.0098 299.105 19.3643 298.973 19.7796 298.973C20.2022 298.973 20.5531 299.105 20.8324 299.37C21.1188 299.635 21.2621 299.957 21.2621 300.337C21.2621 300.709 21.126 301.032 20.8539 301.304C20.5817 301.569 20.2237 301.701 19.7796 301.701C19.3356 301.701 18.974 301.569 18.6947 301.304C18.4225 301.032 18.2865 300.709 18.2865 300.337ZM26.6916 311.208L28.8508 303.377H32.0949L28.174 315H25.2092L21.2883 303.377H24.5324L26.6916 311.208ZM34.6563 315H31.541V303.377H34.6563V315ZM31.3584 300.369C31.3584 299.904 31.5124 299.521 31.8203 299.22C32.1355 298.919 32.5616 298.769 33.0987 298.769C33.6286 298.769 34.0511 298.919 34.3662 299.22C34.6813 299.521 34.8389 299.904 34.8389 300.369C34.8389 300.842 34.6778 301.229 34.3555 301.529C34.0404 301.83 33.6215 301.98 33.0987 301.98C32.5759 301.98 32.1534 301.83 31.8311 301.529C31.516 301.229 31.3584 300.842 31.3584 300.369ZM34.6503 309.103C34.6503 307.291 35.0549 305.848 35.8641 304.773C36.6805 303.699 37.7941 303.162 39.205 303.162C40.3365 303.162 41.271 303.585 42.0087 304.43V298.5H45.1239V315H42.3202L42.1698 313.765C41.3964 314.731 40.4009 315.215 39.1835 315.215C37.8156 315.215 36.7163 314.678 35.8856 313.604C35.0621 312.522 34.6503 311.022 34.6503 309.103ZM37.7548 309.328C37.7548 310.417 37.9445 311.251 38.3241 311.831C38.7037 312.411 39.2551 312.701 39.9784 312.701C40.938 312.701 41.6148 312.297 42.0087 311.487V306.9C41.6219 306.091 40.9524 305.687 39.9999 305.687C38.5031 305.687 37.7548 306.9 37.7548 309.328ZM54.1783 315.215C52.4738 315.215 51.0845 314.692 50.0103 313.646C48.9433 312.601 48.4097 311.208 48.4097 309.468V309.167C48.4097 308 48.6353 306.958 49.0865 306.041C49.5377 305.117 50.175 304.408 50.9986 303.914C51.8293 303.413 52.7746 303.162 53.8345 303.162C55.4244 303.162 56.674 303.663 57.5835 304.666C58.5002 305.669 58.9585 307.09 58.9585 308.931V310.198H51.5572C51.6574 310.957 51.9582 311.566 52.4595 312.024C52.968 312.483 53.6089 312.712 54.3824 312.712C55.5783 312.712 56.5129 312.279 57.1861 311.412L58.7115 313.12C58.246 313.779 57.6158 314.295 56.8209 314.667C56.0259 315.032 55.1451 315.215 54.1783 315.215ZM53.8238 305.676C53.2079 305.676 52.7066 305.883 52.3199 306.299C51.9403 306.714 51.6968 307.309 51.5894 308.082H55.9078V307.835C55.8934 307.147 55.7072 306.618 55.3492 306.245C54.9911 305.866 54.4826 305.676 53.8238 305.676ZM61.9174 315H58.8021V298.5H61.9174V315ZM67.7444 315.215C66.0399 315.215 64.6506 314.692 63.5764 313.646C62.5093 312.601 61.9758 311.208 61.9758 309.468V309.167C61.9758 308 62.2014 306.958 62.6526 306.041C63.1037 305.117 63.7411 304.408 64.5647 303.914C65.3954 303.413 66.3407 303.162 67.4006 303.162C68.9905 303.162 70.2401 303.663 71.1496 304.666C72.0663 305.669 72.5246 307.09 72.5246 308.931V310.198H65.1233C65.2235 310.957 65.5243 311.566 66.0256 312.024C66.5341 312.483 67.175 312.712 67.9485 312.712C69.1444 312.712 70.079 312.279 70.7522 311.412L72.2776 313.12C71.8121 313.779 71.1819 314.295 70.3869 314.667C69.592 315.032 68.7112 315.215 67.7444 315.215ZM67.3899 305.676C66.774 305.676 66.2727 305.883 65.886 306.299C65.5064 306.714 65.2629 307.309 65.1555 308.082H69.4739V307.835C69.4595 307.147 69.2733 306.618 68.9153 306.245C68.5572 305.866 68.0487 305.676 67.3899 305.676ZM75.1182 303.377L75.2149 304.677C76.0385 303.667 77.1521 303.162 78.5557 303.162C80.0525 303.162 81.0802 303.753 81.6387 304.935C82.4552 303.753 83.6189 303.162 85.13 303.162C86.3904 303.162 87.3285 303.531 87.9444 304.269C88.5603 304.999 88.8682 306.102 88.8682 307.577V315H85.753V307.588C85.753 306.929 85.6241 306.449 85.3663 306.148C85.1085 305.84 84.6537 305.687 84.002 305.687C83.071 305.687 82.4265 306.131 82.0684 307.019L82.0792 315H78.9747V307.599C78.9747 306.925 78.8422 306.438 78.5772 306.138C78.3123 305.837 77.8611 305.687 77.2237 305.687C76.3428 305.687 75.7055 306.052 75.3116 306.782V315H72.2071V303.377H75.1182ZM92.7402 312.497H98.4228V315H88.7763V313.109L94.2441 305.891H88.9374V303.377H98.2509V305.214L92.7402 312.497ZM97.6218 309.081C97.6218 307.928 97.8438 306.9 98.2878 305.998C98.7319 305.096 99.3692 304.397 100.2 303.903C101.038 303.409 102.008 303.162 103.111 303.162C104.679 303.162 105.958 303.642 106.946 304.602C107.941 305.561 108.497 306.865 108.611 308.512L108.633 309.307C108.633 311.09 108.135 312.522 107.139 313.604C106.144 314.678 104.808 315.215 103.133 315.215C101.457 315.215 100.118 314.678 99.115 313.604C98.1196 312.529 97.6218 311.068 97.6218 309.221V309.081ZM100.726 309.307C100.726 310.41 100.934 311.255 101.349 311.842C101.765 312.422 102.359 312.712 103.133 312.712C103.885 312.712 104.472 312.425 104.894 311.853C105.317 311.272 105.528 310.349 105.528 309.081C105.528 308 105.317 307.162 104.894 306.567C104.472 305.973 103.877 305.676 103.111 305.676C102.352 305.676 101.765 305.973 101.349 306.567C100.934 307.155 100.726 308.068 100.726 309.307ZM106.022 298.511H108.804L105.947 301.744H103.605L106.022 298.511ZM101.822 298.511H104.561L102.101 301.744H99.824L101.822 298.511ZM114.754 303.377L114.851 304.677C115.675 303.667 116.788 303.162 118.192 303.162C119.689 303.162 120.716 303.753 121.275 304.935C122.091 303.753 123.255 303.162 124.766 303.162C126.026 303.162 126.965 303.531 127.581 304.269C128.196 304.999 128.504 306.102 128.504 307.577V315H125.389V307.588C125.389 306.929 125.26 306.449 125.002 306.148C124.745 305.84 124.29 305.687 123.638 305.687C122.707 305.687 122.063 306.131 121.705 307.019L121.715 315H118.611V307.599C118.611 306.925 118.478 306.438 118.213 306.138C117.948 305.837 117.497 305.687 116.86 305.687C115.979 305.687 115.342 306.052 114.948 306.782V315H111.843V303.377H114.754ZM135.771 313.818C135.004 314.749 133.945 315.215 132.591 315.215C131.345 315.215 130.393 314.857 129.734 314.141C129.082 313.424 128.749 312.375 128.735 310.993V303.377H131.839V310.886C131.839 312.096 132.391 312.701 133.493 312.701C134.546 312.701 135.269 312.336 135.663 311.605V303.377H138.779V315H135.857L135.771 313.818ZM141.888 303.377L141.984 304.72C142.815 303.681 143.929 303.162 145.325 303.162C146.557 303.162 147.474 303.524 148.075 304.247C148.677 304.97 148.985 306.052 148.999 307.491V315H145.895V307.566C145.895 306.908 145.751 306.431 145.465 306.138C145.178 305.837 144.702 305.687 144.036 305.687C143.163 305.687 142.507 306.059 142.07 306.804V315H138.966V303.377H141.888ZM153.494 310.338L152.377 311.455V315H149.272V298.5H152.377V307.642L152.978 306.868L155.954 303.377H159.682L155.481 308.222L160.047 315H156.48L153.494 310.338ZM165.67 315C165.526 314.721 165.423 314.373 165.358 313.958C164.606 314.796 163.629 315.215 162.426 315.215C161.287 315.215 160.342 314.885 159.59 314.227C158.845 313.568 158.472 312.737 158.472 311.734C158.472 310.503 158.927 309.557 159.837 308.898C160.753 308.24 162.075 307.907 163.801 307.899H165.229V307.233C165.229 306.696 165.09 306.267 164.81 305.944C164.538 305.622 164.105 305.461 163.511 305.461C162.988 305.461 162.576 305.586 162.275 305.837C161.982 306.088 161.835 306.431 161.835 306.868H158.73C158.73 306.195 158.938 305.572 159.353 304.999C159.769 304.426 160.356 303.979 161.115 303.656C161.874 303.327 162.726 303.162 163.672 303.162C165.104 303.162 166.239 303.524 167.077 304.247C167.922 304.963 168.345 305.973 168.345 307.276V312.314C168.352 313.417 168.506 314.252 168.806 314.817V315H165.67ZM163.102 312.841C163.561 312.841 163.983 312.741 164.37 312.54C164.757 312.332 165.043 312.057 165.229 311.713V309.715H164.069C162.515 309.715 161.688 310.252 161.588 311.326L161.577 311.509C161.577 311.896 161.713 312.214 161.985 312.465C162.257 312.715 162.63 312.841 163.102 312.841ZM164.284 298.5H167.668L164.692 301.83H162.168L164.284 298.5ZM172.861 310.338L171.744 311.455V315H168.639V298.5H171.744V307.642L172.345 306.868L175.321 303.377H179.048L174.848 308.222L179.414 315H175.847L172.861 310.338Z" fill="#ECE7DD"/>
</svg>
