<svg width="187" height="537" viewBox="0 0 187 537" fill="none" xmlns="http://www.w3.org/2000/svg">
<rect x="0.828125" y="0.943604" width="186.094" height="535.065" fill="#353C44"/>
<path d="M63.6587 451.226H59.7739V462H58.1885V451.226H54.312V449.914H63.6587V451.226ZM74.5161 456.347C74.5161 457.531 74.3169 458.566 73.9185 459.452C73.52 460.332 72.9556 461.004 72.2251 461.469C71.4946 461.934 70.6424 462.166 69.6685 462.166C68.7166 462.166 67.8727 461.934 67.1367 461.469C66.4007 460.998 65.828 460.332 65.4185 459.468C65.0145 458.599 64.807 457.595 64.7959 456.455V455.583C64.7959 454.421 64.9979 453.395 65.4019 452.504C65.8058 451.613 66.3758 450.932 67.1118 450.462C67.8534 449.986 68.7 449.748 69.6519 449.748C70.6203 449.748 71.4725 449.983 72.2085 450.454C72.95 450.918 73.52 451.596 73.9185 452.487C74.3169 453.373 74.5161 454.405 74.5161 455.583V456.347ZM72.9307 455.567C72.9307 454.134 72.6429 453.035 72.0674 452.271C71.4919 451.502 70.6867 451.118 69.6519 451.118C68.6447 451.118 67.8506 451.502 67.2695 452.271C66.694 453.035 66.3979 454.098 66.3813 455.459V456.347C66.3813 457.736 66.6719 458.829 67.2529 459.626C67.8395 460.417 68.6447 460.813 69.6685 460.813C70.6978 460.813 71.4946 460.439 72.0591 459.692C72.6235 458.94 72.9141 457.863 72.9307 456.463V455.567ZM80.7251 459.883L84.1782 449.914H85.9214L81.439 462H80.0278L75.5537 449.914H77.2886L80.7251 459.883ZM93.5913 458.846H88.5278L87.3906 462H85.7471L90.3623 449.914H91.7568L96.3804 462H94.7451L93.5913 458.846ZM89.0093 457.534H93.1182L91.0596 451.881L89.0093 457.534ZM91.8481 446.677H93.7075L91.4829 449.117H90.2461L91.8481 446.677ZM98.0073 462V449.914H101.958C103.27 449.914 104.255 450.185 104.914 450.728C105.578 451.27 105.91 452.072 105.91 453.135C105.91 453.699 105.749 454.2 105.428 454.637C105.107 455.069 104.67 455.404 104.117 455.642C104.77 455.824 105.284 456.173 105.661 456.688C106.042 457.197 106.233 457.805 106.233 458.514C106.233 459.598 105.882 460.451 105.179 461.07C104.476 461.69 103.483 462 102.199 462H98.0073ZM99.6011 456.347V460.697H102.232C102.974 460.697 103.558 460.506 103.984 460.124C104.416 459.737 104.631 459.205 104.631 458.53C104.631 457.075 103.84 456.347 102.257 456.347H99.6011ZM99.6011 455.069H102.008C102.706 455.069 103.262 454.895 103.677 454.546C104.097 454.197 104.308 453.724 104.308 453.126C104.308 452.462 104.114 451.981 103.727 451.682C103.339 451.378 102.75 451.226 101.958 451.226H99.6011V455.069ZM108.599 462V449.914H112.55C113.862 449.914 114.847 450.185 115.505 450.728C116.169 451.27 116.501 452.072 116.501 453.135C116.501 453.699 116.341 454.2 116.02 454.637C115.699 455.069 115.262 455.404 114.708 455.642C115.361 455.824 115.876 456.173 116.252 456.688C116.634 457.197 116.825 457.805 116.825 458.514C116.825 459.598 116.474 460.451 115.771 461.07C115.068 461.69 114.075 462 112.791 462H108.599ZM110.193 456.347V460.697H112.824C113.566 460.697 114.15 460.506 114.576 460.124C115.007 459.737 115.223 459.205 115.223 458.53C115.223 457.075 114.432 456.347 112.849 456.347H110.193ZM110.193 455.069H112.6C113.297 455.069 113.854 454.895 114.269 454.546C114.689 454.197 114.899 453.724 114.899 453.126C114.899 452.462 114.706 451.981 114.318 451.682C113.931 451.378 113.342 451.226 112.55 451.226H110.193V455.069ZM130.082 458.846H125.018L123.881 462H122.237L126.853 449.914H128.247L132.871 462H131.235L130.082 458.846ZM125.5 457.534H129.608L127.55 451.881L125.5 457.534ZM16.1201 480.506C15.6719 481.004 15.0161 481.405 14.1528 481.709C13.2896 482.014 12.3433 482.166 11.314 482.166C9.73128 482.166 8.4668 481.682 7.52051 480.713C6.57422 479.745 6.06787 478.397 6.00146 476.671L5.99316 475.625C5.99316 474.435 6.20345 473.398 6.62402 472.512C7.0446 471.621 7.64502 470.938 8.42529 470.462C9.2111 469.98 10.1187 469.74 11.1479 469.74C12.6532 469.74 13.8208 470.086 14.6509 470.777C15.4865 471.464 15.9735 472.49 16.1118 473.857H13.3062C13.2065 473.182 12.9907 472.7 12.6587 472.413C12.3267 472.125 11.8563 471.981 11.2476 471.981C10.5171 471.981 9.95264 472.291 9.5542 472.911C9.15576 473.53 8.95378 474.416 8.94824 475.567V476.297C8.94824 477.504 9.15299 478.411 9.5625 479.02C9.97754 479.623 10.6278 479.925 11.5132 479.925C12.2713 479.925 12.8358 479.756 13.2065 479.418V477.542H11.1812V475.542H16.1201V480.506ZM22.2378 475.16L24.4624 469.914H27.6084L23.7153 477.659V482H20.7603V477.659L16.8755 469.914H20.0049L22.2378 475.16ZM38.4741 476.206C38.4741 477.385 38.2555 478.428 37.8184 479.335C37.3812 480.243 36.7586 480.943 35.9507 481.436C35.1483 481.923 34.2324 482.166 33.2031 482.166C32.1738 482.166 31.2607 481.931 30.4639 481.46C29.667 480.985 29.0444 480.307 28.5962 479.427C28.1535 478.547 27.9211 477.537 27.8989 476.397V475.716C27.8989 474.532 28.1147 473.489 28.5464 472.587C28.9836 471.679 29.6061 470.979 30.4141 470.487C31.2275 469.994 32.1517 469.748 33.1865 469.748C34.2103 469.748 35.1234 469.992 35.9258 470.479C36.7282 470.965 37.3507 471.66 37.7935 472.562C38.2417 473.458 38.4686 474.488 38.4741 475.65V476.206ZM35.5107 475.7C35.5107 474.499 35.3088 473.589 34.9048 472.969C34.5063 472.343 33.9336 472.031 33.1865 472.031C31.7256 472.031 30.9536 473.126 30.8706 475.318L30.8623 476.206C30.8623 477.39 31.0588 478.301 31.4517 478.937C31.8446 479.573 32.4284 479.892 33.2031 479.892C33.9391 479.892 34.5063 479.579 34.9048 478.954C35.3032 478.328 35.5052 477.429 35.5107 476.256V475.7ZM44.4673 477.733H42.8901V482H39.9766V469.914H44.7329C46.1662 469.914 47.2868 470.232 48.0947 470.869C48.9027 471.505 49.3066 472.404 49.3066 473.566C49.3066 474.408 49.1351 475.105 48.792 475.658C48.4544 476.212 47.9232 476.66 47.1982 477.003L49.7217 481.875V482H46.6006L44.4673 477.733ZM42.8901 475.484H44.7329C45.2863 475.484 45.7013 475.34 45.978 475.052C46.2603 474.759 46.4014 474.352 46.4014 473.832C46.4014 473.312 46.2603 472.905 45.978 472.612C45.6958 472.313 45.2808 472.164 44.7329 472.164H42.8901V475.484ZM57.3003 478.788C57.3003 478.361 57.1481 478.029 56.8438 477.792C56.5449 477.554 56.0164 477.307 55.2583 477.053C54.5002 476.798 53.8804 476.552 53.3989 476.314C51.8328 475.545 51.0498 474.488 51.0498 473.143C51.0498 472.473 51.2435 471.884 51.6309 471.375C52.0238 470.86 52.5771 470.462 53.291 470.18C54.0049 469.892 54.8073 469.748 55.6982 469.748C56.5671 469.748 57.3446 469.903 58.0308 470.213C58.7225 470.523 59.2593 470.965 59.6411 471.541C60.0229 472.111 60.2139 472.764 60.2139 473.5H57.3086C57.3086 473.007 57.1564 472.626 56.8521 472.354C56.5532 472.083 56.1465 471.948 55.6318 471.948C55.1117 471.948 54.6994 472.064 54.395 472.296C54.0962 472.523 53.9468 472.814 53.9468 473.168C53.9468 473.478 54.1128 473.76 54.4448 474.015C54.7769 474.264 55.3607 474.524 56.1963 474.795C57.0319 475.061 57.7181 475.348 58.2549 475.658C59.5609 476.411 60.2139 477.448 60.2139 478.771C60.2139 479.828 59.8154 480.658 59.0186 481.261C58.2217 481.864 57.1287 482.166 55.7397 482.166C54.7603 482.166 53.8721 481.992 53.0752 481.643C52.2839 481.289 51.6862 480.807 51.2822 480.199C50.8838 479.584 50.6846 478.879 50.6846 478.082H53.6064C53.6064 478.729 53.7725 479.208 54.1045 479.518C54.4421 479.822 54.9871 479.975 55.7397 479.975C56.2212 479.975 56.6003 479.872 56.877 479.667C57.1592 479.457 57.3003 479.164 57.3003 478.788ZM66.5225 469.914H69.4277V478.207C69.4277 478.976 69.2479 479.662 68.8882 480.265C68.534 480.868 68.036 481.336 67.394 481.668C66.7576 482 66.0465 482.166 65.2607 482.166C63.9437 482.166 62.9199 481.834 62.1895 481.17C61.459 480.506 61.0938 479.565 61.0938 478.348H64.0156C64.0156 478.901 64.1097 479.302 64.2979 479.551C64.4915 479.8 64.8125 479.925 65.2607 479.925C65.6647 479.925 65.9746 479.775 66.1904 479.477C66.4118 479.172 66.5225 478.749 66.5225 478.207V469.914ZM78.7661 476.878H74.1841V479.759H79.5962V482H71.2705V469.914H79.6128V472.164H74.1841V474.712H78.7661V476.878ZM83.6968 479.759H88.7686V482H80.7832V469.914H83.6968V479.759ZM97.4927 476.878H92.9106V479.759H98.3228V482H89.9971V469.914H98.3394V472.164H92.9106V474.712H97.4927V476.878ZM109.604 482H106.707L102.423 474.479V482H99.5098V469.914H102.423L106.698 477.435V469.914H109.604V482ZM120.685 472.164H117.058V482H114.144V472.164H110.583V469.914H120.685V472.164ZM129.417 476.878H124.835V479.759H130.248V482H121.922V469.914H130.264V472.164H124.835V474.712H129.417V476.878ZM126.703 466.677H129.658L127.351 469.283H125.068L126.703 466.677ZM137.668 478.788C137.668 478.361 137.516 478.029 137.212 477.792C136.913 477.554 136.385 477.307 135.626 477.053C134.868 476.798 134.249 476.552 133.767 476.314C132.201 475.545 131.418 474.488 131.418 473.143C131.418 472.473 131.612 471.884 131.999 471.375C132.392 470.86 132.945 470.462 133.659 470.18C134.373 469.892 135.175 469.748 136.066 469.748C136.935 469.748 137.713 469.903 138.399 470.213C139.091 470.523 139.627 470.965 140.009 471.541C140.391 472.111 140.582 472.764 140.582 473.5H137.677C137.677 473.007 137.525 472.626 137.22 472.354C136.921 472.083 136.515 471.948 136 471.948C135.48 471.948 135.068 472.064 134.763 472.296C134.464 472.523 134.315 472.814 134.315 473.168C134.315 473.478 134.481 473.76 134.813 474.015C135.145 474.264 135.729 474.524 136.564 474.795C137.4 475.061 138.086 475.348 138.623 475.658C139.929 476.411 140.582 477.448 140.582 478.771C140.582 479.828 140.184 480.658 139.387 481.261C138.59 481.864 137.497 482.166 136.108 482.166C135.128 482.166 134.24 481.992 133.443 481.643C132.652 481.289 132.054 480.807 131.65 480.199C131.252 479.584 131.053 478.879 131.053 478.082H133.975C133.975 478.729 134.141 479.208 134.473 479.518C134.81 479.822 135.355 479.975 136.108 479.975C136.589 479.975 136.968 479.872 137.245 479.667C137.527 479.457 137.668 479.164 137.668 478.788ZM149.572 476.878H144.99V479.759H150.402V482H142.076V469.914H150.418V472.164H144.99V474.712H149.572V476.878ZM155.698 477.501L154.502 478.812V482H151.589V469.914H154.502V475.243L155.515 473.708L158.122 469.914H161.724L157.64 475.26L161.724 482H158.271L155.698 477.501ZM167.385 477.111H164.546V482H162.944V469.914H166.945C168.307 469.914 169.353 470.224 170.083 470.844C170.819 471.464 171.187 472.366 171.187 473.55C171.187 474.302 170.982 474.958 170.573 475.517C170.169 476.076 169.604 476.494 168.879 476.771L171.718 481.9V482H170.008L167.385 477.111ZM164.546 475.808H166.995C167.786 475.808 168.415 475.603 168.879 475.193C169.35 474.784 169.585 474.236 169.585 473.55C169.585 472.803 169.361 472.23 168.913 471.832C168.47 471.433 167.828 471.231 166.987 471.226H164.546V475.808ZM180.26 476.414H175.022V480.697H181.106V482H173.428V469.914H181.023V471.226H175.022V475.11H180.26V476.414Z" fill="#ECE7DD"/>
<path d="M32.0625 252.656H27.9531L27.1719 255H24.6797L28.9141 243.625H31.0859L35.3438 255H32.8516L32.0625 252.656ZM28.5859 250.758H31.4297L30 246.5L28.5859 250.758ZM49.6406 255H47.2969L42.7344 247.516V255H40.3906V243.625H42.7344L47.3047 251.125V243.625H49.6406V255ZM55.4297 255.156C54.1901 255.156 53.1797 254.776 52.3984 254.016C51.6224 253.255 51.2344 252.242 51.2344 250.977V250.758C51.2344 249.909 51.3984 249.151 51.7266 248.484C52.0547 247.812 52.5182 247.297 53.1172 246.938C53.7214 246.573 54.4089 246.391 55.1797 246.391C56.3359 246.391 57.2448 246.755 57.9062 247.484C58.5729 248.214 58.9062 249.247 58.9062 250.586V251.508H53.5234C53.5964 252.06 53.8151 252.503 54.1797 252.836C54.5495 253.169 55.0156 253.336 55.5781 253.336C56.4479 253.336 57.1276 253.021 57.6172 252.391L58.7266 253.633C58.388 254.112 57.9297 254.487 57.3516 254.758C56.7734 255.023 56.1328 255.156 55.4297 255.156ZM55.1719 248.219C54.724 248.219 54.3594 248.37 54.0781 248.672C53.8021 248.974 53.625 249.406 53.5469 249.969H56.6875V249.789C56.6771 249.289 56.5417 248.904 56.2812 248.633C56.0208 248.357 55.651 248.219 55.1719 248.219ZM62.3125 246.547L62.3828 247.492C62.9818 246.758 63.7917 246.391 64.8125 246.391C65.901 246.391 66.6484 246.82 67.0547 247.68C67.6484 246.82 68.4948 246.391 69.5938 246.391C70.5104 246.391 71.1927 246.659 71.6406 247.195C72.0885 247.727 72.3125 248.529 72.3125 249.602V255H70.0469V249.609C70.0469 249.13 69.9531 248.781 69.7656 248.562C69.5781 248.339 69.2474 248.227 68.7734 248.227C68.0964 248.227 67.6276 248.549 67.3672 249.195L67.375 255H65.1172V249.617C65.1172 249.128 65.0208 248.773 64.8281 248.555C64.6354 248.336 64.3073 248.227 63.8438 248.227C63.2031 248.227 62.7396 248.492 62.4531 249.023V255H60.1953V246.547H62.3125ZM76.6484 253.18H80.7812V255H73.7656V253.625L77.7422 248.375H73.8828V246.547H80.6562V247.883L76.6484 253.18ZM85.9609 255.156C84.7214 255.156 83.7109 254.776 82.9297 254.016C82.1536 253.255 81.7656 252.242 81.7656 250.977V250.758C81.7656 249.909 81.9297 249.151 82.2578 248.484C82.5859 247.812 83.0495 247.297 83.6484 246.938C84.2526 246.573 84.9401 246.391 85.7109 246.391C86.8672 246.391 87.776 246.755 88.4375 247.484C89.1042 248.214 89.4375 249.247 89.4375 250.586V251.508H84.0547C84.1276 252.06 84.3464 252.503 84.7109 252.836C85.0807 253.169 85.5469 253.336 86.1094 253.336C86.9792 253.336 87.6589 253.021 88.1484 252.391L89.2578 253.633C88.9193 254.112 88.4609 254.487 87.8828 254.758C87.3047 255.023 86.6641 255.156 85.9609 255.156ZM85.7031 248.219C85.2552 248.219 84.8906 248.37 84.6094 248.672C84.3333 248.974 84.1562 249.406 84.0781 249.969H87.2188V249.789C87.2083 249.289 87.0729 248.904 86.8125 248.633C86.5521 248.357 86.1823 248.219 85.7031 248.219ZM93.4297 244.469V246.547H94.875V248.203H93.4297V252.422C93.4297 252.734 93.4896 252.958 93.6094 253.094C93.7292 253.229 93.9583 253.297 94.2969 253.297C94.5469 253.297 94.7682 253.279 94.9609 253.242V254.953C94.5182 255.089 94.0625 255.156 93.5938 255.156C92.0104 255.156 91.2031 254.357 91.1719 252.758V248.203H89.9375V246.547H91.1719V244.469H93.4297ZM100.711 252.664C100.711 252.388 100.573 252.172 100.297 252.016C100.026 251.854 99.5885 251.711 98.9844 251.586C96.974 251.164 95.9688 250.31 95.9688 249.023C95.9688 248.273 96.2786 247.648 96.8984 247.148C97.5234 246.643 98.3385 246.391 99.3438 246.391C100.417 246.391 101.273 246.643 101.914 247.148C102.56 247.654 102.883 248.31 102.883 249.117H100.625C100.625 248.794 100.521 248.529 100.312 248.32C100.104 248.107 99.7786 248 99.3359 248C98.9557 248 98.6615 248.086 98.4531 248.258C98.2448 248.43 98.1406 248.648 98.1406 248.914C98.1406 249.164 98.2578 249.367 98.4922 249.523C98.7318 249.674 99.1328 249.807 99.6953 249.922C100.258 250.031 100.732 250.156 101.117 250.297C102.31 250.734 102.906 251.492 102.906 252.57C102.906 253.341 102.576 253.966 101.914 254.445C101.253 254.919 100.398 255.156 99.3516 255.156C98.6432 255.156 98.013 255.031 97.4609 254.781C96.9141 254.526 96.4844 254.18 96.1719 253.742C95.8594 253.299 95.7031 252.823 95.7031 252.312H97.8438C97.8646 252.714 98.013 253.021 98.2891 253.234C98.5651 253.448 98.9349 253.555 99.3984 253.555C99.8307 253.555 100.156 253.474 100.375 253.312C100.599 253.146 100.711 252.93 100.711 252.664ZM107.07 244.469V246.547H108.516V248.203H107.07V252.422C107.07 252.734 107.13 252.958 107.25 253.094C107.37 253.229 107.599 253.297 107.938 253.297C108.188 253.297 108.409 253.279 108.602 253.242V254.953C108.159 255.089 107.703 255.156 107.234 255.156C105.651 255.156 104.844 254.357 104.812 252.758V248.203H103.578V246.547H104.812V244.469H107.07ZM114.523 248.664C114.216 248.622 113.945 248.602 113.711 248.602C112.857 248.602 112.297 248.891 112.031 249.469V255H109.773V246.547H111.906L111.969 247.555C112.422 246.779 113.049 246.391 113.852 246.391C114.102 246.391 114.336 246.424 114.555 246.492L114.523 248.664ZM120.281 255C120.177 254.797 120.102 254.544 120.055 254.242C119.508 254.852 118.797 255.156 117.922 255.156C117.094 255.156 116.406 254.917 115.859 254.438C115.318 253.958 115.047 253.354 115.047 252.625C115.047 251.729 115.378 251.042 116.039 250.562C116.706 250.083 117.667 249.841 118.922 249.836H119.961V249.352C119.961 248.961 119.859 248.648 119.656 248.414C119.458 248.18 119.143 248.062 118.711 248.062C118.331 248.062 118.031 248.154 117.812 248.336C117.599 248.518 117.492 248.768 117.492 249.086H115.234C115.234 248.596 115.385 248.143 115.688 247.727C115.99 247.31 116.417 246.984 116.969 246.75C117.521 246.51 118.141 246.391 118.828 246.391C119.87 246.391 120.695 246.654 121.305 247.18C121.919 247.701 122.227 248.435 122.227 249.383V253.047C122.232 253.849 122.344 254.456 122.562 254.867V255H120.281ZM118.414 253.43C118.747 253.43 119.055 253.357 119.336 253.211C119.617 253.06 119.826 252.859 119.961 252.609V251.156H119.117C117.987 251.156 117.385 251.547 117.312 252.328L117.305 252.461C117.305 252.742 117.404 252.974 117.602 253.156C117.799 253.339 118.07 253.43 118.414 253.43ZM126.664 244.469V246.547H128.109V248.203H126.664V252.422C126.664 252.734 126.724 252.958 126.844 253.094C126.964 253.229 127.193 253.297 127.531 253.297C127.781 253.297 128.003 253.279 128.195 253.242V254.953C127.753 255.089 127.297 255.156 126.828 255.156C125.245 255.156 124.438 254.357 124.406 252.758V248.203H123.172V246.547H124.406V244.469H126.664ZM133.258 255.156C132.018 255.156 131.008 254.776 130.227 254.016C129.451 253.255 129.062 252.242 129.062 250.977V250.758C129.062 249.909 129.227 249.151 129.555 248.484C129.883 247.812 130.346 247.297 130.945 246.938C131.549 246.573 132.237 246.391 133.008 246.391C134.164 246.391 135.073 246.755 135.734 247.484C136.401 248.214 136.734 249.247 136.734 250.586V251.508H131.352C131.424 252.06 131.643 252.503 132.008 252.836C132.378 253.169 132.844 253.336 133.406 253.336C134.276 253.336 134.956 253.021 135.445 252.391L136.555 253.633C136.216 254.112 135.758 254.487 135.18 254.758C134.602 255.023 133.961 255.156 133.258 255.156ZM133 248.219C132.552 248.219 132.188 248.37 131.906 248.672C131.63 248.974 131.453 249.406 131.375 249.969H134.516V249.789C134.505 249.289 134.37 248.904 134.109 248.633C133.849 248.357 133.479 248.219 133 248.219ZM133.203 243H135.664L133.5 245.422H131.664L133.203 243ZM137.695 250.711C137.695 249.414 138.003 248.37 138.617 247.578C139.237 246.786 140.07 246.391 141.117 246.391C142.044 246.391 142.766 246.708 143.281 247.344L143.375 246.547H145.422V254.719C145.422 255.458 145.253 256.102 144.914 256.648C144.581 257.195 144.109 257.612 143.5 257.898C142.891 258.185 142.177 258.328 141.359 258.328C140.74 258.328 140.135 258.203 139.547 257.953C138.958 257.708 138.513 257.391 138.211 257L139.211 255.625C139.773 256.255 140.456 256.57 141.258 256.57C141.857 256.57 142.323 256.409 142.656 256.086C142.99 255.768 143.156 255.315 143.156 254.727V254.273C142.635 254.862 141.951 255.156 141.102 255.156C140.086 255.156 139.263 254.76 138.633 253.969C138.008 253.172 137.695 252.117 137.695 250.805V250.711ZM139.953 250.875C139.953 251.641 140.107 252.242 140.414 252.68C140.721 253.112 141.143 253.328 141.68 253.328C142.367 253.328 142.859 253.07 143.156 252.555V249C142.854 248.484 142.367 248.227 141.695 248.227C141.154 248.227 140.727 248.448 140.414 248.891C140.107 249.333 139.953 249.995 139.953 250.875ZM149.547 255H147.281V246.547H149.547V255ZM147.148 244.359C147.148 244.021 147.26 243.742 147.484 243.523C147.714 243.305 148.023 243.195 148.414 243.195C148.799 243.195 149.107 243.305 149.336 243.523C149.565 243.742 149.68 244.021 149.68 244.359C149.68 244.703 149.562 244.984 149.328 245.203C149.099 245.422 148.794 245.531 148.414 245.531C148.034 245.531 147.727 245.422 147.492 245.203C147.263 244.984 147.148 244.703 147.148 244.359ZM156.312 255C156.208 254.797 156.133 254.544 156.086 254.242C155.539 254.852 154.828 255.156 153.953 255.156C153.125 255.156 152.438 254.917 151.891 254.438C151.349 253.958 151.078 253.354 151.078 252.625C151.078 251.729 151.409 251.042 152.07 250.562C152.737 250.083 153.698 249.841 154.953 249.836H155.992V249.352C155.992 248.961 155.891 248.648 155.688 248.414C155.49 248.18 155.174 248.062 154.742 248.062C154.362 248.062 154.062 248.154 153.844 248.336C153.63 248.518 153.523 248.768 153.523 249.086H151.266C151.266 248.596 151.417 248.143 151.719 247.727C152.021 247.31 152.448 246.984 153 246.75C153.552 246.51 154.172 246.391 154.859 246.391C155.901 246.391 156.727 246.654 157.336 247.18C157.951 247.701 158.258 248.435 158.258 249.383V253.047C158.263 253.849 158.375 254.456 158.594 254.867V255H156.312ZM154.445 253.43C154.779 253.43 155.086 253.357 155.367 253.211C155.648 253.06 155.857 252.859 155.992 252.609V251.156H155.148C154.018 251.156 153.417 251.547 153.344 252.328L153.336 252.461C153.336 252.742 153.435 252.974 153.633 253.156C153.831 253.339 154.102 253.43 154.445 253.43ZM162.375 255H160.109V246.547H162.375V255ZM159.977 244.359C159.977 244.021 160.089 243.742 160.312 243.523C160.542 243.305 160.852 243.195 161.242 243.195C161.628 243.195 161.935 243.305 162.164 243.523C162.393 243.742 162.508 244.021 162.508 244.359C162.508 244.703 162.391 244.984 162.156 245.203C161.927 245.422 161.622 245.531 161.242 245.531C160.862 245.531 160.555 245.422 160.32 245.203C160.091 244.984 159.977 244.703 159.977 244.359ZM50.3359 269.438L49.1172 270.75V274H46.7734V262.625H49.1172V267.781L50.1484 266.367L53.0469 262.625H55.9297L51.8906 267.68L56.0469 274H53.2578L50.3359 269.438ZM61.6562 273.141C61.099 273.818 60.3281 274.156 59.3438 274.156C58.4375 274.156 57.7448 273.896 57.2656 273.375C56.7917 272.854 56.5495 272.091 56.5391 271.086V265.547H58.7969V271.008C58.7969 271.888 59.1979 272.328 60 272.328C60.7656 272.328 61.2917 272.062 61.5781 271.531V265.547H63.8438V274H61.7188L61.6562 273.141ZM68.25 263.469V265.547H69.6953V267.203H68.25V271.422C68.25 271.734 68.3099 271.958 68.4297 272.094C68.5495 272.229 68.7786 272.297 69.1172 272.297C69.3672 272.297 69.5885 272.279 69.7812 272.242V273.953C69.3385 274.089 68.8828 274.156 68.4141 274.156C66.8307 274.156 66.0234 273.357 65.9922 271.758V267.203H64.7578V265.547H65.9922V263.469H68.25ZM75.8516 274C75.7474 273.797 75.6719 273.544 75.625 273.242C75.0781 273.852 74.3672 274.156 73.4922 274.156C72.6641 274.156 71.9766 273.917 71.4297 273.438C70.888 272.958 70.6172 272.354 70.6172 271.625C70.6172 270.729 70.9479 270.042 71.6094 269.562C72.276 269.083 73.237 268.841 74.4922 268.836H75.5312V268.352C75.5312 267.961 75.4297 267.648 75.2266 267.414C75.0286 267.18 74.7135 267.062 74.2812 267.062C73.901 267.062 73.6016 267.154 73.3828 267.336C73.1693 267.518 73.0625 267.768 73.0625 268.086H70.8047C70.8047 267.596 70.9557 267.143 71.2578 266.727C71.5599 266.31 71.987 265.984 72.5391 265.75C73.0911 265.51 73.7109 265.391 74.3984 265.391C75.4401 265.391 76.2656 265.654 76.875 266.18C77.4896 266.701 77.7969 267.435 77.7969 268.383V272.047C77.8021 272.849 77.9141 273.456 78.1328 273.867V274H75.8516ZM73.9844 272.43C74.3177 272.43 74.625 272.357 74.9062 272.211C75.1875 272.06 75.3958 271.859 75.5312 271.609V270.156H74.6875C73.5573 270.156 72.9557 270.547 72.8828 271.328L72.875 271.461C72.875 271.742 72.974 271.974 73.1719 272.156C73.3698 272.339 73.6406 272.43 73.9844 272.43ZM82.2344 263.469V265.547H83.6797V267.203H82.2344V271.422C82.2344 271.734 82.2943 271.958 82.4141 272.094C82.5339 272.229 82.763 272.297 83.1016 272.297C83.3516 272.297 83.5729 272.279 83.7656 272.242V273.953C83.3229 274.089 82.8672 274.156 82.3984 274.156C80.8151 274.156 80.0078 273.357 79.9766 271.758V267.203H78.7422V265.547H79.9766V263.469H82.2344ZM84.3516 269.695C84.3516 268.857 84.513 268.109 84.8359 267.453C85.1589 266.797 85.6224 266.289 86.2266 265.93C86.8359 265.57 87.5417 265.391 88.3438 265.391C89.4844 265.391 90.4141 265.74 91.1328 266.438C91.8568 267.135 92.2604 268.083 92.3438 269.281L92.3594 269.859C92.3594 271.156 91.9974 272.198 91.2734 272.984C90.5495 273.766 89.5781 274.156 88.3594 274.156C87.1406 274.156 86.1667 273.766 85.4375 272.984C84.7135 272.203 84.3516 271.141 84.3516 269.797V269.695ZM86.6094 269.859C86.6094 270.661 86.7604 271.276 87.0625 271.703C87.3646 272.125 87.7969 272.336 88.3594 272.336C88.9062 272.336 89.3333 272.128 89.6406 271.711C89.9479 271.289 90.1016 270.617 90.1016 269.695C90.1016 268.909 89.9479 268.299 89.6406 267.867C89.3333 267.435 88.901 267.219 88.3438 267.219C87.7917 267.219 87.3646 267.435 87.0625 267.867C86.7604 268.294 86.6094 268.958 86.6094 269.859ZM88.7891 262H91.25L89.0859 264.422H87.25L88.7891 262ZM96.1328 274H93.8672V265.547H96.1328V274ZM93.7344 263.359C93.7344 263.021 93.8464 262.742 94.0703 262.523C94.2995 262.305 94.6094 262.195 95 262.195C95.3854 262.195 95.6927 262.305 95.9219 262.523C96.151 262.742 96.2656 263.021 96.2656 263.359C96.2656 263.703 96.1484 263.984 95.9141 264.203C95.6849 264.422 95.3802 264.531 95 264.531C94.6198 264.531 94.3125 264.422 94.0781 264.203C93.849 263.984 93.7344 263.703 93.7344 263.359ZM100.078 265.547L100.148 266.523C100.753 265.768 101.562 265.391 102.578 265.391C103.474 265.391 104.141 265.654 104.578 266.18C105.016 266.706 105.24 267.492 105.25 268.539V274H102.992V268.594C102.992 268.115 102.888 267.768 102.68 267.555C102.471 267.336 102.125 267.227 101.641 267.227C101.005 267.227 100.529 267.497 100.211 268.039V274H97.9531V265.547H100.078ZM109.672 263.469V265.547H111.117V267.203H109.672V271.422C109.672 271.734 109.732 271.958 109.852 272.094C109.971 272.229 110.201 272.297 110.539 272.297C110.789 272.297 111.01 272.279 111.203 272.242V273.953C110.76 274.089 110.305 274.156 109.836 274.156C108.253 274.156 107.445 273.357 107.414 271.758V267.203H106.18V265.547H107.414V263.469H109.672ZM116.266 274.156C115.026 274.156 114.016 273.776 113.234 273.016C112.458 272.255 112.07 271.242 112.07 269.977V269.758C112.07 268.909 112.234 268.151 112.562 267.484C112.891 266.812 113.354 266.297 113.953 265.938C114.557 265.573 115.245 265.391 116.016 265.391C117.172 265.391 118.081 265.755 118.742 266.484C119.409 267.214 119.742 268.247 119.742 269.586V270.508H114.359C114.432 271.06 114.651 271.503 115.016 271.836C115.385 272.169 115.852 272.336 116.414 272.336C117.284 272.336 117.964 272.021 118.453 271.391L119.562 272.633C119.224 273.112 118.766 273.487 118.188 273.758C117.609 274.023 116.969 274.156 116.266 274.156ZM116.008 267.219C115.56 267.219 115.195 267.37 114.914 267.672C114.638 267.974 114.461 268.406 114.383 268.969H117.523V268.789C117.513 268.289 117.378 267.904 117.117 267.633C116.857 267.357 116.487 267.219 116.008 267.219ZM116.211 262H118.672L116.508 264.422H114.672L116.211 262ZM123.625 272.18H127.758V274H120.742V272.625L124.719 267.375H120.859V265.547H127.633V266.883L123.625 272.18ZM132.938 274.156C131.698 274.156 130.688 273.776 129.906 273.016C129.13 272.255 128.742 271.242 128.742 269.977V269.758C128.742 268.909 128.906 268.151 129.234 267.484C129.562 266.812 130.026 266.297 130.625 265.938C131.229 265.573 131.917 265.391 132.688 265.391C133.844 265.391 134.753 265.755 135.414 266.484C136.081 267.214 136.414 268.247 136.414 269.586V270.508H131.031C131.104 271.06 131.323 271.503 131.688 271.836C132.057 272.169 132.523 272.336 133.086 272.336C133.956 272.336 134.635 272.021 135.125 271.391L136.234 272.633C135.896 273.112 135.438 273.487 134.859 273.758C134.281 274.023 133.641 274.156 132.938 274.156ZM132.68 267.219C132.232 267.219 131.867 267.37 131.586 267.672C131.31 267.974 131.133 268.406 131.055 268.969H134.195V268.789C134.185 268.289 134.049 267.904 133.789 267.633C133.529 267.357 133.159 267.219 132.68 267.219ZM140.406 263.469V265.547H141.852V267.203H140.406V271.422C140.406 271.734 140.466 271.958 140.586 272.094C140.706 272.229 140.935 272.297 141.273 272.297C141.523 272.297 141.745 272.279 141.938 272.242V273.953C141.495 274.089 141.039 274.156 140.57 274.156C138.987 274.156 138.18 273.357 138.148 271.758V267.203H136.914V265.547H138.148V263.469H140.406ZM13.9375 288.711C13.9375 287.414 14.2448 286.37 14.8594 285.578C15.4792 284.786 16.3125 284.391 17.3594 284.391C18.2865 284.391 19.0078 284.708 19.5234 285.344L19.6172 284.547H21.6641V292.719C21.6641 293.458 21.4948 294.102 21.1562 294.648C20.8229 295.195 20.3516 295.612 19.7422 295.898C19.1328 296.185 18.4193 296.328 17.6016 296.328C16.9818 296.328 16.3776 296.203 15.7891 295.953C15.2005 295.708 14.7552 295.391 14.4531 295L15.4531 293.625C16.0156 294.255 16.6979 294.57 17.5 294.57C18.099 294.57 18.5651 294.409 18.8984 294.086C19.2318 293.768 19.3984 293.315 19.3984 292.727V292.273C18.8776 292.862 18.1927 293.156 17.3438 293.156C16.3281 293.156 15.5052 292.76 14.875 291.969C14.25 291.172 13.9375 290.117 13.9375 288.805V288.711ZM16.1953 288.875C16.1953 289.641 16.349 290.242 16.6562 290.68C16.9635 291.112 17.3854 291.328 17.9219 291.328C18.6094 291.328 19.1016 291.07 19.3984 290.555V287C19.0964 286.484 18.6094 286.227 17.9375 286.227C17.3958 286.227 16.9688 286.448 16.6562 286.891C16.349 287.333 16.1953 287.995 16.1953 288.875ZM23.0547 288.695C23.0547 287.857 23.2161 287.109 23.5391 286.453C23.862 285.797 24.3255 285.289 24.9297 284.93C25.5391 284.57 26.2448 284.391 27.0469 284.391C28.1875 284.391 29.1172 284.74 29.8359 285.438C30.5599 286.135 30.9635 287.083 31.0469 288.281L31.0625 288.859C31.0625 290.156 30.7005 291.198 29.9766 291.984C29.2526 292.766 28.2812 293.156 27.0625 293.156C25.8438 293.156 24.8698 292.766 24.1406 291.984C23.4167 291.203 23.0547 290.141 23.0547 288.797V288.695ZM25.3125 288.859C25.3125 289.661 25.4635 290.276 25.7656 290.703C26.0677 291.125 26.5 291.336 27.0625 291.336C27.6094 291.336 28.0365 291.128 28.3438 290.711C28.651 290.289 28.8047 289.617 28.8047 288.695C28.8047 287.909 28.651 287.299 28.3438 286.867C28.0365 286.435 27.6042 286.219 27.0469 286.219C26.4948 286.219 26.0677 286.435 25.7656 286.867C25.4635 287.294 25.3125 287.958 25.3125 288.859ZM34.5312 284.547L34.6016 285.523C35.2057 284.768 36.0156 284.391 37.0312 284.391C37.9271 284.391 38.5938 284.654 39.0312 285.18C39.4688 285.706 39.6927 286.492 39.7031 287.539V293H37.4453V287.594C37.4453 287.115 37.3411 286.768 37.1328 286.555C36.9245 286.336 36.5781 286.227 36.0938 286.227C35.4583 286.227 34.9818 286.497 34.6641 287.039V293H32.4062V284.547H34.5312ZM41.0703 288.711C41.0703 287.393 41.3646 286.344 41.9531 285.562C42.5469 284.781 43.3568 284.391 44.3828 284.391C45.2057 284.391 45.8854 284.698 46.4219 285.312V281H48.6875V293H46.6484L46.5391 292.102C45.9766 292.805 45.2526 293.156 44.3672 293.156C43.3724 293.156 42.5729 292.766 41.9688 291.984C41.3698 291.198 41.0703 290.107 41.0703 288.711ZM43.3281 288.875C43.3281 289.667 43.4661 290.273 43.7422 290.695C44.0182 291.117 44.4193 291.328 44.9453 291.328C45.6432 291.328 46.1354 291.034 46.4219 290.445V287.109C46.1406 286.521 45.6536 286.227 44.9609 286.227C43.8724 286.227 43.3281 287.109 43.3281 288.875ZM50.0859 288.695C50.0859 287.857 50.2474 287.109 50.5703 286.453C50.8932 285.797 51.3568 285.289 51.9609 284.93C52.5703 284.57 53.276 284.391 54.0781 284.391C55.2188 284.391 56.1484 284.74 56.8672 285.438C57.5911 286.135 57.9948 287.083 58.0781 288.281L58.0938 288.859C58.0938 290.156 57.7318 291.198 57.0078 291.984C56.2839 292.766 55.3125 293.156 54.0938 293.156C52.875 293.156 51.901 292.766 51.1719 291.984C50.4479 291.203 50.0859 290.141 50.0859 288.797V288.695ZM52.3438 288.859C52.3438 289.661 52.4948 290.276 52.7969 290.703C53.099 291.125 53.5312 291.336 54.0938 291.336C54.6406 291.336 55.0677 291.128 55.375 290.711C55.6823 290.289 55.8359 289.617 55.8359 288.695C55.8359 287.909 55.6823 287.299 55.375 286.867C55.0677 286.435 54.6354 286.219 54.0781 286.219C53.526 286.219 53.099 286.435 52.7969 286.867C52.4948 287.294 52.3438 287.958 52.3438 288.859ZM61.9531 291.18H66.0859V293H59.0703V291.625L63.0469 286.375H59.1875V284.547H65.9609V285.883L61.9531 291.18ZM72.3984 293C72.2943 292.797 72.2188 292.544 72.1719 292.242C71.625 292.852 70.9141 293.156 70.0391 293.156C69.2109 293.156 68.5234 292.917 67.9766 292.438C67.4349 291.958 67.1641 291.354 67.1641 290.625C67.1641 289.729 67.4948 289.042 68.1562 288.562C68.8229 288.083 69.7839 287.841 71.0391 287.836H72.0781V287.352C72.0781 286.961 71.9766 286.648 71.7734 286.414C71.5755 286.18 71.2604 286.062 70.8281 286.062C70.4479 286.062 70.1484 286.154 69.9297 286.336C69.7161 286.518 69.6094 286.768 69.6094 287.086H67.3516C67.3516 286.596 67.5026 286.143 67.8047 285.727C68.1068 285.31 68.5339 284.984 69.0859 284.75C69.638 284.51 70.2578 284.391 70.9453 284.391C71.987 284.391 72.8125 284.654 73.4219 285.18C74.0365 285.701 74.3438 286.435 74.3438 287.383V291.047C74.349 291.849 74.4609 292.456 74.6797 292.867V293H72.3984ZM70.5312 291.43C70.8646 291.43 71.1719 291.357 71.4531 291.211C71.7344 291.06 71.9427 290.859 72.0781 290.609V289.156H71.2344C70.1042 289.156 69.5026 289.547 69.4297 290.328L69.4219 290.461C69.4219 290.742 69.5208 290.974 69.7188 291.156C69.9167 291.339 70.1875 291.43 70.5312 291.43ZM71.3906 281H73.8516L71.6875 283.422H69.8516L71.3906 281ZM80.6562 290.664C80.6562 290.388 80.5182 290.172 80.2422 290.016C79.9714 289.854 79.5339 289.711 78.9297 289.586C76.9193 289.164 75.9141 288.31 75.9141 287.023C75.9141 286.273 76.224 285.648 76.8438 285.148C77.4688 284.643 78.2839 284.391 79.2891 284.391C80.362 284.391 81.2188 284.643 81.8594 285.148C82.5052 285.654 82.8281 286.31 82.8281 287.117H80.5703C80.5703 286.794 80.4661 286.529 80.2578 286.32C80.0495 286.107 79.724 286 79.2812 286C78.901 286 78.6068 286.086 78.3984 286.258C78.1901 286.43 78.0859 286.648 78.0859 286.914C78.0859 287.164 78.2031 287.367 78.4375 287.523C78.6771 287.674 79.0781 287.807 79.6406 287.922C80.2031 288.031 80.6771 288.156 81.0625 288.297C82.2552 288.734 82.8516 289.492 82.8516 290.57C82.8516 291.341 82.5208 291.966 81.8594 292.445C81.1979 292.919 80.3438 293.156 79.2969 293.156C78.5885 293.156 77.9583 293.031 77.4062 292.781C76.8594 292.526 76.4297 292.18 76.1172 291.742C75.8047 291.299 75.6484 290.823 75.6484 290.312H77.7891C77.8099 290.714 77.9583 291.021 78.2344 291.234C78.5104 291.448 78.8802 291.555 79.3438 291.555C79.776 291.555 80.1016 291.474 80.3203 291.312C80.5443 291.146 80.6562 290.93 80.6562 290.664ZM89.2109 293C89.1068 292.797 89.0312 292.544 88.9844 292.242C88.4375 292.852 87.7266 293.156 86.8516 293.156C86.0234 293.156 85.3359 292.917 84.7891 292.438C84.2474 291.958 83.9766 291.354 83.9766 290.625C83.9766 289.729 84.3073 289.042 84.9688 288.562C85.6354 288.083 86.5964 287.841 87.8516 287.836H88.8906V287.352C88.8906 286.961 88.7891 286.648 88.5859 286.414C88.388 286.18 88.0729 286.062 87.6406 286.062C87.2604 286.062 86.9609 286.154 86.7422 286.336C86.5286 286.518 86.4219 286.768 86.4219 287.086H84.1641C84.1641 286.596 84.3151 286.143 84.6172 285.727C84.9193 285.31 85.3464 284.984 85.8984 284.75C86.4505 284.51 87.0703 284.391 87.7578 284.391C88.7995 284.391 89.625 284.654 90.2344 285.18C90.849 285.701 91.1562 286.435 91.1562 287.383V291.047C91.1615 291.849 91.2734 292.456 91.4922 292.867V293H89.2109ZM87.3438 291.43C87.6771 291.43 87.9844 291.357 88.2656 291.211C88.5469 291.06 88.7552 290.859 88.8906 290.609V289.156H88.0469C86.9167 289.156 86.3151 289.547 86.2422 290.328L86.2344 290.461C86.2344 290.742 86.3333 290.974 86.5312 291.156C86.7292 291.339 87 291.43 87.3438 291.43ZM88.2031 281H90.6641L88.5 283.422H86.6641L88.2031 281ZM100.508 288.852C100.508 290.206 100.219 291.263 99.6406 292.023C99.0625 292.779 98.2552 293.156 97.2188 293.156C96.3021 293.156 95.5703 292.805 95.0234 292.102L94.9219 293H92.8906V281H95.1484V285.305C95.6693 284.695 96.3542 284.391 97.2031 284.391C98.2344 284.391 99.0417 284.771 99.625 285.531C100.214 286.286 100.508 287.352 100.508 288.727V288.852ZM98.25 288.688C98.25 287.833 98.1146 287.211 97.8438 286.82C97.5729 286.424 97.1693 286.227 96.6328 286.227C95.9141 286.227 95.4193 286.521 95.1484 287.109V290.445C95.4245 291.039 95.9245 291.336 96.6484 291.336C97.3776 291.336 97.8568 290.977 98.0859 290.258C98.1953 289.914 98.25 289.391 98.25 288.688ZM106.805 293C106.701 292.797 106.625 292.544 106.578 292.242C106.031 292.852 105.32 293.156 104.445 293.156C103.617 293.156 102.93 292.917 102.383 292.438C101.841 291.958 101.57 291.354 101.57 290.625C101.57 289.729 101.901 289.042 102.562 288.562C103.229 288.083 104.19 287.841 105.445 287.836H106.484V287.352C106.484 286.961 106.383 286.648 106.18 286.414C105.982 286.18 105.667 286.062 105.234 286.062C104.854 286.062 104.555 286.154 104.336 286.336C104.122 286.518 104.016 286.768 104.016 287.086H101.758C101.758 286.596 101.909 286.143 102.211 285.727C102.513 285.31 102.94 284.984 103.492 284.75C104.044 284.51 104.664 284.391 105.352 284.391C106.393 284.391 107.219 284.654 107.828 285.18C108.443 285.701 108.75 286.435 108.75 287.383V291.047C108.755 291.849 108.867 292.456 109.086 292.867V293H106.805ZM104.938 291.43C105.271 291.43 105.578 291.357 105.859 291.211C106.141 291.06 106.349 290.859 106.484 290.609V289.156H105.641C104.51 289.156 103.909 289.547 103.836 290.328L103.828 290.461C103.828 290.742 103.927 290.974 104.125 291.156C104.323 291.339 104.594 291.43 104.938 291.43ZM112.562 284.547L112.633 285.523C113.237 284.768 114.047 284.391 115.062 284.391C115.958 284.391 116.625 284.654 117.062 285.18C117.5 285.706 117.724 286.492 117.734 287.539V293H115.477V287.594C115.477 287.115 115.372 286.768 115.164 286.555C114.956 286.336 114.609 286.227 114.125 286.227C113.49 286.227 113.013 286.497 112.695 287.039V293H110.438V284.547H112.562ZM126.508 289.609L125.695 290.422V293H123.438V281H125.695V287.648L126.133 287.086L128.297 284.547H131.008L127.953 288.07L131.273 293H128.68L126.508 289.609ZM135.719 293.156C134.479 293.156 133.469 292.776 132.688 292.016C131.911 291.255 131.523 290.242 131.523 288.977V288.758C131.523 287.909 131.688 287.151 132.016 286.484C132.344 285.812 132.807 285.297 133.406 284.938C134.01 284.573 134.698 284.391 135.469 284.391C136.625 284.391 137.534 284.755 138.195 285.484C138.862 286.214 139.195 287.247 139.195 288.586V289.508H133.812C133.885 290.06 134.104 290.503 134.469 290.836C134.839 291.169 135.305 291.336 135.867 291.336C136.737 291.336 137.417 291.021 137.906 290.391L139.016 291.633C138.677 292.112 138.219 292.487 137.641 292.758C137.062 293.023 136.422 293.156 135.719 293.156ZM135.461 286.219C135.013 286.219 134.648 286.37 134.367 286.672C134.091 286.974 133.914 287.406 133.836 287.969H136.977V287.789C136.966 287.289 136.831 286.904 136.57 286.633C136.31 286.357 135.94 286.219 135.461 286.219ZM135.664 281H138.125L135.961 283.422H134.125L135.664 281ZM145.062 290.664C145.062 290.388 144.924 290.172 144.648 290.016C144.378 289.854 143.94 289.711 143.336 289.586C141.326 289.164 140.32 288.31 140.32 287.023C140.32 286.273 140.63 285.648 141.25 285.148C141.875 284.643 142.69 284.391 143.695 284.391C144.768 284.391 145.625 284.643 146.266 285.148C146.911 285.654 147.234 286.31 147.234 287.117H144.977C144.977 286.794 144.872 286.529 144.664 286.32C144.456 286.107 144.13 286 143.688 286C143.307 286 143.013 286.086 142.805 286.258C142.596 286.43 142.492 286.648 142.492 286.914C142.492 287.164 142.609 287.367 142.844 287.523C143.083 287.674 143.484 287.807 144.047 287.922C144.609 288.031 145.083 288.156 145.469 288.297C146.661 288.734 147.258 289.492 147.258 290.57C147.258 291.341 146.927 291.966 146.266 292.445C145.604 292.919 144.75 293.156 143.703 293.156C142.995 293.156 142.365 293.031 141.812 292.781C141.266 292.526 140.836 292.18 140.523 291.742C140.211 291.299 140.055 290.823 140.055 290.312H142.195C142.216 290.714 142.365 291.021 142.641 291.234C142.917 291.448 143.286 291.555 143.75 291.555C144.182 291.555 144.508 291.474 144.727 291.312C144.951 291.146 145.062 290.93 145.062 290.664ZM151.312 291.18H155.445V293H148.43V291.625L152.406 286.375H148.547V284.547H155.32V285.883L151.312 291.18ZM161.922 292.141C161.365 292.818 160.594 293.156 159.609 293.156C158.703 293.156 158.01 292.896 157.531 292.375C157.057 291.854 156.815 291.091 156.805 290.086V284.547H159.062V290.008C159.062 290.888 159.464 291.328 160.266 291.328C161.031 291.328 161.557 291.062 161.844 290.531V284.547H164.109V293H161.984L161.922 292.141ZM159.641 282.336C159.641 282.612 159.539 282.846 159.336 283.039C159.133 283.227 158.872 283.32 158.555 283.32C158.232 283.32 157.971 283.224 157.773 283.031C157.576 282.839 157.477 282.607 157.477 282.336C157.477 282.065 157.576 281.833 157.773 281.641C157.971 281.443 158.232 281.344 158.555 281.344C158.878 281.344 159.138 281.443 159.336 281.641C159.539 281.833 159.641 282.065 159.641 282.336ZM161.281 282.336C161.281 282.055 161.385 281.82 161.594 281.633C161.807 281.44 162.065 281.344 162.367 281.344C162.674 281.344 162.93 281.44 163.133 281.633C163.341 281.826 163.445 282.06 163.445 282.336C163.445 282.607 163.346 282.841 163.148 283.039C162.951 283.232 162.69 283.328 162.367 283.328C162.044 283.328 161.781 283.232 161.578 283.039C161.38 282.841 161.281 282.607 161.281 282.336ZM168.195 293H165.93V281H168.195V293ZM172.766 282.469V284.547H174.211V286.203H172.766V290.422C172.766 290.734 172.826 290.958 172.945 291.094C173.065 291.229 173.294 291.297 173.633 291.297C173.883 291.297 174.104 291.279 174.297 291.242V292.953C173.854 293.089 173.398 293.156 172.93 293.156C171.346 293.156 170.539 292.357 170.508 290.758V286.203H169.273V284.547H170.508V282.469H172.766ZM20.75 305.664C20.4427 305.622 20.1719 305.602 19.9375 305.602C19.0833 305.602 18.5234 305.891 18.2578 306.469V312H16V303.547H18.1328L18.1953 304.555C18.6484 303.779 19.276 303.391 20.0781 303.391C20.3281 303.391 20.5625 303.424 20.7812 303.492L20.75 305.664ZM21.2109 307.695C21.2109 306.857 21.3724 306.109 21.6953 305.453C22.0182 304.797 22.4818 304.289 23.0859 303.93C23.6953 303.57 24.401 303.391 25.2031 303.391C26.3438 303.391 27.2734 303.74 27.9922 304.438C28.7161 305.135 29.1198 306.083 29.2031 307.281L29.2188 307.859C29.2188 309.156 28.8568 310.198 28.1328 310.984C27.4089 311.766 26.4375 312.156 25.2188 312.156C24 312.156 23.026 311.766 22.2969 310.984C21.5729 310.203 21.2109 309.141 21.2109 307.797V307.695ZM23.4688 307.859C23.4688 308.661 23.6198 309.276 23.9219 309.703C24.224 310.125 24.6562 310.336 25.2188 310.336C25.7656 310.336 26.1927 310.128 26.5 309.711C26.8073 309.289 26.9609 308.617 26.9609 307.695C26.9609 306.909 26.8073 306.299 26.5 305.867C26.1927 305.435 25.7604 305.219 25.2031 305.219C24.651 305.219 24.224 305.435 23.9219 305.867C23.6198 306.294 23.4688 306.958 23.4688 307.859ZM24.375 301.336C24.375 301.612 24.2734 301.846 24.0703 302.039C23.8672 302.227 23.6068 302.32 23.2891 302.32C22.9661 302.32 22.7057 302.224 22.5078 302.031C22.3099 301.839 22.2109 301.607 22.2109 301.336C22.2109 301.065 22.3099 300.833 22.5078 300.641C22.7057 300.443 22.9661 300.344 23.2891 300.344C23.612 300.344 23.8724 300.443 24.0703 300.641C24.2734 300.833 24.375 301.065 24.375 301.336ZM26.0156 301.336C26.0156 301.055 26.1198 300.82 26.3281 300.633C26.5417 300.44 26.7995 300.344 27.1016 300.344C27.4089 300.344 27.6641 300.44 27.8672 300.633C28.0755 300.826 28.1797 301.06 28.1797 301.336C28.1797 301.607 28.0807 301.841 27.8828 302.039C27.6849 302.232 27.4245 302.328 27.1016 302.328C26.7786 302.328 26.5156 302.232 26.3125 302.039C26.1146 301.841 26.0156 301.607 26.0156 301.336ZM33.6484 309.242L35.2188 303.547H37.5781L34.7266 312H32.5703L29.7188 303.547H32.0781L33.6484 309.242ZM40.9609 312H38.6953V303.547H40.9609V312ZM38.5625 301.359C38.5625 301.021 38.6745 300.742 38.8984 300.523C39.1276 300.305 39.4375 300.195 39.8281 300.195C40.2135 300.195 40.5208 300.305 40.75 300.523C40.9792 300.742 41.0938 301.021 41.0938 301.359C41.0938 301.703 40.9766 301.984 40.7422 302.203C40.513 302.422 40.2083 302.531 39.8281 302.531C39.4479 302.531 39.1406 302.422 38.9062 302.203C38.6771 301.984 38.5625 301.703 38.5625 301.359ZM42.4766 307.711C42.4766 306.393 42.7708 305.344 43.3594 304.562C43.9531 303.781 44.763 303.391 45.7891 303.391C46.612 303.391 47.2917 303.698 47.8281 304.312V300H50.0938V312H48.0547L47.9453 311.102C47.3828 311.805 46.6589 312.156 45.7734 312.156C44.7786 312.156 43.9792 311.766 43.375 310.984C42.776 310.198 42.4766 309.107 42.4766 307.711ZM44.7344 307.875C44.7344 308.667 44.8724 309.273 45.1484 309.695C45.4245 310.117 45.8255 310.328 46.3516 310.328C47.0495 310.328 47.5417 310.034 47.8281 309.445V306.109C47.5469 305.521 47.0599 305.227 46.3672 305.227C45.2786 305.227 44.7344 306.109 44.7344 307.875ZM59.7188 312.156C58.4792 312.156 57.4688 311.776 56.6875 311.016C55.9115 310.255 55.5234 309.242 55.5234 307.977V307.758C55.5234 306.909 55.6875 306.151 56.0156 305.484C56.3438 304.812 56.8073 304.297 57.4062 303.938C58.0104 303.573 58.6979 303.391 59.4688 303.391C60.625 303.391 61.5339 303.755 62.1953 304.484C62.862 305.214 63.1953 306.247 63.1953 307.586V308.508H57.8125C57.8854 309.06 58.1042 309.503 58.4688 309.836C58.8385 310.169 59.3047 310.336 59.8672 310.336C60.737 310.336 61.4167 310.021 61.9062 309.391L63.0156 310.633C62.6771 311.112 62.2188 311.487 61.6406 311.758C61.0625 312.023 60.4219 312.156 59.7188 312.156ZM59.4609 305.219C59.013 305.219 58.6484 305.37 58.3672 305.672C58.0911 305.974 57.9141 306.406 57.8359 306.969H60.9766V306.789C60.9661 306.289 60.8307 305.904 60.5703 305.633C60.3099 305.357 59.9401 305.219 59.4609 305.219ZM66.8672 312H64.6016V300H66.8672V312ZM72.625 312.156C71.3854 312.156 70.375 311.776 69.5938 311.016C68.8177 310.255 68.4297 309.242 68.4297 307.977V307.758C68.4297 306.909 68.5938 306.151 68.9219 305.484C69.25 304.812 69.7135 304.297 70.3125 303.938C70.9167 303.573 71.6042 303.391 72.375 303.391C73.5312 303.391 74.4401 303.755 75.1016 304.484C75.7682 305.214 76.1016 306.247 76.1016 307.586V308.508H70.7188C70.7917 309.06 71.0104 309.503 71.375 309.836C71.7448 310.169 72.2109 310.336 72.7734 310.336C73.6432 310.336 74.3229 310.021 74.8125 309.391L75.9219 310.633C75.5833 311.112 75.125 311.487 74.5469 311.758C73.9688 312.023 73.3281 312.156 72.625 312.156ZM72.3672 305.219C71.9193 305.219 71.5547 305.37 71.2734 305.672C70.9974 305.974 70.8203 306.406 70.7422 306.969H73.8828V306.789C73.8724 306.289 73.737 305.904 73.4766 305.633C73.2161 305.357 72.8464 305.219 72.3672 305.219ZM79.5078 303.547L79.5781 304.492C80.1771 303.758 80.987 303.391 82.0078 303.391C83.0964 303.391 83.8438 303.82 84.25 304.68C84.8438 303.82 85.6901 303.391 86.7891 303.391C87.7057 303.391 88.388 303.659 88.8359 304.195C89.2839 304.727 89.5078 305.529 89.5078 306.602V312H87.2422V306.609C87.2422 306.13 87.1484 305.781 86.9609 305.562C86.7734 305.339 86.4427 305.227 85.9688 305.227C85.2917 305.227 84.8229 305.549 84.5625 306.195L84.5703 312H82.3125V306.617C82.3125 306.128 82.2161 305.773 82.0234 305.555C81.8307 305.336 81.5026 305.227 81.0391 305.227C80.3984 305.227 79.9349 305.492 79.6484 306.023V312H77.3906V303.547H79.5078ZM93.8438 310.18H97.9766V312H90.9609V310.625L94.9375 305.375H91.0781V303.547H97.8516V304.883L93.8438 310.18ZM98.9141 307.695C98.9141 306.857 99.0755 306.109 99.3984 305.453C99.7214 304.797 100.185 304.289 100.789 303.93C101.398 303.57 102.104 303.391 102.906 303.391C104.047 303.391 104.977 303.74 105.695 304.438C106.419 305.135 106.823 306.083 106.906 307.281L106.922 307.859C106.922 309.156 106.56 310.198 105.836 310.984C105.112 311.766 104.141 312.156 102.922 312.156C101.703 312.156 100.729 311.766 100 310.984C99.276 310.203 98.9141 309.141 98.9141 307.797V307.695ZM101.172 307.859C101.172 308.661 101.323 309.276 101.625 309.703C101.927 310.125 102.359 310.336 102.922 310.336C103.469 310.336 103.896 310.128 104.203 309.711C104.51 309.289 104.664 308.617 104.664 307.695C104.664 306.909 104.51 306.299 104.203 305.867C103.896 305.435 103.464 305.219 102.906 305.219C102.354 305.219 101.927 305.435 101.625 305.867C101.323 306.294 101.172 306.958 101.172 307.859ZM105.023 300.008H107.047L104.969 302.359H103.266L105.023 300.008ZM101.969 300.008H103.961L102.172 302.359H100.516L101.969 300.008ZM114.414 303.547L114.484 304.492C115.083 303.758 115.893 303.391 116.914 303.391C118.003 303.391 118.75 303.82 119.156 304.68C119.75 303.82 120.596 303.391 121.695 303.391C122.612 303.391 123.294 303.659 123.742 304.195C124.19 304.727 124.414 305.529 124.414 306.602V312H122.148V306.609C122.148 306.13 122.055 305.781 121.867 305.562C121.68 305.339 121.349 305.227 120.875 305.227C120.198 305.227 119.729 305.549 119.469 306.195L119.477 312H117.219V306.617C117.219 306.128 117.122 305.773 116.93 305.555C116.737 305.336 116.409 305.227 115.945 305.227C115.305 305.227 114.841 305.492 114.555 306.023V312H112.297V303.547H114.414ZM131.219 311.141C130.661 311.818 129.891 312.156 128.906 312.156C128 312.156 127.307 311.896 126.828 311.375C126.354 310.854 126.112 310.091 126.102 309.086V303.547H128.359V309.008C128.359 309.888 128.76 310.328 129.562 310.328C130.328 310.328 130.854 310.062 131.141 309.531V303.547H133.406V312H131.281L131.219 311.141ZM137.188 303.547L137.258 304.523C137.862 303.768 138.672 303.391 139.688 303.391C140.583 303.391 141.25 303.654 141.688 304.18C142.125 304.706 142.349 305.492 142.359 306.539V312H140.102V306.594C140.102 306.115 139.997 305.768 139.789 305.555C139.581 305.336 139.234 305.227 138.75 305.227C138.115 305.227 137.638 305.497 137.32 306.039V312H135.062V303.547H137.188ZM147.148 308.609L146.336 309.422V312H144.078V300H146.336V306.648L146.773 306.086L148.938 303.547H151.648L148.594 307.07L151.914 312H149.32L147.148 308.609ZM157.523 312C157.419 311.797 157.344 311.544 157.297 311.242C156.75 311.852 156.039 312.156 155.164 312.156C154.336 312.156 153.648 311.917 153.102 311.438C152.56 310.958 152.289 310.354 152.289 309.625C152.289 308.729 152.62 308.042 153.281 307.562C153.948 307.083 154.909 306.841 156.164 306.836H157.203V306.352C157.203 305.961 157.102 305.648 156.898 305.414C156.701 305.18 156.385 305.062 155.953 305.062C155.573 305.062 155.273 305.154 155.055 305.336C154.841 305.518 154.734 305.768 154.734 306.086H152.477C152.477 305.596 152.628 305.143 152.93 304.727C153.232 304.31 153.659 303.984 154.211 303.75C154.763 303.51 155.383 303.391 156.07 303.391C157.112 303.391 157.938 303.654 158.547 304.18C159.161 304.701 159.469 305.435 159.469 306.383V310.047C159.474 310.849 159.586 311.456 159.805 311.867V312H157.523ZM155.656 310.43C155.99 310.43 156.297 310.357 156.578 310.211C156.859 310.06 157.068 309.859 157.203 309.609V308.156H156.359C155.229 308.156 154.628 308.547 154.555 309.328L154.547 309.461C154.547 309.742 154.646 309.974 154.844 310.156C155.042 310.339 155.312 310.43 155.656 310.43ZM156.516 300H158.977L156.812 302.422H154.977L156.516 300ZM164.273 308.609L163.461 309.422V312H161.203V300H163.461V306.648L163.898 306.086L166.062 303.547H168.773L165.719 307.07L169.039 312H166.445L164.273 308.609Z" fill="#ECE7DD"/>
</svg>
