<svg width="187" height="537" viewBox="0 0 187 537" fill="none" xmlns="http://www.w3.org/2000/svg">
<rect x="0.828125" y="0.943604" width="186.094" height="535.065" fill="#353C44"/>
<path d="M63.6587 481.226H59.7739V492H58.1885V481.226H54.312V479.914H63.6587V481.226ZM74.5161 486.347C74.5161 487.531 74.3169 488.566 73.9185 489.452C73.52 490.332 72.9556 491.004 72.2251 491.469C71.4946 491.934 70.6424 492.166 69.6685 492.166C68.7166 492.166 67.8727 491.934 67.1367 491.469C66.4007 490.998 65.828 490.332 65.4185 489.468C65.0145 488.599 64.807 487.595 64.7959 486.455V485.583C64.7959 484.421 64.9979 483.395 65.4019 482.504C65.8058 481.613 66.3758 480.932 67.1118 480.462C67.8534 479.986 68.7 479.748 69.6519 479.748C70.6203 479.748 71.4725 479.983 72.2085 480.454C72.95 480.918 73.52 481.596 73.9185 482.487C74.3169 483.373 74.5161 484.405 74.5161 485.583V486.347ZM72.9307 485.567C72.9307 484.134 72.6429 483.035 72.0674 482.271C71.4919 481.502 70.6867 481.118 69.6519 481.118C68.6447 481.118 67.8506 481.502 67.2695 482.271C66.694 483.035 66.3979 484.098 66.3813 485.459V486.347C66.3813 487.736 66.6719 488.829 67.2529 489.626C67.8395 490.417 68.6447 490.813 69.6685 490.813C70.6978 490.813 71.4946 490.439 72.0591 489.692C72.6235 488.94 72.9141 487.863 72.9307 486.463V485.567ZM80.7251 489.883L84.1782 479.914H85.9214L81.439 492H80.0278L75.5537 479.914H77.2886L80.7251 489.883ZM93.5913 488.846H88.5278L87.3906 492H85.7471L90.3623 479.914H91.7568L96.3804 492H94.7451L93.5913 488.846ZM89.0093 487.534H93.1182L91.0596 481.881L89.0093 487.534ZM91.8481 476.677H93.7075L91.4829 479.117H90.2461L91.8481 476.677ZM98.0073 492V479.914H101.958C103.27 479.914 104.255 480.185 104.914 480.728C105.578 481.27 105.91 482.072 105.91 483.135C105.91 483.699 105.749 484.2 105.428 484.637C105.107 485.069 104.67 485.404 104.117 485.642C104.77 485.824 105.284 486.173 105.661 486.688C106.042 487.197 106.233 487.805 106.233 488.514C106.233 489.598 105.882 490.451 105.179 491.07C104.476 491.69 103.483 492 102.199 492H98.0073ZM99.6011 486.347V490.697H102.232C102.974 490.697 103.558 490.506 103.984 490.124C104.416 489.737 104.631 489.205 104.631 488.53C104.631 487.075 103.84 486.347 102.257 486.347H99.6011ZM99.6011 485.069H102.008C102.706 485.069 103.262 484.895 103.677 484.546C104.097 484.197 104.308 483.724 104.308 483.126C104.308 482.462 104.114 481.981 103.727 481.682C103.339 481.378 102.75 481.226 101.958 481.226H99.6011V485.069ZM108.599 492V479.914H112.55C113.862 479.914 114.847 480.185 115.505 480.728C116.169 481.27 116.501 482.072 116.501 483.135C116.501 483.699 116.341 484.2 116.02 484.637C115.699 485.069 115.262 485.404 114.708 485.642C115.361 485.824 115.876 486.173 116.252 486.688C116.634 487.197 116.825 487.805 116.825 488.514C116.825 489.598 116.474 490.451 115.771 491.07C115.068 491.69 114.075 492 112.791 492H108.599ZM110.193 486.347V490.697H112.824C113.566 490.697 114.15 490.506 114.576 490.124C115.007 489.737 115.223 489.205 115.223 488.53C115.223 487.075 114.432 486.347 112.849 486.347H110.193ZM110.193 485.069H112.6C113.297 485.069 113.854 484.895 114.269 484.546C114.689 484.197 114.899 483.724 114.899 483.126C114.899 482.462 114.706 481.981 114.318 481.682C113.931 481.378 113.342 481.226 112.55 481.226H110.193V485.069ZM130.082 488.846H125.018L123.881 492H122.237L126.853 479.914H128.247L132.871 492H131.235L130.082 488.846ZM125.5 487.534H129.608L127.55 481.881L125.5 487.534ZM16.1201 510.506C15.6719 511.004 15.0161 511.405 14.1528 511.709C13.2896 512.014 12.3433 512.166 11.314 512.166C9.73128 512.166 8.4668 511.682 7.52051 510.713C6.57422 509.745 6.06787 508.397 6.00146 506.671L5.99316 505.625C5.99316 504.435 6.20345 503.398 6.62402 502.512C7.0446 501.621 7.64502 500.938 8.42529 500.462C9.2111 499.98 10.1187 499.74 11.1479 499.74C12.6532 499.74 13.8208 500.086 14.6509 500.777C15.4865 501.464 15.9735 502.49 16.1118 503.857H13.3062C13.2065 503.182 12.9907 502.7 12.6587 502.413C12.3267 502.125 11.8563 501.981 11.2476 501.981C10.5171 501.981 9.95264 502.291 9.5542 502.911C9.15576 503.53 8.95378 504.416 8.94824 505.567V506.297C8.94824 507.504 9.15299 508.411 9.5625 509.02C9.97754 509.623 10.6278 509.925 11.5132 509.925C12.2713 509.925 12.8358 509.756 13.2065 509.418V507.542H11.1812V505.542H16.1201V510.506ZM22.2378 505.16L24.4624 499.914H27.6084L23.7153 507.659V512H20.7603V507.659L16.8755 499.914H20.0049L22.2378 505.16ZM38.4741 506.206C38.4741 507.385 38.2555 508.428 37.8184 509.335C37.3812 510.243 36.7586 510.943 35.9507 511.436C35.1483 511.923 34.2324 512.166 33.2031 512.166C32.1738 512.166 31.2607 511.931 30.4639 511.46C29.667 510.985 29.0444 510.307 28.5962 509.427C28.1535 508.547 27.9211 507.537 27.8989 506.397V505.716C27.8989 504.532 28.1147 503.489 28.5464 502.587C28.9836 501.679 29.6061 500.979 30.4141 500.487C31.2275 499.994 32.1517 499.748 33.1865 499.748C34.2103 499.748 35.1234 499.992 35.9258 500.479C36.7282 500.965 37.3507 501.66 37.7935 502.562C38.2417 503.458 38.4686 504.488 38.4741 505.65V506.206ZM35.5107 505.7C35.5107 504.499 35.3088 503.589 34.9048 502.969C34.5063 502.343 33.9336 502.031 33.1865 502.031C31.7256 502.031 30.9536 503.126 30.8706 505.318L30.8623 506.206C30.8623 507.39 31.0588 508.301 31.4517 508.937C31.8446 509.573 32.4284 509.892 33.2031 509.892C33.9391 509.892 34.5063 509.579 34.9048 508.954C35.3032 508.328 35.5052 507.429 35.5107 506.256V505.7ZM44.4673 507.733H42.8901V512H39.9766V499.914H44.7329C46.1662 499.914 47.2868 500.232 48.0947 500.869C48.9027 501.505 49.3066 502.404 49.3066 503.566C49.3066 504.408 49.1351 505.105 48.792 505.658C48.4544 506.212 47.9232 506.66 47.1982 507.003L49.7217 511.875V512H46.6006L44.4673 507.733ZM42.8901 505.484H44.7329C45.2863 505.484 45.7013 505.34 45.978 505.052C46.2603 504.759 46.4014 504.352 46.4014 503.832C46.4014 503.312 46.2603 502.905 45.978 502.612C45.6958 502.313 45.2808 502.164 44.7329 502.164H42.8901V505.484ZM57.3003 508.788C57.3003 508.361 57.1481 508.029 56.8438 507.792C56.5449 507.554 56.0164 507.307 55.2583 507.053C54.5002 506.798 53.8804 506.552 53.3989 506.314C51.8328 505.545 51.0498 504.488 51.0498 503.143C51.0498 502.473 51.2435 501.884 51.6309 501.375C52.0238 500.86 52.5771 500.462 53.291 500.18C54.0049 499.892 54.8073 499.748 55.6982 499.748C56.5671 499.748 57.3446 499.903 58.0308 500.213C58.7225 500.523 59.2593 500.965 59.6411 501.541C60.0229 502.111 60.2139 502.764 60.2139 503.5H57.3086C57.3086 503.007 57.1564 502.626 56.8521 502.354C56.5532 502.083 56.1465 501.948 55.6318 501.948C55.1117 501.948 54.6994 502.064 54.395 502.296C54.0962 502.523 53.9468 502.814 53.9468 503.168C53.9468 503.478 54.1128 503.76 54.4448 504.015C54.7769 504.264 55.3607 504.524 56.1963 504.795C57.0319 505.061 57.7181 505.348 58.2549 505.658C59.5609 506.411 60.2139 507.448 60.2139 508.771C60.2139 509.828 59.8154 510.658 59.0186 511.261C58.2217 511.864 57.1287 512.166 55.7397 512.166C54.7603 512.166 53.8721 511.992 53.0752 511.643C52.2839 511.289 51.6862 510.807 51.2822 510.199C50.8838 509.584 50.6846 508.879 50.6846 508.082H53.6064C53.6064 508.729 53.7725 509.208 54.1045 509.518C54.4421 509.822 54.9871 509.975 55.7397 509.975C56.2212 509.975 56.6003 509.872 56.877 509.667C57.1592 509.457 57.3003 509.164 57.3003 508.788ZM66.5225 499.914H69.4277V508.207C69.4277 508.976 69.2479 509.662 68.8882 510.265C68.534 510.868 68.036 511.336 67.394 511.668C66.7576 512 66.0465 512.166 65.2607 512.166C63.9437 512.166 62.9199 511.834 62.1895 511.17C61.459 510.506 61.0938 509.565 61.0938 508.348H64.0156C64.0156 508.901 64.1097 509.302 64.2979 509.551C64.4915 509.8 64.8125 509.925 65.2607 509.925C65.6647 509.925 65.9746 509.775 66.1904 509.477C66.4118 509.172 66.5225 508.749 66.5225 508.207V499.914ZM78.7661 506.878H74.1841V509.759H79.5962V512H71.2705V499.914H79.6128V502.164H74.1841V504.712H78.7661V506.878ZM83.6968 509.759H88.7686V512H80.7832V499.914H83.6968V509.759ZM97.4927 506.878H92.9106V509.759H98.3228V512H89.9971V499.914H98.3394V502.164H92.9106V504.712H97.4927V506.878ZM109.604 512H106.707L102.423 504.479V512H99.5098V499.914H102.423L106.698 507.435V499.914H109.604V512ZM120.685 502.164H117.058V512H114.144V502.164H110.583V499.914H120.685V502.164ZM129.417 506.878H124.835V509.759H130.248V512H121.922V499.914H130.264V502.164H124.835V504.712H129.417V506.878ZM126.703 496.677H129.658L127.351 499.283H125.068L126.703 496.677ZM137.668 508.788C137.668 508.361 137.516 508.029 137.212 507.792C136.913 507.554 136.385 507.307 135.626 507.053C134.868 506.798 134.249 506.552 133.767 506.314C132.201 505.545 131.418 504.488 131.418 503.143C131.418 502.473 131.612 501.884 131.999 501.375C132.392 500.86 132.945 500.462 133.659 500.18C134.373 499.892 135.175 499.748 136.066 499.748C136.935 499.748 137.713 499.903 138.399 500.213C139.091 500.523 139.627 500.965 140.009 501.541C140.391 502.111 140.582 502.764 140.582 503.5H137.677C137.677 503.007 137.525 502.626 137.22 502.354C136.921 502.083 136.515 501.948 136 501.948C135.48 501.948 135.068 502.064 134.763 502.296C134.464 502.523 134.315 502.814 134.315 503.168C134.315 503.478 134.481 503.76 134.813 504.015C135.145 504.264 135.729 504.524 136.564 504.795C137.4 505.061 138.086 505.348 138.623 505.658C139.929 506.411 140.582 507.448 140.582 508.771C140.582 509.828 140.184 510.658 139.387 511.261C138.59 511.864 137.497 512.166 136.108 512.166C135.128 512.166 134.24 511.992 133.443 511.643C132.652 511.289 132.054 510.807 131.65 510.199C131.252 509.584 131.053 508.879 131.053 508.082H133.975C133.975 508.729 134.141 509.208 134.473 509.518C134.81 509.822 135.355 509.975 136.108 509.975C136.589 509.975 136.968 509.872 137.245 509.667C137.527 509.457 137.668 509.164 137.668 508.788ZM149.572 506.878H144.99V509.759H150.402V512H142.076V499.914H150.418V502.164H144.99V504.712H149.572V506.878ZM155.698 507.501L154.502 508.812V512H151.589V499.914H154.502V505.243L155.515 503.708L158.122 499.914H161.724L157.64 505.26L161.724 512H158.271L155.698 507.501ZM167.385 507.111H164.546V512H162.944V499.914H166.945C168.307 499.914 169.353 500.224 170.083 500.844C170.819 501.464 171.187 502.366 171.187 503.55C171.187 504.302 170.982 504.958 170.573 505.517C170.169 506.076 169.604 506.494 168.879 506.771L171.718 511.9V512H170.008L167.385 507.111ZM164.546 505.808H166.995C167.786 505.808 168.415 505.603 168.879 505.193C169.35 504.784 169.585 504.236 169.585 503.55C169.585 502.803 169.361 502.23 168.913 501.832C168.47 501.433 167.828 501.231 166.987 501.226H164.546V505.808ZM180.26 506.414H175.022V510.697H181.106V512H173.428V499.914H181.023V501.226H175.022V505.11H180.26V506.414Z" fill="#ECE7DD"/>
<path d="M26.6108 232.918H20.0581L18.5864 237H16.4594L22.4321 221.359H24.2368L30.2202 237H28.104L26.6108 232.918ZM20.6811 231.221H25.9985L23.3344 223.905L20.6811 231.221ZM46.0632 237H43.99L36.1159 224.947V237H34.0427V221.359H36.1159L44.0114 233.466V221.359H46.0632V237ZM52.368 237.215C50.7925 237.215 49.5106 236.699 48.5223 235.668C47.534 234.63 47.0399 233.244 47.0399 231.511V231.146C47.0399 229.993 47.2583 228.965 47.6952 228.062C48.1392 227.153 48.755 226.444 49.5428 225.936C50.3377 225.42 51.1971 225.162 52.1209 225.162C53.632 225.162 54.8065 225.66 55.6444 226.655C56.4823 227.651 56.9012 229.076 56.9012 230.931V231.758H49.0272C49.0558 232.904 49.3888 233.831 50.0262 234.54C50.6707 235.242 51.4871 235.593 52.4754 235.593C53.1772 235.593 53.7716 235.45 54.2586 235.163C54.7456 234.877 55.1717 234.497 55.5369 234.024L56.7508 234.97C55.7769 236.466 54.3159 237.215 52.368 237.215ZM52.1209 226.795C51.3189 226.795 50.6457 227.089 50.1014 227.676C49.5571 228.256 49.2205 229.072 49.0916 230.125H54.9139V229.975C54.8566 228.965 54.5845 228.184 54.0975 227.633C53.6105 227.074 52.9517 226.795 52.1209 226.795ZM59.2099 225.377L59.2636 226.666C60.1158 225.663 61.2653 225.162 62.7119 225.162C64.3375 225.162 65.444 225.785 66.0312 227.031C66.4179 226.473 66.9192 226.021 67.5351 225.678C68.1582 225.334 68.8922 225.162 69.7373 225.162C72.2867 225.162 73.583 226.512 73.6259 229.212V237H71.6386V229.33C71.6386 228.499 71.4489 227.88 71.0693 227.472C70.6897 227.056 70.0524 226.849 69.1572 226.849C68.4196 226.849 67.8072 227.071 67.3203 227.515C66.8333 227.951 66.5504 228.542 66.4716 229.287V237H64.4736V229.384C64.4736 227.694 63.6464 226.849 61.9921 226.849C60.6888 226.849 59.7972 227.404 59.3173 228.514V237H57.33V225.377H59.2099ZM76.6329 235.378H83.4327V237H74.2052V235.539L80.6182 227.021H74.3018V225.377H83.1104V226.784L76.6329 235.378ZM88.4592 237.215C86.8837 237.215 85.6018 236.699 84.6135 235.668C83.6252 234.63 83.1311 233.244 83.1311 231.511V231.146C83.1311 229.993 83.3495 228.965 83.7863 228.062C84.2303 227.153 84.8462 226.444 85.634 225.936C86.4289 225.42 87.2883 225.162 88.2121 225.162C89.7232 225.162 90.8977 225.66 91.7355 226.655C92.5734 227.651 92.9924 229.076 92.9924 230.931V231.758H85.1184C85.147 232.904 85.48 233.831 86.1174 234.54C86.7619 235.242 87.5783 235.593 88.5666 235.593C89.2684 235.593 89.8628 235.45 90.3498 235.163C90.8368 234.877 91.2629 234.497 91.6281 234.024L92.842 234.97C91.868 236.466 90.4071 237.215 88.4592 237.215ZM88.2121 226.795C87.41 226.795 86.7368 227.089 86.1926 227.676C85.6483 228.256 85.3117 229.072 85.1828 230.125H91.0051V229.975C90.9478 228.965 90.6756 228.184 90.1887 227.633C89.7017 227.074 89.0428 226.795 88.2121 226.795ZM96.1282 222.562V225.377H98.2982V226.913H96.1282V234.121C96.1282 234.587 96.2249 234.938 96.4183 235.174C96.6116 235.403 96.9411 235.518 97.4066 235.518C97.6357 235.518 97.9508 235.475 98.3519 235.389V237C97.8291 237.143 97.3206 237.215 96.8265 237.215C95.9385 237.215 95.2689 236.946 94.8177 236.409C94.3665 235.872 94.1409 235.109 94.1409 234.121V226.913H92.0247V225.377H94.1409V222.562H96.1282ZM105.527 233.917C105.527 233.38 105.323 232.965 104.914 232.671C104.513 232.37 103.808 232.112 102.798 231.897C101.796 231.683 100.997 231.425 100.403 231.124C99.8155 230.823 99.3787 230.465 99.0922 230.05C98.8129 229.634 98.6733 229.14 98.6733 228.567C98.6733 227.615 99.0743 226.809 99.8764 226.15C100.686 225.492 101.717 225.162 102.97 225.162C104.288 225.162 105.355 225.502 106.171 226.183C106.995 226.863 107.407 227.733 107.407 228.793H105.409C105.409 228.249 105.176 227.78 104.71 227.386C104.252 226.992 103.672 226.795 102.97 226.795C102.247 226.795 101.681 226.952 101.273 227.268C100.865 227.583 100.661 227.994 100.661 228.503C100.661 228.983 100.85 229.344 101.23 229.588C101.609 229.831 102.293 230.064 103.282 230.286C104.277 230.508 105.083 230.773 105.699 231.081C106.315 231.389 106.769 231.761 107.063 232.198C107.364 232.628 107.514 233.154 107.514 233.777C107.514 234.816 107.099 235.65 106.268 236.28C105.437 236.903 104.359 237.215 103.035 237.215C102.104 237.215 101.28 237.05 100.564 236.721C99.8478 236.391 99.2856 235.933 98.8774 235.346C98.4763 234.751 98.2758 234.11 98.2758 233.423H100.263C100.299 234.089 100.564 234.619 101.058 235.013C101.559 235.399 102.218 235.593 103.035 235.593C103.787 235.593 104.388 235.442 104.839 235.142C105.298 234.834 105.527 234.425 105.527 233.917ZM110.929 222.562V225.377H113.099V226.913H110.929V234.121C110.929 234.587 111.026 234.938 111.219 235.174C111.413 235.403 111.742 235.518 112.208 235.518C112.437 235.518 112.752 235.475 113.153 235.389V237C112.63 237.143 112.122 237.215 111.627 237.215C110.739 237.215 110.07 236.946 109.619 236.409C109.168 235.872 108.942 235.109 108.942 234.121V226.913H106.826V225.377H108.942V222.562H110.929ZM119.178 227.16C118.878 227.11 118.552 227.085 118.201 227.085C116.897 227.085 116.013 227.64 115.548 228.75V237H113.56V225.377H115.494L115.526 226.72C116.178 225.681 117.102 225.162 118.298 225.162C118.684 225.162 118.978 225.212 119.178 225.312V227.16ZM125.891 237C125.777 236.771 125.684 236.363 125.612 235.775C124.688 236.735 123.585 237.215 122.304 237.215C121.158 237.215 120.216 236.893 119.478 236.248C118.748 235.596 118.383 234.773 118.383 233.777C118.383 232.567 118.841 231.629 119.758 230.963C120.681 230.29 121.978 229.953 123.646 229.953H125.58V229.04C125.58 228.345 125.372 227.794 124.957 227.386C124.541 226.97 123.929 226.763 123.12 226.763C122.411 226.763 121.817 226.942 121.337 227.3C120.857 227.658 120.617 228.091 120.617 228.6H118.619C118.619 228.02 118.823 227.461 119.231 226.924C119.647 226.38 120.205 225.95 120.907 225.635C121.616 225.32 122.393 225.162 123.238 225.162C124.577 225.162 125.626 225.499 126.386 226.172C127.145 226.838 127.539 227.758 127.567 228.933V234.282C127.567 235.349 127.703 236.198 127.975 236.828V237H125.891ZM122.594 235.485C123.217 235.485 123.807 235.324 124.366 235.002C124.925 234.68 125.329 234.261 125.58 233.745V231.36H124.022C121.587 231.36 120.37 232.073 120.37 233.498C120.37 234.121 120.578 234.608 120.993 234.959C121.408 235.31 121.942 235.485 122.594 235.485ZM131.509 222.562V225.377H133.679V226.913H131.509V234.121C131.509 234.587 131.605 234.938 131.799 235.174C131.992 235.403 132.322 235.518 132.787 235.518C133.016 235.518 133.331 235.475 133.732 235.389V237C133.21 237.143 132.701 237.215 132.207 237.215C131.319 237.215 130.649 236.946 130.198 236.409C129.747 235.872 129.521 235.109 129.521 234.121V226.913H127.405V225.377H129.521V222.562H131.509ZM138.963 237.215C137.387 237.215 136.105 236.699 135.117 235.668C134.129 234.63 133.635 233.244 133.635 231.511V231.146C133.635 229.993 133.853 228.965 134.29 228.062C134.734 227.153 135.35 226.444 136.138 225.936C136.933 225.42 137.792 225.162 138.716 225.162C140.227 225.162 141.401 225.66 142.239 226.655C143.077 227.651 143.496 229.076 143.496 230.931V231.758H135.622C135.651 232.904 135.984 233.831 136.621 234.54C137.266 235.242 138.082 235.593 139.07 235.593C139.772 235.593 140.367 235.45 140.854 235.163C141.341 234.877 141.767 234.497 142.132 234.024L143.346 234.97C142.372 236.466 140.911 237.215 138.963 237.215ZM138.716 226.795C137.914 226.795 137.241 227.089 136.696 227.676C136.152 228.256 135.815 229.072 135.687 230.125H141.509V229.975C141.452 228.965 141.179 228.184 140.692 227.633C140.205 227.074 139.547 226.795 138.716 226.795ZM139.683 220.5H142.089L139.21 223.658H137.609L139.683 220.5ZM143.463 231.092C143.463 229.28 143.882 227.84 144.72 226.773C145.558 225.699 146.668 225.162 148.05 225.162C149.468 225.162 150.574 225.663 151.369 226.666L151.466 225.377H153.281V236.721C153.281 238.225 152.834 239.41 151.939 240.276C151.051 241.143 149.855 241.576 148.351 241.576C147.513 241.576 146.693 241.397 145.891 241.039C145.089 240.681 144.476 240.19 144.054 239.567L145.085 238.375C145.937 239.428 146.979 239.954 148.211 239.954C149.178 239.954 149.93 239.682 150.467 239.138C151.011 238.593 151.283 237.827 151.283 236.839V235.84C150.488 236.757 149.403 237.215 148.028 237.215C146.668 237.215 145.565 236.667 144.72 235.571C143.882 234.476 143.463 232.982 143.463 231.092ZM145.461 231.317C145.461 232.628 145.73 233.659 146.267 234.411C146.804 235.156 147.556 235.528 148.523 235.528C149.776 235.528 150.696 234.959 151.283 233.82V228.514C150.675 227.404 149.762 226.849 148.544 226.849C147.577 226.849 146.822 227.225 146.277 227.977C145.733 228.729 145.461 229.842 145.461 231.317ZM156.578 237H154.591V225.377H156.578V237ZM154.43 222.294C154.43 221.972 154.527 221.7 154.72 221.478C154.921 221.256 155.214 221.145 155.601 221.145C155.988 221.145 156.281 221.256 156.482 221.478C156.682 221.7 156.783 221.972 156.783 222.294C156.783 222.616 156.682 222.885 156.482 223.1C156.281 223.314 155.988 223.422 155.601 223.422C155.214 223.422 154.921 223.314 154.72 223.1C154.527 222.885 154.43 222.616 154.43 222.294ZM165.075 237C164.96 236.771 164.867 236.363 164.795 235.775C163.871 236.735 162.769 237.215 161.487 237.215C160.341 237.215 159.399 236.893 158.662 236.248C157.931 235.596 157.566 234.773 157.566 233.777C157.566 232.567 158.024 231.629 158.941 230.963C159.865 230.29 161.161 229.953 162.829 229.953H164.763V229.04C164.763 228.345 164.555 227.794 164.14 227.386C163.725 226.97 163.112 226.763 162.303 226.763C161.594 226.763 161 226.942 160.52 227.3C160.04 227.658 159.8 228.091 159.8 228.6H157.802C157.802 228.02 158.006 227.461 158.414 226.924C158.83 226.38 159.388 225.95 160.09 225.635C160.799 225.32 161.576 225.162 162.421 225.162C163.76 225.162 164.81 225.499 165.569 226.172C166.328 226.838 166.722 227.758 166.75 228.933V234.282C166.75 235.349 166.886 236.198 167.159 236.828V237H165.075ZM161.777 235.485C162.4 235.485 162.991 235.324 163.549 235.002C164.108 234.68 164.512 234.261 164.763 233.745V231.36H163.205C160.771 231.36 159.553 232.073 159.553 233.498C159.553 234.121 159.761 234.608 160.176 234.959C160.592 235.31 161.125 235.485 161.777 235.485ZM170.155 237H168.168V225.377H170.155V237ZM168.006 222.294C168.006 221.972 168.103 221.7 168.296 221.478C168.497 221.256 168.791 221.145 169.177 221.145C169.564 221.145 169.858 221.256 170.058 221.478C170.259 221.7 170.359 221.972 170.359 222.294C170.359 222.616 170.259 222.885 170.058 223.1C169.858 223.314 169.564 223.422 169.177 223.422C168.791 223.422 168.497 223.314 168.296 223.1C168.103 222.885 168.006 222.616 168.006 222.294ZM45.8479 255.728L43.9358 257.715V263H41.8733V247.359H43.9358V255.094L50.886 247.359H53.3782L47.2229 254.267L53.8616 263H51.3909L45.8479 255.728ZM60.4027 261.851C59.6293 262.76 58.4942 263.215 56.9975 263.215C55.7585 263.215 54.8132 262.857 54.1615 262.141C53.517 261.417 53.1911 260.35 53.184 258.939V251.377H55.1713V258.886C55.1713 260.647 55.8874 261.528 57.3197 261.528C58.838 261.528 59.8477 260.963 60.349 259.831V251.377H62.3363V263H60.4457L60.4027 261.851ZM66.1919 248.562V251.377H68.3618V252.913H66.1919V260.121C66.1919 260.587 66.2886 260.938 66.482 261.174C66.6753 261.403 67.0047 261.518 67.4702 261.518C67.6994 261.518 68.0145 261.475 68.4156 261.389V263C67.8928 263.143 67.3843 263.215 66.8902 263.215C66.0021 263.215 65.3325 262.946 64.8814 262.409C64.4302 261.872 64.2046 261.109 64.2046 260.121V252.913H62.0884V251.377H64.2046V248.562H66.1919ZM75.9987 263C75.8841 262.771 75.791 262.363 75.7194 261.775C74.7955 262.735 73.6927 263.215 72.4108 263.215C71.2649 263.215 70.3232 262.893 69.5856 262.248C68.8551 261.596 68.4899 260.773 68.4899 259.777C68.4899 258.567 68.9482 257.629 69.8649 256.963C70.7887 256.29 72.0849 255.953 73.7536 255.953H75.6871V255.04C75.6871 254.345 75.4795 253.794 75.0641 253.386C74.6487 252.97 74.0364 252.763 73.2272 252.763C72.5182 252.763 71.9238 252.942 71.444 253.3C70.9642 253.658 70.7243 254.091 70.7243 254.6H68.7262C68.7262 254.02 68.9303 253.461 69.3385 252.924C69.7539 252.38 70.3125 251.95 71.0143 251.635C71.7233 251.32 72.5003 251.162 73.3454 251.162C74.6845 251.162 75.7337 251.499 76.4928 252.172C77.2519 252.838 77.6458 253.758 77.6745 254.933V260.282C77.6745 261.349 77.8105 262.198 78.0827 262.828V263H75.9987ZM72.7008 261.485C73.3239 261.485 73.9147 261.324 74.4733 261.002C75.0319 260.68 75.4365 260.261 75.6871 259.745V257.36H74.1295C71.6946 257.36 70.4772 258.073 70.4772 259.498C70.4772 260.121 70.6849 260.608 71.1002 260.959C71.5156 261.31 72.0491 261.485 72.7008 261.485ZM81.616 248.562V251.377H83.7859V252.913H81.616V260.121C81.616 260.587 81.7127 260.938 81.906 261.174C82.0994 261.403 82.4288 261.518 82.8943 261.518C83.1235 261.518 83.4386 261.475 83.8396 261.389V263C83.3168 263.143 82.8084 263.215 82.3142 263.215C81.4262 263.215 80.7566 262.946 80.3054 262.409C79.8543 261.872 79.6287 261.109 79.6287 260.121V252.913H77.5125V251.377H79.6287V248.562H81.616ZM83.5057 257.081C83.5057 255.942 83.7278 254.918 84.1718 254.009C84.6229 253.099 85.246 252.397 86.0409 251.903C86.843 251.409 87.7561 251.162 88.7802 251.162C90.3628 251.162 91.6412 251.71 92.6151 252.806C93.5962 253.901 94.0868 255.359 94.0868 257.178V257.317C94.0868 258.449 93.8684 259.466 93.4315 260.368C93.0018 261.263 92.3824 261.962 91.5731 262.463C90.771 262.964 89.8472 263.215 88.8016 263.215C87.2261 263.215 85.9478 262.667 84.9667 261.571C83.9927 260.476 83.5057 259.025 83.5057 257.221V257.081ZM85.5038 257.317C85.5038 258.606 85.801 259.641 86.3954 260.422C86.997 261.202 87.799 261.593 88.8016 261.593C89.8114 261.593 90.6135 261.199 91.2079 260.411C91.8023 259.616 92.0995 258.506 92.0995 257.081C92.0995 255.806 91.7951 254.775 91.1864 253.987C90.5848 253.192 89.7828 252.795 88.7802 252.795C87.799 252.795 87.0077 253.185 86.4061 253.966C85.8046 254.746 85.5038 255.864 85.5038 257.317ZM89.6825 246.5H92.0888L89.2098 249.658H87.6093L89.6825 246.5ZM96.8682 263H94.8809V251.377H96.8682V263ZM94.7197 248.294C94.7197 247.972 94.8164 247.7 95.0098 247.478C95.2103 247.256 95.5039 247.145 95.8906 247.145C96.2773 247.145 96.571 247.256 96.7715 247.478C96.972 247.7 97.0723 247.972 97.0723 248.294C97.0723 248.616 96.972 248.885 96.7715 249.1C96.571 249.314 96.2773 249.422 95.8906 249.422C95.5039 249.422 95.2103 249.314 95.0098 249.1C94.8164 248.885 94.7197 248.616 94.7197 248.294ZM100.068 251.377L100.133 252.838C101.021 251.721 102.181 251.162 103.613 251.162C106.07 251.162 107.309 252.548 107.33 255.319V263H105.343V255.309C105.336 254.471 105.142 253.851 104.763 253.45C104.39 253.049 103.807 252.849 103.012 252.849C102.367 252.849 101.802 253.021 101.315 253.364C100.828 253.708 100.448 254.159 100.176 254.718V263H98.1886V251.377H100.068ZM111.154 248.562V251.377H113.323V252.913H111.154V260.121C111.154 260.587 111.25 260.938 111.444 261.174C111.637 261.403 111.966 261.518 112.432 261.518C112.661 261.518 112.976 261.475 113.377 261.389V263C112.854 263.143 112.346 263.215 111.852 263.215C110.964 263.215 110.294 262.946 109.843 262.409C109.392 261.872 109.166 261.109 109.166 260.121V252.913H107.05V251.377H109.166V248.562H111.154ZM118.608 263.215C117.032 263.215 115.75 262.699 114.762 261.668C113.774 260.63 113.28 259.244 113.28 257.511V257.146C113.28 255.993 113.498 254.965 113.935 254.062C114.379 253.153 114.995 252.444 115.783 251.936C116.577 251.42 117.437 251.162 118.361 251.162C119.872 251.162 121.046 251.66 121.884 252.655C122.722 253.651 123.141 255.076 123.141 256.931V257.758H115.267C115.296 258.904 115.629 259.831 116.266 260.54C116.911 261.242 117.727 261.593 118.715 261.593C119.417 261.593 120.011 261.45 120.498 261.163C120.985 260.877 121.411 260.497 121.777 260.024L122.991 260.97C122.017 262.466 120.556 263.215 118.608 263.215ZM118.361 252.795C117.559 252.795 116.885 253.089 116.341 253.676C115.797 254.256 115.46 255.072 115.331 256.125H121.154V255.975C121.096 254.965 120.824 254.184 120.337 253.633C119.85 253.074 119.191 252.795 118.361 252.795ZM119.327 246.5H121.734L118.855 249.658H117.254L119.327 246.5ZM125.45 261.378H132.249V263H123.022V261.539L129.435 253.021H123.119V251.377H131.927V252.784L125.45 261.378ZM137.276 263.215C135.7 263.215 134.419 262.699 133.43 261.668C132.442 260.63 131.948 259.244 131.948 257.511V257.146C131.948 255.993 132.166 254.965 132.603 254.062C133.047 253.153 133.663 252.444 134.451 251.936C135.246 251.42 136.105 251.162 137.029 251.162C138.54 251.162 139.714 251.66 140.552 252.655C141.39 253.651 141.809 255.076 141.809 256.931V257.758H133.935C133.964 258.904 134.297 259.831 134.934 260.54C135.579 261.242 136.395 261.593 137.383 261.593C138.085 261.593 138.68 261.45 139.167 261.163C139.654 260.877 140.08 260.497 140.445 260.024L141.659 260.97C140.685 262.466 139.224 263.215 137.276 263.215ZM137.029 252.795C136.227 252.795 135.554 253.089 135.009 253.676C134.465 254.256 134.129 255.072 134 256.125H139.822V255.975C139.765 254.965 139.492 254.184 139.005 253.633C138.518 253.074 137.86 252.795 137.029 252.795ZM144.945 248.562V251.377H147.115V252.913H144.945V260.121C144.945 260.587 145.042 260.938 145.235 261.174C145.428 261.403 145.758 261.518 146.223 261.518C146.453 261.518 146.768 261.475 147.169 261.389V263C146.646 263.143 146.137 263.215 145.643 263.215C144.755 263.215 144.086 262.946 143.634 262.409C143.183 261.872 142.958 261.109 142.958 260.121V252.913H140.842V251.377H142.958V248.562H144.945ZM3.05406 283.092C3.05406 281.28 3.47301 279.84 4.3109 278.773C5.14879 277.699 6.25881 277.162 7.64098 277.162C9.05894 277.162 10.1654 277.663 10.9603 278.666L11.057 277.377H12.8724V288.721C12.8724 290.225 12.4248 291.41 11.5296 292.276C10.6416 293.143 9.44566 293.576 7.94176 293.576C7.10387 293.576 6.28388 293.397 5.4818 293.039C4.67971 292.681 4.06741 292.19 3.64488 291.567L4.67613 290.375C5.52835 291.428 6.57034 291.954 7.80211 291.954C8.76891 291.954 9.52086 291.682 10.058 291.138C10.6022 290.593 10.8744 289.827 10.8744 288.839V287.84C10.0795 288.757 8.99449 289.215 7.61949 289.215C6.25881 289.215 5.15595 288.667 4.3109 287.571C3.47301 286.476 3.05406 284.982 3.05406 283.092ZM5.05211 283.317C5.05211 284.628 5.32066 285.659 5.85777 286.411C6.39488 287.156 7.14684 287.528 8.11363 287.528C9.36689 287.528 10.2871 286.959 10.8744 285.82V280.514C10.2657 279.404 9.35256 278.849 8.13512 278.849C7.16832 278.849 6.41279 279.225 5.86852 279.977C5.32424 280.729 5.05211 281.842 5.05211 283.317ZM13.4839 283.081C13.4839 281.942 13.7059 280.918 14.1499 280.009C14.6011 279.099 15.2241 278.397 16.019 277.903C16.8211 277.409 17.7342 277.162 18.7583 277.162C20.341 277.162 21.6193 277.71 22.5932 278.806C23.5744 279.901 24.0649 281.359 24.0649 283.178V283.317C24.0649 284.449 23.8465 285.466 23.4096 286.368C22.98 287.263 22.3605 287.962 21.5512 288.463C20.7492 288.964 19.8253 289.215 18.7798 289.215C17.2042 289.215 15.9259 288.667 14.9448 287.571C13.9708 286.476 13.4839 285.025 13.4839 283.221V283.081ZM15.4819 283.317C15.4819 284.606 15.7791 285.641 16.3735 286.422C16.9751 287.202 17.7772 287.593 18.7798 287.593C19.7895 287.593 20.5916 287.199 21.186 286.411C21.7804 285.616 22.0776 284.506 22.0776 283.081C22.0776 281.806 21.7733 280.775 21.1645 279.987C20.563 279.192 19.7609 278.795 18.7583 278.795C17.7772 278.795 16.9858 279.185 16.3843 279.966C15.7827 280.746 15.4819 281.864 15.4819 283.317ZM26.567 277.377L26.6314 278.838C27.5195 277.721 28.6796 277.162 30.1119 277.162C32.5683 277.162 33.8072 278.548 33.8287 281.319V289H31.8414V281.309C31.8342 280.471 31.6409 279.851 31.2613 279.45C30.8889 279.049 30.3053 278.849 29.5104 278.849C28.8658 278.849 28.3001 279.021 27.8131 279.364C27.3261 279.708 26.9465 280.159 26.6744 280.718V289H24.6871V277.377H26.567ZM34.4724 283.092C34.4724 281.309 34.8949 279.876 35.74 278.795C36.585 277.706 37.6915 277.162 39.0593 277.162C40.42 277.162 41.4978 277.628 42.2927 278.559V272.5H44.28V289H42.4538L42.3571 287.754C41.5622 288.728 40.4558 289.215 39.0378 289.215C37.6915 289.215 36.5922 288.663 35.74 287.561C34.8949 286.458 34.4724 285.018 34.4724 283.242V283.092ZM36.4597 283.317C36.4597 284.635 36.7318 285.666 37.2761 286.411C37.8204 287.156 38.5723 287.528 39.532 287.528C40.7924 287.528 41.7126 286.963 42.2927 285.831V280.492C41.6983 279.396 40.7852 278.849 39.5534 278.849C38.5795 278.849 37.8204 279.225 37.2761 279.977C36.7318 280.729 36.4597 281.842 36.4597 283.317ZM44.9774 283.081C44.9774 281.942 45.1994 280.918 45.6434 280.009C46.0946 279.099 46.7176 278.397 47.5125 277.903C48.3146 277.409 49.2277 277.162 50.2518 277.162C51.8345 277.162 53.1128 277.71 54.0868 278.806C55.0679 279.901 55.5584 281.359 55.5584 283.178V283.317C55.5584 284.449 55.34 285.466 54.9032 286.368C54.4735 287.263 53.854 287.962 53.0448 288.463C52.2427 288.964 51.3189 289.215 50.2733 289.215C48.6978 289.215 47.4194 288.667 46.4383 287.571C45.4644 286.476 44.9774 285.025 44.9774 283.221V283.081ZM46.9754 283.317C46.9754 284.606 47.2726 285.641 47.867 286.422C48.4686 287.202 49.2707 287.593 50.2733 287.593C51.283 287.593 52.0851 287.199 52.6795 286.411C53.2739 285.616 53.5711 284.506 53.5711 283.081C53.5711 281.806 53.2668 280.775 52.658 279.987C52.0565 279.192 51.2544 278.795 50.2518 278.795C49.2707 278.795 48.4793 279.185 47.8778 279.966C47.2762 280.746 46.9754 281.864 46.9754 283.317ZM57.8779 287.378H64.6777V289H55.4502V287.539L61.8632 279.021H55.5468V277.377H64.3554V278.784L57.8779 287.378ZM72.2286 289C72.114 288.771 72.0209 288.363 71.9493 287.775C71.0255 288.735 69.9226 289.215 68.6407 289.215C67.4949 289.215 66.5531 288.893 65.8155 288.248C65.085 287.596 64.7198 286.773 64.7198 285.777C64.7198 284.567 65.1781 283.629 66.0948 282.963C67.0186 282.29 68.3149 281.953 69.9835 281.953H71.9171V281.04C71.9171 280.345 71.7094 279.794 71.294 279.386C70.8787 278.97 70.2664 278.763 69.4571 278.763C68.7481 278.763 68.1537 278.942 67.6739 279.3C67.1941 279.658 66.9542 280.091 66.9542 280.6H64.9561C64.9561 280.02 65.1602 279.461 65.5684 278.924C65.9838 278.38 66.5424 277.95 67.2442 277.635C67.9532 277.32 68.7302 277.162 69.5753 277.162C70.9145 277.162 71.9636 277.499 72.7227 278.172C73.4818 278.838 73.8757 279.758 73.9044 280.933V286.282C73.9044 287.349 74.0404 288.198 74.3126 288.828V289H72.2286ZM68.9307 287.485C69.5538 287.485 70.1446 287.324 70.7032 287.002C71.2618 286.68 71.6664 286.261 71.9171 285.745V283.36H70.3595C67.9246 283.36 66.7071 284.073 66.7071 285.498C66.7071 286.121 66.9148 286.608 67.3302 286.959C67.7455 287.31 68.279 287.485 68.9307 287.485ZM70.7677 272.5H73.1739L70.295 275.658H68.6944L70.7677 272.5ZM81.9172 285.917C81.9172 285.38 81.7131 284.965 81.3049 284.671C80.9038 284.37 80.1984 284.112 79.1887 283.897C78.1861 283.683 77.3876 283.425 76.7932 283.124C76.2059 282.823 75.7691 282.465 75.4826 282.05C75.2033 281.634 75.0637 281.14 75.0637 280.567C75.0637 279.615 75.4647 278.809 76.2668 278.15C77.076 277.492 78.1073 277.162 79.3605 277.162C80.6783 277.162 81.7453 277.502 82.5617 278.183C83.3853 278.863 83.7971 279.733 83.7971 280.793H81.799C81.799 280.249 81.5663 279.78 81.1008 279.386C80.6425 278.992 80.0624 278.795 79.3605 278.795C78.6372 278.795 78.0715 278.952 77.6633 279.268C77.2551 279.583 77.051 279.994 77.051 280.503C77.051 280.983 77.2408 281.344 77.6203 281.588C77.9999 281.831 78.6838 282.064 79.6721 282.286C80.6675 282.508 81.4732 282.773 82.0891 283.081C82.705 283.389 83.1597 283.761 83.4533 284.198C83.7541 284.628 83.9045 285.154 83.9045 285.777C83.9045 286.816 83.4891 287.65 82.6584 288.28C81.8277 288.903 80.7499 289.215 79.425 289.215C78.494 289.215 77.6704 289.05 76.9543 288.721C76.2382 288.391 75.676 287.933 75.2678 287.346C74.8667 286.751 74.6662 286.11 74.6662 285.423H76.6535C76.6893 286.089 76.9543 286.619 77.4484 287.013C77.9497 287.399 78.6086 287.593 79.425 287.593C80.177 287.593 80.7785 287.442 81.2297 287.142C81.688 286.834 81.9172 286.425 81.9172 285.917ZM91.7991 289C91.6846 288.771 91.5915 288.363 91.5198 287.775C90.596 288.735 89.4932 289.215 88.2113 289.215C87.0654 289.215 86.1237 288.893 85.3861 288.248C84.6556 287.596 84.2904 286.773 84.2904 285.777C84.2904 284.567 84.7487 283.629 85.6654 282.963C86.5892 282.29 87.8854 281.953 89.554 281.953H91.4876V281.04C91.4876 280.345 91.2799 279.794 90.8646 279.386C90.4492 278.97 89.8369 278.763 89.0277 278.763C88.3187 278.763 87.7243 278.942 87.2445 279.3C86.7646 279.658 86.5247 280.091 86.5247 280.6H84.5267C84.5267 280.02 84.7308 279.461 85.139 278.924C85.5543 278.38 86.1129 277.95 86.8148 277.635C87.5238 277.32 88.3008 277.162 89.1458 277.162C90.485 277.162 91.5342 277.499 92.2933 278.172C93.0524 278.838 93.4463 279.758 93.4749 280.933V286.282C93.4749 287.349 93.611 288.198 93.8831 288.828V289H91.7991ZM88.5013 287.485C89.1243 287.485 89.7152 287.324 90.2738 287.002C90.8323 286.68 91.237 286.261 91.4876 285.745V283.36H89.93C87.4951 283.36 86.2777 284.073 86.2777 285.498C86.2777 286.121 86.4853 286.608 86.9007 286.959C87.3161 287.31 87.8496 287.485 88.5013 287.485ZM90.3382 272.5H92.7445L89.8655 275.658H88.265L90.3382 272.5ZM104.56 283.317C104.56 285.093 104.152 286.522 103.335 287.604C102.519 288.678 101.423 289.215 100.048 289.215C98.5802 289.215 97.4451 288.696 96.643 287.657L96.5463 289H94.7202V272.5H96.7075V278.655C97.5095 277.66 98.616 277.162 100.027 277.162C101.438 277.162 102.544 277.696 103.346 278.763C104.155 279.83 104.56 281.291 104.56 283.146V283.317ZM102.573 283.092C102.573 281.738 102.311 280.693 101.789 279.955C101.266 279.217 100.514 278.849 99.5327 278.849C98.2221 278.849 97.2804 279.457 96.7075 280.675V285.702C97.3162 286.92 98.2651 287.528 99.5541 287.528C100.507 287.528 101.248 287.16 101.778 286.422C102.308 285.684 102.573 284.574 102.573 283.092ZM112.379 289C112.265 288.771 112.172 288.363 112.1 287.775C111.176 288.735 110.073 289.215 108.792 289.215C107.646 289.215 106.704 288.893 105.966 288.248C105.236 287.596 104.871 286.773 104.871 285.777C104.871 284.567 105.329 283.629 106.246 282.963C107.169 282.29 108.466 281.953 110.134 281.953H112.068V281.04C112.068 280.345 111.86 279.794 111.445 279.386C111.03 278.97 110.417 278.763 109.608 278.763C108.899 278.763 108.305 278.942 107.825 279.3C107.345 279.658 107.105 280.091 107.105 280.6H105.107C105.107 280.02 105.311 279.461 105.719 278.924C106.135 278.38 106.693 277.95 107.395 277.635C108.104 277.32 108.881 277.162 109.726 277.162C111.065 277.162 112.114 277.499 112.874 278.172C113.633 278.838 114.027 279.758 114.055 280.933V286.282C114.055 287.349 114.191 288.198 114.463 288.828V289H112.379ZM109.082 287.485C109.705 287.485 110.295 287.324 110.854 287.002C111.413 286.68 111.817 286.261 112.068 285.745V283.36H110.51C108.075 283.36 106.858 284.073 106.858 285.498C106.858 286.121 107.066 286.608 107.481 286.959C107.896 287.31 108.43 287.485 109.082 287.485ZM117.18 277.377L117.245 278.838C118.133 277.721 119.293 277.162 120.725 277.162C123.182 277.162 124.421 278.548 124.442 281.319V289H122.455V281.309C122.448 280.471 122.254 279.851 121.875 279.45C121.502 279.049 120.919 278.849 120.124 278.849C119.479 278.849 118.913 279.021 118.426 279.364C117.939 279.708 117.56 280.159 117.288 280.718V289H115.3V277.377H117.18ZM132.4 283.618L131.154 284.918V289H129.167V272.5H131.154V282.479L132.218 281.201L135.838 277.377H138.255L133.732 282.232L138.781 289H136.45L132.4 283.618ZM143.045 289.215C141.469 289.215 140.188 288.699 139.199 287.668C138.211 286.63 137.717 285.244 137.717 283.511V283.146C137.717 281.993 137.935 280.965 138.372 280.062C138.816 279.153 139.432 278.444 140.22 277.936C141.015 277.42 141.874 277.162 142.798 277.162C144.309 277.162 145.483 277.66 146.321 278.655C147.159 279.651 147.578 281.076 147.578 282.931V283.758H139.704C139.733 284.904 140.066 285.831 140.703 286.54C141.348 287.242 142.164 287.593 143.152 287.593C143.854 287.593 144.449 287.45 144.936 287.163C145.423 286.877 145.849 286.497 146.214 286.024L147.428 286.97C146.454 288.466 144.993 289.215 143.045 289.215ZM142.798 278.795C141.996 278.795 141.323 279.089 140.778 279.676C140.234 280.256 139.898 281.072 139.769 282.125H145.591V281.975C145.534 280.965 145.261 280.184 144.774 279.633C144.287 279.074 143.629 278.795 142.798 278.795ZM143.765 272.5H146.171L143.292 275.658H141.691L143.765 272.5ZM154.785 285.917C154.785 285.38 154.581 284.965 154.173 284.671C153.772 284.37 153.067 284.112 152.057 283.897C151.054 283.683 150.256 283.425 149.661 283.124C149.074 282.823 148.637 282.465 148.351 282.05C148.071 281.634 147.932 281.14 147.932 280.567C147.932 279.615 148.333 278.809 149.135 278.15C149.944 277.492 150.975 277.162 152.229 277.162C153.546 277.162 154.613 277.502 155.43 278.183C156.253 278.863 156.665 279.733 156.665 280.793H154.667C154.667 280.249 154.434 279.78 153.969 279.386C153.511 278.992 152.93 278.795 152.229 278.795C151.505 278.795 150.94 278.952 150.531 279.268C150.123 279.583 149.919 279.994 149.919 280.503C149.919 280.983 150.109 281.344 150.488 281.588C150.868 281.831 151.552 282.064 152.54 282.286C153.536 282.508 154.341 282.773 154.957 283.081C155.573 283.389 156.028 283.761 156.321 284.198C156.622 284.628 156.773 285.154 156.773 285.777C156.773 286.816 156.357 287.65 155.527 288.28C154.696 288.903 153.618 289.215 152.293 289.215C151.362 289.215 150.539 289.05 149.822 288.721C149.106 288.391 148.544 287.933 148.136 287.346C147.735 286.751 147.534 286.11 147.534 285.423H149.522C149.557 286.089 149.822 286.619 150.317 287.013C150.818 287.399 151.477 287.593 152.293 287.593C153.045 287.593 153.647 287.442 154.098 287.142C154.556 286.834 154.785 286.425 154.785 285.917ZM159.361 287.378H166.16V289H156.933V287.539L163.346 279.021H157.03V277.377H165.838V278.784L159.361 287.378ZM173.711 287.851C172.938 288.76 171.803 289.215 170.306 289.215C169.067 289.215 168.122 288.857 167.47 288.141C166.826 287.417 166.5 286.35 166.493 284.939V277.377H168.48V284.886C168.48 286.647 169.196 287.528 170.628 287.528C172.147 287.528 173.156 286.963 173.658 285.831V277.377H175.645V289H173.754L173.711 287.851ZM167.663 274.272C167.663 273.95 167.76 273.682 167.954 273.467C168.154 273.245 168.448 273.134 168.834 273.134C169.221 273.134 169.515 273.245 169.715 273.467C169.916 273.682 170.016 273.95 170.016 274.272C170.016 274.595 169.916 274.863 169.715 275.078C169.515 275.293 169.221 275.4 168.834 275.4C168.448 275.4 168.154 275.293 167.954 275.078C167.76 274.863 167.663 274.595 167.663 274.272ZM172.283 274.294C172.283 273.972 172.379 273.7 172.573 273.478C172.773 273.256 173.067 273.145 173.454 273.145C173.84 273.145 174.134 273.256 174.334 273.478C174.535 273.7 174.635 273.972 174.635 274.294C174.635 274.616 174.535 274.885 174.334 275.1C174.134 275.314 173.84 275.422 173.454 275.422C173.067 275.422 172.773 275.314 172.573 275.1C172.379 274.885 172.283 274.616 172.283 274.294ZM178.963 289H176.976V272.5H178.963V289ZM182.98 274.562V277.377H185.15V278.913H182.98V286.121C182.98 286.587 183.077 286.938 183.27 287.174C183.464 287.403 183.793 287.518 184.258 287.518C184.488 287.518 184.803 287.475 185.204 287.389V289C184.681 289.143 184.173 289.215 183.678 289.215C182.79 289.215 182.121 288.946 181.67 288.409C181.218 287.872 180.993 287.109 180.993 286.121V278.913H178.877V277.377H180.993V274.562H182.98ZM12.1312 305.16C11.8304 305.11 11.5046 305.085 11.1537 305.085C9.85029 305.085 8.96585 305.64 8.50035 306.75V315H6.51305V303.377H8.44664L8.47887 304.72C9.13056 303.681 10.0544 303.162 11.2504 303.162C11.6371 303.162 11.9307 303.212 12.1312 303.312V305.16ZM11.3569 309.081C11.3569 307.942 11.5789 306.918 12.0229 306.009C12.4741 305.099 13.0971 304.397 13.8921 303.903C14.6942 303.409 15.6072 303.162 16.6313 303.162C18.214 303.162 19.4923 303.71 20.4663 304.806C21.4474 305.901 21.938 307.359 21.938 309.178V309.317C21.938 310.449 21.7195 311.466 21.2827 312.368C20.853 313.263 20.2335 313.962 19.4243 314.463C18.6222 314.964 17.6984 315.215 16.6528 315.215C15.0773 315.215 13.799 314.667 12.8179 313.571C11.8439 312.476 11.3569 311.025 11.3569 309.221V309.081ZM13.355 309.317C13.355 310.606 13.6522 311.641 14.2466 312.422C14.8481 313.202 15.6502 313.593 16.6528 313.593C17.6626 313.593 18.4647 313.199 19.0591 312.411C19.6535 311.616 19.9507 310.506 19.9507 309.081C19.9507 307.806 19.6463 306.775 19.0376 305.987C18.436 305.192 17.6339 304.795 16.6313 304.795C15.6502 304.795 14.8589 305.185 14.2573 305.966C13.6557 306.746 13.355 307.864 13.355 309.317ZM13.0971 300.272C13.0971 299.95 13.1938 299.682 13.3872 299.467C13.5877 299.245 13.8813 299.134 14.268 299.134C14.6548 299.134 14.9484 299.245 15.1489 299.467C15.3494 299.682 15.4497 299.95 15.4497 300.272C15.4497 300.595 15.3494 300.863 15.1489 301.078C14.9484 301.293 14.6548 301.4 14.268 301.4C13.8813 301.4 13.5877 301.293 13.3872 301.078C13.1938 300.863 13.0971 300.595 13.0971 300.272ZM17.7163 300.294C17.7163 299.972 17.813 299.7 18.0063 299.478C18.2068 299.256 18.5005 299.145 18.8872 299.145C19.2739 299.145 19.5675 299.256 19.768 299.478C19.9686 299.7 20.0688 299.972 20.0688 300.294C20.0688 300.616 19.9686 300.885 19.768 301.1C19.5675 301.314 19.2739 301.422 18.8872 301.422C18.5005 301.422 18.2068 301.314 18.0063 301.1C17.813 300.885 17.7163 300.616 17.7163 300.294ZM26.2232 312.304L29.1021 303.377H31.1324L26.9645 315H25.4498L21.2389 303.377H23.2691L26.2232 312.304ZM33.3337 315H31.3464V303.377H33.3337V315ZM31.1853 300.294C31.1853 299.972 31.282 299.7 31.4753 299.478C31.6758 299.256 31.9695 299.145 32.3562 299.145C32.7429 299.145 33.0365 299.256 33.237 299.478C33.4376 299.7 33.5378 299.972 33.5378 300.294C33.5378 300.616 33.4376 300.885 33.237 301.1C33.0365 301.314 32.7429 301.422 32.3562 301.422C31.9695 301.422 31.6758 301.314 31.4753 301.1C31.282 300.885 31.1853 300.616 31.1853 300.294ZM34.1707 309.092C34.1707 307.309 34.5933 305.876 35.4383 304.795C36.2834 303.706 37.3898 303.162 38.7577 303.162C40.1183 303.162 41.1961 303.628 41.9911 304.559V298.5H43.9784V315H42.1522L42.0555 313.754C41.2606 314.728 40.1541 315.215 38.7362 315.215C37.3898 315.215 36.2905 314.663 35.4383 313.561C34.5933 312.458 34.1707 311.018 34.1707 309.242V309.092ZM36.158 309.317C36.158 310.635 36.4302 311.666 36.9745 312.411C37.5187 313.156 38.2707 313.528 39.2303 313.528C40.4907 313.528 41.411 312.963 41.9911 311.831V306.492C41.3967 305.396 40.4836 304.849 39.2518 304.849C38.2778 304.849 37.5187 305.225 36.9745 305.977C36.4302 306.729 36.158 307.842 36.158 309.317ZM53.6124 315.215C52.0369 315.215 50.755 314.699 49.7667 313.668C48.7784 312.63 48.2843 311.244 48.2843 309.511V309.146C48.2843 307.993 48.5027 306.965 48.9395 306.062C49.3835 305.153 49.9994 304.444 50.7872 303.936C51.5821 303.42 52.4415 303.162 53.3653 303.162C54.8764 303.162 56.0509 303.66 56.8887 304.655C57.7266 305.651 58.1456 307.076 58.1456 308.931V309.758H50.2716C50.3002 310.904 50.6332 311.831 51.2706 312.54C51.9151 313.242 52.7315 313.593 53.7198 313.593C54.4216 313.593 55.016 313.45 55.503 313.163C55.99 312.877 56.4161 312.497 56.7813 312.024L57.9952 312.97C57.0212 314.466 55.5603 315.215 53.6124 315.215ZM53.3653 304.795C52.5632 304.795 51.8901 305.089 51.3458 305.676C50.8015 306.256 50.4649 307.072 50.336 308.125H56.1583V307.975C56.101 306.965 55.8289 306.184 55.3419 305.633C54.8549 305.074 54.196 304.795 53.3653 304.795ZM60.7443 315H58.757V298.5H60.7443V315ZM66.888 315.215C65.3125 315.215 64.0306 314.699 63.0423 313.668C62.054 312.63 61.5599 311.244 61.5599 309.511V309.146C61.5599 307.993 61.7783 306.965 62.2152 306.062C62.6592 305.153 63.2751 304.444 64.0628 303.936C64.8577 303.42 65.7171 303.162 66.6409 303.162C68.152 303.162 69.3265 303.66 70.1644 304.655C71.0023 305.651 71.4212 307.076 71.4212 308.931V309.758H63.5472C63.5758 310.904 63.9088 311.831 64.5462 312.54C65.1907 313.242 66.0071 313.593 66.9954 313.593C67.6973 313.593 68.2917 313.45 68.7786 313.163C69.2656 312.877 69.6917 312.497 70.057 312.024L71.2708 312.97C70.2969 314.466 68.8359 315.215 66.888 315.215ZM66.6409 304.795C65.8389 304.795 65.1657 305.089 64.6214 305.676C64.0771 306.256 63.7405 307.072 63.6116 308.125H69.4339V307.975C69.3766 306.965 69.1045 306.184 68.6175 305.633C68.1305 305.074 67.4717 304.795 66.6409 304.795ZM73.7299 303.377L73.7836 304.666C74.6358 303.663 75.7853 303.162 77.2319 303.162C78.8575 303.162 79.964 303.785 80.5512 305.031C80.9379 304.473 81.4392 304.021 82.0551 303.678C82.6782 303.334 83.4122 303.162 84.2573 303.162C86.8067 303.162 88.103 304.512 88.1459 307.212V315H86.1586V307.33C86.1586 306.499 85.9689 305.88 85.5893 305.472C85.2097 305.056 84.5724 304.849 83.6772 304.849C82.9396 304.849 82.3273 305.071 81.8403 305.515C81.3533 305.951 81.0704 306.542 80.9916 307.287V315H78.9936V307.384C78.9936 305.694 78.1664 304.849 76.5121 304.849C75.2088 304.849 74.3172 305.404 73.8373 306.514V315H71.85V303.377H73.7299ZM91.1529 313.378H97.9527V315H88.7252V313.539L95.1382 305.021H88.8218V303.377H97.6304V304.784L91.1529 313.378ZM97.6296 309.081C97.6296 307.942 97.8516 306.918 98.2956 306.009C98.7468 305.099 99.3698 304.397 100.165 303.903C100.967 303.409 101.88 303.162 102.904 303.162C104.487 303.162 105.765 303.71 106.739 304.806C107.72 305.901 108.211 307.359 108.211 309.178V309.317C108.211 310.449 107.992 311.466 107.555 312.368C107.126 313.263 106.506 313.962 105.697 314.463C104.895 314.964 103.971 315.215 102.925 315.215C101.35 315.215 100.072 314.667 99.0905 313.571C98.1165 312.476 97.6296 311.025 97.6296 309.221V309.081ZM99.6276 309.317C99.6276 310.606 99.9248 311.641 100.519 312.422C101.121 313.202 101.923 313.593 102.925 313.593C103.935 313.593 104.737 313.199 105.332 312.411C105.926 311.616 106.223 310.506 106.223 309.081C106.223 307.806 105.919 306.775 105.31 305.987C104.709 305.192 103.907 304.795 102.904 304.795C101.923 304.795 101.132 305.185 100.53 305.966C99.9284 306.746 99.6276 307.864 99.6276 309.317ZM105.643 298.511H107.867L104.977 301.766H103.162L105.643 298.511ZM101.991 298.511H104.107L101.765 301.766H100.154L101.991 298.511ZM114.289 303.377L114.343 304.666C115.195 303.663 116.344 303.162 117.791 303.162C119.417 303.162 120.523 303.785 121.11 305.031C121.497 304.473 121.998 304.021 122.614 303.678C123.237 303.334 123.971 303.162 124.816 303.162C127.366 303.162 128.662 304.512 128.705 307.212V315H126.718V307.33C126.718 306.499 126.528 305.88 126.148 305.472C125.769 305.056 125.131 304.849 124.236 304.849C123.499 304.849 122.886 305.071 122.399 305.515C121.912 305.951 121.629 306.542 121.551 307.287V315H119.553V307.384C119.553 305.694 118.726 304.849 117.071 304.849C115.768 304.849 114.876 305.404 114.396 306.514V315H112.409V303.377H114.289ZM137.019 313.851C136.245 314.76 135.11 315.215 133.613 315.215C132.374 315.215 131.429 314.857 130.777 314.141C130.133 313.417 129.807 312.35 129.8 310.939V303.377H131.787V310.886C131.787 312.647 132.503 313.528 133.936 313.528C135.454 313.528 136.464 312.963 136.965 311.831V303.377H138.952V315H137.062L137.019 313.851ZM141.991 303.377L142.056 304.838C142.944 303.721 144.104 303.162 145.536 303.162C147.993 303.162 149.232 304.548 149.253 307.319V315H147.266V307.309C147.259 306.471 147.065 305.851 146.686 305.45C146.313 305.049 145.73 304.849 144.935 304.849C144.29 304.849 143.724 305.021 143.237 305.364C142.75 305.708 142.371 306.159 142.099 306.718V315H140.111V303.377H141.991ZM153.624 309.618L152.378 310.918V315H150.391V298.5H152.378V308.479L153.442 307.201L157.062 303.377H159.479L154.956 308.232L160.005 315H157.674L153.624 309.618ZM166.836 315C166.722 314.771 166.629 314.363 166.557 313.775C165.633 314.735 164.53 315.215 163.248 315.215C162.103 315.215 161.161 314.893 160.423 314.248C159.693 313.596 159.328 312.773 159.328 311.777C159.328 310.567 159.786 309.629 160.703 308.963C161.626 308.29 162.923 307.953 164.591 307.953H166.525V307.04C166.525 306.345 166.317 305.794 165.902 305.386C165.486 304.97 164.874 304.763 164.065 304.763C163.356 304.763 162.761 304.942 162.282 305.3C161.802 305.658 161.562 306.091 161.562 306.6H159.564C159.564 306.02 159.768 305.461 160.176 304.924C160.592 304.38 161.15 303.95 161.852 303.635C162.561 303.32 163.338 303.162 164.183 303.162C165.522 303.162 166.571 303.499 167.33 304.172C168.09 304.838 168.483 305.758 168.512 306.933V312.282C168.512 313.349 168.648 314.198 168.92 314.828V315H166.836ZM163.538 313.485C164.162 313.485 164.752 313.324 165.311 313.002C165.87 312.68 166.274 312.261 166.525 311.745V309.36H164.967C162.532 309.36 161.315 310.073 161.315 311.498C161.315 312.121 161.523 312.608 161.938 312.959C162.353 313.31 162.887 313.485 163.538 313.485ZM165.375 298.5H167.782L164.903 301.658H163.302L165.375 298.5ZM173.001 309.618L171.755 310.918V315H169.768V298.5H171.755V308.479L172.819 307.201L176.439 303.377H178.856L174.334 308.232L179.382 315H177.051L173.001 309.618Z" fill="#ECE7DD"/>
</svg>
