<svg width="187" height="374" viewBox="0 0 187 374" fill="none" xmlns="http://www.w3.org/2000/svg">
<rect x="0.285156" y="0.714111" width="186.094" height="372.294" fill="#B0B1A9" fill-opacity="0.8"/>
<path d="M140.029 124.313V34.4449H46.6367V158.674H110.677M140.029 124.313H110.677V158.674M140.029 124.313L110.677 158.674" stroke="#ECE7DD" stroke-width="7"/>
<line x1="62.3086" y1="62.0022" x2="125.015" y2="62.0022" stroke="#ECE7DD" stroke-width="7"/>
<line x1="62.3086" y1="77.531" x2="109.338" y2="77.531" stroke="#ECE7DD" stroke-width="7"/>
<line x1="62.3086" y1="93.059" x2="125.015" y2="93.059" stroke="#ECE7DD" stroke-width="7"/>
<line x1="62.3086" y1="108.588" x2="98.1406" y2="108.588" stroke="#ECE7DD" stroke-width="7"/>
<path d="M34.8496 179.747H30.7119V191H27.9287V179.747H23.8467V177.492H34.8496V179.747ZM42.958 188.217H38.0781L37.1504 191H34.1909L39.2192 177.492H41.7983L46.8545 191H43.895L42.958 188.217ZM38.8296 185.962H42.2065L40.5088 180.906L38.8296 185.962ZM59.1006 191H56.3174L50.8994 182.112V191H48.1162V177.492H50.8994L56.3267 186.398V177.492H59.1006V191ZM71.7549 177.492V186.389C71.7549 187.867 71.291 189.036 70.3633 189.896C69.4417 190.756 68.18 191.186 66.5781 191.186C65.001 191.186 63.7485 190.768 62.8208 189.933C61.8931 189.098 61.4199 187.951 61.4014 186.491V177.492H64.1846V186.408C64.1846 187.292 64.3949 187.938 64.8154 188.347C65.2422 188.749 65.8298 188.95 66.5781 188.95C68.1429 188.95 68.9377 188.127 68.9624 186.482V177.492H71.7549ZM76.8203 188.764H82.73V191H74.0371V177.492H76.8203V188.764ZM87.9717 177.492L91.4414 187.289L94.8926 177.492H98.5479V191H95.7554V187.308L96.0337 180.934L92.3877 191H90.4766L86.8398 180.943L87.1182 187.308V191H84.335V177.492H87.9717ZM108.771 188.217H103.892L102.964 191H100.004L105.033 177.492H107.612L112.668 191H109.708L108.771 188.217ZM104.643 185.962H108.02L106.322 180.906L104.643 185.962ZM106.897 173.874H109.82L107.25 176.75H105.07L106.897 173.874ZM124.914 191H122.131L116.713 182.112V191H113.93V177.492H116.713L122.14 186.398V177.492H124.914V191ZM131.742 183.578L134.553 177.492H137.596L133.162 186.102V191H130.332V186.102L125.897 177.492H128.95L131.742 183.578ZM149.647 184.552C149.647 185.882 149.412 187.048 148.942 188.05C148.472 189.052 147.798 189.825 146.92 190.369C146.048 190.913 145.046 191.186 143.914 191.186C142.795 191.186 141.796 190.917 140.917 190.378C140.039 189.84 139.359 189.073 138.876 188.078C138.394 187.076 138.15 185.925 138.144 184.626V183.958C138.144 182.629 138.382 181.46 138.858 180.452C139.34 179.437 140.018 178.661 140.89 178.123C141.768 177.579 142.77 177.307 143.896 177.307C145.021 177.307 146.02 177.579 146.892 178.123C147.77 178.661 148.448 179.437 148.924 180.452C149.406 181.46 149.647 182.626 149.647 183.949V184.552ZM146.827 183.94C146.827 182.524 146.574 181.447 146.066 180.711C145.559 179.975 144.836 179.607 143.896 179.607C142.962 179.607 142.241 179.972 141.734 180.702C141.227 181.426 140.97 182.49 140.964 183.894V184.552C140.964 185.931 141.217 187.001 141.725 187.762C142.232 188.523 142.962 188.903 143.914 188.903C144.848 188.903 145.565 188.538 146.066 187.809C146.567 187.073 146.821 186.003 146.827 184.599V183.94ZM155.9 185.582L154.453 187.141V191H151.67V177.492H154.453V183.615L155.678 181.936L159.12 177.492H162.543L157.747 183.495L162.682 191H159.37L155.9 185.582Z" fill="#ECE7DD"/>
</svg>
