<svg width="187" height="374" viewBox="0 0 187 374" fill="none" xmlns="http://www.w3.org/2000/svg">
<rect x="0.285156" y="0.714111" width="186.094" height="372.294" fill="#1B1D19"/>
<path d="M62.6587 288.226H58.7739V299H57.1885V288.226H53.312V286.914H62.6587V288.226ZM73.5161 293.347C73.5161 294.531 73.3169 295.566 72.9185 296.452C72.52 297.332 71.9556 298.004 71.2251 298.469C70.4946 298.934 69.6424 299.166 68.6685 299.166C67.7166 299.166 66.8727 298.934 66.1367 298.469C65.4007 297.998 64.828 297.332 64.4185 296.468C64.0145 295.599 63.807 294.595 63.7959 293.455V292.583C63.7959 291.421 63.9979 290.395 64.4019 289.504C64.8058 288.613 65.3758 287.932 66.1118 287.462C66.8534 286.986 67.7 286.748 68.6519 286.748C69.6203 286.748 70.4725 286.983 71.2085 287.454C71.95 287.918 72.52 288.596 72.9185 289.487C73.3169 290.373 73.5161 291.405 73.5161 292.583V293.347ZM71.9307 292.567C71.9307 291.134 71.6429 290.035 71.0674 289.271C70.4919 288.502 69.6867 288.118 68.6519 288.118C67.6447 288.118 66.8506 288.502 66.2695 289.271C65.694 290.035 65.3979 291.098 65.3813 292.459V293.347C65.3813 294.736 65.6719 295.829 66.2529 296.626C66.8395 297.417 67.6447 297.813 68.6685 297.813C69.6978 297.813 70.4946 297.439 71.0591 296.692C71.6235 295.94 71.9141 294.863 71.9307 293.463V292.567ZM79.7251 296.883L83.1782 286.914H84.9214L80.439 299H79.0278L74.5537 286.914H76.2886L79.7251 296.883ZM92.5913 295.846H87.5278L86.3906 299H84.7471L89.3623 286.914H90.7568L95.3804 299H93.7451L92.5913 295.846ZM88.0093 294.534H92.1182L90.0596 288.881L88.0093 294.534ZM90.8481 283.677H92.7075L90.4829 286.117H89.2461L90.8481 283.677ZM97.0073 299V286.914H100.958C102.27 286.914 103.255 287.185 103.914 287.728C104.578 288.27 104.91 289.072 104.91 290.135C104.91 290.699 104.749 291.2 104.428 291.637C104.107 292.069 103.67 292.404 103.117 292.642C103.77 292.824 104.284 293.173 104.661 293.688C105.042 294.197 105.233 294.805 105.233 295.514C105.233 296.598 104.882 297.451 104.179 298.07C103.476 298.69 102.483 299 101.199 299H97.0073ZM98.6011 293.347V297.697H101.232C101.974 297.697 102.558 297.506 102.984 297.124C103.416 296.737 103.631 296.205 103.631 295.53C103.631 294.075 102.84 293.347 101.257 293.347H98.6011ZM98.6011 292.069H101.008C101.706 292.069 102.262 291.895 102.677 291.546C103.097 291.197 103.308 290.724 103.308 290.126C103.308 289.462 103.114 288.981 102.727 288.682C102.339 288.378 101.75 288.226 100.958 288.226H98.6011V292.069ZM107.599 299V286.914H111.55C112.862 286.914 113.847 287.185 114.505 287.728C115.169 288.27 115.501 289.072 115.501 290.135C115.501 290.699 115.341 291.2 115.02 291.637C114.699 292.069 114.262 292.404 113.708 292.642C114.361 292.824 114.876 293.173 115.252 293.688C115.634 294.197 115.825 294.805 115.825 295.514C115.825 296.598 115.474 297.451 114.771 298.07C114.068 298.69 113.075 299 111.791 299H107.599ZM109.193 293.347V297.697H111.824C112.566 297.697 113.15 297.506 113.576 297.124C114.007 296.737 114.223 296.205 114.223 295.53C114.223 294.075 113.432 293.347 111.849 293.347H109.193ZM109.193 292.069H111.6C112.297 292.069 112.854 291.895 113.269 291.546C113.689 291.197 113.899 290.724 113.899 290.126C113.899 289.462 113.706 288.981 113.318 288.682C112.931 288.378 112.342 288.226 111.55 288.226H109.193V292.069ZM129.082 295.846H124.018L122.881 299H121.237L125.853 286.914H127.247L131.871 299H130.235L129.082 295.846ZM124.5 294.534H128.608L126.55 288.881L124.5 294.534ZM29.5386 309.164H25.9111V319H22.9976V309.164H19.4365V306.914H29.5386V309.164ZM36.644 316.742H32.6514L31.9541 319H28.8413L33.2739 306.914H36.0132L40.479 319H37.3496L36.644 316.742ZM33.3486 314.493H35.9468L34.6436 310.301L33.3486 314.493ZM51.4609 319H48.564L44.2808 311.479V319H41.3672V306.914H44.2808L48.5557 314.435V306.914H51.4609V319ZM62.7832 306.914V314.825C62.7832 315.721 62.5923 316.499 62.2104 317.157C61.8286 317.81 61.2808 318.308 60.5669 318.651C59.853 318.994 59.0091 319.166 58.0352 319.166C56.5632 319.166 55.4038 318.784 54.5571 318.021C53.7104 317.257 53.2788 316.211 53.2622 314.883V306.914H56.1924V314.941C56.2256 316.264 56.8398 316.925 58.0352 316.925C58.6383 316.925 59.0949 316.759 59.4048 316.427C59.7147 316.095 59.8696 315.555 59.8696 314.808V306.914H62.7832ZM67.5229 316.759H72.5947V319H64.6094V306.914H67.5229V316.759ZM77.6499 306.914L80.3477 315.323L83.0371 306.914H86.8721V319H83.9502V316.178L84.2324 310.4L81.3105 319H79.3848L76.4546 310.392L76.7368 316.178V319H73.8232V306.914H77.6499ZM95.7456 316.742H91.7529L91.0557 319H87.9429L92.3755 306.914H95.1147L99.5806 319H96.4512L95.7456 316.742ZM92.4502 314.493H95.0483L93.7451 310.301L92.4502 314.493ZM94.127 303.677H97.082L94.7744 306.283H92.4917L94.127 303.677ZM110.562 319H107.666L103.382 311.479V319H100.469V306.914H103.382L107.657 314.435V306.914H110.562V319ZM116.597 312.16L118.822 306.914H121.968L118.075 314.659V319H115.12V314.659L111.235 306.914H114.364L116.597 312.16ZM132.833 313.206C132.833 314.385 132.615 315.428 132.178 316.335C131.741 317.243 131.118 317.943 130.31 318.436C129.508 318.923 128.592 319.166 127.562 319.166C126.533 319.166 125.62 318.931 124.823 318.46C124.026 317.985 123.404 317.307 122.956 316.427C122.513 315.547 122.28 314.537 122.258 313.397V312.716C122.258 311.532 122.474 310.489 122.906 309.587C123.343 308.679 123.965 307.979 124.773 307.487C125.587 306.994 126.511 306.748 127.546 306.748C128.57 306.748 129.483 306.992 130.285 307.479C131.088 307.965 131.71 308.66 132.153 309.562C132.601 310.458 132.828 311.488 132.833 312.65V313.206ZM129.87 312.7C129.87 311.499 129.668 310.589 129.264 309.969C128.866 309.343 128.293 309.031 127.546 309.031C126.085 309.031 125.313 310.126 125.23 312.318L125.222 313.206C125.222 314.39 125.418 315.301 125.811 315.937C126.204 316.573 126.788 316.892 127.562 316.892C128.299 316.892 128.866 316.579 129.264 315.954C129.663 315.328 129.865 314.429 129.87 313.256V312.7ZM138.445 314.501L137.25 315.812V319H134.336V306.914H137.25V312.243L138.262 310.708L140.869 306.914H144.471L140.387 312.26L144.471 319H141.018L138.445 314.501ZM150.132 314.111H147.293V319H145.691V306.914H149.692C151.054 306.914 152.1 307.224 152.83 307.844C153.566 308.464 153.934 309.366 153.934 310.55C153.934 311.302 153.729 311.958 153.32 312.517C152.916 313.076 152.351 313.494 151.626 313.771L154.465 318.9V319H152.755L150.132 314.111ZM147.293 312.808H149.742C150.534 312.808 151.162 312.603 151.626 312.193C152.097 311.784 152.332 311.236 152.332 310.55C152.332 309.803 152.108 309.23 151.66 308.832C151.217 308.433 150.575 308.231 149.734 308.226H147.293V312.808ZM162.849 315.846H157.786L156.648 319H155.005L159.62 306.914H161.015L165.638 319H164.003L162.849 315.846ZM158.267 314.534H162.376L160.317 308.881L158.267 314.534Z" fill="#ECE7DD"/>
<path d="M31.0625 89.6562H26.9531L26.1719 92H23.6797L27.9141 80.625H30.0859L34.3438 92H31.8516L31.0625 89.6562ZM27.5859 87.7578H30.4297L29 83.5L27.5859 87.7578ZM48.6406 92H46.2969L41.7344 84.5156V92H39.3906V80.625H41.7344L46.3047 88.125V80.625H48.6406V92ZM54.4297 92.1562C53.1901 92.1562 52.1797 91.776 51.3984 91.0156C50.6224 90.2552 50.2344 89.2422 50.2344 87.9766V87.7578C50.2344 86.9089 50.3984 86.151 50.7266 85.4844C51.0547 84.8125 51.5182 84.2969 52.1172 83.9375C52.7214 83.5729 53.4089 83.3906 54.1797 83.3906C55.3359 83.3906 56.2448 83.7552 56.9062 84.4844C57.5729 85.2135 57.9062 86.2474 57.9062 87.5859V88.5078H52.5234C52.5964 89.0599 52.8151 89.5026 53.1797 89.8359C53.5495 90.1693 54.0156 90.3359 54.5781 90.3359C55.4479 90.3359 56.1276 90.0208 56.6172 89.3906L57.7266 90.6328C57.388 91.112 56.9297 91.487 56.3516 91.7578C55.7734 92.0234 55.1328 92.1562 54.4297 92.1562ZM54.1719 85.2188C53.724 85.2188 53.3594 85.3698 53.0781 85.6719C52.8021 85.974 52.625 86.4062 52.5469 86.9688H55.6875V86.7891C55.6771 86.2891 55.5417 85.9036 55.2812 85.6328C55.0208 85.3568 54.651 85.2188 54.1719 85.2188ZM61.3125 83.5469L61.3828 84.4922C61.9818 83.7578 62.7917 83.3906 63.8125 83.3906C64.901 83.3906 65.6484 83.8203 66.0547 84.6797C66.6484 83.8203 67.4948 83.3906 68.5938 83.3906C69.5104 83.3906 70.1927 83.6589 70.6406 84.1953C71.0885 84.7266 71.3125 85.5286 71.3125 86.6016V92H69.0469V86.6094C69.0469 86.1302 68.9531 85.7812 68.7656 85.5625C68.5781 85.3385 68.2474 85.2266 67.7734 85.2266C67.0964 85.2266 66.6276 85.5495 66.3672 86.1953L66.375 92H64.1172V86.6172C64.1172 86.1276 64.0208 85.7734 63.8281 85.5547C63.6354 85.3359 63.3073 85.2266 62.8438 85.2266C62.2031 85.2266 61.7396 85.4922 61.4531 86.0234V92H59.1953V83.5469H61.3125ZM75.6484 90.1797H79.7812V92H72.7656V90.625L76.7422 85.375H72.8828V83.5469H79.6562V84.8828L75.6484 90.1797ZM84.9609 92.1562C83.7214 92.1562 82.7109 91.776 81.9297 91.0156C81.1536 90.2552 80.7656 89.2422 80.7656 87.9766V87.7578C80.7656 86.9089 80.9297 86.151 81.2578 85.4844C81.5859 84.8125 82.0495 84.2969 82.6484 83.9375C83.2526 83.5729 83.9401 83.3906 84.7109 83.3906C85.8672 83.3906 86.776 83.7552 87.4375 84.4844C88.1042 85.2135 88.4375 86.2474 88.4375 87.5859V88.5078H83.0547C83.1276 89.0599 83.3464 89.5026 83.7109 89.8359C84.0807 90.1693 84.5469 90.3359 85.1094 90.3359C85.9792 90.3359 86.6589 90.0208 87.1484 89.3906L88.2578 90.6328C87.9193 91.112 87.4609 91.487 86.8828 91.7578C86.3047 92.0234 85.6641 92.1562 84.9609 92.1562ZM84.7031 85.2188C84.2552 85.2188 83.8906 85.3698 83.6094 85.6719C83.3333 85.974 83.1562 86.4062 83.0781 86.9688H86.2188V86.7891C86.2083 86.2891 86.0729 85.9036 85.8125 85.6328C85.5521 85.3568 85.1823 85.2188 84.7031 85.2188ZM92.4297 81.4688V83.5469H93.875V85.2031H92.4297V89.4219C92.4297 89.7344 92.4896 89.9583 92.6094 90.0938C92.7292 90.2292 92.9583 90.2969 93.2969 90.2969C93.5469 90.2969 93.7682 90.2786 93.9609 90.2422V91.9531C93.5182 92.0885 93.0625 92.1562 92.5938 92.1562C91.0104 92.1562 90.2031 91.3568 90.1719 89.7578V85.2031H88.9375V83.5469H90.1719V81.4688H92.4297ZM99.7109 89.6641C99.7109 89.388 99.5729 89.1719 99.2969 89.0156C99.026 88.8542 98.5885 88.7109 97.9844 88.5859C95.974 88.1641 94.9688 87.3099 94.9688 86.0234C94.9688 85.2734 95.2786 84.6484 95.8984 84.1484C96.5234 83.6432 97.3385 83.3906 98.3438 83.3906C99.4167 83.3906 100.273 83.6432 100.914 84.1484C101.56 84.6536 101.883 85.3099 101.883 86.1172H99.625C99.625 85.7943 99.5208 85.5286 99.3125 85.3203C99.1042 85.1068 98.7786 85 98.3359 85C97.9557 85 97.6615 85.0859 97.4531 85.2578C97.2448 85.4297 97.1406 85.6484 97.1406 85.9141C97.1406 86.1641 97.2578 86.3672 97.4922 86.5234C97.7318 86.6745 98.1328 86.8073 98.6953 86.9219C99.2578 87.0312 99.7318 87.1562 100.117 87.2969C101.31 87.7344 101.906 88.4922 101.906 89.5703C101.906 90.3411 101.576 90.9661 100.914 91.4453C100.253 91.9193 99.3984 92.1562 98.3516 92.1562C97.6432 92.1562 97.013 92.0312 96.4609 91.7812C95.9141 91.526 95.4844 91.1797 95.1719 90.7422C94.8594 90.2995 94.7031 89.8229 94.7031 89.3125H96.8438C96.8646 89.7135 97.013 90.0208 97.2891 90.2344C97.5651 90.4479 97.9349 90.5547 98.3984 90.5547C98.8307 90.5547 99.1562 90.474 99.375 90.3125C99.599 90.1458 99.7109 89.9297 99.7109 89.6641ZM106.07 81.4688V83.5469H107.516V85.2031H106.07V89.4219C106.07 89.7344 106.13 89.9583 106.25 90.0938C106.37 90.2292 106.599 90.2969 106.938 90.2969C107.188 90.2969 107.409 90.2786 107.602 90.2422V91.9531C107.159 92.0885 106.703 92.1562 106.234 92.1562C104.651 92.1562 103.844 91.3568 103.812 89.7578V85.2031H102.578V83.5469H103.812V81.4688H106.07ZM113.523 85.6641C113.216 85.6224 112.945 85.6016 112.711 85.6016C111.857 85.6016 111.297 85.8906 111.031 86.4688V92H108.773V83.5469H110.906L110.969 84.5547C111.422 83.7786 112.049 83.3906 112.852 83.3906C113.102 83.3906 113.336 83.4245 113.555 83.4922L113.523 85.6641ZM119.281 92C119.177 91.7969 119.102 91.5443 119.055 91.2422C118.508 91.8516 117.797 92.1562 116.922 92.1562C116.094 92.1562 115.406 91.9167 114.859 91.4375C114.318 90.9583 114.047 90.3542 114.047 89.625C114.047 88.7292 114.378 88.0417 115.039 87.5625C115.706 87.0833 116.667 86.8411 117.922 86.8359H118.961V86.3516C118.961 85.9609 118.859 85.6484 118.656 85.4141C118.458 85.1797 118.143 85.0625 117.711 85.0625C117.331 85.0625 117.031 85.1536 116.812 85.3359C116.599 85.5182 116.492 85.7682 116.492 86.0859H114.234C114.234 85.5964 114.385 85.1432 114.688 84.7266C114.99 84.3099 115.417 83.9844 115.969 83.75C116.521 83.5104 117.141 83.3906 117.828 83.3906C118.87 83.3906 119.695 83.6536 120.305 84.1797C120.919 84.7005 121.227 85.4349 121.227 86.3828V90.0469C121.232 90.849 121.344 91.4557 121.562 91.8672V92H119.281ZM117.414 90.4297C117.747 90.4297 118.055 90.3568 118.336 90.2109C118.617 90.0599 118.826 89.8594 118.961 89.6094V88.1562H118.117C116.987 88.1562 116.385 88.5469 116.312 89.3281L116.305 89.4609C116.305 89.7422 116.404 89.974 116.602 90.1562C116.799 90.3385 117.07 90.4297 117.414 90.4297ZM125.664 81.4688V83.5469H127.109V85.2031H125.664V89.4219C125.664 89.7344 125.724 89.9583 125.844 90.0938C125.964 90.2292 126.193 90.2969 126.531 90.2969C126.781 90.2969 127.003 90.2786 127.195 90.2422V91.9531C126.753 92.0885 126.297 92.1562 125.828 92.1562C124.245 92.1562 123.438 91.3568 123.406 89.7578V85.2031H122.172V83.5469H123.406V81.4688H125.664ZM132.258 92.1562C131.018 92.1562 130.008 91.776 129.227 91.0156C128.451 90.2552 128.062 89.2422 128.062 87.9766V87.7578C128.062 86.9089 128.227 86.151 128.555 85.4844C128.883 84.8125 129.346 84.2969 129.945 83.9375C130.549 83.5729 131.237 83.3906 132.008 83.3906C133.164 83.3906 134.073 83.7552 134.734 84.4844C135.401 85.2135 135.734 86.2474 135.734 87.5859V88.5078H130.352C130.424 89.0599 130.643 89.5026 131.008 89.8359C131.378 90.1693 131.844 90.3359 132.406 90.3359C133.276 90.3359 133.956 90.0208 134.445 89.3906L135.555 90.6328C135.216 91.112 134.758 91.487 134.18 91.7578C133.602 92.0234 132.961 92.1562 132.258 92.1562ZM132 85.2188C131.552 85.2188 131.188 85.3698 130.906 85.6719C130.63 85.974 130.453 86.4062 130.375 86.9688H133.516V86.7891C133.505 86.2891 133.37 85.9036 133.109 85.6328C132.849 85.3568 132.479 85.2188 132 85.2188ZM132.203 80H134.664L132.5 82.4219H130.664L132.203 80ZM136.695 87.7109C136.695 86.4141 137.003 85.3698 137.617 84.5781C138.237 83.7865 139.07 83.3906 140.117 83.3906C141.044 83.3906 141.766 83.7083 142.281 84.3438L142.375 83.5469H144.422V91.7188C144.422 92.4583 144.253 93.1016 143.914 93.6484C143.581 94.1953 143.109 94.612 142.5 94.8984C141.891 95.1849 141.177 95.3281 140.359 95.3281C139.74 95.3281 139.135 95.2031 138.547 94.9531C137.958 94.7083 137.513 94.3906 137.211 94L138.211 92.625C138.773 93.2552 139.456 93.5703 140.258 93.5703C140.857 93.5703 141.323 93.4089 141.656 93.0859C141.99 92.7682 142.156 92.3151 142.156 91.7266V91.2734C141.635 91.862 140.951 92.1562 140.102 92.1562C139.086 92.1562 138.263 91.7604 137.633 90.9688C137.008 90.1719 136.695 89.1172 136.695 87.8047V87.7109ZM138.953 87.875C138.953 88.6406 139.107 89.2422 139.414 89.6797C139.721 90.112 140.143 90.3281 140.68 90.3281C141.367 90.3281 141.859 90.0703 142.156 89.5547V86C141.854 85.4844 141.367 85.2266 140.695 85.2266C140.154 85.2266 139.727 85.4479 139.414 85.8906C139.107 86.3333 138.953 86.9948 138.953 87.875ZM148.547 92H146.281V83.5469H148.547V92ZM146.148 81.3594C146.148 81.0208 146.26 80.7422 146.484 80.5234C146.714 80.3047 147.023 80.1953 147.414 80.1953C147.799 80.1953 148.107 80.3047 148.336 80.5234C148.565 80.7422 148.68 81.0208 148.68 81.3594C148.68 81.7031 148.562 81.9844 148.328 82.2031C148.099 82.4219 147.794 82.5312 147.414 82.5312C147.034 82.5312 146.727 82.4219 146.492 82.2031C146.263 81.9844 146.148 81.7031 146.148 81.3594ZM155.312 92C155.208 91.7969 155.133 91.5443 155.086 91.2422C154.539 91.8516 153.828 92.1562 152.953 92.1562C152.125 92.1562 151.438 91.9167 150.891 91.4375C150.349 90.9583 150.078 90.3542 150.078 89.625C150.078 88.7292 150.409 88.0417 151.07 87.5625C151.737 87.0833 152.698 86.8411 153.953 86.8359H154.992V86.3516C154.992 85.9609 154.891 85.6484 154.688 85.4141C154.49 85.1797 154.174 85.0625 153.742 85.0625C153.362 85.0625 153.062 85.1536 152.844 85.3359C152.63 85.5182 152.523 85.7682 152.523 86.0859H150.266C150.266 85.5964 150.417 85.1432 150.719 84.7266C151.021 84.3099 151.448 83.9844 152 83.75C152.552 83.5104 153.172 83.3906 153.859 83.3906C154.901 83.3906 155.727 83.6536 156.336 84.1797C156.951 84.7005 157.258 85.4349 157.258 86.3828V90.0469C157.263 90.849 157.375 91.4557 157.594 91.8672V92H155.312ZM153.445 90.4297C153.779 90.4297 154.086 90.3568 154.367 90.2109C154.648 90.0599 154.857 89.8594 154.992 89.6094V88.1562H154.148C153.018 88.1562 152.417 88.5469 152.344 89.3281L152.336 89.4609C152.336 89.7422 152.435 89.974 152.633 90.1562C152.831 90.3385 153.102 90.4297 153.445 90.4297ZM161.375 92H159.109V83.5469H161.375V92ZM158.977 81.3594C158.977 81.0208 159.089 80.7422 159.312 80.5234C159.542 80.3047 159.852 80.1953 160.242 80.1953C160.628 80.1953 160.935 80.3047 161.164 80.5234C161.393 80.7422 161.508 81.0208 161.508 81.3594C161.508 81.7031 161.391 81.9844 161.156 82.2031C160.927 82.4219 160.622 82.5312 160.242 82.5312C159.862 82.5312 159.555 82.4219 159.32 82.2031C159.091 81.9844 158.977 81.7031 158.977 81.3594ZM49.3359 106.438L48.1172 107.75V111H45.7734V99.625H48.1172V104.781L49.1484 103.367L52.0469 99.625H54.9297L50.8906 104.68L55.0469 111H52.2578L49.3359 106.438ZM60.6562 110.141C60.099 110.818 59.3281 111.156 58.3438 111.156C57.4375 111.156 56.7448 110.896 56.2656 110.375C55.7917 109.854 55.5495 109.091 55.5391 108.086V102.547H57.7969V108.008C57.7969 108.888 58.1979 109.328 59 109.328C59.7656 109.328 60.2917 109.062 60.5781 108.531V102.547H62.8438V111H60.7188L60.6562 110.141ZM67.25 100.469V102.547H68.6953V104.203H67.25V108.422C67.25 108.734 67.3099 108.958 67.4297 109.094C67.5495 109.229 67.7786 109.297 68.1172 109.297C68.3672 109.297 68.5885 109.279 68.7812 109.242V110.953C68.3385 111.089 67.8828 111.156 67.4141 111.156C65.8307 111.156 65.0234 110.357 64.9922 108.758V104.203H63.7578V102.547H64.9922V100.469H67.25ZM74.8516 111C74.7474 110.797 74.6719 110.544 74.625 110.242C74.0781 110.852 73.3672 111.156 72.4922 111.156C71.6641 111.156 70.9766 110.917 70.4297 110.438C69.888 109.958 69.6172 109.354 69.6172 108.625C69.6172 107.729 69.9479 107.042 70.6094 106.562C71.276 106.083 72.237 105.841 73.4922 105.836H74.5312V105.352C74.5312 104.961 74.4297 104.648 74.2266 104.414C74.0286 104.18 73.7135 104.062 73.2812 104.062C72.901 104.062 72.6016 104.154 72.3828 104.336C72.1693 104.518 72.0625 104.768 72.0625 105.086H69.8047C69.8047 104.596 69.9557 104.143 70.2578 103.727C70.5599 103.31 70.987 102.984 71.5391 102.75C72.0911 102.51 72.7109 102.391 73.3984 102.391C74.4401 102.391 75.2656 102.654 75.875 103.18C76.4896 103.701 76.7969 104.435 76.7969 105.383V109.047C76.8021 109.849 76.9141 110.456 77.1328 110.867V111H74.8516ZM72.9844 109.43C73.3177 109.43 73.625 109.357 73.9062 109.211C74.1875 109.06 74.3958 108.859 74.5312 108.609V107.156H73.6875C72.5573 107.156 71.9557 107.547 71.8828 108.328L71.875 108.461C71.875 108.742 71.974 108.974 72.1719 109.156C72.3698 109.339 72.6406 109.43 72.9844 109.43ZM81.2344 100.469V102.547H82.6797V104.203H81.2344V108.422C81.2344 108.734 81.2943 108.958 81.4141 109.094C81.5339 109.229 81.763 109.297 82.1016 109.297C82.3516 109.297 82.5729 109.279 82.7656 109.242V110.953C82.3229 111.089 81.8672 111.156 81.3984 111.156C79.8151 111.156 79.0078 110.357 78.9766 108.758V104.203H77.7422V102.547H78.9766V100.469H81.2344ZM83.3516 106.695C83.3516 105.857 83.513 105.109 83.8359 104.453C84.1589 103.797 84.6224 103.289 85.2266 102.93C85.8359 102.57 86.5417 102.391 87.3438 102.391C88.4844 102.391 89.4141 102.74 90.1328 103.438C90.8568 104.135 91.2604 105.083 91.3438 106.281L91.3594 106.859C91.3594 108.156 90.9974 109.198 90.2734 109.984C89.5495 110.766 88.5781 111.156 87.3594 111.156C86.1406 111.156 85.1667 110.766 84.4375 109.984C83.7135 109.203 83.3516 108.141 83.3516 106.797V106.695ZM85.6094 106.859C85.6094 107.661 85.7604 108.276 86.0625 108.703C86.3646 109.125 86.7969 109.336 87.3594 109.336C87.9062 109.336 88.3333 109.128 88.6406 108.711C88.9479 108.289 89.1016 107.617 89.1016 106.695C89.1016 105.909 88.9479 105.299 88.6406 104.867C88.3333 104.435 87.901 104.219 87.3438 104.219C86.7917 104.219 86.3646 104.435 86.0625 104.867C85.7604 105.294 85.6094 105.958 85.6094 106.859ZM87.7891 99H90.25L88.0859 101.422H86.25L87.7891 99ZM95.1328 111H92.8672V102.547H95.1328V111ZM92.7344 100.359C92.7344 100.021 92.8464 99.7422 93.0703 99.5234C93.2995 99.3047 93.6094 99.1953 94 99.1953C94.3854 99.1953 94.6927 99.3047 94.9219 99.5234C95.151 99.7422 95.2656 100.021 95.2656 100.359C95.2656 100.703 95.1484 100.984 94.9141 101.203C94.6849 101.422 94.3802 101.531 94 101.531C93.6198 101.531 93.3125 101.422 93.0781 101.203C92.849 100.984 92.7344 100.703 92.7344 100.359ZM99.0781 102.547L99.1484 103.523C99.7526 102.768 100.562 102.391 101.578 102.391C102.474 102.391 103.141 102.654 103.578 103.18C104.016 103.706 104.24 104.492 104.25 105.539V111H101.992V105.594C101.992 105.115 101.888 104.768 101.68 104.555C101.471 104.336 101.125 104.227 100.641 104.227C100.005 104.227 99.5286 104.497 99.2109 105.039V111H96.9531V102.547H99.0781ZM108.672 100.469V102.547H110.117V104.203H108.672V108.422C108.672 108.734 108.732 108.958 108.852 109.094C108.971 109.229 109.201 109.297 109.539 109.297C109.789 109.297 110.01 109.279 110.203 109.242V110.953C109.76 111.089 109.305 111.156 108.836 111.156C107.253 111.156 106.445 110.357 106.414 108.758V104.203H105.18V102.547H106.414V100.469H108.672ZM115.266 111.156C114.026 111.156 113.016 110.776 112.234 110.016C111.458 109.255 111.07 108.242 111.07 106.977V106.758C111.07 105.909 111.234 105.151 111.562 104.484C111.891 103.812 112.354 103.297 112.953 102.938C113.557 102.573 114.245 102.391 115.016 102.391C116.172 102.391 117.081 102.755 117.742 103.484C118.409 104.214 118.742 105.247 118.742 106.586V107.508H113.359C113.432 108.06 113.651 108.503 114.016 108.836C114.385 109.169 114.852 109.336 115.414 109.336C116.284 109.336 116.964 109.021 117.453 108.391L118.562 109.633C118.224 110.112 117.766 110.487 117.188 110.758C116.609 111.023 115.969 111.156 115.266 111.156ZM115.008 104.219C114.56 104.219 114.195 104.37 113.914 104.672C113.638 104.974 113.461 105.406 113.383 105.969H116.523V105.789C116.513 105.289 116.378 104.904 116.117 104.633C115.857 104.357 115.487 104.219 115.008 104.219ZM115.211 99H117.672L115.508 101.422H113.672L115.211 99ZM122.625 109.18H126.758V111H119.742V109.625L123.719 104.375H119.859V102.547H126.633V103.883L122.625 109.18ZM131.938 111.156C130.698 111.156 129.688 110.776 128.906 110.016C128.13 109.255 127.742 108.242 127.742 106.977V106.758C127.742 105.909 127.906 105.151 128.234 104.484C128.562 103.812 129.026 103.297 129.625 102.938C130.229 102.573 130.917 102.391 131.688 102.391C132.844 102.391 133.753 102.755 134.414 103.484C135.081 104.214 135.414 105.247 135.414 106.586V107.508H130.031C130.104 108.06 130.323 108.503 130.688 108.836C131.057 109.169 131.523 109.336 132.086 109.336C132.956 109.336 133.635 109.021 134.125 108.391L135.234 109.633C134.896 110.112 134.438 110.487 133.859 110.758C133.281 111.023 132.641 111.156 131.938 111.156ZM131.68 104.219C131.232 104.219 130.867 104.37 130.586 104.672C130.31 104.974 130.133 105.406 130.055 105.969H133.195V105.789C133.185 105.289 133.049 104.904 132.789 104.633C132.529 104.357 132.159 104.219 131.68 104.219ZM139.406 100.469V102.547H140.852V104.203H139.406V108.422C139.406 108.734 139.466 108.958 139.586 109.094C139.706 109.229 139.935 109.297 140.273 109.297C140.523 109.297 140.745 109.279 140.938 109.242V110.953C140.495 111.089 140.039 111.156 139.57 111.156C137.987 111.156 137.18 110.357 137.148 108.758V104.203H135.914V102.547H137.148V100.469H139.406ZM33.5625 121.547L33.6328 122.492C34.2318 121.758 35.0417 121.391 36.0625 121.391C37.151 121.391 37.8984 121.82 38.3047 122.68C38.8984 121.82 39.7448 121.391 40.8438 121.391C41.7604 121.391 42.4427 121.659 42.8906 122.195C43.3385 122.727 43.5625 123.529 43.5625 124.602V130H41.2969V124.609C41.2969 124.13 41.2031 123.781 41.0156 123.562C40.8281 123.339 40.4974 123.227 40.0234 123.227C39.3464 123.227 38.8776 123.549 38.6172 124.195L38.625 130H36.3672V124.617C36.3672 124.128 36.2708 123.773 36.0781 123.555C35.8854 123.336 35.5573 123.227 35.0938 123.227C34.4531 123.227 33.9896 123.492 33.7031 124.023V130H31.4453V121.547H33.5625ZM50.3672 129.141C49.8099 129.818 49.0391 130.156 48.0547 130.156C47.1484 130.156 46.4557 129.896 45.9766 129.375C45.5026 128.854 45.2604 128.091 45.25 127.086V121.547H47.5078V127.008C47.5078 127.888 47.9089 128.328 48.7109 128.328C49.4766 128.328 50.0026 128.062 50.2891 127.531V121.547H52.5547V130H50.4297L50.3672 129.141ZM56.3359 121.547L56.4062 122.523C57.0104 121.768 57.8203 121.391 58.8359 121.391C59.7318 121.391 60.3984 121.654 60.8359 122.18C61.2734 122.706 61.4974 123.492 61.5078 124.539V130H59.25V124.594C59.25 124.115 59.1458 123.768 58.9375 123.555C58.7292 123.336 58.3828 123.227 57.8984 123.227C57.263 123.227 56.7865 123.497 56.4688 124.039V130H54.2109V121.547H56.3359ZM66.2969 126.609L65.4844 127.422V130H63.2266V118H65.4844V124.648L65.9219 124.086L68.0859 121.547H70.7969L67.7422 125.07L71.0625 130H68.4688L66.2969 126.609ZM76.6719 130C76.5677 129.797 76.4922 129.544 76.4453 129.242C75.8984 129.852 75.1875 130.156 74.3125 130.156C73.4844 130.156 72.7969 129.917 72.25 129.438C71.7083 128.958 71.4375 128.354 71.4375 127.625C71.4375 126.729 71.7682 126.042 72.4297 125.562C73.0964 125.083 74.0573 124.841 75.3125 124.836H76.3516V124.352C76.3516 123.961 76.25 123.648 76.0469 123.414C75.849 123.18 75.5339 123.062 75.1016 123.062C74.7214 123.062 74.4219 123.154 74.2031 123.336C73.9896 123.518 73.8828 123.768 73.8828 124.086H71.625C71.625 123.596 71.776 123.143 72.0781 122.727C72.3802 122.31 72.8073 121.984 73.3594 121.75C73.9115 121.51 74.5312 121.391 75.2188 121.391C76.2604 121.391 77.0859 121.654 77.6953 122.18C78.3099 122.701 78.6172 123.435 78.6172 124.383V128.047C78.6224 128.849 78.7344 129.456 78.9531 129.867V130H76.6719ZM74.8047 128.43C75.138 128.43 75.4453 128.357 75.7266 128.211C76.0078 128.06 76.2161 127.859 76.3516 127.609V126.156H75.5078C74.3776 126.156 73.776 126.547 73.7031 127.328L73.6953 127.461C73.6953 127.742 73.7943 127.974 73.9922 128.156C74.1901 128.339 74.4609 128.43 74.8047 128.43ZM83.0547 119.469V121.547H84.5V123.203H83.0547V127.422C83.0547 127.734 83.1146 127.958 83.2344 128.094C83.3542 128.229 83.5833 128.297 83.9219 128.297C84.1719 128.297 84.3932 128.279 84.5859 128.242V129.953C84.1432 130.089 83.6875 130.156 83.2188 130.156C81.6354 130.156 80.8281 129.357 80.7969 127.758V123.203H79.5625V121.547H80.7969V119.469H83.0547ZM90.6562 130C90.5521 129.797 90.4766 129.544 90.4297 129.242C89.8828 129.852 89.1719 130.156 88.2969 130.156C87.4688 130.156 86.7812 129.917 86.2344 129.438C85.6927 128.958 85.4219 128.354 85.4219 127.625C85.4219 126.729 85.7526 126.042 86.4141 125.562C87.0807 125.083 88.0417 124.841 89.2969 124.836H90.3359V124.352C90.3359 123.961 90.2344 123.648 90.0312 123.414C89.8333 123.18 89.5182 123.062 89.0859 123.062C88.7057 123.062 88.4062 123.154 88.1875 123.336C87.974 123.518 87.8672 123.768 87.8672 124.086H85.6094C85.6094 123.596 85.7604 123.143 86.0625 122.727C86.3646 122.31 86.7917 121.984 87.3438 121.75C87.8958 121.51 88.5156 121.391 89.2031 121.391C90.2448 121.391 91.0703 121.654 91.6797 122.18C92.2943 122.701 92.6016 123.435 92.6016 124.383V128.047C92.6068 128.849 92.7188 129.456 92.9375 129.867V130H90.6562ZM88.7891 128.43C89.1224 128.43 89.4297 128.357 89.7109 128.211C89.9922 128.06 90.2005 127.859 90.3359 127.609V126.156H89.4922C88.362 126.156 87.7604 126.547 87.6875 127.328L87.6797 127.461C87.6797 127.742 87.7786 127.974 87.9766 128.156C88.1745 128.339 88.4453 128.43 88.7891 128.43ZM89.6484 118H92.1094L89.9453 120.422H88.1094L89.6484 118ZM99.0859 123.664C98.7786 123.622 98.5078 123.602 98.2734 123.602C97.4193 123.602 96.8594 123.891 96.5938 124.469V130H94.3359V121.547H96.4688L96.5312 122.555C96.9844 121.779 97.612 121.391 98.4141 121.391C98.6641 121.391 98.8984 121.424 99.1172 121.492L99.0859 123.664ZM104.758 127.664C104.758 127.388 104.62 127.172 104.344 127.016C104.073 126.854 103.635 126.711 103.031 126.586C101.021 126.164 100.016 125.31 100.016 124.023C100.016 123.273 100.326 122.648 100.945 122.148C101.57 121.643 102.385 121.391 103.391 121.391C104.464 121.391 105.32 121.643 105.961 122.148C106.607 122.654 106.93 123.31 106.93 124.117H104.672C104.672 123.794 104.568 123.529 104.359 123.32C104.151 123.107 103.826 123 103.383 123C103.003 123 102.708 123.086 102.5 123.258C102.292 123.43 102.188 123.648 102.188 123.914C102.188 124.164 102.305 124.367 102.539 124.523C102.779 124.674 103.18 124.807 103.742 124.922C104.305 125.031 104.779 125.156 105.164 125.297C106.357 125.734 106.953 126.492 106.953 127.57C106.953 128.341 106.622 128.966 105.961 129.445C105.299 129.919 104.445 130.156 103.398 130.156C102.69 130.156 102.06 130.031 101.508 129.781C100.961 129.526 100.531 129.18 100.219 128.742C99.9062 128.299 99.75 127.823 99.75 127.312H101.891C101.911 127.714 102.06 128.021 102.336 128.234C102.612 128.448 102.982 128.555 103.445 128.555C103.878 128.555 104.203 128.474 104.422 128.312C104.646 128.146 104.758 127.93 104.758 127.664ZM113.312 130C113.208 129.797 113.133 129.544 113.086 129.242C112.539 129.852 111.828 130.156 110.953 130.156C110.125 130.156 109.438 129.917 108.891 129.438C108.349 128.958 108.078 128.354 108.078 127.625C108.078 126.729 108.409 126.042 109.07 125.562C109.737 125.083 110.698 124.841 111.953 124.836H112.992V124.352C112.992 123.961 112.891 123.648 112.688 123.414C112.49 123.18 112.174 123.062 111.742 123.062C111.362 123.062 111.062 123.154 110.844 123.336C110.63 123.518 110.523 123.768 110.523 124.086H108.266C108.266 123.596 108.417 123.143 108.719 122.727C109.021 122.31 109.448 121.984 110 121.75C110.552 121.51 111.172 121.391 111.859 121.391C112.901 121.391 113.727 121.654 114.336 122.18C114.951 122.701 115.258 123.435 115.258 124.383V128.047C115.263 128.849 115.375 129.456 115.594 129.867V130H113.312ZM111.445 128.43C111.779 128.43 112.086 128.357 112.367 128.211C112.648 128.06 112.857 127.859 112.992 127.609V126.156H112.148C111.018 126.156 110.417 126.547 110.344 127.328L110.336 127.461C110.336 127.742 110.435 127.974 110.633 128.156C110.831 128.339 111.102 128.43 111.445 128.43ZM119.375 130H117.109V121.547H119.375V130ZM116.977 119.359C116.977 119.021 117.089 118.742 117.312 118.523C117.542 118.305 117.852 118.195 118.242 118.195C118.628 118.195 118.935 118.305 119.164 118.523C119.393 118.742 119.508 119.021 119.508 119.359C119.508 119.703 119.391 119.984 119.156 120.203C118.927 120.422 118.622 120.531 118.242 120.531C117.862 120.531 117.555 120.422 117.32 120.203C117.091 119.984 116.977 119.703 116.977 119.359ZM130.125 130C130.021 129.797 129.945 129.544 129.898 129.242C129.352 129.852 128.641 130.156 127.766 130.156C126.938 130.156 126.25 129.917 125.703 129.438C125.161 128.958 124.891 128.354 124.891 127.625C124.891 126.729 125.221 126.042 125.883 125.562C126.549 125.083 127.51 124.841 128.766 124.836H129.805V124.352C129.805 123.961 129.703 123.648 129.5 123.414C129.302 123.18 128.987 123.062 128.555 123.062C128.174 123.062 127.875 123.154 127.656 123.336C127.443 123.518 127.336 123.768 127.336 124.086H125.078C125.078 123.596 125.229 123.143 125.531 122.727C125.833 122.31 126.26 121.984 126.812 121.75C127.365 121.51 127.984 121.391 128.672 121.391C129.714 121.391 130.539 121.654 131.148 122.18C131.763 122.701 132.07 123.435 132.07 124.383V128.047C132.076 128.849 132.188 129.456 132.406 129.867V130H130.125ZM128.258 128.43C128.591 128.43 128.898 128.357 129.18 128.211C129.461 128.06 129.669 127.859 129.805 127.609V126.156H128.961C127.831 126.156 127.229 126.547 127.156 127.328L127.148 127.461C127.148 127.742 127.247 127.974 127.445 128.156C127.643 128.339 127.914 128.43 128.258 128.43ZM129.117 118H131.578L129.414 120.422H127.578L129.117 118ZM136.188 130H133.922V118H136.188V130ZM140.758 119.469V121.547H142.203V123.203H140.758V127.422C140.758 127.734 140.818 127.958 140.938 128.094C141.057 128.229 141.286 128.297 141.625 128.297C141.875 128.297 142.096 128.279 142.289 128.242V129.953C141.846 130.089 141.391 130.156 140.922 130.156C139.339 130.156 138.531 129.357 138.5 127.758V123.203H137.266V121.547H138.5V119.469H140.758ZM148.359 130C148.255 129.797 148.18 129.544 148.133 129.242C147.586 129.852 146.875 130.156 146 130.156C145.172 130.156 144.484 129.917 143.938 129.438C143.396 128.958 143.125 128.354 143.125 127.625C143.125 126.729 143.456 126.042 144.117 125.562C144.784 125.083 145.745 124.841 147 124.836H148.039V124.352C148.039 123.961 147.938 123.648 147.734 123.414C147.536 123.18 147.221 123.062 146.789 123.062C146.409 123.062 146.109 123.154 145.891 123.336C145.677 123.518 145.57 123.768 145.57 124.086H143.312C143.312 123.596 143.464 123.143 143.766 122.727C144.068 122.31 144.495 121.984 145.047 121.75C145.599 121.51 146.219 121.391 146.906 121.391C147.948 121.391 148.773 121.654 149.383 122.18C149.997 122.701 150.305 123.435 150.305 124.383V128.047C150.31 128.849 150.422 129.456 150.641 129.867V130H148.359ZM146.492 128.43C146.826 128.43 147.133 128.357 147.414 128.211C147.695 128.06 147.904 127.859 148.039 127.609V126.156H147.195C146.065 126.156 145.464 126.547 145.391 127.328L145.383 127.461C145.383 127.742 145.482 127.974 145.68 128.156C145.878 128.339 146.148 128.43 146.492 128.43ZM154.422 130H152.156V118H154.422V130ZM15.0781 145.609L14.2656 146.422V149H12.0078V137H14.2656V143.648L14.7031 143.086L16.8672 140.547H19.5781L16.5234 144.07L19.8438 149H17.25L15.0781 145.609ZM24.2891 149.156C23.0495 149.156 22.0391 148.776 21.2578 148.016C20.4818 147.255 20.0938 146.242 20.0938 144.977V144.758C20.0938 143.909 20.2578 143.151 20.5859 142.484C20.9141 141.812 21.3776 141.297 21.9766 140.938C22.5807 140.573 23.2682 140.391 24.0391 140.391C25.1953 140.391 26.1042 140.755 26.7656 141.484C27.4323 142.214 27.7656 143.247 27.7656 144.586V145.508H22.3828C22.4557 146.06 22.6745 146.503 23.0391 146.836C23.4089 147.169 23.875 147.336 24.4375 147.336C25.3073 147.336 25.987 147.021 26.4766 146.391L27.5859 147.633C27.2474 148.112 26.7891 148.487 26.2109 148.758C25.6328 149.023 24.9922 149.156 24.2891 149.156ZM24.0312 142.219C23.5833 142.219 23.2188 142.37 22.9375 142.672C22.6615 142.974 22.4844 143.406 22.4062 143.969H25.5469V143.789C25.5365 143.289 25.401 142.904 25.1406 142.633C24.8802 142.357 24.5104 142.219 24.0312 142.219ZM24.2344 137H26.6953L24.5312 139.422H22.6953L24.2344 137ZM33.6328 146.664C33.6328 146.388 33.4948 146.172 33.2188 146.016C32.9479 145.854 32.5104 145.711 31.9062 145.586C29.8958 145.164 28.8906 144.31 28.8906 143.023C28.8906 142.273 29.2005 141.648 29.8203 141.148C30.4453 140.643 31.2604 140.391 32.2656 140.391C33.3385 140.391 34.1953 140.643 34.8359 141.148C35.4818 141.654 35.8047 142.31 35.8047 143.117H33.5469C33.5469 142.794 33.4427 142.529 33.2344 142.32C33.026 142.107 32.7005 142 32.2578 142C31.8776 142 31.5833 142.086 31.375 142.258C31.1667 142.43 31.0625 142.648 31.0625 142.914C31.0625 143.164 31.1797 143.367 31.4141 143.523C31.6536 143.674 32.0547 143.807 32.6172 143.922C33.1797 144.031 33.6536 144.156 34.0391 144.297C35.2318 144.734 35.8281 145.492 35.8281 146.57C35.8281 147.341 35.4974 147.966 34.8359 148.445C34.1745 148.919 33.3203 149.156 32.2734 149.156C31.5651 149.156 30.9349 149.031 30.3828 148.781C29.8359 148.526 29.4062 148.18 29.0938 147.742C28.7812 147.299 28.625 146.823 28.625 146.312H30.7656C30.7865 146.714 30.9349 147.021 31.2109 147.234C31.487 147.448 31.8568 147.555 32.3203 147.555C32.7526 147.555 33.0781 147.474 33.2969 147.312C33.5208 147.146 33.6328 146.93 33.6328 146.664ZM39.8828 147.18H44.0156V149H37V147.625L40.9766 142.375H37.1172V140.547H43.8906V141.883L39.8828 147.18ZM47.8672 149H45.6094V140.547H47.8672V149ZM47.2031 137.117H49.6641L47.5 139.539H45.6641L47.2031 137.117ZM52.5234 138.469V140.547H53.9688V142.203H52.5234V146.422C52.5234 146.734 52.5833 146.958 52.7031 147.094C52.8229 147.229 53.0521 147.297 53.3906 147.297C53.6406 147.297 53.862 147.279 54.0547 147.242V148.953C53.612 149.089 53.1562 149.156 52.6875 149.156C51.1042 149.156 50.2969 148.357 50.2656 146.758V142.203H49.0312V140.547H50.2656V138.469H52.5234ZM59.1172 149.156C57.8776 149.156 56.8672 148.776 56.0859 148.016C55.3099 147.255 54.9219 146.242 54.9219 144.977V144.758C54.9219 143.909 55.0859 143.151 55.4141 142.484C55.7422 141.812 56.2057 141.297 56.8047 140.938C57.4089 140.573 58.0964 140.391 58.8672 140.391C60.0234 140.391 60.9323 140.755 61.5938 141.484C62.2604 142.214 62.5938 143.247 62.5938 144.586V145.508H57.2109C57.2839 146.06 57.5026 146.503 57.8672 146.836C58.237 147.169 58.7031 147.336 59.2656 147.336C60.1354 147.336 60.8151 147.021 61.3047 146.391L62.4141 147.633C62.0755 148.112 61.6172 148.487 61.0391 148.758C60.4609 149.023 59.8203 149.156 59.1172 149.156ZM58.8594 142.219C58.4115 142.219 58.0469 142.37 57.7656 142.672C57.4896 142.974 57.3125 143.406 57.2344 143.969H60.375V143.789C60.3646 143.289 60.2292 142.904 59.9688 142.633C59.7083 142.357 59.3385 142.219 58.8594 142.219ZM66.5859 138.469V140.547H68.0312V142.203H66.5859V146.422C66.5859 146.734 66.6458 146.958 66.7656 147.094C66.8854 147.229 67.1146 147.297 67.4531 147.297C67.7031 147.297 67.9245 147.279 68.1172 147.242V148.953C67.6745 149.089 67.2188 149.156 66.75 149.156C65.1667 149.156 64.3594 148.357 64.3281 146.758V142.203H63.0938V140.547H64.3281V138.469H66.5859ZM71.9922 138.469V140.547H73.4375V142.203H71.9922V146.422C71.9922 146.734 72.0521 146.958 72.1719 147.094C72.2917 147.229 72.5208 147.297 72.8594 147.297C73.1094 147.297 73.3307 147.279 73.5234 147.242V148.953C73.0807 149.089 72.625 149.156 72.1562 149.156C70.5729 149.156 69.7656 148.357 69.7344 146.758V142.203H68.5V140.547H69.7344V138.469H71.9922ZM81.3828 138.469V140.547H82.8281V142.203H81.3828V146.422C81.3828 146.734 81.4427 146.958 81.5625 147.094C81.6823 147.229 81.9115 147.297 82.25 147.297C82.5 147.297 82.7214 147.279 82.9141 147.242V148.953C82.4714 149.089 82.0156 149.156 81.5469 149.156C79.9635 149.156 79.1562 148.357 79.125 146.758V142.203H77.8906V140.547H79.125V138.469H81.3828ZM88.9844 149C88.8802 148.797 88.8047 148.544 88.7578 148.242C88.2109 148.852 87.5 149.156 86.625 149.156C85.7969 149.156 85.1094 148.917 84.5625 148.438C84.0208 147.958 83.75 147.354 83.75 146.625C83.75 145.729 84.0807 145.042 84.7422 144.562C85.4089 144.083 86.3698 143.841 87.625 143.836H88.6641V143.352C88.6641 142.961 88.5625 142.648 88.3594 142.414C88.1615 142.18 87.8464 142.062 87.4141 142.062C87.0339 142.062 86.7344 142.154 86.5156 142.336C86.3021 142.518 86.1953 142.768 86.1953 143.086H83.9375C83.9375 142.596 84.0885 142.143 84.3906 141.727C84.6927 141.31 85.1198 140.984 85.6719 140.75C86.224 140.51 86.8438 140.391 87.5312 140.391C88.5729 140.391 89.3984 140.654 90.0078 141.18C90.6224 141.701 90.9297 142.435 90.9297 143.383V147.047C90.9349 147.849 91.0469 148.456 91.2656 148.867V149H88.9844ZM87.1172 147.43C87.4505 147.43 87.7578 147.357 88.0391 147.211C88.3203 147.06 88.5286 146.859 88.6641 146.609V145.156H87.8203C86.6901 145.156 86.0885 145.547 86.0156 146.328L86.0078 146.461C86.0078 146.742 86.1068 146.974 86.3047 147.156C86.5026 147.339 86.7734 147.43 87.1172 147.43ZM94.7422 140.547L94.8125 141.523C95.4167 140.768 96.2266 140.391 97.2422 140.391C98.138 140.391 98.8047 140.654 99.2422 141.18C99.6797 141.706 99.9036 142.492 99.9141 143.539V149H97.6562V143.594C97.6562 143.115 97.5521 142.768 97.3438 142.555C97.1354 142.336 96.7891 142.227 96.3047 142.227C95.6693 142.227 95.1927 142.497 94.875 143.039V149H92.6172V140.547H94.7422ZM106.695 148.141C106.138 148.818 105.367 149.156 104.383 149.156C103.477 149.156 102.784 148.896 102.305 148.375C101.831 147.854 101.589 147.091 101.578 146.086V140.547H103.836V146.008C103.836 146.888 104.237 147.328 105.039 147.328C105.805 147.328 106.331 147.062 106.617 146.531V140.547H108.883V149H106.758L106.695 148.141ZM112.969 149H110.703V137H112.969V149ZM116.953 140.547L117.023 141.492C117.622 140.758 118.432 140.391 119.453 140.391C120.542 140.391 121.289 140.82 121.695 141.68C122.289 140.82 123.135 140.391 124.234 140.391C125.151 140.391 125.833 140.659 126.281 141.195C126.729 141.727 126.953 142.529 126.953 143.602V149H124.688V143.609C124.688 143.13 124.594 142.781 124.406 142.562C124.219 142.339 123.888 142.227 123.414 142.227C122.737 142.227 122.268 142.549 122.008 143.195L122.016 149H119.758V143.617C119.758 143.128 119.661 142.773 119.469 142.555C119.276 142.336 118.948 142.227 118.484 142.227C117.844 142.227 117.38 142.492 117.094 143.023V149H114.836V140.547H116.953ZM133.594 149C133.49 148.797 133.414 148.544 133.367 148.242C132.82 148.852 132.109 149.156 131.234 149.156C130.406 149.156 129.719 148.917 129.172 148.438C128.63 147.958 128.359 147.354 128.359 146.625C128.359 145.729 128.69 145.042 129.352 144.562C130.018 144.083 130.979 143.841 132.234 143.836H133.273V143.352C133.273 142.961 133.172 142.648 132.969 142.414C132.771 142.18 132.456 142.062 132.023 142.062C131.643 142.062 131.344 142.154 131.125 142.336C130.911 142.518 130.805 142.768 130.805 143.086H128.547C128.547 142.596 128.698 142.143 129 141.727C129.302 141.31 129.729 140.984 130.281 140.75C130.833 140.51 131.453 140.391 132.141 140.391C133.182 140.391 134.008 140.654 134.617 141.18C135.232 141.701 135.539 142.435 135.539 143.383V147.047C135.544 147.849 135.656 148.456 135.875 148.867V149H133.594ZM131.727 147.43C132.06 147.43 132.367 147.357 132.648 147.211C132.93 147.06 133.138 146.859 133.273 146.609V145.156H132.43C131.299 145.156 130.698 145.547 130.625 146.328L130.617 146.461C130.617 146.742 130.716 146.974 130.914 147.156C131.112 147.339 131.383 147.43 131.727 147.43ZM132.586 137H135.047L132.883 139.422H131.047L132.586 137ZM139.352 140.547L139.422 141.523C140.026 140.768 140.836 140.391 141.852 140.391C142.747 140.391 143.414 140.654 143.852 141.18C144.289 141.706 144.513 142.492 144.523 143.539V149H142.266V143.594C142.266 143.115 142.161 142.768 141.953 142.555C141.745 142.336 141.398 142.227 140.914 142.227C140.279 142.227 139.802 142.497 139.484 143.039V149H137.227V140.547H139.352ZM149.398 145.805L150.961 140.547H153.383L149.984 150.312L149.797 150.758C149.292 151.862 148.458 152.414 147.297 152.414C146.969 152.414 146.635 152.365 146.297 152.266V150.555L146.641 150.562C147.068 150.562 147.385 150.497 147.594 150.367C147.807 150.237 147.974 150.021 148.094 149.719L148.359 149.023L145.398 140.547H147.828L149.398 145.805ZM153.797 144.695C153.797 143.857 153.958 143.109 154.281 142.453C154.604 141.797 155.068 141.289 155.672 140.93C156.281 140.57 156.987 140.391 157.789 140.391C158.93 140.391 159.859 140.74 160.578 141.438C161.302 142.135 161.706 143.083 161.789 144.281L161.805 144.859C161.805 146.156 161.443 147.198 160.719 147.984C159.995 148.766 159.023 149.156 157.805 149.156C156.586 149.156 155.612 148.766 154.883 147.984C154.159 147.203 153.797 146.141 153.797 144.797V144.695ZM156.055 144.859C156.055 145.661 156.206 146.276 156.508 146.703C156.81 147.125 157.242 147.336 157.805 147.336C158.352 147.336 158.779 147.128 159.086 146.711C159.393 146.289 159.547 145.617 159.547 144.695C159.547 143.909 159.393 143.299 159.086 142.867C158.779 142.435 158.346 142.219 157.789 142.219C157.237 142.219 156.81 142.435 156.508 142.867C156.206 143.294 156.055 143.958 156.055 144.859ZM166.266 145.609L165.453 146.422V149H163.195V137H165.453V143.648L165.891 143.086L168.055 140.547H170.766L167.711 144.07L171.031 149H168.438L166.266 145.609Z" fill="#ECE7DD"/>
</svg>
