<svg width="187" height="374" viewBox="0 0 187 374" fill="none" xmlns="http://www.w3.org/2000/svg">
<rect x="0.285156" y="0.714111" width="186.094" height="372.294" fill="#1B1D19"/>
<path d="M62.6587 318.226H58.7739V329H57.1885V318.226H53.312V316.914H62.6587V318.226ZM73.5161 323.347C73.5161 324.531 73.3169 325.566 72.9185 326.452C72.52 327.332 71.9556 328.004 71.2251 328.469C70.4946 328.934 69.6424 329.166 68.6685 329.166C67.7166 329.166 66.8727 328.934 66.1367 328.469C65.4007 327.998 64.828 327.332 64.4185 326.468C64.0145 325.599 63.807 324.595 63.7959 323.455V322.583C63.7959 321.421 63.9979 320.395 64.4019 319.504C64.8058 318.613 65.3758 317.932 66.1118 317.462C66.8534 316.986 67.7 316.748 68.6519 316.748C69.6203 316.748 70.4725 316.983 71.2085 317.454C71.95 317.918 72.52 318.596 72.9185 319.487C73.3169 320.373 73.5161 321.405 73.5161 322.583V323.347ZM71.9307 322.567C71.9307 321.134 71.6429 320.035 71.0674 319.271C70.4919 318.502 69.6867 318.118 68.6519 318.118C67.6447 318.118 66.8506 318.502 66.2695 319.271C65.694 320.035 65.3979 321.098 65.3813 322.459V323.347C65.3813 324.736 65.6719 325.829 66.2529 326.626C66.8395 327.417 67.6447 327.813 68.6685 327.813C69.6978 327.813 70.4946 327.439 71.0591 326.692C71.6235 325.94 71.9141 324.863 71.9307 323.463V322.567ZM79.7251 326.883L83.1782 316.914H84.9214L80.439 329H79.0278L74.5537 316.914H76.2886L79.7251 326.883ZM92.5913 325.846H87.5278L86.3906 329H84.7471L89.3623 316.914H90.7568L95.3804 329H93.7451L92.5913 325.846ZM88.0093 324.534H92.1182L90.0596 318.881L88.0093 324.534ZM90.8481 313.677H92.7075L90.4829 316.117H89.2461L90.8481 313.677ZM97.0073 329V316.914H100.958C102.27 316.914 103.255 317.185 103.914 317.728C104.578 318.27 104.91 319.072 104.91 320.135C104.91 320.699 104.749 321.2 104.428 321.637C104.107 322.069 103.67 322.404 103.117 322.642C103.77 322.824 104.284 323.173 104.661 323.688C105.042 324.197 105.233 324.805 105.233 325.514C105.233 326.598 104.882 327.451 104.179 328.07C103.476 328.69 102.483 329 101.199 329H97.0073ZM98.6011 323.347V327.697H101.232C101.974 327.697 102.558 327.506 102.984 327.124C103.416 326.737 103.631 326.205 103.631 325.53C103.631 324.075 102.84 323.347 101.257 323.347H98.6011ZM98.6011 322.069H101.008C101.706 322.069 102.262 321.895 102.677 321.546C103.097 321.197 103.308 320.724 103.308 320.126C103.308 319.462 103.114 318.981 102.727 318.682C102.339 318.378 101.75 318.226 100.958 318.226H98.6011V322.069ZM107.599 329V316.914H111.55C112.862 316.914 113.847 317.185 114.505 317.728C115.169 318.27 115.501 319.072 115.501 320.135C115.501 320.699 115.341 321.2 115.02 321.637C114.699 322.069 114.262 322.404 113.708 322.642C114.361 322.824 114.876 323.173 115.252 323.688C115.634 324.197 115.825 324.805 115.825 325.514C115.825 326.598 115.474 327.451 114.771 328.07C114.068 328.69 113.075 329 111.791 329H107.599ZM109.193 323.347V327.697H111.824C112.566 327.697 113.15 327.506 113.576 327.124C114.007 326.737 114.223 326.205 114.223 325.53C114.223 324.075 113.432 323.347 111.849 323.347H109.193ZM109.193 322.069H111.6C112.297 322.069 112.854 321.895 113.269 321.546C113.689 321.197 113.899 320.724 113.899 320.126C113.899 319.462 113.706 318.981 113.318 318.682C112.931 318.378 112.342 318.226 111.55 318.226H109.193V322.069ZM129.082 325.846H124.018L122.881 329H121.237L125.853 316.914H127.247L131.871 329H130.235L129.082 325.846ZM124.5 324.534H128.608L126.55 318.881L124.5 324.534ZM29.5386 339.164H25.9111V349H22.9976V339.164H19.4365V336.914H29.5386V339.164ZM36.644 346.742H32.6514L31.9541 349H28.8413L33.2739 336.914H36.0132L40.479 349H37.3496L36.644 346.742ZM33.3486 344.493H35.9468L34.6436 340.301L33.3486 344.493ZM51.4609 349H48.564L44.2808 341.479V349H41.3672V336.914H44.2808L48.5557 344.435V336.914H51.4609V349ZM62.7832 336.914V344.825C62.7832 345.721 62.5923 346.499 62.2104 347.157C61.8286 347.81 61.2808 348.308 60.5669 348.651C59.853 348.994 59.0091 349.166 58.0352 349.166C56.5632 349.166 55.4038 348.784 54.5571 348.021C53.7104 347.257 53.2788 346.211 53.2622 344.883V336.914H56.1924V344.941C56.2256 346.264 56.8398 346.925 58.0352 346.925C58.6383 346.925 59.0949 346.759 59.4048 346.427C59.7147 346.095 59.8696 345.555 59.8696 344.808V336.914H62.7832ZM67.5229 346.759H72.5947V349H64.6094V336.914H67.5229V346.759ZM77.6499 336.914L80.3477 345.323L83.0371 336.914H86.8721V349H83.9502V346.178L84.2324 340.4L81.3105 349H79.3848L76.4546 340.392L76.7368 346.178V349H73.8232V336.914H77.6499ZM95.7456 346.742H91.7529L91.0557 349H87.9429L92.3755 336.914H95.1147L99.5806 349H96.4512L95.7456 346.742ZM92.4502 344.493H95.0483L93.7451 340.301L92.4502 344.493ZM94.127 333.677H97.082L94.7744 336.283H92.4917L94.127 333.677ZM110.562 349H107.666L103.382 341.479V349H100.469V336.914H103.382L107.657 344.435V336.914H110.562V349ZM116.597 342.16L118.822 336.914H121.968L118.075 344.659V349H115.12V344.659L111.235 336.914H114.364L116.597 342.16ZM132.833 343.206C132.833 344.385 132.615 345.428 132.178 346.335C131.741 347.243 131.118 347.943 130.31 348.436C129.508 348.923 128.592 349.166 127.562 349.166C126.533 349.166 125.62 348.931 124.823 348.46C124.026 347.985 123.404 347.307 122.956 346.427C122.513 345.547 122.28 344.537 122.258 343.397V342.716C122.258 341.532 122.474 340.489 122.906 339.587C123.343 338.679 123.965 337.979 124.773 337.487C125.587 336.994 126.511 336.748 127.546 336.748C128.57 336.748 129.483 336.992 130.285 337.479C131.088 337.965 131.71 338.66 132.153 339.562C132.601 340.458 132.828 341.488 132.833 342.65V343.206ZM129.87 342.7C129.87 341.499 129.668 340.589 129.264 339.969C128.866 339.343 128.293 339.031 127.546 339.031C126.085 339.031 125.313 340.126 125.23 342.318L125.222 343.206C125.222 344.39 125.418 345.301 125.811 345.937C126.204 346.573 126.788 346.892 127.562 346.892C128.299 346.892 128.866 346.579 129.264 345.954C129.663 345.328 129.865 344.429 129.87 343.256V342.7ZM138.445 344.501L137.25 345.812V349H134.336V336.914H137.25V342.243L138.262 340.708L140.869 336.914H144.471L140.387 342.26L144.471 349H141.018L138.445 344.501ZM150.132 344.111H147.293V349H145.691V336.914H149.692C151.054 336.914 152.1 337.224 152.83 337.844C153.566 338.464 153.934 339.366 153.934 340.55C153.934 341.302 153.729 341.958 153.32 342.517C152.916 343.076 152.351 343.494 151.626 343.771L154.465 348.9V349H152.755L150.132 344.111ZM147.293 342.808H149.742C150.534 342.808 151.162 342.603 151.626 342.193C152.097 341.784 152.332 341.236 152.332 340.55C152.332 339.803 152.108 339.23 151.66 338.832C151.217 338.433 150.575 338.231 149.734 338.226H147.293V342.808ZM162.849 345.846H157.786L156.648 349H155.005L159.62 336.914H161.015L165.638 349H164.003L162.849 345.846ZM158.267 344.534H162.376L160.317 338.881L158.267 344.534Z" fill="#ECE7DD"/>
<path d="M25.6758 151.918H19.1231L17.6514 156H15.5245L21.4971 140.359H23.3018L29.2852 156H27.169L25.6758 151.918ZM19.7461 150.221H25.0635L22.3995 142.905L19.7461 150.221ZM45.3482 156H43.275L35.4009 143.947V156H33.3277V140.359H35.4009L43.2964 152.466V140.359H45.3482V156ZM51.763 156.215C50.1875 156.215 48.9056 155.699 47.9173 154.668C46.929 153.63 46.4349 152.244 46.4349 150.511V150.146C46.4349 148.993 46.6533 147.965 47.0902 147.062C47.5342 146.153 48.1501 145.444 48.9378 144.936C49.7327 144.42 50.5921 144.162 51.5159 144.162C53.027 144.162 54.2015 144.66 55.0394 145.655C55.8773 146.651 56.2962 148.076 56.2962 149.931V150.758H48.4222C48.4508 151.904 48.7838 152.831 49.4212 153.54C50.0657 154.242 50.8821 154.593 51.8704 154.593C52.5723 154.593 53.1667 154.45 53.6536 154.163C54.1406 153.877 54.5667 153.497 54.932 153.024L56.1458 153.97C55.1719 155.466 53.7109 156.215 51.763 156.215ZM51.5159 145.795C50.7139 145.795 50.0407 146.089 49.4964 146.676C48.9521 147.256 48.6155 148.072 48.4866 149.125H54.3089V148.975C54.2516 147.965 53.9795 147.184 53.4925 146.633C53.0055 146.074 52.3467 145.795 51.5159 145.795ZM58.7149 144.377L58.7686 145.666C59.6208 144.663 60.7703 144.162 62.2169 144.162C63.8425 144.162 64.949 144.785 65.5362 146.031C65.9229 145.473 66.4242 145.021 67.0401 144.678C67.6632 144.334 68.3972 144.162 69.2423 144.162C71.7917 144.162 73.088 145.512 73.1309 148.212V156H71.1436V148.33C71.1436 147.499 70.9539 146.88 70.5743 146.472C70.1947 146.056 69.5574 145.849 68.6622 145.849C67.9246 145.849 67.3123 146.071 66.8253 146.515C66.3383 146.951 66.0554 147.542 65.9766 148.287V156H63.9786V148.384C63.9786 146.694 63.1514 145.849 61.4971 145.849C60.1938 145.849 59.3022 146.404 58.8223 147.514V156H56.835V144.377H58.7149ZM76.2479 154.378H83.0477V156H73.8202V154.539L80.2332 146.021H73.9168V144.377H82.7254V145.784L76.2479 154.378ZM88.1842 156.215C86.6087 156.215 85.3268 155.699 84.3385 154.668C83.3502 153.63 82.8561 152.244 82.8561 150.511V150.146C82.8561 148.993 83.0745 147.965 83.5113 147.062C83.9553 146.153 84.5712 145.444 85.359 144.936C86.1539 144.42 87.0133 144.162 87.9371 144.162C89.4482 144.162 90.6227 144.66 91.4605 145.655C92.2984 146.651 92.7174 148.076 92.7174 149.931V150.758H84.8434C84.872 151.904 85.205 152.831 85.8424 153.54C86.4869 154.242 87.3033 154.593 88.2916 154.593C88.9934 154.593 89.5878 154.45 90.0748 154.163C90.5618 153.877 90.9879 153.497 91.3531 153.024L92.567 153.97C91.593 155.466 90.1321 156.215 88.1842 156.215ZM87.9371 145.795C87.135 145.795 86.4619 146.089 85.9176 146.676C85.3733 147.256 85.0367 148.072 84.9078 149.125H90.7301V148.975C90.6728 147.965 90.4007 147.184 89.9137 146.633C89.4267 146.074 88.7678 145.795 87.9371 145.795ZM95.9632 141.562V144.377H98.1332V145.913H95.9632V153.121C95.9632 153.587 96.0599 153.938 96.2533 154.174C96.4466 154.403 96.7761 154.518 97.2416 154.518C97.4707 154.518 97.7858 154.475 98.1869 154.389V156C97.6641 156.143 97.1556 156.215 96.6615 156.215C95.7735 156.215 95.1039 155.946 94.6527 155.409C94.2015 154.872 93.9759 154.109 93.9759 153.121V145.913H91.8597V144.377H93.9759V141.562H95.9632ZM105.472 152.917C105.472 152.38 105.268 151.965 104.859 151.671C104.458 151.37 103.753 151.112 102.743 150.897C101.741 150.683 100.942 150.425 100.348 150.124C99.7605 149.823 99.3237 149.465 99.0372 149.05C98.7579 148.634 98.6183 148.14 98.6183 147.567C98.6183 146.615 99.0193 145.809 99.8214 145.15C100.631 144.492 101.662 144.162 102.915 144.162C104.233 144.162 105.3 144.502 106.116 145.183C106.94 145.863 107.352 146.733 107.352 147.793H105.354C105.354 147.249 105.121 146.78 104.655 146.386C104.197 145.992 103.617 145.795 102.915 145.795C102.192 145.795 101.626 145.952 101.218 146.268C100.81 146.583 100.606 146.994 100.606 147.503C100.606 147.983 100.795 148.344 101.175 148.588C101.554 148.831 102.238 149.064 103.227 149.286C104.222 149.508 105.028 149.773 105.644 150.081C106.26 150.389 106.714 150.761 107.008 151.198C107.309 151.628 107.459 152.154 107.459 152.777C107.459 153.816 107.044 154.65 106.213 155.28C105.382 155.903 104.304 156.215 102.98 156.215C102.049 156.215 101.225 156.05 100.509 155.721C99.7928 155.391 99.2306 154.933 98.8224 154.346C98.4213 153.751 98.2208 153.11 98.2208 152.423H100.208C100.244 153.089 100.509 153.619 101.003 154.013C101.504 154.399 102.163 154.593 102.98 154.593C103.732 154.593 104.333 154.442 104.784 154.142C105.243 153.834 105.472 153.425 105.472 152.917ZM110.984 141.562V144.377H113.154V145.913H110.984V153.121C110.984 153.587 111.081 153.938 111.274 154.174C111.468 154.403 111.797 154.518 112.263 154.518C112.492 154.518 112.807 154.475 113.208 154.389V156C112.685 156.143 112.177 156.215 111.683 156.215C110.794 156.215 110.125 155.946 109.674 155.409C109.223 154.872 108.997 154.109 108.997 153.121V145.913H106.881V144.377H108.997V141.562H110.984ZM119.343 146.16C119.043 146.11 118.717 146.085 118.366 146.085C117.062 146.085 116.178 146.64 115.713 147.75V156H113.725V144.377H115.659L115.691 145.72C116.343 144.681 117.267 144.162 118.463 144.162C118.849 144.162 119.143 144.212 119.343 144.312V146.16ZM126.166 156C126.052 155.771 125.959 155.363 125.887 154.775C124.963 155.735 123.86 156.215 122.579 156.215C121.433 156.215 120.491 155.893 119.753 155.248C119.023 154.596 118.658 153.773 118.658 152.777C118.658 151.567 119.116 150.629 120.033 149.963C120.956 149.29 122.253 148.953 123.921 148.953H125.855V148.04C125.855 147.345 125.647 146.794 125.232 146.386C124.816 145.97 124.204 145.763 123.395 145.763C122.686 145.763 122.092 145.942 121.612 146.3C121.132 146.658 120.892 147.091 120.892 147.6H118.894C118.894 147.02 119.098 146.461 119.506 145.924C119.922 145.38 120.48 144.95 121.182 144.635C121.891 144.32 122.668 144.162 123.513 144.162C124.852 144.162 125.901 144.499 126.661 145.172C127.42 145.838 127.814 146.758 127.842 147.933V153.282C127.842 154.349 127.978 155.198 128.25 155.828V156H126.166ZM122.869 154.485C123.492 154.485 124.082 154.324 124.641 154.002C125.2 153.68 125.604 153.261 125.855 152.745V150.36H124.297C121.862 150.36 120.645 151.073 120.645 152.498C120.645 153.121 120.853 153.608 121.268 153.959C121.683 154.31 122.217 154.485 122.869 154.485ZM131.894 141.562V144.377H134.064V145.913H131.894V153.121C131.894 153.587 131.99 153.938 132.184 154.174C132.377 154.403 132.707 154.518 133.172 154.518C133.401 154.518 133.716 154.475 134.117 154.389V156C133.595 156.143 133.086 156.215 132.592 156.215C131.704 156.215 131.034 155.946 130.583 155.409C130.132 154.872 129.906 154.109 129.906 153.121V145.913H127.79V144.377H129.906V141.562H131.894ZM139.458 156.215C137.882 156.215 136.601 155.699 135.612 154.668C134.624 153.63 134.13 152.244 134.13 150.511V150.146C134.13 148.993 134.348 147.965 134.785 147.062C135.229 146.153 135.845 145.444 136.633 144.936C137.428 144.42 138.287 144.162 139.211 144.162C140.722 144.162 141.896 144.66 142.734 145.655C143.572 146.651 143.991 148.076 143.991 149.931V150.758H136.117C136.146 151.904 136.479 152.831 137.116 153.54C137.761 154.242 138.577 154.593 139.565 154.593C140.267 154.593 140.862 154.45 141.349 154.163C141.836 153.877 142.262 153.497 142.627 153.024L143.841 153.97C142.867 155.466 141.406 156.215 139.458 156.215ZM139.211 145.795C138.409 145.795 137.736 146.089 137.191 146.676C136.647 147.256 136.31 148.072 136.182 149.125H142.004V148.975C141.947 147.965 141.674 147.184 141.187 146.633C140.7 146.074 140.042 145.795 139.211 145.795ZM140.178 139.5H142.584L139.705 142.658H138.104L140.178 139.5ZM144.068 150.092C144.068 148.28 144.487 146.84 145.325 145.773C146.163 144.699 147.273 144.162 148.655 144.162C150.073 144.162 151.179 144.663 151.974 145.666L152.071 144.377H153.886V155.721C153.886 157.225 153.439 158.41 152.544 159.276C151.656 160.143 150.46 160.576 148.956 160.576C148.118 160.576 147.298 160.397 146.496 160.039C145.694 159.681 145.081 159.19 144.659 158.567L145.69 157.375C146.542 158.428 147.584 158.954 148.816 158.954C149.783 158.954 150.535 158.682 151.072 158.138C151.616 157.593 151.888 156.827 151.888 155.839V154.84C151.093 155.757 150.008 156.215 148.633 156.215C147.273 156.215 146.17 155.667 145.325 154.571C144.487 153.476 144.068 151.982 144.068 150.092ZM146.066 150.317C146.066 151.628 146.335 152.659 146.872 153.411C147.409 154.156 148.161 154.528 149.128 154.528C150.381 154.528 151.301 153.959 151.888 152.82V147.514C151.28 146.404 150.367 145.849 149.149 145.849C148.182 145.849 147.427 146.225 146.883 146.977C146.338 147.729 146.066 148.842 146.066 150.317ZM157.293 156H155.306V144.377H157.293V156ZM155.145 141.294C155.145 140.972 155.242 140.7 155.435 140.478C155.636 140.256 155.929 140.145 156.316 140.145C156.703 140.145 156.996 140.256 157.197 140.478C157.397 140.7 157.497 140.972 157.497 141.294C157.497 141.616 157.397 141.885 157.197 142.1C156.996 142.314 156.703 142.422 156.316 142.422C155.929 142.422 155.636 142.314 155.435 142.1C155.242 141.885 155.145 141.616 155.145 141.294ZM165.9 156C165.785 155.771 165.692 155.363 165.62 154.775C164.696 155.735 163.594 156.215 162.312 156.215C161.166 156.215 160.224 155.893 159.487 155.248C158.756 154.596 158.391 153.773 158.391 152.777C158.391 151.567 158.849 150.629 159.766 149.963C160.69 149.29 161.986 148.953 163.654 148.953H165.588V148.04C165.588 147.345 165.38 146.794 164.965 146.386C164.55 145.97 163.937 145.763 163.128 145.763C162.419 145.763 161.825 145.942 161.345 146.3C160.865 146.658 160.625 147.091 160.625 147.6H158.627C158.627 147.02 158.831 146.461 159.239 145.924C159.655 145.38 160.213 144.95 160.915 144.635C161.624 144.32 162.401 144.162 163.246 144.162C164.585 144.162 165.635 144.499 166.394 145.172C167.153 145.838 167.547 146.758 167.575 147.933V153.282C167.575 154.349 167.711 155.198 167.984 155.828V156H165.9ZM162.602 154.485C163.225 154.485 163.816 154.324 164.374 154.002C164.933 153.68 165.337 153.261 165.588 152.745V150.36H164.03C161.596 150.36 160.378 151.073 160.378 152.498C160.378 153.121 160.586 153.608 161.001 153.959C161.417 154.31 161.95 154.485 162.602 154.485ZM171.09 156H169.103V144.377H171.09V156ZM168.941 141.294C168.941 140.972 169.038 140.7 169.231 140.478C169.432 140.256 169.726 140.145 170.112 140.145C170.499 140.145 170.793 140.256 170.993 140.478C171.194 140.7 171.294 140.972 171.294 141.294C171.294 141.616 171.194 141.885 170.993 142.1C170.793 142.314 170.499 142.422 170.112 142.422C169.726 142.422 169.432 142.314 169.231 142.1C169.038 141.885 168.941 141.616 168.941 141.294ZM45.1879 174.728L43.2758 176.715V182H41.2133V166.359H43.2758V174.094L50.226 166.359H52.7182L46.5629 173.267L53.2016 182H50.7309L45.1879 174.728ZM59.8527 180.851C59.0793 181.76 57.9442 182.215 56.4475 182.215C55.2085 182.215 54.2632 181.857 53.6115 181.141C52.967 180.417 52.6411 179.35 52.634 177.939V170.377H54.6213V177.886C54.6213 179.647 55.3374 180.528 56.7697 180.528C58.288 180.528 59.2977 179.963 59.799 178.831V170.377H61.7863V182H59.8957L59.8527 180.851ZM65.7519 167.562V170.377H67.9218V171.913H65.7519V179.121C65.7519 179.587 65.8486 179.938 66.042 180.174C66.2353 180.403 66.5647 180.518 67.0302 180.518C67.2594 180.518 67.5745 180.475 67.9755 180.389V182C67.4528 182.143 66.9443 182.215 66.4502 182.215C65.5621 182.215 64.8925 181.946 64.4414 181.409C63.9902 180.872 63.7646 180.109 63.7646 179.121V171.913H61.6484V170.377H63.7646V167.562H65.7519ZM75.6687 182C75.5541 181.771 75.461 181.363 75.3894 180.775C74.4655 181.735 73.3627 182.215 72.0808 182.215C70.9349 182.215 69.9932 181.893 69.2556 181.248C68.5251 180.596 68.1599 179.773 68.1599 178.777C68.1599 177.567 68.6182 176.629 69.5349 175.963C70.4587 175.29 71.7549 174.953 73.4236 174.953H75.3571V174.04C75.3571 173.345 75.1495 172.794 74.7341 172.386C74.3187 171.97 73.7064 171.763 72.8972 171.763C72.1882 171.763 71.5938 171.942 71.114 172.3C70.6342 172.658 70.3943 173.091 70.3943 173.6H68.3962C68.3962 173.02 68.6003 172.461 69.0085 171.924C69.4239 171.38 69.9825 170.95 70.6843 170.635C71.3933 170.32 72.1703 170.162 73.0154 170.162C74.3545 170.162 75.4037 170.499 76.1628 171.172C76.9219 171.838 77.3158 172.758 77.3445 173.933V179.282C77.3445 180.349 77.4805 181.198 77.7527 181.828V182H75.6687ZM72.3708 180.485C72.9939 180.485 73.5847 180.324 74.1433 180.002C74.7019 179.68 75.1065 179.261 75.3571 178.745V176.36H73.7995C71.3646 176.36 70.1472 177.073 70.1472 178.498C70.1472 179.121 70.3549 179.608 70.7702 179.959C71.1856 180.31 71.7191 180.485 72.3708 180.485ZM81.396 167.562V170.377H83.5659V171.913H81.396V179.121C81.396 179.587 81.4927 179.938 81.686 180.174C81.8794 180.403 82.2088 180.518 82.6743 180.518C82.9035 180.518 83.2186 180.475 83.6196 180.389V182C83.0968 182.143 82.5884 182.215 82.0942 182.215C81.2062 182.215 80.5366 181.946 80.0854 181.409C79.6343 180.872 79.4087 180.109 79.4087 179.121V171.913H77.2925V170.377H79.4087V167.562H81.396ZM83.3957 176.081C83.3957 174.942 83.6177 173.918 84.0618 173.009C84.5129 172.099 85.136 171.397 85.9309 170.903C86.733 170.409 87.6461 170.162 88.6702 170.162C90.2528 170.162 91.5312 170.71 92.5051 171.806C93.4862 172.901 93.9768 174.359 93.9768 176.178V176.317C93.9768 177.449 93.7584 178.466 93.3215 179.368C92.8918 180.263 92.2724 180.962 91.4631 181.463C90.661 181.964 89.7372 182.215 88.6916 182.215C87.1161 182.215 85.8378 181.667 84.8567 180.571C83.8827 179.476 83.3957 178.025 83.3957 176.221V176.081ZM85.3938 176.317C85.3938 177.606 85.691 178.641 86.2854 179.422C86.887 180.202 87.689 180.593 88.6916 180.593C89.7014 180.593 90.5035 180.199 91.0979 179.411C91.6923 178.616 91.9895 177.506 91.9895 176.081C91.9895 174.806 91.6851 173.775 91.0764 172.987C90.4748 172.192 89.6728 171.795 88.6702 171.795C87.689 171.795 86.8977 172.185 86.2961 172.966C85.6946 173.746 85.3938 174.864 85.3938 176.317ZM89.5725 165.5H91.9788L89.0998 168.658H87.4993L89.5725 165.5ZM96.8682 182H94.8809V170.377H96.8682V182ZM94.7197 167.294C94.7197 166.972 94.8164 166.7 95.0098 166.478C95.2103 166.256 95.5039 166.145 95.8906 166.145C96.2773 166.145 96.571 166.256 96.7715 166.478C96.972 166.7 97.0723 166.972 97.0723 167.294C97.0723 167.616 96.972 167.885 96.7715 168.1C96.571 168.314 96.2773 168.422 95.8906 168.422C95.5039 168.422 95.2103 168.314 95.0098 168.1C94.8164 167.885 94.7197 167.616 94.7197 167.294ZM100.178 170.377L100.243 171.838C101.131 170.721 102.291 170.162 103.723 170.162C106.18 170.162 107.419 171.548 107.44 174.319V182H105.453V174.309C105.446 173.471 105.252 172.851 104.873 172.45C104.5 172.049 103.917 171.849 103.122 171.849C102.477 171.849 101.912 172.021 101.425 172.364C100.938 172.708 100.558 173.159 100.286 173.718V182H98.2986V170.377H100.178ZM111.374 167.562V170.377H113.543V171.913H111.374V179.121C111.374 179.587 111.47 179.938 111.664 180.174C111.857 180.403 112.186 180.518 112.652 180.518C112.881 180.518 113.196 180.475 113.597 180.389V182C113.074 182.143 112.566 182.215 112.072 182.215C111.184 182.215 110.514 181.946 110.063 181.409C109.612 180.872 109.386 180.109 109.386 179.121V171.913H107.27V170.377H109.386V167.562H111.374ZM118.938 182.215C117.362 182.215 116.08 181.699 115.092 180.668C114.104 179.63 113.61 178.244 113.61 176.511V176.146C113.61 174.993 113.828 173.965 114.265 173.062C114.709 172.153 115.325 171.444 116.113 170.936C116.908 170.42 117.767 170.162 118.691 170.162C120.202 170.162 121.376 170.66 122.214 171.655C123.052 172.651 123.471 174.076 123.471 175.931V176.758H115.597C115.626 177.904 115.959 178.831 116.596 179.54C117.241 180.242 118.057 180.593 119.045 180.593C119.747 180.593 120.341 180.45 120.828 180.163C121.315 179.877 121.741 179.497 122.107 179.024L123.321 179.97C122.347 181.466 120.886 182.215 118.938 182.215ZM118.691 171.795C117.889 171.795 117.215 172.089 116.671 172.676C116.127 173.256 115.79 174.072 115.661 175.125H121.484V174.975C121.426 173.965 121.154 173.184 120.667 172.633C120.18 172.074 119.521 171.795 118.691 171.795ZM119.658 165.5H122.064L119.185 168.658H117.584L119.658 165.5ZM125.89 180.378H132.689V182H123.462V180.539L129.875 172.021H123.559V170.377H132.367V171.784L125.89 180.378ZM137.826 182.215C136.25 182.215 134.969 181.699 133.98 180.668C132.992 179.63 132.498 178.244 132.498 176.511V176.146C132.498 174.993 132.716 173.965 133.153 173.062C133.597 172.153 134.213 171.444 135.001 170.936C135.796 170.42 136.655 170.162 137.579 170.162C139.09 170.162 140.264 170.66 141.102 171.655C141.94 172.651 142.359 174.076 142.359 175.931V176.758H134.485C134.514 177.904 134.847 178.831 135.484 179.54C136.129 180.242 136.945 180.593 137.933 180.593C138.635 180.593 139.23 180.45 139.717 180.163C140.204 179.877 140.63 179.497 140.995 179.024L142.209 179.97C141.235 181.466 139.774 182.215 137.826 182.215ZM137.579 171.795C136.777 171.795 136.104 172.089 135.559 172.676C135.015 173.256 134.679 174.072 134.55 175.125H140.372V174.975C140.315 173.965 140.042 173.184 139.555 172.633C139.068 172.074 138.41 171.795 137.579 171.795ZM145.605 167.562V170.377H147.775V171.913H145.605V179.121C145.605 179.587 145.702 179.938 145.895 180.174C146.088 180.403 146.418 180.518 146.883 180.518C147.113 180.518 147.428 180.475 147.829 180.389V182C147.306 182.143 146.797 182.215 146.303 182.215C145.415 182.215 144.746 181.946 144.294 181.409C143.843 180.872 143.618 180.109 143.618 179.121V171.913H141.502V170.377H143.618V167.562H145.605ZM26.8261 196.377L26.8798 197.666C27.732 196.663 28.8814 196.162 30.328 196.162C31.9537 196.162 33.0601 196.785 33.6474 198.031C34.0341 197.473 34.5354 197.021 35.1513 196.678C35.7743 196.334 36.5084 196.162 37.3534 196.162C39.9029 196.162 41.1991 197.512 41.2421 200.212V208H39.2548V200.33C39.2548 199.499 39.065 198.88 38.6855 198.472C38.3059 198.056 37.6685 197.849 36.7734 197.849C36.0357 197.849 35.4234 198.071 34.9364 198.515C34.4495 198.951 34.1666 199.542 34.0878 200.287V208H32.0898V200.384C32.0898 198.694 31.2626 197.849 29.6083 197.849C28.3049 197.849 27.4133 198.404 26.9335 199.514V208H24.9462V196.377H26.8261ZM49.6657 206.851C48.8923 207.76 47.7572 208.215 46.2604 208.215C45.0215 208.215 44.0762 207.857 43.4245 207.141C42.78 206.417 42.4541 205.35 42.447 203.939V196.377H44.4343V203.886C44.4343 205.647 45.1504 206.528 46.5827 206.528C48.1009 206.528 49.1107 205.963 49.612 204.831V196.377H51.5993V208H49.7087L49.6657 206.851ZM54.7485 196.377L54.8129 197.838C55.701 196.721 56.8611 196.162 58.2934 196.162C60.7498 196.162 61.9887 197.548 62.0102 200.319V208H60.0229V200.309C60.0157 199.471 59.8224 198.851 59.4428 198.45C59.0704 198.049 58.4868 197.849 57.6918 197.849C57.0473 197.849 56.4816 198.021 55.9946 198.364C55.5076 198.708 55.128 199.159 54.8559 199.718V208H52.8686V196.377H54.7485ZM66.4914 202.618L65.2453 203.918V208H63.258V191.5H65.2453V201.479L66.3088 200.201L69.9289 196.377H72.3459L67.8234 201.232L72.8723 208H70.5412L66.4914 202.618ZM79.8134 208C79.6989 207.771 79.6058 207.363 79.5341 206.775C78.6103 207.735 77.5074 208.215 76.2255 208.215C75.0797 208.215 74.138 207.893 73.4004 207.248C72.6699 206.596 72.3046 205.773 72.3046 204.777C72.3046 203.567 72.763 202.629 73.6796 201.963C74.6035 201.29 75.8997 200.953 77.5683 200.953H79.5019V200.04C79.5019 199.345 79.2942 198.794 78.8789 198.386C78.4635 197.97 77.8512 197.763 77.042 197.763C76.333 197.763 75.7386 197.942 75.2588 198.3C74.7789 198.658 74.539 199.091 74.539 199.6H72.541C72.541 199.02 72.7451 198.461 73.1533 197.924C73.5686 197.38 74.1272 196.95 74.8291 196.635C75.538 196.32 76.3151 196.162 77.1601 196.162C78.4993 196.162 79.5485 196.499 80.3076 197.172C81.0667 197.838 81.4606 198.758 81.4892 199.933V205.282C81.4892 206.349 81.6253 207.198 81.8974 207.828V208H79.8134ZM76.5156 206.485C77.1386 206.485 77.7295 206.324 78.288 206.002C78.8466 205.68 79.2513 205.261 79.5019 204.745V202.36H77.9443C75.5094 202.36 74.292 203.073 74.292 204.498C74.292 205.121 74.4996 205.608 74.915 205.959C75.3304 206.31 75.8639 206.485 76.5156 206.485ZM85.5407 193.562V196.377H87.7107V197.913H85.5407V205.121C85.5407 205.587 85.6374 205.938 85.8308 206.174C86.0241 206.403 86.3536 206.518 86.8191 206.518C87.0482 206.518 87.3633 206.475 87.7644 206.389V208C87.2416 208.143 86.7331 208.215 86.239 208.215C85.351 208.215 84.6814 207.946 84.2302 207.409C83.779 206.872 83.5534 206.109 83.5534 205.121V197.913H81.4372V196.377H83.5534V193.562H85.5407ZM95.4575 208C95.3429 207.771 95.2498 207.363 95.1782 206.775C94.2544 207.735 93.1515 208.215 91.8696 208.215C90.7238 208.215 89.782 207.893 89.0444 207.248C88.3139 206.596 87.9487 205.773 87.9487 204.777C87.9487 203.567 88.407 202.629 89.3237 201.963C90.2475 201.29 91.5438 200.953 93.2124 200.953H95.146V200.04C95.146 199.345 94.9383 198.794 94.5229 198.386C94.1076 197.97 93.4953 197.763 92.686 197.763C91.977 197.763 91.3826 197.942 90.9028 198.3C90.423 198.658 90.1831 199.091 90.1831 199.6H88.185C88.185 199.02 88.3891 198.461 88.7973 197.924C89.2127 197.38 89.7713 196.95 90.4731 196.635C91.1821 196.32 91.9591 196.162 92.8042 196.162C94.1434 196.162 95.1925 196.499 95.9516 197.172C96.7108 197.838 97.1046 198.758 97.1333 199.933V205.282C97.1333 206.349 97.2694 207.198 97.5415 207.828V208H95.4575ZM92.1597 206.485C92.7827 206.485 93.3735 206.324 93.9321 206.002C94.4907 205.68 94.8953 205.261 95.146 204.745V202.36H93.5884C91.1535 202.36 89.936 203.073 89.936 204.498C89.936 205.121 90.1437 205.608 90.5591 205.959C90.9744 206.31 91.508 206.485 92.1597 206.485ZM93.9966 191.5H96.4028L93.5239 194.658H91.9233L93.9966 191.5ZM104.107 198.16C103.806 198.11 103.48 198.085 103.129 198.085C101.826 198.085 100.941 198.64 100.476 199.75V208H98.4885V196.377H100.422L100.454 197.72C101.106 196.681 102.03 196.162 103.226 196.162C103.613 196.162 103.906 196.212 104.107 196.312V198.16ZM110.951 204.917C110.951 204.38 110.747 203.965 110.339 203.671C109.938 203.37 109.232 203.112 108.223 202.897C107.22 202.683 106.422 202.425 105.827 202.124C105.24 201.823 104.803 201.465 104.517 201.05C104.237 200.634 104.098 200.14 104.098 199.567C104.098 198.615 104.499 197.809 105.301 197.15C106.11 196.492 107.141 196.162 108.395 196.162C109.712 196.162 110.779 196.502 111.596 197.183C112.419 197.863 112.831 198.733 112.831 199.793H110.833C110.833 199.249 110.6 198.78 110.135 198.386C109.676 197.992 109.096 197.795 108.395 197.795C107.671 197.795 107.105 197.952 106.697 198.268C106.289 198.583 106.085 198.994 106.085 199.503C106.085 199.983 106.275 200.344 106.654 200.588C107.034 200.831 107.718 201.064 108.706 201.286C109.701 201.508 110.507 201.773 111.123 202.081C111.739 202.389 112.194 202.761 112.487 203.198C112.788 203.628 112.938 204.154 112.938 204.777C112.938 205.816 112.523 206.65 111.692 207.28C110.862 207.903 109.784 208.215 108.459 208.215C107.528 208.215 106.704 208.05 105.988 207.721C105.272 207.391 104.71 206.933 104.302 206.346C103.901 205.751 103.7 205.11 103.7 204.423H105.688C105.723 205.089 105.988 205.619 106.482 206.013C106.984 206.399 107.643 206.593 108.459 206.593C109.211 206.593 109.812 206.442 110.264 206.142C110.722 205.834 110.951 205.425 110.951 204.917ZM120.943 208C120.829 207.771 120.735 207.363 120.664 206.775C119.74 207.735 118.637 208.215 117.355 208.215C116.209 208.215 115.268 207.893 114.53 207.248C113.8 206.596 113.434 205.773 113.434 204.777C113.434 203.567 113.893 202.629 114.809 201.963C115.733 201.29 117.029 200.953 118.698 200.953H120.632V200.04C120.632 199.345 120.424 198.794 120.009 198.386C119.593 197.97 118.981 197.763 118.172 197.763C117.463 197.763 116.868 197.942 116.388 198.3C115.909 198.658 115.669 199.091 115.669 199.6H113.671C113.671 199.02 113.875 198.461 114.283 197.924C114.698 197.38 115.257 196.95 115.959 196.635C116.668 196.32 117.445 196.162 118.29 196.162C119.629 196.162 120.678 196.499 121.437 197.172C122.196 197.838 122.59 198.758 122.619 199.933V205.282C122.619 206.349 122.755 207.198 123.027 207.828V208H120.943ZM117.645 206.485C118.268 206.485 118.859 206.324 119.418 206.002C119.976 205.68 120.381 205.261 120.632 204.745V202.36H119.074C116.639 202.36 115.422 203.073 115.422 204.498C115.422 205.121 115.629 205.608 116.045 205.959C116.46 206.31 116.994 206.485 117.645 206.485ZM126.133 208H124.146V196.377H126.133V208ZM123.985 193.294C123.985 192.972 124.082 192.7 124.275 192.478C124.475 192.256 124.769 192.145 125.156 192.145C125.543 192.145 125.836 192.256 126.037 192.478C126.237 192.7 126.337 192.972 126.337 193.294C126.337 193.616 126.237 193.885 126.037 194.1C125.836 194.314 125.543 194.422 125.156 194.422C124.769 194.422 124.475 194.314 124.275 194.1C124.082 193.885 123.985 193.616 123.985 193.294ZM138.437 208C138.322 207.771 138.229 207.363 138.157 206.775C137.233 207.735 136.131 208.215 134.849 208.215C133.703 208.215 132.761 207.893 132.023 207.248C131.293 206.596 130.928 205.773 130.928 204.777C130.928 203.567 131.386 202.629 132.303 201.963C133.227 201.29 134.523 200.953 136.191 200.953H138.125V200.04C138.125 199.345 137.917 198.794 137.502 198.386C137.087 197.97 136.474 197.763 135.665 197.763C134.956 197.763 134.362 197.942 133.882 198.3C133.402 198.658 133.162 199.091 133.162 199.6H131.164C131.164 199.02 131.368 198.461 131.776 197.924C132.192 197.38 132.75 196.95 133.452 196.635C134.161 196.32 134.938 196.162 135.783 196.162C137.122 196.162 138.172 196.499 138.931 197.172C139.69 197.838 140.084 198.758 140.112 199.933V205.282C140.112 206.349 140.248 207.198 140.521 207.828V208H138.437ZM135.139 206.485C135.762 206.485 136.353 206.324 136.911 206.002C137.47 205.68 137.874 205.261 138.125 204.745V202.36H136.567C134.133 202.36 132.915 203.073 132.915 204.498C132.915 205.121 133.123 205.608 133.538 205.959C133.953 206.31 134.487 206.485 135.139 206.485ZM136.976 191.5H139.382L136.503 194.658H134.902L136.976 191.5ZM143.627 208H141.639V191.5H143.627V208ZM147.753 193.562V196.377H149.923V197.913H147.753V205.121C147.753 205.587 147.85 205.938 148.044 206.174C148.237 206.403 148.566 206.518 149.032 206.518C149.261 206.518 149.576 206.475 149.977 206.389V208C149.454 208.143 148.946 208.215 148.452 208.215C147.564 208.215 146.894 207.946 146.443 207.409C145.992 206.872 145.766 206.109 145.766 205.121V197.913H143.65V196.377H145.766V193.562H147.753ZM157.67 208C157.556 207.771 157.463 207.363 157.391 206.775C156.467 207.735 155.364 208.215 154.082 208.215C152.937 208.215 151.995 207.893 151.257 207.248C150.527 206.596 150.161 205.773 150.161 204.777C150.161 203.567 150.62 202.629 151.536 201.963C152.46 201.29 153.756 200.953 155.425 200.953H157.359V200.04C157.359 199.345 157.151 198.794 156.736 198.386C156.32 197.97 155.708 197.763 154.899 197.763C154.19 197.763 153.595 197.942 153.116 198.3C152.636 198.658 152.396 199.091 152.396 199.6H150.398C150.398 199.02 150.602 198.461 151.01 197.924C151.425 197.38 151.984 196.95 152.686 196.635C153.395 196.32 154.172 196.162 155.017 196.162C156.356 196.162 157.405 196.499 158.164 197.172C158.923 197.838 159.317 198.758 159.346 199.933V205.282C159.346 206.349 159.482 207.198 159.754 207.828V208H157.67ZM154.372 206.485C154.995 206.485 155.586 206.324 156.145 206.002C156.703 205.68 157.108 205.261 157.359 204.745V202.36H155.801C153.366 202.36 152.149 203.073 152.149 204.498C152.149 205.121 152.356 205.608 152.772 205.959C153.187 206.31 153.721 206.485 154.372 206.485ZM162.86 208H160.873V191.5H162.86V208ZM6.92727 228.618L5.68118 229.918V234H3.69387V217.5H5.68118V227.479L6.74465 226.201L10.3648 222.377H12.7818L8.2593 227.232L13.3081 234H10.9771L6.92727 228.618ZM17.6819 234.215C16.1064 234.215 14.8245 233.699 13.8362 232.668C12.8479 231.63 12.3538 230.244 12.3538 228.511V228.146C12.3538 226.993 12.5722 225.965 13.0091 225.062C13.4531 224.153 14.069 223.444 14.8567 222.936C15.6516 222.42 16.511 222.162 17.4348 222.162C18.9459 222.162 20.1204 222.66 20.9583 223.655C21.7962 224.651 22.2151 226.076 22.2151 227.931V228.758H14.3411C14.3697 229.904 14.7028 230.831 15.3401 231.54C15.9847 232.242 16.8011 232.593 17.7893 232.593C18.4912 232.593 19.0856 232.45 19.5725 232.163C20.0595 231.877 20.4856 231.497 20.8509 231.024L22.0647 231.97C21.0908 233.466 19.6298 234.215 17.6819 234.215ZM17.4348 223.795C16.6328 223.795 15.9596 224.089 15.4153 224.676C14.871 225.256 14.5345 226.072 14.4056 227.125H20.2278V226.975C20.1705 225.965 19.8984 225.184 19.4114 224.633C18.9244 224.074 18.2656 223.795 17.4348 223.795ZM18.4016 217.5H20.8079L17.929 220.658H16.3284L18.4016 217.5ZM29.5323 230.917C29.5323 230.38 29.3282 229.965 28.92 229.671C28.5189 229.37 27.8135 229.112 26.8038 228.897C25.8011 228.683 25.0026 228.425 24.4082 228.124C23.821 227.823 23.3842 227.465 23.0977 227.05C22.8184 226.634 22.6788 226.14 22.6788 225.567C22.6788 224.615 23.0798 223.809 23.8819 223.15C24.6911 222.492 25.7224 222.162 26.9756 222.162C28.2933 222.162 29.3604 222.502 30.1768 223.183C31.0004 223.863 31.4122 224.733 31.4122 225.793H29.4141C29.4141 225.249 29.1814 224.78 28.7159 224.386C28.2575 223.992 27.6775 223.795 26.9756 223.795C26.2523 223.795 25.6866 223.952 25.2784 224.268C24.8702 224.583 24.6661 224.994 24.6661 225.503C24.6661 225.983 24.8558 226.344 25.2354 226.588C25.615 226.831 26.2989 227.064 27.2872 227.286C28.2826 227.508 29.0883 227.773 29.7041 228.081C30.32 228.389 30.7748 228.761 31.0684 229.198C31.3692 229.628 31.5196 230.154 31.5196 230.777C31.5196 231.816 31.1042 232.65 30.2735 233.28C29.4428 233.903 28.365 234.215 27.0401 234.215C26.1091 234.215 25.2855 234.05 24.5694 233.721C23.8532 233.391 23.2911 232.933 22.8829 232.346C22.4818 231.751 22.2813 231.11 22.2813 230.423H24.2686C24.3044 231.089 24.5694 231.619 25.0635 232.013C25.5648 232.399 26.2237 232.593 27.0401 232.593C27.792 232.593 28.3936 232.442 28.8448 232.142C29.3031 231.834 29.5323 231.425 29.5323 230.917ZM34.2176 232.378H41.0174V234H31.7898V232.539L38.2029 224.021H31.8865V222.377H40.6951V223.784L34.2176 232.378ZM43.6617 234H41.6636V222.377H43.6617V234ZM43.6832 217.511H46.0894L43.2105 220.669H41.6099L43.6832 217.511ZM47.8743 219.562V222.377H50.0443V223.913H47.8743V231.121C47.8743 231.587 47.971 231.938 48.1644 232.174C48.3577 232.403 48.6872 232.518 49.1527 232.518C49.3818 232.518 49.6969 232.475 50.098 232.389V234C49.5752 234.143 49.0667 234.215 48.5726 234.215C47.6846 234.215 47.015 233.946 46.5638 233.409C46.1126 232.872 45.887 232.109 45.887 231.121V223.913H43.7708V222.377H45.887V219.562H47.8743ZM55.4386 234.215C53.863 234.215 52.5811 233.699 51.5929 232.668C50.6046 231.63 50.1104 230.244 50.1104 228.511V228.146C50.1104 226.993 50.3289 225.965 50.7657 225.062C51.2097 224.153 51.8256 223.444 52.6134 222.936C53.4083 222.42 54.2677 222.162 55.1915 222.162C56.7026 222.162 57.877 222.66 58.7149 223.655C59.5528 224.651 59.9718 226.076 59.9718 227.931V228.758H52.0977C52.1264 229.904 52.4594 230.831 53.0968 231.54C53.7413 232.242 54.5577 232.593 55.546 232.593C56.2478 232.593 56.8422 232.45 57.3292 232.163C57.8162 231.877 58.2423 231.497 58.6075 231.024L59.8214 231.97C58.8474 233.466 57.3865 234.215 55.4386 234.215ZM55.1915 223.795C54.3894 223.795 53.7162 224.089 53.172 224.676C52.6277 225.256 52.2911 226.072 52.1622 227.125H57.9845V226.975C57.9272 225.965 57.655 225.184 57.168 224.633C56.6811 224.074 56.0222 223.795 55.1915 223.795ZM63.2176 219.562V222.377H65.3875V223.913H63.2176V231.121C63.2176 231.587 63.3143 231.938 63.5077 232.174C63.701 232.403 64.0304 232.518 64.4959 232.518C64.7251 232.518 65.0402 232.475 65.4413 232.389V234C64.9185 234.143 64.41 234.215 63.9159 234.215C63.0278 234.215 62.3582 233.946 61.9071 233.409C61.4559 232.872 61.2303 232.109 61.2303 231.121V223.913H59.1141V222.377H61.2303V219.562H63.2176ZM68.6549 219.562V222.377H70.8248V223.913H68.6549V231.121C68.6549 231.587 68.7516 231.938 68.9449 232.174C69.1383 232.403 69.4677 232.518 69.9332 232.518C70.1624 232.518 70.4775 232.475 70.8785 232.389V234C70.3557 234.143 69.8473 234.215 69.3531 234.215C68.4651 234.215 67.7955 233.946 67.3443 233.409C66.8932 232.872 66.6676 232.109 66.6676 231.121V223.913H64.5514V222.377H66.6676V219.562H68.6549ZM77.7892 219.562V222.377H79.9591V223.913H77.7892V231.121C77.7892 231.587 77.8859 231.938 78.0792 232.174C78.2726 232.403 78.602 232.518 79.0675 232.518C79.2967 232.518 79.6118 232.475 80.0128 232.389V234C79.49 234.143 78.9816 234.215 78.4874 234.215C77.5994 234.215 76.9298 233.946 76.4786 233.409C76.0275 232.872 75.8019 232.109 75.8019 231.121V223.913H73.6857V222.377H75.8019V219.562H77.7892ZM87.7059 234C87.5914 233.771 87.4983 233.363 87.4266 232.775C86.5028 233.735 85.4 234.215 84.118 234.215C82.9722 234.215 82.0305 233.893 81.2929 233.248C80.5624 232.596 80.1972 231.773 80.1972 230.777C80.1972 229.567 80.6555 228.629 81.5722 227.963C82.496 227.29 83.7922 226.953 85.4608 226.953H87.3944V226.04C87.3944 225.345 87.1867 224.794 86.7714 224.386C86.356 223.97 85.7437 223.763 84.9345 223.763C84.2255 223.763 83.6311 223.942 83.1513 224.3C82.6714 224.658 82.4315 225.091 82.4315 225.6H80.4335C80.4335 225.02 80.6376 224.461 81.0458 223.924C81.4611 223.38 82.0197 222.95 82.7216 222.635C83.4305 222.32 84.2076 222.162 85.0526 222.162C86.3918 222.162 87.441 222.499 88.2001 223.172C88.9592 223.838 89.3531 224.758 89.3817 225.933V231.282C89.3817 232.349 89.5178 233.198 89.7899 233.828V234H87.7059ZM84.4081 232.485C85.0311 232.485 85.622 232.324 86.1805 232.002C86.7391 231.68 87.1438 231.261 87.3944 230.745V228.36H85.8368C83.4019 228.36 82.1845 229.073 82.1845 230.498C82.1845 231.121 82.3921 231.608 82.8075 231.959C83.2229 232.31 83.7564 232.485 84.4081 232.485ZM92.6168 222.377L92.6813 223.838C93.5693 222.721 94.7295 222.162 96.1618 222.162C98.6181 222.162 99.8571 223.548 99.8786 226.319V234H97.8913V226.309C97.8841 225.471 97.6907 224.851 97.3112 224.45C96.9388 224.049 96.3551 223.849 95.5602 223.849C94.9157 223.849 94.3499 224.021 93.8629 224.364C93.376 224.708 92.9964 225.159 92.7243 225.718V234H90.737V222.377H92.6168ZM108.291 232.851C107.518 233.76 106.383 234.215 104.886 234.215C103.647 234.215 102.702 233.857 102.05 233.141C101.406 232.417 101.08 231.35 101.073 229.939V222.377H103.06V229.886C103.06 231.647 103.776 232.528 105.208 232.528C106.727 232.528 107.736 231.963 108.238 230.831V222.377H110.225V234H108.334L108.291 232.851ZM113.653 234H111.666V217.5H113.653V234ZM116.953 222.377L117.007 223.666C117.859 222.663 119.008 222.162 120.455 222.162C122.081 222.162 123.187 222.785 123.774 224.031C124.161 223.473 124.662 223.021 125.278 222.678C125.901 222.334 126.635 222.162 127.48 222.162C130.03 222.162 131.326 223.512 131.369 226.212V234H129.382V226.33C129.382 225.499 129.192 224.88 128.812 224.472C128.433 224.056 127.795 223.849 126.9 223.849C126.163 223.849 125.55 224.071 125.063 224.515C124.576 224.951 124.294 225.542 124.215 226.287V234H122.217V226.384C122.217 224.694 121.39 223.849 119.735 223.849C118.432 223.849 117.54 224.404 117.06 225.514V234H115.073V222.377H116.953ZM139.793 234C139.678 233.771 139.585 233.363 139.513 232.775C138.59 233.735 137.487 234.215 136.205 234.215C135.059 234.215 134.117 233.893 133.38 233.248C132.649 232.596 132.284 231.773 132.284 230.777C132.284 229.567 132.742 228.629 133.659 227.963C134.583 227.29 135.879 226.953 137.548 226.953H139.481V226.04C139.481 225.345 139.273 224.794 138.858 224.386C138.443 223.97 137.83 223.763 137.021 223.763C136.312 223.763 135.718 223.942 135.238 224.3C134.758 224.658 134.518 225.091 134.518 225.6H132.52C132.52 225.02 132.724 224.461 133.133 223.924C133.548 223.38 134.106 222.95 134.808 222.635C135.517 222.32 136.294 222.162 137.139 222.162C138.479 222.162 139.528 222.499 140.287 223.172C141.046 223.838 141.44 224.758 141.468 225.933V231.282C141.468 232.349 141.605 233.198 141.877 233.828V234H139.793ZM136.495 232.485C137.118 232.485 137.709 232.324 138.267 232.002C138.826 231.68 139.23 231.261 139.481 230.745V228.36H137.924C135.489 228.36 134.271 229.073 134.271 230.498C134.271 231.121 134.479 231.608 134.894 231.959C135.31 232.31 135.843 232.485 136.495 232.485ZM138.332 217.5H140.738L137.859 220.658H136.258L138.332 217.5ZM144.704 222.377L144.768 223.838C145.656 222.721 146.816 222.162 148.248 222.162C150.705 222.162 151.944 223.548 151.965 226.319V234H149.978V226.309C149.971 225.471 149.777 224.851 149.398 224.45C149.025 224.049 148.442 223.849 147.647 223.849C147.002 223.849 146.437 224.021 145.95 224.364C145.463 224.708 145.083 225.159 144.811 225.718V234H142.824V222.377H144.704ZM157.005 231.089L159.712 222.377H161.839L157.166 235.794C156.443 237.728 155.294 238.694 153.718 238.694L153.342 238.662L152.601 238.522V236.911L153.138 236.954C153.811 236.954 154.334 236.818 154.706 236.546C155.086 236.274 155.397 235.776 155.641 235.053L156.081 233.871L151.935 222.377H154.105L157.005 231.089ZM161.164 228.081C161.164 226.942 161.386 225.918 161.83 225.009C162.281 224.099 162.904 223.397 163.699 222.903C164.501 222.409 165.414 222.162 166.438 222.162C168.021 222.162 169.299 222.71 170.273 223.806C171.255 224.901 171.745 226.359 171.745 228.178V228.317C171.745 229.449 171.527 230.466 171.09 231.368C170.66 232.263 170.041 232.962 169.231 233.463C168.429 233.964 167.506 234.215 166.46 234.215C164.884 234.215 163.606 233.667 162.625 232.571C161.651 231.476 161.164 230.025 161.164 228.221V228.081ZM163.162 228.317C163.162 229.606 163.459 230.641 164.054 231.422C164.655 232.202 165.457 232.593 166.46 232.593C167.47 232.593 168.272 232.199 168.866 231.411C169.461 230.616 169.758 229.506 169.758 228.081C169.758 226.806 169.453 225.775 168.845 224.987C168.243 224.192 167.441 223.795 166.438 223.795C165.457 223.795 164.666 224.185 164.064 224.966C163.463 225.746 163.162 226.864 163.162 228.317ZM175.721 228.618L174.475 229.918V234H172.488V217.5H174.475V227.479L175.539 226.201L179.159 222.377H181.576L177.053 227.232L182.102 234H179.771L175.721 228.618Z" fill="#ECE7DD"/>
</svg>
