<svg width="187" height="374" viewBox="0 0 187 374" fill="none" xmlns="http://www.w3.org/2000/svg">
<rect x="0.285156" y="0.714111" width="186.094" height="372.294" fill="#1B1D19"/>
<path d="M62.6587 318.226H58.7739V329H57.1885V318.226H53.312V316.914H62.6587V318.226ZM73.5161 323.347C73.5161 324.531 73.3169 325.566 72.9185 326.452C72.52 327.332 71.9556 328.004 71.2251 328.469C70.4946 328.934 69.6424 329.166 68.6685 329.166C67.7166 329.166 66.8727 328.934 66.1367 328.469C65.4007 327.998 64.828 327.332 64.4185 326.468C64.0145 325.599 63.807 324.595 63.7959 323.455V322.583C63.7959 321.421 63.9979 320.395 64.4019 319.504C64.8058 318.613 65.3758 317.932 66.1118 317.462C66.8534 316.986 67.7 316.748 68.6519 316.748C69.6203 316.748 70.4725 316.983 71.2085 317.454C71.95 317.918 72.52 318.596 72.9185 319.487C73.3169 320.373 73.5161 321.405 73.5161 322.583V323.347ZM71.9307 322.567C71.9307 321.134 71.6429 320.035 71.0674 319.271C70.4919 318.502 69.6867 318.118 68.6519 318.118C67.6447 318.118 66.8506 318.502 66.2695 319.271C65.694 320.035 65.3979 321.098 65.3813 322.459V323.347C65.3813 324.736 65.6719 325.829 66.2529 326.626C66.8395 327.417 67.6447 327.813 68.6685 327.813C69.6978 327.813 70.4946 327.439 71.0591 326.692C71.6235 325.94 71.9141 324.863 71.9307 323.463V322.567ZM79.7251 326.883L83.1782 316.914H84.9214L80.439 329H79.0278L74.5537 316.914H76.2886L79.7251 326.883ZM92.5913 325.846H87.5278L86.3906 329H84.7471L89.3623 316.914H90.7568L95.3804 329H93.7451L92.5913 325.846ZM88.0093 324.534H92.1182L90.0596 318.881L88.0093 324.534ZM90.8481 313.677H92.7075L90.4829 316.117H89.2461L90.8481 313.677ZM97.0073 329V316.914H100.958C102.27 316.914 103.255 317.185 103.914 317.728C104.578 318.27 104.91 319.072 104.91 320.135C104.91 320.699 104.749 321.2 104.428 321.637C104.107 322.069 103.67 322.404 103.117 322.642C103.77 322.824 104.284 323.173 104.661 323.688C105.042 324.197 105.233 324.805 105.233 325.514C105.233 326.598 104.882 327.451 104.179 328.07C103.476 328.69 102.483 329 101.199 329H97.0073ZM98.6011 323.347V327.697H101.232C101.974 327.697 102.558 327.506 102.984 327.124C103.416 326.737 103.631 326.205 103.631 325.53C103.631 324.075 102.84 323.347 101.257 323.347H98.6011ZM98.6011 322.069H101.008C101.706 322.069 102.262 321.895 102.677 321.546C103.097 321.197 103.308 320.724 103.308 320.126C103.308 319.462 103.114 318.981 102.727 318.682C102.339 318.378 101.75 318.226 100.958 318.226H98.6011V322.069ZM107.599 329V316.914H111.55C112.862 316.914 113.847 317.185 114.505 317.728C115.169 318.27 115.501 319.072 115.501 320.135C115.501 320.699 115.341 321.2 115.02 321.637C114.699 322.069 114.262 322.404 113.708 322.642C114.361 322.824 114.876 323.173 115.252 323.688C115.634 324.197 115.825 324.805 115.825 325.514C115.825 326.598 115.474 327.451 114.771 328.07C114.068 328.69 113.075 329 111.791 329H107.599ZM109.193 323.347V327.697H111.824C112.566 327.697 113.15 327.506 113.576 327.124C114.007 326.737 114.223 326.205 114.223 325.53C114.223 324.075 113.432 323.347 111.849 323.347H109.193ZM109.193 322.069H111.6C112.297 322.069 112.854 321.895 113.269 321.546C113.689 321.197 113.899 320.724 113.899 320.126C113.899 319.462 113.706 318.981 113.318 318.682C112.931 318.378 112.342 318.226 111.55 318.226H109.193V322.069ZM129.082 325.846H124.018L122.881 329H121.237L125.853 316.914H127.247L131.871 329H130.235L129.082 325.846ZM124.5 324.534H128.608L126.55 318.881L124.5 324.534ZM29.5386 339.164H25.9111V349H22.9976V339.164H19.4365V336.914H29.5386V339.164ZM36.644 346.742H32.6514L31.9541 349H28.8413L33.2739 336.914H36.0132L40.479 349H37.3496L36.644 346.742ZM33.3486 344.493H35.9468L34.6436 340.301L33.3486 344.493ZM51.4609 349H48.564L44.2808 341.479V349H41.3672V336.914H44.2808L48.5557 344.435V336.914H51.4609V349ZM62.7832 336.914V344.825C62.7832 345.721 62.5923 346.499 62.2104 347.157C61.8286 347.81 61.2808 348.308 60.5669 348.651C59.853 348.994 59.0091 349.166 58.0352 349.166C56.5632 349.166 55.4038 348.784 54.5571 348.021C53.7104 347.257 53.2788 346.211 53.2622 344.883V336.914H56.1924V344.941C56.2256 346.264 56.8398 346.925 58.0352 346.925C58.6383 346.925 59.0949 346.759 59.4048 346.427C59.7147 346.095 59.8696 345.555 59.8696 344.808V336.914H62.7832ZM67.5229 346.759H72.5947V349H64.6094V336.914H67.5229V346.759ZM77.6499 336.914L80.3477 345.323L83.0371 336.914H86.8721V349H83.9502V346.178L84.2324 340.4L81.3105 349H79.3848L76.4546 340.392L76.7368 346.178V349H73.8232V336.914H77.6499ZM95.7456 346.742H91.7529L91.0557 349H87.9429L92.3755 336.914H95.1147L99.5806 349H96.4512L95.7456 346.742ZM92.4502 344.493H95.0483L93.7451 340.301L92.4502 344.493ZM94.127 333.677H97.082L94.7744 336.283H92.4917L94.127 333.677ZM110.562 349H107.666L103.382 341.479V349H100.469V336.914H103.382L107.657 344.435V336.914H110.562V349ZM116.597 342.16L118.822 336.914H121.968L118.075 344.659V349H115.12V344.659L111.235 336.914H114.364L116.597 342.16ZM132.833 343.206C132.833 344.385 132.615 345.428 132.178 346.335C131.741 347.243 131.118 347.943 130.31 348.436C129.508 348.923 128.592 349.166 127.562 349.166C126.533 349.166 125.62 348.931 124.823 348.46C124.026 347.985 123.404 347.307 122.956 346.427C122.513 345.547 122.28 344.537 122.258 343.397V342.716C122.258 341.532 122.474 340.489 122.906 339.587C123.343 338.679 123.965 337.979 124.773 337.487C125.587 336.994 126.511 336.748 127.546 336.748C128.57 336.748 129.483 336.992 130.285 337.479C131.088 337.965 131.71 338.66 132.153 339.562C132.601 340.458 132.828 341.488 132.833 342.65V343.206ZM129.87 342.7C129.87 341.499 129.668 340.589 129.264 339.969C128.866 339.343 128.293 339.031 127.546 339.031C126.085 339.031 125.313 340.126 125.23 342.318L125.222 343.206C125.222 344.39 125.418 345.301 125.811 345.937C126.204 346.573 126.788 346.892 127.562 346.892C128.299 346.892 128.866 346.579 129.264 345.954C129.663 345.328 129.865 344.429 129.87 343.256V342.7ZM138.445 344.501L137.25 345.812V349H134.336V336.914H137.25V342.243L138.262 340.708L140.869 336.914H144.471L140.387 342.26L144.471 349H141.018L138.445 344.501ZM150.132 344.111H147.293V349H145.691V336.914H149.692C151.054 336.914 152.1 337.224 152.83 337.844C153.566 338.464 153.934 339.366 153.934 340.55C153.934 341.302 153.729 341.958 153.32 342.517C152.916 343.076 152.351 343.494 151.626 343.771L154.465 348.9V349H152.755L150.132 344.111ZM147.293 342.808H149.742C150.534 342.808 151.162 342.603 151.626 342.193C152.097 341.784 152.332 341.236 152.332 340.55C152.332 339.803 152.108 339.23 151.66 338.832C151.217 338.433 150.575 338.231 149.734 338.226H147.293V342.808ZM162.849 345.846H157.786L156.648 349H155.005L159.62 336.914H161.015L165.638 349H164.003L162.849 345.846ZM158.267 344.534H162.376L160.317 338.881L158.267 344.534Z" fill="#ECE7DD"/>
<path d="M25.6009 152.777H19.9505L18.8763 156H15.4496L21.2718 140.359H24.2582L30.1127 156H26.6859L25.6009 152.777ZM20.8207 150.167H24.7308L22.765 144.312L20.8207 150.167ZM45.5909 156H42.3682L36.0948 145.709V156H32.8721V140.359H36.0948L42.3789 150.672V140.359H45.5909V156ZM51.4608 156.215C49.7564 156.215 48.3671 155.692 47.2929 154.646C46.2258 153.601 45.6923 152.208 45.6923 150.468V150.167C45.6923 149 45.9179 147.958 46.369 147.041C46.8202 146.117 47.4576 145.408 48.2811 144.914C49.1119 144.413 50.0572 144.162 51.1171 144.162C52.7069 144.162 53.9566 144.663 54.8661 145.666C55.7828 146.669 56.2411 148.09 56.2411 149.931V151.198H48.8397C48.94 151.957 49.2408 152.566 49.7421 153.024C50.2505 153.483 50.8915 153.712 51.6649 153.712C52.8609 153.712 53.7955 153.279 54.4686 152.412L55.994 154.12C55.5285 154.779 54.8983 155.295 54.1034 155.667C53.3085 156.032 52.4276 156.215 51.4608 156.215ZM51.1063 146.676C50.4904 146.676 49.9891 146.883 49.6024 147.299C49.2229 147.714 48.9794 148.309 48.872 149.082H53.1903V148.835C53.176 148.147 52.9898 147.618 52.6317 147.245C52.2736 146.866 51.7652 146.676 51.1063 146.676ZM58.8347 144.377L58.9314 145.677C59.7549 144.667 60.8685 144.162 62.2722 144.162C63.7689 144.162 64.7966 144.753 65.3552 145.935C66.1716 144.753 67.3353 144.162 68.8464 144.162C70.1068 144.162 71.045 144.531 71.6609 145.269C72.2767 145.999 72.5847 147.102 72.5847 148.577V156H69.4695V148.588C69.4695 147.929 69.3405 147.449 69.0827 147.148C68.8249 146.84 68.3702 146.687 67.7185 146.687C66.7875 146.687 66.143 147.131 65.7849 148.019L65.7956 156H62.6911V148.599C62.6911 147.925 62.5586 147.438 62.2937 147.138C62.0287 146.837 61.5775 146.687 60.9402 146.687C60.0593 146.687 59.4219 147.052 59.028 147.782V156H55.9236V144.377H58.8347ZM76.4566 153.497H82.1392V156H72.4927V154.109L77.9605 146.891H72.6539V144.377H81.9673V146.214L76.4566 153.497ZM87.1713 156.215C85.4669 156.215 84.0775 155.692 83.0033 154.646C81.9363 153.601 81.4027 152.208 81.4027 150.468V150.167C81.4027 149 81.6283 147.958 82.0795 147.041C82.5307 146.117 83.168 145.408 83.9916 144.914C84.8223 144.413 85.7676 144.162 86.8275 144.162C88.4174 144.162 89.6671 144.663 90.5766 145.666C91.4932 146.669 91.9516 148.09 91.9516 149.931V151.198H84.5502C84.6505 151.957 84.9512 152.566 85.4525 153.024C85.961 153.483 86.602 153.712 87.3754 153.712C88.5714 153.712 89.5059 153.279 90.1791 152.412L91.7045 154.12C91.239 154.779 90.6088 155.295 89.8139 155.667C89.0189 156.032 88.1381 156.215 87.1713 156.215ZM86.8168 146.676C86.2009 146.676 85.6996 146.883 85.3129 147.299C84.9333 147.714 84.6898 148.309 84.5824 149.082H88.9008V148.835C88.8865 148.147 88.7003 147.618 88.3422 147.245C87.9841 146.866 87.4756 146.676 86.8168 146.676ZM95.3508 141.52V144.377H97.3381V146.654H95.3508V152.455C95.3508 152.885 95.4332 153.193 95.5979 153.379C95.7626 153.565 96.0777 153.658 96.5432 153.658C96.887 153.658 97.1913 153.633 97.4563 153.583V155.936C96.8476 156.122 96.2209 156.215 95.5764 156.215C93.3993 156.215 92.2893 155.116 92.2463 152.917V146.654H90.5491V144.377H92.2463V141.52H95.3508ZM103.273 152.788C103.273 152.409 103.083 152.111 102.703 151.896C102.331 151.674 101.729 151.478 100.899 151.306C98.1342 150.726 96.752 149.551 96.752 147.782C96.752 146.751 97.1781 145.892 98.0303 145.204C98.8897 144.509 100.01 144.162 101.393 144.162C102.868 144.162 104.046 144.509 104.927 145.204C105.815 145.899 106.259 146.801 106.259 147.911H103.154C103.154 147.467 103.011 147.102 102.725 146.815C102.438 146.522 101.991 146.375 101.382 146.375C100.859 146.375 100.455 146.493 100.168 146.729C99.8816 146.966 99.7384 147.267 99.7384 147.632C99.7384 147.976 99.8995 148.255 100.222 148.47C100.551 148.677 101.103 148.86 101.876 149.018C102.649 149.168 103.301 149.34 103.831 149.533C105.471 150.135 106.291 151.177 106.291 152.659C106.291 153.719 105.836 154.578 104.927 155.237C104.017 155.889 102.843 156.215 101.403 156.215C100.429 156.215 99.5629 156.043 98.8038 155.699C98.0518 155.348 97.461 154.872 97.0313 154.271C96.6016 153.662 96.3868 153.007 96.3868 152.305H99.3302C99.3588 152.856 99.5629 153.279 99.9425 153.572C100.322 153.866 100.83 154.013 101.468 154.013C102.062 154.013 102.51 153.902 102.811 153.68C103.119 153.451 103.273 153.153 103.273 152.788ZM109.927 141.52V144.377H111.914V146.654H109.927V152.455C109.927 152.885 110.009 153.193 110.174 153.379C110.338 153.565 110.654 153.658 111.119 153.658C111.463 153.658 111.767 153.633 112.032 153.583V155.936C111.423 156.122 110.797 156.215 110.152 156.215C107.975 156.215 106.865 155.116 106.822 152.917V146.654H105.125V144.377H106.822V141.52H109.927ZM118.085 147.288C117.662 147.231 117.29 147.202 116.968 147.202C115.793 147.202 115.023 147.6 114.658 148.395V156H111.553V144.377H114.486L114.572 145.763C115.195 144.696 116.058 144.162 117.161 144.162C117.505 144.162 117.827 144.209 118.128 144.302L118.085 147.288ZM123.912 156C123.768 155.721 123.665 155.373 123.6 154.958C122.848 155.796 121.871 156.215 120.668 156.215C119.529 156.215 118.584 155.885 117.832 155.227C117.087 154.568 116.714 153.737 116.714 152.734C116.714 151.503 117.169 150.557 118.079 149.898C118.995 149.24 120.317 148.907 122.043 148.899H123.471V148.233C123.471 147.696 123.332 147.267 123.052 146.944C122.78 146.622 122.347 146.461 121.753 146.461C121.23 146.461 120.818 146.586 120.517 146.837C120.224 147.088 120.077 147.431 120.077 147.868H116.972C116.972 147.195 117.18 146.572 117.595 145.999C118.011 145.426 118.598 144.979 119.357 144.656C120.116 144.327 120.968 144.162 121.914 144.162C123.346 144.162 124.481 144.524 125.319 145.247C126.164 145.963 126.587 146.973 126.587 148.276V153.314C126.594 154.417 126.748 155.252 127.048 155.817V156H123.912ZM121.344 153.841C121.803 153.841 122.225 153.741 122.612 153.54C122.999 153.332 123.285 153.057 123.471 152.713V150.715H122.311C120.757 150.715 119.93 151.252 119.83 152.326L119.819 152.509C119.819 152.896 119.955 153.214 120.227 153.465C120.499 153.715 120.872 153.841 121.344 153.841ZM130.598 141.52V144.377H132.585V146.654H130.598V152.455C130.598 152.885 130.68 153.193 130.845 153.379C131.01 153.565 131.325 153.658 131.79 153.658C132.134 153.658 132.439 153.633 132.704 153.583V155.936C132.095 156.122 131.468 156.215 130.824 156.215C128.647 156.215 127.537 155.116 127.494 152.917V146.654H125.796V144.377H127.494V141.52H130.598ZM137.574 156.215C135.87 156.215 134.481 155.692 133.407 154.646C132.339 153.601 131.806 152.208 131.806 150.468V150.167C131.806 149 132.032 147.958 132.483 147.041C132.934 146.117 133.571 145.408 134.395 144.914C135.226 144.413 136.171 144.162 137.231 144.162C138.821 144.162 140.07 144.663 140.98 145.666C141.896 146.669 142.355 148.09 142.355 149.931V151.198H134.953C135.054 151.957 135.354 152.566 135.856 153.024C136.364 153.483 137.005 153.712 137.779 153.712C138.975 153.712 139.909 153.279 140.582 152.412L142.108 154.12C141.642 154.779 141.012 155.295 140.217 155.667C139.422 156.032 138.541 156.215 137.574 156.215ZM137.22 146.676C136.604 146.676 136.103 146.883 135.716 147.299C135.337 147.714 135.093 148.309 134.986 149.082H139.304V148.835C139.29 148.147 139.103 147.618 138.745 147.245C138.387 146.866 137.879 146.676 137.22 146.676ZM137.499 139.5H140.883L137.908 142.83H135.383L137.499 139.5ZM141.586 150.103C141.586 148.319 142.009 146.883 142.854 145.795C143.706 144.706 144.852 144.162 146.291 144.162C147.566 144.162 148.558 144.599 149.267 145.473L149.396 144.377H152.21V155.613C152.21 156.63 151.977 157.515 151.512 158.267C151.054 159.019 150.405 159.591 149.568 159.985C148.73 160.379 147.748 160.576 146.624 160.576C145.772 160.576 144.941 160.404 144.132 160.061C143.323 159.724 142.71 159.287 142.295 158.75L143.67 156.859C144.443 157.726 145.382 158.159 146.484 158.159C147.308 158.159 147.949 157.937 148.407 157.493C148.866 157.056 149.095 156.433 149.095 155.624V155.001C148.379 155.81 147.437 156.215 146.27 156.215C144.873 156.215 143.742 155.671 142.875 154.582C142.016 153.486 141.586 152.036 141.586 150.231V150.103ZM144.691 150.328C144.691 151.381 144.902 152.208 145.324 152.81C145.747 153.404 146.327 153.701 147.065 153.701C148.01 153.701 148.687 153.347 149.095 152.638V147.75C148.679 147.041 148.01 146.687 147.086 146.687C146.341 146.687 145.754 146.991 145.324 147.6C144.902 148.208 144.691 149.118 144.691 150.328ZM155.792 156H152.677V144.377H155.792V156ZM152.494 141.369C152.494 140.904 152.648 140.521 152.956 140.22C153.271 139.919 153.697 139.769 154.234 139.769C154.764 139.769 155.187 139.919 155.502 140.22C155.817 140.521 155.975 140.904 155.975 141.369C155.975 141.842 155.813 142.229 155.491 142.529C155.176 142.83 154.757 142.98 154.234 142.98C153.712 142.98 153.289 142.83 152.967 142.529C152.652 142.229 152.494 141.842 152.494 141.369ZM163.005 156C162.861 155.721 162.758 155.373 162.693 154.958C161.941 155.796 160.964 156.215 159.761 156.215C158.622 156.215 157.677 155.885 156.925 155.227C156.18 154.568 155.807 153.737 155.807 152.734C155.807 151.503 156.262 150.557 157.172 149.898C158.088 149.24 159.41 148.907 161.136 148.899H162.564V148.233C162.564 147.696 162.425 147.267 162.145 146.944C161.873 146.622 161.44 146.461 160.846 146.461C160.323 146.461 159.911 146.586 159.61 146.837C159.317 147.088 159.17 147.431 159.17 147.868H156.065C156.065 147.195 156.273 146.572 156.688 145.999C157.104 145.426 157.691 144.979 158.45 144.656C159.209 144.327 160.061 144.162 161.007 144.162C162.439 144.162 163.574 144.524 164.412 145.247C165.257 145.963 165.679 146.973 165.679 148.276V153.314C165.687 154.417 165.841 155.252 166.141 155.817V156H163.005ZM160.437 153.841C160.896 153.841 161.318 153.741 161.705 153.54C162.092 153.332 162.378 153.057 162.564 152.713V150.715H161.404C159.85 150.715 159.023 151.252 158.923 152.326L158.912 152.509C158.912 152.896 159.048 153.214 159.32 153.465C159.592 153.715 159.965 153.841 160.437 153.841ZM169.251 156H166.135V144.377H169.251V156ZM165.953 141.369C165.953 140.904 166.107 140.521 166.415 140.22C166.73 139.919 167.156 139.769 167.693 139.769C168.223 139.769 168.645 139.919 168.961 140.22C169.276 140.521 169.433 140.904 169.433 141.369C169.433 141.842 169.272 142.229 168.95 142.529C168.635 142.83 168.216 142.98 167.693 142.98C167.17 142.98 166.748 142.83 166.425 142.529C166.11 142.229 165.953 141.842 165.953 141.369ZM45.5019 175.727L43.8261 177.531V182H40.6035V166.359H43.8261V173.449L45.2441 171.505L49.2295 166.359H53.1933L47.6396 173.31L53.3545 182H49.5195L45.5019 175.727ZM58.9773 180.818C58.2111 181.749 57.1512 182.215 55.7977 182.215C54.5516 182.215 53.5991 181.857 52.9402 181.141C52.2885 180.424 51.9555 179.375 51.9412 177.993V170.377H55.0457V177.886C55.0457 179.096 55.5971 179.701 56.7 179.701C57.7527 179.701 58.476 179.336 58.8699 178.605V170.377H61.9852V182H59.0633L58.9773 180.818ZM65.9538 167.52V170.377H67.9411V172.654H65.9538V178.455C65.9538 178.885 66.0361 179.193 66.2008 179.379C66.3655 179.565 66.6806 179.658 67.1461 179.658C67.4899 179.658 67.7942 179.633 68.0592 179.583V181.936C67.4505 182.122 66.8239 182.215 66.1793 182.215C64.0023 182.215 62.8922 181.116 62.8493 178.917V172.654H61.152V170.377H62.8493V167.52H65.9538ZM74.3159 182C74.1727 181.721 74.0688 181.373 74.0044 180.958C73.2524 181.796 72.2749 182.215 71.0718 182.215C69.9331 182.215 68.9878 181.885 68.2358 181.227C67.491 180.568 67.1186 179.737 67.1186 178.734C67.1186 177.503 67.5734 176.557 68.4829 175.898C69.3996 175.24 70.7209 174.907 72.4468 174.899H73.8755V174.233C73.8755 173.696 73.7358 173.267 73.4565 172.944C73.1844 172.622 72.7511 172.461 72.1567 172.461C71.6339 172.461 71.2222 172.586 70.9214 172.837C70.6278 173.088 70.4809 173.431 70.4809 173.868H67.3764C67.3764 173.195 67.5841 172.572 67.9995 171.999C68.4149 171.426 69.0021 170.979 69.7612 170.656C70.5203 170.327 71.3725 170.162 72.3179 170.162C73.7501 170.162 74.8852 170.524 75.7231 171.247C76.5682 171.963 76.9907 172.973 76.9907 174.276V179.314C76.9979 180.417 77.1518 181.252 77.4526 181.817V182H74.3159ZM71.7485 179.841C72.2069 179.841 72.6294 179.741 73.0161 179.54C73.4028 179.332 73.6893 179.057 73.8755 178.713V176.715H72.7153C71.1613 176.715 70.3341 177.252 70.2339 178.326L70.2231 178.509C70.2231 178.896 70.3592 179.214 70.6313 179.465C70.9035 179.715 71.2759 179.841 71.7485 179.841ZM81.0023 167.52V170.377H82.9896V172.654H81.0023V178.455C81.0023 178.885 81.0846 179.193 81.2493 179.379C81.414 179.565 81.7292 179.658 82.1946 179.658C82.5384 179.658 82.8428 179.633 83.1077 179.583V181.936C82.499 182.122 81.8724 182.215 81.2279 182.215C79.0508 182.215 77.9407 181.116 77.8978 178.917V172.654H76.2005V170.377H77.8978V167.52H81.0023ZM81.8234 176.081C81.8234 174.928 82.0454 173.9 82.4894 172.998C82.9334 172.096 83.5708 171.397 84.4015 170.903C85.2394 170.409 86.2098 170.162 87.3127 170.162C88.881 170.162 90.1593 170.642 91.1476 171.602C92.1431 172.561 92.6981 173.865 92.8127 175.512L92.8341 176.307C92.8341 178.09 92.3364 179.522 91.341 180.604C90.3455 181.678 89.0099 182.215 87.3341 182.215C85.6584 182.215 84.3192 181.678 83.3166 180.604C82.3211 179.529 81.8234 178.068 81.8234 176.221V176.081ZM84.9279 176.307C84.9279 177.41 85.1356 178.255 85.5509 178.842C85.9663 179.422 86.5607 179.712 87.3341 179.712C88.0861 179.712 88.6733 179.425 89.0959 178.853C89.5184 178.272 89.7296 177.349 89.7296 176.081C89.7296 175 89.5184 174.162 89.0959 173.567C88.6733 172.973 88.0789 172.676 87.3127 172.676C86.5535 172.676 85.9663 172.973 85.5509 173.567C85.1356 174.155 84.9279 175.068 84.9279 176.307ZM87.925 165.5H91.3087L88.3332 168.83H85.8087L87.925 165.5ZM95.9326 182H92.8174V170.377H95.9326V182ZM92.6348 167.369C92.6348 166.904 92.7887 166.521 93.0967 166.22C93.4118 165.919 93.8379 165.769 94.375 165.769C94.9049 165.769 95.3275 165.919 95.6426 166.22C95.9577 166.521 96.1152 166.904 96.1152 167.369C96.1152 167.842 95.9541 168.229 95.6318 168.529C95.3167 168.83 94.8978 168.98 94.375 168.98C93.8522 168.98 93.4297 168.83 93.1074 168.529C92.7923 168.229 92.6348 167.842 92.6348 167.369ZM99.2674 170.377L99.3641 171.72C100.195 170.681 101.308 170.162 102.705 170.162C103.937 170.162 104.853 170.524 105.455 171.247C106.056 171.97 106.364 173.052 106.379 174.491V182H103.274V174.566C103.274 173.908 103.131 173.431 102.845 173.138C102.558 172.837 102.082 172.687 101.416 172.687C100.542 172.687 99.8869 173.059 99.45 173.804V182H96.3456V170.377H99.2674ZM110.369 167.52V170.377H112.356V172.654H110.369V178.455C110.369 178.885 110.451 179.193 110.616 179.379C110.781 179.565 111.096 179.658 111.561 179.658C111.905 179.658 112.209 179.633 112.474 179.583V181.936C111.866 182.122 111.239 182.215 110.594 182.215C108.417 182.215 107.307 181.116 107.264 178.917V172.654H105.567V170.377H107.264V167.52H110.369ZM117.345 182.215C115.641 182.215 114.251 181.692 113.177 180.646C112.11 179.601 111.577 178.208 111.577 176.468V176.167C111.577 175 111.802 173.958 112.253 173.041C112.705 172.117 113.342 171.408 114.166 170.914C114.996 170.413 115.942 170.162 117.001 170.162C118.591 170.162 119.841 170.663 120.751 171.666C121.667 172.669 122.126 174.09 122.126 175.931V177.198H114.724C114.824 177.957 115.125 178.566 115.626 179.024C116.135 179.483 116.776 179.712 117.549 179.712C118.745 179.712 119.68 179.279 120.353 178.412L121.878 180.12C121.413 180.779 120.783 181.295 119.988 181.667C119.193 182.032 118.312 182.215 117.345 182.215ZM116.991 172.676C116.375 172.676 115.874 172.883 115.487 173.299C115.107 173.714 114.864 174.309 114.756 175.082H119.075V174.835C119.06 174.147 118.874 173.618 118.516 173.245C118.158 172.866 117.65 172.676 116.991 172.676ZM117.27 165.5H120.654L117.678 168.83H115.154L117.27 165.5ZM125.374 179.497H131.057V182H121.411V180.109L126.878 172.891H121.572V170.377H130.885V172.214L125.374 179.497ZM136.089 182.215C134.385 182.215 132.995 181.692 131.921 180.646C130.854 179.601 130.321 178.208 130.321 176.468V176.167C130.321 175 130.546 173.958 130.997 173.041C131.448 172.117 132.086 171.408 132.909 170.914C133.74 170.413 134.685 170.162 135.745 170.162C137.335 170.162 138.585 170.663 139.494 171.666C140.411 172.669 140.869 174.09 140.869 175.931V177.198H133.468C133.568 177.957 133.869 178.566 134.37 179.024C134.879 179.483 135.52 179.712 136.293 179.712C137.489 179.712 138.424 179.279 139.097 178.412L140.622 180.12C140.157 180.779 139.527 181.295 138.732 181.667C137.937 182.032 137.056 182.215 136.089 182.215ZM135.735 172.676C135.119 172.676 134.617 172.883 134.231 173.299C133.851 173.714 133.608 174.309 133.5 175.082H137.819V174.835C137.804 174.147 137.618 173.618 137.26 173.245C136.902 172.866 136.393 172.676 135.735 172.676ZM144.269 167.52V170.377H146.256V172.654H144.269V178.455C144.269 178.885 144.351 179.193 144.516 179.379C144.68 179.565 144.995 179.658 145.461 179.658C145.805 179.658 146.109 179.633 146.374 179.583V181.936C145.765 182.122 145.139 182.215 144.494 182.215C142.317 182.215 141.207 181.116 141.164 178.917V172.654H139.467V170.377H141.164V167.52H144.269ZM27.9934 196.377L28.0901 197.677C28.9137 196.667 30.0273 196.162 31.4309 196.162C32.9277 196.162 33.9554 196.753 34.5139 197.935C35.3304 196.753 36.4941 196.162 38.0052 196.162C39.2656 196.162 40.2037 196.531 40.8196 197.269C41.4355 197.999 41.7434 199.102 41.7434 200.577V208H38.6282V200.588C38.6282 199.929 38.4993 199.449 38.2415 199.148C37.9837 198.84 37.5289 198.687 36.8772 198.687C35.9462 198.687 35.3017 199.131 34.9436 200.019L34.9544 208H31.8499V200.599C31.8499 199.925 31.7174 199.438 31.4524 199.138C31.1874 198.837 30.7363 198.687 30.0989 198.687C29.218 198.687 28.5807 199.052 28.1868 199.782V208H25.0823V196.377H27.9934ZM49.0099 206.818C48.2436 207.749 47.1837 208.215 45.8302 208.215C44.5841 208.215 43.6316 207.857 42.9728 207.141C42.3211 206.424 41.9881 205.375 41.9738 203.993V196.377H45.0782V203.886C45.0782 205.096 45.6297 205.701 46.7325 205.701C47.7853 205.701 48.5086 205.336 48.9025 204.605V196.377H52.0177V208H49.0958L49.0099 206.818ZM55.1269 196.377L55.2236 197.72C56.0543 196.681 57.1679 196.162 58.5644 196.162C59.7962 196.162 60.7129 196.524 61.3144 197.247C61.916 197.97 62.2239 199.052 62.2382 200.491V208H59.1338V200.566C59.1338 199.908 58.9905 199.431 58.7041 199.138C58.4176 198.837 57.9414 198.687 57.2754 198.687C56.4017 198.687 55.7464 199.059 55.3095 199.804V208H52.205V196.377H55.1269ZM66.7332 203.338L65.616 204.455V208H62.5115V191.5H65.616V200.642L66.2176 199.868L69.1932 196.377H72.9207L68.7205 201.222L73.2859 208H69.7195L66.7332 203.338ZM78.9088 208C78.7656 207.721 78.6618 207.373 78.5973 206.958C77.8454 207.796 76.8678 208.215 75.6647 208.215C74.526 208.215 73.5807 207.885 72.8288 207.227C72.084 206.568 71.7116 205.737 71.7116 204.734C71.7116 203.503 72.1663 202.557 73.0758 201.898C73.9925 201.24 75.3138 200.907 77.0397 200.899H78.4684V200.233C78.4684 199.696 78.3288 199.267 78.0495 198.944C77.7773 198.622 77.3441 198.461 76.7496 198.461C76.2269 198.461 75.8151 198.586 75.5143 198.837C75.2207 199.088 75.0739 199.431 75.0739 199.868H71.9694C71.9694 199.195 72.1771 198.572 72.5924 197.999C73.0078 197.426 73.595 196.979 74.3541 196.656C75.1133 196.327 75.9655 196.162 76.9108 196.162C78.3431 196.162 79.4782 196.524 80.3161 197.247C81.1611 197.963 81.5836 198.973 81.5836 200.276V205.314C81.5908 206.417 81.7448 207.252 82.0455 207.817V208H78.9088ZM76.3414 205.841C76.7998 205.841 77.2223 205.741 77.609 205.54C77.9957 205.332 78.2822 205.057 78.4684 204.713V202.715H77.3082C75.7542 202.715 74.9271 203.252 74.8268 204.326L74.8161 204.509C74.8161 204.896 74.9521 205.214 75.2243 205.465C75.4964 205.715 75.8688 205.841 76.3414 205.841ZM85.5952 193.52V196.377H87.5825V198.654H85.5952V204.455C85.5952 204.885 85.6776 205.193 85.8423 205.379C86.007 205.565 86.3221 205.658 86.7876 205.658C87.1313 205.658 87.4357 205.633 87.7007 205.583V207.936C87.0919 208.122 86.4653 208.215 85.8208 208.215C83.6437 208.215 82.5337 207.116 82.4907 204.917V198.654H80.7934V196.377H82.4907V193.52H85.5952ZM93.9573 208C93.8141 207.721 93.7103 207.373 93.6458 206.958C92.8939 207.796 91.9163 208.215 90.7132 208.215C89.5745 208.215 88.6292 207.885 87.8773 207.227C87.1325 206.568 86.7601 205.737 86.7601 204.734C86.7601 203.503 87.2148 202.557 88.1243 201.898C89.041 201.24 90.3623 200.907 92.0882 200.899H93.5169V200.233C93.5169 199.696 93.3773 199.267 93.098 198.944C92.8258 198.622 92.3926 198.461 91.7982 198.461C91.2754 198.461 90.8636 198.586 90.5628 198.837C90.2692 199.088 90.1224 199.431 90.1224 199.868H87.0179C87.0179 199.195 87.2256 198.572 87.6409 197.999C88.0563 197.426 88.6435 196.979 89.4027 196.656C90.1618 196.327 91.014 196.162 91.9593 196.162C93.3916 196.162 94.5267 196.524 95.3646 197.247C96.2096 197.963 96.6321 198.973 96.6321 200.276V205.314C96.6393 206.417 96.7933 207.252 97.0941 207.817V208H93.9573ZM91.39 205.841C91.8483 205.841 92.2708 205.741 92.6575 205.54C93.0443 205.332 93.3307 205.057 93.5169 204.713V202.715H92.3568C90.8027 202.715 89.9756 203.252 89.8753 204.326L89.8646 204.509C89.8646 204.896 90.0006 205.214 90.2728 205.465C90.5449 205.715 90.9173 205.841 91.39 205.841ZM92.5716 191.5H95.9554L92.9798 194.83H90.4554L92.5716 191.5ZM103.458 199.288C103.036 199.231 102.663 199.202 102.341 199.202C101.167 199.202 100.397 199.6 100.031 200.395V208H96.9269V196.377H99.8595L99.9455 197.763C100.569 196.696 101.431 196.162 102.534 196.162C102.878 196.162 103.2 196.209 103.501 196.302L103.458 199.288ZM109.167 204.788C109.167 204.409 108.977 204.111 108.598 203.896C108.225 203.674 107.624 203.478 106.793 203.306C104.029 202.726 102.646 201.551 102.646 199.782C102.646 198.751 103.073 197.892 103.925 197.204C104.784 196.509 105.905 196.162 107.287 196.162C108.762 196.162 109.94 196.509 110.821 197.204C111.709 197.899 112.153 198.801 112.153 199.911H109.049C109.049 199.467 108.906 199.102 108.619 198.815C108.333 198.522 107.885 198.375 107.276 198.375C106.754 198.375 106.349 198.493 106.062 198.729C105.776 198.966 105.633 199.267 105.633 199.632C105.633 199.976 105.794 200.255 106.116 200.47C106.446 200.677 106.997 200.86 107.771 201.018C108.544 201.168 109.196 201.34 109.726 201.533C111.366 202.135 112.186 203.177 112.186 204.659C112.186 205.719 111.731 206.578 110.821 207.237C109.912 207.889 108.737 208.215 107.298 208.215C106.324 208.215 105.457 208.043 104.698 207.699C103.946 207.348 103.355 206.872 102.926 206.271C102.496 205.662 102.281 205.007 102.281 204.305H105.225C105.253 204.856 105.457 205.279 105.837 205.572C106.216 205.866 106.725 206.013 107.362 206.013C107.957 206.013 108.404 205.902 108.705 205.68C109.013 205.451 109.167 205.153 109.167 204.788ZM118.84 208C118.696 207.721 118.593 207.373 118.528 206.958C117.776 207.796 116.799 208.215 115.596 208.215C114.457 208.215 113.512 207.885 112.76 207.227C112.015 206.568 111.642 205.737 111.642 204.734C111.642 203.503 112.097 202.557 113.007 201.898C113.923 201.24 115.245 200.907 116.971 200.899H118.399V200.233C118.399 199.696 118.26 199.267 117.98 198.944C117.708 198.622 117.275 198.461 116.681 198.461C116.158 198.461 115.746 198.586 115.445 198.837C115.152 199.088 115.005 199.431 115.005 199.868H111.9C111.9 199.195 112.108 198.572 112.523 197.999C112.939 197.426 113.526 196.979 114.285 196.656C115.044 196.327 115.896 196.162 116.842 196.162C118.274 196.162 119.409 196.524 120.247 197.247C121.092 197.963 121.514 198.973 121.514 200.276V205.314C121.522 206.417 121.676 207.252 121.976 207.817V208H118.84ZM116.272 205.841C116.731 205.841 117.153 205.741 117.54 205.54C117.927 205.332 118.213 205.057 118.399 204.713V202.715H117.239C115.685 202.715 114.858 203.252 114.758 204.326L114.747 204.509C114.747 204.896 114.883 205.214 115.155 205.465C115.427 205.715 115.8 205.841 116.272 205.841ZM125.086 208H121.97V196.377H125.086V208ZM121.788 193.369C121.788 192.904 121.942 192.521 122.25 192.22C122.565 191.919 122.991 191.769 123.528 191.769C124.058 191.769 124.48 191.919 124.796 192.22C125.111 192.521 125.268 192.904 125.268 193.369C125.268 193.842 125.107 194.229 124.785 194.529C124.47 194.83 124.051 194.98 123.528 194.98C123.005 194.98 122.583 194.83 122.26 194.529C121.945 194.229 121.788 193.842 121.788 193.369ZM135.687 208C135.544 207.721 135.44 207.373 135.375 206.958C134.623 207.796 133.646 208.215 132.443 208.215C131.304 208.215 130.359 207.885 129.607 207.227C128.862 206.568 128.49 205.737 128.49 204.734C128.49 203.503 128.944 202.557 129.854 201.898C130.771 201.24 132.092 200.907 133.818 200.899H135.246V200.233C135.246 199.696 135.107 199.267 134.827 198.944C134.555 198.622 134.122 198.461 133.528 198.461C133.005 198.461 132.593 198.586 132.292 198.837C131.999 199.088 131.852 199.431 131.852 199.868H128.747C128.747 199.195 128.955 198.572 129.37 197.999C129.786 197.426 130.373 196.979 131.132 196.656C131.891 196.327 132.744 196.162 133.689 196.162C135.121 196.162 136.256 196.524 137.094 197.247C137.939 197.963 138.362 198.973 138.362 200.276V205.314C138.369 206.417 138.523 207.252 138.824 207.817V208H135.687ZM133.119 205.841C133.578 205.841 134 205.741 134.387 205.54C134.774 205.332 135.06 205.057 135.246 204.713V202.715H134.086C132.532 202.715 131.705 203.252 131.605 204.326L131.594 204.509C131.594 204.896 131.73 205.214 132.002 205.465C132.274 205.715 132.647 205.841 133.119 205.841ZM134.301 191.5H137.685L134.709 194.83H132.185L134.301 191.5ZM141.933 208H138.818V191.5H141.933V208ZM146.127 193.52V196.377H148.114V198.654H146.127V204.455C146.127 204.885 146.209 205.193 146.374 205.379C146.539 205.565 146.854 205.658 147.319 205.658C147.663 205.658 147.967 205.633 148.232 205.583V207.936C147.624 208.122 146.997 208.215 146.353 208.215C144.175 208.215 143.065 207.116 143.022 204.917V198.654H141.325V196.377H143.022V193.52H146.127ZM154.489 208C154.346 207.721 154.242 207.373 154.178 206.958C153.426 207.796 152.448 208.215 151.245 208.215C150.106 208.215 149.161 207.885 148.409 207.227C147.664 206.568 147.292 205.737 147.292 204.734C147.292 203.503 147.747 202.557 148.656 201.898C149.573 201.24 150.894 200.907 152.62 200.899H154.049V200.233C154.049 199.696 153.909 199.267 153.63 198.944C153.358 198.622 152.924 198.461 152.33 198.461C151.807 198.461 151.395 198.586 151.095 198.837C150.801 199.088 150.654 199.431 150.654 199.868H147.55C147.55 199.195 147.757 198.572 148.173 197.999C148.588 197.426 149.175 196.979 149.934 196.656C150.694 196.327 151.546 196.162 152.491 196.162C153.923 196.162 155.058 196.524 155.896 197.247C156.741 197.963 157.164 198.973 157.164 200.276V205.314C157.171 206.417 157.325 207.252 157.626 207.817V208H154.489ZM151.922 205.841C152.38 205.841 152.803 205.741 153.189 205.54C153.576 205.332 153.863 205.057 154.049 204.713V202.715H152.889C151.335 202.715 150.507 203.252 150.407 204.326L150.396 204.509C150.396 204.896 150.532 205.214 150.805 205.465C151.077 205.715 151.449 205.841 151.922 205.841ZM160.735 208H157.62V191.5H160.735V208ZM7.80242 229.338L6.68523 230.455V234H3.58074V217.5H6.68523V226.642L7.2868 225.868L10.2624 222.377H13.9899L9.78973 227.222L14.3552 234H10.7887L7.80242 229.338ZM18.3775 234.215C16.673 234.215 15.2837 233.692 14.2095 232.646C13.1424 231.601 12.6089 230.208 12.6089 228.468V228.167C12.6089 227 12.8345 225.958 13.2857 225.041C13.7368 224.117 14.3742 223.408 15.1978 222.914C16.0285 222.413 16.9738 222.162 18.0337 222.162C19.6236 222.162 20.8732 222.663 21.7827 223.666C22.6994 224.669 23.1577 226.09 23.1577 227.931V229.198H15.7564C15.8566 229.957 16.1574 230.566 16.6587 231.024C17.1672 231.483 17.8081 231.712 18.5816 231.712C19.7775 231.712 20.7121 231.279 21.3853 230.412L22.9107 232.12C22.4452 232.779 21.815 233.295 21.02 233.667C20.2251 234.032 19.3443 234.215 18.3775 234.215ZM18.023 224.676C17.4071 224.676 16.9058 224.883 16.5191 225.299C16.1395 225.714 15.896 226.309 15.7886 227.082H20.107V226.835C20.0926 226.147 19.9064 225.618 19.5484 225.245C19.1903 224.866 18.6818 224.676 18.023 224.676ZM18.3023 217.5H21.6861L18.7105 220.83H16.1861L18.3023 217.5ZM29.1351 230.788C29.1351 230.409 28.9453 230.111 28.5658 229.896C28.1934 229.674 27.5918 229.478 26.7611 229.306C23.9968 228.726 22.6146 227.551 22.6146 225.782C22.6146 224.751 23.0407 223.892 23.8929 223.204C24.7523 222.509 25.8731 222.162 27.2552 222.162C28.7305 222.162 29.9086 222.509 30.7894 223.204C31.6774 223.899 32.1214 224.801 32.1214 225.911H29.017C29.017 225.467 28.8737 225.102 28.5873 224.815C28.3008 224.522 27.8532 224.375 27.2445 224.375C26.7217 224.375 26.3171 224.493 26.0306 224.729C25.7442 224.966 25.6009 225.267 25.6009 225.632C25.6009 225.976 25.7621 226.255 26.0843 226.47C26.4138 226.677 26.9652 226.86 27.7386 227.018C28.5121 227.168 29.1638 227.34 29.6937 227.533C31.3337 228.135 32.1537 229.177 32.1537 230.659C32.1537 231.719 31.6989 232.578 30.7894 233.237C29.8799 233.889 28.7054 234.215 27.266 234.215C26.292 234.215 25.4255 234.043 24.6664 233.699C23.9144 233.348 23.3236 232.872 22.8939 232.271C22.4642 231.662 22.2494 231.007 22.2494 230.305H25.1927C25.2214 230.856 25.4255 231.279 25.805 231.572C26.1846 231.866 26.6931 232.013 27.3304 232.013C27.9248 232.013 28.3724 231.902 28.6732 231.68C28.9811 231.451 29.1351 231.153 29.1351 230.788ZM35.6389 231.497H41.3215V234H31.675V232.109L37.1428 224.891H31.8361V222.377H41.1496V224.214L35.6389 231.497ZM44.5274 234H41.4229V222.377H44.5274V234ZM43.6143 217.661H46.9981L44.0225 220.991H41.4981L43.6143 217.661ZM48.8397 219.52V222.377H50.827V224.654H48.8397V230.455C48.8397 230.885 48.9221 231.193 49.0868 231.379C49.2515 231.565 49.5666 231.658 50.0321 231.658C50.3759 231.658 50.6802 231.633 50.9452 231.583V233.936C50.3365 234.122 49.7098 234.215 49.0653 234.215C46.8882 234.215 45.7782 233.116 45.7352 230.917V224.654H44.038V222.377H45.7352V219.52H48.8397ZM55.8161 234.215C54.1117 234.215 52.7224 233.692 51.6482 232.646C50.5811 231.601 50.0476 230.208 50.0476 228.468V228.167C50.0476 227 50.2732 225.958 50.7243 225.041C51.1755 224.117 51.8129 223.408 52.6364 222.914C53.4672 222.413 54.4125 222.162 55.4724 222.162C57.0622 222.162 58.3119 222.663 59.2214 223.666C60.1381 224.669 60.5964 226.09 60.5964 227.931V229.198H53.195C53.2953 229.957 53.5961 230.566 54.0974 231.024C54.6058 231.483 55.2468 231.712 56.0202 231.712C57.2162 231.712 58.1508 231.279 58.8239 230.412L60.3493 232.12C59.8838 232.779 59.2536 233.295 58.4587 233.667C57.6638 234.032 56.7829 234.215 55.8161 234.215ZM55.4616 224.676C54.8458 224.676 54.3445 224.883 53.9577 225.299C53.5782 225.714 53.3347 226.309 53.2273 227.082H57.5456V226.835C57.5313 226.147 57.3451 225.618 56.987 225.245C56.629 224.866 56.1205 224.676 55.4616 224.676ZM63.9957 219.52V222.377H65.983V224.654H63.9957V230.455C63.9957 230.885 64.078 231.193 64.2427 231.379C64.4074 231.565 64.7226 231.658 65.188 231.658C65.5318 231.658 65.8362 231.633 66.1011 231.583V233.936C65.4924 234.122 64.8658 234.215 64.2212 234.215C62.0442 234.215 60.9341 233.116 60.8912 230.917V224.654H59.1939V222.377H60.8912V219.52H63.9957ZM69.3393 219.52V222.377H71.3266V224.654H69.3393V230.455C69.3393 230.885 69.4216 231.193 69.5863 231.379C69.751 231.565 70.0661 231.658 70.5316 231.658C70.8754 231.658 71.1798 231.633 71.4447 231.583V233.936C70.836 234.122 70.2094 234.215 69.5648 234.215C67.3878 234.215 66.2777 233.116 66.2348 230.917V224.654H64.5375V222.377H66.2348V219.52H69.3393ZM78.0714 219.52V222.377H80.0587V224.654H78.0714V230.455C78.0714 230.885 78.1537 231.193 78.3184 231.379C78.4831 231.565 78.7983 231.658 79.2637 231.658C79.6075 231.658 79.9119 231.633 80.1768 231.583V233.936C79.5681 234.122 78.9415 234.215 78.297 234.215C76.1199 234.215 75.0098 233.116 74.9669 230.917V224.654H73.2696V222.377H74.9669V219.52H78.0714ZM86.4335 234C86.2903 233.721 86.1864 233.373 86.122 232.958C85.37 233.796 84.3925 234.215 83.1894 234.215C82.0507 234.215 81.1054 233.885 80.3534 233.227C79.6086 232.568 79.2363 231.737 79.2363 230.734C79.2363 229.503 79.691 228.557 80.6005 227.898C81.5172 227.24 82.8385 226.907 84.5644 226.899H85.9931V226.233C85.9931 225.696 85.8534 225.267 85.5741 224.944C85.302 224.622 84.8687 224.461 84.2743 224.461C83.7516 224.461 83.3398 224.586 83.039 224.837C82.7454 225.088 82.5986 225.431 82.5986 225.868H79.4941C79.4941 225.195 79.7017 224.572 80.1171 223.999C80.5325 223.426 81.1197 222.979 81.8788 222.656C82.6379 222.327 83.4902 222.162 84.4355 222.162C85.8678 222.162 87.0029 222.524 87.8407 223.247C88.6858 223.963 89.1083 224.973 89.1083 226.276V231.314C89.1155 232.417 89.2695 233.252 89.5702 233.817V234H86.4335ZM83.8661 231.841C84.3245 231.841 84.747 231.741 85.1337 231.54C85.5204 231.332 85.8069 231.057 85.9931 230.713V228.715H84.8329C83.2789 228.715 82.4517 229.252 82.3515 230.326L82.3407 230.509C82.3407 230.896 82.4768 231.214 82.7489 231.465C83.0211 231.715 83.3935 231.841 83.8661 231.841ZM92.2605 222.377L92.3572 223.72C93.1879 222.681 94.3015 222.162 95.698 222.162C96.9298 222.162 97.8464 222.524 98.448 223.247C99.0496 223.97 99.3575 225.052 99.3718 226.491V234H96.2673V226.566C96.2673 225.908 96.1241 225.431 95.8377 225.138C95.5512 224.837 95.075 224.687 94.4089 224.687C93.5352 224.687 92.88 225.059 92.4431 225.804V234H89.3386V222.377H92.2605ZM106.606 232.818C105.84 233.749 104.78 234.215 103.426 234.215C102.18 234.215 101.228 233.857 100.569 233.141C99.9173 232.424 99.5842 231.375 99.5699 229.993V222.377H102.674V229.886C102.674 231.096 103.226 231.701 104.329 231.701C105.381 231.701 106.105 231.336 106.499 230.605V222.377H109.614V234H106.692L106.606 232.818ZM113.142 234H110.027V217.5H113.142V234ZM116.531 222.377L116.627 223.677C117.451 222.667 118.564 222.162 119.968 222.162C121.465 222.162 122.492 222.753 123.051 223.935C123.867 222.753 125.031 222.162 126.542 222.162C127.803 222.162 128.741 222.531 129.357 223.269C129.973 223.999 130.281 225.102 130.281 226.577V234H127.165V226.588C127.165 225.929 127.036 225.449 126.779 225.148C126.521 224.84 126.066 224.687 125.414 224.687C124.483 224.687 123.839 225.131 123.481 226.019L123.491 234H120.387V226.599C120.387 225.925 120.255 225.438 119.99 225.138C119.725 224.837 119.273 224.687 118.636 224.687C117.755 224.687 117.118 225.052 116.724 225.782V234H113.619V222.377H116.531ZM137.321 234C137.178 233.721 137.074 233.373 137.01 232.958C136.258 233.796 135.28 234.215 134.077 234.215C132.939 234.215 131.993 233.885 131.241 233.227C130.497 232.568 130.124 231.737 130.124 230.734C130.124 229.503 130.579 228.557 131.488 227.898C132.405 227.24 133.726 226.907 135.452 226.899H136.881V226.233C136.881 225.696 136.741 225.267 136.462 224.944C136.19 224.622 135.757 224.461 135.162 224.461C134.639 224.461 134.228 224.586 133.927 224.837C133.633 225.088 133.486 225.431 133.486 225.868H130.382C130.382 225.195 130.59 224.572 131.005 223.999C131.42 223.426 132.008 222.979 132.767 222.656C133.526 222.327 134.378 222.162 135.323 222.162C136.756 222.162 137.891 222.524 138.729 223.247C139.574 223.963 139.996 224.973 139.996 226.276V231.314C140.003 232.417 140.157 233.252 140.458 233.817V234H137.321ZM134.754 231.841C135.212 231.841 135.635 231.741 136.022 231.54C136.408 231.332 136.695 231.057 136.881 230.713V228.715H135.721C134.167 228.715 133.34 229.252 133.239 230.326L133.229 230.509C133.229 230.896 133.365 231.214 133.637 231.465C133.909 231.715 134.281 231.841 134.754 231.841ZM135.936 217.5H139.319L136.344 220.83H133.819L135.936 217.5ZM143.148 222.377L143.245 223.72C144.076 222.681 145.189 222.162 146.586 222.162C147.818 222.162 148.734 222.524 149.336 223.247C149.937 223.97 150.245 225.052 150.26 226.491V234H147.155V226.566C147.155 225.908 147.012 225.431 146.726 225.138C146.439 224.837 145.963 224.687 145.297 224.687C144.423 224.687 143.768 225.059 143.331 225.804V234H140.227V222.377H143.148ZM154.873 229.606L157.021 222.377H160.351L155.679 235.805L155.421 236.417C154.726 237.935 153.58 238.694 151.983 238.694C151.532 238.694 151.074 238.626 150.608 238.49V236.138L151.081 236.148C151.668 236.148 152.105 236.059 152.391 235.88C152.685 235.701 152.914 235.404 153.079 234.988L153.444 234.032L149.373 222.377H152.714L154.873 229.606ZM158.831 228.081C158.831 226.928 159.053 225.9 159.497 224.998C159.941 224.096 160.578 223.397 161.409 222.903C162.247 222.409 163.217 222.162 164.32 222.162C165.888 222.162 167.167 222.642 168.155 223.602C169.15 224.561 169.705 225.865 169.82 227.512L169.841 228.307C169.841 230.09 169.344 231.522 168.348 232.604C167.353 233.678 166.017 234.215 164.341 234.215C162.666 234.215 161.326 233.678 160.324 232.604C159.328 231.529 158.831 230.068 158.831 228.221V228.081ZM161.935 228.307C161.935 229.41 162.143 230.255 162.558 230.842C162.974 231.422 163.568 231.712 164.341 231.712C165.093 231.712 165.681 231.425 166.103 230.853C166.526 230.272 166.737 229.349 166.737 228.081C166.737 227 166.526 226.162 166.103 225.567C165.681 224.973 165.086 224.676 164.32 224.676C163.561 224.676 162.974 224.973 162.558 225.567C162.143 226.155 161.935 227.068 161.935 228.307ZM173.885 229.338L172.768 230.455V234H169.664V217.5H172.768V226.642L173.37 225.868L176.345 222.377H180.073L175.873 227.222L180.438 234H176.872L173.885 229.338Z" fill="#ECE7DD"/>
</svg>
